<?xml version="1.0" encoding="UTF-8" standalone="no"?>
<!DOCTYPE svg PUBLIC "-//W3C//DTD SVG 1.1//EN"
 "http://www.w3.org/Graphics/SVG/1.1/DTD/svg11.dtd">
<!-- Generated by graphviz version 2.38.0 (20140413.2041)
 -->
<!-- Title: quest Pages: 1 -->
<svg width="784pt" height="1568pt"
 viewBox="0.00 0.00 783.50 1568.00" xmlns="http://www.w3.org/2000/svg" xmlns:xlink="http://www.w3.org/1999/xlink">
<g id="graph0" class="graph" transform="scale(1 1) rotate(0) translate(4 1564)">
<title>quest</title>
<polygon fill="white" stroke="none" points="-4,4 -4,-1564 779.5,-1564 779.5,4 -4,4"/>
<!-- [ns&#45;0]finish_defence -->
<g id="node1" class="node"><title>[ns&#45;0]finish_defence</title>
<polygon fill="#eeeeee" stroke="none" points="510.5,-291 510.5,-397 767.5,-397 767.5,-291 510.5,-291"/>
<text text-anchor="start" x="513" y="-388" font-family="Times,serif" font-style="italic" font-size="10.00">[ns&#45;0]finish_defence</text>
<text text-anchor="start" x="513" y="-374" font-family="Times,serif" font-size="10.00">Караван приходит в точку назначения</text>
<polygon fill="#dddddd" stroke="none" points="512,-357 512,-370 767,-370 767,-357 512,-357"/>
<text text-anchor="start" x="513" y="-362" font-family="Times,serif" font-size="10.00">hero </text>
<text text-anchor="start" x="534" y="-362" font-family="Times,serif" font-weight="bold" font-size="10.00">находится в</text>
<text text-anchor="start" x="589" y="-362" font-family="Times,serif" font-size="10.00"> place_3</text>
<polygon fill="#ffffff" stroke="none" points="512,-344 512,-357 767,-357 767,-344 512,-344"/>
<text text-anchor="start" x="513" y="-349" font-family="Times,serif" font-weight="bold" font-size="10.00">выдать награду </text>
<text text-anchor="start" x="588" y="-349" font-family="Times,serif" font-size="10.00">  hero </text>
<text text-anchor="start" x="613" y="-349" font-family="Times,serif" font-weight="bold" font-size="10.00">типа </text>
<text text-anchor="start" x="637" y="-349" font-family="Times,serif" font-size="10.00"> finish_defence </text>
<text text-anchor="start" x="702" y="-349" font-family="Times,serif" font-weight="bold" font-size="10.00">в размере</text>
<text text-anchor="start" x="745" y="-349" font-family="Times,serif" font-size="10.00"> 1.00</text>
<polygon fill="#eeeeee" stroke="none" points="512,-331 512,-344 767,-344 767,-331 512,-331"/>
<text text-anchor="start" x="513" y="-336" font-family="Times,serif" font-weight="bold" font-size="10.00">результаты:</text>
<text text-anchor="start" x="513" y="-323" font-family="Times,serif" font-weight="bold" font-size="10.00">person_1</text>
<text text-anchor="start" x="663" y="-322" font-family="Times,serif" font-size="10.00">successed</text>
<text text-anchor="start" x="513" y="-310" font-family="Times,serif" font-weight="bold" font-size="10.00">person_3</text>
<text text-anchor="start" x="663" y="-309" font-family="Times,serif" font-size="10.00">successed</text>
<text text-anchor="start" x="513" y="-297" font-family="Times,serif" font-weight="bold" font-size="10.00">place_5</text>
<text text-anchor="start" x="663" y="-296" font-family="Times,serif" font-size="10.00">neutral</text>
<polygon fill="none" stroke="black" points="510.5,-291 510.5,-397 767.5,-397 767.5,-291 510.5,-291"/>
</g>
<!-- [ns&#45;0]first_defence_continue -->
<g id="node2" class="node"><title>[ns&#45;0]first_defence_continue</title>
<polygon fill="#ffdddd" stroke="none" points="324,-898 324,-965 490,-965 490,-898 324,-898"/>
<text text-anchor="start" x="326" y="-955.5" font-family="Times,serif" font-style="italic" font-size="10.00">[ns&#45;0]first_defence_continue</text>
<text text-anchor="start" x="326" y="-941.5" font-family="Times,serif" font-size="10.00">удалось ли защитить караван?</text>
<polygon fill="#ffeeee" stroke="none" points="325,-924.5 325,-937.5 489,-937.5 489,-924.5 325,-924.5"/>
<text text-anchor="start" x="326" y="-929.5" font-family="Times,serif" font-weight="bold" font-size="10.00">сразиться с кем&#45;нибудь</text>
<polygon fill="#ffdddd" stroke="none" points="325,-911.5 325,-924.5 489,-924.5 489,-911.5 325,-911.5"/>
<text text-anchor="start" x="326" y="-916.5" font-family="Times,serif" font-weight="bold" font-size="10.00">условия:</text>
<text text-anchor="start" x="326" y="-903.5" font-family="Times,serif" font-weight="bold" font-size="10.00">если </text>
<polygon fill="#ffdddd" stroke="none" points="447,-898.5 447,-911.5 489,-911.5 489,-898.5 447,-898.5"/>
<text text-anchor="start" x="448" y="-903.5" font-family="Times,serif" font-size="10.00">hero </text>
<text text-anchor="start" x="469" y="-903.5" font-family="Times,serif" font-weight="bold" font-size="10.00">жив</text>
<polygon fill="none" stroke="black" points="324,-898 324,-965 490,-965 490,-898 324,-898"/>
</g>
<!-- #answer(True, [ns&#45;0]first_defence_continue, [ns&#45;0]second_moving) -->
<g id="node21" class="node"><title>#answer(True, [ns&#45;0]first_defence_continue, [ns&#45;0]second_moving)</title>
<polygon fill="#ffffff" stroke="none" points="479,-807 479,-820 524,-820 524,-807 479,-807"/>
<text text-anchor="start" x="480" y="-811" font-family="Times,serif" font-size="10.00">ИСТИНА</text>
</g>
<!-- [ns&#45;0]first_defence_continue&#45;&gt;#answer(True, [ns&#45;0]first_defence_continue, [ns&#45;0]second_moving) -->
<g id="edge11" class="edge"><title>[ns&#45;0]first_defence_continue:[ns&#45;0]first_defence_continue&#45;&gt;#answer(True, [ns&#45;0]first_defence_continue, [ns&#45;0]second_moving):#answer(True, [ns&#45;0]first_defence_continue, [ns&#45;0]second_moving)</title>
<path fill="none" stroke="black" d="M433.685,-897.711C455.614,-870.767 484.848,-834.847 496.205,-820.891"/>
</g>
<!-- #answer(False, [ns&#45;0]first_defence_continue, [ns&#45;0]finish_defence_failed) -->
<g id="node28" class="node"><title>#answer(False, [ns&#45;0]first_defence_continue, [ns&#45;0]finish_defence_failed)</title>
<polygon fill="#ffffff" stroke="none" points="385,-598 385,-611 417,-611 417,-598 385,-598"/>
<text text-anchor="start" x="386" y="-602" font-family="Times,serif" font-size="10.00">ЛОЖЬ</text>
</g>
<!-- [ns&#45;0]first_defence_continue&#45;&gt;#answer(False, [ns&#45;0]first_defence_continue, [ns&#45;0]finish_defence_failed) -->
<g id="edge28" class="edge"><title>[ns&#45;0]first_defence_continue:[ns&#45;0]first_defence_continue&#45;&gt;#answer(False, [ns&#45;0]first_defence_continue, [ns&#45;0]finish_defence_failed):#answer(False, [ns&#45;0]first_defence_continue, [ns&#45;0]finish_defence_failed)</title>
<path fill="none" stroke="black" d="M406.397,-897.9C405.024,-823.647 401.735,-645.725 401.105,-611.683"/>
</g>
<!-- [ns&#45;0]start -->
<g id="node3" class="node"><title>[ns&#45;0]start</title>
<polygon fill="#eeeeee" stroke="none" points="200.5,-1502 200.5,-1556 315.5,-1556 315.5,-1502 200.5,-1502"/>
<text text-anchor="start" x="203" y="-1547" font-family="Times,serif" font-style="italic" font-size="10.00">[ns&#45;0]start</text>
<text text-anchor="start" x="270.5" y="-1547" font-family="Times,serif" font-weight="bold" font-size="10.00">caravan</text>
<text text-anchor="start" x="203" y="-1533" font-family="Times,serif" font-size="10.00">Начало: караван</text>
<polygon fill="#dddddd" stroke="none" points="202,-1516 202,-1529 315,-1529 315,-1516 202,-1516"/>
<text text-anchor="start" x="203" y="-1521" font-family="Times,serif" font-size="10.00">hero </text>
<text text-anchor="start" x="224" y="-1521" font-family="Times,serif" font-weight="bold" font-size="10.00">находится в</text>
<text text-anchor="start" x="279" y="-1521" font-family="Times,serif" font-size="10.00"> place_1</text>
<polygon fill="#ffffff" stroke="none" points="202,-1503 202,-1516 315,-1516 315,-1503 202,-1503"/>
<text text-anchor="start" x="203" y="-1508" font-family="Times,serif" font-weight="bold" font-size="10.00">сообщение:</text>
<text text-anchor="start" x="255" y="-1508" font-family="Times,serif" font-size="10.00"> intro</text>
<polygon fill="none" stroke="black" points="200.5,-1502 200.5,-1556 315.5,-1556 315.5,-1502 200.5,-1502"/>
</g>
<!-- #jump([ns&#45;0]start, [ns&#45;0]first_moving) -->
<g id="node24" class="node"><title>#jump([ns&#45;0]start, [ns&#45;0]first_moving)</title>
<polygon fill="#eeeeee" stroke="none" points="204,-1437 204,-1450 313,-1450 313,-1437 204,-1437"/>
<text text-anchor="start" x="205" y="-1442" font-family="Times,serif" font-weight="bold" font-size="10.00">сообщение:</text>
<text text-anchor="start" x="257" y="-1442" font-family="Times,serif" font-size="10.00"> first_moving</text>
</g>
<!-- [ns&#45;0]start&#45;&gt;#jump([ns&#45;0]start, [ns&#45;0]first_moving) -->
<g id="edge17" class="edge"><title>[ns&#45;0]start:[ns&#45;0]start&#45;&gt;#jump([ns&#45;0]start, [ns&#45;0]first_moving):#jump([ns&#45;0]start, [ns&#45;0]first_moving)</title>
<path fill="none" stroke="black" d="M258,-1501.74C258,-1483.69 258,-1461.18 258,-1450.77"/>
</g>
<!-- [ns&#45;0]attack -->
<g id="node4" class="node"><title>[ns&#45;0]attack</title>
<polygon fill="#ffdddd" stroke="none" points="131.5,-774 131.5,-854 238.5,-854 238.5,-774 131.5,-774"/>
<text text-anchor="start" x="134" y="-845" font-family="Times,serif" font-style="italic" font-size="10.00">[ns&#45;0]attack</text>
<text text-anchor="start" x="134" y="-831" font-family="Times,serif" font-size="10.00">нападение</text>
<polygon fill="#ffeeee" stroke="none" points="133,-814 133,-827 238,-827 238,-814 133,-814"/>
<text text-anchor="start" x="134" y="-819" font-family="Times,serif" font-weight="bold" font-size="10.00">сообщение:</text>
<text text-anchor="start" x="186" y="-819" font-family="Times,serif" font-size="10.00"> attack</text>
<polygon fill="#ffeeee" stroke="none" points="133,-801 133,-814 238,-814 238,-801 133,-801"/>
<text text-anchor="start" x="134" y="-806" font-family="Times,serif" font-weight="bold" font-size="10.00">сразиться с наёмником</text>
<polygon fill="#ffdddd" stroke="none" points="133,-788 133,-801 238,-801 238,-788 133,-788"/>
<text text-anchor="start" x="134" y="-793" font-family="Times,serif" font-weight="bold" font-size="10.00">условия:</text>
<text text-anchor="start" x="134" y="-780" font-family="Times,serif" font-weight="bold" font-size="10.00">если </text>
<polygon fill="#ffdddd" stroke="none" points="191,-775 191,-788 238,-788 238,-775 191,-775"/>
<text text-anchor="start" x="192" y="-780" font-family="Times,serif" font-size="10.00">hero </text>
<text text-anchor="start" x="213" y="-780" font-family="Times,serif" font-weight="bold" font-size="10.00">жив</text>
<polygon fill="none" stroke="black" points="131.5,-774 131.5,-854 238.5,-854 238.5,-774 131.5,-774"/>
</g>
<!-- #answer(False, [ns&#45;0]attack, [ns&#45;0]finish_attack_failed) -->
<g id="node25" class="node"><title>#answer(False, [ns&#45;0]attack, [ns&#45;0]finish_attack_failed)</title>
<polygon fill="#ffffff" stroke="none" points="67,-702.5 67,-715.5 99,-715.5 99,-702.5 67,-702.5"/>
<text text-anchor="start" x="68" y="-706.5" font-family="Times,serif" font-size="10.00">ЛОЖЬ</text>
</g>
<!-- [ns&#45;0]attack&#45;&gt;#answer(False, [ns&#45;0]attack, [ns&#45;0]finish_attack_failed) -->
<g id="edge20" class="edge"><title>[ns&#45;0]attack:[ns&#45;0]attack&#45;&gt;#answer(False, [ns&#45;0]attack, [ns&#45;0]finish_attack_failed):#answer(False, [ns&#45;0]attack, [ns&#45;0]finish_attack_failed)</title>
<path fill="none" stroke="black" d="M146.147,-773.957C124.303,-752.006 99.3023,-726.882 88.4738,-716.001"/>
</g>
<!-- #answer(True, [ns&#45;0]attack, [ns&#45;0]run) -->
<g id="node29" class="node"><title>#answer(True, [ns&#45;0]attack, [ns&#45;0]run)</title>
<polygon fill="#ffffff" stroke="none" points="140,-709.5 140,-722.5 233,-722.5 233,-709.5 140,-709.5"/>
<text text-anchor="start" x="141" y="-713.5" font-family="Times,serif" font-size="10.00">ИСТИНА</text>
<polygon fill="#eeeeee" stroke="none" points="140,-696.5 140,-709.5 233,-709.5 233,-696.5 140,-696.5"/>
<text text-anchor="start" x="141" y="-701.5" font-family="Times,serif" font-weight="bold" font-size="10.00">сообщение:</text>
<text text-anchor="start" x="193" y="-701.5" font-family="Times,serif" font-size="10.00"> start_run</text>
</g>
<!-- [ns&#45;0]attack&#45;&gt;#answer(True, [ns&#45;0]attack, [ns&#45;0]run) -->
<g id="edge30" class="edge"><title>[ns&#45;0]attack:[ns&#45;0]attack&#45;&gt;#answer(True, [ns&#45;0]attack, [ns&#45;0]run):#answer(True, [ns&#45;0]attack, [ns&#45;0]run)</title>
<path fill="none" stroke="black" d="M185.381,-773.957C185.558,-755.853 185.755,-735.591 185.879,-722.94"/>
</g>
<!-- [ns&#45;0]fight -->
<g id="node5" class="node"><title>[ns&#45;0]fight</title>
<polygon fill="#ffdddd" stroke="none" points="138.5,-441 138.5,-521 245.5,-521 245.5,-441 138.5,-441"/>
<text text-anchor="start" x="141" y="-512" font-family="Times,serif" font-style="italic" font-size="10.00">[ns&#45;0]fight</text>
<text text-anchor="start" x="141" y="-498" font-family="Times,serif" font-size="10.00">защита награбленного</text>
<polygon fill="#ffeeee" stroke="none" points="140,-481 140,-494 245,-494 245,-481 140,-481"/>
<text text-anchor="start" x="141" y="-486" font-family="Times,serif" font-weight="bold" font-size="10.00">сообщение:</text>
<text text-anchor="start" x="193" y="-486" font-family="Times,serif" font-size="10.00"> fight</text>
<polygon fill="#ffeeee" stroke="none" points="140,-468 140,-481 245,-481 245,-468 140,-468"/>
<text text-anchor="start" x="141" y="-473" font-family="Times,serif" font-weight="bold" font-size="10.00">сразиться с наёмником</text>
<polygon fill="#ffdddd" stroke="none" points="140,-455 140,-468 245,-468 245,-455 140,-455"/>
<text text-anchor="start" x="141" y="-460" font-family="Times,serif" font-weight="bold" font-size="10.00">условия:</text>
<text text-anchor="start" x="141" y="-447" font-family="Times,serif" font-weight="bold" font-size="10.00">если </text>
<polygon fill="#ffdddd" stroke="none" points="195,-442 195,-455 245,-455 245,-442 195,-442"/>
<text text-anchor="start" x="196" y="-447" font-family="Times,serif" font-size="10.00">hero </text>
<text text-anchor="start" x="217" y="-447" font-family="Times,serif" font-weight="bold" font-size="10.00">жив</text>
<polygon fill="none" stroke="black" points="138.5,-441 138.5,-521 245.5,-521 245.5,-441 138.5,-441"/>
</g>
<!-- #answer(False, [ns&#45;0]fight, [ns&#45;0]finish_attack_failed) -->
<g id="node22" class="node"><title>#answer(False, [ns&#45;0]fight, [ns&#45;0]finish_attack_failed)</title>
<polygon fill="#ffffff" stroke="none" points="122,-337 122,-350 154,-350 154,-337 122,-337"/>
<text text-anchor="start" x="123" y="-341" font-family="Times,serif" font-size="10.00">ЛОЖЬ</text>
</g>
<!-- [ns&#45;0]fight&#45;&gt;#answer(False, [ns&#45;0]fight, [ns&#45;0]finish_attack_failed) -->
<g id="edge13" class="edge"><title>[ns&#45;0]fight:[ns&#45;0]fight&#45;&gt;#answer(False, [ns&#45;0]fight, [ns&#45;0]finish_attack_failed):#answer(False, [ns&#45;0]fight, [ns&#45;0]finish_attack_failed)</title>
<path fill="none" stroke="black" d="M176.381,-440.952C163.548,-408.869 146.515,-366.289 140.352,-350.879"/>
</g>
<!-- #answer(True, [ns&#45;0]fight, [ns&#45;0]hide) -->
<g id="node27" class="node"><title>#answer(True, [ns&#45;0]fight, [ns&#45;0]hide)</title>
<polygon fill="#ffffff" stroke="none" points="194,-344 194,-357 291,-357 291,-344 194,-344"/>
<text text-anchor="start" x="195" y="-348" font-family="Times,serif" font-size="10.00">ИСТИНА</text>
<polygon fill="#eeeeee" stroke="none" points="194,-331 194,-344 291,-344 291,-331 194,-331"/>
<text text-anchor="start" x="195" y="-336" font-family="Times,serif" font-weight="bold" font-size="10.00">сообщение:</text>
<text text-anchor="start" x="247" y="-336" font-family="Times,serif" font-size="10.00"> start_hide</text>
</g>
<!-- [ns&#45;0]fight&#45;&gt;#answer(True, [ns&#45;0]fight, [ns&#45;0]hide) -->
<g id="edge24" class="edge"><title>[ns&#45;0]fight:[ns&#45;0]fight&#45;&gt;#answer(True, [ns&#45;0]fight, [ns&#45;0]hide):#answer(True, [ns&#45;0]fight, [ns&#45;0]hide)</title>
<path fill="none" stroke="black" d="M206.462,-440.952C217.018,-412.451 230.642,-375.666 237.554,-357.004"/>
</g>
<!-- [ns&#45;0]move_to_attack -->
<g id="node6" class="node"><title>[ns&#45;0]move_to_attack</title>
<polygon fill="#ddffdd" stroke="none" points="80,-911 80,-952 290,-952 290,-911 80,-911"/>
<text text-anchor="start" x="82" y="-942.5" font-family="Times,serif" font-style="italic" font-size="10.00">[ns&#45;0]move_to_attack</text>
<text text-anchor="start" x="82" y="-928.5" font-family="Times,serif" font-size="10.00">ведём караван в засаду</text>
<polygon fill="#cceecc" stroke="none" points="81,-911.5 81,-924.5 289,-924.5 289,-911.5 81,-911.5"/>
<text text-anchor="start" x="82" y="-916.5" font-family="Times,serif" font-size="10.00">hero </text>
<text text-anchor="start" x="103" y="-916.5" font-family="Times,serif" font-weight="bold" font-size="10.00">прошёл</text>
<text text-anchor="start" x="137" y="-916.5" font-family="Times,serif" font-size="10.00"> 48%</text>
<text text-anchor="start" x="159" y="-916.5" font-family="Times,serif" font-weight="bold" font-size="10.00"> дороги от</text>
<text text-anchor="start" x="205" y="-916.5" font-family="Times,serif" font-size="10.00"> place_1 </text>
<text text-anchor="start" x="242" y="-916.5" font-family="Times,serif" font-weight="bold" font-size="10.00">до</text>
<text text-anchor="start" x="253" y="-916.5" font-family="Times,serif" font-size="10.00"> place_3</text>
<polygon fill="none" stroke="black" points="80,-911 80,-952 290,-952 290,-911 80,-911"/>
</g>
<!-- [ns&#45;0]move_to_attack&#45;&gt;[ns&#45;0]attack -->
<g id="edge26" class="edge"><title>[ns&#45;0]move_to_attack:[ns&#45;0]move_to_attack&#45;&gt;[ns&#45;0]attack:[ns&#45;0]attack</title>
<path fill="none" stroke="black" d="M185,-910.907C185,-898.115 185,-880.803 185,-864.407"/>
<polygon fill="black" stroke="black" points="188.5,-864.365 185,-854.365 181.5,-864.365 188.5,-864.365"/>
</g>
<!-- [ns&#45;0]run -->
<g id="node7" class="node"><title>[ns&#45;0]run</title>
<polygon fill="#ddffdd" stroke="none" points="116,-584.5 116,-625.5 268,-625.5 268,-584.5 116,-584.5"/>
<text text-anchor="start" x="118" y="-616" font-family="Times,serif" font-style="italic" font-size="10.00">[ns&#45;0]run</text>
<text text-anchor="start" x="118" y="-602" font-family="Times,serif" font-size="10.00">скрываемся с места преступления</text>
<polygon fill="#eeffee" stroke="none" points="117,-585 117,-598 267,-598 267,-585 117,-585"/>
<text text-anchor="start" x="118" y="-590" font-family="Times,serif" font-weight="bold" font-size="10.00">отправить </text>
<text text-anchor="start" x="168" y="-590" font-family="Times,serif" font-size="10.00"> hero</text>
<text text-anchor="start" x="189" y="-590" font-family="Times,serif" font-weight="bold" font-size="10.00">бродить в округе</text>
<polygon fill="none" stroke="black" points="116,-584.5 116,-625.5 268,-625.5 268,-584.5 116,-584.5"/>
</g>
<!-- [ns&#45;0]run&#45;&gt;[ns&#45;0]fight -->
<g id="edge10" class="edge"><title>[ns&#45;0]run:[ns&#45;0]run&#45;&gt;[ns&#45;0]fight:[ns&#45;0]fight</title>
<path fill="none" stroke="black" d="M192,-584.399C192,-570.02 192,-549.831 192,-531.176"/>
<polygon fill="black" stroke="black" points="195.5,-531.017 192,-521.017 188.5,-531.017 195.5,-531.017"/>
</g>
<!-- [ns&#45;0]caravan_choice -->
<g id="node8" class="node"><title>[ns&#45;0]caravan_choice</title>
<polygon fill="#ddddff" stroke="none" points="186.5,-1273 186.5,-1301 329.5,-1301 329.5,-1273 186.5,-1273"/>
<text text-anchor="start" x="189" y="-1292" font-family="Times,serif" font-style="italic" font-size="10.00">[ns&#45;0]caravan_choice</text>
<text text-anchor="start" x="189" y="-1278" font-family="Times,serif" font-size="10.00">Решение: защитить или ограбить</text>
<polygon fill="none" stroke="black" points="186.5,-1273 186.5,-1301 329.5,-1301 329.5,-1273 186.5,-1273"/>
</g>
<!-- #option([ns&#45;0]caravan_choice, [ns&#45;0]move_to_attack, jump_attack) -->
<g id="node17" class="node"><title>#option([ns&#45;0]caravan_choice, [ns&#45;0]move_to_attack, jump_attack)</title>
<polygon fill="#ffffff" stroke="none" points="128,-1125 128,-1138 243,-1138 243,-1125 128,-1125"/>
<text text-anchor="start" x="129" y="-1129" font-family="Times,serif" font-size="10.00">jump_attack</text>
<polygon fill="#aadddd" stroke="none" points="128,-1112 128,-1125 243,-1125 243,-1112 128,-1112"/>
<text text-anchor="start" x="129" y="-1116" font-family="Times,serif" font-size="10.00">[бесчестие]</text>
<polygon fill="#eeeeee" stroke="none" points="128,-1099 128,-1112 243,-1112 243,-1099 128,-1099"/>
<text text-anchor="start" x="129" y="-1104" font-family="Times,serif" font-weight="bold" font-size="10.00">сообщение:</text>
<text text-anchor="start" x="181" y="-1104" font-family="Times,serif" font-size="10.00"> choose_attack</text>
</g>
<!-- [ns&#45;0]caravan_choice&#45;&gt;#option([ns&#45;0]caravan_choice, [ns&#45;0]move_to_attack, jump_attack) -->
<g id="edge1" class="edge"><title>[ns&#45;0]caravan_choice:[ns&#45;0]caravan_choice&#45;&gt;#option([ns&#45;0]caravan_choice, [ns&#45;0]move_to_attack, jump_attack):#option([ns&#45;0]caravan_choice, [ns&#45;0]move_to_attack, jump_attack)</title>
<path fill="none" stroke="black" stroke-dasharray="1,5" d="M252.272,-1272.97C239.399,-1243.7 208.141,-1172.62 193.208,-1138.66"/>
</g>
<!-- #option([ns&#45;0]caravan_choice, [ns&#45;0]first_defence, jump_defence) -->
<g id="node20" class="node"><title>#option([ns&#45;0]caravan_choice, [ns&#45;0]first_defence, jump_defence)</title>
<polygon fill="#5555ff" stroke="none" points="426,-1233 288,-1233 288,-1186 426,-1186 426,-1233"/>
<polygon fill="#ffffff" stroke="none" points="296,-1215.5 296,-1228.5 418,-1228.5 418,-1215.5 296,-1215.5"/>
<text text-anchor="start" x="297" y="-1219.5" font-family="Times,serif" font-size="10.00">jump_defence</text>
<polygon fill="#aadddd" stroke="none" points="296,-1202.5 296,-1215.5 418,-1215.5 418,-1202.5 296,-1202.5"/>
<text text-anchor="start" x="297" y="-1206.5" font-family="Times,serif" font-size="10.00">[честь]</text>
<polygon fill="#eeeeee" stroke="none" points="296,-1189.5 296,-1202.5 418,-1202.5 418,-1189.5 296,-1189.5"/>
<text text-anchor="start" x="297" y="-1194.5" font-family="Times,serif" font-weight="bold" font-size="10.00">сообщение:</text>
<text text-anchor="start" x="349" y="-1194.5" font-family="Times,serif" font-size="10.00"> choose_defence</text>
</g>
<!-- [ns&#45;0]caravan_choice&#45;&gt;#option([ns&#45;0]caravan_choice, [ns&#45;0]first_defence, jump_defence) -->
<g id="edge7" class="edge"><title>[ns&#45;0]caravan_choice:[ns&#45;0]caravan_choice&#45;&gt;#option([ns&#45;0]caravan_choice, [ns&#45;0]first_defence, jump_defence):#option([ns&#45;0]caravan_choice, [ns&#45;0]first_defence, jump_defence)</title>
<path fill="none" stroke="black" stroke-dasharray="1,5" d="M275.244,-1272.85C291.089,-1260.77 314.742,-1242.73 332.536,-1229.16"/>
</g>
<!-- [ns&#45;0]finish_attack_failed -->
<g id="node9" class="node"><title>[ns&#45;0]finish_attack_failed</title>
<polygon fill="#eeeeee" stroke="none" points="8,-154 8,-247 152,-247 152,-154 8,-154"/>
<text text-anchor="start" x="10" y="-237.5" font-family="Times,serif" font-style="italic" font-size="10.00">[ns&#45;0]finish_attack_failed</text>
<text text-anchor="start" x="10" y="-223.5" font-family="Times,serif" font-size="10.00">Герой не смог ограбить караван</text>
<polygon fill="#ffffff" stroke="none" points="9,-206.5 9,-219.5 151,-219.5 151,-206.5 9,-206.5"/>
<text text-anchor="start" x="10" y="-211.5" font-family="Times,serif" font-weight="bold" font-size="10.00">сообщение:</text>
<text text-anchor="start" x="62" y="-211.5" font-family="Times,serif" font-size="10.00"> finish_attack_failed</text>
<polygon fill="#eeeeee" stroke="none" points="9,-193.5 9,-206.5 151,-206.5 151,-193.5 9,-193.5"/>
<text text-anchor="start" x="10" y="-198.5" font-family="Times,serif" font-weight="bold" font-size="10.00">результаты:</text>
<text text-anchor="start" x="10" y="-185.5" font-family="Times,serif" font-weight="bold" font-size="10.00">person_1</text>
<text text-anchor="start" x="121" y="-184.5" font-family="Times,serif" font-size="10.00">neutral</text>
<text text-anchor="start" x="10" y="-172.5" font-family="Times,serif" font-weight="bold" font-size="10.00">person_3</text>
<text text-anchor="start" x="121" y="-171.5" font-family="Times,serif" font-size="10.00">neutral</text>
<text text-anchor="start" x="10" y="-159.5" font-family="Times,serif" font-weight="bold" font-size="10.00">place_5</text>
<text text-anchor="start" x="121" y="-158.5" font-family="Times,serif" font-size="10.00">neutral</text>
<polygon fill="none" stroke="black" points="8,-154 8,-247 152,-247 152,-154 8,-154"/>
</g>
<!-- [ns&#45;0]finish_attack -->
<g id="node10" class="node"><title>[ns&#45;0]finish_attack</title>
<polygon fill="#eeeeee" stroke="none" points="137,-4 137,-110 387,-110 387,-4 137,-4"/>
<text text-anchor="start" x="139" y="-101" font-family="Times,serif" font-style="italic" font-size="10.00">[ns&#45;0]finish_attack</text>
<text text-anchor="start" x="139" y="-87" font-family="Times,serif" font-size="10.00">Продать товар на чёрном рынке</text>
<polygon fill="#dddddd" stroke="none" points="138,-70 138,-83 386,-83 386,-70 138,-70"/>
<text text-anchor="start" x="139" y="-75" font-family="Times,serif" font-size="10.00">hero </text>
<text text-anchor="start" x="160" y="-75" font-family="Times,serif" font-weight="bold" font-size="10.00">находится в</text>
<text text-anchor="start" x="215" y="-75" font-family="Times,serif" font-size="10.00"> place_5</text>
<polygon fill="#ffffff" stroke="none" points="138,-57 138,-70 386,-70 386,-57 138,-57"/>
<text text-anchor="start" x="139" y="-62" font-family="Times,serif" font-weight="bold" font-size="10.00">выдать награду </text>
<text text-anchor="start" x="214" y="-62" font-family="Times,serif" font-size="10.00">  hero </text>
<text text-anchor="start" x="239" y="-62" font-family="Times,serif" font-weight="bold" font-size="10.00">типа </text>
<text text-anchor="start" x="263" y="-62" font-family="Times,serif" font-size="10.00"> finish_attack </text>
<text text-anchor="start" x="321" y="-62" font-family="Times,serif" font-weight="bold" font-size="10.00">в размере</text>
<text text-anchor="start" x="364" y="-62" font-family="Times,serif" font-size="10.00"> 1.50</text>
<polygon fill="#eeeeee" stroke="none" points="138,-44 138,-57 386,-57 386,-44 138,-44"/>
<text text-anchor="start" x="139" y="-49" font-family="Times,serif" font-weight="bold" font-size="10.00">результаты:</text>
<text text-anchor="start" x="139" y="-36" font-family="Times,serif" font-weight="bold" font-size="10.00">person_1</text>
<text text-anchor="start" x="282" y="-35" font-family="Times,serif" font-size="10.00">failed</text>
<text text-anchor="start" x="139" y="-23" font-family="Times,serif" font-weight="bold" font-size="10.00">person_3</text>
<text text-anchor="start" x="282" y="-22" font-family="Times,serif" font-size="10.00">failed</text>
<text text-anchor="start" x="139" y="-10" font-family="Times,serif" font-weight="bold" font-size="10.00">place_5</text>
<text text-anchor="start" x="282" y="-9" font-family="Times,serif" font-size="10.00">successed</text>
<polygon fill="none" stroke="black" points="137,-4 137,-110 387,-110 387,-4 137,-4"/>
</g>
<!-- [ns&#45;0]second_defence -->
<g id="node11" class="node"><title>[ns&#45;0]second_defence</title>
<polygon fill="#ffdddd" stroke="none" points="473.5,-565 473.5,-645 610.5,-645 610.5,-565 473.5,-565"/>
<text text-anchor="start" x="476" y="-636" font-family="Times,serif" font-style="italic" font-size="10.00">[ns&#45;0]second_defence</text>
<text text-anchor="start" x="476" y="-622" font-family="Times,serif" font-size="10.00">вторая защита</text>
<polygon fill="#ffeeee" stroke="none" points="475,-605 475,-618 610,-618 610,-605 475,-605"/>
<text text-anchor="start" x="476" y="-610" font-family="Times,serif" font-weight="bold" font-size="10.00">сообщение:</text>
<text text-anchor="start" x="528" y="-610" font-family="Times,serif" font-size="10.00"> defence</text>
<polygon fill="#ffeeee" stroke="none" points="475,-592 475,-605 610,-605 610,-592 475,-592"/>
<text text-anchor="start" x="476" y="-597" font-family="Times,serif" font-weight="bold" font-size="10.00">сразиться с кем&#45;нибудь</text>
<polygon fill="#ffdddd" stroke="none" points="475,-579 475,-592 610,-592 610,-579 475,-579"/>
<text text-anchor="start" x="476" y="-584" font-family="Times,serif" font-weight="bold" font-size="10.00">условия:</text>
<text text-anchor="start" x="476" y="-571" font-family="Times,serif" font-weight="bold" font-size="10.00">если </text>
<polygon fill="#ffdddd" stroke="none" points="568,-566 568,-579 610,-579 610,-566 568,-566"/>
<text text-anchor="start" x="569" y="-571" font-family="Times,serif" font-size="10.00">hero </text>
<text text-anchor="start" x="590" y="-571" font-family="Times,serif" font-weight="bold" font-size="10.00">жив</text>
<polygon fill="none" stroke="black" points="473.5,-565 473.5,-645 610.5,-645 610.5,-565 473.5,-565"/>
</g>
<!-- #answer(False, [ns&#45;0]second_defence, [ns&#45;0]finish_defence_failed) -->
<g id="node18" class="node"><title>#answer(False, [ns&#45;0]second_defence, [ns&#45;0]finish_defence_failed)</title>
<polygon fill="#ffffff" stroke="none" points="445,-474 445,-487 477,-487 477,-474 445,-474"/>
<text text-anchor="start" x="446" y="-478" font-family="Times,serif" font-size="10.00">ЛОЖЬ</text>
</g>
<!-- [ns&#45;0]second_defence&#45;&gt;#answer(False, [ns&#45;0]second_defence, [ns&#45;0]finish_defence_failed) -->
<g id="edge3" class="edge"><title>[ns&#45;0]second_defence:[ns&#45;0]second_defence&#45;&gt;#answer(False, [ns&#45;0]second_defence, [ns&#45;0]finish_defence_failed):#answer(False, [ns&#45;0]second_defence, [ns&#45;0]finish_defence_failed)</title>
<path fill="none" stroke="black" d="M515.925,-564.727C497.241,-536.585 473.845,-501.347 464.807,-487.733"/>
</g>
<!-- #answer(True, [ns&#45;0]second_defence, [ns&#45;0]finish_defence) -->
<g id="node23" class="node"><title>#answer(True, [ns&#45;0]second_defence, [ns&#45;0]finish_defence)</title>
<polygon fill="#ffffff" stroke="none" points="568,-474 568,-487 613,-487 613,-474 568,-474"/>
<text text-anchor="start" x="569" y="-478" font-family="Times,serif" font-size="10.00">ИСТИНА</text>
</g>
<!-- [ns&#45;0]second_defence&#45;&gt;#answer(True, [ns&#45;0]second_defence, [ns&#45;0]finish_defence) -->
<g id="edge15" class="edge"><title>[ns&#45;0]second_defence:[ns&#45;0]second_defence&#45;&gt;#answer(True, [ns&#45;0]second_defence, [ns&#45;0]finish_defence):#answer(True, [ns&#45;0]second_defence, [ns&#45;0]finish_defence)</title>
<path fill="none" stroke="black" d="M557.452,-564.727C568.524,-536.585 582.388,-501.347 587.744,-487.733"/>
</g>
<!-- [ns&#45;0]first_moving -->
<g id="node12" class="node"><title>[ns&#45;0]first_moving</title>
<polygon fill="#ddffdd" stroke="none" points="153,-1345 153,-1386 363,-1386 363,-1345 153,-1345"/>
<text text-anchor="start" x="155" y="-1376.5" font-family="Times,serif" font-style="italic" font-size="10.00">[ns&#45;0]first_moving</text>
<text text-anchor="start" x="155" y="-1362.5" font-family="Times,serif" font-size="10.00">двигаемся с караваном</text>
<polygon fill="#cceecc" stroke="none" points="154,-1345.5 154,-1358.5 362,-1358.5 362,-1345.5 154,-1345.5"/>
<text text-anchor="start" x="155" y="-1350.5" font-family="Times,serif" font-size="10.00">hero </text>
<text text-anchor="start" x="176" y="-1350.5" font-family="Times,serif" font-weight="bold" font-size="10.00">прошёл</text>
<text text-anchor="start" x="210" y="-1350.5" font-family="Times,serif" font-size="10.00"> 12%</text>
<text text-anchor="start" x="232" y="-1350.5" font-family="Times,serif" font-weight="bold" font-size="10.00"> дороги от</text>
<text text-anchor="start" x="278" y="-1350.5" font-family="Times,serif" font-size="10.00"> place_1 </text>
<text text-anchor="start" x="315" y="-1350.5" font-family="Times,serif" font-weight="bold" font-size="10.00">до</text>
<text text-anchor="start" x="326" y="-1350.5" font-family="Times,serif" font-size="10.00"> place_3</text>
<polygon fill="none" stroke="black" points="153,-1345 153,-1386 363,-1386 363,-1345 153,-1345"/>
</g>
<!-- [ns&#45;0]first_moving&#45;&gt;[ns&#45;0]caravan_choice -->
<g id="edge27" class="edge"><title>[ns&#45;0]first_moving:[ns&#45;0]first_moving&#45;&gt;[ns&#45;0]caravan_choice:[ns&#45;0]caravan_choice</title>
<path fill="none" stroke="black" d="M258,-1344.8C258,-1334.68 258,-1322.27 258,-1311.64"/>
<polygon fill="black" stroke="black" points="261.5,-1311.37 258,-1301.37 254.5,-1311.37 261.5,-1311.37"/>
</g>
<!-- [ns&#45;0]finish_defence_failed -->
<g id="node13" class="node"><title>[ns&#45;0]finish_defence_failed</title>
<polygon fill="#eeeeee" stroke="none" points="326,-297.5 326,-390.5 476,-390.5 476,-297.5 326,-297.5"/>
<text text-anchor="start" x="328" y="-381" font-family="Times,serif" font-style="italic" font-size="10.00">[ns&#45;0]finish_defence_failed</text>
<text text-anchor="start" x="328" y="-367" font-family="Times,serif" font-size="10.00">Герой не смог защитить караван</text>
<polygon fill="#ffffff" stroke="none" points="327,-350 327,-363 475,-363 475,-350 327,-350"/>
<text text-anchor="start" x="328" y="-355" font-family="Times,serif" font-weight="bold" font-size="10.00">сообщение:</text>
<text text-anchor="start" x="380" y="-355" font-family="Times,serif" font-size="10.00"> finish_defence_failed</text>
<polygon fill="#eeeeee" stroke="none" points="327,-337 327,-350 475,-350 475,-337 327,-337"/>
<text text-anchor="start" x="328" y="-342" font-family="Times,serif" font-weight="bold" font-size="10.00">результаты:</text>
<text text-anchor="start" x="328" y="-329" font-family="Times,serif" font-weight="bold" font-size="10.00">person_1</text>
<text text-anchor="start" x="445" y="-328" font-family="Times,serif" font-size="10.00">neutral</text>
<text text-anchor="start" x="328" y="-316" font-family="Times,serif" font-weight="bold" font-size="10.00">person_3</text>
<text text-anchor="start" x="445" y="-315" font-family="Times,serif" font-size="10.00">neutral</text>
<text text-anchor="start" x="328" y="-303" font-family="Times,serif" font-weight="bold" font-size="10.00">place_5</text>
<text text-anchor="start" x="445" y="-302" font-family="Times,serif" font-size="10.00">neutral</text>
<polygon fill="none" stroke="black" points="326,-297.5 326,-390.5 476,-390.5 476,-297.5 326,-297.5"/>
</g>
<!-- [ns&#45;0]first_defence -->
<g id="node14" class="node"><title>[ns&#45;0]first_defence</title>
<polygon fill="#ddddff" stroke="none" points="277,-1092 277,-1146 487,-1146 487,-1092 277,-1092"/>
<text text-anchor="start" x="279" y="-1137" font-family="Times,serif" font-style="italic" font-size="10.00">[ns&#45;0]first_defence</text>
<text text-anchor="start" x="279" y="-1123" font-family="Times,serif" font-size="10.00">первая защита</text>
<polygon fill="#ccccee" stroke="none" points="278,-1106 278,-1119 486,-1119 486,-1106 278,-1106"/>
<text text-anchor="start" x="279" y="-1111" font-family="Times,serif" font-size="10.00">hero </text>
<text text-anchor="start" x="300" y="-1111" font-family="Times,serif" font-weight="bold" font-size="10.00">прошёл</text>
<text text-anchor="start" x="334" y="-1111" font-family="Times,serif" font-size="10.00"> 48%</text>
<text text-anchor="start" x="356" y="-1111" font-family="Times,serif" font-weight="bold" font-size="10.00"> дороги от</text>
<text text-anchor="start" x="402" y="-1111" font-family="Times,serif" font-size="10.00"> place_1 </text>
<text text-anchor="start" x="439" y="-1111" font-family="Times,serif" font-weight="bold" font-size="10.00">до</text>
<text text-anchor="start" x="450" y="-1111" font-family="Times,serif" font-size="10.00"> place_3</text>
<polygon fill="#eeeeff" stroke="none" points="278,-1093 278,-1106 486,-1106 486,-1093 278,-1093"/>
<text text-anchor="start" x="279" y="-1098" font-family="Times,serif" font-weight="bold" font-size="10.00">сообщение:</text>
<text text-anchor="start" x="331" y="-1098" font-family="Times,serif" font-size="10.00"> defence</text>
<polygon fill="none" stroke="black" points="277,-1092 277,-1146 487,-1146 487,-1092 277,-1092"/>
</g>
<!-- #option([ns&#45;0]first_defence, [ns&#45;0]move_to_attack, jump_attack) -->
<g id="node19" class="node"><title>#option([ns&#45;0]first_defence, [ns&#45;0]move_to_attack, jump_attack)</title>
<polygon fill="#ffffff" stroke="none" points="225,-1034.5 225,-1047.5 340,-1047.5 340,-1034.5 225,-1034.5"/>
<text text-anchor="start" x="226" y="-1038.5" font-family="Times,serif" font-size="10.00">jump_attack</text>
<polygon fill="#aadddd" stroke="none" points="225,-1021.5 225,-1034.5 340,-1034.5 340,-1021.5 225,-1021.5"/>
<text text-anchor="start" x="226" y="-1025.5" font-family="Times,serif" font-size="10.00">[бесчестие]</text>
<polygon fill="#eeeeee" stroke="none" points="225,-1008.5 225,-1021.5 340,-1021.5 340,-1008.5 225,-1008.5"/>
<text text-anchor="start" x="226" y="-1013.5" font-family="Times,serif" font-weight="bold" font-size="10.00">сообщение:</text>
<text text-anchor="start" x="278" y="-1013.5" font-family="Times,serif" font-size="10.00"> choose_attack</text>
</g>
<!-- [ns&#45;0]first_defence&#45;&gt;#option([ns&#45;0]first_defence, [ns&#45;0]move_to_attack, jump_attack) -->
<g id="edge5" class="edge"><title>[ns&#45;0]first_defence:[ns&#45;0]first_defence&#45;&gt;#option([ns&#45;0]first_defence, [ns&#45;0]move_to_attack, jump_attack):#option([ns&#45;0]first_defence, [ns&#45;0]move_to_attack, jump_attack)</title>
<path fill="none" stroke="black" stroke-dasharray="1,5" d="M352.538,-1091.93C336.637,-1077.85 317.381,-1060.81 303.009,-1048.09"/>
</g>
<!-- #option([ns&#45;0]first_defence, [ns&#45;0]first_defence_continue, jump_defence) -->
<g id="node26" class="node"><title>#option([ns&#45;0]first_defence, [ns&#45;0]first_defence_continue, jump_defence)</title>
<polygon fill="#5555ff" stroke="none" points="443,-1046.5 367,-1046.5 367,-1010.5 443,-1010.5 443,-1046.5"/>
<polygon fill="#ffffff" stroke="none" points="375,-1028.5 375,-1041.5 435,-1041.5 435,-1028.5 375,-1028.5"/>
<text text-anchor="start" x="376" y="-1032.5" font-family="Times,serif" font-size="10.00">jump_defence</text>
<polygon fill="#aadddd" stroke="none" points="375,-1015.5 375,-1028.5 435,-1028.5 435,-1015.5 375,-1015.5"/>
<text text-anchor="start" x="376" y="-1019.5" font-family="Times,serif" font-size="10.00">[честь]</text>
</g>
<!-- [ns&#45;0]first_defence&#45;&gt;#option([ns&#45;0]first_defence, [ns&#45;0]first_defence_continue, jump_defence) -->
<g id="edge22" class="edge"><title>[ns&#45;0]first_defence:[ns&#45;0]first_defence&#45;&gt;#option([ns&#45;0]first_defence, [ns&#45;0]first_defence_continue, jump_defence):#option([ns&#45;0]first_defence, [ns&#45;0]first_defence_continue, jump_defence)</title>
<path fill="none" stroke="black" stroke-dasharray="1,5" d="M388.776,-1091.93C393.07,-1075.41 398.426,-1054.8 401.781,-1041.89"/>
</g>
<!-- [ns&#45;0]second_moving -->
<g id="node15" class="node"><title>[ns&#45;0]second_moving</title>
<polygon fill="#ddffdd" stroke="none" points="437,-689 437,-730 647,-730 647,-689 437,-689"/>
<text text-anchor="start" x="439" y="-720.5" font-family="Times,serif" font-style="italic" font-size="10.00">[ns&#45;0]second_moving</text>
<text text-anchor="start" x="439" y="-706.5" font-family="Times,serif" font-size="10.00">двигаемся с караваном</text>
<polygon fill="#cceecc" stroke="none" points="438,-689.5 438,-702.5 646,-702.5 646,-689.5 438,-689.5"/>
<text text-anchor="start" x="439" y="-694.5" font-family="Times,serif" font-size="10.00">hero </text>
<text text-anchor="start" x="460" y="-694.5" font-family="Times,serif" font-weight="bold" font-size="10.00">прошёл</text>
<text text-anchor="start" x="494" y="-694.5" font-family="Times,serif" font-size="10.00"> 88%</text>
<text text-anchor="start" x="516" y="-694.5" font-family="Times,serif" font-weight="bold" font-size="10.00"> дороги от</text>
<text text-anchor="start" x="562" y="-694.5" font-family="Times,serif" font-size="10.00"> place_1 </text>
<text text-anchor="start" x="599" y="-694.5" font-family="Times,serif" font-weight="bold" font-size="10.00">до</text>
<text text-anchor="start" x="610" y="-694.5" font-family="Times,serif" font-size="10.00"> place_3</text>
<polygon fill="none" stroke="black" points="437,-689 437,-730 647,-730 647,-689 437,-689"/>
</g>
<!-- [ns&#45;0]second_moving&#45;&gt;[ns&#45;0]second_defence -->
<g id="edge9" class="edge"><title>[ns&#45;0]second_moving:[ns&#45;0]second_moving&#45;&gt;[ns&#45;0]second_defence:[ns&#45;0]second_defence</title>
<path fill="none" stroke="black" d="M542,-688.737C542,-679.198 542,-667.283 542,-655.493"/>
<polygon fill="black" stroke="black" points="545.5,-655.226 542,-645.226 538.5,-655.226 545.5,-655.226"/>
</g>
<!-- [ns&#45;0]hide -->
<g id="node16" class="node"><title>[ns&#45;0]hide</title>
<polygon fill="#ddffdd" stroke="none" points="186,-173.5 186,-227.5 338,-227.5 338,-173.5 186,-173.5"/>
<text text-anchor="start" x="188" y="-218.5" font-family="Times,serif" font-style="italic" font-size="10.00">[ns&#45;0]hide</text>
<text text-anchor="start" x="188" y="-204.5" font-family="Times,serif" font-size="10.00">прячемся</text>
<polygon fill="#eeffee" stroke="none" points="187,-187.5 187,-200.5 337,-200.5 337,-187.5 187,-187.5"/>
<text text-anchor="start" x="188" y="-192.5" font-family="Times,serif" font-weight="bold" font-size="10.00">сообщение:</text>
<text text-anchor="start" x="240" y="-192.5" font-family="Times,serif" font-size="10.00"> hide</text>
<polygon fill="#eeffee" stroke="none" points="187,-174.5 187,-187.5 337,-187.5 337,-174.5 187,-174.5"/>
<text text-anchor="start" x="188" y="-179.5" font-family="Times,serif" font-weight="bold" font-size="10.00">отправить </text>
<text text-anchor="start" x="238" y="-179.5" font-family="Times,serif" font-size="10.00"> hero</text>
<text text-anchor="start" x="259" y="-179.5" font-family="Times,serif" font-weight="bold" font-size="10.00">бродить в округе</text>
<polygon fill="none" stroke="black" points="186,-173.5 186,-227.5 338,-227.5 338,-173.5 186,-173.5"/>
</g>
<!-- [ns&#45;0]hide&#45;&gt;[ns&#45;0]finish_attack -->
<g id="edge19" class="edge"><title>[ns&#45;0]hide:[ns&#45;0]hide&#45;&gt;[ns&#45;0]finish_attack:[ns&#45;0]finish_attack</title>
<path fill="none" stroke="black" d="M262,-173.217C262,-158.313 262,-138.983 262,-120.428"/>
<polygon fill="black" stroke="black" points="265.5,-120.232 262,-110.232 258.5,-120.232 265.5,-120.232"/>
</g>
<!-- #option([ns&#45;0]caravan_choice, [ns&#45;0]move_to_attack, jump_attack)&#45;&gt;[ns&#45;0]move_to_attack -->
<g id="edge2" class="edge"><title>#option([ns&#45;0]caravan_choice, [ns&#45;0]move_to_attack, jump_attack):#option([ns&#45;0]caravan_choice, [ns&#45;0]move_to_attack, jump_attack)&#45;&gt;[ns&#45;0]move_to_attack:[ns&#45;0]move_to_attack</title>
<path fill="none" stroke="black" stroke-dasharray="1,5" d="M185,-1099.19C185,-1066.95 185,-1000.86 185,-962.293"/>
<polygon fill="black" stroke="black" points="188.5,-962.195 185,-952.195 181.5,-962.195 188.5,-962.195"/>
</g>
<!-- #answer(False, [ns&#45;0]second_defence, [ns&#45;0]finish_defence_failed)&#45;&gt;[ns&#45;0]finish_defence_failed -->
<g id="edge4" class="edge"><title>#answer(False, [ns&#45;0]second_defence, [ns&#45;0]finish_defence_failed):#answer(False, [ns&#45;0]second_defence, [ns&#45;0]finish_defence_failed)&#45;&gt;[ns&#45;0]finish_defence_failed:[ns&#45;0]finish_defence_failed</title>
<path fill="none" stroke="black" d="M458.422,-474.199C452.674,-461.266 438.294,-428.912 425.364,-399.819"/>
<polygon fill="black" stroke="black" points="428.489,-398.233 421.23,-390.517 422.093,-401.076 428.489,-398.233"/>
</g>
<!-- #option([ns&#45;0]first_defence, [ns&#45;0]move_to_attack, jump_attack)&#45;&gt;[ns&#45;0]move_to_attack -->
<g id="edge6" class="edge"><title>#option([ns&#45;0]first_defence, [ns&#45;0]move_to_attack, jump_attack):#option([ns&#45;0]first_defence, [ns&#45;0]move_to_attack, jump_attack)&#45;&gt;[ns&#45;0]move_to_attack:[ns&#45;0]move_to_attack</title>
<path fill="none" stroke="black" stroke-dasharray="1,5" d="M262.836,-1008.73C248.507,-994.697 228.705,-975.304 212.66,-959.59"/>
<polygon fill="black" stroke="black" points="214.719,-956.708 205.126,-952.211 209.821,-961.709 214.719,-956.708"/>
</g>
<!-- #option([ns&#45;0]caravan_choice, [ns&#45;0]first_defence, jump_defence)&#45;&gt;[ns&#45;0]first_defence -->
<g id="edge8" class="edge"><title>#option([ns&#45;0]caravan_choice, [ns&#45;0]first_defence, jump_defence):#option([ns&#45;0]caravan_choice, [ns&#45;0]first_defence, jump_defence)&#45;&gt;[ns&#45;0]first_defence:[ns&#45;0]first_defence</title>
<path fill="none" stroke="black" stroke-dasharray="1,5" d="M362.302,-1189.73C365.073,-1179.92 368.561,-1167.57 371.828,-1156.01"/>
<polygon fill="black" stroke="black" points="375.269,-1156.7 374.62,-1146.13 368.533,-1154.8 375.269,-1156.7"/>
</g>
<!-- #answer(True, [ns&#45;0]first_defence_continue, [ns&#45;0]second_moving)&#45;&gt;[ns&#45;0]second_moving -->
<g id="edge12" class="edge"><title>#answer(True, [ns&#45;0]first_defence_continue, [ns&#45;0]second_moving):#answer(True, [ns&#45;0]first_defence_continue, [ns&#45;0]second_moving)&#45;&gt;[ns&#45;0]second_moving:[ns&#45;0]second_moving</title>
<path fill="none" stroke="black" d="M503.204,-807.489C508.233,-794.917 520.851,-763.372 530.342,-739.646"/>
<polygon fill="black" stroke="black" points="533.594,-740.939 534.058,-730.354 527.095,-738.339 533.594,-740.939"/>
</g>
<!-- #answer(False, [ns&#45;0]fight, [ns&#45;0]finish_attack_failed)&#45;&gt;[ns&#45;0]finish_attack_failed -->
<g id="edge14" class="edge"><title>#answer(False, [ns&#45;0]fight, [ns&#45;0]finish_attack_failed):#answer(False, [ns&#45;0]fight, [ns&#45;0]finish_attack_failed)&#45;&gt;[ns&#45;0]finish_attack_failed:[ns&#45;0]finish_attack_failed</title>
<path fill="none" stroke="black" d="M135.654,-337.278C130.065,-323.642 115.469,-288.031 102.626,-256.7"/>
<polygon fill="black" stroke="black" points="105.74,-255.069 98.7089,-247.143 99.2632,-257.724 105.74,-255.069"/>
</g>
<!-- #answer(True, [ns&#45;0]second_defence, [ns&#45;0]finish_defence)&#45;&gt;[ns&#45;0]finish_defence -->
<g id="edge16" class="edge"><title>#answer(True, [ns&#45;0]second_defence, [ns&#45;0]finish_defence):#answer(True, [ns&#45;0]second_defence, [ns&#45;0]finish_defence)&#45;&gt;[ns&#45;0]finish_defence:[ns&#45;0]finish_defence</title>
<path fill="none" stroke="black" d="M592.105,-474.199C596.431,-462.281 606.743,-433.87 616.599,-406.717"/>
<polygon fill="black" stroke="black" points="619.933,-407.789 620.055,-397.195 613.353,-405.4 619.933,-407.789"/>
</g>
<!-- #jump([ns&#45;0]start, [ns&#45;0]first_moving)&#45;&gt;[ns&#45;0]first_moving -->
<g id="edge18" class="edge"><title>#jump([ns&#45;0]start, [ns&#45;0]first_moving):#jump([ns&#45;0]start, [ns&#45;0]first_moving)&#45;&gt;[ns&#45;0]first_moving:[ns&#45;0]first_moving</title>
<path fill="none" stroke="black" d="M258,-1437.5C258,-1428.92 258,-1411.77 258,-1396.47"/>
<polygon fill="black" stroke="black" points="261.5,-1396.31 258,-1386.31 254.5,-1396.31 261.5,-1396.31"/>
</g>
<!-- #answer(False, [ns&#45;0]attack, [ns&#45;0]finish_attack_failed)&#45;&gt;[ns&#45;0]finish_attack_failed -->
<g id="edge21" class="edge"><title>#answer(False, [ns&#45;0]attack, [ns&#45;0]finish_attack_failed):#answer(False, [ns&#45;0]attack, [ns&#45;0]finish_attack_failed)&#45;&gt;[ns&#45;0]finish_attack_failed:[ns&#45;0]finish_attack_failed</title>
<path fill="none" stroke="black" d="M82.9663,-702.806C82.7092,-659.36 81.0485,-378.695 80.3302,-257.305"/>
<polygon fill="black" stroke="black" points="83.8291,-257.086 80.2699,-247.107 76.8292,-257.127 83.8291,-257.086"/>
</g>
<!-- #option([ns&#45;0]first_defence, [ns&#45;0]first_defence_continue, jump_defence)&#45;&gt;[ns&#45;0]first_defence_continue -->
<g id="edge23" class="edge"><title>#option([ns&#45;0]first_defence, [ns&#45;0]first_defence_continue, jump_defence):#option([ns&#45;0]first_defence, [ns&#45;0]first_defence_continue, jump_defence)&#45;&gt;[ns&#45;0]first_defence_continue:[ns&#45;0]first_defence_continue</title>
<path fill="none" stroke="black" stroke-dasharray="1,5" d="M405.253,-1015.47C405.469,-1005.25 405.791,-989.93 406.1,-975.231"/>
<polygon fill="black" stroke="black" points="409.6,-975.294 406.311,-965.223 402.601,-975.147 409.6,-975.294"/>
</g>
<!-- #answer(True, [ns&#45;0]fight, [ns&#45;0]hide)&#45;&gt;[ns&#45;0]hide -->
<g id="edge25" class="edge"><title>#answer(True, [ns&#45;0]fight, [ns&#45;0]hide):#answer(True, [ns&#45;0]fight, [ns&#45;0]hide)&#45;&gt;[ns&#45;0]hide:[ns&#45;0]hide</title>
<path fill="none" stroke="black" d="M243.705,-330.936C246.599,-310.46 252.58,-268.144 256.918,-237.456"/>
<polygon fill="black" stroke="black" points="260.385,-237.935 258.319,-227.543 253.454,-236.955 260.385,-237.935"/>
</g>
<!-- #answer(False, [ns&#45;0]first_defence_continue, [ns&#45;0]finish_defence_failed)&#45;&gt;[ns&#45;0]finish_defence_failed -->
<g id="edge29" class="edge"><title>#answer(False, [ns&#45;0]first_defence_continue, [ns&#45;0]finish_defence_failed):#answer(False, [ns&#45;0]first_defence_continue, [ns&#45;0]finish_defence_failed)&#45;&gt;[ns&#45;0]finish_defence_failed:[ns&#45;0]finish_defence_failed</title>
<path fill="none" stroke="black" d="M401,-598.104C401,-572.266 401,-467.375 401,-400.999"/>
<polygon fill="black" stroke="black" points="404.5,-400.695 401,-390.695 397.5,-400.695 404.5,-400.695"/>
</g>
<!-- #answer(True, [ns&#45;0]attack, [ns&#45;0]run)&#45;&gt;[ns&#45;0]run -->
<g id="edge31" class="edge"><title>#answer(True, [ns&#45;0]attack, [ns&#45;0]run):#answer(True, [ns&#45;0]attack, [ns&#45;0]run)&#45;&gt;[ns&#45;0]run:[ns&#45;0]run</title>
<path fill="none" stroke="black" d="M186.712,-696.339C187.575,-681.595 189.06,-656.225 190.237,-636.117"/>
<polygon fill="black" stroke="black" points="193.746,-636.064 190.836,-625.877 186.758,-635.655 193.746,-636.064"/>
</g>
</g>
</svg>
