<?xml version="1.0" encoding="UTF-8" standalone="no"?>
<!DOCTYPE svg PUBLIC "-//W3C//DTD SVG 1.1//EN"
 "http://www.w3.org/Graphics/SVG/1.1/DTD/svg11.dtd">
<!-- Generated by graphviz version 2.34.0 (20130907.0221)
 -->
<!-- Title: quest Pages: 1 -->
<svg width="532pt" height="1356pt"
 viewBox="0.00 0.00 532.00 1356.00" xmlns="http://www.w3.org/2000/svg" xmlns:xlink="http://www.w3.org/1999/xlink">
<g id="graph0" class="graph" transform="scale(1 1) rotate(0) translate(4 1352)">
<title>quest</title>
<polygon fill="white" stroke="white" points="-4,4 -4,-1352 528,-1352 528,4 -4,4"/>
<!-- [ns&#45;0]finish_defence -->
<g id="node1" class="node"><title>[ns&#45;0]finish_defence</title>
<polygon fill="#eeeeee" stroke="none" points="8,-500.5 8,-581.5 238,-581.5 238,-500.5 8,-500.5"/>
<text text-anchor="start" x="10" y="-571.5" font-family="Times,serif" font-style="italic" font-size="10.00">[ns&#45;0]finish_defence</text>
<text text-anchor="start" x="109" y="-571.5" font-family="Times,serif" font-weight="bold" font-size="10.00">finish_defence</text>
<text text-anchor="start" x="189.5" y="-571.5" font-family="Times,serif" font-weight="bold" font-size="10.00">successed</text>
<text text-anchor="start" x="10" y="-557" font-family="Times,serif" font-size="10.00">Караван приходит в точку назначения</text>
<polygon fill="#dddddd" stroke="none" points="9,-540 9,-553 182,-553 182,-540 9,-540"/>
<text text-anchor="start" x="10" y="-545" font-family="Times,serif" font-size="10.00">hero </text>
<text text-anchor="start" x="31" y="-545" font-family="Times,serif" font-weight="bold" font-size="10.00">находится в</text>
<text text-anchor="start" x="86" y="-545" font-family="Times,serif" font-size="10.00"> place_3</text>
<polygon fill="#ffffff" stroke="none" points="9,-527 9,-540 182,-540 182,-527 9,-527"/>
<text text-anchor="start" x="10" y="-532" font-family="Times,serif" font-weight="bold" font-size="10.00">сообщение:</text>
<text text-anchor="start" x="62" y="-532" font-family="Times,serif" font-size="10.00"> finish_defence</text>
<polygon fill="#ffffff" stroke="none" points="9,-514 9,-527 182,-527 182,-514 9,-514"/>
<text text-anchor="start" x="10" y="-519" font-family="Times,serif" font-weight="bold" font-size="10.00">увеличить влияние </text>
<text text-anchor="start" x="98" y="-519" font-family="Times,serif" font-size="10.00">  person_1 </text>
<text text-anchor="start" x="143" y="-519" font-family="Times,serif" font-weight="bold" font-size="10.00">на </text>
<text text-anchor="start" x="156" y="-519" font-family="Times,serif" font-size="10.00"> 1.00</text>
<polygon fill="#ffffff" stroke="none" points="9,-501 9,-514 182,-514 182,-501 9,-501"/>
<text text-anchor="start" x="10" y="-506" font-family="Times,serif" font-weight="bold" font-size="10.00">увеличить влияние </text>
<text text-anchor="start" x="98" y="-506" font-family="Times,serif" font-size="10.00">  person_3 </text>
<text text-anchor="start" x="143" y="-506" font-family="Times,serif" font-weight="bold" font-size="10.00">на </text>
<text text-anchor="start" x="156" y="-506" font-family="Times,serif" font-size="10.00"> 1.00</text>
<polygon fill="none" stroke="black" points="8,-500.5 8,-581.5 238,-581.5 238,-500.5 8,-500.5"/>
</g>
<!-- [ns&#45;0]start -->
<g id="node2" class="node"><title>[ns&#45;0]start</title>
<polygon fill="#eeeeee" stroke="none" points="320.5,-1288.5 320.5,-1343.5 437.5,-1343.5 437.5,-1288.5 320.5,-1288.5"/>
<text text-anchor="start" x="323" y="-1333.5" font-family="Times,serif" font-style="italic" font-size="10.00">[ns&#45;0]start</text>
<text text-anchor="start" x="390.5" y="-1333.5" font-family="Times,serif" font-weight="bold" font-size="10.00">caravan</text>
<text text-anchor="start" x="323" y="-1319" font-family="Times,serif" font-size="10.00">Начало: караван</text>
<polygon fill="#dddddd" stroke="none" points="322,-1302 322,-1315 437,-1315 437,-1302 322,-1302"/>
<text text-anchor="start" x="323" y="-1307" font-family="Times,serif" font-size="10.00">hero </text>
<text text-anchor="start" x="344" y="-1307" font-family="Times,serif" font-weight="bold" font-size="10.00">находится в</text>
<text text-anchor="start" x="399" y="-1307" font-family="Times,serif" font-size="10.00"> place_1</text>
<polygon fill="#ffffff" stroke="none" points="322,-1289 322,-1302 437,-1302 437,-1289 322,-1289"/>
<text text-anchor="start" x="323" y="-1294" font-family="Times,serif" font-weight="bold" font-size="10.00">сообщение:</text>
<text text-anchor="start" x="375" y="-1294" font-family="Times,serif" font-size="10.00"> intro</text>
<polygon fill="none" stroke="black" points="320.5,-1288.5 320.5,-1343.5 437.5,-1343.5 437.5,-1288.5 320.5,-1288.5"/>
</g>
<!-- #jump([ns&#45;0]start, [ns&#45;0]first_moving) -->
<g id="node18" class="node"><title>#jump([ns&#45;0]start, [ns&#45;0]first_moving)</title>
<polygon fill="#eeeeee" stroke="none" points="324,-1223 324,-1237 434,-1237 434,-1223 324,-1223"/>
<text text-anchor="start" x="325" y="-1228.5" font-family="Times,serif" font-weight="bold" font-size="10.00">сообщение:</text>
<text text-anchor="start" x="377" y="-1228.5" font-family="Times,serif" font-size="10.00"> first_moving</text>
</g>
<!-- [ns&#45;0]start&#45;&gt;#jump([ns&#45;0]start, [ns&#45;0]first_moving) -->
<g id="edge12" class="edge"><title>[ns&#45;0]start:[ns&#45;0]start&#45;&gt;#jump([ns&#45;0]start, [ns&#45;0]first_moving):#jump([ns&#45;0]start, [ns&#45;0]first_moving)</title>
<path fill="none" stroke="black" d="M379,-1288.42C379,-1270.35 379,-1247.85 379,-1237.18"/>
</g>
<!-- [ns&#45;0]attack -->
<g id="node3" class="node"><title>[ns&#45;0]attack</title>
<polygon fill="#ddffdd" stroke="none" points="351.5,-626.5 351.5,-681.5 448.5,-681.5 448.5,-626.5 351.5,-626.5"/>
<text text-anchor="start" x="354" y="-671.5" font-family="Times,serif" font-style="italic" font-size="10.00">[ns&#45;0]attack</text>
<text text-anchor="start" x="354" y="-657" font-family="Times,serif" font-size="10.00">нападение</text>
<polygon fill="#eeffee" stroke="none" points="353,-640 353,-653 448,-653 448,-640 353,-640"/>
<text text-anchor="start" x="354" y="-645" font-family="Times,serif" font-weight="bold" font-size="10.00">сообщение:</text>
<text text-anchor="start" x="406" y="-645" font-family="Times,serif" font-size="10.00"> attack</text>
<polygon fill="#eeffee" stroke="none" points="353,-627 353,-640 448,-640 448,-627 353,-627"/>
<text text-anchor="start" x="354" y="-632" font-family="Times,serif" font-weight="bold" font-size="10.00">сразиться с</text>
<text text-anchor="start" x="406" y="-632" font-family="Times,serif" font-size="10.00">  None</text>
<polygon fill="none" stroke="black" points="351.5,-626.5 351.5,-681.5 448.5,-681.5 448.5,-626.5 351.5,-626.5"/>
</g>
<!-- #jump([ns&#45;0]attack, [ns&#45;0]run) -->
<g id="node20" class="node"><title>#jump([ns&#45;0]attack, [ns&#45;0]run)</title>
<polygon fill="#eeeeee" stroke="none" points="353,-534 353,-548 447,-548 447,-534 353,-534"/>
<text text-anchor="start" x="354" y="-539.5" font-family="Times,serif" font-weight="bold" font-size="10.00">сообщение:</text>
<text text-anchor="start" x="406" y="-539.5" font-family="Times,serif" font-size="10.00"> start_run</text>
</g>
<!-- [ns&#45;0]attack&#45;&gt;#jump([ns&#45;0]attack, [ns&#45;0]run) -->
<g id="edge19" class="edge"><title>[ns&#45;0]attack:[ns&#45;0]attack&#45;&gt;#jump([ns&#45;0]attack, [ns&#45;0]run):#jump([ns&#45;0]attack, [ns&#45;0]run)</title>
<path fill="none" stroke="black" d="M400,-626.413C400,-600.501 400,-562.924 400,-548.224"/>
</g>
<!-- [ns&#45;0]fight -->
<g id="node4" class="node"><title>[ns&#45;0]fight</title>
<polygon fill="#ddffdd" stroke="none" points="329.5,-314.5 329.5,-369.5 470.5,-369.5 470.5,-314.5 329.5,-314.5"/>
<text text-anchor="start" x="332" y="-359.5" font-family="Times,serif" font-style="italic" font-size="10.00">[ns&#45;0]fight</text>
<text text-anchor="start" x="332" y="-345" font-family="Times,serif" font-size="10.00">защита награбленного</text>
<polygon fill="#eeffee" stroke="none" points="331,-328 331,-341 470,-341 470,-328 331,-328"/>
<text text-anchor="start" x="332" y="-333" font-family="Times,serif" font-weight="bold" font-size="10.00">сообщение:</text>
<text text-anchor="start" x="384" y="-333" font-family="Times,serif" font-size="10.00"> fight</text>
<polygon fill="#eeffee" stroke="none" points="331,-315 331,-328 470,-328 470,-315 331,-315"/>
<text text-anchor="start" x="332" y="-320" font-family="Times,serif" font-weight="bold" font-size="10.00">сразиться с</text>
<text text-anchor="start" x="384" y="-320" font-family="Times,serif" font-size="10.00">  None</text>
<polygon fill="none" stroke="black" points="329.5,-314.5 329.5,-369.5 470.5,-369.5 470.5,-314.5 329.5,-314.5"/>
</g>
<!-- #jump([ns&#45;0]fight, [ns&#45;0]hide) -->
<g id="node19" class="node"><title>#jump([ns&#45;0]fight, [ns&#45;0]hide)</title>
<polygon fill="#eeeeee" stroke="none" points="351,-249 351,-263 449,-263 449,-249 351,-249"/>
<text text-anchor="start" x="352" y="-254.5" font-family="Times,serif" font-weight="bold" font-size="10.00">сообщение:</text>
<text text-anchor="start" x="404" y="-254.5" font-family="Times,serif" font-size="10.00"> start_hide</text>
</g>
<!-- [ns&#45;0]fight&#45;&gt;#jump([ns&#45;0]fight, [ns&#45;0]hide) -->
<g id="edge15" class="edge"><title>[ns&#45;0]fight:[ns&#45;0]fight&#45;&gt;#jump([ns&#45;0]fight, [ns&#45;0]hide):#jump([ns&#45;0]fight, [ns&#45;0]hide)</title>
<path fill="none" stroke="black" d="M400,-314.422C400,-296.349 400,-273.853 400,-263.177"/>
</g>
<!-- [ns&#45;0]move_to_attack -->
<g id="node5" class="node"><title>[ns&#45;0]move_to_attack</title>
<polygon fill="#ddffdd" stroke="none" points="291.5,-726 291.5,-768 508.5,-768 508.5,-726 291.5,-726"/>
<text text-anchor="start" x="294" y="-758.5" font-family="Times,serif" font-style="italic" font-size="10.00">[ns&#45;0]move_to_attack</text>
<text text-anchor="start" x="294" y="-744" font-family="Times,serif" font-size="10.00">ведём караван в засаду</text>
<polygon fill="#eeffee" stroke="none" points="293,-727 293,-740 508,-740 508,-727 293,-727"/>
<text text-anchor="start" x="294" y="-732" font-family="Times,serif" font-size="10.00">hero </text>
<text text-anchor="start" x="315" y="-732" font-family="Times,serif" font-weight="bold" font-size="10.00">отправить в </text>
<text text-anchor="start" x="373" y="-732" font-family="Times,serif" font-size="10.00"> place_3 </text>
<text text-anchor="start" x="410" y="-732" font-family="Times,serif" font-weight="bold" font-size="10.00">и пройти </text>
<text text-anchor="start" x="452" y="-732" font-family="Times,serif" font-size="10.00"> 50.0%</text>
<text text-anchor="start" x="481" y="-732" font-family="Times,serif" font-weight="bold" font-size="10.00"> пути</text>
<polygon fill="none" stroke="black" points="291.5,-726 291.5,-768 508.5,-768 508.5,-726 291.5,-726"/>
</g>
<!-- [ns&#45;0]move_to_attack&#45;&gt;[ns&#45;0]attack -->
<g id="edge17" class="edge"><title>[ns&#45;0]move_to_attack:[ns&#45;0]move_to_attack&#45;&gt;[ns&#45;0]attack:[ns&#45;0]attack</title>
<path fill="none" stroke="black" d="M400,-725.804C400,-715.862 400,-703.556 400,-692.007"/>
<polygon fill="black" stroke="black" points="403.5,-691.703 400,-681.703 396.5,-691.703 403.5,-691.703"/>
</g>
<!-- [ns&#45;0]run -->
<g id="node6" class="node"><title>[ns&#45;0]run</title>
<polygon fill="#ddffdd" stroke="none" points="283.5,-414 283.5,-456 516.5,-456 516.5,-414 283.5,-414"/>
<text text-anchor="start" x="286" y="-446.5" font-family="Times,serif" font-style="italic" font-size="10.00">[ns&#45;0]run</text>
<text text-anchor="start" x="286" y="-432" font-family="Times,serif" font-size="10.00">скрываемся с места преступления</text>
<polygon fill="#eeffee" stroke="none" points="285,-415 285,-428 516,-428 516,-415 285,-415"/>
<text text-anchor="start" x="286" y="-420" font-family="Times,serif" font-weight="bold" font-size="10.00">отправить </text>
<text text-anchor="start" x="336" y="-420" font-family="Times,serif" font-size="10.00"> hero</text>
<text text-anchor="start" x="357" y="-420" font-family="Times,serif" font-weight="bold" font-size="10.00">бродить около</text>
<text text-anchor="start" x="423" y="-420" font-family="Times,serif" font-size="10.00"> None</text>
<polygon fill="none" stroke="black" points="283.5,-414 283.5,-456 516.5,-456 516.5,-414 283.5,-414"/>
</g>
<!-- [ns&#45;0]run&#45;&gt;[ns&#45;0]fight -->
<g id="edge8" class="edge"><title>[ns&#45;0]run:[ns&#45;0]run&#45;&gt;[ns&#45;0]fight:[ns&#45;0]fight</title>
<path fill="none" stroke="black" d="M400,-413.804C400,-403.862 400,-391.556 400,-380.007"/>
<polygon fill="black" stroke="black" points="403.5,-379.703 400,-369.703 396.5,-379.703 403.5,-379.703"/>
</g>
<!-- [ns&#45;0]caravan_choice -->
<g id="node7" class="node"><title>[ns&#45;0]caravan_choice</title>
<polygon fill="#ddddff" stroke="none" points="307,-1056.5 307,-1085.5 451,-1085.5 451,-1056.5 307,-1056.5"/>
<text text-anchor="start" x="309" y="-1075.5" font-family="Times,serif" font-style="italic" font-size="10.00">[ns&#45;0]caravan_choice</text>
<text text-anchor="start" x="309" y="-1061" font-family="Times,serif" font-size="10.00">Решение: защитить или ограбить</text>
<polygon fill="none" stroke="black" points="307,-1056.5 307,-1085.5 451,-1085.5 451,-1056.5 307,-1056.5"/>
</g>
<!-- #option([ns&#45;0]caravan_choice, [ns&#45;0]move_to_attack) -->
<g id="node14" class="node"><title>#option([ns&#45;0]caravan_choice, [ns&#45;0]move_to_attack)</title>
<polygon fill="#ffffff" stroke="none" points="369,-825 369,-839 485,-839 485,-825 369,-825"/>
<text text-anchor="start" x="370" y="-829.5" font-family="Times,serif" font-size="10.00">jump_attack</text>
<polygon fill="#eeeeee" stroke="none" points="369,-812 369,-825 485,-825 485,-812 369,-812"/>
<text text-anchor="start" x="370" y="-817" font-family="Times,serif" font-weight="bold" font-size="10.00">сообщение:</text>
<text text-anchor="start" x="422" y="-817" font-family="Times,serif" font-size="10.00"> choose_attack</text>
</g>
<!-- [ns&#45;0]caravan_choice&#45;&gt;#option([ns&#45;0]caravan_choice, [ns&#45;0]move_to_attack) -->
<g id="edge1" class="edge"><title>[ns&#45;0]caravan_choice:[ns&#45;0]caravan_choice&#45;&gt;#option([ns&#45;0]caravan_choice, [ns&#45;0]move_to_attack):#option([ns&#45;0]caravan_choice, [ns&#45;0]move_to_attack)</title>
<path fill="none" stroke="black" stroke-dasharray="1,5" d="M381.708,-1056.39C386.305,-1033.29 395.92,-984.913 404,-944 411.5,-906.022 420.316,-861.098 424.523,-839.64"/>
</g>
<!-- #option([ns&#45;0]caravan_choice, [ns&#45;0]first_defence) -->
<g id="node17" class="node"><title>#option([ns&#45;0]caravan_choice, [ns&#45;0]first_defence)</title>
<polygon fill="#ffffff" stroke="none" points="216,-997 216,-1011 339,-1011 339,-997 216,-997"/>
<text text-anchor="start" x="217" y="-1001.5" font-family="Times,serif" font-size="10.00">jump_defence</text>
<polygon fill="#eeeeee" stroke="none" points="216,-984 216,-997 339,-997 339,-984 216,-984"/>
<text text-anchor="start" x="217" y="-989" font-family="Times,serif" font-weight="bold" font-size="10.00">сообщение:</text>
<text text-anchor="start" x="269" y="-989" font-family="Times,serif" font-size="10.00"> choose_defence</text>
</g>
<!-- [ns&#45;0]caravan_choice&#45;&gt;#option([ns&#45;0]caravan_choice, [ns&#45;0]first_defence) -->
<g id="edge10" class="edge"><title>[ns&#45;0]caravan_choice:[ns&#45;0]caravan_choice&#45;&gt;#option([ns&#45;0]caravan_choice, [ns&#45;0]first_defence):#option([ns&#45;0]caravan_choice, [ns&#45;0]first_defence)</title>
<path fill="none" stroke="black" stroke-dasharray="1,5" d="M359.333,-1056.31C340.808,-1043.42 313.278,-1024.25 295.236,-1011.69"/>
</g>
<!-- [ns&#45;0]finish_attack -->
<g id="node8" class="node"><title>[ns&#45;0]finish_attack</title>
<polygon fill="#eeeeee" stroke="none" points="289,-4 289,-98 511,-98 511,-4 289,-4"/>
<text text-anchor="start" x="291" y="-88.5" font-family="Times,serif" font-style="italic" font-size="10.00">[ns&#45;0]finish_attack</text>
<text text-anchor="start" x="392.5" y="-88.5" font-family="Times,serif" font-weight="bold" font-size="10.00">finish_attack</text>
<text text-anchor="start" x="474" y="-88.5" font-family="Times,serif" font-weight="bold" font-size="10.00">failed</text>
<text text-anchor="start" x="291" y="-74" font-family="Times,serif" font-size="10.00">Продать товар на чёрном рынке</text>
<polygon fill="#dddddd" stroke="none" points="290,-57 290,-70 463,-70 463,-57 290,-57"/>
<text text-anchor="start" x="291" y="-62" font-family="Times,serif" font-size="10.00">hero </text>
<text text-anchor="start" x="312" y="-62" font-family="Times,serif" font-weight="bold" font-size="10.00">находится в</text>
<text text-anchor="start" x="367" y="-62" font-family="Times,serif" font-size="10.00"> place_4</text>
<polygon fill="#ffffff" stroke="none" points="290,-44 290,-57 463,-57 463,-44 290,-44"/>
<text text-anchor="start" x="291" y="-49" font-family="Times,serif" font-weight="bold" font-size="10.00">сообщение:</text>
<text text-anchor="start" x="343" y="-49" font-family="Times,serif" font-size="10.00"> finish_attack</text>
<polygon fill="#ffffff" stroke="none" points="290,-31 290,-44 463,-44 463,-31 290,-31"/>
<text text-anchor="start" x="291" y="-36" font-family="Times,serif" font-weight="bold" font-size="10.00">увеличить влияние </text>
<text text-anchor="start" x="379" y="-36" font-family="Times,serif" font-size="10.00">  person_1 </text>
<text text-anchor="start" x="424" y="-36" font-family="Times,serif" font-weight="bold" font-size="10.00">на </text>
<text text-anchor="start" x="437" y="-36" font-family="Times,serif" font-size="10.00"> &#45;1.00</text>
<polygon fill="#ffffff" stroke="none" points="290,-18 290,-31 463,-31 463,-18 290,-18"/>
<text text-anchor="start" x="291" y="-23" font-family="Times,serif" font-weight="bold" font-size="10.00">увеличить влияние </text>
<text text-anchor="start" x="379" y="-23" font-family="Times,serif" font-size="10.00">  person_3 </text>
<text text-anchor="start" x="424" y="-23" font-family="Times,serif" font-weight="bold" font-size="10.00">на </text>
<text text-anchor="start" x="437" y="-23" font-family="Times,serif" font-size="10.00"> &#45;1.00</text>
<polygon fill="#ffffff" stroke="none" points="290,-5 290,-18 463,-18 463,-5 290,-5"/>
<text text-anchor="start" x="291" y="-10" font-family="Times,serif" font-weight="bold" font-size="10.00">увеличить влияние </text>
<text text-anchor="start" x="379" y="-10" font-family="Times,serif" font-size="10.00">  place_4 </text>
<text text-anchor="start" x="419" y="-10" font-family="Times,serif" font-weight="bold" font-size="10.00">на </text>
<text text-anchor="start" x="432" y="-10" font-family="Times,serif" font-size="10.00"> 1.00</text>
<polygon fill="none" stroke="black" points="289,-4 289,-98 511,-98 511,-4 289,-4"/>
</g>
<!-- [ns&#45;0]second_defence -->
<g id="node9" class="node"><title>[ns&#45;0]second_defence</title>
<polygon fill="#ddffdd" stroke="none" points="53,-626.5 53,-681.5 193,-681.5 193,-626.5 53,-626.5"/>
<text text-anchor="start" x="55" y="-671.5" font-family="Times,serif" font-style="italic" font-size="10.00">[ns&#45;0]second_defence</text>
<text text-anchor="start" x="55" y="-657" font-family="Times,serif" font-size="10.00">вторая защита</text>
<polygon fill="#eeffee" stroke="none" points="54,-640 54,-653 192,-653 192,-640 54,-640"/>
<text text-anchor="start" x="55" y="-645" font-family="Times,serif" font-weight="bold" font-size="10.00">сообщение:</text>
<text text-anchor="start" x="107" y="-645" font-family="Times,serif" font-size="10.00"> defence</text>
<polygon fill="#eeffee" stroke="none" points="54,-627 54,-640 192,-640 192,-627 54,-627"/>
<text text-anchor="start" x="55" y="-632" font-family="Times,serif" font-weight="bold" font-size="10.00">сразиться с</text>
<text text-anchor="start" x="107" y="-632" font-family="Times,serif" font-size="10.00">  None</text>
<polygon fill="none" stroke="black" points="53,-626.5 53,-681.5 193,-681.5 193,-626.5 53,-626.5"/>
</g>
<!-- [ns&#45;0]second_defence&#45;&gt;[ns&#45;0]finish_defence -->
<g id="edge9" class="edge"><title>[ns&#45;0]second_defence:[ns&#45;0]second_defence&#45;&gt;[ns&#45;0]finish_defence:[ns&#45;0]finish_defence</title>
<path fill="none" stroke="black" d="M123,-626.413C123,-616.095 123,-603.927 123,-592.09"/>
<polygon fill="black" stroke="black" points="126.5,-591.829 123,-581.829 119.5,-591.829 126.5,-591.829"/>
</g>
<!-- [ns&#45;0]first_moving -->
<g id="node10" class="node"><title>[ns&#45;0]first_moving</title>
<polygon fill="#ddffdd" stroke="none" points="270.5,-1130 270.5,-1172 487.5,-1172 487.5,-1130 270.5,-1130"/>
<text text-anchor="start" x="273" y="-1162.5" font-family="Times,serif" font-style="italic" font-size="10.00">[ns&#45;0]first_moving</text>
<text text-anchor="start" x="273" y="-1148" font-family="Times,serif" font-size="10.00">двигаемся с караваном</text>
<polygon fill="#eeffee" stroke="none" points="272,-1131 272,-1144 487,-1144 487,-1131 272,-1131"/>
<text text-anchor="start" x="273" y="-1136" font-family="Times,serif" font-size="10.00">hero </text>
<text text-anchor="start" x="294" y="-1136" font-family="Times,serif" font-weight="bold" font-size="10.00">отправить в </text>
<text text-anchor="start" x="352" y="-1136" font-family="Times,serif" font-size="10.00"> place_3 </text>
<text text-anchor="start" x="389" y="-1136" font-family="Times,serif" font-weight="bold" font-size="10.00">и пройти </text>
<text text-anchor="start" x="431" y="-1136" font-family="Times,serif" font-size="10.00"> 30.0%</text>
<text text-anchor="start" x="460" y="-1136" font-family="Times,serif" font-weight="bold" font-size="10.00"> пути</text>
<polygon fill="none" stroke="black" points="270.5,-1130 270.5,-1172 487.5,-1172 487.5,-1130 270.5,-1130"/>
</g>
<!-- [ns&#45;0]first_moving&#45;&gt;[ns&#45;0]caravan_choice -->
<g id="edge18" class="edge"><title>[ns&#45;0]first_moving:[ns&#45;0]first_moving&#45;&gt;[ns&#45;0]caravan_choice:[ns&#45;0]caravan_choice</title>
<path fill="none" stroke="black" d="M379,-1129.91C379,-1119.49 379,-1106.68 379,-1095.76"/>
<polygon fill="black" stroke="black" points="382.5,-1095.63 379,-1085.63 375.5,-1095.63 382.5,-1095.63"/>
</g>
<!-- [ns&#45;0]second_moving -->
<g id="node11" class="node"><title>[ns&#45;0]second_moving</title>
<polygon fill="#ddffdd" stroke="none" points="14.5,-726 14.5,-768 231.5,-768 231.5,-726 14.5,-726"/>
<text text-anchor="start" x="17" y="-758.5" font-family="Times,serif" font-style="italic" font-size="10.00">[ns&#45;0]second_moving</text>
<text text-anchor="start" x="17" y="-744" font-family="Times,serif" font-size="10.00">двигаемся с караваном</text>
<polygon fill="#eeffee" stroke="none" points="16,-727 16,-740 231,-740 231,-727 16,-727"/>
<text text-anchor="start" x="17" y="-732" font-family="Times,serif" font-size="10.00">hero </text>
<text text-anchor="start" x="38" y="-732" font-family="Times,serif" font-weight="bold" font-size="10.00">отправить в </text>
<text text-anchor="start" x="96" y="-732" font-family="Times,serif" font-size="10.00"> place_3 </text>
<text text-anchor="start" x="133" y="-732" font-family="Times,serif" font-weight="bold" font-size="10.00">и пройти </text>
<text text-anchor="start" x="175" y="-732" font-family="Times,serif" font-size="10.00"> 60.0%</text>
<text text-anchor="start" x="204" y="-732" font-family="Times,serif" font-weight="bold" font-size="10.00"> пути</text>
<polygon fill="none" stroke="black" points="14.5,-726 14.5,-768 231.5,-768 231.5,-726 14.5,-726"/>
</g>
<!-- [ns&#45;0]second_moving&#45;&gt;[ns&#45;0]second_defence -->
<g id="edge7" class="edge"><title>[ns&#45;0]second_moving:[ns&#45;0]second_moving&#45;&gt;[ns&#45;0]second_defence:[ns&#45;0]second_defence</title>
<path fill="none" stroke="black" d="M123,-725.804C123,-715.862 123,-703.556 123,-692.007"/>
<polygon fill="black" stroke="black" points="126.5,-691.703 123,-681.703 119.5,-691.703 126.5,-691.703"/>
</g>
<!-- [ns&#45;0]hide -->
<g id="node12" class="node"><title>[ns&#45;0]hide</title>
<polygon fill="#ddffdd" stroke="none" points="316.5,-142.5 316.5,-197.5 483.5,-197.5 483.5,-142.5 316.5,-142.5"/>
<text text-anchor="start" x="319" y="-187.5" font-family="Times,serif" font-style="italic" font-size="10.00">[ns&#45;0]hide</text>
<text text-anchor="start" x="319" y="-173" font-family="Times,serif" font-size="10.00">прячемся</text>
<polygon fill="#eeffee" stroke="none" points="318,-156 318,-169 483,-169 483,-156 318,-156"/>
<text text-anchor="start" x="319" y="-161" font-family="Times,serif" font-weight="bold" font-size="10.00">сообщение:</text>
<text text-anchor="start" x="371" y="-161" font-family="Times,serif" font-size="10.00"> hide</text>
<polygon fill="#eeffee" stroke="none" points="318,-143 318,-156 483,-156 483,-143 318,-143"/>
<text text-anchor="start" x="319" y="-148" font-family="Times,serif" font-weight="bold" font-size="10.00">отправить </text>
<text text-anchor="start" x="369" y="-148" font-family="Times,serif" font-size="10.00"> hero</text>
<text text-anchor="start" x="390" y="-148" font-family="Times,serif" font-weight="bold" font-size="10.00">бродить около</text>
<text text-anchor="start" x="456" y="-148" font-family="Times,serif" font-size="10.00"> None</text>
<polygon fill="none" stroke="black" points="316.5,-142.5 316.5,-197.5 483.5,-197.5 483.5,-142.5 316.5,-142.5"/>
</g>
<!-- [ns&#45;0]hide&#45;&gt;[ns&#45;0]finish_attack -->
<g id="edge14" class="edge"><title>[ns&#45;0]hide:[ns&#45;0]hide&#45;&gt;[ns&#45;0]finish_attack:[ns&#45;0]finish_attack</title>
<path fill="none" stroke="black" d="M400,-142.451C400,-132.334 400,-120.379 400,-108.532"/>
<polygon fill="black" stroke="black" points="403.5,-108.197 400,-98.1969 396.5,-108.197 403.5,-108.197"/>
</g>
<!-- [ns&#45;0]first_defence -->
<g id="node13" class="node"><title>[ns&#45;0]first_defence</title>
<polygon fill="#ddddff" stroke="none" points="213,-884.5 213,-939.5 341,-939.5 341,-884.5 213,-884.5"/>
<text text-anchor="start" x="215" y="-929.5" font-family="Times,serif" font-style="italic" font-size="10.00">[ns&#45;0]first_defence</text>
<text text-anchor="start" x="215" y="-915" font-family="Times,serif" font-size="10.00">первая защита</text>
<polygon fill="#eeeeff" stroke="none" points="214,-898 214,-911 340,-911 340,-898 214,-898"/>
<text text-anchor="start" x="215" y="-903" font-family="Times,serif" font-weight="bold" font-size="10.00">сообщение:</text>
<text text-anchor="start" x="267" y="-903" font-family="Times,serif" font-size="10.00"> defence</text>
<polygon fill="#eeeeff" stroke="none" points="214,-885 214,-898 340,-898 340,-885 214,-885"/>
<text text-anchor="start" x="215" y="-890" font-family="Times,serif" font-weight="bold" font-size="10.00">сразиться с</text>
<text text-anchor="start" x="267" y="-890" font-family="Times,serif" font-size="10.00">  None</text>
<polygon fill="none" stroke="black" points="213,-884.5 213,-939.5 341,-939.5 341,-884.5 213,-884.5"/>
</g>
<!-- #option([ns&#45;0]first_defence, [ns&#45;0]move_to_attack) -->
<g id="node15" class="node"><title>#option([ns&#45;0]first_defence, [ns&#45;0]move_to_attack)</title>
<polygon fill="#ffffff" stroke="none" points="219,-825 219,-839 335,-839 335,-825 219,-825"/>
<text text-anchor="start" x="220" y="-829.5" font-family="Times,serif" font-size="10.00">jump_attack</text>
<polygon fill="#eeeeee" stroke="none" points="219,-812 219,-825 335,-825 335,-812 219,-812"/>
<text text-anchor="start" x="220" y="-817" font-family="Times,serif" font-weight="bold" font-size="10.00">сообщение:</text>
<text text-anchor="start" x="272" y="-817" font-family="Times,serif" font-size="10.00"> choose_attack</text>
</g>
<!-- [ns&#45;0]first_defence&#45;&gt;#option([ns&#45;0]first_defence, [ns&#45;0]move_to_attack) -->
<g id="edge3" class="edge"><title>[ns&#45;0]first_defence:[ns&#45;0]first_defence&#45;&gt;#option([ns&#45;0]first_defence, [ns&#45;0]move_to_attack):#option([ns&#45;0]first_defence, [ns&#45;0]move_to_attack)</title>
<path fill="none" stroke="black" stroke-dasharray="1,5" d="M277,-884.422C277,-869.426 277,-851.383 277,-839.576"/>
</g>
<!-- #option([ns&#45;0]first_defence, [ns&#45;0]second_moving) -->
<g id="node16" class="node"><title>#option([ns&#45;0]first_defence, [ns&#45;0]second_moving)</title>
<polygon fill="#ffffff" stroke="none" points="62,-825 62,-839 185,-839 185,-825 62,-825"/>
<text text-anchor="start" x="63" y="-829.5" font-family="Times,serif" font-size="10.00">jump_defence</text>
<polygon fill="#eeeeee" stroke="none" points="62,-812 62,-825 185,-825 185,-812 62,-812"/>
<text text-anchor="start" x="63" y="-817" font-family="Times,serif" font-weight="bold" font-size="10.00">сообщение:</text>
<text text-anchor="start" x="115" y="-817" font-family="Times,serif" font-size="10.00"> choose_defence</text>
</g>
<!-- [ns&#45;0]first_defence&#45;&gt;#option([ns&#45;0]first_defence, [ns&#45;0]second_moving) -->
<g id="edge5" class="edge"><title>[ns&#45;0]first_defence:[ns&#45;0]first_defence&#45;&gt;#option([ns&#45;0]first_defence, [ns&#45;0]second_moving):#option([ns&#45;0]first_defence, [ns&#45;0]second_moving)</title>
<path fill="none" stroke="black" stroke-dasharray="1,5" d="M228.273,-884.422C200.78,-869.426 167.702,-851.383 146.055,-839.576"/>
</g>
<!-- #option([ns&#45;0]caravan_choice, [ns&#45;0]move_to_attack)&#45;&gt;[ns&#45;0]move_to_attack -->
<g id="edge2" class="edge"><title>#option([ns&#45;0]caravan_choice, [ns&#45;0]move_to_attack):#option([ns&#45;0]caravan_choice, [ns&#45;0]move_to_attack)&#45;&gt;[ns&#45;0]move_to_attack:[ns&#45;0]move_to_attack</title>
<path fill="none" stroke="black" stroke-dasharray="1,5" d="M422.541,-812.285C419.265,-802.941 414.674,-789.847 410.489,-777.913"/>
<polygon fill="black" stroke="black" points="413.719,-776.547 407.107,-768.269 407.113,-778.863 413.719,-776.547"/>
</g>
<!-- #option([ns&#45;0]first_defence, [ns&#45;0]move_to_attack)&#45;&gt;[ns&#45;0]move_to_attack -->
<g id="edge4" class="edge"><title>#option([ns&#45;0]first_defence, [ns&#45;0]move_to_attack):#option([ns&#45;0]first_defence, [ns&#45;0]move_to_attack)&#45;&gt;[ns&#45;0]move_to_attack:[ns&#45;0]move_to_attack</title>
<path fill="none" stroke="black" stroke-dasharray="1,5" d="M297.036,-812.457C313.833,-801.942 338.354,-786.591 359.253,-773.508"/>
<polygon fill="black" stroke="black" points="361.336,-776.333 367.955,-768.06 357.622,-770.4 361.336,-776.333"/>
</g>
<!-- #option([ns&#45;0]first_defence, [ns&#45;0]second_moving)&#45;&gt;[ns&#45;0]second_moving -->
<g id="edge6" class="edge"><title>#option([ns&#45;0]first_defence, [ns&#45;0]second_moving):#option([ns&#45;0]first_defence, [ns&#45;0]second_moving)&#45;&gt;[ns&#45;0]second_moving:[ns&#45;0]second_moving</title>
<path fill="none" stroke="black" stroke-dasharray="1,5" d="M123,-812.285C123,-803.035 123,-790.108 123,-778.271"/>
<polygon fill="black" stroke="black" points="126.5,-778.269 123,-768.269 119.5,-778.269 126.5,-778.269"/>
</g>
<!-- #option([ns&#45;0]caravan_choice, [ns&#45;0]first_defence)&#45;&gt;[ns&#45;0]first_defence -->
<g id="edge11" class="edge"><title>#option([ns&#45;0]caravan_choice, [ns&#45;0]first_defence):#option([ns&#45;0]caravan_choice, [ns&#45;0]first_defence)&#45;&gt;[ns&#45;0]first_defence:[ns&#45;0]first_defence</title>
<path fill="none" stroke="black" stroke-dasharray="1,5" d="M277,-984.242C277,-975.063 277,-962.184 277,-949.897"/>
<polygon fill="black" stroke="black" points="280.5,-949.809 277,-939.809 273.5,-949.809 280.5,-949.809"/>
</g>
<!-- #jump([ns&#45;0]start, [ns&#45;0]first_moving)&#45;&gt;[ns&#45;0]first_moving -->
<g id="edge13" class="edge"><title>#jump([ns&#45;0]start, [ns&#45;0]first_moving):#jump([ns&#45;0]start, [ns&#45;0]first_moving)&#45;&gt;[ns&#45;0]first_moving:[ns&#45;0]first_moving</title>
<path fill="none" stroke="black" d="M379,-1222.96C379,-1214.2 379,-1197.38 379,-1182.31"/>
<polygon fill="black" stroke="black" points="382.5,-1182.28 379,-1172.28 375.5,-1182.28 382.5,-1182.28"/>
</g>
<!-- #jump([ns&#45;0]fight, [ns&#45;0]hide)&#45;&gt;[ns&#45;0]hide -->
<g id="edge16" class="edge"><title>#jump([ns&#45;0]fight, [ns&#45;0]hide):#jump([ns&#45;0]fight, [ns&#45;0]hide)&#45;&gt;[ns&#45;0]hide:[ns&#45;0]hide</title>
<path fill="none" stroke="black" d="M400,-248.959C400,-240.257 400,-223.504 400,-207.752"/>
<polygon fill="black" stroke="black" points="403.5,-207.639 400,-197.639 396.5,-207.639 403.5,-207.639"/>
</g>
<!-- #jump([ns&#45;0]attack, [ns&#45;0]run)&#45;&gt;[ns&#45;0]run -->
<g id="edge20" class="edge"><title>#jump([ns&#45;0]attack, [ns&#45;0]run):#jump([ns&#45;0]attack, [ns&#45;0]run)&#45;&gt;[ns&#45;0]run:[ns&#45;0]run</title>
<path fill="none" stroke="black" d="M400,-533.806C400,-520.837 400,-490.075 400,-466.485"/>
<polygon fill="black" stroke="black" points="403.5,-466.241 400,-456.241 396.5,-466.241 403.5,-466.241"/>
</g>
<!-- #options_link(#option([ns&#45;0]caravan_choice, [ns&#45;0]first_defence),#option([ns&#45;0]first_defence, [ns&#45;0]second_moving)) -->
<g id="node21" class="node"><title>#options_link(#option([ns&#45;0]caravan_choice, [ns&#45;0]first_defence),#option([ns&#45;0]first_defence, [ns&#45;0]second_moving))</title>
<ellipse fill="#ffaaaa" stroke="black" cx="224" cy="-1071" rx="12" ry="12"/>
<text text-anchor="middle" x="224" y="-1068.5" font-family="Times,serif" font-size="10.00">link</text>
</g>
<!-- #options_link(#option([ns&#45;0]caravan_choice, [ns&#45;0]first_defence),#option([ns&#45;0]first_defence, [ns&#45;0]second_moving))&#45;&gt;#option([ns&#45;0]first_defence, [ns&#45;0]second_moving) -->
<g id="edge22" class="edge"><title>#options_link(#option([ns&#45;0]caravan_choice, [ns&#45;0]first_defence),#option([ns&#45;0]first_defence, [ns&#45;0]second_moving))&#45;&gt;#option([ns&#45;0]first_defence, [ns&#45;0]second_moving):#option([ns&#45;0]first_defence, [ns&#45;0]second_moving)</title>
<path fill="none" stroke="#ffaaaa" d="M218.796,-1059.75C213.383,-1048.96 204.769,-1031.44 198,-1016 169.222,-950.37 138.924,-869.982 127.612,-839.509"/>
</g>
<!-- #options_link(#option([ns&#45;0]caravan_choice, [ns&#45;0]first_defence),#option([ns&#45;0]first_defence, [ns&#45;0]second_moving))&#45;&gt;#option([ns&#45;0]caravan_choice, [ns&#45;0]first_defence) -->
<g id="edge21" class="edge"><title>#options_link(#option([ns&#45;0]caravan_choice, [ns&#45;0]first_defence),#option([ns&#45;0]first_defence, [ns&#45;0]second_moving))&#45;&gt;#option([ns&#45;0]caravan_choice, [ns&#45;0]first_defence):#option([ns&#45;0]caravan_choice, [ns&#45;0]first_defence)</title>
<path fill="none" stroke="#ffaaaa" d="M230.712,-1061.01C240.016,-1048.54 256.879,-1025.95 267.48,-1011.75"/>
</g>
<!-- #options_link(#option([ns&#45;0]caravan_choice, [ns&#45;0]move_to_attack),#option([ns&#45;0]first_defence, [ns&#45;0]move_to_attack)) -->
<g id="node22" class="node"><title>#options_link(#option([ns&#45;0]caravan_choice, [ns&#45;0]move_to_attack),#option([ns&#45;0]first_defence, [ns&#45;0]move_to_attack))</title>
<ellipse fill="#ffaaaa" stroke="black" cx="383" cy="-912" rx="12" ry="12"/>
<text text-anchor="middle" x="383" y="-909.5" font-family="Times,serif" font-size="10.00">link</text>
</g>
<!-- #options_link(#option([ns&#45;0]caravan_choice, [ns&#45;0]move_to_attack),#option([ns&#45;0]first_defence, [ns&#45;0]move_to_attack))&#45;&gt;#option([ns&#45;0]caravan_choice, [ns&#45;0]move_to_attack) -->
<g id="edge23" class="edge"><title>#options_link(#option([ns&#45;0]caravan_choice, [ns&#45;0]move_to_attack),#option([ns&#45;0]first_defence, [ns&#45;0]move_to_attack))&#45;&gt;#option([ns&#45;0]caravan_choice, [ns&#45;0]move_to_attack):#option([ns&#45;0]caravan_choice, [ns&#45;0]move_to_attack)</title>
<path fill="none" stroke="#ffaaaa" d="M388.22,-901.034C396.233,-885.737 411.558,-856.481 420.353,-839.689"/>
</g>
<!-- #options_link(#option([ns&#45;0]caravan_choice, [ns&#45;0]move_to_attack),#option([ns&#45;0]first_defence, [ns&#45;0]move_to_attack))&#45;&gt;#option([ns&#45;0]first_defence, [ns&#45;0]move_to_attack) -->
<g id="edge24" class="edge"><title>#options_link(#option([ns&#45;0]caravan_choice, [ns&#45;0]move_to_attack),#option([ns&#45;0]first_defence, [ns&#45;0]move_to_attack))&#45;&gt;#option([ns&#45;0]first_defence, [ns&#45;0]move_to_attack):#option([ns&#45;0]first_defence, [ns&#45;0]move_to_attack)</title>
<path fill="none" stroke="#ffaaaa" d="M376.673,-901.675C371.98,-895.159 365.176,-886.497 358,-880 340.31,-863.984 317.323,-849.429 300.358,-839.641"/>
</g>
</g>
</svg>
