<?xml version="1.0" encoding="UTF-8" standalone="no"?>
<!DOCTYPE svg PUBLIC "-//W3C//DTD SVG 1.1//EN"
 "http://www.w3.org/Graphics/SVG/1.1/DTD/svg11.dtd">
<!-- Generated by graphviz version 2.34.0 (20130907.0221)
 -->
<!-- Title: quest Pages: 1 -->
<svg width="499pt" height="1356pt"
 viewBox="0.00 0.00 499.00 1356.00" xmlns="http://www.w3.org/2000/svg" xmlns:xlink="http://www.w3.org/1999/xlink">
<g id="graph0" class="graph" transform="scale(1 1) rotate(0) translate(4 1352)">
<title>quest</title>
<polygon fill="white" stroke="white" points="-4,4 -4,-1352 495,-1352 495,4 -4,4"/>
<!-- [ns&#45;0]finish_defence -->
<g id="node1" class="node"><title>[ns&#45;0]finish_defence</title>
<polygon fill="#eeeeee" stroke="none" points="19.5,-500.5 19.5,-581.5 212.5,-581.5 212.5,-500.5 19.5,-500.5"/>
<text text-anchor="start" x="22" y="-571.5" font-family="Times,serif" font-style="italic" font-size="10.00">[ns&#45;0]finish_defence</text>
<text text-anchor="start" x="144.5" y="-571.5" font-family="Times,serif" font-weight="bold" font-size="10.00">successed</text>
<text text-anchor="start" x="22" y="-557" font-family="Times,serif" font-size="10.00">Караван приходит в точку назначения</text>
<polygon fill="#dddddd" stroke="none" points="21,-540 21,-553 212,-553 212,-540 21,-540"/>
<text text-anchor="start" x="22" y="-545" font-family="Times,serif" font-size="10.00">hero </text>
<text text-anchor="start" x="43" y="-545" font-family="Times,serif" font-weight="bold" font-size="10.00">находится в</text>
<text text-anchor="start" x="98" y="-545" font-family="Times,serif" font-size="10.00"> place_9</text>
<polygon fill="#ffffff" stroke="none" points="21,-527 21,-540 212,-540 212,-527 21,-527"/>
<text text-anchor="start" x="22" y="-532" font-family="Times,serif" font-weight="bold" font-size="10.00">выдать награду </text>
<text text-anchor="start" x="97" y="-532" font-family="Times,serif" font-size="10.00">  hero </text>
<text text-anchor="start" x="122" y="-532" font-family="Times,serif" font-weight="bold" font-size="10.00">типа </text>
<text text-anchor="start" x="146" y="-532" font-family="Times,serif" font-size="10.00"> finish_defence</text>
<polygon fill="#ffffff" stroke="none" points="21,-514 21,-527 212,-527 212,-514 21,-514"/>
<text text-anchor="start" x="22" y="-519" font-family="Times,serif" font-weight="bold" font-size="10.00">увеличить влияние </text>
<text text-anchor="start" x="110" y="-519" font-family="Times,serif" font-size="10.00">  person_1 </text>
<text text-anchor="start" x="155" y="-519" font-family="Times,serif" font-weight="bold" font-size="10.00">на </text>
<text text-anchor="start" x="168" y="-519" font-family="Times,serif" font-size="10.00"> 1.00</text>
<polygon fill="#ffffff" stroke="none" points="21,-501 21,-514 212,-514 212,-501 21,-501"/>
<text text-anchor="start" x="22" y="-506" font-family="Times,serif" font-weight="bold" font-size="10.00">увеличить влияние </text>
<text text-anchor="start" x="110" y="-506" font-family="Times,serif" font-size="10.00">  person_9 </text>
<text text-anchor="start" x="155" y="-506" font-family="Times,serif" font-weight="bold" font-size="10.00">на </text>
<text text-anchor="start" x="168" y="-506" font-family="Times,serif" font-size="10.00"> 1.00</text>
<polygon fill="none" stroke="black" points="19.5,-500.5 19.5,-581.5 212.5,-581.5 212.5,-500.5 19.5,-500.5"/>
</g>
<!-- [ns&#45;0]start -->
<g id="node2" class="node"><title>[ns&#45;0]start</title>
<polygon fill="#eeeeee" stroke="none" points="228.5,-1288.5 228.5,-1343.5 345.5,-1343.5 345.5,-1288.5 228.5,-1288.5"/>
<text text-anchor="start" x="231" y="-1333.5" font-family="Times,serif" font-style="italic" font-size="10.00">[ns&#45;0]start</text>
<text text-anchor="start" x="298.5" y="-1333.5" font-family="Times,serif" font-weight="bold" font-size="10.00">caravan</text>
<text text-anchor="start" x="231" y="-1319" font-family="Times,serif" font-size="10.00">Начало: караван</text>
<polygon fill="#dddddd" stroke="none" points="230,-1302 230,-1315 345,-1315 345,-1302 230,-1302"/>
<text text-anchor="start" x="231" y="-1307" font-family="Times,serif" font-size="10.00">hero </text>
<text text-anchor="start" x="252" y="-1307" font-family="Times,serif" font-weight="bold" font-size="10.00">находится в</text>
<text text-anchor="start" x="307" y="-1307" font-family="Times,serif" font-size="10.00"> place_1</text>
<polygon fill="#ffffff" stroke="none" points="230,-1289 230,-1302 345,-1302 345,-1289 230,-1289"/>
<text text-anchor="start" x="231" y="-1294" font-family="Times,serif" font-weight="bold" font-size="10.00">сообщение:</text>
<text text-anchor="start" x="283" y="-1294" font-family="Times,serif" font-size="10.00"> intro</text>
<polygon fill="none" stroke="black" points="228.5,-1288.5 228.5,-1343.5 345.5,-1343.5 345.5,-1288.5 228.5,-1288.5"/>
</g>
<!-- #jump([ns&#45;0]start, [ns&#45;0]first_moving) -->
<g id="node18" class="node"><title>#jump([ns&#45;0]start, [ns&#45;0]first_moving)</title>
<polygon fill="#eeeeee" stroke="none" points="232,-1223 232,-1237 342,-1237 342,-1223 232,-1223"/>
<text text-anchor="start" x="233" y="-1228.5" font-family="Times,serif" font-weight="bold" font-size="10.00">сообщение:</text>
<text text-anchor="start" x="285" y="-1228.5" font-family="Times,serif" font-size="10.00"> first_moving</text>
</g>
<!-- [ns&#45;0]start&#45;&gt;#jump([ns&#45;0]start, [ns&#45;0]first_moving) -->
<g id="edge12" class="edge"><title>[ns&#45;0]start:[ns&#45;0]start&#45;&gt;#jump([ns&#45;0]start, [ns&#45;0]first_moving):#jump([ns&#45;0]start, [ns&#45;0]first_moving)</title>
<path fill="none" stroke="black" d="M287,-1288.42C287,-1270.35 287,-1247.85 287,-1237.18"/>
</g>
<!-- [ns&#45;0]attack -->
<g id="node3" class="node"><title>[ns&#45;0]attack</title>
<polygon fill="#ddffdd" stroke="none" points="318.5,-626.5 318.5,-681.5 415.5,-681.5 415.5,-626.5 318.5,-626.5"/>
<text text-anchor="start" x="321" y="-671.5" font-family="Times,serif" font-style="italic" font-size="10.00">[ns&#45;0]attack</text>
<text text-anchor="start" x="321" y="-657" font-family="Times,serif" font-size="10.00">нападение</text>
<polygon fill="#eeffee" stroke="none" points="320,-640 320,-653 415,-653 415,-640 320,-640"/>
<text text-anchor="start" x="321" y="-645" font-family="Times,serif" font-weight="bold" font-size="10.00">сообщение:</text>
<text text-anchor="start" x="373" y="-645" font-family="Times,serif" font-size="10.00"> attack</text>
<polygon fill="#eeffee" stroke="none" points="320,-627 320,-640 415,-640 415,-627 320,-627"/>
<text text-anchor="start" x="321" y="-632" font-family="Times,serif" font-weight="bold" font-size="10.00">сразиться с</text>
<text text-anchor="start" x="373" y="-632" font-family="Times,serif" font-size="10.00">  None</text>
<polygon fill="none" stroke="black" points="318.5,-626.5 318.5,-681.5 415.5,-681.5 415.5,-626.5 318.5,-626.5"/>
</g>
<!-- #jump([ns&#45;0]attack, [ns&#45;0]run) -->
<g id="node20" class="node"><title>#jump([ns&#45;0]attack, [ns&#45;0]run)</title>
<polygon fill="#eeeeee" stroke="none" points="320,-534 320,-548 414,-548 414,-534 320,-534"/>
<text text-anchor="start" x="321" y="-539.5" font-family="Times,serif" font-weight="bold" font-size="10.00">сообщение:</text>
<text text-anchor="start" x="373" y="-539.5" font-family="Times,serif" font-size="10.00"> start_run</text>
</g>
<!-- [ns&#45;0]attack&#45;&gt;#jump([ns&#45;0]attack, [ns&#45;0]run) -->
<g id="edge19" class="edge"><title>[ns&#45;0]attack:[ns&#45;0]attack&#45;&gt;#jump([ns&#45;0]attack, [ns&#45;0]run):#jump([ns&#45;0]attack, [ns&#45;0]run)</title>
<path fill="none" stroke="black" d="M367,-626.413C367,-600.501 367,-562.924 367,-548.224"/>
</g>
<!-- [ns&#45;0]fight -->
<g id="node4" class="node"><title>[ns&#45;0]fight</title>
<polygon fill="#ddffdd" stroke="none" points="296.5,-314.5 296.5,-369.5 437.5,-369.5 437.5,-314.5 296.5,-314.5"/>
<text text-anchor="start" x="299" y="-359.5" font-family="Times,serif" font-style="italic" font-size="10.00">[ns&#45;0]fight</text>
<text text-anchor="start" x="299" y="-345" font-family="Times,serif" font-size="10.00">защита награбленного</text>
<polygon fill="#eeffee" stroke="none" points="298,-328 298,-341 437,-341 437,-328 298,-328"/>
<text text-anchor="start" x="299" y="-333" font-family="Times,serif" font-weight="bold" font-size="10.00">сообщение:</text>
<text text-anchor="start" x="351" y="-333" font-family="Times,serif" font-size="10.00"> fight</text>
<polygon fill="#eeffee" stroke="none" points="298,-315 298,-328 437,-328 437,-315 298,-315"/>
<text text-anchor="start" x="299" y="-320" font-family="Times,serif" font-weight="bold" font-size="10.00">сразиться с</text>
<text text-anchor="start" x="351" y="-320" font-family="Times,serif" font-size="10.00">  None</text>
<polygon fill="none" stroke="black" points="296.5,-314.5 296.5,-369.5 437.5,-369.5 437.5,-314.5 296.5,-314.5"/>
</g>
<!-- #jump([ns&#45;0]fight, [ns&#45;0]hide) -->
<g id="node19" class="node"><title>#jump([ns&#45;0]fight, [ns&#45;0]hide)</title>
<polygon fill="#eeeeee" stroke="none" points="318,-249 318,-263 416,-263 416,-249 318,-249"/>
<text text-anchor="start" x="319" y="-254.5" font-family="Times,serif" font-weight="bold" font-size="10.00">сообщение:</text>
<text text-anchor="start" x="371" y="-254.5" font-family="Times,serif" font-size="10.00"> start_hide</text>
</g>
<!-- [ns&#45;0]fight&#45;&gt;#jump([ns&#45;0]fight, [ns&#45;0]hide) -->
<g id="edge15" class="edge"><title>[ns&#45;0]fight:[ns&#45;0]fight&#45;&gt;#jump([ns&#45;0]fight, [ns&#45;0]hide):#jump([ns&#45;0]fight, [ns&#45;0]hide)</title>
<path fill="none" stroke="black" d="M367,-314.422C367,-296.349 367,-273.853 367,-263.177"/>
</g>
<!-- [ns&#45;0]move_to_attack -->
<g id="node5" class="node"><title>[ns&#45;0]move_to_attack</title>
<polygon fill="#ddffdd" stroke="none" points="258.5,-726 258.5,-768 475.5,-768 475.5,-726 258.5,-726"/>
<text text-anchor="start" x="261" y="-758.5" font-family="Times,serif" font-style="italic" font-size="10.00">[ns&#45;0]move_to_attack</text>
<text text-anchor="start" x="261" y="-744" font-family="Times,serif" font-size="10.00">ведём караван в засаду</text>
<polygon fill="#eeffee" stroke="none" points="260,-727 260,-740 475,-740 475,-727 260,-727"/>
<text text-anchor="start" x="261" y="-732" font-family="Times,serif" font-size="10.00">hero </text>
<text text-anchor="start" x="282" y="-732" font-family="Times,serif" font-weight="bold" font-size="10.00">отправить в </text>
<text text-anchor="start" x="340" y="-732" font-family="Times,serif" font-size="10.00"> place_9 </text>
<text text-anchor="start" x="377" y="-732" font-family="Times,serif" font-weight="bold" font-size="10.00">и пройти </text>
<text text-anchor="start" x="419" y="-732" font-family="Times,serif" font-size="10.00"> 50.0%</text>
<text text-anchor="start" x="448" y="-732" font-family="Times,serif" font-weight="bold" font-size="10.00"> пути</text>
<polygon fill="none" stroke="black" points="258.5,-726 258.5,-768 475.5,-768 475.5,-726 258.5,-726"/>
</g>
<!-- [ns&#45;0]move_to_attack&#45;&gt;[ns&#45;0]attack -->
<g id="edge17" class="edge"><title>[ns&#45;0]move_to_attack:[ns&#45;0]move_to_attack&#45;&gt;[ns&#45;0]attack:[ns&#45;0]attack</title>
<path fill="none" stroke="black" d="M367,-725.804C367,-715.862 367,-703.556 367,-692.007"/>
<polygon fill="black" stroke="black" points="370.5,-691.703 367,-681.703 363.5,-691.703 370.5,-691.703"/>
</g>
<!-- [ns&#45;0]run -->
<g id="node6" class="node"><title>[ns&#45;0]run</title>
<polygon fill="#ddffdd" stroke="none" points="250.5,-414 250.5,-456 483.5,-456 483.5,-414 250.5,-414"/>
<text text-anchor="start" x="253" y="-446.5" font-family="Times,serif" font-style="italic" font-size="10.00">[ns&#45;0]run</text>
<text text-anchor="start" x="253" y="-432" font-family="Times,serif" font-size="10.00">скрываемся с места преступления</text>
<polygon fill="#eeffee" stroke="none" points="252,-415 252,-428 483,-428 483,-415 252,-415"/>
<text text-anchor="start" x="253" y="-420" font-family="Times,serif" font-weight="bold" font-size="10.00">отправить </text>
<text text-anchor="start" x="303" y="-420" font-family="Times,serif" font-size="10.00"> hero</text>
<text text-anchor="start" x="324" y="-420" font-family="Times,serif" font-weight="bold" font-size="10.00">бродить около</text>
<text text-anchor="start" x="390" y="-420" font-family="Times,serif" font-size="10.00"> None</text>
<polygon fill="none" stroke="black" points="250.5,-414 250.5,-456 483.5,-456 483.5,-414 250.5,-414"/>
</g>
<!-- [ns&#45;0]run&#45;&gt;[ns&#45;0]fight -->
<g id="edge8" class="edge"><title>[ns&#45;0]run:[ns&#45;0]run&#45;&gt;[ns&#45;0]fight:[ns&#45;0]fight</title>
<path fill="none" stroke="black" d="M367,-413.804C367,-403.862 367,-391.556 367,-380.007"/>
<polygon fill="black" stroke="black" points="370.5,-379.703 367,-369.703 363.5,-379.703 370.5,-379.703"/>
</g>
<!-- [ns&#45;0]caravan_choice -->
<g id="node7" class="node"><title>[ns&#45;0]caravan_choice</title>
<polygon fill="#ddddff" stroke="none" points="215,-1056.5 215,-1085.5 359,-1085.5 359,-1056.5 215,-1056.5"/>
<text text-anchor="start" x="217" y="-1075.5" font-family="Times,serif" font-style="italic" font-size="10.00">[ns&#45;0]caravan_choice</text>
<text text-anchor="start" x="217" y="-1061" font-family="Times,serif" font-size="10.00">Решение: защитить или ограбить</text>
<polygon fill="none" stroke="black" points="215,-1056.5 215,-1085.5 359,-1085.5 359,-1056.5 215,-1056.5"/>
</g>
<!-- #option([ns&#45;0]caravan_choice, [ns&#45;0]move_to_attack) -->
<g id="node14" class="node"><title>#option([ns&#45;0]caravan_choice, [ns&#45;0]move_to_attack)</title>
<polygon fill="#ffffff" stroke="none" points="309,-911 309,-925 425,-925 425,-911 309,-911"/>
<text text-anchor="start" x="310" y="-915.5" font-family="Times,serif" font-size="10.00">jump_attack</text>
<polygon fill="#eeeeee" stroke="none" points="309,-898 309,-911 425,-911 425,-898 309,-898"/>
<text text-anchor="start" x="310" y="-903" font-family="Times,serif" font-weight="bold" font-size="10.00">сообщение:</text>
<text text-anchor="start" x="362" y="-903" font-family="Times,serif" font-size="10.00"> choose_attack</text>
</g>
<!-- [ns&#45;0]caravan_choice&#45;&gt;#option([ns&#45;0]caravan_choice, [ns&#45;0]move_to_attack) -->
<g id="edge1" class="edge"><title>[ns&#45;0]caravan_choice:[ns&#45;0]caravan_choice&#45;&gt;#option([ns&#45;0]caravan_choice, [ns&#45;0]move_to_attack):#option([ns&#45;0]caravan_choice, [ns&#45;0]move_to_attack)</title>
<path fill="none" stroke="black" stroke-dasharray="1,5" d="M293.96,-1056.34C309.241,-1026.35 345.553,-955.089 360.451,-925.853"/>
</g>
<!-- #option([ns&#45;0]caravan_choice, [ns&#45;0]first_defence) -->
<g id="node17" class="node"><title>#option([ns&#45;0]caravan_choice, [ns&#45;0]first_defence)</title>
<polygon fill="#ffffff" stroke="none" points="150,-997 150,-1011 273,-1011 273,-997 150,-997"/>
<text text-anchor="start" x="151" y="-1001.5" font-family="Times,serif" font-size="10.00">jump_defence</text>
<polygon fill="#eeeeee" stroke="none" points="150,-984 150,-997 273,-997 273,-984 150,-984"/>
<text text-anchor="start" x="151" y="-989" font-family="Times,serif" font-weight="bold" font-size="10.00">сообщение:</text>
<text text-anchor="start" x="203" y="-989" font-family="Times,serif" font-size="10.00"> choose_defence</text>
</g>
<!-- [ns&#45;0]caravan_choice&#45;&gt;#option([ns&#45;0]caravan_choice, [ns&#45;0]first_defence) -->
<g id="edge10" class="edge"><title>[ns&#45;0]caravan_choice:[ns&#45;0]caravan_choice&#45;&gt;#option([ns&#45;0]caravan_choice, [ns&#45;0]first_defence):#option([ns&#45;0]caravan_choice, [ns&#45;0]first_defence)</title>
<path fill="none" stroke="black" stroke-dasharray="1,5" d="M272.346,-1056.31C258.543,-1043.42 238.031,-1024.25 224.587,-1011.69"/>
</g>
<!-- [ns&#45;0]finish_attack -->
<g id="node8" class="node"><title>[ns&#45;0]finish_attack</title>
<polygon fill="#eeeeee" stroke="none" points="274.5,-4 274.5,-98 459.5,-98 459.5,-4 274.5,-4"/>
<text text-anchor="start" x="277" y="-88.5" font-family="Times,serif" font-style="italic" font-size="10.00">[ns&#45;0]finish_attack</text>
<text text-anchor="start" x="401" y="-88.5" font-family="Times,serif" font-weight="bold" font-size="10.00">failed</text>
<text text-anchor="start" x="277" y="-74" font-family="Times,serif" font-size="10.00">Продать товар на чёрном рынке</text>
<polygon fill="#dddddd" stroke="none" points="276,-57 276,-70 459,-70 459,-57 276,-57"/>
<text text-anchor="start" x="277" y="-62" font-family="Times,serif" font-size="10.00">hero </text>
<text text-anchor="start" x="298" y="-62" font-family="Times,serif" font-weight="bold" font-size="10.00">находится в</text>
<text text-anchor="start" x="353" y="-62" font-family="Times,serif" font-size="10.00"> place_6</text>
<polygon fill="#ffffff" stroke="none" points="276,-44 276,-57 459,-57 459,-44 276,-44"/>
<text text-anchor="start" x="277" y="-49" font-family="Times,serif" font-weight="bold" font-size="10.00">выдать награду </text>
<text text-anchor="start" x="352" y="-49" font-family="Times,serif" font-size="10.00">  hero </text>
<text text-anchor="start" x="377" y="-49" font-family="Times,serif" font-weight="bold" font-size="10.00">типа </text>
<text text-anchor="start" x="401" y="-49" font-family="Times,serif" font-size="10.00"> finish_attack</text>
<polygon fill="#ffffff" stroke="none" points="276,-31 276,-44 459,-44 459,-31 276,-31"/>
<text text-anchor="start" x="277" y="-36" font-family="Times,serif" font-weight="bold" font-size="10.00">увеличить влияние </text>
<text text-anchor="start" x="365" y="-36" font-family="Times,serif" font-size="10.00">  person_1 </text>
<text text-anchor="start" x="410" y="-36" font-family="Times,serif" font-weight="bold" font-size="10.00">на </text>
<text text-anchor="start" x="423" y="-36" font-family="Times,serif" font-size="10.00"> &#45;1.00</text>
<polygon fill="#ffffff" stroke="none" points="276,-18 276,-31 459,-31 459,-18 276,-18"/>
<text text-anchor="start" x="277" y="-23" font-family="Times,serif" font-weight="bold" font-size="10.00">увеличить влияние </text>
<text text-anchor="start" x="365" y="-23" font-family="Times,serif" font-size="10.00">  person_9 </text>
<text text-anchor="start" x="410" y="-23" font-family="Times,serif" font-weight="bold" font-size="10.00">на </text>
<text text-anchor="start" x="423" y="-23" font-family="Times,serif" font-size="10.00"> &#45;1.00</text>
<polygon fill="#ffffff" stroke="none" points="276,-5 276,-18 459,-18 459,-5 276,-5"/>
<text text-anchor="start" x="277" y="-10" font-family="Times,serif" font-weight="bold" font-size="10.00">увеличить влияние </text>
<text text-anchor="start" x="365" y="-10" font-family="Times,serif" font-size="10.00">  place_6 </text>
<text text-anchor="start" x="405" y="-10" font-family="Times,serif" font-weight="bold" font-size="10.00">на </text>
<text text-anchor="start" x="418" y="-10" font-family="Times,serif" font-size="10.00"> 1.00</text>
<polygon fill="none" stroke="black" points="274.5,-4 274.5,-98 459.5,-98 459.5,-4 274.5,-4"/>
</g>
<!-- [ns&#45;0]second_defence -->
<g id="node9" class="node"><title>[ns&#45;0]second_defence</title>
<polygon fill="#ddffdd" stroke="none" points="46,-626.5 46,-681.5 186,-681.5 186,-626.5 46,-626.5"/>
<text text-anchor="start" x="48" y="-671.5" font-family="Times,serif" font-style="italic" font-size="10.00">[ns&#45;0]second_defence</text>
<text text-anchor="start" x="48" y="-657" font-family="Times,serif" font-size="10.00">вторая защита</text>
<polygon fill="#eeffee" stroke="none" points="47,-640 47,-653 185,-653 185,-640 47,-640"/>
<text text-anchor="start" x="48" y="-645" font-family="Times,serif" font-weight="bold" font-size="10.00">сообщение:</text>
<text text-anchor="start" x="100" y="-645" font-family="Times,serif" font-size="10.00"> defence</text>
<polygon fill="#eeffee" stroke="none" points="47,-627 47,-640 185,-640 185,-627 47,-627"/>
<text text-anchor="start" x="48" y="-632" font-family="Times,serif" font-weight="bold" font-size="10.00">сразиться с</text>
<text text-anchor="start" x="100" y="-632" font-family="Times,serif" font-size="10.00">  None</text>
<polygon fill="none" stroke="black" points="46,-626.5 46,-681.5 186,-681.5 186,-626.5 46,-626.5"/>
</g>
<!-- [ns&#45;0]second_defence&#45;&gt;[ns&#45;0]finish_defence -->
<g id="edge9" class="edge"><title>[ns&#45;0]second_defence:[ns&#45;0]second_defence&#45;&gt;[ns&#45;0]finish_defence:[ns&#45;0]finish_defence</title>
<path fill="none" stroke="black" d="M116,-626.413C116,-616.095 116,-603.927 116,-592.09"/>
<polygon fill="black" stroke="black" points="119.5,-591.829 116,-581.829 112.5,-591.829 119.5,-591.829"/>
</g>
<!-- [ns&#45;0]first_moving -->
<g id="node10" class="node"><title>[ns&#45;0]first_moving</title>
<polygon fill="#ddffdd" stroke="none" points="178.5,-1130 178.5,-1172 395.5,-1172 395.5,-1130 178.5,-1130"/>
<text text-anchor="start" x="181" y="-1162.5" font-family="Times,serif" font-style="italic" font-size="10.00">[ns&#45;0]first_moving</text>
<text text-anchor="start" x="181" y="-1148" font-family="Times,serif" font-size="10.00">двигаемся с караваном</text>
<polygon fill="#eeffee" stroke="none" points="180,-1131 180,-1144 395,-1144 395,-1131 180,-1131"/>
<text text-anchor="start" x="181" y="-1136" font-family="Times,serif" font-size="10.00">hero </text>
<text text-anchor="start" x="202" y="-1136" font-family="Times,serif" font-weight="bold" font-size="10.00">отправить в </text>
<text text-anchor="start" x="260" y="-1136" font-family="Times,serif" font-size="10.00"> place_9 </text>
<text text-anchor="start" x="297" y="-1136" font-family="Times,serif" font-weight="bold" font-size="10.00">и пройти </text>
<text text-anchor="start" x="339" y="-1136" font-family="Times,serif" font-size="10.00"> 30.0%</text>
<text text-anchor="start" x="368" y="-1136" font-family="Times,serif" font-weight="bold" font-size="10.00"> пути</text>
<polygon fill="none" stroke="black" points="178.5,-1130 178.5,-1172 395.5,-1172 395.5,-1130 178.5,-1130"/>
</g>
<!-- [ns&#45;0]first_moving&#45;&gt;[ns&#45;0]caravan_choice -->
<g id="edge18" class="edge"><title>[ns&#45;0]first_moving:[ns&#45;0]first_moving&#45;&gt;[ns&#45;0]caravan_choice:[ns&#45;0]caravan_choice</title>
<path fill="none" stroke="black" d="M287,-1129.91C287,-1119.49 287,-1106.68 287,-1095.76"/>
<polygon fill="black" stroke="black" points="290.5,-1095.63 287,-1085.63 283.5,-1095.63 290.5,-1095.63"/>
</g>
<!-- [ns&#45;0]second_moving -->
<g id="node11" class="node"><title>[ns&#45;0]second_moving</title>
<polygon fill="#ddffdd" stroke="none" points="7.5,-726 7.5,-768 224.5,-768 224.5,-726 7.5,-726"/>
<text text-anchor="start" x="10" y="-758.5" font-family="Times,serif" font-style="italic" font-size="10.00">[ns&#45;0]second_moving</text>
<text text-anchor="start" x="10" y="-744" font-family="Times,serif" font-size="10.00">двигаемся с караваном</text>
<polygon fill="#eeffee" stroke="none" points="9,-727 9,-740 224,-740 224,-727 9,-727"/>
<text text-anchor="start" x="10" y="-732" font-family="Times,serif" font-size="10.00">hero </text>
<text text-anchor="start" x="31" y="-732" font-family="Times,serif" font-weight="bold" font-size="10.00">отправить в </text>
<text text-anchor="start" x="89" y="-732" font-family="Times,serif" font-size="10.00"> place_9 </text>
<text text-anchor="start" x="126" y="-732" font-family="Times,serif" font-weight="bold" font-size="10.00">и пройти </text>
<text text-anchor="start" x="168" y="-732" font-family="Times,serif" font-size="10.00"> 60.0%</text>
<text text-anchor="start" x="197" y="-732" font-family="Times,serif" font-weight="bold" font-size="10.00"> пути</text>
<polygon fill="none" stroke="black" points="7.5,-726 7.5,-768 224.5,-768 224.5,-726 7.5,-726"/>
</g>
<!-- [ns&#45;0]second_moving&#45;&gt;[ns&#45;0]second_defence -->
<g id="edge7" class="edge"><title>[ns&#45;0]second_moving:[ns&#45;0]second_moving&#45;&gt;[ns&#45;0]second_defence:[ns&#45;0]second_defence</title>
<path fill="none" stroke="black" d="M116,-725.804C116,-715.862 116,-703.556 116,-692.007"/>
<polygon fill="black" stroke="black" points="119.5,-691.703 116,-681.703 112.5,-691.703 119.5,-691.703"/>
</g>
<!-- [ns&#45;0]hide -->
<g id="node12" class="node"><title>[ns&#45;0]hide</title>
<polygon fill="#ddffdd" stroke="none" points="283.5,-142.5 283.5,-197.5 450.5,-197.5 450.5,-142.5 283.5,-142.5"/>
<text text-anchor="start" x="286" y="-187.5" font-family="Times,serif" font-style="italic" font-size="10.00">[ns&#45;0]hide</text>
<text text-anchor="start" x="286" y="-173" font-family="Times,serif" font-size="10.00">прячемся</text>
<polygon fill="#eeffee" stroke="none" points="285,-156 285,-169 450,-169 450,-156 285,-156"/>
<text text-anchor="start" x="286" y="-161" font-family="Times,serif" font-weight="bold" font-size="10.00">сообщение:</text>
<text text-anchor="start" x="338" y="-161" font-family="Times,serif" font-size="10.00"> hide</text>
<polygon fill="#eeffee" stroke="none" points="285,-143 285,-156 450,-156 450,-143 285,-143"/>
<text text-anchor="start" x="286" y="-148" font-family="Times,serif" font-weight="bold" font-size="10.00">отправить </text>
<text text-anchor="start" x="336" y="-148" font-family="Times,serif" font-size="10.00"> hero</text>
<text text-anchor="start" x="357" y="-148" font-family="Times,serif" font-weight="bold" font-size="10.00">бродить около</text>
<text text-anchor="start" x="423" y="-148" font-family="Times,serif" font-size="10.00"> None</text>
<polygon fill="none" stroke="black" points="283.5,-142.5 283.5,-197.5 450.5,-197.5 450.5,-142.5 283.5,-142.5"/>
</g>
<!-- [ns&#45;0]hide&#45;&gt;[ns&#45;0]finish_attack -->
<g id="edge14" class="edge"><title>[ns&#45;0]hide:[ns&#45;0]hide&#45;&gt;[ns&#45;0]finish_attack:[ns&#45;0]finish_attack</title>
<path fill="none" stroke="black" d="M367,-142.451C367,-132.334 367,-120.379 367,-108.532"/>
<polygon fill="black" stroke="black" points="370.5,-108.197 367,-98.1969 363.5,-108.197 370.5,-108.197"/>
</g>
<!-- [ns&#45;0]first_defence -->
<g id="node13" class="node"><title>[ns&#45;0]first_defence</title>
<polygon fill="#ddddff" stroke="none" points="147,-884.5 147,-939.5 275,-939.5 275,-884.5 147,-884.5"/>
<text text-anchor="start" x="149" y="-929.5" font-family="Times,serif" font-style="italic" font-size="10.00">[ns&#45;0]first_defence</text>
<text text-anchor="start" x="149" y="-915" font-family="Times,serif" font-size="10.00">первая защита</text>
<polygon fill="#eeeeff" stroke="none" points="148,-898 148,-911 274,-911 274,-898 148,-898"/>
<text text-anchor="start" x="149" y="-903" font-family="Times,serif" font-weight="bold" font-size="10.00">сообщение:</text>
<text text-anchor="start" x="201" y="-903" font-family="Times,serif" font-size="10.00"> defence</text>
<polygon fill="#eeeeff" stroke="none" points="148,-885 148,-898 274,-898 274,-885 148,-885"/>
<text text-anchor="start" x="149" y="-890" font-family="Times,serif" font-weight="bold" font-size="10.00">сразиться с</text>
<text text-anchor="start" x="201" y="-890" font-family="Times,serif" font-size="10.00">  None</text>
<polygon fill="none" stroke="black" points="147,-884.5 147,-939.5 275,-939.5 275,-884.5 147,-884.5"/>
</g>
<!-- #option([ns&#45;0]first_defence, [ns&#45;0]move_to_attack) -->
<g id="node15" class="node"><title>#option([ns&#45;0]first_defence, [ns&#45;0]move_to_attack)</title>
<polygon fill="#ffffff" stroke="none" points="214,-825 214,-839 330,-839 330,-825 214,-825"/>
<text text-anchor="start" x="215" y="-829.5" font-family="Times,serif" font-size="10.00">jump_attack</text>
<polygon fill="#eeeeee" stroke="none" points="214,-812 214,-825 330,-825 330,-812 214,-812"/>
<text text-anchor="start" x="215" y="-817" font-family="Times,serif" font-weight="bold" font-size="10.00">сообщение:</text>
<text text-anchor="start" x="267" y="-817" font-family="Times,serif" font-size="10.00"> choose_attack</text>
</g>
<!-- [ns&#45;0]first_defence&#45;&gt;#option([ns&#45;0]first_defence, [ns&#45;0]move_to_attack) -->
<g id="edge3" class="edge"><title>[ns&#45;0]first_defence:[ns&#45;0]first_defence&#45;&gt;#option([ns&#45;0]first_defence, [ns&#45;0]move_to_attack):#option([ns&#45;0]first_defence, [ns&#45;0]move_to_attack)</title>
<path fill="none" stroke="black" stroke-dasharray="1,5" d="M230.301,-884.422C241.191,-869.426 254.293,-851.383 262.868,-839.576"/>
</g>
<!-- #option([ns&#45;0]first_defence, [ns&#45;0]second_moving) -->
<g id="node16" class="node"><title>#option([ns&#45;0]first_defence, [ns&#45;0]second_moving)</title>
<polygon fill="#ffffff" stroke="none" points="55,-825 55,-839 178,-839 178,-825 55,-825"/>
<text text-anchor="start" x="56" y="-829.5" font-family="Times,serif" font-size="10.00">jump_defence</text>
<polygon fill="#eeeeee" stroke="none" points="55,-812 55,-825 178,-825 178,-812 55,-812"/>
<text text-anchor="start" x="56" y="-817" font-family="Times,serif" font-weight="bold" font-size="10.00">сообщение:</text>
<text text-anchor="start" x="108" y="-817" font-family="Times,serif" font-size="10.00"> choose_defence</text>
</g>
<!-- [ns&#45;0]first_defence&#45;&gt;#option([ns&#45;0]first_defence, [ns&#45;0]second_moving) -->
<g id="edge5" class="edge"><title>[ns&#45;0]first_defence:[ns&#45;0]first_defence&#45;&gt;#option([ns&#45;0]first_defence, [ns&#45;0]second_moving):#option([ns&#45;0]first_defence, [ns&#45;0]second_moving)</title>
<path fill="none" stroke="black" stroke-dasharray="1,5" d="M180.941,-884.422C163.981,-869.426 143.576,-851.383 130.222,-839.576"/>
</g>
<!-- #option([ns&#45;0]caravan_choice, [ns&#45;0]move_to_attack)&#45;&gt;[ns&#45;0]move_to_attack -->
<g id="edge2" class="edge"><title>#option([ns&#45;0]caravan_choice, [ns&#45;0]move_to_attack):#option([ns&#45;0]caravan_choice, [ns&#45;0]move_to_attack)&#45;&gt;[ns&#45;0]move_to_attack:[ns&#45;0]move_to_attack</title>
<path fill="none" stroke="black" stroke-dasharray="1,5" d="M367,-898.48C367,-873.011 367,-814.526 367,-778.429"/>
<polygon fill="black" stroke="black" points="370.5,-778.007 367,-768.007 363.5,-778.007 370.5,-778.007"/>
</g>
<!-- #option([ns&#45;0]first_defence, [ns&#45;0]move_to_attack)&#45;&gt;[ns&#45;0]move_to_attack -->
<g id="edge4" class="edge"><title>#option([ns&#45;0]first_defence, [ns&#45;0]move_to_attack):#option([ns&#45;0]first_defence, [ns&#45;0]move_to_attack)&#45;&gt;[ns&#45;0]move_to_attack:[ns&#45;0]move_to_attack</title>
<path fill="none" stroke="black" stroke-dasharray="1,5" d="M287.687,-812.285C300.253,-802.1 318.316,-787.46 334.031,-774.722"/>
<polygon fill="black" stroke="black" points="336.428,-777.284 341.993,-768.269 332.021,-771.846 336.428,-777.284"/>
</g>
<!-- #option([ns&#45;0]first_defence, [ns&#45;0]second_moving)&#45;&gt;[ns&#45;0]second_moving -->
<g id="edge6" class="edge"><title>#option([ns&#45;0]first_defence, [ns&#45;0]second_moving):#option([ns&#45;0]first_defence, [ns&#45;0]second_moving)&#45;&gt;[ns&#45;0]second_moving:[ns&#45;0]second_moving</title>
<path fill="none" stroke="black" stroke-dasharray="1,5" d="M116,-812.285C116,-803.035 116,-790.108 116,-778.271"/>
<polygon fill="black" stroke="black" points="119.5,-778.269 116,-768.269 112.5,-778.269 119.5,-778.269"/>
</g>
<!-- #option([ns&#45;0]caravan_choice, [ns&#45;0]first_defence)&#45;&gt;[ns&#45;0]first_defence -->
<g id="edge11" class="edge"><title>#option([ns&#45;0]caravan_choice, [ns&#45;0]first_defence):#option([ns&#45;0]caravan_choice, [ns&#45;0]first_defence)&#45;&gt;[ns&#45;0]first_defence:[ns&#45;0]first_defence</title>
<path fill="none" stroke="black" stroke-dasharray="1,5" d="M211,-984.242C211,-975.063 211,-962.184 211,-949.897"/>
<polygon fill="black" stroke="black" points="214.5,-949.809 211,-939.809 207.5,-949.809 214.5,-949.809"/>
</g>
<!-- #jump([ns&#45;0]start, [ns&#45;0]first_moving)&#45;&gt;[ns&#45;0]first_moving -->
<g id="edge13" class="edge"><title>#jump([ns&#45;0]start, [ns&#45;0]first_moving):#jump([ns&#45;0]start, [ns&#45;0]first_moving)&#45;&gt;[ns&#45;0]first_moving:[ns&#45;0]first_moving</title>
<path fill="none" stroke="black" d="M287,-1222.96C287,-1214.2 287,-1197.38 287,-1182.31"/>
<polygon fill="black" stroke="black" points="290.5,-1182.28 287,-1172.28 283.5,-1182.28 290.5,-1182.28"/>
</g>
<!-- #jump([ns&#45;0]fight, [ns&#45;0]hide)&#45;&gt;[ns&#45;0]hide -->
<g id="edge16" class="edge"><title>#jump([ns&#45;0]fight, [ns&#45;0]hide):#jump([ns&#45;0]fight, [ns&#45;0]hide)&#45;&gt;[ns&#45;0]hide:[ns&#45;0]hide</title>
<path fill="none" stroke="black" d="M367,-248.959C367,-240.257 367,-223.504 367,-207.752"/>
<polygon fill="black" stroke="black" points="370.5,-207.639 367,-197.639 363.5,-207.639 370.5,-207.639"/>
</g>
<!-- #jump([ns&#45;0]attack, [ns&#45;0]run)&#45;&gt;[ns&#45;0]run -->
<g id="edge20" class="edge"><title>#jump([ns&#45;0]attack, [ns&#45;0]run):#jump([ns&#45;0]attack, [ns&#45;0]run)&#45;&gt;[ns&#45;0]run:[ns&#45;0]run</title>
<path fill="none" stroke="black" d="M367,-533.806C367,-520.837 367,-490.075 367,-466.485"/>
<polygon fill="black" stroke="black" points="370.5,-466.241 367,-456.241 363.5,-466.241 370.5,-466.241"/>
</g>
<!-- #options_link(#option([ns&#45;0]caravan_choice, [ns&#45;0]first_defence),#option([ns&#45;0]first_defence, [ns&#45;0]second_moving)) -->
<g id="node21" class="node"><title>#options_link(#option([ns&#45;0]caravan_choice, [ns&#45;0]first_defence),#option([ns&#45;0]first_defence, [ns&#45;0]second_moving))</title>
<ellipse fill="#ffaaaa" stroke="black" cx="133" cy="-1071" rx="12" ry="12"/>
<text text-anchor="middle" x="133" y="-1068.5" font-family="Times,serif" font-size="10.00">link</text>
</g>
<!-- #options_link(#option([ns&#45;0]caravan_choice, [ns&#45;0]first_defence),#option([ns&#45;0]first_defence, [ns&#45;0]second_moving))&#45;&gt;#option([ns&#45;0]first_defence, [ns&#45;0]second_moving) -->
<g id="edge22" class="edge"><title>#options_link(#option([ns&#45;0]caravan_choice, [ns&#45;0]first_defence),#option([ns&#45;0]first_defence, [ns&#45;0]second_moving))&#45;&gt;#option([ns&#45;0]first_defence, [ns&#45;0]second_moving):#option([ns&#45;0]first_defence, [ns&#45;0]second_moving)</title>
<path fill="none" stroke="#ffaaaa" d="M132.225,-1058.93C129.426,-1018.91 119.842,-881.917 116.88,-839.573"/>
</g>
<!-- #options_link(#option([ns&#45;0]caravan_choice, [ns&#45;0]first_defence),#option([ns&#45;0]first_defence, [ns&#45;0]second_moving))&#45;&gt;#option([ns&#45;0]caravan_choice, [ns&#45;0]first_defence) -->
<g id="edge21" class="edge"><title>#options_link(#option([ns&#45;0]caravan_choice, [ns&#45;0]first_defence),#option([ns&#45;0]first_defence, [ns&#45;0]second_moving))&#45;&gt;#option([ns&#45;0]caravan_choice, [ns&#45;0]first_defence):#option([ns&#45;0]caravan_choice, [ns&#45;0]first_defence)</title>
<path fill="none" stroke="#ffaaaa" d="M141.645,-1062.13C155.052,-1049.93 180.983,-1026.32 197.059,-1011.69"/>
</g>
</g>
</svg>
