<?xml version="1.0" encoding="UTF-8" standalone="no"?>
<!DOCTYPE svg PUBLIC "-//W3C//DTD SVG 1.1//EN"
 "http://www.w3.org/Graphics/SVG/1.1/DTD/svg11.dtd">
<!-- Generated by graphviz version 2.34.0 (20130907.0221)
 -->
<!-- Title: quest Pages: 1 -->
<svg width="525pt" height="1356pt"
 viewBox="0.00 0.00 525.00 1356.00" xmlns="http://www.w3.org/2000/svg" xmlns:xlink="http://www.w3.org/1999/xlink">
<g id="graph0" class="graph" transform="scale(1 1) rotate(0) translate(4 1352)">
<title>quest</title>
<polygon fill="white" stroke="white" points="-4,4 -4,-1352 521,-1352 521,4 -4,4"/>
<!-- [ns&#45;0]finish_defence -->
<g id="node1" class="node"><title>[ns&#45;0]finish_defence</title>
<polygon fill="#eeeeee" stroke="none" points="19.5,-500.5 19.5,-581.5 212.5,-581.5 212.5,-500.5 19.5,-500.5"/>
<text text-anchor="start" x="22" y="-571.5" font-family="Times,serif" font-style="italic" font-size="10.00">[ns&#45;0]finish_defence</text>
<text text-anchor="start" x="144.5" y="-571.5" font-family="Times,serif" font-weight="bold" font-size="10.00">successed</text>
<text text-anchor="start" x="22" y="-557" font-family="Times,serif" font-size="10.00">Караван приходит в точку назначения</text>
<polygon fill="#dddddd" stroke="none" points="21,-540 21,-553 212,-553 212,-540 21,-540"/>
<text text-anchor="start" x="22" y="-545" font-family="Times,serif" font-size="10.00">hero </text>
<text text-anchor="start" x="43" y="-545" font-family="Times,serif" font-weight="bold" font-size="10.00">находится в</text>
<text text-anchor="start" x="98" y="-545" font-family="Times,serif" font-size="10.00"> place_4</text>
<polygon fill="#ffffff" stroke="none" points="21,-527 21,-540 212,-540 212,-527 21,-527"/>
<text text-anchor="start" x="22" y="-532" font-family="Times,serif" font-weight="bold" font-size="10.00">выдать награду </text>
<text text-anchor="start" x="97" y="-532" font-family="Times,serif" font-size="10.00">  hero </text>
<text text-anchor="start" x="122" y="-532" font-family="Times,serif" font-weight="bold" font-size="10.00">типа </text>
<text text-anchor="start" x="146" y="-532" font-family="Times,serif" font-size="10.00"> finish_defence</text>
<polygon fill="#ffffff" stroke="none" points="21,-514 21,-527 212,-527 212,-514 21,-514"/>
<text text-anchor="start" x="22" y="-519" font-family="Times,serif" font-weight="bold" font-size="10.00">увеличить влияние </text>
<text text-anchor="start" x="110" y="-519" font-family="Times,serif" font-size="10.00">  person_1 </text>
<text text-anchor="start" x="155" y="-519" font-family="Times,serif" font-weight="bold" font-size="10.00">на </text>
<text text-anchor="start" x="168" y="-519" font-family="Times,serif" font-size="10.00"> 1.00</text>
<polygon fill="#ffffff" stroke="none" points="21,-501 21,-514 212,-514 212,-501 21,-501"/>
<text text-anchor="start" x="22" y="-506" font-family="Times,serif" font-weight="bold" font-size="10.00">увеличить влияние </text>
<text text-anchor="start" x="110" y="-506" font-family="Times,serif" font-size="10.00">  person_4 </text>
<text text-anchor="start" x="155" y="-506" font-family="Times,serif" font-weight="bold" font-size="10.00">на </text>
<text text-anchor="start" x="168" y="-506" font-family="Times,serif" font-size="10.00"> 1.00</text>
<polygon fill="none" stroke="black" points="19.5,-500.5 19.5,-581.5 212.5,-581.5 212.5,-500.5 19.5,-500.5"/>
</g>
<!-- [ns&#45;0]start -->
<g id="node2" class="node"><title>[ns&#45;0]start</title>
<polygon fill="#eeeeee" stroke="none" points="313.5,-1288.5 313.5,-1343.5 430.5,-1343.5 430.5,-1288.5 313.5,-1288.5"/>
<text text-anchor="start" x="316" y="-1333.5" font-family="Times,serif" font-style="italic" font-size="10.00">[ns&#45;0]start</text>
<text text-anchor="start" x="383.5" y="-1333.5" font-family="Times,serif" font-weight="bold" font-size="10.00">caravan</text>
<text text-anchor="start" x="316" y="-1319" font-family="Times,serif" font-size="10.00">Начало: караван</text>
<polygon fill="#dddddd" stroke="none" points="315,-1302 315,-1315 430,-1315 430,-1302 315,-1302"/>
<text text-anchor="start" x="316" y="-1307" font-family="Times,serif" font-size="10.00">hero </text>
<text text-anchor="start" x="337" y="-1307" font-family="Times,serif" font-weight="bold" font-size="10.00">находится в</text>
<text text-anchor="start" x="392" y="-1307" font-family="Times,serif" font-size="10.00"> place_1</text>
<polygon fill="#ffffff" stroke="none" points="315,-1289 315,-1302 430,-1302 430,-1289 315,-1289"/>
<text text-anchor="start" x="316" y="-1294" font-family="Times,serif" font-weight="bold" font-size="10.00">сообщение:</text>
<text text-anchor="start" x="368" y="-1294" font-family="Times,serif" font-size="10.00"> intro</text>
<polygon fill="none" stroke="black" points="313.5,-1288.5 313.5,-1343.5 430.5,-1343.5 430.5,-1288.5 313.5,-1288.5"/>
</g>
<!-- #jump([ns&#45;0]start, [ns&#45;0]first_moving) -->
<g id="node18" class="node"><title>#jump([ns&#45;0]start, [ns&#45;0]first_moving)</title>
<polygon fill="#eeeeee" stroke="none" points="317,-1223 317,-1237 427,-1237 427,-1223 317,-1223"/>
<text text-anchor="start" x="318" y="-1228.5" font-family="Times,serif" font-weight="bold" font-size="10.00">сообщение:</text>
<text text-anchor="start" x="370" y="-1228.5" font-family="Times,serif" font-size="10.00"> first_moving</text>
</g>
<!-- [ns&#45;0]start&#45;&gt;#jump([ns&#45;0]start, [ns&#45;0]first_moving) -->
<g id="edge12" class="edge"><title>[ns&#45;0]start:[ns&#45;0]start&#45;&gt;#jump([ns&#45;0]start, [ns&#45;0]first_moving):#jump([ns&#45;0]start, [ns&#45;0]first_moving)</title>
<path fill="none" stroke="black" d="M372,-1288.42C372,-1270.35 372,-1247.85 372,-1237.18"/>
</g>
<!-- [ns&#45;0]attack -->
<g id="node3" class="node"><title>[ns&#45;0]attack</title>
<polygon fill="#ddffdd" stroke="none" points="344.5,-626.5 344.5,-681.5 441.5,-681.5 441.5,-626.5 344.5,-626.5"/>
<text text-anchor="start" x="347" y="-671.5" font-family="Times,serif" font-style="italic" font-size="10.00">[ns&#45;0]attack</text>
<text text-anchor="start" x="347" y="-657" font-family="Times,serif" font-size="10.00">нападение</text>
<polygon fill="#eeffee" stroke="none" points="346,-640 346,-653 441,-653 441,-640 346,-640"/>
<text text-anchor="start" x="347" y="-645" font-family="Times,serif" font-weight="bold" font-size="10.00">сообщение:</text>
<text text-anchor="start" x="399" y="-645" font-family="Times,serif" font-size="10.00"> attack</text>
<polygon fill="#eeffee" stroke="none" points="346,-627 346,-640 441,-640 441,-627 346,-627"/>
<text text-anchor="start" x="347" y="-632" font-family="Times,serif" font-weight="bold" font-size="10.00">сразиться с</text>
<text text-anchor="start" x="399" y="-632" font-family="Times,serif" font-size="10.00">  None</text>
<polygon fill="none" stroke="black" points="344.5,-626.5 344.5,-681.5 441.5,-681.5 441.5,-626.5 344.5,-626.5"/>
</g>
<!-- #jump([ns&#45;0]attack, [ns&#45;0]run) -->
<g id="node20" class="node"><title>#jump([ns&#45;0]attack, [ns&#45;0]run)</title>
<polygon fill="#eeeeee" stroke="none" points="346,-534 346,-548 440,-548 440,-534 346,-534"/>
<text text-anchor="start" x="347" y="-539.5" font-family="Times,serif" font-weight="bold" font-size="10.00">сообщение:</text>
<text text-anchor="start" x="399" y="-539.5" font-family="Times,serif" font-size="10.00"> start_run</text>
</g>
<!-- [ns&#45;0]attack&#45;&gt;#jump([ns&#45;0]attack, [ns&#45;0]run) -->
<g id="edge19" class="edge"><title>[ns&#45;0]attack:[ns&#45;0]attack&#45;&gt;#jump([ns&#45;0]attack, [ns&#45;0]run):#jump([ns&#45;0]attack, [ns&#45;0]run)</title>
<path fill="none" stroke="black" d="M393,-626.413C393,-600.501 393,-562.924 393,-548.224"/>
</g>
<!-- [ns&#45;0]fight -->
<g id="node4" class="node"><title>[ns&#45;0]fight</title>
<polygon fill="#ddffdd" stroke="none" points="322.5,-314.5 322.5,-369.5 463.5,-369.5 463.5,-314.5 322.5,-314.5"/>
<text text-anchor="start" x="325" y="-359.5" font-family="Times,serif" font-style="italic" font-size="10.00">[ns&#45;0]fight</text>
<text text-anchor="start" x="325" y="-345" font-family="Times,serif" font-size="10.00">защита награбленного</text>
<polygon fill="#eeffee" stroke="none" points="324,-328 324,-341 463,-341 463,-328 324,-328"/>
<text text-anchor="start" x="325" y="-333" font-family="Times,serif" font-weight="bold" font-size="10.00">сообщение:</text>
<text text-anchor="start" x="377" y="-333" font-family="Times,serif" font-size="10.00"> fight</text>
<polygon fill="#eeffee" stroke="none" points="324,-315 324,-328 463,-328 463,-315 324,-315"/>
<text text-anchor="start" x="325" y="-320" font-family="Times,serif" font-weight="bold" font-size="10.00">сразиться с</text>
<text text-anchor="start" x="377" y="-320" font-family="Times,serif" font-size="10.00">  None</text>
<polygon fill="none" stroke="black" points="322.5,-314.5 322.5,-369.5 463.5,-369.5 463.5,-314.5 322.5,-314.5"/>
</g>
<!-- #jump([ns&#45;0]fight, [ns&#45;0]hide) -->
<g id="node19" class="node"><title>#jump([ns&#45;0]fight, [ns&#45;0]hide)</title>
<polygon fill="#eeeeee" stroke="none" points="344,-249 344,-263 442,-263 442,-249 344,-249"/>
<text text-anchor="start" x="345" y="-254.5" font-family="Times,serif" font-weight="bold" font-size="10.00">сообщение:</text>
<text text-anchor="start" x="397" y="-254.5" font-family="Times,serif" font-size="10.00"> start_hide</text>
</g>
<!-- [ns&#45;0]fight&#45;&gt;#jump([ns&#45;0]fight, [ns&#45;0]hide) -->
<g id="edge15" class="edge"><title>[ns&#45;0]fight:[ns&#45;0]fight&#45;&gt;#jump([ns&#45;0]fight, [ns&#45;0]hide):#jump([ns&#45;0]fight, [ns&#45;0]hide)</title>
<path fill="none" stroke="black" d="M393,-314.422C393,-296.349 393,-273.853 393,-263.177"/>
</g>
<!-- [ns&#45;0]move_to_attack -->
<g id="node5" class="node"><title>[ns&#45;0]move_to_attack</title>
<polygon fill="#ddffdd" stroke="none" points="284.5,-726 284.5,-768 501.5,-768 501.5,-726 284.5,-726"/>
<text text-anchor="start" x="287" y="-758.5" font-family="Times,serif" font-style="italic" font-size="10.00">[ns&#45;0]move_to_attack</text>
<text text-anchor="start" x="287" y="-744" font-family="Times,serif" font-size="10.00">ведём караван в засаду</text>
<polygon fill="#eeffee" stroke="none" points="286,-727 286,-740 501,-740 501,-727 286,-727"/>
<text text-anchor="start" x="287" y="-732" font-family="Times,serif" font-size="10.00">hero </text>
<text text-anchor="start" x="308" y="-732" font-family="Times,serif" font-weight="bold" font-size="10.00">отправить в </text>
<text text-anchor="start" x="366" y="-732" font-family="Times,serif" font-size="10.00"> place_4 </text>
<text text-anchor="start" x="403" y="-732" font-family="Times,serif" font-weight="bold" font-size="10.00">и пройти </text>
<text text-anchor="start" x="445" y="-732" font-family="Times,serif" font-size="10.00"> 50.0%</text>
<text text-anchor="start" x="474" y="-732" font-family="Times,serif" font-weight="bold" font-size="10.00"> пути</text>
<polygon fill="none" stroke="black" points="284.5,-726 284.5,-768 501.5,-768 501.5,-726 284.5,-726"/>
</g>
<!-- [ns&#45;0]move_to_attack&#45;&gt;[ns&#45;0]attack -->
<g id="edge17" class="edge"><title>[ns&#45;0]move_to_attack:[ns&#45;0]move_to_attack&#45;&gt;[ns&#45;0]attack:[ns&#45;0]attack</title>
<path fill="none" stroke="black" d="M393,-725.804C393,-715.862 393,-703.556 393,-692.007"/>
<polygon fill="black" stroke="black" points="396.5,-691.703 393,-681.703 389.5,-691.703 396.5,-691.703"/>
</g>
<!-- [ns&#45;0]run -->
<g id="node6" class="node"><title>[ns&#45;0]run</title>
<polygon fill="#ddffdd" stroke="none" points="276.5,-414 276.5,-456 509.5,-456 509.5,-414 276.5,-414"/>
<text text-anchor="start" x="279" y="-446.5" font-family="Times,serif" font-style="italic" font-size="10.00">[ns&#45;0]run</text>
<text text-anchor="start" x="279" y="-432" font-family="Times,serif" font-size="10.00">скрываемся с места преступления</text>
<polygon fill="#eeffee" stroke="none" points="278,-415 278,-428 509,-428 509,-415 278,-415"/>
<text text-anchor="start" x="279" y="-420" font-family="Times,serif" font-weight="bold" font-size="10.00">отправить </text>
<text text-anchor="start" x="329" y="-420" font-family="Times,serif" font-size="10.00"> hero</text>
<text text-anchor="start" x="350" y="-420" font-family="Times,serif" font-weight="bold" font-size="10.00">бродить около</text>
<text text-anchor="start" x="416" y="-420" font-family="Times,serif" font-size="10.00"> None</text>
<polygon fill="none" stroke="black" points="276.5,-414 276.5,-456 509.5,-456 509.5,-414 276.5,-414"/>
</g>
<!-- [ns&#45;0]run&#45;&gt;[ns&#45;0]fight -->
<g id="edge8" class="edge"><title>[ns&#45;0]run:[ns&#45;0]run&#45;&gt;[ns&#45;0]fight:[ns&#45;0]fight</title>
<path fill="none" stroke="black" d="M393,-413.804C393,-403.862 393,-391.556 393,-380.007"/>
<polygon fill="black" stroke="black" points="396.5,-379.703 393,-369.703 389.5,-379.703 396.5,-379.703"/>
</g>
<!-- [ns&#45;0]caravan_choice -->
<g id="node7" class="node"><title>[ns&#45;0]caravan_choice</title>
<polygon fill="#ddddff" stroke="none" points="300,-1056.5 300,-1085.5 444,-1085.5 444,-1056.5 300,-1056.5"/>
<text text-anchor="start" x="302" y="-1075.5" font-family="Times,serif" font-style="italic" font-size="10.00">[ns&#45;0]caravan_choice</text>
<text text-anchor="start" x="302" y="-1061" font-family="Times,serif" font-size="10.00">Решение: защитить или ограбить</text>
<polygon fill="none" stroke="black" points="300,-1056.5 300,-1085.5 444,-1085.5 444,-1056.5 300,-1056.5"/>
</g>
<!-- #option([ns&#45;0]caravan_choice, [ns&#45;0]move_to_attack) -->
<g id="node14" class="node"><title>#option([ns&#45;0]caravan_choice, [ns&#45;0]move_to_attack)</title>
<polygon fill="#ffffff" stroke="none" points="362,-825 362,-839 478,-839 478,-825 362,-825"/>
<text text-anchor="start" x="363" y="-829.5" font-family="Times,serif" font-size="10.00">jump_attack</text>
<polygon fill="#eeeeee" stroke="none" points="362,-812 362,-825 478,-825 478,-812 362,-812"/>
<text text-anchor="start" x="363" y="-817" font-family="Times,serif" font-weight="bold" font-size="10.00">сообщение:</text>
<text text-anchor="start" x="415" y="-817" font-family="Times,serif" font-size="10.00"> choose_attack</text>
</g>
<!-- [ns&#45;0]caravan_choice&#45;&gt;#option([ns&#45;0]caravan_choice, [ns&#45;0]move_to_attack) -->
<g id="edge1" class="edge"><title>[ns&#45;0]caravan_choice:[ns&#45;0]caravan_choice&#45;&gt;#option([ns&#45;0]caravan_choice, [ns&#45;0]move_to_attack):#option([ns&#45;0]caravan_choice, [ns&#45;0]move_to_attack)</title>
<path fill="none" stroke="black" stroke-dasharray="1,5" d="M374.708,-1056.39C379.305,-1033.29 388.92,-984.913 397,-944 404.5,-906.022 413.316,-861.098 417.523,-839.64"/>
</g>
<!-- #option([ns&#45;0]caravan_choice, [ns&#45;0]first_defence) -->
<g id="node17" class="node"><title>#option([ns&#45;0]caravan_choice, [ns&#45;0]first_defence)</title>
<polygon fill="#ffffff" stroke="none" points="209,-997 209,-1011 332,-1011 332,-997 209,-997"/>
<text text-anchor="start" x="210" y="-1001.5" font-family="Times,serif" font-size="10.00">jump_defence</text>
<polygon fill="#eeeeee" stroke="none" points="209,-984 209,-997 332,-997 332,-984 209,-984"/>
<text text-anchor="start" x="210" y="-989" font-family="Times,serif" font-weight="bold" font-size="10.00">сообщение:</text>
<text text-anchor="start" x="262" y="-989" font-family="Times,serif" font-size="10.00"> choose_defence</text>
</g>
<!-- [ns&#45;0]caravan_choice&#45;&gt;#option([ns&#45;0]caravan_choice, [ns&#45;0]first_defence) -->
<g id="edge10" class="edge"><title>[ns&#45;0]caravan_choice:[ns&#45;0]caravan_choice&#45;&gt;#option([ns&#45;0]caravan_choice, [ns&#45;0]first_defence):#option([ns&#45;0]caravan_choice, [ns&#45;0]first_defence)</title>
<path fill="none" stroke="black" stroke-dasharray="1,5" d="M352.333,-1056.31C333.808,-1043.42 306.278,-1024.25 288.236,-1011.69"/>
</g>
<!-- [ns&#45;0]finish_attack -->
<g id="node8" class="node"><title>[ns&#45;0]finish_attack</title>
<polygon fill="#eeeeee" stroke="none" points="300.5,-4 300.5,-98 485.5,-98 485.5,-4 300.5,-4"/>
<text text-anchor="start" x="303" y="-88.5" font-family="Times,serif" font-style="italic" font-size="10.00">[ns&#45;0]finish_attack</text>
<text text-anchor="start" x="427" y="-88.5" font-family="Times,serif" font-weight="bold" font-size="10.00">failed</text>
<text text-anchor="start" x="303" y="-74" font-family="Times,serif" font-size="10.00">Продать товар на чёрном рынке</text>
<polygon fill="#dddddd" stroke="none" points="302,-57 302,-70 485,-70 485,-57 302,-57"/>
<text text-anchor="start" x="303" y="-62" font-family="Times,serif" font-size="10.00">hero </text>
<text text-anchor="start" x="324" y="-62" font-family="Times,serif" font-weight="bold" font-size="10.00">находится в</text>
<text text-anchor="start" x="379" y="-62" font-family="Times,serif" font-size="10.00"> place_3</text>
<polygon fill="#ffffff" stroke="none" points="302,-44 302,-57 485,-57 485,-44 302,-44"/>
<text text-anchor="start" x="303" y="-49" font-family="Times,serif" font-weight="bold" font-size="10.00">выдать награду </text>
<text text-anchor="start" x="378" y="-49" font-family="Times,serif" font-size="10.00">  hero </text>
<text text-anchor="start" x="403" y="-49" font-family="Times,serif" font-weight="bold" font-size="10.00">типа </text>
<text text-anchor="start" x="427" y="-49" font-family="Times,serif" font-size="10.00"> finish_attack</text>
<polygon fill="#ffffff" stroke="none" points="302,-31 302,-44 485,-44 485,-31 302,-31"/>
<text text-anchor="start" x="303" y="-36" font-family="Times,serif" font-weight="bold" font-size="10.00">увеличить влияние </text>
<text text-anchor="start" x="391" y="-36" font-family="Times,serif" font-size="10.00">  person_1 </text>
<text text-anchor="start" x="436" y="-36" font-family="Times,serif" font-weight="bold" font-size="10.00">на </text>
<text text-anchor="start" x="449" y="-36" font-family="Times,serif" font-size="10.00"> &#45;1.00</text>
<polygon fill="#ffffff" stroke="none" points="302,-18 302,-31 485,-31 485,-18 302,-18"/>
<text text-anchor="start" x="303" y="-23" font-family="Times,serif" font-weight="bold" font-size="10.00">увеличить влияние </text>
<text text-anchor="start" x="391" y="-23" font-family="Times,serif" font-size="10.00">  person_4 </text>
<text text-anchor="start" x="436" y="-23" font-family="Times,serif" font-weight="bold" font-size="10.00">на </text>
<text text-anchor="start" x="449" y="-23" font-family="Times,serif" font-size="10.00"> &#45;1.00</text>
<polygon fill="#ffffff" stroke="none" points="302,-5 302,-18 485,-18 485,-5 302,-5"/>
<text text-anchor="start" x="303" y="-10" font-family="Times,serif" font-weight="bold" font-size="10.00">увеличить влияние </text>
<text text-anchor="start" x="391" y="-10" font-family="Times,serif" font-size="10.00">  place_3 </text>
<text text-anchor="start" x="431" y="-10" font-family="Times,serif" font-weight="bold" font-size="10.00">на </text>
<text text-anchor="start" x="444" y="-10" font-family="Times,serif" font-size="10.00"> 1.00</text>
<polygon fill="none" stroke="black" points="300.5,-4 300.5,-98 485.5,-98 485.5,-4 300.5,-4"/>
</g>
<!-- [ns&#45;0]second_defence -->
<g id="node9" class="node"><title>[ns&#45;0]second_defence</title>
<polygon fill="#ddffdd" stroke="none" points="46,-626.5 46,-681.5 186,-681.5 186,-626.5 46,-626.5"/>
<text text-anchor="start" x="48" y="-671.5" font-family="Times,serif" font-style="italic" font-size="10.00">[ns&#45;0]second_defence</text>
<text text-anchor="start" x="48" y="-657" font-family="Times,serif" font-size="10.00">вторая защита</text>
<polygon fill="#eeffee" stroke="none" points="47,-640 47,-653 185,-653 185,-640 47,-640"/>
<text text-anchor="start" x="48" y="-645" font-family="Times,serif" font-weight="bold" font-size="10.00">сообщение:</text>
<text text-anchor="start" x="100" y="-645" font-family="Times,serif" font-size="10.00"> defence</text>
<polygon fill="#eeffee" stroke="none" points="47,-627 47,-640 185,-640 185,-627 47,-627"/>
<text text-anchor="start" x="48" y="-632" font-family="Times,serif" font-weight="bold" font-size="10.00">сразиться с</text>
<text text-anchor="start" x="100" y="-632" font-family="Times,serif" font-size="10.00">  None</text>
<polygon fill="none" stroke="black" points="46,-626.5 46,-681.5 186,-681.5 186,-626.5 46,-626.5"/>
</g>
<!-- [ns&#45;0]second_defence&#45;&gt;[ns&#45;0]finish_defence -->
<g id="edge9" class="edge"><title>[ns&#45;0]second_defence:[ns&#45;0]second_defence&#45;&gt;[ns&#45;0]finish_defence:[ns&#45;0]finish_defence</title>
<path fill="none" stroke="black" d="M116,-626.413C116,-616.095 116,-603.927 116,-592.09"/>
<polygon fill="black" stroke="black" points="119.5,-591.829 116,-581.829 112.5,-591.829 119.5,-591.829"/>
</g>
<!-- [ns&#45;0]first_moving -->
<g id="node10" class="node"><title>[ns&#45;0]first_moving</title>
<polygon fill="#ddffdd" stroke="none" points="263.5,-1130 263.5,-1172 480.5,-1172 480.5,-1130 263.5,-1130"/>
<text text-anchor="start" x="266" y="-1162.5" font-family="Times,serif" font-style="italic" font-size="10.00">[ns&#45;0]first_moving</text>
<text text-anchor="start" x="266" y="-1148" font-family="Times,serif" font-size="10.00">двигаемся с караваном</text>
<polygon fill="#eeffee" stroke="none" points="265,-1131 265,-1144 480,-1144 480,-1131 265,-1131"/>
<text text-anchor="start" x="266" y="-1136" font-family="Times,serif" font-size="10.00">hero </text>
<text text-anchor="start" x="287" y="-1136" font-family="Times,serif" font-weight="bold" font-size="10.00">отправить в </text>
<text text-anchor="start" x="345" y="-1136" font-family="Times,serif" font-size="10.00"> place_4 </text>
<text text-anchor="start" x="382" y="-1136" font-family="Times,serif" font-weight="bold" font-size="10.00">и пройти </text>
<text text-anchor="start" x="424" y="-1136" font-family="Times,serif" font-size="10.00"> 30.0%</text>
<text text-anchor="start" x="453" y="-1136" font-family="Times,serif" font-weight="bold" font-size="10.00"> пути</text>
<polygon fill="none" stroke="black" points="263.5,-1130 263.5,-1172 480.5,-1172 480.5,-1130 263.5,-1130"/>
</g>
<!-- [ns&#45;0]first_moving&#45;&gt;[ns&#45;0]caravan_choice -->
<g id="edge18" class="edge"><title>[ns&#45;0]first_moving:[ns&#45;0]first_moving&#45;&gt;[ns&#45;0]caravan_choice:[ns&#45;0]caravan_choice</title>
<path fill="none" stroke="black" d="M372,-1129.91C372,-1119.49 372,-1106.68 372,-1095.76"/>
<polygon fill="black" stroke="black" points="375.5,-1095.63 372,-1085.63 368.5,-1095.63 375.5,-1095.63"/>
</g>
<!-- [ns&#45;0]second_moving -->
<g id="node11" class="node"><title>[ns&#45;0]second_moving</title>
<polygon fill="#ddffdd" stroke="none" points="7.5,-726 7.5,-768 224.5,-768 224.5,-726 7.5,-726"/>
<text text-anchor="start" x="10" y="-758.5" font-family="Times,serif" font-style="italic" font-size="10.00">[ns&#45;0]second_moving</text>
<text text-anchor="start" x="10" y="-744" font-family="Times,serif" font-size="10.00">двигаемся с караваном</text>
<polygon fill="#eeffee" stroke="none" points="9,-727 9,-740 224,-740 224,-727 9,-727"/>
<text text-anchor="start" x="10" y="-732" font-family="Times,serif" font-size="10.00">hero </text>
<text text-anchor="start" x="31" y="-732" font-family="Times,serif" font-weight="bold" font-size="10.00">отправить в </text>
<text text-anchor="start" x="89" y="-732" font-family="Times,serif" font-size="10.00"> place_4 </text>
<text text-anchor="start" x="126" y="-732" font-family="Times,serif" font-weight="bold" font-size="10.00">и пройти </text>
<text text-anchor="start" x="168" y="-732" font-family="Times,serif" font-size="10.00"> 60.0%</text>
<text text-anchor="start" x="197" y="-732" font-family="Times,serif" font-weight="bold" font-size="10.00"> пути</text>
<polygon fill="none" stroke="black" points="7.5,-726 7.5,-768 224.5,-768 224.5,-726 7.5,-726"/>
</g>
<!-- [ns&#45;0]second_moving&#45;&gt;[ns&#45;0]second_defence -->
<g id="edge7" class="edge"><title>[ns&#45;0]second_moving:[ns&#45;0]second_moving&#45;&gt;[ns&#45;0]second_defence:[ns&#45;0]second_defence</title>
<path fill="none" stroke="black" d="M116,-725.804C116,-715.862 116,-703.556 116,-692.007"/>
<polygon fill="black" stroke="black" points="119.5,-691.703 116,-681.703 112.5,-691.703 119.5,-691.703"/>
</g>
<!-- [ns&#45;0]hide -->
<g id="node12" class="node"><title>[ns&#45;0]hide</title>
<polygon fill="#ddffdd" stroke="none" points="309.5,-142.5 309.5,-197.5 476.5,-197.5 476.5,-142.5 309.5,-142.5"/>
<text text-anchor="start" x="312" y="-187.5" font-family="Times,serif" font-style="italic" font-size="10.00">[ns&#45;0]hide</text>
<text text-anchor="start" x="312" y="-173" font-family="Times,serif" font-size="10.00">прячемся</text>
<polygon fill="#eeffee" stroke="none" points="311,-156 311,-169 476,-169 476,-156 311,-156"/>
<text text-anchor="start" x="312" y="-161" font-family="Times,serif" font-weight="bold" font-size="10.00">сообщение:</text>
<text text-anchor="start" x="364" y="-161" font-family="Times,serif" font-size="10.00"> hide</text>
<polygon fill="#eeffee" stroke="none" points="311,-143 311,-156 476,-156 476,-143 311,-143"/>
<text text-anchor="start" x="312" y="-148" font-family="Times,serif" font-weight="bold" font-size="10.00">отправить </text>
<text text-anchor="start" x="362" y="-148" font-family="Times,serif" font-size="10.00"> hero</text>
<text text-anchor="start" x="383" y="-148" font-family="Times,serif" font-weight="bold" font-size="10.00">бродить около</text>
<text text-anchor="start" x="449" y="-148" font-family="Times,serif" font-size="10.00"> None</text>
<polygon fill="none" stroke="black" points="309.5,-142.5 309.5,-197.5 476.5,-197.5 476.5,-142.5 309.5,-142.5"/>
</g>
<!-- [ns&#45;0]hide&#45;&gt;[ns&#45;0]finish_attack -->
<g id="edge14" class="edge"><title>[ns&#45;0]hide:[ns&#45;0]hide&#45;&gt;[ns&#45;0]finish_attack:[ns&#45;0]finish_attack</title>
<path fill="none" stroke="black" d="M393,-142.451C393,-132.334 393,-120.379 393,-108.532"/>
<polygon fill="black" stroke="black" points="396.5,-108.197 393,-98.1969 389.5,-108.197 396.5,-108.197"/>
</g>
<!-- [ns&#45;0]first_defence -->
<g id="node13" class="node"><title>[ns&#45;0]first_defence</title>
<polygon fill="#ddddff" stroke="none" points="206,-884.5 206,-939.5 334,-939.5 334,-884.5 206,-884.5"/>
<text text-anchor="start" x="208" y="-929.5" font-family="Times,serif" font-style="italic" font-size="10.00">[ns&#45;0]first_defence</text>
<text text-anchor="start" x="208" y="-915" font-family="Times,serif" font-size="10.00">первая защита</text>
<polygon fill="#eeeeff" stroke="none" points="207,-898 207,-911 333,-911 333,-898 207,-898"/>
<text text-anchor="start" x="208" y="-903" font-family="Times,serif" font-weight="bold" font-size="10.00">сообщение:</text>
<text text-anchor="start" x="260" y="-903" font-family="Times,serif" font-size="10.00"> defence</text>
<polygon fill="#eeeeff" stroke="none" points="207,-885 207,-898 333,-898 333,-885 207,-885"/>
<text text-anchor="start" x="208" y="-890" font-family="Times,serif" font-weight="bold" font-size="10.00">сразиться с</text>
<text text-anchor="start" x="260" y="-890" font-family="Times,serif" font-size="10.00">  None</text>
<polygon fill="none" stroke="black" points="206,-884.5 206,-939.5 334,-939.5 334,-884.5 206,-884.5"/>
</g>
<!-- #option([ns&#45;0]first_defence, [ns&#45;0]move_to_attack) -->
<g id="node15" class="node"><title>#option([ns&#45;0]first_defence, [ns&#45;0]move_to_attack)</title>
<polygon fill="#ffffff" stroke="none" points="212,-825 212,-839 328,-839 328,-825 212,-825"/>
<text text-anchor="start" x="213" y="-829.5" font-family="Times,serif" font-size="10.00">jump_attack</text>
<polygon fill="#eeeeee" stroke="none" points="212,-812 212,-825 328,-825 328,-812 212,-812"/>
<text text-anchor="start" x="213" y="-817" font-family="Times,serif" font-weight="bold" font-size="10.00">сообщение:</text>
<text text-anchor="start" x="265" y="-817" font-family="Times,serif" font-size="10.00"> choose_attack</text>
</g>
<!-- [ns&#45;0]first_defence&#45;&gt;#option([ns&#45;0]first_defence, [ns&#45;0]move_to_attack) -->
<g id="edge3" class="edge"><title>[ns&#45;0]first_defence:[ns&#45;0]first_defence&#45;&gt;#option([ns&#45;0]first_defence, [ns&#45;0]move_to_attack):#option([ns&#45;0]first_defence, [ns&#45;0]move_to_attack)</title>
<path fill="none" stroke="black" stroke-dasharray="1,5" d="M270,-884.422C270,-869.426 270,-851.383 270,-839.576"/>
</g>
<!-- #option([ns&#45;0]first_defence, [ns&#45;0]second_moving) -->
<g id="node16" class="node"><title>#option([ns&#45;0]first_defence, [ns&#45;0]second_moving)</title>
<polygon fill="#ffffff" stroke="none" points="55,-825 55,-839 178,-839 178,-825 55,-825"/>
<text text-anchor="start" x="56" y="-829.5" font-family="Times,serif" font-size="10.00">jump_defence</text>
<polygon fill="#eeeeee" stroke="none" points="55,-812 55,-825 178,-825 178,-812 55,-812"/>
<text text-anchor="start" x="56" y="-817" font-family="Times,serif" font-weight="bold" font-size="10.00">сообщение:</text>
<text text-anchor="start" x="108" y="-817" font-family="Times,serif" font-size="10.00"> choose_defence</text>
</g>
<!-- [ns&#45;0]first_defence&#45;&gt;#option([ns&#45;0]first_defence, [ns&#45;0]second_moving) -->
<g id="edge5" class="edge"><title>[ns&#45;0]first_defence:[ns&#45;0]first_defence&#45;&gt;#option([ns&#45;0]first_defence, [ns&#45;0]second_moving):#option([ns&#45;0]first_defence, [ns&#45;0]second_moving)</title>
<path fill="none" stroke="black" stroke-dasharray="1,5" d="M221.273,-884.422C193.78,-869.426 160.702,-851.383 139.055,-839.576"/>
</g>
<!-- #option([ns&#45;0]caravan_choice, [ns&#45;0]move_to_attack)&#45;&gt;[ns&#45;0]move_to_attack -->
<g id="edge2" class="edge"><title>#option([ns&#45;0]caravan_choice, [ns&#45;0]move_to_attack):#option([ns&#45;0]caravan_choice, [ns&#45;0]move_to_attack)&#45;&gt;[ns&#45;0]move_to_attack:[ns&#45;0]move_to_attack</title>
<path fill="none" stroke="black" stroke-dasharray="1,5" d="M415.541,-812.285C412.265,-802.941 407.674,-789.847 403.489,-777.913"/>
<polygon fill="black" stroke="black" points="406.719,-776.547 400.107,-768.269 400.113,-778.863 406.719,-776.547"/>
</g>
<!-- #option([ns&#45;0]first_defence, [ns&#45;0]move_to_attack)&#45;&gt;[ns&#45;0]move_to_attack -->
<g id="edge4" class="edge"><title>#option([ns&#45;0]first_defence, [ns&#45;0]move_to_attack):#option([ns&#45;0]first_defence, [ns&#45;0]move_to_attack)&#45;&gt;[ns&#45;0]move_to_attack:[ns&#45;0]move_to_attack</title>
<path fill="none" stroke="black" stroke-dasharray="1,5" d="M290.036,-812.457C306.833,-801.942 331.354,-786.591 352.253,-773.508"/>
<polygon fill="black" stroke="black" points="354.336,-776.333 360.955,-768.06 350.622,-770.4 354.336,-776.333"/>
</g>
<!-- #option([ns&#45;0]first_defence, [ns&#45;0]second_moving)&#45;&gt;[ns&#45;0]second_moving -->
<g id="edge6" class="edge"><title>#option([ns&#45;0]first_defence, [ns&#45;0]second_moving):#option([ns&#45;0]first_defence, [ns&#45;0]second_moving)&#45;&gt;[ns&#45;0]second_moving:[ns&#45;0]second_moving</title>
<path fill="none" stroke="black" stroke-dasharray="1,5" d="M116,-812.285C116,-803.035 116,-790.108 116,-778.271"/>
<polygon fill="black" stroke="black" points="119.5,-778.269 116,-768.269 112.5,-778.269 119.5,-778.269"/>
</g>
<!-- #option([ns&#45;0]caravan_choice, [ns&#45;0]first_defence)&#45;&gt;[ns&#45;0]first_defence -->
<g id="edge11" class="edge"><title>#option([ns&#45;0]caravan_choice, [ns&#45;0]first_defence):#option([ns&#45;0]caravan_choice, [ns&#45;0]first_defence)&#45;&gt;[ns&#45;0]first_defence:[ns&#45;0]first_defence</title>
<path fill="none" stroke="black" stroke-dasharray="1,5" d="M270,-984.242C270,-975.063 270,-962.184 270,-949.897"/>
<polygon fill="black" stroke="black" points="273.5,-949.809 270,-939.809 266.5,-949.809 273.5,-949.809"/>
</g>
<!-- #jump([ns&#45;0]start, [ns&#45;0]first_moving)&#45;&gt;[ns&#45;0]first_moving -->
<g id="edge13" class="edge"><title>#jump([ns&#45;0]start, [ns&#45;0]first_moving):#jump([ns&#45;0]start, [ns&#45;0]first_moving)&#45;&gt;[ns&#45;0]first_moving:[ns&#45;0]first_moving</title>
<path fill="none" stroke="black" d="M372,-1222.96C372,-1214.2 372,-1197.38 372,-1182.31"/>
<polygon fill="black" stroke="black" points="375.5,-1182.28 372,-1172.28 368.5,-1182.28 375.5,-1182.28"/>
</g>
<!-- #jump([ns&#45;0]fight, [ns&#45;0]hide)&#45;&gt;[ns&#45;0]hide -->
<g id="edge16" class="edge"><title>#jump([ns&#45;0]fight, [ns&#45;0]hide):#jump([ns&#45;0]fight, [ns&#45;0]hide)&#45;&gt;[ns&#45;0]hide:[ns&#45;0]hide</title>
<path fill="none" stroke="black" d="M393,-248.959C393,-240.257 393,-223.504 393,-207.752"/>
<polygon fill="black" stroke="black" points="396.5,-207.639 393,-197.639 389.5,-207.639 396.5,-207.639"/>
</g>
<!-- #jump([ns&#45;0]attack, [ns&#45;0]run)&#45;&gt;[ns&#45;0]run -->
<g id="edge20" class="edge"><title>#jump([ns&#45;0]attack, [ns&#45;0]run):#jump([ns&#45;0]attack, [ns&#45;0]run)&#45;&gt;[ns&#45;0]run:[ns&#45;0]run</title>
<path fill="none" stroke="black" d="M393,-533.806C393,-520.837 393,-490.075 393,-466.485"/>
<polygon fill="black" stroke="black" points="396.5,-466.241 393,-456.241 389.5,-466.241 396.5,-466.241"/>
</g>
<!-- #options_link(#option([ns&#45;0]caravan_choice, [ns&#45;0]first_defence),#option([ns&#45;0]first_defence, [ns&#45;0]second_moving)) -->
<g id="node21" class="node"><title>#options_link(#option([ns&#45;0]caravan_choice, [ns&#45;0]first_defence),#option([ns&#45;0]first_defence, [ns&#45;0]second_moving))</title>
<ellipse fill="#ffaaaa" stroke="black" cx="217" cy="-1071" rx="12" ry="12"/>
<text text-anchor="middle" x="217" y="-1068.5" font-family="Times,serif" font-size="10.00">link</text>
</g>
<!-- #options_link(#option([ns&#45;0]caravan_choice, [ns&#45;0]first_defence),#option([ns&#45;0]first_defence, [ns&#45;0]second_moving))&#45;&gt;#option([ns&#45;0]first_defence, [ns&#45;0]second_moving) -->
<g id="edge22" class="edge"><title>#options_link(#option([ns&#45;0]caravan_choice, [ns&#45;0]first_defence),#option([ns&#45;0]first_defence, [ns&#45;0]second_moving))&#45;&gt;#option([ns&#45;0]first_defence, [ns&#45;0]second_moving):#option([ns&#45;0]first_defence, [ns&#45;0]second_moving)</title>
<path fill="none" stroke="#ffaaaa" d="M211.796,-1059.75C206.383,-1048.96 197.769,-1031.44 191,-1016 162.222,-950.37 131.924,-869.982 120.612,-839.509"/>
</g>
<!-- #options_link(#option([ns&#45;0]caravan_choice, [ns&#45;0]first_defence),#option([ns&#45;0]first_defence, [ns&#45;0]second_moving))&#45;&gt;#option([ns&#45;0]caravan_choice, [ns&#45;0]first_defence) -->
<g id="edge21" class="edge"><title>#options_link(#option([ns&#45;0]caravan_choice, [ns&#45;0]first_defence),#option([ns&#45;0]first_defence, [ns&#45;0]second_moving))&#45;&gt;#option([ns&#45;0]caravan_choice, [ns&#45;0]first_defence):#option([ns&#45;0]caravan_choice, [ns&#45;0]first_defence)</title>
<path fill="none" stroke="#ffaaaa" d="M223.712,-1061.01C233.016,-1048.54 249.879,-1025.95 260.48,-1011.75"/>
</g>
<!-- #options_link(#option([ns&#45;0]caravan_choice, [ns&#45;0]move_to_attack),#option([ns&#45;0]first_defence, [ns&#45;0]move_to_attack)) -->
<g id="node22" class="node"><title>#options_link(#option([ns&#45;0]caravan_choice, [ns&#45;0]move_to_attack),#option([ns&#45;0]first_defence, [ns&#45;0]move_to_attack))</title>
<ellipse fill="#ffaaaa" stroke="black" cx="376" cy="-912" rx="12" ry="12"/>
<text text-anchor="middle" x="376" y="-909.5" font-family="Times,serif" font-size="10.00">link</text>
</g>
<!-- #options_link(#option([ns&#45;0]caravan_choice, [ns&#45;0]move_to_attack),#option([ns&#45;0]first_defence, [ns&#45;0]move_to_attack))&#45;&gt;#option([ns&#45;0]caravan_choice, [ns&#45;0]move_to_attack) -->
<g id="edge23" class="edge"><title>#options_link(#option([ns&#45;0]caravan_choice, [ns&#45;0]move_to_attack),#option([ns&#45;0]first_defence, [ns&#45;0]move_to_attack))&#45;&gt;#option([ns&#45;0]caravan_choice, [ns&#45;0]move_to_attack):#option([ns&#45;0]caravan_choice, [ns&#45;0]move_to_attack)</title>
<path fill="none" stroke="#ffaaaa" d="M381.22,-901.034C389.233,-885.737 404.558,-856.481 413.353,-839.689"/>
</g>
<!-- #options_link(#option([ns&#45;0]caravan_choice, [ns&#45;0]move_to_attack),#option([ns&#45;0]first_defence, [ns&#45;0]move_to_attack))&#45;&gt;#option([ns&#45;0]first_defence, [ns&#45;0]move_to_attack) -->
<g id="edge24" class="edge"><title>#options_link(#option([ns&#45;0]caravan_choice, [ns&#45;0]move_to_attack),#option([ns&#45;0]first_defence, [ns&#45;0]move_to_attack))&#45;&gt;#option([ns&#45;0]first_defence, [ns&#45;0]move_to_attack):#option([ns&#45;0]first_defence, [ns&#45;0]move_to_attack)</title>
<path fill="none" stroke="#ffaaaa" d="M369.673,-901.675C364.98,-895.159 358.176,-886.497 351,-880 333.31,-863.984 310.323,-849.429 293.358,-839.641"/>
</g>
</g>
</svg>
