<?xml version="1.0" encoding="UTF-8" standalone="no"?>
<!DOCTYPE svg PUBLIC "-//W3C//DTD SVG 1.1//EN"
 "http://www.w3.org/Graphics/SVG/1.1/DTD/svg11.dtd">
<!-- Generated by graphviz version 2.34.0 (20130907.0221)
 -->
<!-- Title: quest Pages: 1 -->
<svg width="701pt" height="1104pt"
 viewBox="0.00 0.00 701.00 1104.00" xmlns="http://www.w3.org/2000/svg" xmlns:xlink="http://www.w3.org/1999/xlink">
<g id="graph0" class="graph" transform="scale(1 1) rotate(0) translate(4 1100)">
<title>quest</title>
<polygon fill="white" stroke="white" points="-4,4 -4,-1100 697,-1100 697,4 -4,4"/>
<g id="clust1" class="cluster"><title>cluster_[ns&#45;0]help_subquest</title>
<polygon fill="#96ffff" stroke="black" points="28,-456 28,-682 404,-682 404,-456 28,-456"/>
<text text-anchor="middle" x="216" y="-666.8" font-family="Times,serif" font-size="14.00">cluster_[ns&#45;0]help_subquest</text>
</g>
<g id="clust2" class="cluster"><title>cluster_[ns&#45;1]event</title>
<polygon fill="#ffffdd" stroke="black" points="36,-464 36,-605 396,-605 396,-464 36,-464"/>
<text text-anchor="middle" x="216" y="-589.8" font-family="Times,serif" font-size="14.00">cluster_[ns&#45;1]event</text>
</g>
<!-- [ns&#45;1]start -->
<g id="node1" class="node"><title>[ns&#45;1]start</title>
<polygon fill="#eeeeee" stroke="none" points="249.5,-617.5 249.5,-646.5 382.5,-646.5 382.5,-617.5 249.5,-617.5"/>
<text text-anchor="start" x="252" y="-636.5" font-family="Times,serif" font-style="italic" font-size="10.00">[ns&#45;1]start</text>
<text text-anchor="start" x="335.5" y="-636.5" font-family="Times,serif" font-weight="bold" font-size="10.00">simple</text>
<text text-anchor="start" x="252" y="-622" font-family="Times,serif" font-size="10.00">Начало: самый простой квест</text>
<polygon fill="none" stroke="black" points="249.5,-617.5 249.5,-646.5 382.5,-646.5 382.5,-617.5 249.5,-617.5"/>
</g>
<!-- [ns&#45;1]finish_failed -->
<g id="node6" class="node"><title>[ns&#45;1]finish_failed</title>
<polygon fill="#eeeeee" stroke="none" points="242,-476 242,-570 380,-570 380,-476 242,-476"/>
<text text-anchor="start" x="244" y="-560.5" font-family="Times,serif" font-style="italic" font-size="10.00">[ns&#45;1]finish_failed</text>
<text text-anchor="start" x="244" y="-546" font-family="Times,serif" font-size="10.00">завершить задание плохо</text>
<polygon fill="#eeeeee" stroke="none" points="243,-529 243,-542 379,-542 379,-529 243,-529"/>
<text text-anchor="start" x="244" y="-534" font-family="Times,serif" font-weight="bold" font-size="10.00">результаты:</text>
<text text-anchor="start" x="244" y="-521" font-family="Times,serif" font-weight="bold" font-size="10.00">person_7</text>
<text text-anchor="start" x="325" y="-520" font-family="Times,serif" font-size="10.00">failed</text>
<text text-anchor="start" x="244" y="-508" font-family="Times,serif" font-weight="bold" font-size="10.00">person_8</text>
<text text-anchor="start" x="325" y="-507" font-family="Times,serif" font-size="10.00">failed</text>
<text text-anchor="start" x="244" y="-495" font-family="Times,serif" font-weight="bold" font-size="10.00">place_7</text>
<text text-anchor="start" x="325" y="-494" font-family="Times,serif" font-size="10.00">failed</text>
<text text-anchor="start" x="244" y="-482" font-family="Times,serif" font-weight="bold" font-size="10.00">place_8</text>
<text text-anchor="start" x="325" y="-481" font-family="Times,serif" font-size="10.00">failed</text>
<polygon fill="none" stroke="black" points="242,-476 242,-570 380,-570 380,-476 242,-476"/>
</g>
<!-- [ns&#45;1]start&#45;&gt;[ns&#45;1]finish_failed -->
<g id="edge14" class="edge"><title>[ns&#45;1]start:[ns&#45;1]start&#45;&gt;[ns&#45;1]finish_failed:[ns&#45;1]finish_failed</title>
<path fill="none" stroke="black" d="M315.367,-617.448C314.918,-607.855 314.284,-594.28 313.637,-580.442"/>
<polygon fill="black" stroke="black" points="317.13,-580.198 313.167,-570.373 310.138,-580.525 317.13,-580.198"/>
</g>
<!-- [ns&#45;1]finish_successed -->
<g id="node7" class="node"><title>[ns&#45;1]finish_successed</title>
<polygon fill="#eeeeee" stroke="none" points="52,-476 52,-570 208,-570 208,-476 52,-476"/>
<text text-anchor="start" x="54" y="-560.5" font-family="Times,serif" font-style="italic" font-size="10.00">[ns&#45;1]finish_successed</text>
<text text-anchor="start" x="54" y="-546" font-family="Times,serif" font-size="10.00">завершить задание удачно</text>
<polygon fill="#eeeeee" stroke="none" points="53,-529 53,-542 207,-542 207,-529 53,-529"/>
<text text-anchor="start" x="54" y="-534" font-family="Times,serif" font-weight="bold" font-size="10.00">результаты:</text>
<text text-anchor="start" x="54" y="-521" font-family="Times,serif" font-weight="bold" font-size="10.00">person_7</text>
<text text-anchor="start" x="151" y="-520" font-family="Times,serif" font-size="10.00">successed</text>
<text text-anchor="start" x="54" y="-508" font-family="Times,serif" font-weight="bold" font-size="10.00">person_8</text>
<text text-anchor="start" x="151" y="-507" font-family="Times,serif" font-size="10.00">successed</text>
<text text-anchor="start" x="54" y="-495" font-family="Times,serif" font-weight="bold" font-size="10.00">place_7</text>
<text text-anchor="start" x="151" y="-494" font-family="Times,serif" font-size="10.00">successed</text>
<text text-anchor="start" x="54" y="-482" font-family="Times,serif" font-weight="bold" font-size="10.00">place_8</text>
<text text-anchor="start" x="151" y="-481" font-family="Times,serif" font-size="10.00">successed</text>
<polygon fill="none" stroke="black" points="52,-476 52,-570 208,-570 208,-476 52,-476"/>
</g>
<!-- [ns&#45;1]start&#45;&gt;[ns&#45;1]finish_successed -->
<g id="edge15" class="edge"><title>[ns&#45;1]start:[ns&#45;1]start&#45;&gt;[ns&#45;1]finish_successed:[ns&#45;1]finish_successed</title>
<path fill="none" stroke="black" d="M254.858,-617.448C244.589,-614.078 234.268,-609.969 225,-605 210.763,-597.367 196.764,-587.312 184.07,-576.894"/>
<polygon fill="black" stroke="black" points="186.246,-574.15 176.345,-570.378 181.733,-579.501 186.246,-574.15"/>
</g>
<!-- [ns&#45;0]start -->
<g id="node2" class="node"><title>[ns&#45;0]start</title>
<polygon fill="#eeeeee" stroke="none" points="308.5,-1024 308.5,-1092 443.5,-1092 443.5,-1024 308.5,-1024"/>
<text text-anchor="start" x="311" y="-1082.5" font-family="Times,serif" font-style="italic" font-size="10.00">[ns&#45;0]start</text>
<text text-anchor="start" x="384" y="-1082.5" font-family="Times,serif" font-weight="bold" font-size="10.00">collect_debt</text>
<text text-anchor="start" x="311" y="-1068" font-family="Times,serif" font-size="10.00">Начало: выбить долг</text>
<polygon fill="#dddddd" stroke="none" points="310,-1051 310,-1064 443,-1064 443,-1051 310,-1051"/>
<text text-anchor="start" x="311" y="-1056" font-family="Times,serif" font-size="10.00">hero </text>
<text text-anchor="start" x="332" y="-1056" font-family="Times,serif" font-weight="bold" font-size="10.00">находится в</text>
<text text-anchor="start" x="387" y="-1056" font-family="Times,serif" font-size="10.00"> place_1</text>
<polygon fill="#dddddd" stroke="none" points="310,-1038 310,-1051 443,-1051 443,-1038 310,-1038"/>
<text text-anchor="start" x="311" y="-1043" font-family="Times,serif" font-size="10.00">person_8 </text>
<text text-anchor="start" x="351" y="-1043" font-family="Times,serif" font-weight="bold" font-size="10.00">находится в</text>
<text text-anchor="start" x="406" y="-1043" font-family="Times,serif" font-size="10.00"> place_8</text>
<polygon fill="#ffffff" stroke="none" points="310,-1025 310,-1038 443,-1038 443,-1025 310,-1025"/>
<text text-anchor="start" x="311" y="-1030" font-family="Times,serif" font-weight="bold" font-size="10.00">сообщение:</text>
<text text-anchor="start" x="363" y="-1030" font-family="Times,serif" font-size="10.00"> intro</text>
<polygon fill="none" stroke="black" points="308.5,-1024 308.5,-1092 443.5,-1092 443.5,-1024 308.5,-1024"/>
</g>
<!-- [ns&#45;0]choose_method -->
<g id="node5" class="node"><title>[ns&#45;0]choose_method</title>
<polygon fill="#ddddff" stroke="none" points="293,-924.5 293,-979.5 459,-979.5 459,-924.5 293,-924.5"/>
<text text-anchor="start" x="295" y="-969.5" font-family="Times,serif" font-style="italic" font-size="10.00">[ns&#45;0]choose_method</text>
<text text-anchor="start" x="295" y="-955" font-family="Times,serif" font-size="10.00">Выбрать метод получения долга</text>
<polygon fill="#ccccee" stroke="none" points="294,-938 294,-951 458,-951 458,-938 294,-938"/>
<text text-anchor="start" x="295" y="-943" font-family="Times,serif" font-size="10.00">hero </text>
<text text-anchor="start" x="316" y="-943" font-family="Times,serif" font-weight="bold" font-size="10.00">находится в</text>
<text text-anchor="start" x="371" y="-943" font-family="Times,serif" font-size="10.00"> place_8</text>
<polygon fill="#eeeeff" stroke="none" points="294,-925 294,-938 458,-938 458,-925 294,-925"/>
<text text-anchor="start" x="295" y="-930" font-family="Times,serif" font-weight="bold" font-size="10.00">сообщение:</text>
<text text-anchor="start" x="347" y="-930" font-family="Times,serif" font-size="10.00"> move_to_receiver</text>
<polygon fill="none" stroke="black" points="293,-924.5 293,-979.5 459,-979.5 459,-924.5 293,-924.5"/>
</g>
<!-- [ns&#45;0]start&#45;&gt;[ns&#45;0]choose_method -->
<g id="edge5" class="edge"><title>[ns&#45;0]start:[ns&#45;0]start&#45;&gt;[ns&#45;0]choose_method:[ns&#45;0]choose_method</title>
<path fill="none" stroke="black" d="M376,-1023.81C376,-1013 376,-1000.93 376,-989.867"/>
<polygon fill="black" stroke="black" points="379.5,-989.639 376,-979.639 372.5,-989.639 379.5,-989.639"/>
</g>
<!-- [ns&#45;0]attack -->
<g id="node3" class="node"><title>[ns&#45;0]attack</title>
<polygon fill="#ffdddd" stroke="none" points="315.5,-253 315.5,-347 468.5,-347 468.5,-253 315.5,-253"/>
<text text-anchor="start" x="318" y="-337.5" font-family="Times,serif" font-style="italic" font-size="10.00">[ns&#45;0]attack</text>
<text text-anchor="start" x="318" y="-323" font-family="Times,serif" font-size="10.00">сражение с подручными должника</text>
<polygon fill="#eecccc" stroke="none" points="317,-306 317,-319 468,-319 468,-306 317,-306"/>
<text text-anchor="start" x="318" y="-311" font-family="Times,serif" font-size="10.00">hero </text>
<text text-anchor="start" x="339" y="-311" font-family="Times,serif" font-weight="bold" font-size="10.00">находится в</text>
<text text-anchor="start" x="394" y="-311" font-family="Times,serif" font-size="10.00"> place_8</text>
<polygon fill="#ffeeee" stroke="none" points="317,-293 317,-306 468,-306 468,-293 317,-293"/>
<text text-anchor="start" x="318" y="-298" font-family="Times,serif" font-weight="bold" font-size="10.00">сообщение:</text>
<text text-anchor="start" x="370" y="-298" font-family="Times,serif" font-size="10.00"> attack</text>
<polygon fill="#ffeeee" stroke="none" points="317,-280 317,-293 468,-293 468,-280 317,-280"/>
<text text-anchor="start" x="318" y="-285" font-family="Times,serif" font-weight="bold" font-size="10.00">сразиться с наёмником</text>
<polygon fill="#ffdddd" stroke="none" points="317,-267 317,-280 468,-280 468,-267 317,-267"/>
<text text-anchor="start" x="318" y="-272" font-family="Times,serif" font-weight="bold" font-size="10.00">условия:</text>
<text text-anchor="start" x="318" y="-259" font-family="Times,serif" font-weight="bold" font-size="10.00">если </text>
<polygon fill="#ffdddd" stroke="none" points="393,-254 393,-267 468,-267 468,-254 393,-254"/>
<text text-anchor="start" x="394" y="-259" font-family="Times,serif" font-size="10.00">hero </text>
<text text-anchor="start" x="415" y="-259" font-family="Times,serif" font-weight="bold" font-size="10.00">жив</text>
<polygon fill="none" stroke="black" points="315.5,-253 315.5,-347 468.5,-347 468.5,-253 315.5,-253"/>
</g>
<!-- #answer_True([ns&#45;0]attack, [ns&#45;0]finish_attack_successed) -->
<g id="node15" class="node"><title>#answer_True([ns&#45;0]attack, [ns&#45;0]finish_attack_successed)</title>
<polygon fill="#ffffff" stroke="none" points="331,-175 331,-189 377,-189 377,-175 331,-175"/>
<text text-anchor="start" x="332" y="-179.5" font-family="Times,serif" font-size="10.00">ИСТИНА</text>
</g>
<!-- [ns&#45;0]attack&#45;&gt;#answer_True([ns&#45;0]attack, [ns&#45;0]finish_attack_successed) -->
<g id="edge10" class="edge"><title>[ns&#45;0]attack:[ns&#45;0]attack&#45;&gt;#answer_True([ns&#45;0]attack, [ns&#45;0]finish_attack_successed):#answer_True([ns&#45;0]attack, [ns&#45;0]finish_attack_successed)</title>
<path fill="none" stroke="black" d="M376.872,-252.82C368.924,-228.559 360.033,-201.416 356.084,-189.36"/>
</g>
<!-- #answer_False([ns&#45;0]attack, [ns&#45;0]finish_attack_failed) -->
<g id="node17" class="node"><title>#answer_False([ns&#45;0]attack, [ns&#45;0]finish_attack_failed)</title>
<polygon fill="#ffffff" stroke="none" points="517,-175 517,-189 550,-189 550,-175 517,-175"/>
<text text-anchor="start" x="518" y="-179.5" font-family="Times,serif" font-size="10.00">ЛОЖЬ</text>
</g>
<!-- [ns&#45;0]attack&#45;&gt;#answer_False([ns&#45;0]attack, [ns&#45;0]finish_attack_failed) -->
<g id="edge16" class="edge"><title>[ns&#45;0]attack:[ns&#45;0]attack&#45;&gt;#answer_False([ns&#45;0]attack, [ns&#45;0]finish_attack_failed):#answer_False([ns&#45;0]attack, [ns&#45;0]finish_attack_failed)</title>
<path fill="none" stroke="black" d="M448.132,-252.82C477.622,-228.559 510.615,-201.416 525.269,-189.36"/>
</g>
<!-- [ns&#45;0]finish_attack_successed -->
<g id="node4" class="node"><title>[ns&#45;0]finish_attack_successed</title>
<polygon fill="#eeeeee" stroke="none" points="153.5,-4 153.5,-124 450.5,-124 450.5,-4 153.5,-4"/>
<text text-anchor="start" x="156" y="-114.5" font-family="Times,serif" font-style="italic" font-size="10.00">[ns&#45;0]finish_attack_successed</text>
<text text-anchor="start" x="156" y="-100" font-family="Times,serif" font-size="10.00">долг выбит</text>
<polygon fill="#dddddd" stroke="none" points="155,-83 155,-96 450,-96 450,-83 155,-83"/>
<text text-anchor="start" x="156" y="-88" font-family="Times,serif" font-size="10.00">hero </text>
<text text-anchor="start" x="177" y="-88" font-family="Times,serif" font-weight="bold" font-size="10.00">находится в</text>
<text text-anchor="start" x="232" y="-88" font-family="Times,serif" font-size="10.00"> place_1</text>
<polygon fill="#ffffff" stroke="none" points="155,-70 155,-83 450,-83 450,-70 155,-70"/>
<text text-anchor="start" x="156" y="-75" font-family="Times,serif" font-weight="bold" font-size="10.00">выдать награду </text>
<text text-anchor="start" x="231" y="-75" font-family="Times,serif" font-size="10.00">  hero </text>
<text text-anchor="start" x="256" y="-75" font-family="Times,serif" font-weight="bold" font-size="10.00">типа </text>
<text text-anchor="start" x="280" y="-75" font-family="Times,serif" font-size="10.00"> finish_attack_successed </text>
<text text-anchor="start" x="383" y="-75" font-family="Times,serif" font-weight="bold" font-size="10.00">в размере</text>
<text text-anchor="start" x="426" y="-75" font-family="Times,serif" font-size="10.00"> 1.00</text>
<polygon fill="#ffffff" stroke="none" points="155,-57 155,-70 450,-70 450,-57 155,-57"/>
<text text-anchor="start" x="156" y="-62" font-family="Times,serif" font-weight="bold" font-size="10.00">увеличить влияние </text>
<text text-anchor="start" x="244" y="-62" font-family="Times,serif" font-size="10.00">  person_1 </text>
<text text-anchor="start" x="289" y="-62" font-family="Times,serif" font-weight="bold" font-size="10.00">на </text>
<text text-anchor="start" x="302" y="-62" font-family="Times,serif" font-size="10.00"> 1.00</text>
<polygon fill="#ffffff" stroke="none" points="155,-44 155,-57 450,-57 450,-44 155,-44"/>
<text text-anchor="start" x="156" y="-49" font-family="Times,serif" font-weight="bold" font-size="10.00">увеличить влияние </text>
<text text-anchor="start" x="244" y="-49" font-family="Times,serif" font-size="10.00">  person_8 </text>
<text text-anchor="start" x="289" y="-49" font-family="Times,serif" font-weight="bold" font-size="10.00">на </text>
<text text-anchor="start" x="302" y="-49" font-family="Times,serif" font-size="10.00"> &#45;1.00</text>
<polygon fill="#eeeeee" stroke="none" points="155,-31 155,-44 450,-44 450,-31 155,-31"/>
<text text-anchor="start" x="156" y="-36" font-family="Times,serif" font-weight="bold" font-size="10.00">результаты:</text>
<text text-anchor="start" x="156" y="-23" font-family="Times,serif" font-weight="bold" font-size="10.00">person_1</text>
<text text-anchor="start" x="304" y="-22" font-family="Times,serif" font-size="10.00">successed</text>
<text text-anchor="start" x="156" y="-10" font-family="Times,serif" font-weight="bold" font-size="10.00">person_8</text>
<text text-anchor="start" x="304" y="-9" font-family="Times,serif" font-size="10.00">failed</text>
<polygon fill="none" stroke="black" points="153.5,-4 153.5,-124 450.5,-124 450.5,-4 153.5,-4"/>
</g>
<!-- #option([ns&#45;0]choose_method, [ns&#45;0]help) -->
<g id="node13" class="node"><title>#option([ns&#45;0]choose_method, [ns&#45;0]help)</title>
<polygon fill="#ffffff" stroke="none" points="326,-859 326,-873 348,-873 348,-859 326,-859"/>
<text text-anchor="start" x="327" y="-863.5" font-family="Times,serif" font-size="10.00">help</text>
</g>
<!-- [ns&#45;0]choose_method&#45;&gt;#option([ns&#45;0]choose_method, [ns&#45;0]help) -->
<g id="edge6" class="edge"><title>[ns&#45;0]choose_method:[ns&#45;0]choose_method&#45;&gt;#option([ns&#45;0]choose_method, [ns&#45;0]help):#option([ns&#45;0]choose_method, [ns&#45;0]help)</title>
<path fill="none" stroke="black" stroke-dasharray="1,5" d="M363.66,-924.422C355.269,-906.349 344.825,-883.853 339.868,-873.177"/>
</g>
<!-- #option([ns&#45;0]choose_method, [ns&#45;0]attack) -->
<g id="node16" class="node"><title>#option([ns&#45;0]choose_method, [ns&#45;0]attack)</title>
<polygon fill="#ffffff" stroke="none" points="401,-859 401,-873 429,-873 429,-859 401,-859"/>
<text text-anchor="start" x="402" y="-863.5" font-family="Times,serif" font-size="10.00">attack</text>
</g>
<!-- [ns&#45;0]choose_method&#45;&gt;#option([ns&#45;0]choose_method, [ns&#45;0]attack) -->
<g id="edge12" class="edge"><title>[ns&#45;0]choose_method:[ns&#45;0]choose_method&#45;&gt;#option([ns&#45;0]choose_method, [ns&#45;0]attack):#option([ns&#45;0]choose_method, [ns&#45;0]attack)</title>
<path fill="none" stroke="black" stroke-dasharray="1,5" d="M388.34,-924.422C396.731,-906.349 407.175,-883.853 412.132,-873.177"/>
</g>
<!-- #jump([ns&#45;1]finish_failed, [ns&#45;0]attack) -->
<g id="node12" class="node"><title>#jump([ns&#45;1]finish_failed, [ns&#45;0]attack)</title>
<polygon fill="#eeeeee" stroke="none" points="252,-411 252,-425 380,-425 380,-411 252,-411"/>
<text text-anchor="start" x="253" y="-416.5" font-family="Times,serif" font-weight="bold" font-size="10.00">сообщение:</text>
<text text-anchor="start" x="305" y="-416.5" font-family="Times,serif" font-size="10.00"> after_failed_help</text>
</g>
<!-- [ns&#45;1]finish_failed&#45;&gt;#jump([ns&#45;1]finish_failed, [ns&#45;0]attack) -->
<g id="edge3" class="edge"><title>[ns&#45;1]finish_failed:[ns&#45;1]finish_failed&#45;&gt;#jump([ns&#45;1]finish_failed, [ns&#45;0]attack):#jump([ns&#45;1]finish_failed, [ns&#45;0]attack)</title>
<path fill="none" stroke="black" d="M313.237,-475.923C314.194,-456.211 315.202,-435.429 315.694,-425.298"/>
</g>
<!-- #jump([ns&#45;1]finish_successed, [ns&#45;0]finish_help) -->
<g id="node11" class="node"><title>#jump([ns&#45;1]finish_successed, [ns&#45;0]finish_help)</title>
<polygon fill="#eeeeee" stroke="none" points="58,-411 58,-425 202,-425 202,-411 58,-411"/>
<text text-anchor="start" x="59" y="-416.5" font-family="Times,serif" font-weight="bold" font-size="10.00">сообщение:</text>
<text text-anchor="start" x="111" y="-416.5" font-family="Times,serif" font-size="10.00"> after_successed_help</text>
</g>
<!-- [ns&#45;1]finish_successed&#45;&gt;#jump([ns&#45;1]finish_successed, [ns&#45;0]finish_help) -->
<g id="edge1" class="edge"><title>[ns&#45;1]finish_successed:[ns&#45;1]finish_successed&#45;&gt;#jump([ns&#45;1]finish_successed, [ns&#45;0]finish_help):#jump([ns&#45;1]finish_successed, [ns&#45;0]finish_help)</title>
<path fill="none" stroke="black" d="M130,-475.923C130,-456.211 130,-435.429 130,-425.298"/>
</g>
<!-- [ns&#45;0]finish_attack_failed -->
<g id="node8" class="node"><title>[ns&#45;0]finish_attack_failed</title>
<polygon fill="#eeeeee" stroke="none" points="485,-10.5 485,-117.5 685,-117.5 685,-10.5 485,-10.5"/>
<text text-anchor="start" x="487" y="-107.5" font-family="Times,serif" font-style="italic" font-size="10.00">[ns&#45;0]finish_attack_failed</text>
<text text-anchor="start" x="487" y="-93" font-family="Times,serif" font-size="10.00">не удалось выбить долг</text>
<polygon fill="#ffffff" stroke="none" points="486,-76 486,-89 684,-89 684,-76 486,-76"/>
<text text-anchor="start" x="487" y="-81" font-family="Times,serif" font-weight="bold" font-size="10.00">сообщение:</text>
<text text-anchor="start" x="539" y="-81" font-family="Times,serif" font-size="10.00"> finish_attack_failed</text>
<polygon fill="#ffffff" stroke="none" points="486,-63 486,-76 684,-76 684,-63 486,-63"/>
<text text-anchor="start" x="487" y="-68" font-family="Times,serif" font-weight="bold" font-size="10.00">увеличить влияние </text>
<text text-anchor="start" x="575" y="-68" font-family="Times,serif" font-size="10.00">  person_1 </text>
<text text-anchor="start" x="620" y="-68" font-family="Times,serif" font-weight="bold" font-size="10.00">на </text>
<text text-anchor="start" x="633" y="-68" font-family="Times,serif" font-size="10.00"> &#45;1.00</text>
<polygon fill="#ffffff" stroke="none" points="486,-50 486,-63 684,-63 684,-50 486,-50"/>
<text text-anchor="start" x="487" y="-55" font-family="Times,serif" font-weight="bold" font-size="10.00">увеличить влияние </text>
<text text-anchor="start" x="575" y="-55" font-family="Times,serif" font-size="10.00">  person_8 </text>
<text text-anchor="start" x="620" y="-55" font-family="Times,serif" font-weight="bold" font-size="10.00">на </text>
<text text-anchor="start" x="633" y="-55" font-family="Times,serif" font-size="10.00"> 1.00</text>
<polygon fill="#eeeeee" stroke="none" points="486,-37 486,-50 684,-50 684,-37 486,-37"/>
<text text-anchor="start" x="487" y="-42" font-family="Times,serif" font-weight="bold" font-size="10.00">результаты:</text>
<text text-anchor="start" x="487" y="-29" font-family="Times,serif" font-weight="bold" font-size="10.00">person_1</text>
<text text-anchor="start" x="599" y="-28" font-family="Times,serif" font-size="10.00">failed</text>
<text text-anchor="start" x="487" y="-16" font-family="Times,serif" font-weight="bold" font-size="10.00">person_8</text>
<text text-anchor="start" x="599" y="-15" font-family="Times,serif" font-size="10.00">successed</text>
<polygon fill="none" stroke="black" points="485,-10.5 485,-117.5 685,-117.5 685,-10.5 485,-10.5"/>
</g>
<!-- [ns&#45;0]help -->
<g id="node9" class="node"><title>[ns&#45;0]help</title>
<polygon fill="#ddffdd" stroke="none" points="265.5,-766 265.5,-808 382.5,-808 382.5,-766 265.5,-766"/>
<text text-anchor="start" x="268" y="-798.5" font-family="Times,serif" font-style="italic" font-size="10.00">[ns&#45;0]help</text>
<text text-anchor="start" x="268" y="-784" font-family="Times,serif" font-size="10.00">помочь должнику</text>
<polygon fill="#cceecc" stroke="none" points="267,-767 267,-780 382,-780 382,-767 267,-767"/>
<text text-anchor="start" x="268" y="-772" font-family="Times,serif" font-size="10.00">hero </text>
<text text-anchor="start" x="289" y="-772" font-family="Times,serif" font-weight="bold" font-size="10.00">находится в</text>
<text text-anchor="start" x="344" y="-772" font-family="Times,serif" font-size="10.00"> place_8</text>
<polygon fill="none" stroke="black" points="265.5,-766 265.5,-808 382.5,-808 382.5,-766 265.5,-766"/>
</g>
<!-- #jump([ns&#45;0]help, [ns&#45;1]start) -->
<g id="node14" class="node"><title>#jump([ns&#45;0]help, [ns&#45;1]start)</title>
<polygon fill="#eeeeee" stroke="none" points="266,-701 266,-715 373,-715 373,-701 266,-701"/>
<text text-anchor="start" x="267" y="-706.5" font-family="Times,serif" font-weight="bold" font-size="10.00">сообщение:</text>
<text text-anchor="start" x="319" y="-706.5" font-family="Times,serif" font-size="10.00"> before_help</text>
</g>
<!-- [ns&#45;0]help&#45;&gt;#jump([ns&#45;0]help, [ns&#45;1]start) -->
<g id="edge8" class="edge"><title>[ns&#45;0]help:[ns&#45;0]help&#45;&gt;#jump([ns&#45;0]help, [ns&#45;1]start):#jump([ns&#45;0]help, [ns&#45;1]start)</title>
<path fill="none" stroke="black" d="M322.686,-765.769C321.598,-749.015 320.12,-726.253 319.412,-715.342"/>
</g>
<!-- [ns&#45;0]finish_help -->
<g id="node10" class="node"><title>[ns&#45;0]finish_help</title>
<polygon fill="#eeeeee" stroke="none" points="7.5,-240 7.5,-360 252.5,-360 252.5,-240 7.5,-240"/>
<text text-anchor="start" x="10" y="-350.5" font-family="Times,serif" font-style="italic" font-size="10.00">[ns&#45;0]finish_help</text>
<text text-anchor="start" x="10" y="-336" font-family="Times,serif" font-size="10.00">помощь оказана</text>
<polygon fill="#dddddd" stroke="none" points="9,-319 9,-332 252,-332 252,-319 9,-319"/>
<text text-anchor="start" x="10" y="-324" font-family="Times,serif" font-size="10.00">hero </text>
<text text-anchor="start" x="31" y="-324" font-family="Times,serif" font-weight="bold" font-size="10.00">находится в</text>
<text text-anchor="start" x="86" y="-324" font-family="Times,serif" font-size="10.00"> place_1</text>
<polygon fill="#ffffff" stroke="none" points="9,-306 9,-319 252,-319 252,-306 9,-306"/>
<text text-anchor="start" x="10" y="-311" font-family="Times,serif" font-weight="bold" font-size="10.00">выдать награду </text>
<text text-anchor="start" x="85" y="-311" font-family="Times,serif" font-size="10.00">  hero </text>
<text text-anchor="start" x="110" y="-311" font-family="Times,serif" font-weight="bold" font-size="10.00">типа </text>
<text text-anchor="start" x="134" y="-311" font-family="Times,serif" font-size="10.00"> finish_help </text>
<text text-anchor="start" x="186" y="-311" font-family="Times,serif" font-weight="bold" font-size="10.00">в размере</text>
<text text-anchor="start" x="229" y="-311" font-family="Times,serif" font-size="10.00"> 1.00</text>
<polygon fill="#ffffff" stroke="none" points="9,-293 9,-306 252,-306 252,-293 9,-293"/>
<text text-anchor="start" x="10" y="-298" font-family="Times,serif" font-weight="bold" font-size="10.00">увеличить влияние </text>
<text text-anchor="start" x="98" y="-298" font-family="Times,serif" font-size="10.00">  person_1 </text>
<text text-anchor="start" x="143" y="-298" font-family="Times,serif" font-weight="bold" font-size="10.00">на </text>
<text text-anchor="start" x="156" y="-298" font-family="Times,serif" font-size="10.00"> 1.00</text>
<polygon fill="#ffffff" stroke="none" points="9,-280 9,-293 252,-293 252,-280 9,-280"/>
<text text-anchor="start" x="10" y="-285" font-family="Times,serif" font-weight="bold" font-size="10.00">увеличить влияние </text>
<text text-anchor="start" x="98" y="-285" font-family="Times,serif" font-size="10.00">  person_8 </text>
<text text-anchor="start" x="143" y="-285" font-family="Times,serif" font-weight="bold" font-size="10.00">на </text>
<text text-anchor="start" x="156" y="-285" font-family="Times,serif" font-size="10.00"> 1.00</text>
<polygon fill="#eeeeee" stroke="none" points="9,-267 9,-280 252,-280 252,-267 9,-267"/>
<text text-anchor="start" x="10" y="-272" font-family="Times,serif" font-weight="bold" font-size="10.00">результаты:</text>
<text text-anchor="start" x="10" y="-259" font-family="Times,serif" font-weight="bold" font-size="10.00">person_1</text>
<text text-anchor="start" x="132" y="-258" font-family="Times,serif" font-size="10.00">successed</text>
<text text-anchor="start" x="10" y="-246" font-family="Times,serif" font-weight="bold" font-size="10.00">person_8</text>
<text text-anchor="start" x="132" y="-245" font-family="Times,serif" font-size="10.00">successed</text>
<polygon fill="none" stroke="black" points="7.5,-240 7.5,-360 252.5,-360 252.5,-240 7.5,-240"/>
</g>
<!-- #jump([ns&#45;1]finish_successed, [ns&#45;0]finish_help)&#45;&gt;[ns&#45;0]finish_help -->
<g id="edge2" class="edge"><title>#jump([ns&#45;1]finish_successed, [ns&#45;0]finish_help):#jump([ns&#45;1]finish_successed, [ns&#45;0]finish_help)&#45;&gt;[ns&#45;0]finish_help:[ns&#45;0]finish_help</title>
<path fill="none" stroke="black" d="M130,-410.763C130,-402.579 130,-387.292 130,-370.67"/>
<polygon fill="black" stroke="black" points="133.5,-370.2 130,-360.2 126.5,-370.2 133.5,-370.2"/>
</g>
<!-- #jump([ns&#45;1]finish_failed, [ns&#45;0]attack)&#45;&gt;[ns&#45;0]attack -->
<g id="edge4" class="edge"><title>#jump([ns&#45;1]finish_failed, [ns&#45;0]attack):#jump([ns&#45;1]finish_failed, [ns&#45;0]attack)&#45;&gt;[ns&#45;0]attack:[ns&#45;0]attack</title>
<path fill="none" stroke="black" d="M320.086,-410.763C327.027,-400.169 341.767,-377.672 356.105,-355.787"/>
<polygon fill="black" stroke="black" points="359.222,-357.415 361.775,-347.133 353.367,-353.579 359.222,-357.415"/>
</g>
<!-- #option([ns&#45;0]choose_method, [ns&#45;0]help)&#45;&gt;[ns&#45;0]help -->
<g id="edge7" class="edge"><title>#option([ns&#45;0]choose_method, [ns&#45;0]help):#option([ns&#45;0]choose_method, [ns&#45;0]help)&#45;&gt;[ns&#45;0]help:[ns&#45;0]help</title>
<path fill="none" stroke="black" stroke-dasharray="1,5" d="M335.98,-858.958C334.501,-850.201 331.661,-833.379 329.118,-818.312"/>
<polygon fill="black" stroke="black" points="332.54,-817.559 327.424,-808.281 325.638,-818.724 332.54,-817.559"/>
</g>
<!-- #jump([ns&#45;0]help, [ns&#45;1]start)&#45;&gt;[ns&#45;1]start -->
<g id="edge9" class="edge"><title>#jump([ns&#45;0]help, [ns&#45;1]start):#jump([ns&#45;0]help, [ns&#45;1]start)&#45;&gt;[ns&#45;1]start:[ns&#45;1]start</title>
<path fill="none" stroke="black" d="M318.754,-700.944C318.366,-691.352 317.588,-672.159 316.957,-656.611"/>
<polygon fill="black" stroke="black" points="320.453,-656.443 316.551,-646.593 313.459,-656.727 320.453,-656.443"/>
</g>
<!-- #answer_True([ns&#45;0]attack, [ns&#45;0]finish_attack_successed)&#45;&gt;[ns&#45;0]finish_attack_successed -->
<g id="edge11" class="edge"><title>#answer_True([ns&#45;0]attack, [ns&#45;0]finish_attack_successed):#answer_True([ns&#45;0]attack, [ns&#45;0]finish_attack_successed)&#45;&gt;[ns&#45;0]finish_attack_successed:[ns&#45;0]finish_attack_successed</title>
<path fill="none" stroke="black" d="M351.204,-174.763C347.466,-166.425 340.423,-150.712 332.809,-133.728"/>
<polygon fill="black" stroke="black" points="335.822,-131.893 328.538,-124.2 329.435,-134.757 335.822,-131.893"/>
</g>
<!-- #option([ns&#45;0]choose_method, [ns&#45;0]attack)&#45;&gt;[ns&#45;0]attack -->
<g id="edge13" class="edge"><title>#option([ns&#45;0]choose_method, [ns&#45;0]attack):#option([ns&#45;0]choose_method, [ns&#45;0]attack)&#45;&gt;[ns&#45;0]attack:[ns&#45;0]attack</title>
<path fill="none" stroke="black" stroke-dasharray="1,5" d="M415.481,-858.763C417.063,-837.703 422,-767.288 422,-709 422,-709 422,-709 422,-522 422,-465.603 412.288,-401.84 403.916,-357.349"/>
<polygon fill="black" stroke="black" points="407.313,-356.476 401.99,-347.316 400.438,-357.797 407.313,-356.476"/>
</g>
<!-- #answer_False([ns&#45;0]attack, [ns&#45;0]finish_attack_failed)&#45;&gt;[ns&#45;0]finish_attack_failed -->
<g id="edge17" class="edge"><title>#answer_False([ns&#45;0]attack, [ns&#45;0]finish_attack_failed):#answer_False([ns&#45;0]attack, [ns&#45;0]finish_attack_failed)&#45;&gt;[ns&#45;0]finish_attack_failed:[ns&#45;0]finish_attack_failed</title>
<path fill="none" stroke="black" d="M535.796,-174.763C540.021,-165.338 548.469,-146.491 557.191,-127.036"/>
<polygon fill="black" stroke="black" points="560.443,-128.338 561.339,-117.781 554.055,-125.475 560.443,-128.338"/>
</g>
</g>
</svg>
