<?xml version="1.0" encoding="UTF-8" standalone="no"?>
<!DOCTYPE svg PUBLIC "-//W3C//DTD SVG 1.1//EN"
 "http://www.w3.org/Graphics/SVG/1.1/DTD/svg11.dtd">
<!-- Generated by graphviz version 2.34.0 (20130907.0221)
 -->
<!-- Title: quest Pages: 1 -->
<svg width="665pt" height="1104pt"
 viewBox="0.00 0.00 665.00 1104.00" xmlns="http://www.w3.org/2000/svg" xmlns:xlink="http://www.w3.org/1999/xlink">
<g id="graph0" class="graph" transform="scale(1 1) rotate(0) translate(4 1100)">
<title>quest</title>
<polygon fill="white" stroke="white" points="-4,4 -4,-1100 661,-1100 661,4 -4,4"/>
<g id="clust1" class="cluster"><title>cluster_[ns&#45;0]help_subquest</title>
<polygon fill="#96ffff" stroke="black" points="8,-456 8,-682 392,-682 392,-456 8,-456"/>
<text text-anchor="middle" x="200" y="-666.8" font-family="Times,serif" font-size="14.00">cluster_[ns&#45;0]help_subquest</text>
</g>
<g id="clust2" class="cluster"><title>cluster_[ns&#45;1]event</title>
<polygon fill="#ffffdd" stroke="black" points="16,-464 16,-605 384,-605 384,-464 16,-464"/>
<text text-anchor="middle" x="200" y="-589.8" font-family="Times,serif" font-size="14.00">cluster_[ns&#45;1]event</text>
</g>
<!-- [ns&#45;1]start -->
<g id="node1" class="node"><title>[ns&#45;1]start</title>
<polygon fill="#eeeeee" stroke="none" points="231.5,-617.5 231.5,-646.5 364.5,-646.5 364.5,-617.5 231.5,-617.5"/>
<text text-anchor="start" x="234" y="-636.5" font-family="Times,serif" font-style="italic" font-size="10.00">[ns&#45;1]start</text>
<text text-anchor="start" x="317.5" y="-636.5" font-family="Times,serif" font-weight="bold" font-size="10.00">simple</text>
<text text-anchor="start" x="234" y="-622" font-family="Times,serif" font-size="10.00">Начало: самый простой квест</text>
<polygon fill="none" stroke="black" points="231.5,-617.5 231.5,-646.5 364.5,-646.5 364.5,-617.5 231.5,-617.5"/>
</g>
<!-- [ns&#45;1]finish_failed -->
<g id="node6" class="node"><title>[ns&#45;1]finish_failed</title>
<polygon fill="#eeeeee" stroke="none" points="226,-476 226,-570 368,-570 368,-476 226,-476"/>
<text text-anchor="start" x="228" y="-560.5" font-family="Times,serif" font-style="italic" font-size="10.00">[ns&#45;1]finish_failed</text>
<text text-anchor="start" x="228" y="-546" font-family="Times,serif" font-size="10.00">завершить задание плохо</text>
<polygon fill="#eeeeee" stroke="none" points="227,-529 227,-542 367,-542 367,-529 227,-529"/>
<text text-anchor="start" x="228" y="-534" font-family="Times,serif" font-weight="bold" font-size="10.00">результаты:</text>
<text text-anchor="start" x="228" y="-521" font-family="Times,serif" font-weight="bold" font-size="10.00">person_10</text>
<text text-anchor="start" x="339" y="-520" font-family="Times,serif" font-size="10.00">failed</text>
<text text-anchor="start" x="228" y="-508" font-family="Times,serif" font-weight="bold" font-size="10.00">person_5</text>
<text text-anchor="start" x="339" y="-507" font-family="Times,serif" font-size="10.00">failed</text>
<text text-anchor="start" x="228" y="-495" font-family="Times,serif" font-weight="bold" font-size="10.00">place_10</text>
<text text-anchor="start" x="339" y="-494" font-family="Times,serif" font-size="10.00">failed</text>
<text text-anchor="start" x="228" y="-482" font-family="Times,serif" font-weight="bold" font-size="10.00">place_5</text>
<text text-anchor="start" x="339" y="-481" font-family="Times,serif" font-size="10.00">failed</text>
<polygon fill="none" stroke="black" points="226,-476 226,-570 368,-570 368,-476 226,-476"/>
</g>
<!-- [ns&#45;1]start&#45;&gt;[ns&#45;1]finish_failed -->
<g id="edge15" class="edge"><title>[ns&#45;1]start:[ns&#45;1]start&#45;&gt;[ns&#45;1]finish_failed:[ns&#45;1]finish_failed</title>
<path fill="none" stroke="black" d="M297.873,-617.448C297.784,-607.855 297.657,-594.28 297.527,-580.442"/>
<polygon fill="black" stroke="black" points="301.027,-580.339 297.433,-570.373 294.027,-580.405 301.027,-580.339"/>
</g>
<!-- [ns&#45;1]finish_successed -->
<g id="node7" class="node"><title>[ns&#45;1]finish_successed</title>
<polygon fill="#eeeeee" stroke="none" points="32.5,-476 32.5,-570 191.5,-570 191.5,-476 32.5,-476"/>
<text text-anchor="start" x="35" y="-560.5" font-family="Times,serif" font-style="italic" font-size="10.00">[ns&#45;1]finish_successed</text>
<text text-anchor="start" x="35" y="-546" font-family="Times,serif" font-size="10.00">завершить задание удачно</text>
<polygon fill="#eeeeee" stroke="none" points="34,-529 34,-542 191,-542 191,-529 34,-529"/>
<text text-anchor="start" x="35" y="-534" font-family="Times,serif" font-weight="bold" font-size="10.00">результаты:</text>
<text text-anchor="start" x="35" y="-521" font-family="Times,serif" font-weight="bold" font-size="10.00">person_10</text>
<text text-anchor="start" x="150" y="-520" font-family="Times,serif" font-size="10.00">successed</text>
<text text-anchor="start" x="35" y="-508" font-family="Times,serif" font-weight="bold" font-size="10.00">person_5</text>
<text text-anchor="start" x="150" y="-507" font-family="Times,serif" font-size="10.00">successed</text>
<text text-anchor="start" x="35" y="-495" font-family="Times,serif" font-weight="bold" font-size="10.00">place_10</text>
<text text-anchor="start" x="150" y="-494" font-family="Times,serif" font-size="10.00">successed</text>
<text text-anchor="start" x="35" y="-482" font-family="Times,serif" font-weight="bold" font-size="10.00">place_5</text>
<text text-anchor="start" x="150" y="-481" font-family="Times,serif" font-size="10.00">successed</text>
<polygon fill="none" stroke="black" points="32.5,-476 32.5,-570 191.5,-570 191.5,-476 32.5,-476"/>
</g>
<!-- [ns&#45;1]start&#45;&gt;[ns&#45;1]finish_successed -->
<g id="edge14" class="edge"><title>[ns&#45;1]start:[ns&#45;1]start&#45;&gt;[ns&#45;1]finish_successed:[ns&#45;1]finish_successed</title>
<path fill="none" stroke="black" d="M238.717,-617.401C228.514,-614.024 218.232,-609.924 209,-605 194.572,-597.305 180.323,-587.224 167.372,-576.8"/>
<polygon fill="black" stroke="black" points="169.424,-573.956 159.486,-570.283 164.965,-579.352 169.424,-573.956"/>
</g>
<!-- [ns&#45;0]start -->
<g id="node2" class="node"><title>[ns&#45;0]start</title>
<polygon fill="#eeeeee" stroke="none" points="286.5,-1024 286.5,-1092 433.5,-1092 433.5,-1024 286.5,-1024"/>
<text text-anchor="start" x="289" y="-1082.5" font-family="Times,serif" font-style="italic" font-size="10.00">[ns&#45;0]start</text>
<text text-anchor="start" x="371" y="-1082.5" font-family="Times,serif" font-weight="bold" font-size="10.00">collect_debt</text>
<text text-anchor="start" x="289" y="-1068" font-family="Times,serif" font-size="10.00">Начало: выбить долг</text>
<polygon fill="#dddddd" stroke="none" points="288,-1051 288,-1064 433,-1064 433,-1051 288,-1051"/>
<text text-anchor="start" x="289" y="-1056" font-family="Times,serif" font-size="10.00">hero </text>
<text text-anchor="start" x="310" y="-1056" font-family="Times,serif" font-weight="bold" font-size="10.00">находится в</text>
<text text-anchor="start" x="365" y="-1056" font-family="Times,serif" font-size="10.00"> place_1</text>
<polygon fill="#dddddd" stroke="none" points="288,-1038 288,-1051 433,-1051 433,-1038 288,-1038"/>
<text text-anchor="start" x="289" y="-1043" font-family="Times,serif" font-size="10.00">person_10 </text>
<text text-anchor="start" x="335" y="-1043" font-family="Times,serif" font-weight="bold" font-size="10.00">находится в</text>
<text text-anchor="start" x="390" y="-1043" font-family="Times,serif" font-size="10.00"> place_10</text>
<polygon fill="#ffffff" stroke="none" points="288,-1025 288,-1038 433,-1038 433,-1025 288,-1025"/>
<text text-anchor="start" x="289" y="-1030" font-family="Times,serif" font-weight="bold" font-size="10.00">сообщение:</text>
<text text-anchor="start" x="341" y="-1030" font-family="Times,serif" font-size="10.00"> intro</text>
<polygon fill="none" stroke="black" points="286.5,-1024 286.5,-1092 433.5,-1092 433.5,-1024 286.5,-1024"/>
</g>
<!-- [ns&#45;0]choose_method -->
<g id="node5" class="node"><title>[ns&#45;0]choose_method</title>
<polygon fill="#ddddff" stroke="none" points="255.5,-924.5 255.5,-979.5 464.5,-979.5 464.5,-924.5 255.5,-924.5"/>
<text text-anchor="start" x="258" y="-969.5" font-family="Times,serif" font-style="italic" font-size="10.00">[ns&#45;0]choose_method</text>
<text text-anchor="start" x="258" y="-955" font-family="Times,serif" font-size="10.00">Выбрать метод получения долга</text>
<polygon fill="#ccccee" stroke="none" points="257,-938 257,-951 464,-951 464,-938 257,-938"/>
<text text-anchor="start" x="258" y="-943" font-family="Times,serif" font-size="10.00">hero </text>
<text text-anchor="start" x="279" y="-943" font-family="Times,serif" font-weight="bold" font-size="10.00">находится в</text>
<text text-anchor="start" x="334" y="-943" font-family="Times,serif" font-size="10.00"> place_10</text>
<polygon fill="#eeeeff" stroke="none" points="257,-925 257,-938 464,-938 464,-925 257,-925"/>
<text text-anchor="start" x="258" y="-930" font-family="Times,serif" font-weight="bold" font-size="10.00">сообщение:</text>
<text text-anchor="start" x="310" y="-930" font-family="Times,serif" font-size="10.00"> move_to_receiver</text>
<polygon fill="none" stroke="black" points="255.5,-924.5 255.5,-979.5 464.5,-979.5 464.5,-924.5 255.5,-924.5"/>
</g>
<!-- [ns&#45;0]start&#45;&gt;[ns&#45;0]choose_method -->
<g id="edge5" class="edge"><title>[ns&#45;0]start:[ns&#45;0]start&#45;&gt;[ns&#45;0]choose_method:[ns&#45;0]choose_method</title>
<path fill="none" stroke="black" d="M360,-1023.81C360,-1013 360,-1000.93 360,-989.867"/>
<polygon fill="black" stroke="black" points="363.5,-989.639 360,-979.639 356.5,-989.639 363.5,-989.639"/>
</g>
<!-- [ns&#45;0]attack -->
<g id="node3" class="node"><title>[ns&#45;0]attack</title>
<polygon fill="#ffdddd" stroke="none" points="270,-253 270,-347 482,-347 482,-253 270,-253"/>
<text text-anchor="start" x="272" y="-337.5" font-family="Times,serif" font-style="italic" font-size="10.00">[ns&#45;0]attack</text>
<text text-anchor="start" x="272" y="-323" font-family="Times,serif" font-size="10.00">сражение с подручными должника</text>
<polygon fill="#eecccc" stroke="none" points="271,-306 271,-319 481,-319 481,-306 271,-306"/>
<text text-anchor="start" x="272" y="-311" font-family="Times,serif" font-size="10.00">hero </text>
<text text-anchor="start" x="293" y="-311" font-family="Times,serif" font-weight="bold" font-size="10.00">находится в</text>
<text text-anchor="start" x="348" y="-311" font-family="Times,serif" font-size="10.00"> place_10</text>
<polygon fill="#ffeeee" stroke="none" points="271,-293 271,-306 481,-306 481,-293 271,-293"/>
<text text-anchor="start" x="272" y="-298" font-family="Times,serif" font-weight="bold" font-size="10.00">сообщение:</text>
<text text-anchor="start" x="324" y="-298" font-family="Times,serif" font-size="10.00"> attack</text>
<polygon fill="#ffeeee" stroke="none" points="271,-280 271,-293 481,-293 481,-280 271,-280"/>
<text text-anchor="start" x="272" y="-285" font-family="Times,serif" font-weight="bold" font-size="10.00">сразиться с наёмником</text>
<polygon fill="#ffdddd" stroke="none" points="271,-267 271,-280 481,-280 481,-267 271,-267"/>
<text text-anchor="start" x="272" y="-272" font-family="Times,serif" font-weight="bold" font-size="10.00">условия:</text>
<text text-anchor="start" x="272" y="-259" font-family="Times,serif" font-weight="bold" font-size="10.00">если </text>
<polygon fill="#ffdddd" stroke="none" points="422,-254 422,-267 481,-267 481,-254 422,-254"/>
<text text-anchor="start" x="423" y="-259" font-family="Times,serif" font-size="10.00">hero </text>
<text text-anchor="start" x="444" y="-259" font-family="Times,serif" font-weight="bold" font-size="10.00">жив</text>
<polygon fill="none" stroke="black" points="270,-253 270,-347 482,-347 482,-253 270,-253"/>
</g>
<!-- #answer_True([ns&#45;0]attack, [ns&#45;0]finish_attack_successed) -->
<g id="node15" class="node"><title>#answer_True([ns&#45;0]attack, [ns&#45;0]finish_attack_successed)</title>
<polygon fill="#ffffff" stroke="none" points="315,-175 315,-189 361,-189 361,-175 315,-175"/>
<text text-anchor="start" x="316" y="-179.5" font-family="Times,serif" font-size="10.00">ИСТИНА</text>
</g>
<!-- [ns&#45;0]attack&#45;&gt;#answer_True([ns&#45;0]attack, [ns&#45;0]finish_attack_successed) -->
<g id="edge10" class="edge"><title>[ns&#45;0]attack:[ns&#45;0]attack&#45;&gt;#answer_True([ns&#45;0]attack, [ns&#45;0]finish_attack_successed):#answer_True([ns&#45;0]attack, [ns&#45;0]finish_attack_successed)</title>
<path fill="none" stroke="black" d="M360.872,-252.82C352.924,-228.559 344.033,-201.416 340.084,-189.36"/>
</g>
<!-- #answer_False([ns&#45;0]attack, [ns&#45;0]finish_attack_failed) -->
<g id="node17" class="node"><title>#answer_False([ns&#45;0]attack, [ns&#45;0]finish_attack_failed)</title>
<polygon fill="#ffffff" stroke="none" points="488,-175 488,-189 521,-189 521,-175 488,-175"/>
<text text-anchor="start" x="489" y="-179.5" font-family="Times,serif" font-size="10.00">ЛОЖЬ</text>
</g>
<!-- [ns&#45;0]attack&#45;&gt;#answer_False([ns&#45;0]attack, [ns&#45;0]finish_attack_failed) -->
<g id="edge16" class="edge"><title>[ns&#45;0]attack:[ns&#45;0]attack&#45;&gt;#answer_False([ns&#45;0]attack, [ns&#45;0]finish_attack_failed):#answer_False([ns&#45;0]attack, [ns&#45;0]finish_attack_failed)</title>
<path fill="none" stroke="black" d="M426.957,-252.82C453.728,-228.559 483.679,-201.416 496.982,-189.36"/>
</g>
<!-- [ns&#45;0]finish_attack_successed -->
<g id="node4" class="node"><title>[ns&#45;0]finish_attack_successed</title>
<polygon fill="#eeeeee" stroke="none" points="171.5,-4 171.5,-124 414.5,-124 414.5,-4 171.5,-4"/>
<text text-anchor="start" x="174" y="-114.5" font-family="Times,serif" font-style="italic" font-size="10.00">[ns&#45;0]finish_attack_successed</text>
<text text-anchor="start" x="174" y="-100" font-family="Times,serif" font-size="10.00">долг выбит</text>
<polygon fill="#dddddd" stroke="none" points="173,-83 173,-96 414,-96 414,-83 173,-83"/>
<text text-anchor="start" x="174" y="-88" font-family="Times,serif" font-size="10.00">hero </text>
<text text-anchor="start" x="195" y="-88" font-family="Times,serif" font-weight="bold" font-size="10.00">находится в</text>
<text text-anchor="start" x="250" y="-88" font-family="Times,serif" font-size="10.00"> place_1</text>
<polygon fill="#ffffff" stroke="none" points="173,-70 173,-83 414,-83 414,-70 173,-70"/>
<text text-anchor="start" x="174" y="-75" font-family="Times,serif" font-weight="bold" font-size="10.00">выдать награду </text>
<text text-anchor="start" x="249" y="-75" font-family="Times,serif" font-size="10.00">  hero </text>
<text text-anchor="start" x="274" y="-75" font-family="Times,serif" font-weight="bold" font-size="10.00">типа </text>
<text text-anchor="start" x="298" y="-75" font-family="Times,serif" font-size="10.00"> finish_attack_successed</text>
<polygon fill="#ffffff" stroke="none" points="173,-57 173,-70 414,-70 414,-57 173,-57"/>
<text text-anchor="start" x="174" y="-62" font-family="Times,serif" font-weight="bold" font-size="10.00">увеличить влияние </text>
<text text-anchor="start" x="262" y="-62" font-family="Times,serif" font-size="10.00">  person_1 </text>
<text text-anchor="start" x="307" y="-62" font-family="Times,serif" font-weight="bold" font-size="10.00">на </text>
<text text-anchor="start" x="320" y="-62" font-family="Times,serif" font-size="10.00"> 1.00</text>
<polygon fill="#ffffff" stroke="none" points="173,-44 173,-57 414,-57 414,-44 173,-44"/>
<text text-anchor="start" x="174" y="-49" font-family="Times,serif" font-weight="bold" font-size="10.00">увеличить влияние </text>
<text text-anchor="start" x="262" y="-49" font-family="Times,serif" font-size="10.00">  person_10 </text>
<text text-anchor="start" x="312" y="-49" font-family="Times,serif" font-weight="bold" font-size="10.00">на </text>
<text text-anchor="start" x="325" y="-49" font-family="Times,serif" font-size="10.00"> &#45;1.00</text>
<polygon fill="#eeeeee" stroke="none" points="173,-31 173,-44 414,-44 414,-31 173,-31"/>
<text text-anchor="start" x="174" y="-36" font-family="Times,serif" font-weight="bold" font-size="10.00">результаты:</text>
<text text-anchor="start" x="174" y="-23" font-family="Times,serif" font-weight="bold" font-size="10.00">person_1</text>
<text text-anchor="start" x="301" y="-22" font-family="Times,serif" font-size="10.00">successed</text>
<text text-anchor="start" x="174" y="-10" font-family="Times,serif" font-weight="bold" font-size="10.00">person_10</text>
<text text-anchor="start" x="301" y="-9" font-family="Times,serif" font-size="10.00">failed</text>
<polygon fill="none" stroke="black" points="171.5,-4 171.5,-124 414.5,-124 414.5,-4 171.5,-4"/>
</g>
<!-- #option([ns&#45;0]choose_method, [ns&#45;0]help) -->
<g id="node13" class="node"><title>#option([ns&#45;0]choose_method, [ns&#45;0]help)</title>
<polygon fill="#ffffff" stroke="none" points="309,-859 309,-873 331,-873 331,-859 309,-859"/>
<text text-anchor="start" x="310" y="-863.5" font-family="Times,serif" font-size="10.00">help</text>
</g>
<!-- [ns&#45;0]choose_method&#45;&gt;#option([ns&#45;0]choose_method, [ns&#45;0]help) -->
<g id="edge6" class="edge"><title>[ns&#45;0]choose_method:[ns&#45;0]choose_method&#45;&gt;#option([ns&#45;0]choose_method, [ns&#45;0]help):#option([ns&#45;0]choose_method, [ns&#45;0]help)</title>
<path fill="none" stroke="black" stroke-dasharray="1,5" d="M347.344,-924.422C338.738,-906.349 328.025,-883.853 322.941,-873.177"/>
</g>
<!-- #option([ns&#45;0]choose_method, [ns&#45;0]attack) -->
<g id="node16" class="node"><title>#option([ns&#45;0]choose_method, [ns&#45;0]attack)</title>
<polygon fill="#ffffff" stroke="none" points="387,-859 387,-873 415,-873 415,-859 387,-859"/>
<text text-anchor="start" x="388" y="-863.5" font-family="Times,serif" font-size="10.00">attack</text>
</g>
<!-- [ns&#45;0]choose_method&#45;&gt;#option([ns&#45;0]choose_method, [ns&#45;0]attack) -->
<g id="edge12" class="edge"><title>[ns&#45;0]choose_method:[ns&#45;0]choose_method&#45;&gt;#option([ns&#45;0]choose_method, [ns&#45;0]attack):#option([ns&#45;0]choose_method, [ns&#45;0]attack)</title>
<path fill="none" stroke="black" stroke-dasharray="1,5" d="M372.973,-924.422C381.794,-906.349 392.774,-883.853 397.985,-873.177"/>
</g>
<!-- #jump([ns&#45;1]finish_failed, [ns&#45;0]attack) -->
<g id="node12" class="node"><title>#jump([ns&#45;1]finish_failed, [ns&#45;0]attack)</title>
<polygon fill="#eeeeee" stroke="none" points="239,-411 239,-425 367,-425 367,-411 239,-411"/>
<text text-anchor="start" x="240" y="-416.5" font-family="Times,serif" font-weight="bold" font-size="10.00">сообщение:</text>
<text text-anchor="start" x="292" y="-416.5" font-family="Times,serif" font-size="10.00"> after_failed_help</text>
</g>
<!-- [ns&#45;1]finish_failed&#45;&gt;#jump([ns&#45;1]finish_failed, [ns&#45;0]attack) -->
<g id="edge3" class="edge"><title>[ns&#45;1]finish_failed:[ns&#45;1]finish_failed&#45;&gt;#jump([ns&#45;1]finish_failed, [ns&#45;0]attack):#jump([ns&#45;1]finish_failed, [ns&#45;0]attack)</title>
<path fill="none" stroke="black" d="M299.684,-475.923C300.832,-456.211 302.043,-435.429 302.633,-425.298"/>
</g>
<!-- #jump([ns&#45;1]finish_successed, [ns&#45;0]finish_help) -->
<g id="node11" class="node"><title>#jump([ns&#45;1]finish_successed, [ns&#45;0]finish_help)</title>
<polygon fill="#eeeeee" stroke="none" points="40,-411 40,-425 184,-425 184,-411 40,-411"/>
<text text-anchor="start" x="41" y="-416.5" font-family="Times,serif" font-weight="bold" font-size="10.00">сообщение:</text>
<text text-anchor="start" x="93" y="-416.5" font-family="Times,serif" font-size="10.00"> after_successed_help</text>
</g>
<!-- [ns&#45;1]finish_successed&#45;&gt;#jump([ns&#45;1]finish_successed, [ns&#45;0]finish_help) -->
<g id="edge1" class="edge"><title>[ns&#45;1]finish_successed:[ns&#45;1]finish_successed&#45;&gt;#jump([ns&#45;1]finish_successed, [ns&#45;0]finish_help):#jump([ns&#45;1]finish_successed, [ns&#45;0]finish_help)</title>
<path fill="none" stroke="black" d="M112,-475.923C112,-456.211 112,-435.429 112,-425.298"/>
</g>
<!-- [ns&#45;0]finish_attack_failed -->
<g id="node8" class="node"><title>[ns&#45;0]finish_attack_failed</title>
<polygon fill="#eeeeee" stroke="none" points="448.5,-4 448.5,-124 649.5,-124 649.5,-4 448.5,-4"/>
<text text-anchor="start" x="451" y="-114.5" font-family="Times,serif" font-style="italic" font-size="10.00">[ns&#45;0]finish_attack_failed</text>
<text text-anchor="start" x="451" y="-100" font-family="Times,serif" font-size="10.00">не удалось выбить долг</text>
<polygon fill="#dddddd" stroke="none" points="450,-83 450,-96 649,-96 649,-83 450,-83"/>
<text text-anchor="start" x="451" y="-88" font-family="Times,serif" font-size="10.00">hero </text>
<text text-anchor="start" x="472" y="-88" font-family="Times,serif" font-weight="bold" font-size="10.00">находится в</text>
<text text-anchor="start" x="527" y="-88" font-family="Times,serif" font-size="10.00"> place_1</text>
<polygon fill="#ffffff" stroke="none" points="450,-70 450,-83 649,-83 649,-70 450,-70"/>
<text text-anchor="start" x="451" y="-75" font-family="Times,serif" font-weight="bold" font-size="10.00">сообщение:</text>
<text text-anchor="start" x="503" y="-75" font-family="Times,serif" font-size="10.00"> finish_attack_failed</text>
<polygon fill="#ffffff" stroke="none" points="450,-57 450,-70 649,-70 649,-57 450,-57"/>
<text text-anchor="start" x="451" y="-62" font-family="Times,serif" font-weight="bold" font-size="10.00">увеличить влияние </text>
<text text-anchor="start" x="539" y="-62" font-family="Times,serif" font-size="10.00">  person_1 </text>
<text text-anchor="start" x="584" y="-62" font-family="Times,serif" font-weight="bold" font-size="10.00">на </text>
<text text-anchor="start" x="597" y="-62" font-family="Times,serif" font-size="10.00"> &#45;1.00</text>
<polygon fill="#ffffff" stroke="none" points="450,-44 450,-57 649,-57 649,-44 450,-44"/>
<text text-anchor="start" x="451" y="-49" font-family="Times,serif" font-weight="bold" font-size="10.00">увеличить влияние </text>
<text text-anchor="start" x="539" y="-49" font-family="Times,serif" font-size="10.00">  person_10 </text>
<text text-anchor="start" x="589" y="-49" font-family="Times,serif" font-weight="bold" font-size="10.00">на </text>
<text text-anchor="start" x="602" y="-49" font-family="Times,serif" font-size="10.00"> 1.00</text>
<polygon fill="#eeeeee" stroke="none" points="450,-31 450,-44 649,-44 649,-31 450,-31"/>
<text text-anchor="start" x="451" y="-36" font-family="Times,serif" font-weight="bold" font-size="10.00">результаты:</text>
<text text-anchor="start" x="451" y="-23" font-family="Times,serif" font-weight="bold" font-size="10.00">person_1</text>
<text text-anchor="start" x="563" y="-22" font-family="Times,serif" font-size="10.00">failed</text>
<text text-anchor="start" x="451" y="-10" font-family="Times,serif" font-weight="bold" font-size="10.00">person_10</text>
<text text-anchor="start" x="563" y="-9" font-family="Times,serif" font-size="10.00">successed</text>
<polygon fill="none" stroke="black" points="448.5,-4 448.5,-124 649.5,-124 649.5,-4 448.5,-4"/>
</g>
<!-- [ns&#45;0]help -->
<g id="node9" class="node"><title>[ns&#45;0]help</title>
<polygon fill="#ddffdd" stroke="none" points="231.5,-766 231.5,-808 372.5,-808 372.5,-766 231.5,-766"/>
<text text-anchor="start" x="234" y="-798.5" font-family="Times,serif" font-style="italic" font-size="10.00">[ns&#45;0]help</text>
<text text-anchor="start" x="234" y="-784" font-family="Times,serif" font-size="10.00">помочь должнику</text>
<polygon fill="#cceecc" stroke="none" points="233,-767 233,-780 372,-780 372,-767 233,-767"/>
<text text-anchor="start" x="234" y="-772" font-family="Times,serif" font-size="10.00">hero </text>
<text text-anchor="start" x="255" y="-772" font-family="Times,serif" font-weight="bold" font-size="10.00">находится в</text>
<text text-anchor="start" x="310" y="-772" font-family="Times,serif" font-size="10.00"> place_10</text>
<polygon fill="none" stroke="black" points="231.5,-766 231.5,-808 372.5,-808 372.5,-766 231.5,-766"/>
</g>
<!-- #jump([ns&#45;0]help, [ns&#45;1]start) -->
<g id="node14" class="node"><title>#jump([ns&#45;0]help, [ns&#45;1]start)</title>
<polygon fill="#eeeeee" stroke="none" points="248,-701 248,-715 355,-715 355,-701 248,-701"/>
<text text-anchor="start" x="249" y="-706.5" font-family="Times,serif" font-weight="bold" font-size="10.00">сообщение:</text>
<text text-anchor="start" x="301" y="-706.5" font-family="Times,serif" font-size="10.00"> before_help</text>
</g>
<!-- [ns&#45;0]help&#45;&gt;#jump([ns&#45;0]help, [ns&#45;1]start) -->
<g id="edge8" class="edge"><title>[ns&#45;0]help:[ns&#45;0]help&#45;&gt;#jump([ns&#45;0]help, [ns&#45;1]start):#jump([ns&#45;0]help, [ns&#45;1]start)</title>
<path fill="none" stroke="black" d="M301.737,-765.769C301.52,-749.015 301.224,-726.253 301.082,-715.342"/>
</g>
<!-- [ns&#45;0]finish_help -->
<g id="node10" class="node"><title>[ns&#45;0]finish_help</title>
<polygon fill="#eeeeee" stroke="none" points="22.5,-240 22.5,-360 201.5,-360 201.5,-240 22.5,-240"/>
<text text-anchor="start" x="25" y="-350.5" font-family="Times,serif" font-style="italic" font-size="10.00">[ns&#45;0]finish_help</text>
<text text-anchor="start" x="25" y="-336" font-family="Times,serif" font-size="10.00">помощь оказана</text>
<polygon fill="#dddddd" stroke="none" points="24,-319 24,-332 201,-332 201,-319 24,-319"/>
<text text-anchor="start" x="25" y="-324" font-family="Times,serif" font-size="10.00">hero </text>
<text text-anchor="start" x="46" y="-324" font-family="Times,serif" font-weight="bold" font-size="10.00">находится в</text>
<text text-anchor="start" x="101" y="-324" font-family="Times,serif" font-size="10.00"> place_1</text>
<polygon fill="#ffffff" stroke="none" points="24,-306 24,-319 201,-319 201,-306 24,-306"/>
<text text-anchor="start" x="25" y="-311" font-family="Times,serif" font-weight="bold" font-size="10.00">выдать награду </text>
<text text-anchor="start" x="100" y="-311" font-family="Times,serif" font-size="10.00">  hero </text>
<text text-anchor="start" x="125" y="-311" font-family="Times,serif" font-weight="bold" font-size="10.00">типа </text>
<text text-anchor="start" x="149" y="-311" font-family="Times,serif" font-size="10.00"> finish_help</text>
<polygon fill="#ffffff" stroke="none" points="24,-293 24,-306 201,-306 201,-293 24,-293"/>
<text text-anchor="start" x="25" y="-298" font-family="Times,serif" font-weight="bold" font-size="10.00">увеличить влияние </text>
<text text-anchor="start" x="113" y="-298" font-family="Times,serif" font-size="10.00">  person_1 </text>
<text text-anchor="start" x="158" y="-298" font-family="Times,serif" font-weight="bold" font-size="10.00">на </text>
<text text-anchor="start" x="171" y="-298" font-family="Times,serif" font-size="10.00"> 1.00</text>
<polygon fill="#ffffff" stroke="none" points="24,-280 24,-293 201,-293 201,-280 24,-280"/>
<text text-anchor="start" x="25" y="-285" font-family="Times,serif" font-weight="bold" font-size="10.00">увеличить влияние </text>
<text text-anchor="start" x="113" y="-285" font-family="Times,serif" font-size="10.00">  person_10 </text>
<text text-anchor="start" x="163" y="-285" font-family="Times,serif" font-weight="bold" font-size="10.00">на </text>
<text text-anchor="start" x="176" y="-285" font-family="Times,serif" font-size="10.00"> 1.00</text>
<polygon fill="#eeeeee" stroke="none" points="24,-267 24,-280 201,-280 201,-267 24,-267"/>
<text text-anchor="start" x="25" y="-272" font-family="Times,serif" font-weight="bold" font-size="10.00">результаты:</text>
<text text-anchor="start" x="25" y="-259" font-family="Times,serif" font-weight="bold" font-size="10.00">person_1</text>
<text text-anchor="start" x="114" y="-258" font-family="Times,serif" font-size="10.00">successed</text>
<text text-anchor="start" x="25" y="-246" font-family="Times,serif" font-weight="bold" font-size="10.00">person_10</text>
<text text-anchor="start" x="114" y="-245" font-family="Times,serif" font-size="10.00">successed</text>
<polygon fill="none" stroke="black" points="22.5,-240 22.5,-360 201.5,-360 201.5,-240 22.5,-240"/>
</g>
<!-- #jump([ns&#45;1]finish_successed, [ns&#45;0]finish_help)&#45;&gt;[ns&#45;0]finish_help -->
<g id="edge2" class="edge"><title>#jump([ns&#45;1]finish_successed, [ns&#45;0]finish_help):#jump([ns&#45;1]finish_successed, [ns&#45;0]finish_help)&#45;&gt;[ns&#45;0]finish_help:[ns&#45;0]finish_help</title>
<path fill="none" stroke="black" d="M112,-410.763C112,-402.579 112,-387.292 112,-370.67"/>
<polygon fill="black" stroke="black" points="115.5,-370.2 112,-360.2 108.5,-370.2 115.5,-370.2"/>
</g>
<!-- #jump([ns&#45;1]finish_failed, [ns&#45;0]attack)&#45;&gt;[ns&#45;0]attack -->
<g id="edge4" class="edge"><title>#jump([ns&#45;1]finish_failed, [ns&#45;0]attack):#jump([ns&#45;1]finish_failed, [ns&#45;0]attack)&#45;&gt;[ns&#45;0]attack:[ns&#45;0]attack</title>
<path fill="none" stroke="black" d="M306.925,-410.763C313.592,-400.169 327.75,-377.672 341.522,-355.787"/>
<polygon fill="black" stroke="black" points="344.604,-357.46 346.968,-347.133 338.68,-353.732 344.604,-357.46"/>
</g>
<!-- #option([ns&#45;0]choose_method, [ns&#45;0]help)&#45;&gt;[ns&#45;0]help -->
<g id="edge7" class="edge"><title>#option([ns&#45;0]choose_method, [ns&#45;0]help):#option([ns&#45;0]choose_method, [ns&#45;0]help)&#45;&gt;[ns&#45;0]help:[ns&#45;0]help</title>
<path fill="none" stroke="black" stroke-dasharray="1,5" d="M318.588,-858.958C316.54,-850.201 312.608,-833.379 309.086,-818.312"/>
<polygon fill="black" stroke="black" points="312.426,-817.222 306.741,-808.281 305.609,-818.815 312.426,-817.222"/>
</g>
<!-- #jump([ns&#45;0]help, [ns&#45;1]start)&#45;&gt;[ns&#45;1]start -->
<g id="edge9" class="edge"><title>#jump([ns&#45;0]help, [ns&#45;1]start):#jump([ns&#45;0]help, [ns&#45;1]start)&#45;&gt;[ns&#45;1]start:[ns&#45;1]start</title>
<path fill="none" stroke="black" d="M300.754,-700.944C300.366,-691.352 299.588,-672.159 298.957,-656.611"/>
<polygon fill="black" stroke="black" points="302.453,-656.443 298.551,-646.593 295.459,-656.727 302.453,-656.443"/>
</g>
<!-- #answer_True([ns&#45;0]attack, [ns&#45;0]finish_attack_successed)&#45;&gt;[ns&#45;0]finish_attack_successed -->
<g id="edge11" class="edge"><title>#answer_True([ns&#45;0]attack, [ns&#45;0]finish_attack_successed):#answer_True([ns&#45;0]attack, [ns&#45;0]finish_attack_successed)&#45;&gt;[ns&#45;0]finish_attack_successed:[ns&#45;0]finish_attack_successed</title>
<path fill="none" stroke="black" d="M335.581,-174.763C332.346,-166.425 326.25,-150.712 319.662,-133.728"/>
<polygon fill="black" stroke="black" points="322.845,-132.257 315.966,-124.2 316.319,-134.789 322.845,-132.257"/>
</g>
<!-- #option([ns&#45;0]choose_method, [ns&#45;0]attack)&#45;&gt;[ns&#45;0]attack -->
<g id="edge13" class="edge"><title>#option([ns&#45;0]choose_method, [ns&#45;0]attack):#option([ns&#45;0]choose_method, [ns&#45;0]attack)&#45;&gt;[ns&#45;0]attack:[ns&#45;0]attack</title>
<path fill="none" stroke="black" stroke-dasharray="1,5" d="M401.619,-858.766C403.652,-837.715 410,-767.326 410,-709 410,-709 410,-709 410,-522 410,-465.458 398.994,-401.715 389.505,-357.268"/>
<polygon fill="black" stroke="black" points="392.87,-356.272 387.322,-347.246 386.031,-357.762 392.87,-356.272"/>
</g>
<!-- #answer_False([ns&#45;0]attack, [ns&#45;0]finish_attack_failed)&#45;&gt;[ns&#45;0]finish_attack_failed -->
<g id="edge17" class="edge"><title>#answer_False([ns&#45;0]attack, [ns&#45;0]finish_attack_failed):#answer_False([ns&#45;0]attack, [ns&#45;0]finish_attack_failed)&#45;&gt;[ns&#45;0]finish_attack_failed:[ns&#45;0]finish_attack_failed</title>
<path fill="none" stroke="black" d="M506.419,-174.763C509.654,-166.425 515.75,-150.712 522.338,-133.728"/>
<polygon fill="black" stroke="black" points="525.681,-134.789 526.034,-124.2 519.155,-132.257 525.681,-134.789"/>
</g>
</g>
</svg>
