<?xml version="1.0" encoding="UTF-8" standalone="no"?>
<!DOCTYPE svg PUBLIC "-//W3C//DTD SVG 1.1//EN"
 "http://www.w3.org/Graphics/SVG/1.1/DTD/svg11.dtd">
<!-- Generated by graphviz version 2.34.0 (20130907.0221)
 -->
<!-- Title: quest Pages: 1 -->
<svg width="719pt" height="1104pt"
 viewBox="0.00 0.00 719.00 1104.00" xmlns="http://www.w3.org/2000/svg" xmlns:xlink="http://www.w3.org/1999/xlink">
<g id="graph0" class="graph" transform="scale(1 1) rotate(0) translate(4 1100)">
<title>quest</title>
<polygon fill="white" stroke="white" points="-4,4 -4,-1100 715,-1100 715,4 -4,4"/>
<g id="clust1" class="cluster"><title>cluster_[ns&#45;0]help_subquest</title>
<polygon fill="#96ffff" stroke="black" points="26,-456 26,-682 410,-682 410,-456 26,-456"/>
<text text-anchor="middle" x="218" y="-666.8" font-family="Times,serif" font-size="14.00">cluster_[ns&#45;0]help_subquest</text>
</g>
<g id="clust2" class="cluster"><title>cluster_[ns&#45;1]event</title>
<polygon fill="#ffffdd" stroke="black" points="34,-464 34,-605 402,-605 402,-464 34,-464"/>
<text text-anchor="middle" x="218" y="-589.8" font-family="Times,serif" font-size="14.00">cluster_[ns&#45;1]event</text>
</g>
<!-- [ns&#45;1]start -->
<g id="node1" class="node"><title>[ns&#45;1]start</title>
<polygon fill="#eeeeee" stroke="none" points="249.5,-617.5 249.5,-646.5 382.5,-646.5 382.5,-617.5 249.5,-617.5"/>
<text text-anchor="start" x="252" y="-636.5" font-family="Times,serif" font-style="italic" font-size="10.00">[ns&#45;1]start</text>
<text text-anchor="start" x="335.5" y="-636.5" font-family="Times,serif" font-weight="bold" font-size="10.00">simple</text>
<text text-anchor="start" x="252" y="-622" font-family="Times,serif" font-size="10.00">Начало: самый простой квест</text>
<polygon fill="none" stroke="black" points="249.5,-617.5 249.5,-646.5 382.5,-646.5 382.5,-617.5 249.5,-617.5"/>
</g>
<!-- [ns&#45;1]finish_failed -->
<g id="node6" class="node"><title>[ns&#45;1]finish_failed</title>
<polygon fill="#eeeeee" stroke="none" points="244,-476 244,-570 386,-570 386,-476 244,-476"/>
<text text-anchor="start" x="246" y="-560.5" font-family="Times,serif" font-style="italic" font-size="10.00">[ns&#45;1]finish_failed</text>
<text text-anchor="start" x="246" y="-546" font-family="Times,serif" font-size="10.00">завершить задание плохо</text>
<polygon fill="#eeeeee" stroke="none" points="245,-529 245,-542 385,-542 385,-529 245,-529"/>
<text text-anchor="start" x="246" y="-534" font-family="Times,serif" font-weight="bold" font-size="10.00">результаты:</text>
<text text-anchor="start" x="246" y="-521" font-family="Times,serif" font-weight="bold" font-size="10.00">person_6</text>
<text text-anchor="start" x="357" y="-520" font-family="Times,serif" font-size="10.00">failed</text>
<text text-anchor="start" x="246" y="-508" font-family="Times,serif" font-weight="bold" font-size="10.00">person_9</text>
<text text-anchor="start" x="357" y="-507" font-family="Times,serif" font-size="10.00">failed</text>
<text text-anchor="start" x="246" y="-495" font-family="Times,serif" font-weight="bold" font-size="10.00">place_6</text>
<text text-anchor="start" x="357" y="-494" font-family="Times,serif" font-size="10.00">failed</text>
<text text-anchor="start" x="246" y="-482" font-family="Times,serif" font-weight="bold" font-size="10.00">place_9</text>
<text text-anchor="start" x="357" y="-481" font-family="Times,serif" font-size="10.00">failed</text>
<polygon fill="none" stroke="black" points="244,-476 244,-570 386,-570 386,-476 244,-476"/>
</g>
<!-- [ns&#45;1]start&#45;&gt;[ns&#45;1]finish_failed -->
<g id="edge14" class="edge"><title>[ns&#45;1]start:[ns&#45;1]start&#45;&gt;[ns&#45;1]finish_failed:[ns&#45;1]finish_failed</title>
<path fill="none" stroke="black" d="M315.873,-617.448C315.784,-607.855 315.657,-594.28 315.527,-580.442"/>
<polygon fill="black" stroke="black" points="319.027,-580.339 315.433,-570.373 312.027,-580.405 319.027,-580.339"/>
</g>
<!-- [ns&#45;1]finish_successed -->
<g id="node7" class="node"><title>[ns&#45;1]finish_successed</title>
<polygon fill="#eeeeee" stroke="none" points="50.5,-476 50.5,-570 209.5,-570 209.5,-476 50.5,-476"/>
<text text-anchor="start" x="53" y="-560.5" font-family="Times,serif" font-style="italic" font-size="10.00">[ns&#45;1]finish_successed</text>
<text text-anchor="start" x="53" y="-546" font-family="Times,serif" font-size="10.00">завершить задание удачно</text>
<polygon fill="#eeeeee" stroke="none" points="52,-529 52,-542 209,-542 209,-529 52,-529"/>
<text text-anchor="start" x="53" y="-534" font-family="Times,serif" font-weight="bold" font-size="10.00">результаты:</text>
<text text-anchor="start" x="53" y="-521" font-family="Times,serif" font-weight="bold" font-size="10.00">person_6</text>
<text text-anchor="start" x="168" y="-520" font-family="Times,serif" font-size="10.00">successed</text>
<text text-anchor="start" x="53" y="-508" font-family="Times,serif" font-weight="bold" font-size="10.00">person_9</text>
<text text-anchor="start" x="168" y="-507" font-family="Times,serif" font-size="10.00">successed</text>
<text text-anchor="start" x="53" y="-495" font-family="Times,serif" font-weight="bold" font-size="10.00">place_6</text>
<text text-anchor="start" x="168" y="-494" font-family="Times,serif" font-size="10.00">successed</text>
<text text-anchor="start" x="53" y="-482" font-family="Times,serif" font-weight="bold" font-size="10.00">place_9</text>
<text text-anchor="start" x="168" y="-481" font-family="Times,serif" font-size="10.00">successed</text>
<polygon fill="none" stroke="black" points="50.5,-476 50.5,-570 209.5,-570 209.5,-476 50.5,-476"/>
</g>
<!-- [ns&#45;1]start&#45;&gt;[ns&#45;1]finish_successed -->
<g id="edge15" class="edge"><title>[ns&#45;1]start:[ns&#45;1]start&#45;&gt;[ns&#45;1]finish_successed:[ns&#45;1]finish_successed</title>
<path fill="none" stroke="black" d="M256.717,-617.401C246.514,-614.024 236.232,-609.924 227,-605 212.572,-597.305 198.323,-587.224 185.372,-576.8"/>
<polygon fill="black" stroke="black" points="187.424,-573.956 177.486,-570.283 182.965,-579.352 187.424,-573.956"/>
</g>
<!-- [ns&#45;0]start -->
<g id="node2" class="node"><title>[ns&#45;0]start</title>
<polygon fill="#eeeeee" stroke="none" points="310.5,-1024 310.5,-1092 445.5,-1092 445.5,-1024 310.5,-1024"/>
<text text-anchor="start" x="313" y="-1082.5" font-family="Times,serif" font-style="italic" font-size="10.00">[ns&#45;0]start</text>
<text text-anchor="start" x="386" y="-1082.5" font-family="Times,serif" font-weight="bold" font-size="10.00">collect_debt</text>
<text text-anchor="start" x="313" y="-1068" font-family="Times,serif" font-size="10.00">Начало: выбить долг</text>
<polygon fill="#dddddd" stroke="none" points="312,-1051 312,-1064 445,-1064 445,-1051 312,-1051"/>
<text text-anchor="start" x="313" y="-1056" font-family="Times,serif" font-size="10.00">hero </text>
<text text-anchor="start" x="334" y="-1056" font-family="Times,serif" font-weight="bold" font-size="10.00">находится в</text>
<text text-anchor="start" x="389" y="-1056" font-family="Times,serif" font-size="10.00"> place_1</text>
<polygon fill="#dddddd" stroke="none" points="312,-1038 312,-1051 445,-1051 445,-1038 312,-1038"/>
<text text-anchor="start" x="313" y="-1043" font-family="Times,serif" font-size="10.00">person_9 </text>
<text text-anchor="start" x="353" y="-1043" font-family="Times,serif" font-weight="bold" font-size="10.00">находится в</text>
<text text-anchor="start" x="408" y="-1043" font-family="Times,serif" font-size="10.00"> place_9</text>
<polygon fill="#ffffff" stroke="none" points="312,-1025 312,-1038 445,-1038 445,-1025 312,-1025"/>
<text text-anchor="start" x="313" y="-1030" font-family="Times,serif" font-weight="bold" font-size="10.00">сообщение:</text>
<text text-anchor="start" x="365" y="-1030" font-family="Times,serif" font-size="10.00"> intro</text>
<polygon fill="none" stroke="black" points="310.5,-1024 310.5,-1092 445.5,-1092 445.5,-1024 310.5,-1024"/>
</g>
<!-- [ns&#45;0]choose_method -->
<g id="node5" class="node"><title>[ns&#45;0]choose_method</title>
<polygon fill="#ddddff" stroke="none" points="273.5,-924.5 273.5,-979.5 482.5,-979.5 482.5,-924.5 273.5,-924.5"/>
<text text-anchor="start" x="276" y="-969.5" font-family="Times,serif" font-style="italic" font-size="10.00">[ns&#45;0]choose_method</text>
<text text-anchor="start" x="276" y="-955" font-family="Times,serif" font-size="10.00">Выбрать метод получения долга</text>
<polygon fill="#ccccee" stroke="none" points="275,-938 275,-951 482,-951 482,-938 275,-938"/>
<text text-anchor="start" x="276" y="-943" font-family="Times,serif" font-size="10.00">hero </text>
<text text-anchor="start" x="297" y="-943" font-family="Times,serif" font-weight="bold" font-size="10.00">находится в</text>
<text text-anchor="start" x="352" y="-943" font-family="Times,serif" font-size="10.00"> place_9</text>
<polygon fill="#eeeeff" stroke="none" points="275,-925 275,-938 482,-938 482,-925 275,-925"/>
<text text-anchor="start" x="276" y="-930" font-family="Times,serif" font-weight="bold" font-size="10.00">сообщение:</text>
<text text-anchor="start" x="328" y="-930" font-family="Times,serif" font-size="10.00"> move_to_receiver</text>
<polygon fill="none" stroke="black" points="273.5,-924.5 273.5,-979.5 482.5,-979.5 482.5,-924.5 273.5,-924.5"/>
</g>
<!-- [ns&#45;0]start&#45;&gt;[ns&#45;0]choose_method -->
<g id="edge5" class="edge"><title>[ns&#45;0]start:[ns&#45;0]start&#45;&gt;[ns&#45;0]choose_method:[ns&#45;0]choose_method</title>
<path fill="none" stroke="black" d="M378,-1023.81C378,-1013 378,-1000.93 378,-989.867"/>
<polygon fill="black" stroke="black" points="381.5,-989.639 378,-979.639 374.5,-989.639 381.5,-989.639"/>
</g>
<!-- [ns&#45;0]attack -->
<g id="node3" class="node"><title>[ns&#45;0]attack</title>
<polygon fill="#ffdddd" stroke="none" points="305,-253 305,-347 515,-347 515,-253 305,-253"/>
<text text-anchor="start" x="307" y="-337.5" font-family="Times,serif" font-style="italic" font-size="10.00">[ns&#45;0]attack</text>
<text text-anchor="start" x="307" y="-323" font-family="Times,serif" font-size="10.00">сражение с подручными должника</text>
<polygon fill="#eecccc" stroke="none" points="306,-306 306,-319 514,-319 514,-306 306,-306"/>
<text text-anchor="start" x="307" y="-311" font-family="Times,serif" font-size="10.00">hero </text>
<text text-anchor="start" x="328" y="-311" font-family="Times,serif" font-weight="bold" font-size="10.00">находится в</text>
<text text-anchor="start" x="383" y="-311" font-family="Times,serif" font-size="10.00"> place_9</text>
<polygon fill="#ffeeee" stroke="none" points="306,-293 306,-306 514,-306 514,-293 306,-293"/>
<text text-anchor="start" x="307" y="-298" font-family="Times,serif" font-weight="bold" font-size="10.00">сообщение:</text>
<text text-anchor="start" x="359" y="-298" font-family="Times,serif" font-size="10.00"> attack</text>
<polygon fill="#ffeeee" stroke="none" points="306,-280 306,-293 514,-293 514,-280 306,-280"/>
<text text-anchor="start" x="307" y="-285" font-family="Times,serif" font-weight="bold" font-size="10.00">сразиться с наёмником</text>
<polygon fill="#ffdddd" stroke="none" points="306,-267 306,-280 514,-280 514,-267 306,-267"/>
<text text-anchor="start" x="307" y="-272" font-family="Times,serif" font-weight="bold" font-size="10.00">условия:</text>
<text text-anchor="start" x="307" y="-259" font-family="Times,serif" font-weight="bold" font-size="10.00">если </text>
<polygon fill="#ffdddd" stroke="none" points="457,-254 457,-267 514,-267 514,-254 457,-254"/>
<text text-anchor="start" x="458" y="-259" font-family="Times,serif" font-size="10.00">hero </text>
<text text-anchor="start" x="479" y="-259" font-family="Times,serif" font-weight="bold" font-size="10.00">жив</text>
<polygon fill="none" stroke="black" points="305,-253 305,-347 515,-347 515,-253 305,-253"/>
</g>
<!-- #answer_True([ns&#45;0]attack, [ns&#45;0]finish_attack_successed) -->
<g id="node15" class="node"><title>#answer_True([ns&#45;0]attack, [ns&#45;0]finish_attack_successed)</title>
<polygon fill="#ffffff" stroke="none" points="349,-175 349,-189 395,-189 395,-175 349,-175"/>
<text text-anchor="start" x="350" y="-179.5" font-family="Times,serif" font-size="10.00">ИСТИНА</text>
</g>
<!-- [ns&#45;0]attack&#45;&gt;#answer_True([ns&#45;0]attack, [ns&#45;0]finish_attack_successed) -->
<g id="edge10" class="edge"><title>[ns&#45;0]attack:[ns&#45;0]attack&#45;&gt;#answer_True([ns&#45;0]attack, [ns&#45;0]finish_attack_successed):#answer_True([ns&#45;0]attack, [ns&#45;0]finish_attack_successed)</title>
<path fill="none" stroke="black" d="M394.872,-252.82C386.924,-228.559 378.033,-201.416 374.084,-189.36"/>
</g>
<!-- #answer_False([ns&#45;0]attack, [ns&#45;0]finish_attack_failed) -->
<g id="node17" class="node"><title>#answer_False([ns&#45;0]attack, [ns&#45;0]finish_attack_failed)</title>
<polygon fill="#ffffff" stroke="none" points="535,-175 535,-189 568,-189 568,-175 535,-175"/>
<text text-anchor="start" x="536" y="-179.5" font-family="Times,serif" font-size="10.00">ЛОЖЬ</text>
</g>
<!-- [ns&#45;0]attack&#45;&gt;#answer_False([ns&#45;0]attack, [ns&#45;0]finish_attack_failed) -->
<g id="edge16" class="edge"><title>[ns&#45;0]attack:[ns&#45;0]attack&#45;&gt;#answer_False([ns&#45;0]attack, [ns&#45;0]finish_attack_failed):#answer_False([ns&#45;0]attack, [ns&#45;0]finish_attack_failed)</title>
<path fill="none" stroke="black" d="M466.132,-252.82C495.622,-228.559 528.615,-201.416 543.269,-189.36"/>
</g>
<!-- [ns&#45;0]finish_attack_successed -->
<g id="node4" class="node"><title>[ns&#45;0]finish_attack_successed</title>
<polygon fill="#eeeeee" stroke="none" points="171.5,-4 171.5,-124 468.5,-124 468.5,-4 171.5,-4"/>
<text text-anchor="start" x="174" y="-114.5" font-family="Times,serif" font-style="italic" font-size="10.00">[ns&#45;0]finish_attack_successed</text>
<text text-anchor="start" x="174" y="-100" font-family="Times,serif" font-size="10.00">долг выбит</text>
<polygon fill="#dddddd" stroke="none" points="173,-83 173,-96 468,-96 468,-83 173,-83"/>
<text text-anchor="start" x="174" y="-88" font-family="Times,serif" font-size="10.00">hero </text>
<text text-anchor="start" x="195" y="-88" font-family="Times,serif" font-weight="bold" font-size="10.00">находится в</text>
<text text-anchor="start" x="250" y="-88" font-family="Times,serif" font-size="10.00"> place_1</text>
<polygon fill="#ffffff" stroke="none" points="173,-70 173,-83 468,-83 468,-70 173,-70"/>
<text text-anchor="start" x="174" y="-75" font-family="Times,serif" font-weight="bold" font-size="10.00">выдать награду </text>
<text text-anchor="start" x="249" y="-75" font-family="Times,serif" font-size="10.00">  hero </text>
<text text-anchor="start" x="274" y="-75" font-family="Times,serif" font-weight="bold" font-size="10.00">типа </text>
<text text-anchor="start" x="298" y="-75" font-family="Times,serif" font-size="10.00"> finish_attack_successed </text>
<text text-anchor="start" x="401" y="-75" font-family="Times,serif" font-weight="bold" font-size="10.00">в размере</text>
<text text-anchor="start" x="444" y="-75" font-family="Times,serif" font-size="10.00"> 1.00</text>
<polygon fill="#ffffff" stroke="none" points="173,-57 173,-70 468,-70 468,-57 173,-57"/>
<text text-anchor="start" x="174" y="-62" font-family="Times,serif" font-weight="bold" font-size="10.00">увеличить влияние </text>
<text text-anchor="start" x="262" y="-62" font-family="Times,serif" font-size="10.00">  person_1 </text>
<text text-anchor="start" x="307" y="-62" font-family="Times,serif" font-weight="bold" font-size="10.00">на </text>
<text text-anchor="start" x="320" y="-62" font-family="Times,serif" font-size="10.00"> 1.00</text>
<polygon fill="#ffffff" stroke="none" points="173,-44 173,-57 468,-57 468,-44 173,-44"/>
<text text-anchor="start" x="174" y="-49" font-family="Times,serif" font-weight="bold" font-size="10.00">увеличить влияние </text>
<text text-anchor="start" x="262" y="-49" font-family="Times,serif" font-size="10.00">  person_9 </text>
<text text-anchor="start" x="307" y="-49" font-family="Times,serif" font-weight="bold" font-size="10.00">на </text>
<text text-anchor="start" x="320" y="-49" font-family="Times,serif" font-size="10.00"> &#45;1.00</text>
<polygon fill="#eeeeee" stroke="none" points="173,-31 173,-44 468,-44 468,-31 173,-31"/>
<text text-anchor="start" x="174" y="-36" font-family="Times,serif" font-weight="bold" font-size="10.00">результаты:</text>
<text text-anchor="start" x="174" y="-23" font-family="Times,serif" font-weight="bold" font-size="10.00">person_1</text>
<text text-anchor="start" x="322" y="-22" font-family="Times,serif" font-size="10.00">successed</text>
<text text-anchor="start" x="174" y="-10" font-family="Times,serif" font-weight="bold" font-size="10.00">person_9</text>
<text text-anchor="start" x="322" y="-9" font-family="Times,serif" font-size="10.00">failed</text>
<polygon fill="none" stroke="black" points="171.5,-4 171.5,-124 468.5,-124 468.5,-4 171.5,-4"/>
</g>
<!-- #option([ns&#45;0]choose_method, [ns&#45;0]help) -->
<g id="node13" class="node"><title>#option([ns&#45;0]choose_method, [ns&#45;0]help)</title>
<polygon fill="#ffffff" stroke="none" points="327,-859 327,-873 349,-873 349,-859 327,-859"/>
<text text-anchor="start" x="328" y="-863.5" font-family="Times,serif" font-size="10.00">help</text>
</g>
<!-- [ns&#45;0]choose_method&#45;&gt;#option([ns&#45;0]choose_method, [ns&#45;0]help) -->
<g id="edge6" class="edge"><title>[ns&#45;0]choose_method:[ns&#45;0]choose_method&#45;&gt;#option([ns&#45;0]choose_method, [ns&#45;0]help):#option([ns&#45;0]choose_method, [ns&#45;0]help)</title>
<path fill="none" stroke="black" stroke-dasharray="1,5" d="M365.344,-924.422C356.738,-906.349 346.025,-883.853 340.941,-873.177"/>
</g>
<!-- #option([ns&#45;0]choose_method, [ns&#45;0]attack) -->
<g id="node16" class="node"><title>#option([ns&#45;0]choose_method, [ns&#45;0]attack)</title>
<polygon fill="#ffffff" stroke="none" points="405,-859 405,-873 433,-873 433,-859 405,-859"/>
<text text-anchor="start" x="406" y="-863.5" font-family="Times,serif" font-size="10.00">attack</text>
</g>
<!-- [ns&#45;0]choose_method&#45;&gt;#option([ns&#45;0]choose_method, [ns&#45;0]attack) -->
<g id="edge12" class="edge"><title>[ns&#45;0]choose_method:[ns&#45;0]choose_method&#45;&gt;#option([ns&#45;0]choose_method, [ns&#45;0]attack):#option([ns&#45;0]choose_method, [ns&#45;0]attack)</title>
<path fill="none" stroke="black" stroke-dasharray="1,5" d="M390.973,-924.422C399.794,-906.349 410.774,-883.853 415.985,-873.177"/>
</g>
<!-- #jump([ns&#45;1]finish_failed, [ns&#45;0]attack) -->
<g id="node12" class="node"><title>#jump([ns&#45;1]finish_failed, [ns&#45;0]attack)</title>
<polygon fill="#eeeeee" stroke="none" points="257,-411 257,-425 385,-425 385,-411 257,-411"/>
<text text-anchor="start" x="258" y="-416.5" font-family="Times,serif" font-weight="bold" font-size="10.00">сообщение:</text>
<text text-anchor="start" x="310" y="-416.5" font-family="Times,serif" font-size="10.00"> after_failed_help</text>
</g>
<!-- [ns&#45;1]finish_failed&#45;&gt;#jump([ns&#45;1]finish_failed, [ns&#45;0]attack) -->
<g id="edge3" class="edge"><title>[ns&#45;1]finish_failed:[ns&#45;1]finish_failed&#45;&gt;#jump([ns&#45;1]finish_failed, [ns&#45;0]attack):#jump([ns&#45;1]finish_failed, [ns&#45;0]attack)</title>
<path fill="none" stroke="black" d="M317.684,-475.923C318.832,-456.211 320.043,-435.429 320.633,-425.298"/>
</g>
<!-- #jump([ns&#45;1]finish_successed, [ns&#45;0]finish_help) -->
<g id="node11" class="node"><title>#jump([ns&#45;1]finish_successed, [ns&#45;0]finish_help)</title>
<polygon fill="#eeeeee" stroke="none" points="58,-411 58,-425 202,-425 202,-411 58,-411"/>
<text text-anchor="start" x="59" y="-416.5" font-family="Times,serif" font-weight="bold" font-size="10.00">сообщение:</text>
<text text-anchor="start" x="111" y="-416.5" font-family="Times,serif" font-size="10.00"> after_successed_help</text>
</g>
<!-- [ns&#45;1]finish_successed&#45;&gt;#jump([ns&#45;1]finish_successed, [ns&#45;0]finish_help) -->
<g id="edge1" class="edge"><title>[ns&#45;1]finish_successed:[ns&#45;1]finish_successed&#45;&gt;#jump([ns&#45;1]finish_successed, [ns&#45;0]finish_help):#jump([ns&#45;1]finish_successed, [ns&#45;0]finish_help)</title>
<path fill="none" stroke="black" d="M130,-475.923C130,-456.211 130,-435.429 130,-425.298"/>
</g>
<!-- [ns&#45;0]finish_attack_failed -->
<g id="node8" class="node"><title>[ns&#45;0]finish_attack_failed</title>
<polygon fill="#eeeeee" stroke="none" points="503,-10.5 503,-117.5 703,-117.5 703,-10.5 503,-10.5"/>
<text text-anchor="start" x="505" y="-107.5" font-family="Times,serif" font-style="italic" font-size="10.00">[ns&#45;0]finish_attack_failed</text>
<text text-anchor="start" x="505" y="-93" font-family="Times,serif" font-size="10.00">не удалось выбить долг</text>
<polygon fill="#ffffff" stroke="none" points="504,-76 504,-89 702,-89 702,-76 504,-76"/>
<text text-anchor="start" x="505" y="-81" font-family="Times,serif" font-weight="bold" font-size="10.00">сообщение:</text>
<text text-anchor="start" x="557" y="-81" font-family="Times,serif" font-size="10.00"> finish_attack_failed</text>
<polygon fill="#ffffff" stroke="none" points="504,-63 504,-76 702,-76 702,-63 504,-63"/>
<text text-anchor="start" x="505" y="-68" font-family="Times,serif" font-weight="bold" font-size="10.00">увеличить влияние </text>
<text text-anchor="start" x="593" y="-68" font-family="Times,serif" font-size="10.00">  person_1 </text>
<text text-anchor="start" x="638" y="-68" font-family="Times,serif" font-weight="bold" font-size="10.00">на </text>
<text text-anchor="start" x="651" y="-68" font-family="Times,serif" font-size="10.00"> &#45;1.00</text>
<polygon fill="#ffffff" stroke="none" points="504,-50 504,-63 702,-63 702,-50 504,-50"/>
<text text-anchor="start" x="505" y="-55" font-family="Times,serif" font-weight="bold" font-size="10.00">увеличить влияние </text>
<text text-anchor="start" x="593" y="-55" font-family="Times,serif" font-size="10.00">  person_9 </text>
<text text-anchor="start" x="638" y="-55" font-family="Times,serif" font-weight="bold" font-size="10.00">на </text>
<text text-anchor="start" x="651" y="-55" font-family="Times,serif" font-size="10.00"> 1.00</text>
<polygon fill="#eeeeee" stroke="none" points="504,-37 504,-50 702,-50 702,-37 504,-37"/>
<text text-anchor="start" x="505" y="-42" font-family="Times,serif" font-weight="bold" font-size="10.00">результаты:</text>
<text text-anchor="start" x="505" y="-29" font-family="Times,serif" font-weight="bold" font-size="10.00">person_1</text>
<text text-anchor="start" x="617" y="-28" font-family="Times,serif" font-size="10.00">failed</text>
<text text-anchor="start" x="505" y="-16" font-family="Times,serif" font-weight="bold" font-size="10.00">person_9</text>
<text text-anchor="start" x="617" y="-15" font-family="Times,serif" font-size="10.00">successed</text>
<polygon fill="none" stroke="black" points="503,-10.5 503,-117.5 703,-117.5 703,-10.5 503,-10.5"/>
</g>
<!-- [ns&#45;0]help -->
<g id="node9" class="node"><title>[ns&#45;0]help</title>
<polygon fill="#ddffdd" stroke="none" points="251.5,-766 251.5,-808 390.5,-808 390.5,-766 251.5,-766"/>
<text text-anchor="start" x="254" y="-798.5" font-family="Times,serif" font-style="italic" font-size="10.00">[ns&#45;0]help</text>
<text text-anchor="start" x="254" y="-784" font-family="Times,serif" font-size="10.00">помочь должнику</text>
<polygon fill="#cceecc" stroke="none" points="253,-767 253,-780 390,-780 390,-767 253,-767"/>
<text text-anchor="start" x="254" y="-772" font-family="Times,serif" font-size="10.00">hero </text>
<text text-anchor="start" x="275" y="-772" font-family="Times,serif" font-weight="bold" font-size="10.00">находится в</text>
<text text-anchor="start" x="330" y="-772" font-family="Times,serif" font-size="10.00"> place_9</text>
<polygon fill="none" stroke="black" points="251.5,-766 251.5,-808 390.5,-808 390.5,-766 251.5,-766"/>
</g>
<!-- #jump([ns&#45;0]help, [ns&#45;1]start) -->
<g id="node14" class="node"><title>#jump([ns&#45;0]help, [ns&#45;1]start)</title>
<polygon fill="#eeeeee" stroke="none" points="266,-701 266,-715 373,-715 373,-701 266,-701"/>
<text text-anchor="start" x="267" y="-706.5" font-family="Times,serif" font-weight="bold" font-size="10.00">сообщение:</text>
<text text-anchor="start" x="319" y="-706.5" font-family="Times,serif" font-size="10.00"> before_help</text>
</g>
<!-- [ns&#45;0]help&#45;&gt;#jump([ns&#45;0]help, [ns&#45;1]start) -->
<g id="edge8" class="edge"><title>[ns&#45;0]help:[ns&#45;0]help&#45;&gt;#jump([ns&#45;0]help, [ns&#45;1]start):#jump([ns&#45;0]help, [ns&#45;1]start)</title>
<path fill="none" stroke="black" d="M320.475,-765.769C320.039,-749.015 319.448,-726.253 319.165,-715.342"/>
</g>
<!-- [ns&#45;0]finish_help -->
<g id="node10" class="node"><title>[ns&#45;0]finish_help</title>
<polygon fill="#eeeeee" stroke="none" points="7.5,-240 7.5,-360 252.5,-360 252.5,-240 7.5,-240"/>
<text text-anchor="start" x="10" y="-350.5" font-family="Times,serif" font-style="italic" font-size="10.00">[ns&#45;0]finish_help</text>
<text text-anchor="start" x="10" y="-336" font-family="Times,serif" font-size="10.00">помощь оказана</text>
<polygon fill="#dddddd" stroke="none" points="9,-319 9,-332 252,-332 252,-319 9,-319"/>
<text text-anchor="start" x="10" y="-324" font-family="Times,serif" font-size="10.00">hero </text>
<text text-anchor="start" x="31" y="-324" font-family="Times,serif" font-weight="bold" font-size="10.00">находится в</text>
<text text-anchor="start" x="86" y="-324" font-family="Times,serif" font-size="10.00"> place_1</text>
<polygon fill="#ffffff" stroke="none" points="9,-306 9,-319 252,-319 252,-306 9,-306"/>
<text text-anchor="start" x="10" y="-311" font-family="Times,serif" font-weight="bold" font-size="10.00">выдать награду </text>
<text text-anchor="start" x="85" y="-311" font-family="Times,serif" font-size="10.00">  hero </text>
<text text-anchor="start" x="110" y="-311" font-family="Times,serif" font-weight="bold" font-size="10.00">типа </text>
<text text-anchor="start" x="134" y="-311" font-family="Times,serif" font-size="10.00"> finish_help </text>
<text text-anchor="start" x="186" y="-311" font-family="Times,serif" font-weight="bold" font-size="10.00">в размере</text>
<text text-anchor="start" x="229" y="-311" font-family="Times,serif" font-size="10.00"> 1.00</text>
<polygon fill="#ffffff" stroke="none" points="9,-293 9,-306 252,-306 252,-293 9,-293"/>
<text text-anchor="start" x="10" y="-298" font-family="Times,serif" font-weight="bold" font-size="10.00">увеличить влияние </text>
<text text-anchor="start" x="98" y="-298" font-family="Times,serif" font-size="10.00">  person_1 </text>
<text text-anchor="start" x="143" y="-298" font-family="Times,serif" font-weight="bold" font-size="10.00">на </text>
<text text-anchor="start" x="156" y="-298" font-family="Times,serif" font-size="10.00"> 1.00</text>
<polygon fill="#ffffff" stroke="none" points="9,-280 9,-293 252,-293 252,-280 9,-280"/>
<text text-anchor="start" x="10" y="-285" font-family="Times,serif" font-weight="bold" font-size="10.00">увеличить влияние </text>
<text text-anchor="start" x="98" y="-285" font-family="Times,serif" font-size="10.00">  person_9 </text>
<text text-anchor="start" x="143" y="-285" font-family="Times,serif" font-weight="bold" font-size="10.00">на </text>
<text text-anchor="start" x="156" y="-285" font-family="Times,serif" font-size="10.00"> 1.00</text>
<polygon fill="#eeeeee" stroke="none" points="9,-267 9,-280 252,-280 252,-267 9,-267"/>
<text text-anchor="start" x="10" y="-272" font-family="Times,serif" font-weight="bold" font-size="10.00">результаты:</text>
<text text-anchor="start" x="10" y="-259" font-family="Times,serif" font-weight="bold" font-size="10.00">person_1</text>
<text text-anchor="start" x="132" y="-258" font-family="Times,serif" font-size="10.00">successed</text>
<text text-anchor="start" x="10" y="-246" font-family="Times,serif" font-weight="bold" font-size="10.00">person_9</text>
<text text-anchor="start" x="132" y="-245" font-family="Times,serif" font-size="10.00">successed</text>
<polygon fill="none" stroke="black" points="7.5,-240 7.5,-360 252.5,-360 252.5,-240 7.5,-240"/>
</g>
<!-- #jump([ns&#45;1]finish_successed, [ns&#45;0]finish_help)&#45;&gt;[ns&#45;0]finish_help -->
<g id="edge2" class="edge"><title>#jump([ns&#45;1]finish_successed, [ns&#45;0]finish_help):#jump([ns&#45;1]finish_successed, [ns&#45;0]finish_help)&#45;&gt;[ns&#45;0]finish_help:[ns&#45;0]finish_help</title>
<path fill="none" stroke="black" d="M130,-410.763C130,-402.579 130,-387.292 130,-370.67"/>
<polygon fill="black" stroke="black" points="133.5,-370.2 130,-360.2 126.5,-370.2 133.5,-370.2"/>
</g>
<!-- #jump([ns&#45;1]finish_failed, [ns&#45;0]attack)&#45;&gt;[ns&#45;0]attack -->
<g id="edge4" class="edge"><title>#jump([ns&#45;1]finish_failed, [ns&#45;0]attack):#jump([ns&#45;1]finish_failed, [ns&#45;0]attack)&#45;&gt;[ns&#45;0]attack:[ns&#45;0]attack</title>
<path fill="none" stroke="black" d="M325.785,-410.763C333.985,-400.076 351.48,-377.273 368.411,-355.206"/>
<polygon fill="black" stroke="black" points="371.295,-357.197 374.605,-347.133 365.741,-352.936 371.295,-357.197"/>
</g>
<!-- #option([ns&#45;0]choose_method, [ns&#45;0]help)&#45;&gt;[ns&#45;0]help -->
<g id="edge7" class="edge"><title>#option([ns&#45;0]choose_method, [ns&#45;0]help):#option([ns&#45;0]choose_method, [ns&#45;0]help)&#45;&gt;[ns&#45;0]help:[ns&#45;0]help</title>
<path fill="none" stroke="black" stroke-dasharray="1,5" d="M336.666,-858.958C334.733,-850.201 331.019,-833.379 327.692,-818.312"/>
<polygon fill="black" stroke="black" points="331.051,-817.291 325.478,-808.281 324.216,-818.801 331.051,-817.291"/>
</g>
<!-- #jump([ns&#45;0]help, [ns&#45;1]start)&#45;&gt;[ns&#45;1]start -->
<g id="edge9" class="edge"><title>#jump([ns&#45;0]help, [ns&#45;1]start):#jump([ns&#45;0]help, [ns&#45;1]start)&#45;&gt;[ns&#45;1]start:[ns&#45;1]start</title>
<path fill="none" stroke="black" d="M318.754,-700.944C318.366,-691.352 317.588,-672.159 316.957,-656.611"/>
<polygon fill="black" stroke="black" points="320.453,-656.443 316.551,-646.593 313.459,-656.727 320.453,-656.443"/>
</g>
<!-- #answer_True([ns&#45;0]attack, [ns&#45;0]finish_attack_successed)&#45;&gt;[ns&#45;0]finish_attack_successed -->
<g id="edge11" class="edge"><title>#answer_True([ns&#45;0]attack, [ns&#45;0]finish_attack_successed):#answer_True([ns&#45;0]attack, [ns&#45;0]finish_attack_successed)&#45;&gt;[ns&#45;0]finish_attack_successed:[ns&#45;0]finish_attack_successed</title>
<path fill="none" stroke="black" d="M369.204,-174.763C365.466,-166.425 358.423,-150.712 350.809,-133.728"/>
<polygon fill="black" stroke="black" points="353.822,-131.893 346.538,-124.2 347.435,-134.757 353.822,-131.893"/>
</g>
<!-- #option([ns&#45;0]choose_method, [ns&#45;0]attack)&#45;&gt;[ns&#45;0]attack -->
<g id="edge13" class="edge"><title>#option([ns&#45;0]choose_method, [ns&#45;0]attack):#option([ns&#45;0]choose_method, [ns&#45;0]attack)&#45;&gt;[ns&#45;0]attack:[ns&#45;0]attack</title>
<path fill="none" stroke="black" stroke-dasharray="1,5" d="M419.619,-858.766C421.652,-837.715 428,-767.326 428,-709 428,-709 428,-709 428,-522 428,-465.752 422.136,-401.715 417.102,-357.106"/>
<polygon fill="black" stroke="black" points="420.565,-356.582 415.944,-347.048 413.611,-357.383 420.565,-356.582"/>
</g>
<!-- #answer_False([ns&#45;0]attack, [ns&#45;0]finish_attack_failed)&#45;&gt;[ns&#45;0]finish_attack_failed -->
<g id="edge17" class="edge"><title>#answer_False([ns&#45;0]attack, [ns&#45;0]finish_attack_failed):#answer_False([ns&#45;0]attack, [ns&#45;0]finish_attack_failed)&#45;&gt;[ns&#45;0]finish_attack_failed:[ns&#45;0]finish_attack_failed</title>
<path fill="none" stroke="black" d="M553.796,-174.763C558.021,-165.338 566.469,-146.491 575.191,-127.036"/>
<polygon fill="black" stroke="black" points="578.443,-128.338 579.339,-117.781 572.055,-125.475 578.443,-128.338"/>
</g>
</g>
</svg>
