<?xml version="1.0" encoding="UTF-8" standalone="no"?>
<!DOCTYPE svg PUBLIC "-//W3C//DTD SVG 1.1//EN"
 "http://www.w3.org/Graphics/SVG/1.1/DTD/svg11.dtd">
<!-- Generated by graphviz version 2.34.0 (20130907.0221)
 -->
<!-- Title: quest Pages: 1 -->
<svg width="607pt" height="1104pt"
 viewBox="0.00 0.00 607.00 1104.00" xmlns="http://www.w3.org/2000/svg" xmlns:xlink="http://www.w3.org/1999/xlink">
<g id="graph0" class="graph" transform="scale(1 1) rotate(0) translate(4 1100)">
<title>quest</title>
<polygon fill="white" stroke="white" points="-4,4 -4,-1100 603,-1100 603,4 -4,4"/>
<g id="clust1" class="cluster"><title>cluster_[ns&#45;0]help_subquest</title>
<polygon fill="#96ffff" stroke="black" points="195,-456 195,-682 571,-682 571,-456 195,-456"/>
<text text-anchor="middle" x="383" y="-666.8" font-family="Times,serif" font-size="14.00">cluster_[ns&#45;0]help_subquest</text>
</g>
<g id="clust2" class="cluster"><title>cluster_[ns&#45;1]event</title>
<polygon fill="#ffffdd" stroke="black" points="203,-464 203,-605 563,-605 563,-464 203,-464"/>
<text text-anchor="middle" x="383" y="-589.8" font-family="Times,serif" font-size="14.00">cluster_[ns&#45;1]event</text>
</g>
<!-- [ns&#45;1]start -->
<g id="node1" class="node"><title>[ns&#45;1]start</title>
<polygon fill="#eeeeee" stroke="none" points="216.5,-617.5 216.5,-646.5 349.5,-646.5 349.5,-617.5 216.5,-617.5"/>
<text text-anchor="start" x="219" y="-636.5" font-family="Times,serif" font-style="italic" font-size="10.00">[ns&#45;1]start</text>
<text text-anchor="start" x="302.5" y="-636.5" font-family="Times,serif" font-weight="bold" font-size="10.00">simple</text>
<text text-anchor="start" x="219" y="-622" font-family="Times,serif" font-size="10.00">Начало: самый простой квест</text>
<polygon fill="none" stroke="black" points="216.5,-617.5 216.5,-646.5 349.5,-646.5 349.5,-617.5 216.5,-617.5"/>
</g>
<!-- [ns&#45;1]finish_failed -->
<g id="node6" class="node"><title>[ns&#45;1]finish_failed</title>
<polygon fill="#eeeeee" stroke="none" points="219,-476 219,-570 357,-570 357,-476 219,-476"/>
<text text-anchor="start" x="221" y="-560.5" font-family="Times,serif" font-style="italic" font-size="10.00">[ns&#45;1]finish_failed</text>
<text text-anchor="start" x="221" y="-546" font-family="Times,serif" font-size="10.00">завершить задание плохо</text>
<polygon fill="#eeeeee" stroke="none" points="220,-529 220,-542 356,-542 356,-529 220,-529"/>
<text text-anchor="start" x="221" y="-534" font-family="Times,serif" font-weight="bold" font-size="10.00">результаты:</text>
<text text-anchor="start" x="221" y="-521" font-family="Times,serif" font-weight="bold" font-size="10.00">person_10</text>
<text text-anchor="start" x="302" y="-520" font-family="Times,serif" font-size="10.00">failed</text>
<text text-anchor="start" x="221" y="-508" font-family="Times,serif" font-weight="bold" font-size="10.00">person_9</text>
<text text-anchor="start" x="302" y="-507" font-family="Times,serif" font-size="10.00">failed</text>
<text text-anchor="start" x="221" y="-495" font-family="Times,serif" font-weight="bold" font-size="10.00">place_10</text>
<text text-anchor="start" x="302" y="-494" font-family="Times,serif" font-size="10.00">failed</text>
<text text-anchor="start" x="221" y="-482" font-family="Times,serif" font-weight="bold" font-size="10.00">place_9</text>
<text text-anchor="start" x="302" y="-481" font-family="Times,serif" font-size="10.00">failed</text>
<polygon fill="none" stroke="black" points="219,-476 219,-570 357,-570 357,-476 219,-476"/>
</g>
<!-- [ns&#45;1]start&#45;&gt;[ns&#45;1]finish_failed -->
<g id="edge14" class="edge"><title>[ns&#45;1]start:[ns&#45;1]start&#45;&gt;[ns&#45;1]finish_failed:[ns&#45;1]finish_failed</title>
<path fill="none" stroke="black" d="M283.633,-617.448C284.082,-607.855 284.716,-594.28 285.363,-580.442"/>
<polygon fill="black" stroke="black" points="288.862,-580.525 285.833,-570.373 281.87,-580.198 288.862,-580.525"/>
</g>
<!-- [ns&#45;1]finish_successed -->
<g id="node7" class="node"><title>[ns&#45;1]finish_successed</title>
<polygon fill="#eeeeee" stroke="none" points="391,-476 391,-570 547,-570 547,-476 391,-476"/>
<text text-anchor="start" x="393" y="-560.5" font-family="Times,serif" font-style="italic" font-size="10.00">[ns&#45;1]finish_successed</text>
<text text-anchor="start" x="393" y="-546" font-family="Times,serif" font-size="10.00">завершить задание удачно</text>
<polygon fill="#eeeeee" stroke="none" points="392,-529 392,-542 546,-542 546,-529 392,-529"/>
<text text-anchor="start" x="393" y="-534" font-family="Times,serif" font-weight="bold" font-size="10.00">результаты:</text>
<text text-anchor="start" x="393" y="-521" font-family="Times,serif" font-weight="bold" font-size="10.00">person_10</text>
<text text-anchor="start" x="490" y="-520" font-family="Times,serif" font-size="10.00">successed</text>
<text text-anchor="start" x="393" y="-508" font-family="Times,serif" font-weight="bold" font-size="10.00">person_9</text>
<text text-anchor="start" x="490" y="-507" font-family="Times,serif" font-size="10.00">successed</text>
<text text-anchor="start" x="393" y="-495" font-family="Times,serif" font-weight="bold" font-size="10.00">place_10</text>
<text text-anchor="start" x="490" y="-494" font-family="Times,serif" font-size="10.00">successed</text>
<text text-anchor="start" x="393" y="-482" font-family="Times,serif" font-weight="bold" font-size="10.00">place_9</text>
<text text-anchor="start" x="490" y="-481" font-family="Times,serif" font-size="10.00">successed</text>
<polygon fill="none" stroke="black" points="391,-476 391,-570 547,-570 547,-476 391,-476"/>
</g>
<!-- [ns&#45;1]start&#45;&gt;[ns&#45;1]finish_successed -->
<g id="edge17" class="edge"><title>[ns&#45;1]start:[ns&#45;1]start&#45;&gt;[ns&#45;1]finish_successed:[ns&#45;1]finish_successed</title>
<path fill="none" stroke="black" d="M344.142,-617.448C354.411,-614.078 364.732,-609.969 374,-605 388.237,-597.367 402.236,-587.312 414.93,-576.894"/>
<polygon fill="black" stroke="black" points="417.267,-579.501 422.655,-570.378 412.754,-574.15 417.267,-579.501"/>
</g>
<!-- [ns&#45;0]start -->
<g id="node2" class="node"><title>[ns&#45;0]start</title>
<polygon fill="#eeeeee" stroke="none" points="161.5,-1024 161.5,-1092 296.5,-1092 296.5,-1024 161.5,-1024"/>
<text text-anchor="start" x="164" y="-1082.5" font-family="Times,serif" font-style="italic" font-size="10.00">[ns&#45;0]start</text>
<text text-anchor="start" x="237" y="-1082.5" font-family="Times,serif" font-weight="bold" font-size="10.00">collect_debt</text>
<text text-anchor="start" x="164" y="-1068" font-family="Times,serif" font-size="10.00">Начало: выбить долг</text>
<polygon fill="#dddddd" stroke="none" points="163,-1051 163,-1064 296,-1064 296,-1051 163,-1051"/>
<text text-anchor="start" x="164" y="-1056" font-family="Times,serif" font-size="10.00">hero </text>
<text text-anchor="start" x="185" y="-1056" font-family="Times,serif" font-weight="bold" font-size="10.00">находится в</text>
<text text-anchor="start" x="240" y="-1056" font-family="Times,serif" font-size="10.00"> place_1</text>
<polygon fill="#dddddd" stroke="none" points="163,-1038 163,-1051 296,-1051 296,-1038 163,-1038"/>
<text text-anchor="start" x="164" y="-1043" font-family="Times,serif" font-size="10.00">person_9 </text>
<text text-anchor="start" x="204" y="-1043" font-family="Times,serif" font-weight="bold" font-size="10.00">находится в</text>
<text text-anchor="start" x="259" y="-1043" font-family="Times,serif" font-size="10.00"> place_9</text>
<polygon fill="#ffffff" stroke="none" points="163,-1025 163,-1038 296,-1038 296,-1025 163,-1025"/>
<text text-anchor="start" x="164" y="-1030" font-family="Times,serif" font-weight="bold" font-size="10.00">сообщение:</text>
<text text-anchor="start" x="216" y="-1030" font-family="Times,serif" font-size="10.00"> intro</text>
<polygon fill="none" stroke="black" points="161.5,-1024 161.5,-1092 296.5,-1092 296.5,-1024 161.5,-1024"/>
</g>
<!-- [ns&#45;0]choose_method -->
<g id="node5" class="node"><title>[ns&#45;0]choose_method</title>
<polygon fill="#ddddff" stroke="none" points="146,-924.5 146,-979.5 312,-979.5 312,-924.5 146,-924.5"/>
<text text-anchor="start" x="148" y="-969.5" font-family="Times,serif" font-style="italic" font-size="10.00">[ns&#45;0]choose_method</text>
<text text-anchor="start" x="148" y="-955" font-family="Times,serif" font-size="10.00">Выбрать метод получения долга</text>
<polygon fill="#ccccee" stroke="none" points="147,-938 147,-951 311,-951 311,-938 147,-938"/>
<text text-anchor="start" x="148" y="-943" font-family="Times,serif" font-size="10.00">hero </text>
<text text-anchor="start" x="169" y="-943" font-family="Times,serif" font-weight="bold" font-size="10.00">находится в</text>
<text text-anchor="start" x="224" y="-943" font-family="Times,serif" font-size="10.00"> place_9</text>
<polygon fill="#eeeeff" stroke="none" points="147,-925 147,-938 311,-938 311,-925 147,-925"/>
<text text-anchor="start" x="148" y="-930" font-family="Times,serif" font-weight="bold" font-size="10.00">сообщение:</text>
<text text-anchor="start" x="200" y="-930" font-family="Times,serif" font-size="10.00"> move_to_receiver</text>
<polygon fill="none" stroke="black" points="146,-924.5 146,-979.5 312,-979.5 312,-924.5 146,-924.5"/>
</g>
<!-- [ns&#45;0]start&#45;&gt;[ns&#45;0]choose_method -->
<g id="edge5" class="edge"><title>[ns&#45;0]start:[ns&#45;0]start&#45;&gt;[ns&#45;0]choose_method:[ns&#45;0]choose_method</title>
<path fill="none" stroke="black" d="M229,-1023.81C229,-1013 229,-1000.93 229,-989.867"/>
<polygon fill="black" stroke="black" points="232.5,-989.639 229,-979.639 225.5,-989.639 232.5,-989.639"/>
</g>
<!-- [ns&#45;0]attack -->
<g id="node3" class="node"><title>[ns&#45;0]attack</title>
<polygon fill="#ffdddd" stroke="none" points="130.5,-253 130.5,-347 283.5,-347 283.5,-253 130.5,-253"/>
<text text-anchor="start" x="133" y="-337.5" font-family="Times,serif" font-style="italic" font-size="10.00">[ns&#45;0]attack</text>
<text text-anchor="start" x="133" y="-323" font-family="Times,serif" font-size="10.00">сражение с подручными должника</text>
<polygon fill="#eecccc" stroke="none" points="132,-306 132,-319 283,-319 283,-306 132,-306"/>
<text text-anchor="start" x="133" y="-311" font-family="Times,serif" font-size="10.00">hero </text>
<text text-anchor="start" x="154" y="-311" font-family="Times,serif" font-weight="bold" font-size="10.00">находится в</text>
<text text-anchor="start" x="209" y="-311" font-family="Times,serif" font-size="10.00"> place_9</text>
<polygon fill="#ffeeee" stroke="none" points="132,-293 132,-306 283,-306 283,-293 132,-293"/>
<text text-anchor="start" x="133" y="-298" font-family="Times,serif" font-weight="bold" font-size="10.00">сообщение:</text>
<text text-anchor="start" x="185" y="-298" font-family="Times,serif" font-size="10.00"> attack</text>
<polygon fill="#ffeeee" stroke="none" points="132,-280 132,-293 283,-293 283,-280 132,-280"/>
<text text-anchor="start" x="133" y="-285" font-family="Times,serif" font-weight="bold" font-size="10.00">сразиться с наёмником</text>
<polygon fill="#ffdddd" stroke="none" points="132,-267 132,-280 283,-280 283,-267 132,-267"/>
<text text-anchor="start" x="133" y="-272" font-family="Times,serif" font-weight="bold" font-size="10.00">условия:</text>
<text text-anchor="start" x="133" y="-259" font-family="Times,serif" font-weight="bold" font-size="10.00">если </text>
<polygon fill="#ffdddd" stroke="none" points="208,-254 208,-267 283,-267 283,-254 208,-254"/>
<text text-anchor="start" x="209" y="-259" font-family="Times,serif" font-size="10.00">hero </text>
<text text-anchor="start" x="230" y="-259" font-family="Times,serif" font-weight="bold" font-size="10.00">жив</text>
<polygon fill="none" stroke="black" points="130.5,-253 130.5,-347 283.5,-347 283.5,-253 130.5,-253"/>
</g>
<!-- #answer(False, [ns&#45;0]attack, [ns&#45;0]finish_attack_failed) -->
<g id="node15" class="node"><title>#answer(False, [ns&#45;0]attack, [ns&#45;0]finish_attack_failed)</title>
<polygon fill="#ffffff" stroke="none" points="75,-181 75,-195 186,-195 186,-181 75,-181"/>
<text text-anchor="start" x="76" y="-185.5" font-family="Times,serif" font-size="10.00">ЛОЖЬ</text>
<polygon fill="#eeeeee" stroke="none" points="75,-168 75,-181 186,-181 186,-168 75,-168"/>
<text text-anchor="start" x="76" y="-173" font-family="Times,serif" font-weight="bold" font-size="10.00">сообщение:</text>
<text text-anchor="start" x="128" y="-173" font-family="Times,serif" font-size="10.00"> attack_failed</text>
</g>
<!-- [ns&#45;0]attack&#45;&gt;#answer(False, [ns&#45;0]attack, [ns&#45;0]finish_attack_failed) -->
<g id="edge10" class="edge"><title>[ns&#45;0]attack:[ns&#45;0]attack&#45;&gt;#answer(False, [ns&#45;0]attack, [ns&#45;0]finish_attack_failed):#answer(False, [ns&#45;0]attack, [ns&#45;0]finish_attack_failed)</title>
<path fill="none" stroke="black" d="M176.346,-252.82C162.59,-232.097 147.439,-209.271 138.325,-195.542"/>
</g>
<!-- #answer(True, [ns&#45;0]attack, [ns&#45;0]finish_attack_successed) -->
<g id="node17" class="node"><title>#answer(True, [ns&#45;0]attack, [ns&#45;0]finish_attack_successed)</title>
<polygon fill="#ffffff" stroke="none" points="280,-181 280,-195 408,-195 408,-181 280,-181"/>
<text text-anchor="start" x="281" y="-185.5" font-family="Times,serif" font-size="10.00">ИСТИНА</text>
<polygon fill="#eeeeee" stroke="none" points="280,-168 280,-181 408,-181 408,-168 280,-168"/>
<text text-anchor="start" x="281" y="-173" font-family="Times,serif" font-weight="bold" font-size="10.00">сообщение:</text>
<text text-anchor="start" x="333" y="-173" font-family="Times,serif" font-size="10.00"> attack_successed</text>
</g>
<!-- [ns&#45;0]attack&#45;&gt;#answer(True, [ns&#45;0]attack, [ns&#45;0]finish_attack_successed) -->
<g id="edge15" class="edge"><title>[ns&#45;0]attack:[ns&#45;0]attack&#45;&gt;#answer(True, [ns&#45;0]attack, [ns&#45;0]finish_attack_successed):#answer(True, [ns&#45;0]attack, [ns&#45;0]finish_attack_successed)</title>
<path fill="none" stroke="black" d="M261.54,-252.82C286.015,-232.097 312.973,-209.271 329.188,-195.542"/>
</g>
<!-- [ns&#45;0]finish_attack_successed -->
<g id="node4" class="node"><title>[ns&#45;0]finish_attack_successed</title>
<polygon fill="#eeeeee" stroke="none" points="226.5,-4 226.5,-124 523.5,-124 523.5,-4 226.5,-4"/>
<text text-anchor="start" x="229" y="-114.5" font-family="Times,serif" font-style="italic" font-size="10.00">[ns&#45;0]finish_attack_successed</text>
<text text-anchor="start" x="229" y="-100" font-family="Times,serif" font-size="10.00">долг выбит</text>
<polygon fill="#dddddd" stroke="none" points="228,-83 228,-96 523,-96 523,-83 228,-83"/>
<text text-anchor="start" x="229" y="-88" font-family="Times,serif" font-size="10.00">hero </text>
<text text-anchor="start" x="250" y="-88" font-family="Times,serif" font-weight="bold" font-size="10.00">находится в</text>
<text text-anchor="start" x="305" y="-88" font-family="Times,serif" font-size="10.00"> place_1</text>
<polygon fill="#ffffff" stroke="none" points="228,-70 228,-83 523,-83 523,-70 228,-70"/>
<text text-anchor="start" x="229" y="-75" font-family="Times,serif" font-weight="bold" font-size="10.00">выдать награду </text>
<text text-anchor="start" x="304" y="-75" font-family="Times,serif" font-size="10.00">  hero </text>
<text text-anchor="start" x="329" y="-75" font-family="Times,serif" font-weight="bold" font-size="10.00">типа </text>
<text text-anchor="start" x="353" y="-75" font-family="Times,serif" font-size="10.00"> finish_attack_successed </text>
<text text-anchor="start" x="456" y="-75" font-family="Times,serif" font-weight="bold" font-size="10.00">в размере</text>
<text text-anchor="start" x="499" y="-75" font-family="Times,serif" font-size="10.00"> 1.00</text>
<polygon fill="#ffffff" stroke="none" points="228,-57 228,-70 523,-70 523,-57 228,-57"/>
<text text-anchor="start" x="229" y="-62" font-family="Times,serif" font-weight="bold" font-size="10.00">увеличить влияние </text>
<text text-anchor="start" x="317" y="-62" font-family="Times,serif" font-size="10.00">  person_1 </text>
<text text-anchor="start" x="362" y="-62" font-family="Times,serif" font-weight="bold" font-size="10.00">на </text>
<text text-anchor="start" x="375" y="-62" font-family="Times,serif" font-size="10.00"> 1.00</text>
<polygon fill="#ffffff" stroke="none" points="228,-44 228,-57 523,-57 523,-44 228,-44"/>
<text text-anchor="start" x="229" y="-49" font-family="Times,serif" font-weight="bold" font-size="10.00">увеличить влияние </text>
<text text-anchor="start" x="317" y="-49" font-family="Times,serif" font-size="10.00">  person_9 </text>
<text text-anchor="start" x="362" y="-49" font-family="Times,serif" font-weight="bold" font-size="10.00">на </text>
<text text-anchor="start" x="375" y="-49" font-family="Times,serif" font-size="10.00"> &#45;1.00</text>
<polygon fill="#eeeeee" stroke="none" points="228,-31 228,-44 523,-44 523,-31 228,-31"/>
<text text-anchor="start" x="229" y="-36" font-family="Times,serif" font-weight="bold" font-size="10.00">результаты:</text>
<text text-anchor="start" x="229" y="-23" font-family="Times,serif" font-weight="bold" font-size="10.00">person_1</text>
<text text-anchor="start" x="377" y="-22" font-family="Times,serif" font-size="10.00">successed</text>
<text text-anchor="start" x="229" y="-10" font-family="Times,serif" font-weight="bold" font-size="10.00">person_9</text>
<text text-anchor="start" x="377" y="-9" font-family="Times,serif" font-size="10.00">failed</text>
<polygon fill="none" stroke="black" points="226.5,-4 226.5,-124 523.5,-124 523.5,-4 226.5,-4"/>
</g>
<!-- #option([ns&#45;0]choose_method, [ns&#45;0]attack, attack) -->
<g id="node14" class="node"><title>#option([ns&#45;0]choose_method, [ns&#45;0]attack, attack)</title>
<polygon fill="#ffffff" stroke="none" points="176,-859 176,-873 204,-873 204,-859 176,-859"/>
<text text-anchor="start" x="177" y="-863.5" font-family="Times,serif" font-size="10.00">attack</text>
</g>
<!-- [ns&#45;0]choose_method&#45;&gt;#option([ns&#45;0]choose_method, [ns&#45;0]attack, attack) -->
<g id="edge8" class="edge"><title>[ns&#45;0]choose_method:[ns&#45;0]choose_method&#45;&gt;#option([ns&#45;0]choose_method, [ns&#45;0]attack, attack):#option([ns&#45;0]choose_method, [ns&#45;0]attack, attack)</title>
<path fill="none" stroke="black" stroke-dasharray="1,5" d="M216.66,-924.422C208.269,-906.349 197.825,-883.853 192.868,-873.177"/>
</g>
<!-- #option([ns&#45;0]choose_method, [ns&#45;0]help, help) -->
<g id="node16" class="node"><title>#option([ns&#45;0]choose_method, [ns&#45;0]help, help)</title>
<polygon fill="#ffffff" stroke="none" points="257,-859 257,-873 279,-873 279,-859 257,-859"/>
<text text-anchor="start" x="258" y="-863.5" font-family="Times,serif" font-size="10.00">help</text>
</g>
<!-- [ns&#45;0]choose_method&#45;&gt;#option([ns&#45;0]choose_method, [ns&#45;0]help, help) -->
<g id="edge12" class="edge"><title>[ns&#45;0]choose_method:[ns&#45;0]choose_method&#45;&gt;#option([ns&#45;0]choose_method, [ns&#45;0]help, help):#option([ns&#45;0]choose_method, [ns&#45;0]help, help)</title>
<path fill="none" stroke="black" stroke-dasharray="1,5" d="M241.34,-924.422C249.731,-906.349 260.175,-883.853 265.132,-873.177"/>
</g>
<!-- #jump([ns&#45;1]finish_failed, [ns&#45;0]attack) -->
<g id="node12" class="node"><title>#jump([ns&#45;1]finish_failed, [ns&#45;0]attack)</title>
<polygon fill="#eeeeee" stroke="none" points="219,-411 219,-425 347,-425 347,-411 219,-411"/>
<text text-anchor="start" x="220" y="-416.5" font-family="Times,serif" font-weight="bold" font-size="10.00">сообщение:</text>
<text text-anchor="start" x="272" y="-416.5" font-family="Times,serif" font-size="10.00"> after_failed_help</text>
</g>
<!-- [ns&#45;1]finish_failed&#45;&gt;#jump([ns&#45;1]finish_failed, [ns&#45;0]attack) -->
<g id="edge3" class="edge"><title>[ns&#45;1]finish_failed:[ns&#45;1]finish_failed&#45;&gt;#jump([ns&#45;1]finish_failed, [ns&#45;0]attack):#jump([ns&#45;1]finish_failed, [ns&#45;0]attack)</title>
<path fill="none" stroke="black" d="M285.763,-475.923C284.806,-456.211 283.798,-435.429 283.306,-425.298"/>
</g>
<!-- #jump([ns&#45;1]finish_successed, [ns&#45;0]finish_help) -->
<g id="node11" class="node"><title>#jump([ns&#45;1]finish_successed, [ns&#45;0]finish_help)</title>
<polygon fill="#eeeeee" stroke="none" points="397,-411 397,-425 541,-425 541,-411 397,-411"/>
<text text-anchor="start" x="398" y="-416.5" font-family="Times,serif" font-weight="bold" font-size="10.00">сообщение:</text>
<text text-anchor="start" x="450" y="-416.5" font-family="Times,serif" font-size="10.00"> after_successed_help</text>
</g>
<!-- [ns&#45;1]finish_successed&#45;&gt;#jump([ns&#45;1]finish_successed, [ns&#45;0]finish_help) -->
<g id="edge1" class="edge"><title>[ns&#45;1]finish_successed:[ns&#45;1]finish_successed&#45;&gt;#jump([ns&#45;1]finish_successed, [ns&#45;0]finish_help):#jump([ns&#45;1]finish_successed, [ns&#45;0]finish_help)</title>
<path fill="none" stroke="black" d="M469,-475.923C469,-456.211 469,-435.429 469,-425.298"/>
</g>
<!-- [ns&#45;0]finish_attack_failed -->
<g id="node8" class="node"><title>[ns&#45;0]finish_attack_failed</title>
<polygon fill="#eeeeee" stroke="none" points="8,-23.5 8,-104.5 192,-104.5 192,-23.5 8,-23.5"/>
<text text-anchor="start" x="10" y="-94.5" font-family="Times,serif" font-style="italic" font-size="10.00">[ns&#45;0]finish_attack_failed</text>
<text text-anchor="start" x="10" y="-80" font-family="Times,serif" font-size="10.00">не удалось выбить долг</text>
<polygon fill="#ffffff" stroke="none" points="9,-63 9,-76 191,-76 191,-63 9,-63"/>
<text text-anchor="start" x="10" y="-68" font-family="Times,serif" font-weight="bold" font-size="10.00">сообщение:</text>
<text text-anchor="start" x="62" y="-68" font-family="Times,serif" font-size="10.00"> finish_attack_failed</text>
<polygon fill="#eeeeee" stroke="none" points="9,-50 9,-63 191,-63 191,-50 9,-50"/>
<text text-anchor="start" x="10" y="-55" font-family="Times,serif" font-weight="bold" font-size="10.00">результаты:</text>
<text text-anchor="start" x="10" y="-42" font-family="Times,serif" font-weight="bold" font-size="10.00">person_1</text>
<text text-anchor="start" x="122" y="-41" font-family="Times,serif" font-size="10.00">neutral</text>
<text text-anchor="start" x="10" y="-29" font-family="Times,serif" font-weight="bold" font-size="10.00">person_9</text>
<text text-anchor="start" x="122" y="-28" font-family="Times,serif" font-size="10.00">neutral</text>
<polygon fill="none" stroke="black" points="8,-23.5 8,-104.5 192,-104.5 192,-23.5 8,-23.5"/>
</g>
<!-- [ns&#45;0]help -->
<g id="node9" class="node"><title>[ns&#45;0]help</title>
<polygon fill="#ddffdd" stroke="none" points="216.5,-766 216.5,-808 333.5,-808 333.5,-766 216.5,-766"/>
<text text-anchor="start" x="219" y="-798.5" font-family="Times,serif" font-style="italic" font-size="10.00">[ns&#45;0]help</text>
<text text-anchor="start" x="219" y="-784" font-family="Times,serif" font-size="10.00">помочь должнику</text>
<polygon fill="#cceecc" stroke="none" points="218,-767 218,-780 333,-780 333,-767 218,-767"/>
<text text-anchor="start" x="219" y="-772" font-family="Times,serif" font-size="10.00">hero </text>
<text text-anchor="start" x="240" y="-772" font-family="Times,serif" font-weight="bold" font-size="10.00">находится в</text>
<text text-anchor="start" x="295" y="-772" font-family="Times,serif" font-size="10.00"> place_9</text>
<polygon fill="none" stroke="black" points="216.5,-766 216.5,-808 333.5,-808 333.5,-766 216.5,-766"/>
</g>
<!-- #jump([ns&#45;0]help, [ns&#45;1]start) -->
<g id="node13" class="node"><title>#jump([ns&#45;0]help, [ns&#45;1]start)</title>
<polygon fill="#eeeeee" stroke="none" points="227,-701 227,-715 334,-715 334,-701 227,-701"/>
<text text-anchor="start" x="228" y="-706.5" font-family="Times,serif" font-weight="bold" font-size="10.00">сообщение:</text>
<text text-anchor="start" x="280" y="-706.5" font-family="Times,serif" font-size="10.00"> before_help</text>
</g>
<!-- [ns&#45;0]help&#45;&gt;#jump([ns&#45;0]help, [ns&#45;1]start) -->
<g id="edge6" class="edge"><title>[ns&#45;0]help:[ns&#45;0]help&#45;&gt;#jump([ns&#45;0]help, [ns&#45;1]start):#jump([ns&#45;0]help, [ns&#45;1]start)</title>
<path fill="none" stroke="black" d="M276.314,-765.769C277.402,-749.015 278.88,-726.253 279.588,-715.342"/>
</g>
<!-- [ns&#45;0]finish_help -->
<g id="node10" class="node"><title>[ns&#45;0]finish_help</title>
<polygon fill="#eeeeee" stroke="none" points="346.5,-240 346.5,-360 591.5,-360 591.5,-240 346.5,-240"/>
<text text-anchor="start" x="349" y="-350.5" font-family="Times,serif" font-style="italic" font-size="10.00">[ns&#45;0]finish_help</text>
<text text-anchor="start" x="349" y="-336" font-family="Times,serif" font-size="10.00">помощь оказана</text>
<polygon fill="#dddddd" stroke="none" points="348,-319 348,-332 591,-332 591,-319 348,-319"/>
<text text-anchor="start" x="349" y="-324" font-family="Times,serif" font-size="10.00">hero </text>
<text text-anchor="start" x="370" y="-324" font-family="Times,serif" font-weight="bold" font-size="10.00">находится в</text>
<text text-anchor="start" x="425" y="-324" font-family="Times,serif" font-size="10.00"> place_1</text>
<polygon fill="#ffffff" stroke="none" points="348,-306 348,-319 591,-319 591,-306 348,-306"/>
<text text-anchor="start" x="349" y="-311" font-family="Times,serif" font-weight="bold" font-size="10.00">выдать награду </text>
<text text-anchor="start" x="424" y="-311" font-family="Times,serif" font-size="10.00">  hero </text>
<text text-anchor="start" x="449" y="-311" font-family="Times,serif" font-weight="bold" font-size="10.00">типа </text>
<text text-anchor="start" x="473" y="-311" font-family="Times,serif" font-size="10.00"> finish_help </text>
<text text-anchor="start" x="525" y="-311" font-family="Times,serif" font-weight="bold" font-size="10.00">в размере</text>
<text text-anchor="start" x="568" y="-311" font-family="Times,serif" font-size="10.00"> 1.00</text>
<polygon fill="#ffffff" stroke="none" points="348,-293 348,-306 591,-306 591,-293 348,-293"/>
<text text-anchor="start" x="349" y="-298" font-family="Times,serif" font-weight="bold" font-size="10.00">увеличить влияние </text>
<text text-anchor="start" x="437" y="-298" font-family="Times,serif" font-size="10.00">  person_1 </text>
<text text-anchor="start" x="482" y="-298" font-family="Times,serif" font-weight="bold" font-size="10.00">на </text>
<text text-anchor="start" x="495" y="-298" font-family="Times,serif" font-size="10.00"> 1.00</text>
<polygon fill="#ffffff" stroke="none" points="348,-280 348,-293 591,-293 591,-280 348,-280"/>
<text text-anchor="start" x="349" y="-285" font-family="Times,serif" font-weight="bold" font-size="10.00">увеличить влияние </text>
<text text-anchor="start" x="437" y="-285" font-family="Times,serif" font-size="10.00">  person_9 </text>
<text text-anchor="start" x="482" y="-285" font-family="Times,serif" font-weight="bold" font-size="10.00">на </text>
<text text-anchor="start" x="495" y="-285" font-family="Times,serif" font-size="10.00"> 1.00</text>
<polygon fill="#eeeeee" stroke="none" points="348,-267 348,-280 591,-280 591,-267 348,-267"/>
<text text-anchor="start" x="349" y="-272" font-family="Times,serif" font-weight="bold" font-size="10.00">результаты:</text>
<text text-anchor="start" x="349" y="-259" font-family="Times,serif" font-weight="bold" font-size="10.00">person_1</text>
<text text-anchor="start" x="471" y="-258" font-family="Times,serif" font-size="10.00">successed</text>
<text text-anchor="start" x="349" y="-246" font-family="Times,serif" font-weight="bold" font-size="10.00">person_9</text>
<text text-anchor="start" x="471" y="-245" font-family="Times,serif" font-size="10.00">successed</text>
<polygon fill="none" stroke="black" points="346.5,-240 346.5,-360 591.5,-360 591.5,-240 346.5,-240"/>
</g>
<!-- #jump([ns&#45;1]finish_successed, [ns&#45;0]finish_help)&#45;&gt;[ns&#45;0]finish_help -->
<g id="edge2" class="edge"><title>#jump([ns&#45;1]finish_successed, [ns&#45;0]finish_help):#jump([ns&#45;1]finish_successed, [ns&#45;0]finish_help)&#45;&gt;[ns&#45;0]finish_help:[ns&#45;0]finish_help</title>
<path fill="none" stroke="black" d="M469,-410.763C469,-402.579 469,-387.292 469,-370.67"/>
<polygon fill="black" stroke="black" points="472.5,-370.2 469,-360.2 465.5,-370.2 472.5,-370.2"/>
</g>
<!-- #jump([ns&#45;1]finish_failed, [ns&#45;0]attack)&#45;&gt;[ns&#45;0]attack -->
<g id="edge4" class="edge"><title>#jump([ns&#45;1]finish_failed, [ns&#45;0]attack):#jump([ns&#45;1]finish_failed, [ns&#45;0]attack)&#45;&gt;[ns&#45;0]attack:[ns&#45;0]attack</title>
<path fill="none" stroke="black" d="M278.914,-410.763C271.973,-400.169 257.233,-377.672 242.895,-355.787"/>
<polygon fill="black" stroke="black" points="245.633,-353.579 237.225,-347.133 239.778,-357.415 245.633,-353.579"/>
</g>
<!-- #jump([ns&#45;0]help, [ns&#45;1]start)&#45;&gt;[ns&#45;1]start -->
<g id="edge7" class="edge"><title>#jump([ns&#45;0]help, [ns&#45;1]start):#jump([ns&#45;0]help, [ns&#45;1]start)&#45;&gt;[ns&#45;1]start:[ns&#45;1]start</title>
<path fill="none" stroke="black" d="M280.246,-700.944C280.634,-691.352 281.412,-672.159 282.043,-656.611"/>
<polygon fill="black" stroke="black" points="285.541,-656.727 282.449,-646.593 278.547,-656.443 285.541,-656.727"/>
</g>
<!-- #option([ns&#45;0]choose_method, [ns&#45;0]attack, attack)&#45;&gt;[ns&#45;0]attack -->
<g id="edge9" class="edge"><title>#option([ns&#45;0]choose_method, [ns&#45;0]attack, attack):#option([ns&#45;0]choose_method, [ns&#45;0]attack, attack)&#45;&gt;[ns&#45;0]attack:[ns&#45;0]attack</title>
<path fill="none" stroke="black" stroke-dasharray="1,5" d="M189.106,-858.774C186.169,-837.749 177,-767.431 177,-709 177,-709 177,-709 177,-522 177,-465.603 186.712,-401.84 195.084,-357.349"/>
<polygon fill="black" stroke="black" points="198.562,-357.797 197.01,-347.316 191.687,-356.476 198.562,-357.797"/>
</g>
<!-- #answer(False, [ns&#45;0]attack, [ns&#45;0]finish_attack_failed)&#45;&gt;[ns&#45;0]finish_attack_failed -->
<g id="edge11" class="edge"><title>#answer(False, [ns&#45;0]attack, [ns&#45;0]finish_attack_failed):#answer(False, [ns&#45;0]attack, [ns&#45;0]finish_attack_failed)&#45;&gt;[ns&#45;0]finish_attack_failed:[ns&#45;0]finish_attack_failed</title>
<path fill="none" stroke="black" d="M126.675,-168.143C123.308,-155.123 117.887,-134.162 112.808,-114.525"/>
<polygon fill="black" stroke="black" points="116.168,-113.536 110.275,-104.73 109.391,-115.288 116.168,-113.536"/>
</g>
<!-- #option([ns&#45;0]choose_method, [ns&#45;0]help, help)&#45;&gt;[ns&#45;0]help -->
<g id="edge13" class="edge"><title>#option([ns&#45;0]choose_method, [ns&#45;0]help, help):#option([ns&#45;0]choose_method, [ns&#45;0]help, help)&#45;&gt;[ns&#45;0]help:[ns&#45;0]help</title>
<path fill="none" stroke="black" stroke-dasharray="1,5" d="M268.549,-858.958C269.345,-850.201 270.875,-833.379 272.244,-818.312"/>
<polygon fill="black" stroke="black" points="275.736,-818.557 273.156,-808.281 268.765,-817.923 275.736,-818.557"/>
</g>
<!-- #answer(True, [ns&#45;0]attack, [ns&#45;0]finish_attack_successed)&#45;&gt;[ns&#45;0]finish_attack_successed -->
<g id="edge16" class="edge"><title>#answer(True, [ns&#45;0]attack, [ns&#45;0]finish_attack_successed):#answer(True, [ns&#45;0]attack, [ns&#45;0]finish_attack_successed)&#45;&gt;[ns&#45;0]finish_attack_successed:[ns&#45;0]finish_attack_successed</title>
<path fill="none" stroke="black" d="M347.436,-168.143C349.783,-159.361 353.095,-146.967 356.613,-133.803"/>
<polygon fill="black" stroke="black" points="360,-134.686 359.2,-124.122 353.237,-132.879 360,-134.686"/>
</g>
</g>
</svg>
