<?xml version="1.0" encoding="UTF-8" standalone="no"?>
<!DOCTYPE svg PUBLIC "-//W3C//DTD SVG 1.1//EN"
 "http://www.w3.org/Graphics/SVG/1.1/DTD/svg11.dtd">
<!-- Generated by graphviz version 2.34.0 (20130907.0221)
 -->
<!-- Title: quest Pages: 1 -->
<svg width="993pt" height="1298pt"
 viewBox="0.00 0.00 993.00 1298.00" xmlns="http://www.w3.org/2000/svg" xmlns:xlink="http://www.w3.org/1999/xlink">
<g id="graph0" class="graph" transform="scale(1 1) rotate(0) translate(4 1294)">
<title>quest</title>
<polygon fill="white" stroke="white" points="-4,4 -4,-1294 989,-1294 989,4 -4,4"/>
<g id="clust1" class="cluster"><title>cluster_[ns&#45;0]help_subquest</title>
<polygon fill="#ddffff" stroke="black" points="8,-208 8,-974 851,-974 851,-208 8,-208"/>
<text text-anchor="middle" x="429.5" y="-958.8" font-family="Times,serif" font-size="14.00">cluster_[ns&#45;0]help_subquest</text>
</g>
<g id="clust2" class="cluster"><title>cluster_[ns&#45;1]open_up_variants</title>
<polygon fill="#ffffdd" stroke="black" points="270,-216 270,-345 843,-345 843,-216 270,-216"/>
<text text-anchor="middle" x="556.5" y="-329.8" font-family="Times,serif" font-size="14.00">cluster_[ns&#45;1]open_up_variants</text>
</g>
<!-- [ns&#45;1]start_spying -->
<g id="node1" class="node"><title>[ns&#45;1]start_spying</title>
<polygon fill="#ddddff" stroke="none" points="332.5,-771.5 332.5,-826.5 501.5,-826.5 501.5,-771.5 332.5,-771.5"/>
<text text-anchor="start" x="335" y="-816.5" font-family="Times,serif" font-style="italic" font-size="10.00">[ns&#45;1]start_spying</text>
<text text-anchor="start" x="335" y="-802" font-family="Times,serif" font-size="10.00">Прибытие в город цели</text>
<polygon fill="#ccccee" stroke="none" points="334,-785 334,-798 501,-798 501,-785 334,-785"/>
<text text-anchor="start" x="335" y="-790" font-family="Times,serif" font-size="10.00">hero </text>
<text text-anchor="start" x="356" y="-790" font-family="Times,serif" font-weight="bold" font-size="10.00">находится в</text>
<text text-anchor="start" x="411" y="-790" font-family="Times,serif" font-size="10.00"> place_3</text>
<polygon fill="#eeeeff" stroke="none" points="334,-772 334,-785 501,-785 501,-772 334,-772"/>
<text text-anchor="start" x="335" y="-777" font-family="Times,serif" font-weight="bold" font-size="10.00">сообщение:</text>
<text text-anchor="start" x="387" y="-777" font-family="Times,serif" font-size="10.00"> arrived_to_target</text>
<polygon fill="none" stroke="black" points="332.5,-771.5 332.5,-826.5 501.5,-826.5 501.5,-771.5 332.5,-771.5"/>
</g>
<!-- #option([ns&#45;1]start_spying, [ns&#45;1]open_up) -->
<g id="node15" class="node"><title>#option([ns&#45;1]start_spying, [ns&#45;1]open_up)</title>
<polygon fill="#ffffff" stroke="none" points="359,-554 359,-568 475,-568 475,-554 359,-554"/>
<text text-anchor="start" x="360" y="-558.5" font-family="Times,serif" font-size="10.00">open_up</text>
<polygon fill="#eeeeee" stroke="none" points="359,-541 359,-554 475,-554 475,-541 359,-541"/>
<text text-anchor="start" x="360" y="-546" font-family="Times,serif" font-weight="bold" font-size="10.00">сообщение:</text>
<text text-anchor="start" x="412" y="-546" font-family="Times,serif" font-size="10.00"> start_open_up</text>
</g>
<!-- [ns&#45;1]start_spying&#45;&gt;#option([ns&#45;1]start_spying, [ns&#45;1]open_up) -->
<g id="edge5" class="edge"><title>[ns&#45;1]start_spying:[ns&#45;1]start_spying&#45;&gt;#option([ns&#45;1]start_spying, [ns&#45;1]open_up):#option([ns&#45;1]start_spying, [ns&#45;1]open_up)</title>
<path fill="none" stroke="black" stroke-dasharray="1,5" d="M417,-771.177C417,-719.122 417,-606.209 417,-568.526"/>
</g>
<!-- #option([ns&#45;1]start_spying, [ns&#45;1]spying_middle) -->
<g id="node21" class="node"><title>#option([ns&#45;1]start_spying, [ns&#45;1]spying_middle)</title>
<polygon fill="#ffffff" stroke="none" points="205,-712 205,-726 313,-726 313,-712 205,-712"/>
<text text-anchor="start" x="206" y="-716.5" font-family="Times,serif" font-size="10.00">spy</text>
<polygon fill="#eeeeee" stroke="none" points="205,-699 205,-712 313,-712 313,-699 205,-699"/>
<text text-anchor="start" x="206" y="-704" font-family="Times,serif" font-weight="bold" font-size="10.00">сообщение:</text>
<text text-anchor="start" x="258" y="-704" font-family="Times,serif" font-size="10.00"> start_spying</text>
</g>
<!-- [ns&#45;1]start_spying&#45;&gt;#option([ns&#45;1]start_spying, [ns&#45;1]spying_middle) -->
<g id="edge19" class="edge"><title>[ns&#45;1]start_spying:[ns&#45;1]start_spying&#45;&gt;#option([ns&#45;1]start_spying, [ns&#45;1]spying_middle):#option([ns&#45;1]start_spying, [ns&#45;1]spying_middle)</title>
<path fill="none" stroke="black" stroke-dasharray="1,5" d="M367.008,-771.422C338.8,-756.426 304.863,-738.383 282.654,-726.576"/>
</g>
<!-- [ns&#45;1]report_data -->
<g id="node2" class="node"><title>[ns&#45;1]report_data</title>
<polygon fill="#eeeeee" stroke="none" points="24,-228.5 24,-309.5 252,-309.5 252,-228.5 24,-228.5"/>
<text text-anchor="start" x="26" y="-299.5" font-family="Times,serif" font-style="italic" font-size="10.00">[ns&#45;1]report_data</text>
<text text-anchor="start" x="129" y="-299.5" font-family="Times,serif" font-weight="bold" font-size="10.00">report_data</text>
<text text-anchor="start" x="204.5" y="-299.5" font-family="Times,serif" font-weight="bold" font-size="10.00">successed</text>
<text text-anchor="start" x="26" y="-285" font-family="Times,serif" font-size="10.00">Сообщить сообранную информацию</text>
<polygon fill="#dddddd" stroke="none" points="25,-268 25,-281 198,-281 198,-268 25,-268"/>
<text text-anchor="start" x="26" y="-273" font-family="Times,serif" font-size="10.00">hero </text>
<text text-anchor="start" x="47" y="-273" font-family="Times,serif" font-weight="bold" font-size="10.00">находится в</text>
<text text-anchor="start" x="102" y="-273" font-family="Times,serif" font-size="10.00"> place_5</text>
<polygon fill="#ffffff" stroke="none" points="25,-255 25,-268 198,-268 198,-255 25,-255"/>
<text text-anchor="start" x="26" y="-260" font-family="Times,serif" font-weight="bold" font-size="10.00">сообщение:</text>
<text text-anchor="start" x="78" y="-260" font-family="Times,serif" font-size="10.00"> report_data</text>
<polygon fill="#ffffff" stroke="none" points="25,-242 25,-255 198,-255 198,-242 25,-242"/>
<text text-anchor="start" x="26" y="-247" font-family="Times,serif" font-weight="bold" font-size="10.00">увеличить влияние </text>
<text text-anchor="start" x="114" y="-247" font-family="Times,serif" font-size="10.00">  person_5 </text>
<text text-anchor="start" x="159" y="-247" font-family="Times,serif" font-weight="bold" font-size="10.00">на </text>
<text text-anchor="start" x="172" y="-247" font-family="Times,serif" font-size="10.00"> 1.00</text>
<polygon fill="#ffffff" stroke="none" points="25,-229 25,-242 198,-242 198,-229 25,-229"/>
<text text-anchor="start" x="26" y="-234" font-family="Times,serif" font-weight="bold" font-size="10.00">увеличить влияние </text>
<text text-anchor="start" x="114" y="-234" font-family="Times,serif" font-size="10.00">  person_3 </text>
<text text-anchor="start" x="159" y="-234" font-family="Times,serif" font-weight="bold" font-size="10.00">на </text>
<text text-anchor="start" x="172" y="-234" font-family="Times,serif" font-size="10.00"> &#45;1.00</text>
<polygon fill="none" stroke="black" points="24,-228.5 24,-309.5 252,-309.5 252,-228.5 24,-228.5"/>
</g>
<!-- [ns&#45;0]finish_help -->
<g id="node14" class="node"><title>[ns&#45;0]finish_help</title>
<polygon fill="#eeeeee" stroke="none" points="170.5,-116 170.5,-184 385.5,-184 385.5,-116 170.5,-116"/>
<text text-anchor="start" x="173" y="-174.5" font-family="Times,serif" font-style="italic" font-size="10.00">[ns&#45;0]finish_help</text>
<text text-anchor="start" x="277" y="-174.5" font-family="Times,serif" font-weight="bold" font-size="10.00">finish_help</text>
<text text-anchor="start" x="344" y="-174.5" font-family="Times,serif" font-weight="bold" font-size="10.00">successed</text>
<text text-anchor="start" x="173" y="-160" font-family="Times,serif" font-size="10.00">помощь оказана</text>
<polygon fill="#ffffff" stroke="none" points="172,-143 172,-156 343,-156 343,-143 172,-143"/>
<text text-anchor="start" x="173" y="-148" font-family="Times,serif" font-weight="bold" font-size="10.00">сообщение:</text>
<text text-anchor="start" x="225" y="-148" font-family="Times,serif" font-size="10.00"> finish_help</text>
<polygon fill="#ffffff" stroke="none" points="172,-130 172,-143 343,-143 343,-130 172,-130"/>
<text text-anchor="start" x="173" y="-135" font-family="Times,serif" font-weight="bold" font-size="10.00">увеличить влияние </text>
<text text-anchor="start" x="261" y="-135" font-family="Times,serif" font-size="10.00">  person_1 </text>
<text text-anchor="start" x="306" y="-135" font-family="Times,serif" font-weight="bold" font-size="10.00">на </text>
<text text-anchor="start" x="319" y="-135" font-family="Times,serif" font-size="10.00"> 1.00</text>
<polygon fill="#ffffff" stroke="none" points="172,-117 172,-130 343,-130 343,-117 172,-117"/>
<text text-anchor="start" x="173" y="-122" font-family="Times,serif" font-weight="bold" font-size="10.00">увеличить влияние </text>
<text text-anchor="start" x="261" y="-122" font-family="Times,serif" font-size="10.00">  person_5 </text>
<text text-anchor="start" x="306" y="-122" font-family="Times,serif" font-weight="bold" font-size="10.00">на </text>
<text text-anchor="start" x="319" y="-122" font-family="Times,serif" font-size="10.00"> 1.00</text>
<polygon fill="none" stroke="black" points="170.5,-116 170.5,-184 385.5,-184 385.5,-116 170.5,-116"/>
</g>
<!-- [ns&#45;1]report_data&#45;&gt;[ns&#45;0]finish_help -->
<g id="edge3" class="edge"><title>[ns&#45;1]report_data:[ns&#45;1]report_data&#45;&gt;[ns&#45;0]finish_help:[ns&#45;0]finish_help</title>
<path fill="none" stroke="black" d="M185.398,-228.389C199.855,-216.307 215.753,-203.021 230.234,-190.918"/>
<polygon fill="black" stroke="black" points="232.687,-193.43 238.116,-184.332 228.198,-188.059 232.687,-193.43"/>
</g>
<!-- [ns&#45;1]continue_spying -->
<g id="node3" class="node"><title>[ns&#45;1]continue_spying</title>
<polygon fill="#ddffdd" stroke="none" points="46.5,-429 46.5,-497 235.5,-497 235.5,-429 46.5,-429"/>
<text text-anchor="start" x="49" y="-487.5" font-family="Times,serif" font-style="italic" font-size="10.00">[ns&#45;1]continue_spying</text>
<text text-anchor="start" x="49" y="-473" font-family="Times,serif" font-size="10.00">Продолжить шпионаж</text>
<polygon fill="#cceecc" stroke="none" points="48,-456 48,-469 235,-469 235,-456 48,-456"/>
<text text-anchor="start" x="49" y="-461" font-family="Times,serif" font-size="10.00">hero </text>
<text text-anchor="start" x="70" y="-461" font-family="Times,serif" font-weight="bold" font-size="10.00">находится около</text>
<text text-anchor="start" x="146" y="-461" font-family="Times,serif" font-size="10.00"> place_3</text>
<polygon fill="#eeffee" stroke="none" points="48,-443 48,-456 235,-456 235,-443 48,-443"/>
<text text-anchor="start" x="49" y="-448" font-family="Times,serif" font-weight="bold" font-size="10.00">отправить </text>
<text text-anchor="start" x="99" y="-448" font-family="Times,serif" font-size="10.00"> hero</text>
<text text-anchor="start" x="120" y="-448" font-family="Times,serif" font-weight="bold" font-size="10.00">бродить около</text>
<text text-anchor="start" x="186" y="-448" font-family="Times,serif" font-size="10.00"> place_3</text>
<polygon fill="#eeffee" stroke="none" points="48,-430 48,-443 235,-443 235,-430 48,-430"/>
<text text-anchor="start" x="49" y="-435" font-family="Times,serif" font-weight="bold" font-size="10.00">сообщение:</text>
<text text-anchor="start" x="101" y="-435" font-family="Times,serif" font-size="10.00"> continue_spying</text>
<polygon fill="none" stroke="black" points="46.5,-429 46.5,-497 235.5,-497 235.5,-429 46.5,-429"/>
</g>
<!-- #jump([ns&#45;1]continue_spying, [ns&#45;1]report_data) -->
<g id="node22" class="node"><title>#jump([ns&#45;1]continue_spying, [ns&#45;1]report_data)</title>
<polygon fill="#eeeeee" stroke="none" points="67,-364 67,-378 213,-378 213,-364 67,-364"/>
<text text-anchor="start" x="68" y="-369.5" font-family="Times,serif" font-weight="bold" font-size="10.00">сообщение:</text>
<text text-anchor="start" x="120" y="-369.5" font-family="Times,serif" font-size="10.00"> move_to_report_data</text>
</g>
<!-- [ns&#45;1]continue_spying&#45;&gt;#jump([ns&#45;1]continue_spying, [ns&#45;1]report_data) -->
<g id="edge22" class="edge"><title>[ns&#45;1]continue_spying:[ns&#45;1]continue_spying&#45;&gt;#jump([ns&#45;1]continue_spying, [ns&#45;1]report_data):#jump([ns&#45;1]continue_spying, [ns&#45;1]report_data)</title>
<path fill="none" stroke="black" d="M140.633,-428.998C140.426,-410.336 140.186,-388.703 140.07,-378.268"/>
</g>
<!-- [ns&#45;1]open_up_lying -->
<g id="node4" class="node"><title>[ns&#45;1]open_up_lying</title>
<polygon fill="#eeeeee" stroke="none" points="286.5,-228.5 286.5,-309.5 547.5,-309.5 547.5,-228.5 286.5,-228.5"/>
<text text-anchor="start" x="289" y="-299.5" font-family="Times,serif" font-style="italic" font-size="10.00">[ns&#45;1]open_up_lying</text>
<text text-anchor="start" x="390" y="-299.5" font-family="Times,serif" font-weight="bold" font-size="10.00">open_up_lying</text>
<text text-anchor="start" x="486" y="-299.5" font-family="Times,serif" font-weight="bold" font-size="10.00">successed</text>
<text text-anchor="start" x="289" y="-285" font-family="Times,serif" font-size="10.00">Вернуться к заказчику и сообщить ложную информацию</text>
<polygon fill="#dddddd" stroke="none" points="288,-268 288,-281 465,-281 465,-268 288,-268"/>
<text text-anchor="start" x="289" y="-273" font-family="Times,serif" font-size="10.00">hero </text>
<text text-anchor="start" x="310" y="-273" font-family="Times,serif" font-weight="bold" font-size="10.00">находится в</text>
<text text-anchor="start" x="365" y="-273" font-family="Times,serif" font-size="10.00"> place_5</text>
<polygon fill="#ffffff" stroke="none" points="288,-255 288,-268 465,-268 465,-255 288,-255"/>
<text text-anchor="start" x="289" y="-260" font-family="Times,serif" font-weight="bold" font-size="10.00">сообщение:</text>
<text text-anchor="start" x="341" y="-260" font-family="Times,serif" font-size="10.00"> open_up_lying</text>
<polygon fill="#ffffff" stroke="none" points="288,-242 288,-255 465,-255 465,-242 288,-242"/>
<text text-anchor="start" x="289" y="-247" font-family="Times,serif" font-weight="bold" font-size="10.00">увеличить влияние </text>
<text text-anchor="start" x="377" y="-247" font-family="Times,serif" font-size="10.00">  person_5 </text>
<text text-anchor="start" x="422" y="-247" font-family="Times,serif" font-weight="bold" font-size="10.00">на </text>
<text text-anchor="start" x="435" y="-247" font-family="Times,serif" font-size="10.00"> &#45;1.00</text>
<polygon fill="#ffffff" stroke="none" points="288,-229 288,-242 465,-242 465,-229 288,-229"/>
<text text-anchor="start" x="289" y="-234" font-family="Times,serif" font-weight="bold" font-size="10.00">увеличить влияние </text>
<text text-anchor="start" x="377" y="-234" font-family="Times,serif" font-size="10.00">  person_3 </text>
<text text-anchor="start" x="422" y="-234" font-family="Times,serif" font-weight="bold" font-size="10.00">на </text>
<text text-anchor="start" x="435" y="-234" font-family="Times,serif" font-size="10.00"> 1.00</text>
<polygon fill="none" stroke="black" points="286.5,-228.5 286.5,-309.5 547.5,-309.5 547.5,-228.5 286.5,-228.5"/>
</g>
<!-- [ns&#45;1]open_up_lying&#45;&gt;[ns&#45;0]finish_help -->
<g id="edge24" class="edge"><title>[ns&#45;1]open_up_lying:[ns&#45;1]open_up_lying&#45;&gt;[ns&#45;0]finish_help:[ns&#45;0]finish_help</title>
<path fill="none" stroke="black" d="M369.941,-228.389C355.587,-216.307 339.802,-203.021 325.424,-190.918"/>
<polygon fill="black" stroke="black" points="327.504,-188.094 317.599,-184.332 322.996,-193.449 327.504,-188.094"/>
</g>
<!-- [ns&#45;1]start -->
<g id="node5" class="node"><title>[ns&#45;1]start</title>
<polygon fill="#eeeeee" stroke="none" points="523.5,-871 523.5,-939 658.5,-939 658.5,-871 523.5,-871"/>
<text text-anchor="start" x="526" y="-929.5" font-family="Times,serif" font-style="italic" font-size="10.00">[ns&#45;1]start</text>
<text text-anchor="start" x="611" y="-929.5" font-family="Times,serif" font-weight="bold" font-size="10.00">spying</text>
<text text-anchor="start" x="526" y="-915" font-family="Times,serif" font-size="10.00">Начало: задание на шпионаж</text>
<polygon fill="#dddddd" stroke="none" points="525,-898 525,-911 658,-911 658,-898 525,-898"/>
<text text-anchor="start" x="526" y="-903" font-family="Times,serif" font-size="10.00">hero </text>
<text text-anchor="start" x="547" y="-903" font-family="Times,serif" font-weight="bold" font-size="10.00">находится в</text>
<text text-anchor="start" x="602" y="-903" font-family="Times,serif" font-size="10.00"> place_5</text>
<polygon fill="#dddddd" stroke="none" points="525,-885 525,-898 658,-898 658,-885 525,-885"/>
<text text-anchor="start" x="526" y="-890" font-family="Times,serif" font-size="10.00">person_3 </text>
<text text-anchor="start" x="566" y="-890" font-family="Times,serif" font-weight="bold" font-size="10.00">находится в</text>
<text text-anchor="start" x="621" y="-890" font-family="Times,serif" font-size="10.00"> place_3</text>
<polygon fill="#ffffff" stroke="none" points="525,-872 525,-885 658,-885 658,-872 525,-872"/>
<text text-anchor="start" x="526" y="-877" font-family="Times,serif" font-weight="bold" font-size="10.00">сообщение:</text>
<text text-anchor="start" x="578" y="-877" font-family="Times,serif" font-size="10.00"> intro</text>
<polygon fill="none" stroke="black" points="523.5,-871 523.5,-939 658.5,-939 658.5,-871 523.5,-871"/>
</g>
<!-- [ns&#45;1]start&#45;&gt;[ns&#45;1]start_spying -->
<g id="edge7" class="edge"><title>[ns&#45;1]start:[ns&#45;1]start&#45;&gt;[ns&#45;1]start_spying:[ns&#45;1]start_spying</title>
<path fill="none" stroke="black" d="M535.467,-870.808C514.581,-858.324 490.898,-844.169 470.227,-831.814"/>
<polygon fill="black" stroke="black" points="471.949,-828.765 461.569,-826.639 468.357,-834.774 471.949,-828.765"/>
</g>
<!-- [ns&#45;0]start -->
<g id="node6" class="node"><title>[ns&#45;0]start</title>
<polygon fill="#eeeeee" stroke="none" points="762.5,-1218 762.5,-1286 897.5,-1286 897.5,-1218 762.5,-1218"/>
<text text-anchor="start" x="765" y="-1276.5" font-family="Times,serif" font-style="italic" font-size="10.00">[ns&#45;0]start</text>
<text text-anchor="start" x="838" y="-1276.5" font-family="Times,serif" font-weight="bold" font-size="10.00">collect_debt</text>
<text text-anchor="start" x="765" y="-1262" font-family="Times,serif" font-size="10.00">Начало: выбить долг</text>
<polygon fill="#dddddd" stroke="none" points="764,-1245 764,-1258 897,-1258 897,-1245 764,-1245"/>
<text text-anchor="start" x="765" y="-1250" font-family="Times,serif" font-size="10.00">hero </text>
<text text-anchor="start" x="786" y="-1250" font-family="Times,serif" font-weight="bold" font-size="10.00">находится в</text>
<text text-anchor="start" x="841" y="-1250" font-family="Times,serif" font-size="10.00"> place_1</text>
<polygon fill="#dddddd" stroke="none" points="764,-1232 764,-1245 897,-1245 897,-1232 764,-1232"/>
<text text-anchor="start" x="765" y="-1237" font-family="Times,serif" font-size="10.00">person_5 </text>
<text text-anchor="start" x="805" y="-1237" font-family="Times,serif" font-weight="bold" font-size="10.00">находится в</text>
<text text-anchor="start" x="860" y="-1237" font-family="Times,serif" font-size="10.00"> place_5</text>
<polygon fill="#ffffff" stroke="none" points="764,-1219 764,-1232 897,-1232 897,-1219 764,-1219"/>
<text text-anchor="start" x="765" y="-1224" font-family="Times,serif" font-weight="bold" font-size="10.00">сообщение:</text>
<text text-anchor="start" x="817" y="-1224" font-family="Times,serif" font-size="10.00"> intro</text>
<polygon fill="none" stroke="black" points="762.5,-1218 762.5,-1286 897.5,-1286 897.5,-1218 762.5,-1218"/>
</g>
<!-- [ns&#45;0]choose_method -->
<g id="node8" class="node"><title>[ns&#45;0]choose_method</title>
<polygon fill="#ddddff" stroke="none" points="729.5,-1132 729.5,-1174 930.5,-1174 930.5,-1132 729.5,-1132"/>
<text text-anchor="start" x="732" y="-1164.5" font-family="Times,serif" font-style="italic" font-size="10.00">[ns&#45;0]choose_method</text>
<text text-anchor="start" x="732" y="-1150" font-family="Times,serif" font-size="10.00">Выбрать метод получения долга</text>
<polygon fill="#ccccee" stroke="none" points="731,-1133 731,-1146 930,-1146 930,-1133 731,-1133"/>
<text text-anchor="start" x="732" y="-1138" font-family="Times,serif" font-size="10.00">hero </text>
<text text-anchor="start" x="753" y="-1138" font-family="Times,serif" font-weight="bold" font-size="10.00">находится в</text>
<text text-anchor="start" x="808" y="-1138" font-family="Times,serif" font-size="10.00"> place_5</text>
<polygon fill="none" stroke="black" points="729.5,-1132 729.5,-1174 930.5,-1174 930.5,-1132 729.5,-1132"/>
</g>
<!-- [ns&#45;0]start&#45;&gt;[ns&#45;0]choose_method -->
<g id="edge4" class="edge"><title>[ns&#45;0]start:[ns&#45;0]start&#45;&gt;[ns&#45;0]choose_method:[ns&#45;0]choose_method</title>
<path fill="none" stroke="black" d="M830,-1217.89C830,-1207.02 830,-1195.01 830,-1184.35"/>
<polygon fill="black" stroke="black" points="833.5,-1184.25 830,-1174.25 826.5,-1184.25 833.5,-1184.25"/>
</g>
<!-- [ns&#45;0]attack -->
<g id="node7" class="node"><title>[ns&#45;0]attack</title>
<polygon fill="#ddffdd" stroke="none" points="772,-129 772,-171 966,-171 966,-129 772,-129"/>
<text text-anchor="start" x="774" y="-161.5" font-family="Times,serif" font-style="italic" font-size="10.00">[ns&#45;0]attack</text>
<text text-anchor="start" x="774" y="-147" font-family="Times,serif" font-size="10.00">сражение с подручными должника</text>
<polygon fill="#eeffee" stroke="none" points="773,-130 773,-143 965,-143 965,-130 773,-130"/>
<text text-anchor="start" x="774" y="-135" font-family="Times,serif" font-weight="bold" font-size="10.00">сразиться с</text>
<text text-anchor="start" x="826" y="-135" font-family="Times,serif" font-size="10.00">  None</text>
<polygon fill="none" stroke="black" points="772,-129 772,-171 966,-171 966,-129 772,-129"/>
</g>
<!-- [ns&#45;0]finish_attack -->
<g id="node9" class="node"><title>[ns&#45;0]finish_attack</title>
<polygon fill="#eeeeee" stroke="none" points="760.5,-4 760.5,-72 977.5,-72 977.5,-4 760.5,-4"/>
<text text-anchor="start" x="763" y="-62.5" font-family="Times,serif" font-style="italic" font-size="10.00">[ns&#45;0]finish_attack</text>
<text text-anchor="start" x="864.5" y="-62.5" font-family="Times,serif" font-weight="bold" font-size="10.00">finish_attack</text>
<text text-anchor="start" x="936" y="-62.5" font-family="Times,serif" font-weight="bold" font-size="10.00">successed</text>
<text text-anchor="start" x="763" y="-48" font-family="Times,serif" font-size="10.00">долг выбит</text>
<polygon fill="#ffffff" stroke="none" points="762,-31 762,-44 935,-44 935,-31 762,-31"/>
<text text-anchor="start" x="763" y="-36" font-family="Times,serif" font-weight="bold" font-size="10.00">сообщение:</text>
<text text-anchor="start" x="815" y="-36" font-family="Times,serif" font-size="10.00"> finish_attack</text>
<polygon fill="#ffffff" stroke="none" points="762,-18 762,-31 935,-31 935,-18 762,-18"/>
<text text-anchor="start" x="763" y="-23" font-family="Times,serif" font-weight="bold" font-size="10.00">увеличить влияние </text>
<text text-anchor="start" x="851" y="-23" font-family="Times,serif" font-size="10.00">  person_1 </text>
<text text-anchor="start" x="896" y="-23" font-family="Times,serif" font-weight="bold" font-size="10.00">на </text>
<text text-anchor="start" x="909" y="-23" font-family="Times,serif" font-size="10.00"> 1.00</text>
<polygon fill="#ffffff" stroke="none" points="762,-5 762,-18 935,-18 935,-5 762,-5"/>
<text text-anchor="start" x="763" y="-10" font-family="Times,serif" font-weight="bold" font-size="10.00">увеличить влияние </text>
<text text-anchor="start" x="851" y="-10" font-family="Times,serif" font-size="10.00">  person_5 </text>
<text text-anchor="start" x="896" y="-10" font-family="Times,serif" font-weight="bold" font-size="10.00">на </text>
<text text-anchor="start" x="909" y="-10" font-family="Times,serif" font-size="10.00"> &#45;1.00</text>
<polygon fill="none" stroke="black" points="760.5,-4 760.5,-72 977.5,-72 977.5,-4 760.5,-4"/>
</g>
<!-- [ns&#45;0]attack&#45;&gt;[ns&#45;0]finish_attack -->
<g id="edge2" class="edge"><title>[ns&#45;0]attack:[ns&#45;0]attack&#45;&gt;[ns&#45;0]finish_attack:[ns&#45;0]finish_attack</title>
<path fill="none" stroke="black" d="M869,-128.824C869,-115.799 869,-98.348 869,-82.2923"/>
<polygon fill="black" stroke="black" points="872.5,-82.0036 869,-72.0036 865.5,-82.0037 872.5,-82.0036"/>
</g>
<!-- #option([ns&#45;0]choose_method, [ns&#45;0]help) -->
<g id="node16" class="node"><title>#option([ns&#45;0]choose_method, [ns&#45;0]help)</title>
<polygon fill="#ffffff" stroke="none" points="783,-1067 783,-1081 805,-1081 805,-1067 783,-1067"/>
<text text-anchor="start" x="784" y="-1071.5" font-family="Times,serif" font-size="10.00">help</text>
</g>
<!-- [ns&#45;0]choose_method&#45;&gt;#option([ns&#45;0]choose_method, [ns&#45;0]help) -->
<g id="edge9" class="edge"><title>[ns&#45;0]choose_method:[ns&#45;0]choose_method&#45;&gt;#option([ns&#45;0]choose_method, [ns&#45;0]help):#option([ns&#45;0]choose_method, [ns&#45;0]help)</title>
<path fill="none" stroke="black" stroke-dasharray="1,5" d="M820.541,-1131.77C812.708,-1115.02 802.066,-1092.25 796.965,-1081.34"/>
</g>
<!-- #option([ns&#45;0]choose_method, [ns&#45;0]attack) -->
<g id="node19" class="node"><title>#option([ns&#45;0]choose_method, [ns&#45;0]attack)</title>
<polygon fill="#ffffff" stroke="none" points="853,-1067 853,-1081 881,-1081 881,-1067 853,-1067"/>
<text text-anchor="start" x="854" y="-1071.5" font-family="Times,serif" font-size="10.00">attack</text>
</g>
<!-- [ns&#45;0]choose_method&#45;&gt;#option([ns&#45;0]choose_method, [ns&#45;0]attack) -->
<g id="edge15" class="edge"><title>[ns&#45;0]choose_method:[ns&#45;0]choose_method&#45;&gt;#option([ns&#45;0]choose_method, [ns&#45;0]attack):#option([ns&#45;0]choose_method, [ns&#45;0]attack)</title>
<path fill="none" stroke="black" stroke-dasharray="1,5" d="M839.721,-1131.77C847.772,-1115.02 858.71,-1092.25 863.952,-1081.34"/>
</g>
<!-- [ns&#45;1]open_up -->
<g id="node10" class="node"><title>[ns&#45;1]open_up</title>
<polygon fill="#ddffdd" stroke="none" points="355.5,-435.5 355.5,-490.5 478.5,-490.5 478.5,-435.5 355.5,-435.5"/>
<text text-anchor="start" x="358" y="-480.5" font-family="Times,serif" font-style="italic" font-size="10.00">[ns&#45;1]open_up</text>
<text text-anchor="start" x="358" y="-466" font-family="Times,serif" font-size="10.00">Раскрыться</text>
<polygon fill="#cceecc" stroke="none" points="357,-449 357,-462 478,-462 478,-449 357,-449"/>
<text text-anchor="start" x="358" y="-454" font-family="Times,serif" font-size="10.00">hero </text>
<text text-anchor="start" x="379" y="-454" font-family="Times,serif" font-weight="bold" font-size="10.00">находится в</text>
<text text-anchor="start" x="434" y="-454" font-family="Times,serif" font-size="10.00"> place_3</text>
<polygon fill="#eeffee" stroke="none" points="357,-436 357,-449 478,-449 478,-436 357,-436"/>
<text text-anchor="start" x="358" y="-441" font-family="Times,serif" font-weight="bold" font-size="10.00">сообщение:</text>
<text text-anchor="start" x="410" y="-441" font-family="Times,serif" font-size="10.00"> open_up</text>
<polygon fill="none" stroke="black" points="355.5,-435.5 355.5,-490.5 478.5,-490.5 478.5,-435.5 355.5,-435.5"/>
</g>
<!-- [ns&#45;1]open_up_finish -->
<g id="node13" class="node"><title>[ns&#45;1]open_up_finish</title>
<polygon fill="#eeeeee" stroke="none" points="581.5,-228.5 581.5,-309.5 826.5,-309.5 826.5,-228.5 581.5,-228.5"/>
<text text-anchor="start" x="584" y="-299.5" font-family="Times,serif" font-style="italic" font-size="10.00">[ns&#45;1]open_up_finish</text>
<text text-anchor="start" x="686.5" y="-299.5" font-family="Times,serif" font-weight="bold" font-size="10.00">open_up_finish</text>
<text text-anchor="start" x="781.5" y="-299.5" font-family="Times,serif" font-weight="bold" font-size="10.00">failed</text>
<text text-anchor="start" x="584" y="-285" font-family="Times,serif" font-size="10.00">Завершить задание и остатсья в городе цели</text>
<polygon fill="#dddddd" stroke="none" points="583,-268 583,-281 762,-281 762,-268 583,-268"/>
<text text-anchor="start" x="584" y="-273" font-family="Times,serif" font-size="10.00">hero </text>
<text text-anchor="start" x="605" y="-273" font-family="Times,serif" font-weight="bold" font-size="10.00">находится в</text>
<text text-anchor="start" x="660" y="-273" font-family="Times,serif" font-size="10.00"> place_3</text>
<polygon fill="#ffffff" stroke="none" points="583,-255 583,-268 762,-268 762,-255 583,-255"/>
<text text-anchor="start" x="584" y="-260" font-family="Times,serif" font-weight="bold" font-size="10.00">сообщение:</text>
<text text-anchor="start" x="636" y="-260" font-family="Times,serif" font-size="10.00"> open_up_finish</text>
<polygon fill="#ffffff" stroke="none" points="583,-242 583,-255 762,-255 762,-242 583,-242"/>
<text text-anchor="start" x="584" y="-247" font-family="Times,serif" font-weight="bold" font-size="10.00">увеличить влияние </text>
<text text-anchor="start" x="672" y="-247" font-family="Times,serif" font-size="10.00">  person_5 </text>
<text text-anchor="start" x="717" y="-247" font-family="Times,serif" font-weight="bold" font-size="10.00">на </text>
<text text-anchor="start" x="730" y="-247" font-family="Times,serif" font-size="10.00"> &#45;1.00</text>
<polygon fill="#ffffff" stroke="none" points="583,-229 583,-242 762,-242 762,-229 583,-229"/>
<text text-anchor="start" x="584" y="-234" font-family="Times,serif" font-weight="bold" font-size="10.00">увеличить влияние </text>
<text text-anchor="start" x="672" y="-234" font-family="Times,serif" font-size="10.00">  person_3 </text>
<text text-anchor="start" x="717" y="-234" font-family="Times,serif" font-weight="bold" font-size="10.00">на </text>
<text text-anchor="start" x="730" y="-234" font-family="Times,serif" font-size="10.00"> 1.00</text>
<polygon fill="none" stroke="black" points="581.5,-228.5 581.5,-309.5 826.5,-309.5 826.5,-228.5 581.5,-228.5"/>
</g>
<!-- [ns&#45;1]open_up&#45;&gt;[ns&#45;1]open_up_finish -->
<g id="edge21" class="edge"><title>[ns&#45;1]open_up:[ns&#45;1]open_up&#45;&gt;[ns&#45;1]open_up_finish:[ns&#45;1]open_up_finish</title>
<path fill="none" stroke="black" d="M456.906,-435.303C503.274,-404.284 580.541,-352.593 636.34,-315.264"/>
<polygon fill="black" stroke="black" points="638.391,-318.103 644.756,-309.633 634.499,-312.285 638.391,-318.103"/>
</g>
<!-- #jump([ns&#45;1]open_up, [ns&#45;1]open_up_lying) -->
<g id="node17" class="node"><title>#jump([ns&#45;1]open_up, [ns&#45;1]open_up_lying)</title>
<polygon fill="#eeeeee" stroke="none" points="348,-364 348,-378 487,-378 487,-364 348,-364"/>
<text text-anchor="start" x="349" y="-369.5" font-family="Times,serif" font-weight="bold" font-size="10.00">сообщение:</text>
<text text-anchor="start" x="401" y="-369.5" font-family="Times,serif" font-size="10.00"> move_to_report_lie</text>
</g>
<!-- [ns&#45;1]open_up&#45;&gt;#jump([ns&#45;1]open_up, [ns&#45;1]open_up_lying) -->
<g id="edge11" class="edge"><title>[ns&#45;1]open_up:[ns&#45;1]open_up&#45;&gt;#jump([ns&#45;1]open_up, [ns&#45;1]open_up_lying):#jump([ns&#45;1]open_up, [ns&#45;1]open_up_lying)</title>
<path fill="none" stroke="black" d="M417,-435.484C417,-415.573 417,-389.819 417,-378.186"/>
</g>
<!-- [ns&#45;1]spying_middle -->
<g id="node11" class="node"><title>[ns&#45;1]spying_middle</title>
<polygon fill="#ddddff" stroke="none" points="170,-613 170,-655 348,-655 348,-613 170,-613"/>
<text text-anchor="start" x="172" y="-645.5" font-family="Times,serif" font-style="italic" font-size="10.00">[ns&#45;1]spying_middle</text>
<text text-anchor="start" x="172" y="-631" font-family="Times,serif" font-size="10.00">Шпионаж</text>
<polygon fill="#eeeeff" stroke="none" points="171,-614 171,-627 347,-627 347,-614 171,-614"/>
<text text-anchor="start" x="172" y="-619" font-family="Times,serif" font-weight="bold" font-size="10.00">отправить </text>
<text text-anchor="start" x="222" y="-619" font-family="Times,serif" font-size="10.00"> hero</text>
<text text-anchor="start" x="243" y="-619" font-family="Times,serif" font-weight="bold" font-size="10.00">бродить около</text>
<text text-anchor="start" x="309" y="-619" font-family="Times,serif" font-size="10.00"> place_3</text>
<polygon fill="none" stroke="black" points="170,-613 170,-655 348,-655 348,-613 170,-613"/>
</g>
<!-- #option([ns&#45;1]spying_middle, [ns&#45;1]continue_spying) -->
<g id="node18" class="node"><title>#option([ns&#45;1]spying_middle, [ns&#45;1]continue_spying)</title>
<polygon fill="#ffffff" stroke="none" points="134,-548 134,-562 152,-562 152,-548 134,-548"/>
<text text-anchor="start" x="135" y="-552.5" font-family="Times,serif" font-size="10.00">spy</text>
</g>
<!-- [ns&#45;1]spying_middle&#45;&gt;#option([ns&#45;1]spying_middle, [ns&#45;1]continue_spying) -->
<g id="edge13" class="edge"><title>[ns&#45;1]spying_middle:[ns&#45;1]spying_middle&#45;&gt;#option([ns&#45;1]spying_middle, [ns&#45;1]continue_spying):#option([ns&#45;1]spying_middle, [ns&#45;1]continue_spying)</title>
<path fill="none" stroke="black" stroke-dasharray="1,5" d="M228.825,-612.97C203.316,-596.037 168.396,-572.858 152.086,-562.031"/>
</g>
<!-- #option([ns&#45;1]spying_middle, [ns&#45;1]open_up) -->
<g id="node20" class="node"><title>#option([ns&#45;1]spying_middle, [ns&#45;1]open_up)</title>
<polygon fill="#ffffff" stroke="none" points="209,-554 209,-568 325,-568 325,-554 209,-554"/>
<text text-anchor="start" x="210" y="-558.5" font-family="Times,serif" font-size="10.00">open_up</text>
<polygon fill="#eeeeee" stroke="none" points="209,-541 209,-554 325,-554 325,-541 209,-541"/>
<text text-anchor="start" x="210" y="-546" font-family="Times,serif" font-weight="bold" font-size="10.00">сообщение:</text>
<text text-anchor="start" x="262" y="-546" font-family="Times,serif" font-size="10.00"> start_open_up</text>
</g>
<!-- [ns&#45;1]spying_middle&#45;&gt;#option([ns&#45;1]spying_middle, [ns&#45;1]open_up) -->
<g id="edge17" class="edge"><title>[ns&#45;1]spying_middle:[ns&#45;1]spying_middle&#45;&gt;#option([ns&#45;1]spying_middle, [ns&#45;1]open_up):#option([ns&#45;1]spying_middle, [ns&#45;1]open_up)</title>
<path fill="none" stroke="black" stroke-dasharray="1,5" d="M261.102,-612.769C262.546,-598.867 264.421,-580.828 265.664,-568.856"/>
</g>
<!-- [ns&#45;0]help -->
<g id="node12" class="node"><title>[ns&#45;0]help</title>
<polygon fill="#ddffdd" stroke="none" points="751,-986.5 751,-1015.5 833,-1015.5 833,-986.5 751,-986.5"/>
<text text-anchor="start" x="753" y="-1005.5" font-family="Times,serif" font-style="italic" font-size="10.00">[ns&#45;0]help</text>
<text text-anchor="start" x="753" y="-991" font-family="Times,serif" font-size="10.00">помочь должнику</text>
<polygon fill="none" stroke="black" points="751,-986.5 751,-1015.5 833,-1015.5 833,-986.5 751,-986.5"/>
</g>
<!-- [ns&#45;0]help&#45;&gt;[ns&#45;1]start -->
<g id="edge8" class="edge"><title>[ns&#45;0]help:[ns&#45;0]help&#45;&gt;[ns&#45;1]start:[ns&#45;1]start</title>
<path fill="none" stroke="black" d="M762.773,-986.332C737.892,-974.696 701.003,-957.444 667.782,-941.908"/>
<polygon fill="black" stroke="black" points="669.063,-938.643 658.522,-937.577 666.098,-944.984 669.063,-938.643"/>
</g>
<!-- [ns&#45;1]open_up_finish&#45;&gt;[ns&#45;0]attack -->
<g id="edge1" class="edge"><title>[ns&#45;1]open_up_finish:[ns&#45;1]open_up_finish&#45;&gt;[ns&#45;0]attack:[ns&#45;0]attack</title>
<path fill="none" stroke="black" d="M759.861,-228.389C783.691,-211.492 810.842,-192.239 832.102,-177.164"/>
<polygon fill="black" stroke="black" points="834.397,-179.827 840.53,-171.188 830.348,-174.117 834.397,-179.827"/>
</g>
<!-- #option([ns&#45;1]start_spying, [ns&#45;1]open_up)&#45;&gt;[ns&#45;1]open_up -->
<g id="edge6" class="edge"><title>#option([ns&#45;1]start_spying, [ns&#45;1]open_up):#option([ns&#45;1]start_spying, [ns&#45;1]open_up)&#45;&gt;[ns&#45;1]open_up:[ns&#45;1]open_up</title>
<path fill="none" stroke="black" stroke-dasharray="1,5" d="M417,-541.486C417,-530.992 417,-515.451 417,-501.037"/>
<polygon fill="black" stroke="black" points="420.5,-500.828 417,-490.828 413.5,-500.828 420.5,-500.828"/>
</g>
<!-- #option([ns&#45;0]choose_method, [ns&#45;0]help)&#45;&gt;[ns&#45;0]help -->
<g id="edge10" class="edge"><title>#option([ns&#45;0]choose_method, [ns&#45;0]help):#option([ns&#45;0]choose_method, [ns&#45;0]help)&#45;&gt;[ns&#45;0]help:[ns&#45;0]help</title>
<path fill="none" stroke="black" stroke-dasharray="1,5" d="M793.829,-1066.95C793.577,-1057.97 793.088,-1040.62 792.679,-1026.11"/>
<polygon fill="black" stroke="black" points="796.168,-1025.65 792.387,-1015.75 789.17,-1025.85 796.168,-1025.65"/>
</g>
<!-- #jump([ns&#45;1]open_up, [ns&#45;1]open_up_lying)&#45;&gt;[ns&#45;1]open_up_lying -->
<g id="edge12" class="edge"><title>#jump([ns&#45;1]open_up, [ns&#45;1]open_up_lying):#jump([ns&#45;1]open_up, [ns&#45;1]open_up_lying)&#45;&gt;[ns&#45;1]open_up_lying:[ns&#45;1]open_up_lying</title>
<path fill="none" stroke="black" d="M417,-363.745C417,-354.737 417,-337.273 417,-319.835"/>
<polygon fill="black" stroke="black" points="420.5,-319.635 417,-309.635 413.5,-319.635 420.5,-319.635"/>
</g>
<!-- #option([ns&#45;1]spying_middle, [ns&#45;1]continue_spying)&#45;&gt;[ns&#45;1]continue_spying -->
<g id="edge14" class="edge"><title>#option([ns&#45;1]spying_middle, [ns&#45;1]continue_spying):#option([ns&#45;1]spying_middle, [ns&#45;1]continue_spying)&#45;&gt;[ns&#45;1]continue_spying:[ns&#45;1]continue_spying</title>
<path fill="none" stroke="black" stroke-dasharray="1,5" d="M142.863,-547.814C142.674,-539.344 142.32,-523.386 141.97,-507.649"/>
<polygon fill="black" stroke="black" points="145.464,-507.34 141.743,-497.421 138.466,-507.496 145.464,-507.34"/>
</g>
<!-- #option([ns&#45;0]choose_method, [ns&#45;0]attack)&#45;&gt;[ns&#45;0]attack -->
<g id="edge16" class="edge"><title>#option([ns&#45;0]choose_method, [ns&#45;0]attack):#option([ns&#45;0]choose_method, [ns&#45;0]attack)&#45;&gt;[ns&#45;0]attack:[ns&#45;0]attack</title>
<path fill="none" stroke="black" stroke-dasharray="1,5" d="M867.125,-1066.93C867.563,-1045.16 869,-968.919 869,-906 869,-906 869,-906 869,-370 869,-302.671 869,-223.698 869,-181.408"/>
<polygon fill="black" stroke="black" points="872.5,-181.229 869,-171.229 865.5,-181.229 872.5,-181.229"/>
</g>
<!-- #option([ns&#45;1]spying_middle, [ns&#45;1]open_up)&#45;&gt;[ns&#45;1]open_up -->
<g id="edge18" class="edge"><title>#option([ns&#45;1]spying_middle, [ns&#45;1]open_up):#option([ns&#45;1]spying_middle, [ns&#45;1]open_up)&#45;&gt;[ns&#45;1]open_up:[ns&#45;1]open_up</title>
<path fill="none" stroke="black" stroke-dasharray="1,5" d="M287.857,-541.486C307.457,-529.726 337.62,-511.628 363.867,-495.88"/>
<polygon fill="black" stroke="black" points="365.823,-498.788 372.598,-490.641 362.222,-492.785 365.823,-498.788"/>
</g>
<!-- #option([ns&#45;1]start_spying, [ns&#45;1]spying_middle)&#45;&gt;[ns&#45;1]spying_middle -->
<g id="edge20" class="edge"><title>#option([ns&#45;1]start_spying, [ns&#45;1]spying_middle):#option([ns&#45;1]start_spying, [ns&#45;1]spying_middle)&#45;&gt;[ns&#45;1]spying_middle:[ns&#45;1]spying_middle</title>
<path fill="none" stroke="black" stroke-dasharray="1,5" d="M259,-699.285C259,-690.035 259,-677.108 259,-665.271"/>
<polygon fill="black" stroke="black" points="262.5,-665.269 259,-655.269 255.5,-665.269 262.5,-665.269"/>
</g>
<!-- #jump([ns&#45;1]continue_spying, [ns&#45;1]report_data)&#45;&gt;[ns&#45;1]report_data -->
<g id="edge23" class="edge"><title>#jump([ns&#45;1]continue_spying, [ns&#45;1]report_data):#jump([ns&#45;1]continue_spying, [ns&#45;1]report_data)&#45;&gt;[ns&#45;1]report_data:[ns&#45;1]report_data</title>
<path fill="none" stroke="black" d="M139.875,-363.745C139.695,-354.737 139.345,-337.273 138.997,-319.835"/>
<polygon fill="black" stroke="black" points="142.492,-319.563 138.793,-309.635 135.493,-319.703 142.492,-319.563"/>
</g>
<!-- #options_link(#option([ns&#45;1]start_spying, [ns&#45;1]spying_middle),#option([ns&#45;1]spying_middle, [ns&#45;1]continue_spying)) -->
<g id="node23" class="node"><title>#options_link(#option([ns&#45;1]start_spying, [ns&#45;1]spying_middle),#option([ns&#45;1]spying_middle, [ns&#45;1]continue_spying))</title>
<ellipse fill="#ffaaaa" stroke="black" cx="201" cy="-799" rx="12" ry="12"/>
<text text-anchor="middle" x="201" y="-796.5" font-family="Times,serif" font-size="10.00">link</text>
</g>
<!-- #options_link(#option([ns&#45;1]start_spying, [ns&#45;1]spying_middle),#option([ns&#45;1]spying_middle, [ns&#45;1]continue_spying))&#45;&gt;#option([ns&#45;1]spying_middle, [ns&#45;1]continue_spying) -->
<g id="edge26" class="edge"><title>#options_link(#option([ns&#45;1]start_spying, [ns&#45;1]spying_middle),#option([ns&#45;1]spying_middle, [ns&#45;1]continue_spying))&#45;&gt;#option([ns&#45;1]spying_middle, [ns&#45;1]continue_spying):#option([ns&#45;1]spying_middle, [ns&#45;1]continue_spying)</title>
<path fill="none" stroke="#ffaaaa" d="M196.53,-787.778C186.824,-765.098 163.821,-708.639 153,-659 145.117,-622.839 143.445,-578.18 143.093,-562.114"/>
</g>
<!-- #options_link(#option([ns&#45;1]start_spying, [ns&#45;1]spying_middle),#option([ns&#45;1]spying_middle, [ns&#45;1]continue_spying))&#45;&gt;#option([ns&#45;1]start_spying, [ns&#45;1]spying_middle) -->
<g id="edge25" class="edge"><title>#options_link(#option([ns&#45;1]start_spying, [ns&#45;1]spying_middle),#option([ns&#45;1]spying_middle, [ns&#45;1]continue_spying))&#45;&gt;#option([ns&#45;1]start_spying, [ns&#45;1]spying_middle):#option([ns&#45;1]start_spying, [ns&#45;1]spying_middle)</title>
<path fill="none" stroke="#ffaaaa" d="M207.429,-788.69C217.87,-773.568 238.526,-743.652 250.281,-726.628"/>
</g>
<!-- #options_link(#option([ns&#45;1]start_spying, [ns&#45;1]open_up),#option([ns&#45;1]spying_middle, [ns&#45;1]open_up)) -->
<g id="node24" class="node"><title>#options_link(#option([ns&#45;1]start_spying, [ns&#45;1]open_up),#option([ns&#45;1]spying_middle, [ns&#45;1]open_up))</title>
<ellipse fill="#ffaaaa" stroke="black" cx="386" cy="-634" rx="12" ry="12"/>
<text text-anchor="middle" x="386" y="-631.5" font-family="Times,serif" font-size="10.00">link</text>
</g>
<!-- #options_link(#option([ns&#45;1]start_spying, [ns&#45;1]open_up),#option([ns&#45;1]spying_middle, [ns&#45;1]open_up))&#45;&gt;#option([ns&#45;1]start_spying, [ns&#45;1]open_up) -->
<g id="edge27" class="edge"><title>#options_link(#option([ns&#45;1]start_spying, [ns&#45;1]open_up),#option([ns&#45;1]spying_middle, [ns&#45;1]open_up))&#45;&gt;#option([ns&#45;1]start_spying, [ns&#45;1]open_up):#option([ns&#45;1]start_spying, [ns&#45;1]open_up)</title>
<path fill="none" stroke="#ffaaaa" d="M390.181,-622.615C395.833,-608.576 405.9,-583.57 411.963,-568.512"/>
</g>
<!-- #options_link(#option([ns&#45;1]start_spying, [ns&#45;1]open_up),#option([ns&#45;1]spying_middle, [ns&#45;1]open_up))&#45;&gt;#option([ns&#45;1]spying_middle, [ns&#45;1]open_up) -->
<g id="edge28" class="edge"><title>#options_link(#option([ns&#45;1]start_spying, [ns&#45;1]open_up),#option([ns&#45;1]spying_middle, [ns&#45;1]open_up))&#45;&gt;#option([ns&#45;1]spying_middle, [ns&#45;1]open_up):#option([ns&#45;1]spying_middle, [ns&#45;1]open_up)</title>
<path fill="none" stroke="#ffaaaa" d="M378.886,-623.885C374.852,-619.088 369.518,-613.322 364,-609 342.85,-592.433 315.822,-578.136 295.672,-568.58"/>
</g>
</g>
</svg>
