<?xml version="1.0" encoding="UTF-8" standalone="no"?>
<!DOCTYPE svg PUBLIC "-//W3C//DTD SVG 1.1//EN"
 "http://www.w3.org/Graphics/SVG/1.1/DTD/svg11.dtd">
<!-- Generated by graphviz version 2.34.0 (20130907.0221)
 -->
<!-- Title: quest Pages: 1 -->
<svg width="584pt" height="864pt"
 viewBox="0.00 0.00 584.00 864.00" xmlns="http://www.w3.org/2000/svg" xmlns:xlink="http://www.w3.org/1999/xlink">
<g id="graph0" class="graph" transform="scale(1 1) rotate(0) translate(4 860)">
<title>quest</title>
<polygon fill="white" stroke="white" points="-4,4 -4,-860 580,-860 580,4 -4,4"/>
<g id="clust1" class="cluster"><title>cluster_[ns&#45;0]help_subquest</title>
<polygon fill="#ddffff" stroke="black" points="98,-216 98,-514 568,-514 568,-216 98,-216"/>
<text text-anchor="middle" x="333" y="-498.8" font-family="Times,serif" font-size="14.00">cluster_[ns&#45;0]help_subquest</text>
</g>
<g id="clust2" class="cluster"><title>cluster_[ns&#45;1]event</title>
<polygon fill="#ffffdd" stroke="black" points="106,-288 106,-365 560,-365 560,-288 106,-288"/>
<text text-anchor="middle" x="333" y="-349.8" font-family="Times,serif" font-size="14.00">cluster_[ns&#45;1]event</text>
</g>
<!-- [ns&#45;1]start -->
<g id="node1" class="node"><title>[ns&#45;1]start</title>
<polygon fill="#eeeeee" stroke="none" points="128.5,-377.5 128.5,-406.5 261.5,-406.5 261.5,-377.5 128.5,-377.5"/>
<text text-anchor="start" x="131" y="-396.5" font-family="Times,serif" font-style="italic" font-size="10.00">[ns&#45;1]start</text>
<text text-anchor="start" x="214.5" y="-396.5" font-family="Times,serif" font-weight="bold" font-size="10.00">simple</text>
<text text-anchor="start" x="131" y="-382" font-family="Times,serif" font-size="10.00">Начало: самый простой квест</text>
<polygon fill="none" stroke="black" points="128.5,-377.5 128.5,-406.5 261.5,-406.5 261.5,-377.5 128.5,-377.5"/>
</g>
<!-- [ns&#45;1]finish_failed -->
<g id="node5" class="node"><title>[ns&#45;1]finish_failed</title>
<polygon fill="#eeeeee" stroke="none" points="122.5,-300.5 122.5,-329.5 297.5,-329.5 297.5,-300.5 122.5,-300.5"/>
<text text-anchor="start" x="125" y="-319.5" font-family="Times,serif" font-style="italic" font-size="10.00">[ns&#45;1]finish_failed</text>
<text text-anchor="start" x="206" y="-319.5" font-family="Times,serif" font-weight="bold" font-size="10.00">finish_failed</text>
<text text-anchor="start" x="266" y="-319.5" font-family="Times,serif" font-weight="bold" font-size="10.00">failed</text>
<text text-anchor="start" x="125" y="-305" font-family="Times,serif" font-size="10.00">завершить задание плохо</text>
<polygon fill="none" stroke="black" points="122.5,-300.5 122.5,-329.5 297.5,-329.5 297.5,-300.5 122.5,-300.5"/>
</g>
<!-- [ns&#45;1]start&#45;&gt;[ns&#45;1]finish_failed -->
<g id="edge13" class="edge"><title>[ns&#45;1]start:[ns&#45;1]start&#45;&gt;[ns&#45;1]finish_failed:[ns&#45;1]finish_failed</title>
<path fill="none" stroke="black" d="M197.751,-377.244C199.845,-366.777 202.776,-352.119 205.247,-339.767"/>
<polygon fill="black" stroke="black" points="208.737,-340.161 207.266,-329.669 201.873,-338.788 208.737,-340.161"/>
</g>
<!-- [ns&#45;1]finish_successed -->
<g id="node7" class="node"><title>[ns&#45;1]finish_successed</title>
<polygon fill="#eeeeee" stroke="none" points="332,-300.5 332,-329.5 544,-329.5 544,-300.5 332,-300.5"/>
<text text-anchor="start" x="334" y="-319.5" font-family="Times,serif" font-style="italic" font-size="10.00">[ns&#45;1]finish_successed</text>
<text text-anchor="start" x="431" y="-319.5" font-family="Times,serif" font-weight="bold" font-size="10.00">finish_successed</text>
<text text-anchor="start" x="502" y="-319.5" font-family="Times,serif" font-weight="bold" font-size="10.00">successed</text>
<text text-anchor="start" x="334" y="-305" font-family="Times,serif" font-size="10.00">завершить задание удачно</text>
<polygon fill="none" stroke="black" points="332,-300.5 332,-329.5 544,-329.5 544,-300.5 332,-300.5"/>
</g>
<!-- [ns&#45;1]start&#45;&gt;[ns&#45;1]finish_successed -->
<g id="edge14" class="edge"><title>[ns&#45;1]start:[ns&#45;1]start&#45;&gt;[ns&#45;1]finish_successed:[ns&#45;1]finish_successed</title>
<path fill="none" stroke="black" d="M261.581,-378.435C278.798,-374.646 297.21,-370.115 314,-365 342.706,-356.255 374.137,-343.801 398.172,-333.638"/>
<polygon fill="black" stroke="black" points="399.839,-336.731 407.659,-329.583 397.088,-330.295 399.839,-336.731"/>
</g>
<!-- [ns&#45;0]start -->
<g id="node2" class="node"><title>[ns&#45;0]start</title>
<polygon fill="#eeeeee" stroke="none" points="44.5,-784 44.5,-852 179.5,-852 179.5,-784 44.5,-784"/>
<text text-anchor="start" x="47" y="-842.5" font-family="Times,serif" font-style="italic" font-size="10.00">[ns&#45;0]start</text>
<text text-anchor="start" x="120" y="-842.5" font-family="Times,serif" font-weight="bold" font-size="10.00">collect_debt</text>
<text text-anchor="start" x="47" y="-828" font-family="Times,serif" font-size="10.00">Начало: выбить долг</text>
<polygon fill="#dddddd" stroke="none" points="46,-811 46,-824 179,-824 179,-811 46,-811"/>
<text text-anchor="start" x="47" y="-816" font-family="Times,serif" font-size="10.00">hero </text>
<text text-anchor="start" x="68" y="-816" font-family="Times,serif" font-weight="bold" font-size="10.00">находится в</text>
<text text-anchor="start" x="123" y="-816" font-family="Times,serif" font-size="10.00"> place_1</text>
<polygon fill="#dddddd" stroke="none" points="46,-798 46,-811 179,-811 179,-798 46,-798"/>
<text text-anchor="start" x="47" y="-803" font-family="Times,serif" font-size="10.00">person_4 </text>
<text text-anchor="start" x="87" y="-803" font-family="Times,serif" font-weight="bold" font-size="10.00">находится в</text>
<text text-anchor="start" x="142" y="-803" font-family="Times,serif" font-size="10.00"> place_4</text>
<polygon fill="#ffffff" stroke="none" points="46,-785 46,-798 179,-798 179,-785 46,-785"/>
<text text-anchor="start" x="47" y="-790" font-family="Times,serif" font-weight="bold" font-size="10.00">сообщение:</text>
<text text-anchor="start" x="99" y="-790" font-family="Times,serif" font-size="10.00"> intro</text>
<polygon fill="none" stroke="black" points="44.5,-784 44.5,-852 179.5,-852 179.5,-784 44.5,-784"/>
</g>
<!-- [ns&#45;0]choose_method -->
<g id="node4" class="node"><title>[ns&#45;0]choose_method</title>
<polygon fill="#ddddff" stroke="none" points="7.5,-684.5 7.5,-739.5 216.5,-739.5 216.5,-684.5 7.5,-684.5"/>
<text text-anchor="start" x="10" y="-729.5" font-family="Times,serif" font-style="italic" font-size="10.00">[ns&#45;0]choose_method</text>
<text text-anchor="start" x="10" y="-715" font-family="Times,serif" font-size="10.00">Выбрать метод получения долга</text>
<polygon fill="#ccccee" stroke="none" points="9,-698 9,-711 216,-711 216,-698 9,-698"/>
<text text-anchor="start" x="10" y="-703" font-family="Times,serif" font-size="10.00">hero </text>
<text text-anchor="start" x="31" y="-703" font-family="Times,serif" font-weight="bold" font-size="10.00">находится в</text>
<text text-anchor="start" x="86" y="-703" font-family="Times,serif" font-size="10.00"> place_4</text>
<polygon fill="#eeeeff" stroke="none" points="9,-685 9,-698 216,-698 216,-685 9,-685"/>
<text text-anchor="start" x="10" y="-690" font-family="Times,serif" font-weight="bold" font-size="10.00">сообщение:</text>
<text text-anchor="start" x="62" y="-690" font-family="Times,serif" font-size="10.00"> move_to_receiver</text>
<polygon fill="none" stroke="black" points="7.5,-684.5 7.5,-739.5 216.5,-739.5 216.5,-684.5 7.5,-684.5"/>
</g>
<!-- [ns&#45;0]start&#45;&gt;[ns&#45;0]choose_method -->
<g id="edge6" class="edge"><title>[ns&#45;0]start:[ns&#45;0]start&#45;&gt;[ns&#45;0]choose_method:[ns&#45;0]choose_method</title>
<path fill="none" stroke="black" d="M112,-783.808C112,-772.996 112,-760.931 112,-749.867"/>
<polygon fill="black" stroke="black" points="115.5,-749.639 112,-739.639 108.5,-749.639 115.5,-749.639"/>
</g>
<!-- [ns&#45;0]attack -->
<g id="node3" class="node"><title>[ns&#45;0]attack</title>
<polygon fill="#ddffdd" stroke="none" points="22,-116 22,-184 232,-184 232,-116 22,-116"/>
<text text-anchor="start" x="24" y="-174.5" font-family="Times,serif" font-style="italic" font-size="10.00">[ns&#45;0]attack</text>
<text text-anchor="start" x="24" y="-160" font-family="Times,serif" font-size="10.00">сражение с подручными должника</text>
<polygon fill="#cceecc" stroke="none" points="23,-143 23,-156 231,-156 231,-143 23,-143"/>
<text text-anchor="start" x="24" y="-148" font-family="Times,serif" font-size="10.00">hero </text>
<text text-anchor="start" x="45" y="-148" font-family="Times,serif" font-weight="bold" font-size="10.00">находится в</text>
<text text-anchor="start" x="100" y="-148" font-family="Times,serif" font-size="10.00"> place_4</text>
<polygon fill="#eeffee" stroke="none" points="23,-130 23,-143 231,-143 231,-130 23,-130"/>
<text text-anchor="start" x="24" y="-135" font-family="Times,serif" font-weight="bold" font-size="10.00">сообщение:</text>
<text text-anchor="start" x="76" y="-135" font-family="Times,serif" font-size="10.00"> attack</text>
<polygon fill="#eeffee" stroke="none" points="23,-117 23,-130 231,-130 231,-117 23,-117"/>
<text text-anchor="start" x="24" y="-122" font-family="Times,serif" font-weight="bold" font-size="10.00">сразиться с</text>
<text text-anchor="start" x="76" y="-122" font-family="Times,serif" font-size="10.00">  None</text>
<polygon fill="none" stroke="black" points="22,-116 22,-184 232,-184 232,-116 22,-116"/>
</g>
<!-- [ns&#45;0]finish_attack -->
<g id="node6" class="node"><title>[ns&#45;0]finish_attack</title>
<polygon fill="#eeeeee" stroke="none" points="18.5,-4 18.5,-72 235.5,-72 235.5,-4 18.5,-4"/>
<text text-anchor="start" x="21" y="-62.5" font-family="Times,serif" font-style="italic" font-size="10.00">[ns&#45;0]finish_attack</text>
<text text-anchor="start" x="122.5" y="-62.5" font-family="Times,serif" font-weight="bold" font-size="10.00">finish_attack</text>
<text text-anchor="start" x="194" y="-62.5" font-family="Times,serif" font-weight="bold" font-size="10.00">successed</text>
<text text-anchor="start" x="21" y="-48" font-family="Times,serif" font-size="10.00">долг выбит</text>
<polygon fill="#dddddd" stroke="none" points="20,-31 20,-44 193,-44 193,-31 20,-31"/>
<text text-anchor="start" x="21" y="-36" font-family="Times,serif" font-size="10.00">hero </text>
<text text-anchor="start" x="42" y="-36" font-family="Times,serif" font-weight="bold" font-size="10.00">находится в</text>
<text text-anchor="start" x="97" y="-36" font-family="Times,serif" font-size="10.00"> place_1</text>
<polygon fill="#ffffff" stroke="none" points="20,-18 20,-31 193,-31 193,-18 20,-18"/>
<text text-anchor="start" x="21" y="-23" font-family="Times,serif" font-weight="bold" font-size="10.00">увеличить влияние </text>
<text text-anchor="start" x="109" y="-23" font-family="Times,serif" font-size="10.00">  person_1 </text>
<text text-anchor="start" x="154" y="-23" font-family="Times,serif" font-weight="bold" font-size="10.00">на </text>
<text text-anchor="start" x="167" y="-23" font-family="Times,serif" font-size="10.00"> 1.00</text>
<polygon fill="#ffffff" stroke="none" points="20,-5 20,-18 193,-18 193,-5 20,-5"/>
<text text-anchor="start" x="21" y="-10" font-family="Times,serif" font-weight="bold" font-size="10.00">увеличить влияние </text>
<text text-anchor="start" x="109" y="-10" font-family="Times,serif" font-size="10.00">  person_4 </text>
<text text-anchor="start" x="154" y="-10" font-family="Times,serif" font-weight="bold" font-size="10.00">на </text>
<text text-anchor="start" x="167" y="-10" font-family="Times,serif" font-size="10.00"> &#45;1.00</text>
<polygon fill="none" stroke="black" points="18.5,-4 18.5,-72 235.5,-72 235.5,-4 18.5,-4"/>
</g>
<!-- [ns&#45;0]attack&#45;&gt;[ns&#45;0]finish_attack -->
<g id="edge3" class="edge"><title>[ns&#45;0]attack:[ns&#45;0]attack&#45;&gt;[ns&#45;0]finish_attack:[ns&#45;0]finish_attack</title>
<path fill="none" stroke="black" d="M127,-115.996C127,-105.434 127,-93.5757 127,-82.3889"/>
<polygon fill="black" stroke="black" points="130.5,-82.3605 127,-72.3605 123.5,-82.3606 130.5,-82.3605"/>
</g>
<!-- #option([ns&#45;0]choose_method, [ns&#45;0]attack) -->
<g id="node12" class="node"><title>#option([ns&#45;0]choose_method, [ns&#45;0]attack)</title>
<polygon fill="#ffffff" stroke="none" points="49,-235 49,-249 77,-249 77,-235 49,-235"/>
<text text-anchor="start" x="50" y="-239.5" font-family="Times,serif" font-size="10.00">attack</text>
</g>
<!-- [ns&#45;0]choose_method&#45;&gt;#option([ns&#45;0]choose_method, [ns&#45;0]attack) -->
<g id="edge7" class="edge"><title>[ns&#45;0]choose_method:[ns&#45;0]choose_method&#45;&gt;#option([ns&#45;0]choose_method, [ns&#45;0]attack):#option([ns&#45;0]choose_method, [ns&#45;0]attack)</title>
<path fill="none" stroke="black" stroke-dasharray="1,5" d="M101.013,-684.405C88.8681,-652.555 71,-597.314 71,-548 71,-548 71,-548 71,-391 71,-335.934 65.4097,-269.51 63.5753,-249.197"/>
</g>
<!-- #option([ns&#45;0]choose_method, [ns&#45;0]help) -->
<g id="node14" class="node"><title>#option([ns&#45;0]choose_method, [ns&#45;0]help)</title>
<polygon fill="#ffffff" stroke="none" points="143,-619 143,-633 165,-633 165,-619 143,-619"/>
<text text-anchor="start" x="144" y="-623.5" font-family="Times,serif" font-size="10.00">help</text>
</g>
<!-- [ns&#45;0]choose_method&#45;&gt;#option([ns&#45;0]choose_method, [ns&#45;0]help) -->
<g id="edge11" class="edge"><title>[ns&#45;0]choose_method:[ns&#45;0]choose_method&#45;&gt;#option([ns&#45;0]choose_method, [ns&#45;0]help):#option([ns&#45;0]choose_method, [ns&#45;0]help)</title>
<path fill="none" stroke="black" stroke-dasharray="1,5" d="M125.289,-684.422C134.325,-666.349 145.574,-643.853 150.912,-633.177"/>
</g>
<!-- #jump([ns&#45;1]finish_failed, [ns&#45;0]attack) -->
<g id="node11" class="node"><title>#jump([ns&#45;1]finish_failed, [ns&#45;0]attack)</title>
<polygon fill="#eeeeee" stroke="none" points="137,-235 137,-249 265,-249 265,-235 137,-235"/>
<text text-anchor="start" x="138" y="-240.5" font-family="Times,serif" font-weight="bold" font-size="10.00">сообщение:</text>
<text text-anchor="start" x="190" y="-240.5" font-family="Times,serif" font-size="10.00"> after_failed_help</text>
</g>
<!-- [ns&#45;1]finish_failed&#45;&gt;#jump([ns&#45;1]finish_failed, [ns&#45;0]attack) -->
<g id="edge4" class="edge"><title>[ns&#45;1]finish_failed:[ns&#45;1]finish_failed&#45;&gt;#jump([ns&#45;1]finish_failed, [ns&#45;0]attack):#jump([ns&#45;1]finish_failed, [ns&#45;0]attack)</title>
<path fill="none" stroke="black" d="M208.265,-300.31C206.303,-284.837 203.198,-260.336 201.767,-249.053"/>
</g>
<!-- #jump([ns&#45;1]finish_successed, [ns&#45;0]finish_help) -->
<g id="node10" class="node"><title>#jump([ns&#45;1]finish_successed, [ns&#45;0]finish_help)</title>
<polygon fill="#eeeeee" stroke="none" points="366,-235 366,-249 510,-249 510,-235 366,-235"/>
<text text-anchor="start" x="367" y="-240.5" font-family="Times,serif" font-weight="bold" font-size="10.00">сообщение:</text>
<text text-anchor="start" x="419" y="-240.5" font-family="Times,serif" font-size="10.00"> after_successed_help</text>
</g>
<!-- [ns&#45;1]finish_successed&#45;&gt;#jump([ns&#45;1]finish_successed, [ns&#45;0]finish_help) -->
<g id="edge1" class="edge"><title>[ns&#45;1]finish_successed:[ns&#45;1]finish_successed&#45;&gt;#jump([ns&#45;1]finish_successed, [ns&#45;0]finish_help):#jump([ns&#45;1]finish_successed, [ns&#45;0]finish_help)</title>
<path fill="none" stroke="black" d="M438,-300.31C438,-284.837 438,-260.336 438,-249.053"/>
</g>
<!-- [ns&#45;0]help -->
<g id="node8" class="node"><title>[ns&#45;0]help</title>
<polygon fill="#ddffdd" stroke="none" points="113.5,-526 113.5,-568 252.5,-568 252.5,-526 113.5,-526"/>
<text text-anchor="start" x="116" y="-558.5" font-family="Times,serif" font-style="italic" font-size="10.00">[ns&#45;0]help</text>
<text text-anchor="start" x="116" y="-544" font-family="Times,serif" font-size="10.00">помочь должнику</text>
<polygon fill="#cceecc" stroke="none" points="115,-527 115,-540 252,-540 252,-527 115,-527"/>
<text text-anchor="start" x="116" y="-532" font-family="Times,serif" font-size="10.00">hero </text>
<text text-anchor="start" x="137" y="-532" font-family="Times,serif" font-weight="bold" font-size="10.00">находится в</text>
<text text-anchor="start" x="192" y="-532" font-family="Times,serif" font-size="10.00"> place_4</text>
<polygon fill="none" stroke="black" points="113.5,-526 113.5,-568 252.5,-568 252.5,-526 113.5,-526"/>
</g>
<!-- #jump([ns&#45;0]help, [ns&#45;1]start) -->
<g id="node13" class="node"><title>#jump([ns&#45;0]help, [ns&#45;1]start)</title>
<polygon fill="#eeeeee" stroke="none" points="135,-458 135,-472 242,-472 242,-458 135,-458"/>
<text text-anchor="start" x="136" y="-463.5" font-family="Times,serif" font-weight="bold" font-size="10.00">сообщение:</text>
<text text-anchor="start" x="188" y="-463.5" font-family="Times,serif" font-size="10.00"> before_help</text>
</g>
<!-- [ns&#45;0]help&#45;&gt;#jump([ns&#45;0]help, [ns&#45;1]start) -->
<g id="edge9" class="edge"><title>[ns&#45;0]help:[ns&#45;0]help&#45;&gt;#jump([ns&#45;0]help, [ns&#45;1]start):#jump([ns&#45;0]help, [ns&#45;1]start)</title>
<path fill="none" stroke="black" d="M184.262,-525.813C185.373,-508.038 186.92,-483.281 187.624,-472.013"/>
</g>
<!-- [ns&#45;0]finish_help -->
<g id="node9" class="node"><title>[ns&#45;0]finish_help</title>
<polygon fill="#eeeeee" stroke="none" points="330.5,-116 330.5,-184 545.5,-184 545.5,-116 330.5,-116"/>
<text text-anchor="start" x="333" y="-174.5" font-family="Times,serif" font-style="italic" font-size="10.00">[ns&#45;0]finish_help</text>
<text text-anchor="start" x="437" y="-174.5" font-family="Times,serif" font-weight="bold" font-size="10.00">finish_help</text>
<text text-anchor="start" x="504" y="-174.5" font-family="Times,serif" font-weight="bold" font-size="10.00">successed</text>
<text text-anchor="start" x="333" y="-160" font-family="Times,serif" font-size="10.00">помощь оказана</text>
<polygon fill="#dddddd" stroke="none" points="332,-143 332,-156 503,-156 503,-143 332,-143"/>
<text text-anchor="start" x="333" y="-148" font-family="Times,serif" font-size="10.00">hero </text>
<text text-anchor="start" x="354" y="-148" font-family="Times,serif" font-weight="bold" font-size="10.00">находится в</text>
<text text-anchor="start" x="409" y="-148" font-family="Times,serif" font-size="10.00"> place_1</text>
<polygon fill="#ffffff" stroke="none" points="332,-130 332,-143 503,-143 503,-130 332,-130"/>
<text text-anchor="start" x="333" y="-135" font-family="Times,serif" font-weight="bold" font-size="10.00">увеличить влияние </text>
<text text-anchor="start" x="421" y="-135" font-family="Times,serif" font-size="10.00">  person_1 </text>
<text text-anchor="start" x="466" y="-135" font-family="Times,serif" font-weight="bold" font-size="10.00">на </text>
<text text-anchor="start" x="479" y="-135" font-family="Times,serif" font-size="10.00"> 1.00</text>
<polygon fill="#ffffff" stroke="none" points="332,-117 332,-130 503,-130 503,-117 332,-117"/>
<text text-anchor="start" x="333" y="-122" font-family="Times,serif" font-weight="bold" font-size="10.00">увеличить влияние </text>
<text text-anchor="start" x="421" y="-122" font-family="Times,serif" font-size="10.00">  person_4 </text>
<text text-anchor="start" x="466" y="-122" font-family="Times,serif" font-weight="bold" font-size="10.00">на </text>
<text text-anchor="start" x="479" y="-122" font-family="Times,serif" font-size="10.00"> 1.00</text>
<polygon fill="none" stroke="black" points="330.5,-116 330.5,-184 545.5,-184 545.5,-116 330.5,-116"/>
</g>
<!-- #jump([ns&#45;1]finish_successed, [ns&#45;0]finish_help)&#45;&gt;[ns&#45;0]finish_help -->
<g id="edge2" class="edge"><title>#jump([ns&#45;1]finish_successed, [ns&#45;0]finish_help):#jump([ns&#45;1]finish_successed, [ns&#45;0]finish_help)&#45;&gt;[ns&#45;0]finish_help:[ns&#45;0]finish_help</title>
<path fill="none" stroke="black" d="M438,-234.814C438,-226.344 438,-210.386 438,-194.649"/>
<polygon fill="black" stroke="black" points="441.5,-194.421 438,-184.421 434.5,-194.421 441.5,-194.421"/>
</g>
<!-- #jump([ns&#45;1]finish_failed, [ns&#45;0]attack)&#45;&gt;[ns&#45;0]attack -->
<g id="edge5" class="edge"><title>#jump([ns&#45;1]finish_failed, [ns&#45;0]attack):#jump([ns&#45;1]finish_failed, [ns&#45;0]attack)&#45;&gt;[ns&#45;0]attack:[ns&#45;0]attack</title>
<path fill="none" stroke="black" d="M195.914,-234.814C188.618,-225.94 174.565,-208.85 161.043,-192.404"/>
<polygon fill="black" stroke="black" points="163.534,-189.922 154.479,-184.421 158.127,-194.368 163.534,-189.922"/>
</g>
<!-- #option([ns&#45;0]choose_method, [ns&#45;0]attack)&#45;&gt;[ns&#45;0]attack -->
<g id="edge8" class="edge"><title>#option([ns&#45;0]choose_method, [ns&#45;0]attack):#option([ns&#45;0]choose_method, [ns&#45;0]attack)&#45;&gt;[ns&#45;0]attack:[ns&#45;0]attack</title>
<path fill="none" stroke="black" stroke-dasharray="1,5" d="M67.399,-234.814C73.6517,-226.021 85.642,-209.16 97.2384,-192.852"/>
<polygon fill="black" stroke="black" points="100.291,-194.599 103.234,-184.421 94.5865,-190.542 100.291,-194.599"/>
</g>
<!-- #jump([ns&#45;0]help, [ns&#45;1]start)&#45;&gt;[ns&#45;1]start -->
<g id="edge10" class="edge"><title>#jump([ns&#45;0]help, [ns&#45;1]start):#jump([ns&#45;0]help, [ns&#45;1]start)&#45;&gt;[ns&#45;1]start:[ns&#45;1]start</title>
<path fill="none" stroke="black" d="M188.597,-457.947C189.482,-448.968 191.193,-431.618 192.623,-417.109"/>
<polygon fill="black" stroke="black" points="196.146,-417.048 193.644,-406.753 189.18,-416.361 196.146,-417.048"/>
</g>
<!-- #option([ns&#45;0]choose_method, [ns&#45;0]help)&#45;&gt;[ns&#45;0]help -->
<g id="edge12" class="edge"><title>#option([ns&#45;0]choose_method, [ns&#45;0]help):#option([ns&#45;0]choose_method, [ns&#45;0]help)&#45;&gt;[ns&#45;0]help:[ns&#45;0]help</title>
<path fill="none" stroke="black" stroke-dasharray="1,5" d="M156.276,-618.958C159.605,-610.117 166.031,-593.055 171.747,-577.877"/>
<polygon fill="black" stroke="black" points="175.112,-578.873 175.362,-568.281 168.562,-576.406 175.112,-578.873"/>
</g>
</g>
</svg>
