<?xml version="1.0" encoding="UTF-8" standalone="no"?>
<!DOCTYPE svg PUBLIC "-//W3C//DTD SVG 1.1//EN"
 "http://www.w3.org/Graphics/SVG/1.1/DTD/svg11.dtd">
<!-- Generated by graphviz version 2.38.0 (20140413.2041)
 -->
<!-- Title: quest Pages: 1 -->
<svg width="569pt" height="1043pt"
 viewBox="0.00 0.00 569.00 1043.00" xmlns="http://www.w3.org/2000/svg" xmlns:xlink="http://www.w3.org/1999/xlink">
<g id="graph0" class="graph" transform="scale(1 1) rotate(0) translate(4 1039)">
<title>quest</title>
<polygon fill="white" stroke="none" points="-4,4 -4,-1039 565,-1039 565,4 -4,4"/>
<g id="clust1" class="cluster"><title>cluster_[ns&#45;0]help_subquest</title>
<polygon fill="#96ffff" stroke="black" points="182,-402 182,-625 516,-625 516,-402 182,-402"/>
<text text-anchor="middle" x="349" y="-609.8" font-family="Times,serif" font-size="14.00">cluster_[ns&#45;0]help_subquest</text>
</g>
<g id="clust2" class="cluster"><title>cluster_[ns&#45;1]event</title>
<polygon fill="#ffffdd" stroke="black" points="190,-410 190,-550 508,-550 508,-410 190,-410"/>
<text text-anchor="middle" x="349" y="-534.8" font-family="Times,serif" font-size="14.00">cluster_[ns&#45;1]event</text>
</g>
<!-- [ns&#45;1]start -->
<g id="node1" class="node"><title>[ns&#45;1]start</title>
<polygon fill="#eeeeee" stroke="none" points="198.5,-562 198.5,-590 329.5,-590 329.5,-562 198.5,-562"/>
<text text-anchor="start" x="201" y="-581" font-family="Times,serif" font-style="italic" font-size="10.00">[ns&#45;1]start</text>
<text text-anchor="start" x="286.5" y="-581" font-family="Times,serif" font-weight="bold" font-size="10.00">simple</text>
<text text-anchor="start" x="201" y="-567" font-family="Times,serif" font-size="10.00">Начало: самый простой квест</text>
<polygon fill="none" stroke="black" points="198.5,-562 198.5,-590 329.5,-590 329.5,-562 198.5,-562"/>
</g>
<!-- [ns&#45;1]finish_failed -->
<g id="node6" class="node"><title>[ns&#45;1]finish_failed</title>
<polygon fill="#eeeeee" stroke="none" points="206,-422 206,-515 318,-515 318,-422 206,-422"/>
<text text-anchor="start" x="208" y="-505.5" font-family="Times,serif" font-style="italic" font-size="10.00">[ns&#45;1]finish_failed</text>
<text text-anchor="start" x="208" y="-491.5" font-family="Times,serif" font-size="10.00">завершить задание плохо</text>
<polygon fill="#eeeeee" stroke="none" points="207,-474.5 207,-487.5 317,-487.5 317,-474.5 207,-474.5"/>
<text text-anchor="start" x="208" y="-479.5" font-family="Times,serif" font-weight="bold" font-size="10.00">результаты:</text>
<text text-anchor="start" x="208" y="-466.5" font-family="Times,serif" font-weight="bold" font-size="10.00">person_2</text>
<text text-anchor="start" x="290" y="-465.5" font-family="Times,serif" font-size="10.00">failed</text>
<text text-anchor="start" x="208" y="-453.5" font-family="Times,serif" font-weight="bold" font-size="10.00">person_5</text>
<text text-anchor="start" x="290" y="-452.5" font-family="Times,serif" font-size="10.00">failed</text>
<text text-anchor="start" x="208" y="-440.5" font-family="Times,serif" font-weight="bold" font-size="10.00">place_2</text>
<text text-anchor="start" x="290" y="-439.5" font-family="Times,serif" font-size="10.00">failed</text>
<text text-anchor="start" x="208" y="-427.5" font-family="Times,serif" font-weight="bold" font-size="10.00">place_5</text>
<text text-anchor="start" x="290" y="-426.5" font-family="Times,serif" font-size="10.00">failed</text>
<polygon fill="none" stroke="black" points="206,-422 206,-515 318,-515 318,-422 206,-422"/>
</g>
<!-- [ns&#45;1]start&#45;&gt;[ns&#45;1]finish_failed -->
<g id="edge14" class="edge"><title>[ns&#45;1]start:[ns&#45;1]start&#45;&gt;[ns&#45;1]finish_failed:[ns&#45;1]finish_failed</title>
<path fill="none" stroke="black" d="M263.747,-561.638C263.569,-552.271 263.319,-539.055 263.063,-525.548"/>
<polygon fill="black" stroke="black" points="266.556,-525.154 262.867,-515.223 259.557,-525.287 266.556,-525.154"/>
</g>
<!-- [ns&#45;1]finish_successed -->
<g id="node7" class="node"><title>[ns&#45;1]finish_successed</title>
<polygon fill="#eeeeee" stroke="none" points="352,-422 352,-515 492,-515 492,-422 352,-422"/>
<text text-anchor="start" x="354" y="-505.5" font-family="Times,serif" font-style="italic" font-size="10.00">[ns&#45;1]finish_successed</text>
<text text-anchor="start" x="354" y="-491.5" font-family="Times,serif" font-size="10.00">завершить задание удачно</text>
<polygon fill="#eeeeee" stroke="none" points="353,-474.5 353,-487.5 491,-487.5 491,-474.5 353,-474.5"/>
<text text-anchor="start" x="354" y="-479.5" font-family="Times,serif" font-weight="bold" font-size="10.00">результаты:</text>
<text text-anchor="start" x="354" y="-466.5" font-family="Times,serif" font-weight="bold" font-size="10.00">person_2</text>
<text text-anchor="start" x="450" y="-465.5" font-family="Times,serif" font-size="10.00">successed</text>
<text text-anchor="start" x="354" y="-453.5" font-family="Times,serif" font-weight="bold" font-size="10.00">person_5</text>
<text text-anchor="start" x="450" y="-452.5" font-family="Times,serif" font-size="10.00">successed</text>
<text text-anchor="start" x="354" y="-440.5" font-family="Times,serif" font-weight="bold" font-size="10.00">place_2</text>
<text text-anchor="start" x="450" y="-439.5" font-family="Times,serif" font-size="10.00">successed</text>
<text text-anchor="start" x="354" y="-427.5" font-family="Times,serif" font-weight="bold" font-size="10.00">place_5</text>
<text text-anchor="start" x="450" y="-426.5" font-family="Times,serif" font-size="10.00">successed</text>
<polygon fill="none" stroke="black" points="352,-422 352,-515 492,-515 492,-422 352,-422"/>
</g>
<!-- [ns&#45;1]start&#45;&gt;[ns&#45;1]finish_successed -->
<g id="edge17" class="edge"><title>[ns&#45;1]start:[ns&#45;1]start&#45;&gt;[ns&#45;1]finish_successed:[ns&#45;1]finish_successed</title>
<path fill="none" stroke="black" d="M309.946,-561.923C318.561,-558.618 327.278,-554.656 335,-550 348.01,-542.155 360.752,-532.14 372.299,-521.859"/>
<polygon fill="black" stroke="black" points="374.688,-524.417 379.704,-515.084 369.964,-519.252 374.688,-524.417"/>
</g>
<!-- [ns&#45;0]start -->
<g id="node2" class="node"><title>[ns&#45;0]start</title>
<polygon fill="#eeeeee" stroke="none" points="144,-964 144,-1031 278,-1031 278,-964 144,-964"/>
<text text-anchor="start" x="146" y="-1021.5" font-family="Times,serif" font-style="italic" font-size="10.00">[ns&#45;0]start</text>
<text text-anchor="start" x="216" y="-1021.5" font-family="Times,serif" font-weight="bold" font-size="10.00">collect_debt</text>
<text text-anchor="start" x="146" y="-1007.5" font-family="Times,serif" font-size="10.00">Начало: выбить долг</text>
<polygon fill="#dddddd" stroke="none" points="145,-990.5 145,-1003.5 277,-1003.5 277,-990.5 145,-990.5"/>
<text text-anchor="start" x="146" y="-995.5" font-family="Times,serif" font-size="10.00">hero </text>
<text text-anchor="start" x="167" y="-995.5" font-family="Times,serif" font-weight="bold" font-size="10.00">находится в</text>
<text text-anchor="start" x="222" y="-995.5" font-family="Times,serif" font-size="10.00"> place_1</text>
<polygon fill="#dddddd" stroke="none" points="145,-977.5 145,-990.5 277,-990.5 277,-977.5 145,-977.5"/>
<text text-anchor="start" x="146" y="-982.5" font-family="Times,serif" font-size="10.00">person_5 </text>
<text text-anchor="start" x="186" y="-982.5" font-family="Times,serif" font-weight="bold" font-size="10.00">находится в</text>
<text text-anchor="start" x="241" y="-982.5" font-family="Times,serif" font-size="10.00"> place_5</text>
<polygon fill="#ffffff" stroke="none" points="145,-964.5 145,-977.5 277,-977.5 277,-964.5 145,-964.5"/>
<text text-anchor="start" x="146" y="-969.5" font-family="Times,serif" font-weight="bold" font-size="10.00">сообщение:</text>
<text text-anchor="start" x="198" y="-969.5" font-family="Times,serif" font-size="10.00"> intro</text>
<polygon fill="none" stroke="black" points="144,-964 144,-1031 278,-1031 278,-964 144,-964"/>
</g>
<!-- [ns&#45;0]choose_method -->
<g id="node5" class="node"><title>[ns&#45;0]choose_method</title>
<polygon fill="#ddddff" stroke="none" points="139.5,-866 139.5,-920 282.5,-920 282.5,-866 139.5,-866"/>
<text text-anchor="start" x="142" y="-911" font-family="Times,serif" font-style="italic" font-size="10.00">[ns&#45;0]choose_method</text>
<text text-anchor="start" x="142" y="-897" font-family="Times,serif" font-size="10.00">Выбрать метод получения долга</text>
<polygon fill="#ccccee" stroke="none" points="141,-880 141,-893 282,-893 282,-880 141,-880"/>
<text text-anchor="start" x="142" y="-885" font-family="Times,serif" font-size="10.00">hero </text>
<text text-anchor="start" x="163" y="-885" font-family="Times,serif" font-weight="bold" font-size="10.00">находится в</text>
<text text-anchor="start" x="218" y="-885" font-family="Times,serif" font-size="10.00"> place_5</text>
<polygon fill="#eeeeff" stroke="none" points="141,-867 141,-880 282,-880 282,-867 141,-867"/>
<text text-anchor="start" x="142" y="-872" font-family="Times,serif" font-weight="bold" font-size="10.00">сообщение:</text>
<text text-anchor="start" x="194" y="-872" font-family="Times,serif" font-size="10.00"> move_to_receiver</text>
<polygon fill="none" stroke="black" points="139.5,-866 139.5,-920 282.5,-920 282.5,-866 139.5,-866"/>
</g>
<!-- [ns&#45;0]start&#45;&gt;[ns&#45;0]choose_method -->
<g id="edge5" class="edge"><title>[ns&#45;0]start:[ns&#45;0]start&#45;&gt;[ns&#45;0]choose_method:[ns&#45;0]choose_method</title>
<path fill="none" stroke="black" d="M211,-963.787C211,-953.131 211,-941.239 211,-930.335"/>
<polygon fill="black" stroke="black" points="214.5,-930.255 211,-920.255 207.5,-930.255 214.5,-930.255"/>
</g>
<!-- [ns&#45;0]attack -->
<g id="node3" class="node"><title>[ns&#45;0]attack</title>
<polygon fill="#ffdddd" stroke="none" points="105,-213 105,-306 257,-306 257,-213 105,-213"/>
<text text-anchor="start" x="107" y="-296.5" font-family="Times,serif" font-style="italic" font-size="10.00">[ns&#45;0]attack</text>
<text text-anchor="start" x="107" y="-282.5" font-family="Times,serif" font-size="10.00">сражение с подручными должника</text>
<polygon fill="#eecccc" stroke="none" points="106,-265.5 106,-278.5 256,-278.5 256,-265.5 106,-265.5"/>
<text text-anchor="start" x="107" y="-270.5" font-family="Times,serif" font-size="10.00">hero </text>
<text text-anchor="start" x="128" y="-270.5" font-family="Times,serif" font-weight="bold" font-size="10.00">находится в</text>
<text text-anchor="start" x="183" y="-270.5" font-family="Times,serif" font-size="10.00"> place_5</text>
<polygon fill="#ffeeee" stroke="none" points="106,-252.5 106,-265.5 256,-265.5 256,-252.5 106,-252.5"/>
<text text-anchor="start" x="107" y="-257.5" font-family="Times,serif" font-weight="bold" font-size="10.00">сообщение:</text>
<text text-anchor="start" x="159" y="-257.5" font-family="Times,serif" font-size="10.00"> attack</text>
<polygon fill="#ffeeee" stroke="none" points="106,-239.5 106,-252.5 256,-252.5 256,-239.5 106,-239.5"/>
<text text-anchor="start" x="107" y="-244.5" font-family="Times,serif" font-weight="bold" font-size="10.00">сразиться с наёмником</text>
<polygon fill="#ffdddd" stroke="none" points="106,-226.5 106,-239.5 256,-239.5 256,-226.5 106,-226.5"/>
<text text-anchor="start" x="107" y="-231.5" font-family="Times,serif" font-weight="bold" font-size="10.00">условия:</text>
<text text-anchor="start" x="107" y="-218.5" font-family="Times,serif" font-weight="bold" font-size="10.00">если </text>
<polygon fill="#ffdddd" stroke="none" points="186,-213.5 186,-226.5 256,-226.5 256,-213.5 186,-213.5"/>
<text text-anchor="start" x="187" y="-218.5" font-family="Times,serif" font-size="10.00">hero </text>
<text text-anchor="start" x="208" y="-218.5" font-family="Times,serif" font-weight="bold" font-size="10.00">жив</text>
<polygon fill="none" stroke="black" points="105,-213 105,-306 257,-306 257,-213 105,-213"/>
</g>
<!-- #answer(False, [ns&#45;0]attack, [ns&#45;0]finish_attack_failed) -->
<g id="node15" class="node"><title>#answer(False, [ns&#45;0]attack, [ns&#45;0]finish_attack_failed)</title>
<polygon fill="#ffffff" stroke="none" points="50,-155 50,-168 160,-168 160,-155 50,-155"/>
<text text-anchor="start" x="51" y="-159" font-family="Times,serif" font-size="10.00">ЛОЖЬ</text>
<polygon fill="#eeeeee" stroke="none" points="50,-142 50,-155 160,-155 160,-142 50,-142"/>
<text text-anchor="start" x="51" y="-147" font-family="Times,serif" font-weight="bold" font-size="10.00">сообщение:</text>
<text text-anchor="start" x="103" y="-147" font-family="Times,serif" font-size="10.00"> attack_failed</text>
</g>
<!-- [ns&#45;0]attack&#45;&gt;#answer(False, [ns&#45;0]attack, [ns&#45;0]finish_attack_failed) -->
<g id="edge10" class="edge"><title>[ns&#45;0]attack:[ns&#45;0]attack&#45;&gt;#answer(False, [ns&#45;0]attack, [ns&#45;0]finish_attack_failed):#answer(False, [ns&#45;0]attack, [ns&#45;0]finish_attack_failed)</title>
<path fill="none" stroke="black" d="M147.223,-212.945C135.012,-196.477 122.213,-179.215 113.952,-168.074"/>
</g>
<!-- #answer(True, [ns&#45;0]attack, [ns&#45;0]finish_attack_successed) -->
<g id="node17" class="node"><title>#answer(True, [ns&#45;0]attack, [ns&#45;0]finish_attack_successed)</title>
<polygon fill="#ffffff" stroke="none" points="245,-155 245,-168 372,-168 372,-155 245,-155"/>
<text text-anchor="start" x="246" y="-159" font-family="Times,serif" font-size="10.00">ИСТИНА</text>
<polygon fill="#eeeeee" stroke="none" points="245,-142 245,-155 372,-155 372,-142 245,-142"/>
<text text-anchor="start" x="246" y="-147" font-family="Times,serif" font-weight="bold" font-size="10.00">сообщение:</text>
<text text-anchor="start" x="298" y="-147" font-family="Times,serif" font-size="10.00"> attack_successed</text>
</g>
<!-- [ns&#45;0]attack&#45;&gt;#answer(True, [ns&#45;0]attack, [ns&#45;0]finish_attack_successed) -->
<g id="edge15" class="edge"><title>[ns&#45;0]attack:[ns&#45;0]attack&#45;&gt;#answer(True, [ns&#45;0]attack, [ns&#45;0]finish_attack_successed):#answer(True, [ns&#45;0]attack, [ns&#45;0]finish_attack_successed)</title>
<path fill="none" stroke="black" d="M237.444,-212.945C257.848,-196.477 279.236,-179.215 293.04,-168.074"/>
</g>
<!-- [ns&#45;0]finish_attack_successed -->
<g id="node4" class="node"><title>[ns&#45;0]finish_attack_successed</title>
<polygon fill="#eeeeee" stroke="none" points="186.5,-4 186.5,-97 481.5,-97 481.5,-4 186.5,-4"/>
<text text-anchor="start" x="189" y="-87.5" font-family="Times,serif" font-style="italic" font-size="10.00">[ns&#45;0]finish_attack_successed</text>
<text text-anchor="start" x="189" y="-73.5" font-family="Times,serif" font-size="10.00">долг выбит</text>
<polygon fill="#dddddd" stroke="none" points="188,-56.5 188,-69.5 481,-69.5 481,-56.5 188,-56.5"/>
<text text-anchor="start" x="189" y="-61.5" font-family="Times,serif" font-size="10.00">hero </text>
<text text-anchor="start" x="210" y="-61.5" font-family="Times,serif" font-weight="bold" font-size="10.00">находится в</text>
<text text-anchor="start" x="265" y="-61.5" font-family="Times,serif" font-size="10.00"> place_1</text>
<polygon fill="#ffffff" stroke="none" points="188,-43.5 188,-56.5 481,-56.5 481,-43.5 188,-43.5"/>
<text text-anchor="start" x="189" y="-48.5" font-family="Times,serif" font-weight="bold" font-size="10.00">выдать награду </text>
<text text-anchor="start" x="264" y="-48.5" font-family="Times,serif" font-size="10.00">  hero </text>
<text text-anchor="start" x="289" y="-48.5" font-family="Times,serif" font-weight="bold" font-size="10.00">типа </text>
<text text-anchor="start" x="313" y="-48.5" font-family="Times,serif" font-size="10.00"> finish_attack_successed </text>
<text text-anchor="start" x="416" y="-48.5" font-family="Times,serif" font-weight="bold" font-size="10.00">в размере</text>
<text text-anchor="start" x="459" y="-48.5" font-family="Times,serif" font-size="10.00"> 1.00</text>
<polygon fill="#eeeeee" stroke="none" points="188,-30.5 188,-43.5 481,-43.5 481,-30.5 188,-30.5"/>
<text text-anchor="start" x="189" y="-35.5" font-family="Times,serif" font-weight="bold" font-size="10.00">результаты:</text>
<text text-anchor="start" x="189" y="-22.5" font-family="Times,serif" font-weight="bold" font-size="10.00">person_1</text>
<text text-anchor="start" x="377" y="-21.5" font-family="Times,serif" font-size="10.00">successed</text>
<text text-anchor="start" x="189" y="-9.5" font-family="Times,serif" font-weight="bold" font-size="10.00">person_5</text>
<text text-anchor="start" x="377" y="-8.5" font-family="Times,serif" font-size="10.00">failed</text>
<polygon fill="none" stroke="black" points="186.5,-4 186.5,-97 481.5,-97 481.5,-4 186.5,-4"/>
</g>
<!-- #option([ns&#45;0]choose_method, [ns&#45;0]attack, attack) -->
<g id="node14" class="node"><title>#option([ns&#45;0]choose_method, [ns&#45;0]attack, attack)</title>
<polygon fill="#ffffff" stroke="none" points="144,-808 144,-821 190,-821 190,-808 144,-808"/>
<text text-anchor="start" x="145" y="-812" font-family="Times,serif" font-size="10.00">attack</text>
<polygon fill="#aadddd" stroke="none" points="144,-795 144,-808 190,-808 190,-795 144,-795"/>
<text text-anchor="start" x="145" y="-799" font-family="Times,serif" font-size="10.00">[агрессия]</text>
</g>
<!-- [ns&#45;0]choose_method&#45;&gt;#option([ns&#45;0]choose_method, [ns&#45;0]attack, attack) -->
<g id="edge8" class="edge"><title>[ns&#45;0]choose_method:[ns&#45;0]choose_method&#45;&gt;#option([ns&#45;0]choose_method, [ns&#45;0]attack, attack):#option([ns&#45;0]choose_method, [ns&#45;0]attack, attack)</title>
<path fill="none" stroke="black" stroke-dasharray="1,5" d="M197.078,-865.738C189.223,-850.92 179.772,-833.093 173.587,-821.426"/>
</g>
<!-- #option([ns&#45;0]choose_method, [ns&#45;0]help, help) -->
<g id="node16" class="node"><title>#option([ns&#45;0]choose_method, [ns&#45;0]help, help)</title>
<polygon fill="#ffffff" stroke="none" points="227,-808 227,-821 284,-821 284,-808 227,-808"/>
<text text-anchor="start" x="228" y="-812" font-family="Times,serif" font-size="10.00">help</text>
<polygon fill="#aadddd" stroke="none" points="227,-795 227,-808 284,-808 284,-795 227,-795"/>
<text text-anchor="start" x="228" y="-799" font-family="Times,serif" font-size="10.00">[миролюбие]</text>
</g>
<!-- [ns&#45;0]choose_method&#45;&gt;#option([ns&#45;0]choose_method, [ns&#45;0]help, help) -->
<g id="edge12" class="edge"><title>[ns&#45;0]choose_method:[ns&#45;0]choose_method&#45;&gt;#option([ns&#45;0]choose_method, [ns&#45;0]help, help):#option([ns&#45;0]choose_method, [ns&#45;0]help, help)</title>
<path fill="none" stroke="black" stroke-dasharray="1,5" d="M224.922,-865.738C232.777,-850.92 242.228,-833.093 248.413,-821.426"/>
</g>
<!-- #jump([ns&#45;1]finish_failed, [ns&#45;0]attack) -->
<g id="node12" class="node"><title>#jump([ns&#45;1]finish_failed, [ns&#45;0]attack)</title>
<polygon fill="#eeeeee" stroke="none" points="199,-357 199,-370 326,-370 326,-357 199,-357"/>
<text text-anchor="start" x="200" y="-362" font-family="Times,serif" font-weight="bold" font-size="10.00">сообщение:</text>
<text text-anchor="start" x="252" y="-362" font-family="Times,serif" font-size="10.00"> after_failed_help</text>
</g>
<!-- [ns&#45;1]finish_failed&#45;&gt;#jump([ns&#45;1]finish_failed, [ns&#45;0]attack) -->
<g id="edge3" class="edge"><title>[ns&#45;1]finish_failed:[ns&#45;1]finish_failed&#45;&gt;#jump([ns&#45;1]finish_failed, [ns&#45;0]attack):#jump([ns&#45;1]finish_failed, [ns&#45;0]attack)</title>
<path fill="none" stroke="black" d="M262,-421.945C262,-401.841 262,-380.554 262,-370.664"/>
</g>
<!-- #jump([ns&#45;1]finish_successed, [ns&#45;0]finish_help) -->
<g id="node11" class="node"><title>#jump([ns&#45;1]finish_successed, [ns&#45;0]finish_help)</title>
<polygon fill="#eeeeee" stroke="none" points="360,-357 360,-370 503,-370 503,-357 360,-357"/>
<text text-anchor="start" x="361" y="-362" font-family="Times,serif" font-weight="bold" font-size="10.00">сообщение:</text>
<text text-anchor="start" x="413" y="-362" font-family="Times,serif" font-size="10.00"> after_successed_help</text>
</g>
<!-- [ns&#45;1]finish_successed&#45;&gt;#jump([ns&#45;1]finish_successed, [ns&#45;0]finish_help) -->
<g id="edge1" class="edge"><title>[ns&#45;1]finish_successed:[ns&#45;1]finish_successed&#45;&gt;#jump([ns&#45;1]finish_successed, [ns&#45;0]finish_help):#jump([ns&#45;1]finish_successed, [ns&#45;0]finish_help)</title>
<path fill="none" stroke="black" d="M426,-421.945C427.765,-401.841 429.634,-380.554 430.503,-370.664"/>
</g>
<!-- [ns&#45;0]finish_attack_failed -->
<g id="node8" class="node"><title>[ns&#45;0]finish_attack_failed</title>
<polygon fill="#eeeeee" stroke="none" points="8,-10.5 8,-90.5 152,-90.5 152,-10.5 8,-10.5"/>
<text text-anchor="start" x="10" y="-81.5" font-family="Times,serif" font-style="italic" font-size="10.00">[ns&#45;0]finish_attack_failed</text>
<text text-anchor="start" x="10" y="-67.5" font-family="Times,serif" font-size="10.00">не удалось выбить долг</text>
<polygon fill="#ffffff" stroke="none" points="9,-50.5 9,-63.5 151,-63.5 151,-50.5 9,-50.5"/>
<text text-anchor="start" x="10" y="-55.5" font-family="Times,serif" font-weight="bold" font-size="10.00">сообщение:</text>
<text text-anchor="start" x="62" y="-55.5" font-family="Times,serif" font-size="10.00"> finish_attack_failed</text>
<polygon fill="#eeeeee" stroke="none" points="9,-37.5 9,-50.5 151,-50.5 151,-37.5 9,-37.5"/>
<text text-anchor="start" x="10" y="-42.5" font-family="Times,serif" font-weight="bold" font-size="10.00">результаты:</text>
<text text-anchor="start" x="10" y="-29.5" font-family="Times,serif" font-weight="bold" font-size="10.00">person_1</text>
<text text-anchor="start" x="121" y="-28.5" font-family="Times,serif" font-size="10.00">neutral</text>
<text text-anchor="start" x="10" y="-16.5" font-family="Times,serif" font-weight="bold" font-size="10.00">person_5</text>
<text text-anchor="start" x="121" y="-15.5" font-family="Times,serif" font-size="10.00">neutral</text>
<polygon fill="none" stroke="black" points="8,-10.5 8,-90.5 152,-90.5 152,-10.5 8,-10.5"/>
</g>
<!-- [ns&#45;0]help -->
<g id="node9" class="node"><title>[ns&#45;0]help</title>
<polygon fill="#ddffdd" stroke="none" points="200.5,-709 200.5,-750 315.5,-750 315.5,-709 200.5,-709"/>
<text text-anchor="start" x="203" y="-740.5" font-family="Times,serif" font-style="italic" font-size="10.00">[ns&#45;0]help</text>
<text text-anchor="start" x="203" y="-726.5" font-family="Times,serif" font-size="10.00">помочь должнику</text>
<polygon fill="#cceecc" stroke="none" points="202,-709.5 202,-722.5 315,-722.5 315,-709.5 202,-709.5"/>
<text text-anchor="start" x="203" y="-714.5" font-family="Times,serif" font-size="10.00">hero </text>
<text text-anchor="start" x="224" y="-714.5" font-family="Times,serif" font-weight="bold" font-size="10.00">находится в</text>
<text text-anchor="start" x="279" y="-714.5" font-family="Times,serif" font-size="10.00"> place_5</text>
<polygon fill="none" stroke="black" points="200.5,-709 200.5,-750 315.5,-750 315.5,-709 200.5,-709"/>
</g>
<!-- #jump([ns&#45;0]help, [ns&#45;1]start) -->
<g id="node13" class="node"><title>#jump([ns&#45;0]help, [ns&#45;1]start)</title>
<polygon fill="#eeeeee" stroke="none" points="209,-644 209,-657 315,-657 315,-644 209,-644"/>
<text text-anchor="start" x="210" y="-649" font-family="Times,serif" font-weight="bold" font-size="10.00">сообщение:</text>
<text text-anchor="start" x="262" y="-649" font-family="Times,serif" font-size="10.00"> before_help</text>
</g>
<!-- [ns&#45;0]help&#45;&gt;#jump([ns&#45;0]help, [ns&#45;1]start) -->
<g id="edge6" class="edge"><title>[ns&#45;0]help:[ns&#45;0]help&#45;&gt;#jump([ns&#45;0]help, [ns&#45;1]start):#jump([ns&#45;0]help, [ns&#45;1]start)</title>
<path fill="none" stroke="black" d="M259.03,-708.799C259.919,-691.8 261.145,-668.35 261.703,-657.687"/>
</g>
<!-- [ns&#45;0]finish_help -->
<g id="node10" class="node"><title>[ns&#45;0]finish_help</title>
<polygon fill="#eeeeee" stroke="none" points="309,-213 309,-306 553,-306 553,-213 309,-213"/>
<text text-anchor="start" x="311" y="-296.5" font-family="Times,serif" font-style="italic" font-size="10.00">[ns&#45;0]finish_help</text>
<text text-anchor="start" x="311" y="-282.5" font-family="Times,serif" font-size="10.00">помощь оказана</text>
<polygon fill="#dddddd" stroke="none" points="310,-265.5 310,-278.5 552,-278.5 552,-265.5 310,-265.5"/>
<text text-anchor="start" x="311" y="-270.5" font-family="Times,serif" font-size="10.00">hero </text>
<text text-anchor="start" x="332" y="-270.5" font-family="Times,serif" font-weight="bold" font-size="10.00">находится в</text>
<text text-anchor="start" x="387" y="-270.5" font-family="Times,serif" font-size="10.00"> place_1</text>
<polygon fill="#ffffff" stroke="none" points="310,-252.5 310,-265.5 552,-265.5 552,-252.5 310,-252.5"/>
<text text-anchor="start" x="311" y="-257.5" font-family="Times,serif" font-weight="bold" font-size="10.00">выдать награду </text>
<text text-anchor="start" x="386" y="-257.5" font-family="Times,serif" font-size="10.00">  hero </text>
<text text-anchor="start" x="411" y="-257.5" font-family="Times,serif" font-weight="bold" font-size="10.00">типа </text>
<text text-anchor="start" x="435" y="-257.5" font-family="Times,serif" font-size="10.00"> finish_help </text>
<text text-anchor="start" x="487" y="-257.5" font-family="Times,serif" font-weight="bold" font-size="10.00">в размере</text>
<text text-anchor="start" x="530" y="-257.5" font-family="Times,serif" font-size="10.00"> 1.00</text>
<polygon fill="#eeeeee" stroke="none" points="310,-239.5 310,-252.5 552,-252.5 552,-239.5 310,-239.5"/>
<text text-anchor="start" x="311" y="-244.5" font-family="Times,serif" font-weight="bold" font-size="10.00">результаты:</text>
<text text-anchor="start" x="311" y="-231.5" font-family="Times,serif" font-weight="bold" font-size="10.00">person_1</text>
<text text-anchor="start" x="448" y="-230.5" font-family="Times,serif" font-size="10.00">successed</text>
<text text-anchor="start" x="311" y="-218.5" font-family="Times,serif" font-weight="bold" font-size="10.00">person_5</text>
<text text-anchor="start" x="448" y="-217.5" font-family="Times,serif" font-size="10.00">successed</text>
<polygon fill="none" stroke="black" points="309,-213 309,-306 553,-306 553,-213 309,-213"/>
</g>
<!-- #jump([ns&#45;1]finish_successed, [ns&#45;0]finish_help)&#45;&gt;[ns&#45;0]finish_help -->
<g id="edge2" class="edge"><title>#jump([ns&#45;1]finish_successed, [ns&#45;0]finish_help):#jump([ns&#45;1]finish_successed, [ns&#45;0]finish_help)&#45;&gt;[ns&#45;0]finish_help:[ns&#45;0]finish_help</title>
<path fill="none" stroke="black" d="M431,-357.489C431,-349.362 431,-333.308 431,-316.562"/>
<polygon fill="black" stroke="black" points="434.5,-316.111 431,-306.111 427.5,-316.111 434.5,-316.111"/>
</g>
<!-- #jump([ns&#45;1]finish_failed, [ns&#45;0]attack)&#45;&gt;[ns&#45;0]attack -->
<g id="edge4" class="edge"><title>#jump([ns&#45;1]finish_failed, [ns&#45;0]attack):#jump([ns&#45;1]finish_failed, [ns&#45;0]attack)&#45;&gt;[ns&#45;0]attack:[ns&#45;0]attack</title>
<path fill="none" stroke="black" d="M257.645,-357.489C250.92,-348.979 237.325,-331.776 223.427,-314.189"/>
<polygon fill="black" stroke="black" points="225.99,-311.787 217.044,-306.111 220.498,-316.127 225.99,-311.787"/>
</g>
<!-- #jump([ns&#45;0]help, [ns&#45;1]start)&#45;&gt;[ns&#45;1]start -->
<g id="edge7" class="edge"><title>#jump([ns&#45;0]help, [ns&#45;1]start):#jump([ns&#45;0]help, [ns&#45;1]start)&#45;&gt;[ns&#45;1]start:[ns&#45;1]start</title>
<path fill="none" stroke="black" d="M262.157,-644.272C262.412,-634.968 262.93,-616.06 263.352,-600.654"/>
<polygon fill="black" stroke="black" points="266.862,-600.333 263.637,-590.241 259.865,-600.141 266.862,-600.333"/>
</g>
<!-- #option([ns&#45;0]choose_method, [ns&#45;0]attack, attack)&#45;&gt;[ns&#45;0]attack -->
<g id="edge9" class="edge"><title>#option([ns&#45;0]choose_method, [ns&#45;0]attack, attack):#option([ns&#45;0]choose_method, [ns&#45;0]attack, attack)&#45;&gt;[ns&#45;0]attack:[ns&#45;0]attack</title>
<path fill="none" stroke="black" stroke-dasharray="1,5" d="M166.346,-794.946C164.991,-768.877 162,-705.309 162,-652 162,-652 162,-652 162,-467.5 162,-415.99 167.906,-357.571 173.133,-315.96"/>
<polygon fill="black" stroke="black" points="176.607,-316.387 174.408,-306.023 169.664,-315.496 176.607,-316.387"/>
</g>
<!-- #answer(False, [ns&#45;0]attack, [ns&#45;0]finish_attack_failed)&#45;&gt;[ns&#45;0]finish_attack_failed -->
<g id="edge11" class="edge"><title>#answer(False, [ns&#45;0]attack, [ns&#45;0]finish_attack_failed):#answer(False, [ns&#45;0]attack, [ns&#45;0]finish_attack_failed)&#45;&gt;[ns&#45;0]finish_attack_failed:[ns&#45;0]finish_attack_failed</title>
<path fill="none" stroke="black" d="M102.034,-141.839C99.5088,-131.486 95.7056,-115.893 91.9662,-100.562"/>
<polygon fill="black" stroke="black" points="95.3022,-99.468 89.5322,-90.5821 88.5015,-101.127 95.3022,-99.468"/>
</g>
<!-- #option([ns&#45;0]choose_method, [ns&#45;0]help, help)&#45;&gt;[ns&#45;0]help -->
<g id="edge13" class="edge"><title>#option([ns&#45;0]choose_method, [ns&#45;0]help, help):#option([ns&#45;0]choose_method, [ns&#45;0]help, help)&#45;&gt;[ns&#45;0]help:[ns&#45;0]help</title>
<path fill="none" stroke="black" stroke-dasharray="1,5" d="M255.482,-794.709C255.846,-785.432 256.361,-772.297 256.831,-760.321"/>
<polygon fill="black" stroke="black" points="260.332,-760.352 257.227,-750.222 253.337,-760.078 260.332,-760.352"/>
</g>
<!-- #answer(True, [ns&#45;0]attack, [ns&#45;0]finish_attack_successed)&#45;&gt;[ns&#45;0]finish_attack_successed -->
<g id="edge16" class="edge"><title>#answer(True, [ns&#45;0]attack, [ns&#45;0]finish_attack_successed):#answer(True, [ns&#45;0]attack, [ns&#45;0]finish_attack_successed)&#45;&gt;[ns&#45;0]finish_attack_successed:[ns&#45;0]finish_attack_successed</title>
<path fill="none" stroke="black" d="M311.085,-141.839C313.336,-132.965 316.563,-120.241 319.888,-107.132"/>
<polygon fill="black" stroke="black" points="323.369,-107.644 322.436,-97.0899 316.584,-105.922 323.369,-107.644"/>
</g>
</g>
</svg>
