<?xml version="1.0" encoding="UTF-8" standalone="no"?>
<!DOCTYPE svg PUBLIC "-//W3C//DTD SVG 1.1//EN"
 "http://www.w3.org/Graphics/SVG/1.1/DTD/svg11.dtd">
<!-- Generated by graphviz version 2.34.0 (20130907.0221)
 -->
<!-- Title: quest Pages: 1 -->
<svg width="500pt" height="892pt"
 viewBox="0.00 0.00 500.00 892.00" xmlns="http://www.w3.org/2000/svg" xmlns:xlink="http://www.w3.org/1999/xlink">
<g id="graph0" class="graph" transform="scale(1 1) rotate(0) translate(4 888)">
<title>quest</title>
<polygon fill="white" stroke="white" points="-4,4 -4,-888 496,-888 496,4 -4,4"/>
<g id="clust1" class="cluster"><title>cluster_[ns&#45;0]help_subquest</title>
<polygon fill="#ddffff" stroke="black" points="8,-244 8,-542 384,-542 384,-244 8,-244"/>
<text text-anchor="middle" x="196" y="-526.8" font-family="Times,serif" font-size="14.00">cluster_[ns&#45;0]help_subquest</text>
</g>
<g id="clust2" class="cluster"><title>cluster_[ns&#45;1]event</title>
<polygon fill="#ffffdd" stroke="black" points="16,-316 16,-393 376,-393 376,-316 16,-316"/>
<text text-anchor="middle" x="196" y="-377.8" font-family="Times,serif" font-size="14.00">cluster_[ns&#45;1]event</text>
</g>
<!-- [ns&#45;1]start -->
<g id="node1" class="node"><title>[ns&#45;1]start</title>
<polygon fill="#eeeeee" stroke="none" points="226.5,-405.5 226.5,-434.5 359.5,-434.5 359.5,-405.5 226.5,-405.5"/>
<text text-anchor="start" x="229" y="-424.5" font-family="Times,serif" font-style="italic" font-size="10.00">[ns&#45;1]start</text>
<text text-anchor="start" x="312.5" y="-424.5" font-family="Times,serif" font-weight="bold" font-size="10.00">simple</text>
<text text-anchor="start" x="229" y="-410" font-family="Times,serif" font-size="10.00">Начало: самый простой квест</text>
<polygon fill="none" stroke="black" points="226.5,-405.5 226.5,-434.5 359.5,-434.5 359.5,-405.5 226.5,-405.5"/>
</g>
<!-- [ns&#45;1]finish_failed -->
<g id="node5" class="node"><title>[ns&#45;1]finish_failed</title>
<polygon fill="#eeeeee" stroke="none" points="222,-328.5 222,-357.5 360,-357.5 360,-328.5 222,-328.5"/>
<text text-anchor="start" x="224" y="-347.5" font-family="Times,serif" font-style="italic" font-size="10.00">[ns&#45;1]finish_failed</text>
<text text-anchor="start" x="319" y="-347.5" font-family="Times,serif" font-weight="bold" font-size="10.00">failed</text>
<text text-anchor="start" x="224" y="-333" font-family="Times,serif" font-size="10.00">завершить задание плохо</text>
<polygon fill="none" stroke="black" points="222,-328.5 222,-357.5 360,-357.5 360,-328.5 222,-328.5"/>
</g>
<!-- [ns&#45;1]start&#45;&gt;[ns&#45;1]finish_failed -->
<g id="edge13" class="edge"><title>[ns&#45;1]start:[ns&#45;1]start&#45;&gt;[ns&#45;1]finish_failed:[ns&#45;1]finish_failed</title>
<path fill="none" stroke="black" d="M292.633,-405.244C292.354,-394.777 291.963,-380.119 291.634,-367.767"/>
<polygon fill="black" stroke="black" points="295.13,-367.572 291.365,-357.669 288.132,-367.759 295.13,-367.572"/>
</g>
<!-- [ns&#45;1]finish_successed -->
<g id="node7" class="node"><title>[ns&#45;1]finish_successed</title>
<polygon fill="#eeeeee" stroke="none" points="32,-328.5 32,-357.5 188,-357.5 188,-328.5 32,-328.5"/>
<text text-anchor="start" x="34" y="-347.5" font-family="Times,serif" font-style="italic" font-size="10.00">[ns&#45;1]finish_successed</text>
<text text-anchor="start" x="138.5" y="-347.5" font-family="Times,serif" font-weight="bold" font-size="10.00">successed</text>
<text text-anchor="start" x="34" y="-333" font-family="Times,serif" font-size="10.00">завершить задание удачно</text>
<polygon fill="none" stroke="black" points="32,-328.5 32,-357.5 188,-357.5 188,-328.5 32,-328.5"/>
</g>
<!-- [ns&#45;1]start&#45;&gt;[ns&#45;1]finish_successed -->
<g id="edge14" class="edge"><title>[ns&#45;1]start:[ns&#45;1]start&#45;&gt;[ns&#45;1]finish_successed:[ns&#45;1]finish_successed</title>
<path fill="none" stroke="black" d="M241.255,-405.484C229.205,-401.851 216.531,-397.629 205,-393 183.442,-384.346 160.252,-372.439 142.181,-362.53"/>
<polygon fill="black" stroke="black" points="143.674,-359.356 133.233,-357.558 140.274,-365.474 143.674,-359.356"/>
</g>
<!-- [ns&#45;0]start -->
<g id="node2" class="node"><title>[ns&#45;0]start</title>
<polygon fill="#eeeeee" stroke="none" points="301.5,-812 301.5,-880 436.5,-880 436.5,-812 301.5,-812"/>
<text text-anchor="start" x="304" y="-870.5" font-family="Times,serif" font-style="italic" font-size="10.00">[ns&#45;0]start</text>
<text text-anchor="start" x="377" y="-870.5" font-family="Times,serif" font-weight="bold" font-size="10.00">collect_debt</text>
<text text-anchor="start" x="304" y="-856" font-family="Times,serif" font-size="10.00">Начало: выбить долг</text>
<polygon fill="#dddddd" stroke="none" points="303,-839 303,-852 436,-852 436,-839 303,-839"/>
<text text-anchor="start" x="304" y="-844" font-family="Times,serif" font-size="10.00">hero </text>
<text text-anchor="start" x="325" y="-844" font-family="Times,serif" font-weight="bold" font-size="10.00">находится в</text>
<text text-anchor="start" x="380" y="-844" font-family="Times,serif" font-size="10.00"> place_1</text>
<polygon fill="#dddddd" stroke="none" points="303,-826 303,-839 436,-839 436,-826 303,-826"/>
<text text-anchor="start" x="304" y="-831" font-family="Times,serif" font-size="10.00">person_2 </text>
<text text-anchor="start" x="344" y="-831" font-family="Times,serif" font-weight="bold" font-size="10.00">находится в</text>
<text text-anchor="start" x="399" y="-831" font-family="Times,serif" font-size="10.00"> place_2</text>
<polygon fill="#ffffff" stroke="none" points="303,-813 303,-826 436,-826 436,-813 303,-813"/>
<text text-anchor="start" x="304" y="-818" font-family="Times,serif" font-weight="bold" font-size="10.00">сообщение:</text>
<text text-anchor="start" x="356" y="-818" font-family="Times,serif" font-size="10.00"> intro</text>
<polygon fill="none" stroke="black" points="301.5,-812 301.5,-880 436.5,-880 436.5,-812 301.5,-812"/>
</g>
<!-- [ns&#45;0]choose_method -->
<g id="node4" class="node"><title>[ns&#45;0]choose_method</title>
<polygon fill="#ddddff" stroke="none" points="264.5,-712.5 264.5,-767.5 473.5,-767.5 473.5,-712.5 264.5,-712.5"/>
<text text-anchor="start" x="267" y="-757.5" font-family="Times,serif" font-style="italic" font-size="10.00">[ns&#45;0]choose_method</text>
<text text-anchor="start" x="267" y="-743" font-family="Times,serif" font-size="10.00">Выбрать метод получения долга</text>
<polygon fill="#ccccee" stroke="none" points="266,-726 266,-739 473,-739 473,-726 266,-726"/>
<text text-anchor="start" x="267" y="-731" font-family="Times,serif" font-size="10.00">hero </text>
<text text-anchor="start" x="288" y="-731" font-family="Times,serif" font-weight="bold" font-size="10.00">находится в</text>
<text text-anchor="start" x="343" y="-731" font-family="Times,serif" font-size="10.00"> place_2</text>
<polygon fill="#eeeeff" stroke="none" points="266,-713 266,-726 473,-726 473,-713 266,-713"/>
<text text-anchor="start" x="267" y="-718" font-family="Times,serif" font-weight="bold" font-size="10.00">сообщение:</text>
<text text-anchor="start" x="319" y="-718" font-family="Times,serif" font-size="10.00"> move_to_receiver</text>
<polygon fill="none" stroke="black" points="264.5,-712.5 264.5,-767.5 473.5,-767.5 473.5,-712.5 264.5,-712.5"/>
</g>
<!-- [ns&#45;0]start&#45;&gt;[ns&#45;0]choose_method -->
<g id="edge6" class="edge"><title>[ns&#45;0]start:[ns&#45;0]start&#45;&gt;[ns&#45;0]choose_method:[ns&#45;0]choose_method</title>
<path fill="none" stroke="black" d="M369,-811.808C369,-800.996 369,-788.931 369,-777.867"/>
<polygon fill="black" stroke="black" points="372.5,-777.639 369,-767.639 365.5,-777.639 372.5,-777.639"/>
</g>
<!-- [ns&#45;0]attack -->
<g id="node3" class="node"><title>[ns&#45;0]attack</title>
<polygon fill="#ddffdd" stroke="none" points="274,-137 274,-205 484,-205 484,-137 274,-137"/>
<text text-anchor="start" x="276" y="-195.5" font-family="Times,serif" font-style="italic" font-size="10.00">[ns&#45;0]attack</text>
<text text-anchor="start" x="276" y="-181" font-family="Times,serif" font-size="10.00">сражение с подручными должника</text>
<polygon fill="#cceecc" stroke="none" points="275,-164 275,-177 483,-177 483,-164 275,-164"/>
<text text-anchor="start" x="276" y="-169" font-family="Times,serif" font-size="10.00">hero </text>
<text text-anchor="start" x="297" y="-169" font-family="Times,serif" font-weight="bold" font-size="10.00">находится в</text>
<text text-anchor="start" x="352" y="-169" font-family="Times,serif" font-size="10.00"> place_2</text>
<polygon fill="#eeffee" stroke="none" points="275,-151 275,-164 483,-164 483,-151 275,-151"/>
<text text-anchor="start" x="276" y="-156" font-family="Times,serif" font-weight="bold" font-size="10.00">сообщение:</text>
<text text-anchor="start" x="328" y="-156" font-family="Times,serif" font-size="10.00"> attack</text>
<polygon fill="#eeffee" stroke="none" points="275,-138 275,-151 483,-151 483,-138 275,-138"/>
<text text-anchor="start" x="276" y="-143" font-family="Times,serif" font-weight="bold" font-size="10.00">сразиться с</text>
<text text-anchor="start" x="328" y="-143" font-family="Times,serif" font-size="10.00">  None</text>
<polygon fill="none" stroke="black" points="274,-137 274,-205 484,-205 484,-137 274,-137"/>
</g>
<!-- [ns&#45;0]finish_attack -->
<g id="node6" class="node"><title>[ns&#45;0]finish_attack</title>
<polygon fill="#eeeeee" stroke="none" points="286.5,-4.5 286.5,-85.5 471.5,-85.5 471.5,-4.5 286.5,-4.5"/>
<text text-anchor="start" x="289" y="-75.5" font-family="Times,serif" font-style="italic" font-size="10.00">[ns&#45;0]finish_attack</text>
<text text-anchor="start" x="405.5" y="-75.5" font-family="Times,serif" font-weight="bold" font-size="10.00">successed</text>
<text text-anchor="start" x="289" y="-61" font-family="Times,serif" font-size="10.00">долг выбит</text>
<polygon fill="#dddddd" stroke="none" points="288,-44 288,-57 471,-57 471,-44 288,-44"/>
<text text-anchor="start" x="289" y="-49" font-family="Times,serif" font-size="10.00">hero </text>
<text text-anchor="start" x="310" y="-49" font-family="Times,serif" font-weight="bold" font-size="10.00">находится в</text>
<text text-anchor="start" x="365" y="-49" font-family="Times,serif" font-size="10.00"> place_1</text>
<polygon fill="#ffffff" stroke="none" points="288,-31 288,-44 471,-44 471,-31 288,-31"/>
<text text-anchor="start" x="289" y="-36" font-family="Times,serif" font-weight="bold" font-size="10.00">выдать награду </text>
<text text-anchor="start" x="364" y="-36" font-family="Times,serif" font-size="10.00">  hero </text>
<text text-anchor="start" x="389" y="-36" font-family="Times,serif" font-weight="bold" font-size="10.00">типа </text>
<text text-anchor="start" x="413" y="-36" font-family="Times,serif" font-size="10.00"> finish_attack</text>
<polygon fill="#ffffff" stroke="none" points="288,-18 288,-31 471,-31 471,-18 288,-18"/>
<text text-anchor="start" x="289" y="-23" font-family="Times,serif" font-weight="bold" font-size="10.00">увеличить влияние </text>
<text text-anchor="start" x="377" y="-23" font-family="Times,serif" font-size="10.00">  person_1 </text>
<text text-anchor="start" x="422" y="-23" font-family="Times,serif" font-weight="bold" font-size="10.00">на </text>
<text text-anchor="start" x="435" y="-23" font-family="Times,serif" font-size="10.00"> 1.00</text>
<polygon fill="#ffffff" stroke="none" points="288,-5 288,-18 471,-18 471,-5 288,-5"/>
<text text-anchor="start" x="289" y="-10" font-family="Times,serif" font-weight="bold" font-size="10.00">увеличить влияние </text>
<text text-anchor="start" x="377" y="-10" font-family="Times,serif" font-size="10.00">  person_2 </text>
<text text-anchor="start" x="422" y="-10" font-family="Times,serif" font-weight="bold" font-size="10.00">на </text>
<text text-anchor="start" x="435" y="-10" font-family="Times,serif" font-size="10.00"> &#45;1.00</text>
<polygon fill="none" stroke="black" points="286.5,-4.5 286.5,-85.5 471.5,-85.5 471.5,-4.5 286.5,-4.5"/>
</g>
<!-- [ns&#45;0]attack&#45;&gt;[ns&#45;0]finish_attack -->
<g id="edge3" class="edge"><title>[ns&#45;0]attack:[ns&#45;0]attack&#45;&gt;[ns&#45;0]finish_attack:[ns&#45;0]finish_attack</title>
<path fill="none" stroke="black" d="M379,-136.77C379,-124.308 379,-109.853 379,-96.1919"/>
<polygon fill="black" stroke="black" points="382.5,-95.9463 379,-85.9463 375.5,-95.9464 382.5,-95.9463"/>
</g>
<!-- #option([ns&#45;0]choose_method, [ns&#45;0]help) -->
<g id="node13" class="node"><title>#option([ns&#45;0]choose_method, [ns&#45;0]help)</title>
<polygon fill="#ffffff" stroke="none" points="317,-647 317,-661 339,-661 339,-647 317,-647"/>
<text text-anchor="start" x="318" y="-651.5" font-family="Times,serif" font-size="10.00">help</text>
</g>
<!-- [ns&#45;0]choose_method&#45;&gt;#option([ns&#45;0]choose_method, [ns&#45;0]help) -->
<g id="edge9" class="edge"><title>[ns&#45;0]choose_method:[ns&#45;0]choose_method&#45;&gt;#option([ns&#45;0]choose_method, [ns&#45;0]help):#option([ns&#45;0]choose_method, [ns&#45;0]help)</title>
<path fill="none" stroke="black" stroke-dasharray="1,5" d="M356.027,-712.422C347.206,-694.349 336.226,-671.853 331.015,-661.177"/>
</g>
<!-- #option([ns&#45;0]choose_method, [ns&#45;0]attack) -->
<g id="node14" class="node"><title>#option([ns&#45;0]choose_method, [ns&#45;0]attack)</title>
<polygon fill="#ffffff" stroke="none" points="405,-263 405,-277 433,-277 433,-263 405,-263"/>
<text text-anchor="start" x="406" y="-267.5" font-family="Times,serif" font-size="10.00">attack</text>
</g>
<!-- [ns&#45;0]choose_method&#45;&gt;#option([ns&#45;0]choose_method, [ns&#45;0]attack) -->
<g id="edge11" class="edge"><title>[ns&#45;0]choose_method:[ns&#45;0]choose_method&#45;&gt;#option([ns&#45;0]choose_method, [ns&#45;0]attack):#option([ns&#45;0]choose_method, [ns&#45;0]attack)</title>
<path fill="none" stroke="black" stroke-dasharray="1,5" d="M379.987,-712.405C392.132,-680.555 410,-625.314 410,-576 410,-576 410,-576 410,-419 410,-363.912 416.289,-297.503 418.353,-277.195"/>
</g>
<!-- #jump([ns&#45;1]finish_failed, [ns&#45;0]attack) -->
<g id="node11" class="node"><title>#jump([ns&#45;1]finish_failed, [ns&#45;0]attack)</title>
<polygon fill="#eeeeee" stroke="none" points="232,-263 232,-277 360,-277 360,-263 232,-263"/>
<text text-anchor="start" x="233" y="-268.5" font-family="Times,serif" font-weight="bold" font-size="10.00">сообщение:</text>
<text text-anchor="start" x="285" y="-268.5" font-family="Times,serif" font-size="10.00"> after_failed_help</text>
</g>
<!-- [ns&#45;1]finish_failed&#45;&gt;#jump([ns&#45;1]finish_failed, [ns&#45;0]attack) -->
<g id="edge4" class="edge"><title>[ns&#45;1]finish_failed:[ns&#45;1]finish_failed&#45;&gt;#jump([ns&#45;1]finish_failed, [ns&#45;0]attack):#jump([ns&#45;1]finish_failed, [ns&#45;0]attack)</title>
<path fill="none" stroke="black" d="M291.964,-328.31C293.054,-312.837 294.779,-288.336 295.574,-277.053"/>
</g>
<!-- #jump([ns&#45;1]finish_successed, [ns&#45;0]finish_help) -->
<g id="node10" class="node"><title>#jump([ns&#45;1]finish_successed, [ns&#45;0]finish_help)</title>
<polygon fill="#eeeeee" stroke="none" points="38,-263 38,-277 182,-277 182,-263 38,-263"/>
<text text-anchor="start" x="39" y="-268.5" font-family="Times,serif" font-weight="bold" font-size="10.00">сообщение:</text>
<text text-anchor="start" x="91" y="-268.5" font-family="Times,serif" font-size="10.00"> after_successed_help</text>
</g>
<!-- [ns&#45;1]finish_successed&#45;&gt;#jump([ns&#45;1]finish_successed, [ns&#45;0]finish_help) -->
<g id="edge1" class="edge"><title>[ns&#45;1]finish_successed:[ns&#45;1]finish_successed&#45;&gt;#jump([ns&#45;1]finish_successed, [ns&#45;0]finish_help):#jump([ns&#45;1]finish_successed, [ns&#45;0]finish_help)</title>
<path fill="none" stroke="black" d="M110,-328.31C110,-312.837 110,-288.336 110,-277.053"/>
</g>
<!-- [ns&#45;0]help -->
<g id="node8" class="node"><title>[ns&#45;0]help</title>
<polygon fill="#ddffdd" stroke="none" points="231.5,-554 231.5,-596 370.5,-596 370.5,-554 231.5,-554"/>
<text text-anchor="start" x="234" y="-586.5" font-family="Times,serif" font-style="italic" font-size="10.00">[ns&#45;0]help</text>
<text text-anchor="start" x="234" y="-572" font-family="Times,serif" font-size="10.00">помочь должнику</text>
<polygon fill="#cceecc" stroke="none" points="233,-555 233,-568 370,-568 370,-555 233,-555"/>
<text text-anchor="start" x="234" y="-560" font-family="Times,serif" font-size="10.00">hero </text>
<text text-anchor="start" x="255" y="-560" font-family="Times,serif" font-weight="bold" font-size="10.00">находится в</text>
<text text-anchor="start" x="310" y="-560" font-family="Times,serif" font-size="10.00"> place_2</text>
<polygon fill="none" stroke="black" points="231.5,-554 231.5,-596 370.5,-596 370.5,-554 231.5,-554"/>
</g>
<!-- #jump([ns&#45;0]help, [ns&#45;1]start) -->
<g id="node12" class="node"><title>#jump([ns&#45;0]help, [ns&#45;1]start)</title>
<polygon fill="#eeeeee" stroke="none" points="242,-486 242,-500 349,-500 349,-486 242,-486"/>
<text text-anchor="start" x="243" y="-491.5" font-family="Times,serif" font-weight="bold" font-size="10.00">сообщение:</text>
<text text-anchor="start" x="295" y="-491.5" font-family="Times,serif" font-size="10.00"> before_help</text>
</g>
<!-- [ns&#45;0]help&#45;&gt;#jump([ns&#45;0]help, [ns&#45;1]start) -->
<g id="edge7" class="edge"><title>[ns&#45;0]help:[ns&#45;0]help&#45;&gt;#jump([ns&#45;0]help, [ns&#45;1]start):#jump([ns&#45;0]help, [ns&#45;1]start)</title>
<path fill="none" stroke="black" d="M299.486,-553.813C298.153,-536.038 296.296,-511.281 295.451,-500.013"/>
</g>
<!-- [ns&#45;0]finish_help -->
<g id="node9" class="node"><title>[ns&#45;0]finish_help</title>
<polygon fill="#eeeeee" stroke="none" points="20.5,-130.5 20.5,-211.5 199.5,-211.5 199.5,-130.5 20.5,-130.5"/>
<text text-anchor="start" x="23" y="-201.5" font-family="Times,serif" font-style="italic" font-size="10.00">[ns&#45;0]finish_help</text>
<text text-anchor="start" x="135" y="-201.5" font-family="Times,serif" font-weight="bold" font-size="10.00">successed</text>
<text text-anchor="start" x="23" y="-187" font-family="Times,serif" font-size="10.00">помощь оказана</text>
<polygon fill="#dddddd" stroke="none" points="22,-170 22,-183 199,-183 199,-170 22,-170"/>
<text text-anchor="start" x="23" y="-175" font-family="Times,serif" font-size="10.00">hero </text>
<text text-anchor="start" x="44" y="-175" font-family="Times,serif" font-weight="bold" font-size="10.00">находится в</text>
<text text-anchor="start" x="99" y="-175" font-family="Times,serif" font-size="10.00"> place_1</text>
<polygon fill="#ffffff" stroke="none" points="22,-157 22,-170 199,-170 199,-157 22,-157"/>
<text text-anchor="start" x="23" y="-162" font-family="Times,serif" font-weight="bold" font-size="10.00">выдать награду </text>
<text text-anchor="start" x="98" y="-162" font-family="Times,serif" font-size="10.00">  hero </text>
<text text-anchor="start" x="123" y="-162" font-family="Times,serif" font-weight="bold" font-size="10.00">типа </text>
<text text-anchor="start" x="147" y="-162" font-family="Times,serif" font-size="10.00"> finish_help</text>
<polygon fill="#ffffff" stroke="none" points="22,-144 22,-157 199,-157 199,-144 22,-144"/>
<text text-anchor="start" x="23" y="-149" font-family="Times,serif" font-weight="bold" font-size="10.00">увеличить влияние </text>
<text text-anchor="start" x="111" y="-149" font-family="Times,serif" font-size="10.00">  person_1 </text>
<text text-anchor="start" x="156" y="-149" font-family="Times,serif" font-weight="bold" font-size="10.00">на </text>
<text text-anchor="start" x="169" y="-149" font-family="Times,serif" font-size="10.00"> 1.00</text>
<polygon fill="#ffffff" stroke="none" points="22,-131 22,-144 199,-144 199,-131 22,-131"/>
<text text-anchor="start" x="23" y="-136" font-family="Times,serif" font-weight="bold" font-size="10.00">увеличить влияние </text>
<text text-anchor="start" x="111" y="-136" font-family="Times,serif" font-size="10.00">  person_2 </text>
<text text-anchor="start" x="156" y="-136" font-family="Times,serif" font-weight="bold" font-size="10.00">на </text>
<text text-anchor="start" x="169" y="-136" font-family="Times,serif" font-size="10.00"> 1.00</text>
<polygon fill="none" stroke="black" points="20.5,-130.5 20.5,-211.5 199.5,-211.5 199.5,-130.5 20.5,-130.5"/>
</g>
<!-- #jump([ns&#45;1]finish_successed, [ns&#45;0]finish_help)&#45;&gt;[ns&#45;0]finish_help -->
<g id="edge2" class="edge"><title>#jump([ns&#45;1]finish_successed, [ns&#45;0]finish_help):#jump([ns&#45;1]finish_successed, [ns&#45;0]finish_help)&#45;&gt;[ns&#45;0]finish_help:[ns&#45;0]finish_help</title>
<path fill="none" stroke="black" d="M110,-262.932C110,-254.483 110,-238.361 110,-222.011"/>
<polygon fill="black" stroke="black" points="113.5,-221.867 110,-211.867 106.5,-221.867 113.5,-221.867"/>
</g>
<!-- #jump([ns&#45;1]finish_failed, [ns&#45;0]attack)&#45;&gt;[ns&#45;0]attack -->
<g id="edge5" class="edge"><title>#jump([ns&#45;1]finish_failed, [ns&#45;0]attack):#jump([ns&#45;1]finish_failed, [ns&#45;0]attack)&#45;&gt;[ns&#45;0]attack:[ns&#45;0]attack</title>
<path fill="none" stroke="black" d="M301.192,-262.932C309.739,-252.944 327.459,-232.235 343.832,-213.099"/>
<polygon fill="black" stroke="black" points="346.654,-215.186 350.496,-205.312 341.335,-210.635 346.654,-215.186"/>
</g>
<!-- #jump([ns&#45;0]help, [ns&#45;1]start)&#45;&gt;[ns&#45;1]start -->
<g id="edge8" class="edge"><title>#jump([ns&#45;0]help, [ns&#45;1]start):#jump([ns&#45;0]help, [ns&#45;1]start)&#45;&gt;[ns&#45;1]start:[ns&#45;1]start</title>
<path fill="none" stroke="black" d="M294.829,-485.947C294.577,-476.968 294.088,-459.618 293.679,-445.109"/>
<polygon fill="black" stroke="black" points="297.168,-444.65 293.387,-434.753 290.17,-444.847 297.168,-444.65"/>
</g>
<!-- #option([ns&#45;0]choose_method, [ns&#45;0]help)&#45;&gt;[ns&#45;0]help -->
<g id="edge10" class="edge"><title>#option([ns&#45;0]choose_method, [ns&#45;0]help):#option([ns&#45;0]choose_method, [ns&#45;0]help)&#45;&gt;[ns&#45;0]help:[ns&#45;0]help</title>
<path fill="none" stroke="black" stroke-dasharray="1,5" d="M325.881,-646.958C322.781,-638.117 316.798,-621.055 311.476,-605.877"/>
<polygon fill="black" stroke="black" points="314.723,-604.56 308.112,-596.281 308.118,-606.876 314.723,-604.56"/>
</g>
<!-- #option([ns&#45;0]choose_method, [ns&#45;0]attack)&#45;&gt;[ns&#45;0]attack -->
<g id="edge12" class="edge"><title>#option([ns&#45;0]choose_method, [ns&#45;0]attack):#option([ns&#45;0]choose_method, [ns&#45;0]attack)&#45;&gt;[ns&#45;0]attack:[ns&#45;0]attack</title>
<path fill="none" stroke="black" stroke-dasharray="1,5" d="M416.498,-262.932C412.489,-253.21 404.291,-233.332 396.581,-214.633"/>
<polygon fill="black" stroke="black" points="399.785,-213.222 392.737,-205.312 393.314,-215.891 399.785,-213.222"/>
</g>
</g>
</svg>
