<?xml version="1.0" encoding="UTF-8" standalone="no"?>
<!DOCTYPE svg PUBLIC "-//W3C//DTD SVG 1.1//EN"
 "http://www.w3.org/Graphics/SVG/1.1/DTD/svg11.dtd">
<!-- Generated by graphviz version 2.43.0 (0)
 -->
<!-- Title: quest Pages: 1 -->
<svg width="725pt" height="1043pt"
 viewBox="0.00 0.00 724.50 1043.00" xmlns="http://www.w3.org/2000/svg" xmlns:xlink="http://www.w3.org/1999/xlink">
<g id="graph0" class="graph" transform="scale(1 1) rotate(0) translate(4 1039)">
<title>quest</title>
<polygon fill="white" stroke="transparent" points="-4,4 -4,-1039 720.5,-1039 720.5,4 -4,4"/>
<g id="clust1" class="cluster">
<title>cluster_[ns&#45;0]help_subquest</title>
<polygon fill="#96ffff" stroke="black" points="71,-402 71,-625 464,-625 464,-402 71,-402"/>
<text text-anchor="middle" x="267.5" y="-609.8" font-family="Times,serif" font-size="14.00">cluster_[ns&#45;0]help_subquest</text>
</g>
<g id="clust2" class="cluster">
<title>cluster_[ns&#45;1]event</title>
<polygon fill="#ffffdd" stroke="black" points="79,-410 79,-550 456,-550 456,-410 79,-410"/>
<text text-anchor="middle" x="267.5" y="-534.8" font-family="Times,serif" font-size="14.00">cluster_[ns&#45;1]event</text>
</g>
<!-- [ns&#45;1]start -->
<g id="node1" class="node">
<title>[ns&#45;1]start</title>
<polygon fill="#eeeeee" stroke="transparent" points="306.5,-562 306.5,-590 435.5,-590 435.5,-562 306.5,-562"/>
<text text-anchor="start" x="309" y="-581" font-family="Times,serif" font-style="italic" font-size="10.00">[ns&#45;1]start</text>
<text text-anchor="start" x="388.5" y="-581" font-family="Times,serif" font-weight="bold" font-size="10.00">simple</text>
<text text-anchor="start" x="309" y="-567" font-family="Times,serif" font-size="10.00">Start: the simplest quest</text>
<polygon fill="none" stroke="black" points="306.5,-562 306.5,-590 435.5,-590 435.5,-562 306.5,-562"/>
</g>
<!-- [ns&#45;1]finish_successed -->
<g id="node2" class="node">
<title>[ns&#45;1]finish_successed</title>
<polygon fill="#eeeeee" stroke="transparent" points="95.5,-422 95.5,-515 268.5,-515 268.5,-422 95.5,-422"/>
<text text-anchor="start" x="98" y="-505.5" font-family="Times,serif" font-style="italic" font-size="10.00">[ns&#45;1]finish_successed</text>
<text text-anchor="start" x="98" y="-491.5" font-family="Times,serif" font-size="10.00">complete the quest successfully</text>
<polygon fill="#eeeeee" stroke="transparent" points="97,-474.5 97,-487.5 268,-487.5 268,-474.5 97,-474.5"/>
<text text-anchor="start" x="98" y="-479.5" font-family="Times,serif" font-weight="bold" font-size="10.00">results:</text>
<text text-anchor="start" x="98" y="-466.5" font-family="Times,serif" font-weight="bold" font-size="10.00">person_5</text>
<text text-anchor="start" x="215" y="-465.5" font-family="Times,serif" font-size="10.00">successed</text>
<text text-anchor="start" x="98" y="-453.5" font-family="Times,serif" font-weight="bold" font-size="10.00">person_9</text>
<text text-anchor="start" x="215" y="-452.5" font-family="Times,serif" font-size="10.00">successed</text>
<text text-anchor="start" x="98" y="-440.5" font-family="Times,serif" font-weight="bold" font-size="10.00">place_5</text>
<text text-anchor="start" x="215" y="-439.5" font-family="Times,serif" font-size="10.00">successed</text>
<text text-anchor="start" x="98" y="-427.5" font-family="Times,serif" font-weight="bold" font-size="10.00">place_9</text>
<text text-anchor="start" x="215" y="-426.5" font-family="Times,serif" font-size="10.00">successed</text>
<polygon fill="none" stroke="black" points="95.5,-422 95.5,-515 268.5,-515 268.5,-422 95.5,-422"/>
</g>
<!-- [ns&#45;1]start&#45;&gt;[ns&#45;1]finish_successed -->
<g id="edge3" class="edge">
<title>[ns&#45;1]start:[ns&#45;1]start&#45;&gt;[ns&#45;1]finish_successed:[ns&#45;1]finish_successed</title>
<path fill="none" stroke="black" d="M315.43,-561.91C305.37,-558.64 295.18,-554.69 286,-550 270.62,-542.14 255.25,-531.9 241.22,-521.36"/>
<polygon fill="black" stroke="black" points="243.19,-518.46 233.13,-515.14 238.92,-524.01 243.19,-518.46"/>
</g>
<!-- [ns&#45;1]finish_failed -->
<g id="node9" class="node">
<title>[ns&#45;1]finish_failed</title>
<polygon fill="#eeeeee" stroke="transparent" points="302.5,-422 302.5,-515 439.5,-515 439.5,-422 302.5,-422"/>
<text text-anchor="start" x="305" y="-505.5" font-family="Times,serif" font-style="italic" font-size="10.00">[ns&#45;1]finish_failed</text>
<text text-anchor="start" x="305" y="-491.5" font-family="Times,serif" font-size="10.00">complete the quest poorly</text>
<polygon fill="#eeeeee" stroke="transparent" points="304,-474.5 304,-487.5 439,-487.5 439,-474.5 304,-474.5"/>
<text text-anchor="start" x="305" y="-479.5" font-family="Times,serif" font-weight="bold" font-size="10.00">results:</text>
<text text-anchor="start" x="305" y="-466.5" font-family="Times,serif" font-weight="bold" font-size="10.00">person_5</text>
<text text-anchor="start" x="404" y="-465.5" font-family="Times,serif" font-size="10.00">failed</text>
<text text-anchor="start" x="305" y="-453.5" font-family="Times,serif" font-weight="bold" font-size="10.00">person_9</text>
<text text-anchor="start" x="404" y="-452.5" font-family="Times,serif" font-size="10.00">failed</text>
<text text-anchor="start" x="305" y="-440.5" font-family="Times,serif" font-weight="bold" font-size="10.00">place_5</text>
<text text-anchor="start" x="404" y="-439.5" font-family="Times,serif" font-size="10.00">failed</text>
<text text-anchor="start" x="305" y="-427.5" font-family="Times,serif" font-weight="bold" font-size="10.00">place_9</text>
<text text-anchor="start" x="404" y="-426.5" font-family="Times,serif" font-size="10.00">failed</text>
<polygon fill="none" stroke="black" points="302.5,-422 302.5,-515 439.5,-515 439.5,-422 302.5,-422"/>
</g>
<!-- [ns&#45;1]start&#45;&gt;[ns&#45;1]finish_failed -->
<g id="edge4" class="edge">
<title>[ns&#45;1]start:[ns&#45;1]start&#45;&gt;[ns&#45;1]finish_failed:[ns&#45;1]finish_failed</title>
<path fill="none" stroke="black" d="M371,-561.64C371,-552.27 371,-539.05 371,-525.55"/>
<polygon fill="black" stroke="black" points="374.5,-525.22 371,-515.22 367.5,-525.22 374.5,-525.22"/>
</g>
<!-- #jump([ns&#45;1]finish_successed, [ns&#45;0]finish_help) -->
<g id="node11" class="node">
<title>#jump([ns&#45;1]finish_successed, [ns&#45;0]finish_help)</title>
<polygon fill="#eeeeee" stroke="transparent" points="99,-357 99,-370 265,-370 265,-357 99,-357"/>
<text text-anchor="start" x="100" y="-362" font-family="Times,serif" font-weight="bold" font-size="10.00">message:</text>
<text text-anchor="start" x="152" y="-362" font-family="Times,serif" font-size="10.00"> after_successed_help</text>
</g>
<!-- [ns&#45;1]finish_successed&#45;&gt;#jump([ns&#45;1]finish_successed, [ns&#45;0]finish_help) -->
<g id="edge1" class="edge">
<title>[ns&#45;1]finish_successed:[ns&#45;1]finish_successed&#45;&gt;#jump([ns&#45;1]finish_successed, [ns&#45;0]finish_help):#jump([ns&#45;1]finish_successed, [ns&#45;0]finish_help)</title>
<path fill="none" stroke="black" d="M182,-421.95C182,-401.84 182,-380.55 182,-370.66"/>
</g>
<!-- [ns&#45;0]start -->
<g id="node3" class="node">
<title>[ns&#45;0]start</title>
<polygon fill="#eeeeee" stroke="transparent" points="344,-964 344,-1031 510,-1031 510,-964 344,-964"/>
<text text-anchor="start" x="346" y="-1021.5" font-family="Times,serif" font-style="italic" font-size="10.00">[ns&#45;0]start</text>
<text text-anchor="start" x="431" y="-1021.5" font-family="Times,serif" font-weight="bold" font-size="10.00">collect_debt</text>
<text text-anchor="start" x="346" y="-1007.5" font-family="Times,serif" font-size="10.00">Start: collect debt</text>
<polygon fill="#dddddd" stroke="transparent" points="345,-990.5 345,-1003.5 509,-1003.5 509,-990.5 345,-990.5"/>
<text text-anchor="start" x="346" y="-995.5" font-family="Times,serif" font-size="10.00">hero </text>
<text text-anchor="start" x="373" y="-995.5" font-family="Times,serif" font-weight="bold" font-size="10.00">is located in</text>
<text text-anchor="start" x="443" y="-995.5" font-family="Times,serif" font-size="10.00"> place_1</text>
<polygon fill="#dddddd" stroke="transparent" points="345,-977.5 345,-990.5 509,-990.5 509,-977.5 345,-977.5"/>
<text text-anchor="start" x="346" y="-982.5" font-family="Times,serif" font-size="10.00">person_9 </text>
<text text-anchor="start" x="396" y="-982.5" font-family="Times,serif" font-weight="bold" font-size="10.00">is located in</text>
<text text-anchor="start" x="466" y="-982.5" font-family="Times,serif" font-size="10.00"> place_9</text>
<polygon fill="#ffffff" stroke="transparent" points="345,-964.5 345,-977.5 509,-977.5 509,-964.5 345,-964.5"/>
<text text-anchor="start" x="346" y="-969.5" font-family="Times,serif" font-weight="bold" font-size="10.00">message:</text>
<text text-anchor="start" x="398" y="-969.5" font-family="Times,serif" font-size="10.00"> intro</text>
<polygon fill="none" stroke="black" points="344,-964 344,-1031 510,-1031 510,-964 344,-964"/>
</g>
<!-- [ns&#45;0]choose_method -->
<g id="node8" class="node">
<title>[ns&#45;0]choose_method</title>
<polygon fill="#ddddff" stroke="transparent" points="333.5,-866 333.5,-920 520.5,-920 520.5,-866 333.5,-866"/>
<text text-anchor="start" x="336" y="-911" font-family="Times,serif" font-style="italic" font-size="10.00">[ns&#45;0]choose_method</text>
<text text-anchor="start" x="336" y="-897" font-family="Times,serif" font-size="10.00">Choose a method to collect the debt</text>
<polygon fill="#ccccee" stroke="transparent" points="335,-880 335,-893 520,-893 520,-880 335,-880"/>
<text text-anchor="start" x="336" y="-885" font-family="Times,serif" font-size="10.00">hero </text>
<text text-anchor="start" x="363" y="-885" font-family="Times,serif" font-weight="bold" font-size="10.00">is located in</text>
<text text-anchor="start" x="433" y="-885" font-family="Times,serif" font-size="10.00"> place_9</text>
<polygon fill="#eeeeff" stroke="transparent" points="335,-867 335,-880 520,-880 520,-867 335,-867"/>
<text text-anchor="start" x="336" y="-872" font-family="Times,serif" font-weight="bold" font-size="10.00">message:</text>
<text text-anchor="start" x="388" y="-872" font-family="Times,serif" font-size="10.00"> move_to_receiver</text>
<polygon fill="none" stroke="black" points="333.5,-866 333.5,-920 520.5,-920 520.5,-866 333.5,-866"/>
</g>
<!-- [ns&#45;0]start&#45;&gt;[ns&#45;0]choose_method -->
<g id="edge13" class="edge">
<title>[ns&#45;0]start:[ns&#45;0]start&#45;&gt;[ns&#45;0]choose_method:[ns&#45;0]choose_method</title>
<path fill="none" stroke="black" d="M427,-963.79C427,-953.13 427,-941.24 427,-930.33"/>
<polygon fill="black" stroke="black" points="430.5,-930.25 427,-920.25 423.5,-930.25 430.5,-930.25"/>
</g>
<!-- [ns&#45;0]finish_attack_failed -->
<g id="node4" class="node">
<title>[ns&#45;0]finish_attack_failed</title>
<polygon fill="#eeeeee" stroke="transparent" points="537.5,-10.5 537.5,-90.5 708.5,-90.5 708.5,-10.5 537.5,-10.5"/>
<text text-anchor="start" x="540" y="-81.5" font-family="Times,serif" font-style="italic" font-size="10.00">[ns&#45;0]finish_attack_failed</text>
<text text-anchor="start" x="540" y="-67.5" font-family="Times,serif" font-size="10.00">failed to collect the debt</text>
<polygon fill="#ffffff" stroke="transparent" points="539,-50.5 539,-63.5 708,-63.5 708,-50.5 539,-50.5"/>
<text text-anchor="start" x="540" y="-55.5" font-family="Times,serif" font-weight="bold" font-size="10.00">message:</text>
<text text-anchor="start" x="592" y="-55.5" font-family="Times,serif" font-size="10.00"> finish_attack_failed</text>
<polygon fill="#eeeeee" stroke="transparent" points="539,-37.5 539,-50.5 708,-50.5 708,-37.5 539,-37.5"/>
<text text-anchor="start" x="540" y="-42.5" font-family="Times,serif" font-weight="bold" font-size="10.00">results:</text>
<text text-anchor="start" x="540" y="-29.5" font-family="Times,serif" font-weight="bold" font-size="10.00">person_1</text>
<text text-anchor="start" x="670" y="-28.5" font-family="Times,serif" font-size="10.00">neutral</text>
<text text-anchor="start" x="540" y="-16.5" font-family="Times,serif" font-weight="bold" font-size="10.00">person_9</text>
<text text-anchor="start" x="670" y="-15.5" font-family="Times,serif" font-size="10.00">neutral</text>
<polygon fill="none" stroke="black" points="537.5,-10.5 537.5,-90.5 708.5,-90.5 708.5,-10.5 537.5,-10.5"/>
</g>
<!-- [ns&#45;0]finish_help -->
<g id="node5" class="node">
<title>[ns&#45;0]finish_help</title>
<polygon fill="#eeeeee" stroke="transparent" points="8,-213 8,-306 356,-306 356,-213 8,-213"/>
<text text-anchor="start" x="10" y="-296.5" font-family="Times,serif" font-style="italic" font-size="10.00">[ns&#45;0]finish_help</text>
<text text-anchor="start" x="10" y="-282.5" font-family="Times,serif" font-size="10.00">help provided</text>
<polygon fill="#dddddd" stroke="transparent" points="9,-265.5 9,-278.5 355,-278.5 355,-265.5 9,-265.5"/>
<text text-anchor="start" x="10" y="-270.5" font-family="Times,serif" font-size="10.00">hero </text>
<text text-anchor="start" x="37" y="-270.5" font-family="Times,serif" font-weight="bold" font-size="10.00">is located in</text>
<text text-anchor="start" x="107" y="-270.5" font-family="Times,serif" font-size="10.00"> place_1</text>
<polygon fill="#ffffff" stroke="transparent" points="9,-252.5 9,-265.5 355,-265.5 355,-252.5 9,-252.5"/>
<text text-anchor="start" x="10" y="-257.5" font-family="Times,serif" font-weight="bold" font-size="10.00">give reward to </text>
<text text-anchor="start" x="94" y="-257.5" font-family="Times,serif" font-size="10.00">  hero </text>
<text text-anchor="start" x="127" y="-257.5" font-family="Times,serif" font-weight="bold" font-size="10.00">of type </text>
<text text-anchor="start" x="170" y="-257.5" font-family="Times,serif" font-size="10.00"> finish_help </text>
<text text-anchor="start" x="233" y="-257.5" font-family="Times,serif" font-weight="bold" font-size="10.00">in the amount of</text>
<text text-anchor="start" x="329" y="-257.5" font-family="Times,serif" font-size="10.00"> 1.00</text>
<polygon fill="#eeeeee" stroke="transparent" points="9,-239.5 9,-252.5 355,-252.5 355,-239.5 9,-239.5"/>
<text text-anchor="start" x="10" y="-244.5" font-family="Times,serif" font-weight="bold" font-size="10.00">results:</text>
<text text-anchor="start" x="10" y="-231.5" font-family="Times,serif" font-weight="bold" font-size="10.00">person_1</text>
<text text-anchor="start" x="200" y="-230.5" font-family="Times,serif" font-size="10.00">successed</text>
<text text-anchor="start" x="10" y="-218.5" font-family="Times,serif" font-weight="bold" font-size="10.00">person_9</text>
<text text-anchor="start" x="200" y="-217.5" font-family="Times,serif" font-size="10.00">successed</text>
<polygon fill="none" stroke="black" points="8,-213 8,-306 356,-306 356,-213 8,-213"/>
</g>
<!-- [ns&#45;0]finish_attack_successed -->
<g id="node6" class="node">
<title>[ns&#45;0]finish_attack_successed</title>
<polygon fill="#eeeeee" stroke="transparent" points="90.5,-4 90.5,-97 503.5,-97 503.5,-4 90.5,-4"/>
<text text-anchor="start" x="93" y="-87.5" font-family="Times,serif" font-style="italic" font-size="10.00">[ns&#45;0]finish_attack_successed</text>
<text text-anchor="start" x="93" y="-73.5" font-family="Times,serif" font-size="10.00">debt collected</text>
<polygon fill="#dddddd" stroke="transparent" points="92,-56.5 92,-69.5 503,-69.5 503,-56.5 92,-56.5"/>
<text text-anchor="start" x="93" y="-61.5" font-family="Times,serif" font-size="10.00">hero </text>
<text text-anchor="start" x="120" y="-61.5" font-family="Times,serif" font-weight="bold" font-size="10.00">is located in</text>
<text text-anchor="start" x="190" y="-61.5" font-family="Times,serif" font-size="10.00"> place_1</text>
<polygon fill="#ffffff" stroke="transparent" points="92,-43.5 92,-56.5 503,-56.5 503,-43.5 92,-43.5"/>
<text text-anchor="start" x="93" y="-48.5" font-family="Times,serif" font-weight="bold" font-size="10.00">give reward to </text>
<text text-anchor="start" x="177" y="-48.5" font-family="Times,serif" font-size="10.00">  hero </text>
<text text-anchor="start" x="210" y="-48.5" font-family="Times,serif" font-weight="bold" font-size="10.00">of type </text>
<text text-anchor="start" x="253" y="-48.5" font-family="Times,serif" font-size="10.00"> finish_attack_successed </text>
<text text-anchor="start" x="381" y="-48.5" font-family="Times,serif" font-weight="bold" font-size="10.00">in the amount of</text>
<text text-anchor="start" x="477" y="-48.5" font-family="Times,serif" font-size="10.00"> 1.00</text>
<polygon fill="#eeeeee" stroke="transparent" points="92,-30.5 92,-43.5 503,-43.5 503,-30.5 92,-30.5"/>
<text text-anchor="start" x="93" y="-35.5" font-family="Times,serif" font-weight="bold" font-size="10.00">results:</text>
<text text-anchor="start" x="93" y="-22.5" font-family="Times,serif" font-weight="bold" font-size="10.00">person_1</text>
<text text-anchor="start" x="348" y="-21.5" font-family="Times,serif" font-size="10.00">successed</text>
<text text-anchor="start" x="93" y="-9.5" font-family="Times,serif" font-weight="bold" font-size="10.00">person_9</text>
<text text-anchor="start" x="348" y="-8.5" font-family="Times,serif" font-size="10.00">failed</text>
<polygon fill="none" stroke="black" points="90.5,-4 90.5,-97 503.5,-97 503.5,-4 90.5,-4"/>
</g>
<!-- [ns&#45;0]help -->
<g id="node7" class="node">
<title>[ns&#45;0]help</title>
<polygon fill="#ddffdd" stroke="transparent" points="302.5,-709 302.5,-750 445.5,-750 445.5,-709 302.5,-709"/>
<text text-anchor="start" x="305" y="-740.5" font-family="Times,serif" font-style="italic" font-size="10.00">[ns&#45;0]help</text>
<text text-anchor="start" x="305" y="-726.5" font-family="Times,serif" font-size="10.00">help the debtor</text>
<polygon fill="#cceecc" stroke="transparent" points="304,-709.5 304,-722.5 445,-722.5 445,-709.5 304,-709.5"/>
<text text-anchor="start" x="305" y="-714.5" font-family="Times,serif" font-size="10.00">hero </text>
<text text-anchor="start" x="332" y="-714.5" font-family="Times,serif" font-weight="bold" font-size="10.00">is located in</text>
<text text-anchor="start" x="402" y="-714.5" font-family="Times,serif" font-size="10.00"> place_9</text>
<polygon fill="none" stroke="black" points="302.5,-709 302.5,-750 445.5,-750 445.5,-709 302.5,-709"/>
</g>
<!-- #jump([ns&#45;0]help, [ns&#45;1]start) -->
<g id="node15" class="node">
<title>#jump([ns&#45;0]help, [ns&#45;1]start)</title>
<polygon fill="#eeeeee" stroke="transparent" points="314,-644 314,-657 432,-657 432,-644 314,-644"/>
<text text-anchor="start" x="315" y="-649" font-family="Times,serif" font-weight="bold" font-size="10.00">message:</text>
<text text-anchor="start" x="367" y="-649" font-family="Times,serif" font-size="10.00"> before_help</text>
</g>
<!-- [ns&#45;0]help&#45;&gt;#jump([ns&#45;0]help, [ns&#45;1]start) -->
<g id="edge11" class="edge">
<title>[ns&#45;0]help:[ns&#45;0]help&#45;&gt;#jump([ns&#45;0]help, [ns&#45;1]start):#jump([ns&#45;0]help, [ns&#45;1]start)</title>
<path fill="none" stroke="black" d="M373.74,-708.8C373.52,-691.8 373.21,-668.35 373.07,-657.69"/>
</g>
<!-- #option([ns&#45;0]choose_method, [ns&#45;0]help, help) -->
<g id="node12" class="node">
<title>#option([ns&#45;0]choose_method, [ns&#45;0]help, help)</title>
<polygon fill="#ffffff" stroke="transparent" points="336,-808 336,-821 413,-821 413,-808 336,-808"/>
<text text-anchor="start" x="337" y="-812" font-family="Times,serif" font-size="10.00">help</text>
<polygon fill="#aadddd" stroke="transparent" points="336,-795 336,-808 413,-808 413,-795 336,-795"/>
<text text-anchor="start" x="337" y="-799" font-family="Times,serif" font-size="10.00">[peacefulness]</text>
</g>
<!-- [ns&#45;0]choose_method&#45;&gt;#option([ns&#45;0]choose_method, [ns&#45;0]help, help) -->
<g id="edge5" class="edge">
<title>[ns&#45;0]choose_method:[ns&#45;0]choose_method&#45;&gt;#option([ns&#45;0]choose_method, [ns&#45;0]help, help):#option([ns&#45;0]choose_method, [ns&#45;0]help, help)</title>
<path fill="none" stroke="black" stroke-dasharray="1,5" d="M410.23,-865.74C400.77,-850.92 389.38,-833.09 381.93,-821.43"/>
</g>
<!-- #option([ns&#45;0]choose_method, [ns&#45;0]attack, attack) -->
<g id="node16" class="node">
<title>#option([ns&#45;0]choose_method, [ns&#45;0]attack, attack)</title>
<polygon fill="#ffffff" stroke="transparent" points="448,-808 448,-821 514,-821 514,-808 448,-808"/>
<text text-anchor="start" x="449" y="-812" font-family="Times,serif" font-size="10.00">attack</text>
<polygon fill="#aadddd" stroke="transparent" points="448,-795 448,-808 514,-808 514,-795 448,-795"/>
<text text-anchor="start" x="449" y="-799" font-family="Times,serif" font-size="10.00">[aggression]</text>
</g>
<!-- [ns&#45;0]choose_method&#45;&gt;#option([ns&#45;0]choose_method, [ns&#45;0]attack, attack) -->
<g id="edge14" class="edge">
<title>[ns&#45;0]choose_method:[ns&#45;0]choose_method&#45;&gt;#option([ns&#45;0]choose_method, [ns&#45;0]attack, attack):#option([ns&#45;0]choose_method, [ns&#45;0]attack, attack)</title>
<path fill="none" stroke="black" stroke-dasharray="1,5" d="M444.09,-865.74C453.73,-850.92 465.33,-833.09 472.92,-821.43"/>
</g>
<!-- #jump([ns&#45;1]finish_failed, [ns&#45;0]attack) -->
<g id="node17" class="node">
<title>#jump([ns&#45;1]finish_failed, [ns&#45;0]attack)</title>
<polygon fill="#eeeeee" stroke="transparent" points="302,-357 302,-370 445,-370 445,-357 302,-357"/>
<text text-anchor="start" x="303" y="-362" font-family="Times,serif" font-weight="bold" font-size="10.00">message:</text>
<text text-anchor="start" x="355" y="-362" font-family="Times,serif" font-size="10.00"> after_failed_help</text>
</g>
<!-- [ns&#45;1]finish_failed&#45;&gt;#jump([ns&#45;1]finish_failed, [ns&#45;0]attack) -->
<g id="edge16" class="edge">
<title>[ns&#45;1]finish_failed:[ns&#45;1]finish_failed&#45;&gt;#jump([ns&#45;1]finish_failed, [ns&#45;0]attack):#jump([ns&#45;1]finish_failed, [ns&#45;0]attack)</title>
<path fill="none" stroke="black" d="M371.89,-421.95C372.28,-401.84 372.7,-380.55 372.89,-370.66"/>
</g>
<!-- [ns&#45;0]attack -->
<g id="node10" class="node">
<title>[ns&#45;0]attack</title>
<polygon fill="#ffdddd" stroke="transparent" points="392.5,-213 392.5,-306 567.5,-306 567.5,-213 392.5,-213"/>
<text text-anchor="start" x="395" y="-296.5" font-family="Times,serif" font-style="italic" font-size="10.00">[ns&#45;0]attack</text>
<text text-anchor="start" x="395" y="-282.5" font-family="Times,serif" font-size="10.00">fight with the debtor&#39;s henchmen</text>
<polygon fill="#eecccc" stroke="transparent" points="394,-265.5 394,-278.5 567,-278.5 567,-265.5 394,-265.5"/>
<text text-anchor="start" x="395" y="-270.5" font-family="Times,serif" font-size="10.00">hero </text>
<text text-anchor="start" x="422" y="-270.5" font-family="Times,serif" font-weight="bold" font-size="10.00">is located in</text>
<text text-anchor="start" x="492" y="-270.5" font-family="Times,serif" font-size="10.00"> place_9</text>
<polygon fill="#ffeeee" stroke="transparent" points="394,-252.5 394,-265.5 567,-265.5 567,-252.5 394,-252.5"/>
<text text-anchor="start" x="395" y="-257.5" font-family="Times,serif" font-weight="bold" font-size="10.00">message:</text>
<text text-anchor="start" x="447" y="-257.5" font-family="Times,serif" font-size="10.00"> attack</text>
<polygon fill="#ffeeee" stroke="transparent" points="394,-239.5 394,-252.5 567,-252.5 567,-239.5 394,-239.5"/>
<text text-anchor="start" x="395" y="-244.5" font-family="Times,serif" font-weight="bold" font-size="10.00">fight with a mercenary</text>
<polygon fill="#ffdddd" stroke="transparent" points="394,-226.5 394,-239.5 567,-239.5 567,-226.5 394,-226.5"/>
<text text-anchor="start" x="395" y="-231.5" font-family="Times,serif" font-weight="bold" font-size="10.00">conditions:</text>
<text text-anchor="start" x="395" y="-218.5" font-family="Times,serif" font-weight="bold" font-size="10.00">if </text>
<polygon fill="#ffdddd" stroke="transparent" points="477,-213.5 477,-226.5 567,-226.5 567,-213.5 477,-213.5"/>
<text text-anchor="start" x="478" y="-218.5" font-family="Times,serif" font-size="10.00">hero </text>
<text text-anchor="start" x="505" y="-218.5" font-family="Times,serif" font-weight="bold" font-size="10.00">is alive</text>
<polygon fill="none" stroke="black" points="392.5,-213 392.5,-306 567.5,-306 567.5,-213 392.5,-213"/>
</g>
<!-- #answer(True, [ns&#45;0]attack, [ns&#45;0]finish_attack_successed) -->
<g id="node13" class="node">
<title>#answer(True, [ns&#45;0]attack, [ns&#45;0]finish_attack_successed)</title>
<polygon fill="#ffffff" stroke="transparent" points="304,-155 304,-168 449,-168 449,-155 304,-155"/>
<text text-anchor="start" x="305" y="-159" font-family="Times,serif" font-size="10.00">TRUE</text>
<polygon fill="#eeeeee" stroke="transparent" points="304,-142 304,-155 449,-155 449,-142 304,-142"/>
<text text-anchor="start" x="305" y="-147" font-family="Times,serif" font-weight="bold" font-size="10.00">message:</text>
<text text-anchor="start" x="357" y="-147" font-family="Times,serif" font-size="10.00"> attack_successed</text>
</g>
<!-- [ns&#45;0]attack&#45;&gt;#answer(True, [ns&#45;0]attack, [ns&#45;0]finish_attack_successed) -->
<g id="edge7" class="edge">
<title>[ns&#45;0]attack:[ns&#45;0]attack&#45;&gt;#answer(True, [ns&#45;0]attack, [ns&#45;0]finish_attack_successed):#answer(True, [ns&#45;0]attack, [ns&#45;0]finish_attack_successed)</title>
<path fill="none" stroke="black" d="M433.78,-212.95C417.07,-196.48 399.55,-179.22 388.25,-168.07"/>
</g>
<!-- #answer(False, [ns&#45;0]attack, [ns&#45;0]finish_attack_failed) -->
<g id="node14" class="node">
<title>#answer(False, [ns&#45;0]attack, [ns&#45;0]finish_attack_failed)</title>
<polygon fill="#ffffff" stroke="transparent" points="522,-155 522,-168 644,-168 644,-155 522,-155"/>
<text text-anchor="start" x="523" y="-159" font-family="Times,serif" font-size="10.00">FALSE</text>
<polygon fill="#eeeeee" stroke="transparent" points="522,-142 522,-155 644,-155 644,-142 522,-142"/>
<text text-anchor="start" x="523" y="-147" font-family="Times,serif" font-weight="bold" font-size="10.00">message:</text>
<text text-anchor="start" x="575" y="-147" font-family="Times,serif" font-size="10.00"> attack_failed</text>
</g>
<!-- [ns&#45;0]attack&#45;&gt;#answer(False, [ns&#45;0]attack, [ns&#45;0]finish_attack_failed) -->
<g id="edge9" class="edge">
<title>[ns&#45;0]attack:[ns&#45;0]attack&#45;&gt;#answer(False, [ns&#45;0]attack, [ns&#45;0]finish_attack_failed):#answer(False, [ns&#45;0]attack, [ns&#45;0]finish_attack_failed)</title>
<path fill="none" stroke="black" d="M525.78,-212.95C542.33,-196.48 559.67,-179.22 570.87,-168.07"/>
</g>
<!-- #jump([ns&#45;1]finish_successed, [ns&#45;0]finish_help)&#45;&gt;[ns&#45;0]finish_help -->
<g id="edge2" class="edge">
<title>#jump([ns&#45;1]finish_successed, [ns&#45;0]finish_help):#jump([ns&#45;1]finish_successed, [ns&#45;0]finish_help)&#45;&gt;[ns&#45;0]finish_help:[ns&#45;0]finish_help</title>
<path fill="none" stroke="black" d="M182,-357.49C182,-349.36 182,-333.31 182,-316.56"/>
<polygon fill="black" stroke="black" points="185.5,-316.11 182,-306.11 178.5,-316.11 185.5,-316.11"/>
</g>
<!-- #option([ns&#45;0]choose_method, [ns&#45;0]help, help)&#45;&gt;[ns&#45;0]help -->
<g id="edge6" class="edge">
<title>#option([ns&#45;0]choose_method, [ns&#45;0]help, help):#option([ns&#45;0]choose_method, [ns&#45;0]help, help)&#45;&gt;[ns&#45;0]help:[ns&#45;0]help</title>
<path fill="none" stroke="black" stroke-dasharray="1,5" d="M374,-794.71C374,-785.43 374,-772.3 374,-760.32"/>
<polygon fill="black" stroke="black" points="377.5,-760.22 374,-750.22 370.5,-760.22 377.5,-760.22"/>
</g>
<!-- #answer(True, [ns&#45;0]attack, [ns&#45;0]finish_attack_successed)&#45;&gt;[ns&#45;0]finish_attack_successed -->
<g id="edge8" class="edge">
<title>#answer(True, [ns&#45;0]attack, [ns&#45;0]finish_attack_successed):#answer(True, [ns&#45;0]attack, [ns&#45;0]finish_attack_successed)&#45;&gt;[ns&#45;0]finish_attack_successed:[ns&#45;0]finish_attack_successed</title>
<path fill="none" stroke="black" d="M366.63,-141.84C359.45,-132.53 349.01,-118.98 338.39,-105.2"/>
<polygon fill="black" stroke="black" points="341.01,-102.87 332.14,-97.09 335.47,-107.15 341.01,-102.87"/>
</g>
<!-- #answer(False, [ns&#45;0]attack, [ns&#45;0]finish_attack_failed)&#45;&gt;[ns&#45;0]finish_attack_failed -->
<g id="edge10" class="edge">
<title>#answer(False, [ns&#45;0]attack, [ns&#45;0]finish_attack_failed):#answer(False, [ns&#45;0]attack, [ns&#45;0]finish_attack_failed)&#45;&gt;[ns&#45;0]finish_attack_failed:[ns&#45;0]finish_attack_failed</title>
<path fill="none" stroke="black" d="M587.75,-141.84C591.82,-131.39 597.99,-115.6 604.02,-100.12"/>
<polygon fill="black" stroke="black" points="607.37,-101.17 607.75,-90.58 600.85,-98.63 607.37,-101.17"/>
</g>
<!-- #jump([ns&#45;0]help, [ns&#45;1]start)&#45;&gt;[ns&#45;1]start -->
<g id="edge12" class="edge">
<title>#jump([ns&#45;0]help, [ns&#45;1]start):#jump([ns&#45;0]help, [ns&#45;1]start)&#45;&gt;[ns&#45;1]start:[ns&#45;1]start</title>
<path fill="none" stroke="black" d="M372.84,-644.27C372.59,-634.97 372.07,-616.06 371.65,-600.65"/>
<polygon fill="black" stroke="black" points="375.14,-600.14 371.36,-590.24 368.14,-600.33 375.14,-600.14"/>
</g>
<!-- #option([ns&#45;0]choose_method, [ns&#45;0]attack, attack)&#45;&gt;[ns&#45;0]attack -->
<g id="edge15" class="edge">
<title>#option([ns&#45;0]choose_method, [ns&#45;0]attack, attack):#option([ns&#45;0]choose_method, [ns&#45;0]attack, attack)&#45;&gt;[ns&#45;0]attack:[ns&#45;0]attack</title>
<path fill="none" stroke="black" stroke-dasharray="1,5" d="M481.13,-794.94C481.4,-768.87 482,-705.28 482,-652 482,-652 482,-652 482,-467.5 482,-416.31 481.38,-358.01 480.83,-316.35"/>
<polygon fill="black" stroke="black" points="484.33,-316.08 480.69,-306.13 477.33,-316.18 484.33,-316.08"/>
</g>
<!-- #jump([ns&#45;1]finish_failed, [ns&#45;0]attack)&#45;&gt;[ns&#45;0]attack -->
<g id="edge17" class="edge">
<title>#jump([ns&#45;1]finish_failed, [ns&#45;0]attack):#jump([ns&#45;1]finish_failed, [ns&#45;0]attack)&#45;&gt;[ns&#45;0]attack:[ns&#45;0]attack</title>
<path fill="none" stroke="black" d="M378.75,-357.49C387.8,-348.83 406.25,-331.15 424.95,-313.24"/>
<polygon fill="black" stroke="black" points="427.59,-315.56 432.39,-306.11 422.74,-310.5 427.59,-315.56"/>
</g>
</g>
</svg>
