<?xml version="1.0" encoding="UTF-8" standalone="no"?>
<!DOCTYPE svg PUBLIC "-//W3C//DTD SVG 1.1//EN"
 "http://www.w3.org/Graphics/SVG/1.1/DTD/svg11.dtd">
<!-- Generated by graphviz version 2.43.0 (0)
 -->
<!-- Title: quest Pages: 1 -->
<svg width="698pt" height="521pt"
 viewBox="0.00 0.00 698.00 521.00" xmlns="http://www.w3.org/2000/svg" xmlns:xlink="http://www.w3.org/1999/xlink">
<g id="graph0" class="graph" transform="scale(1 1) rotate(0) translate(4 517)">
<title>quest</title>
<polygon fill="white" stroke="transparent" points="-4,4 -4,-517 694,-517 694,4 -4,4"/>
<!-- [ns&#45;0]start -->
<g id="node1" class="node">
<title>[ns&#45;0]start</title>
<polygon fill="#eeeeee" stroke="transparent" points="362.5,-455 362.5,-509 505.5,-509 505.5,-455 362.5,-455"/>
<text text-anchor="start" x="365" y="-500" font-family="Times,serif" font-style="italic" font-size="10.00">[ns&#45;0]start</text>
<text text-anchor="start" x="448.5" y="-500" font-family="Times,serif" font-weight="bold" font-size="10.00">complex</text>
<text text-anchor="start" x="365" y="-486" font-family="Times,serif" font-size="10.00">Start: &quot;complex&quot; task</text>
<polygon fill="#dddddd" stroke="transparent" points="364,-469 364,-482 505,-482 505,-469 364,-469"/>
<text text-anchor="start" x="365" y="-474" font-family="Times,serif" font-size="10.00">hero </text>
<text text-anchor="start" x="392" y="-474" font-family="Times,serif" font-weight="bold" font-size="10.00">is located in</text>
<text text-anchor="start" x="462" y="-474" font-family="Times,serif" font-size="10.00"> place_1</text>
<polygon fill="#ffffff" stroke="transparent" points="364,-456 364,-469 505,-469 505,-456 364,-456"/>
<text text-anchor="start" x="365" y="-461" font-family="Times,serif" font-weight="bold" font-size="10.00">message:</text>
<text text-anchor="start" x="417" y="-461" font-family="Times,serif" font-size="10.00"> intro</text>
<polygon fill="none" stroke="black" points="362.5,-455 362.5,-509 505.5,-509 505.5,-455 362.5,-455"/>
</g>
<!-- [ns&#45;0]arriving -->
<g id="node5" class="node">
<title>[ns&#45;0]arriving</title>
<polygon fill="#ddddff" stroke="transparent" points="289,-370 289,-411 579,-411 579,-370 289,-370"/>
<text text-anchor="start" x="291" y="-401.5" font-family="Times,serif" font-style="italic" font-size="10.00">[ns&#45;0]arriving</text>
<text text-anchor="start" x="291" y="-387.5" font-family="Times,serif" font-size="10.00">Pay the fee upon arrival in the city or wave over the wall</text>
<polygon fill="#ccccee" stroke="transparent" points="290,-370.5 290,-383.5 578,-383.5 578,-370.5 290,-370.5"/>
<text text-anchor="start" x="291" y="-375.5" font-family="Times,serif" font-size="10.00">hero </text>
<text text-anchor="start" x="318" y="-375.5" font-family="Times,serif" font-weight="bold" font-size="10.00">is located in</text>
<text text-anchor="start" x="388" y="-375.5" font-family="Times,serif" font-size="10.00"> place_3</text>
<polygon fill="none" stroke="black" points="289,-370 289,-411 579,-411 579,-370 289,-370"/>
</g>
<!-- [ns&#45;0]start&#45;&gt;[ns&#45;0]arriving -->
<g id="edge9" class="edge">
<title>[ns&#45;0]start:[ns&#45;0]start&#45;&gt;[ns&#45;0]arriving:[ns&#45;0]arriving</title>
<path fill="none" stroke="black" d="M434,-454.63C434,-444.19 434,-432.13 434,-421.37"/>
<polygon fill="black" stroke="black" points="437.5,-421.15 434,-411.15 430.5,-421.15 437.5,-421.15"/>
</g>
<!-- [ns&#45;0]finish_paid -->
<g id="node2" class="node">
<title>[ns&#45;0]finish_paid</title>
<polygon fill="#eeeeee" stroke="transparent" points="8,-4 8,-71 328,-71 328,-4 8,-4"/>
<text text-anchor="start" x="10" y="-61.5" font-family="Times,serif" font-style="italic" font-size="10.00">[ns&#45;0]finish_paid</text>
<text text-anchor="start" x="10" y="-47.5" font-family="Times,serif" font-size="10.00">complete the task</text>
<polygon fill="#ffffff" stroke="transparent" points="9,-30.5 9,-43.5 327,-43.5 327,-30.5 9,-30.5"/>
<text text-anchor="start" x="10" y="-35.5" font-family="Times,serif" font-weight="bold" font-size="10.00">give reward to </text>
<text text-anchor="start" x="94" y="-35.5" font-family="Times,serif" font-size="10.00">  hero </text>
<text text-anchor="start" x="127" y="-35.5" font-family="Times,serif" font-weight="bold" font-size="10.00">of type </text>
<text text-anchor="start" x="170" y="-35.5" font-family="Times,serif" font-size="10.00"> finish </text>
<text text-anchor="start" x="205" y="-35.5" font-family="Times,serif" font-weight="bold" font-size="10.00">in the amount of</text>
<text text-anchor="start" x="301" y="-35.5" font-family="Times,serif" font-size="10.00"> 1.00</text>
<polygon fill="#eeeeee" stroke="transparent" points="9,-17.5 9,-30.5 327,-30.5 327,-17.5 9,-17.5"/>
<text text-anchor="start" x="10" y="-22.5" font-family="Times,serif" font-weight="bold" font-size="10.00">results:</text>
<text text-anchor="start" x="10" y="-9.5" font-family="Times,serif" font-weight="bold" font-size="10.00">place_3</text>
<text text-anchor="start" x="186" y="-8.5" font-family="Times,serif" font-size="10.00">successed</text>
<polygon fill="none" stroke="black" points="8,-4 8,-71 328,-71 328,-4 8,-4"/>
</g>
<!-- [ns&#45;0]finish_not_paid -->
<g id="node3" class="node">
<title>[ns&#45;0]finish_not_paid</title>
<polygon fill="#eeeeee" stroke="transparent" points="362,-4 362,-71 682,-71 682,-4 362,-4"/>
<text text-anchor="start" x="364" y="-61.5" font-family="Times,serif" font-style="italic" font-size="10.00">[ns&#45;0]finish_not_paid</text>
<text text-anchor="start" x="364" y="-47.5" font-family="Times,serif" font-size="10.00">complete the task</text>
<polygon fill="#ffffff" stroke="transparent" points="363,-30.5 363,-43.5 681,-43.5 681,-30.5 363,-30.5"/>
<text text-anchor="start" x="364" y="-35.5" font-family="Times,serif" font-weight="bold" font-size="10.00">give reward to </text>
<text text-anchor="start" x="448" y="-35.5" font-family="Times,serif" font-size="10.00">  hero </text>
<text text-anchor="start" x="481" y="-35.5" font-family="Times,serif" font-weight="bold" font-size="10.00">of type </text>
<text text-anchor="start" x="524" y="-35.5" font-family="Times,serif" font-size="10.00"> finish </text>
<text text-anchor="start" x="559" y="-35.5" font-family="Times,serif" font-weight="bold" font-size="10.00">in the amount of</text>
<text text-anchor="start" x="655" y="-35.5" font-family="Times,serif" font-size="10.00"> 1.00</text>
<polygon fill="#eeeeee" stroke="transparent" points="363,-17.5 363,-30.5 681,-30.5 681,-17.5 363,-17.5"/>
<text text-anchor="start" x="364" y="-22.5" font-family="Times,serif" font-weight="bold" font-size="10.00">results:</text>
<text text-anchor="start" x="364" y="-9.5" font-family="Times,serif" font-weight="bold" font-size="10.00">place_3</text>
<text text-anchor="start" x="562" y="-8.5" font-family="Times,serif" font-size="10.00">failed</text>
<polygon fill="none" stroke="black" points="362,-4 362,-71 682,-71 682,-4 362,-4"/>
</g>
<!-- [ns&#45;0]tax -->
<g id="node4" class="node">
<title>[ns&#45;0]tax</title>
<polygon fill="#ffdddd" stroke="transparent" points="232,-187 232,-254 464,-254 464,-187 232,-187"/>
<text text-anchor="start" x="234" y="-244.5" font-family="Times,serif" font-style="italic" font-size="10.00">[ns&#45;0]tax</text>
<text text-anchor="start" x="234" y="-230.5" font-family="Times,serif" font-size="10.00">Will the hero have enough money for the fee</text>
<polygon fill="#ffeeee" stroke="transparent" points="233,-213.5 233,-226.5 463,-226.5 463,-213.5 233,-213.5"/>
<text text-anchor="start" x="234" y="-218.5" font-family="Times,serif" font-weight="bold" font-size="10.00">message:</text>
<text text-anchor="start" x="286" y="-218.5" font-family="Times,serif" font-size="10.00"> tax_officer_conversation</text>
<polygon fill="#ffdddd" stroke="transparent" points="233,-200.5 233,-213.5 463,-213.5 463,-200.5 233,-200.5"/>
<text text-anchor="start" x="234" y="-205.5" font-family="Times,serif" font-weight="bold" font-size="10.00">conditions:</text>
<text text-anchor="start" x="234" y="-192.5" font-family="Times,serif" font-weight="bold" font-size="10.00">if </text>
<polygon fill="#ffdddd" stroke="transparent" points="308,-187.5 308,-200.5 463,-200.5 463,-187.5 308,-187.5"/>
<text text-anchor="start" x="309" y="-192.5" font-family="Times,serif" font-size="10.00">hero </text>
<text text-anchor="start" x="336" y="-192.5" font-family="Times,serif" font-weight="bold" font-size="10.00">has </text>
<text text-anchor="start" x="361" y="-192.5" font-family="Times,serif" font-size="10.00"> 100500 </text>
<text text-anchor="start" x="404" y="-192.5" font-family="Times,serif" font-weight="bold" font-size="10.00">coins</text>
<polygon fill="none" stroke="black" points="232,-187 232,-254 464,-254 464,-187 232,-187"/>
</g>
<!-- #answer(True, [ns&#45;0]tax, [ns&#45;0]finish_paid) -->
<g id="node8" class="node">
<title>#answer(True, [ns&#45;0]tax, [ns&#45;0]finish_paid)</title>
<polygon fill="#ffffff" stroke="transparent" points="242,-122 242,-135 275,-135 275,-122 242,-122"/>
<text text-anchor="start" x="243" y="-126" font-family="Times,serif" font-size="10.00">TRUE</text>
</g>
<!-- [ns&#45;0]tax&#45;&gt;#answer(True, [ns&#45;0]tax, [ns&#45;0]finish_paid) -->
<g id="edge5" class="edge">
<title>[ns&#45;0]tax:[ns&#45;0]tax&#45;&gt;#answer(True, [ns&#45;0]tax, [ns&#45;0]finish_paid):#answer(True, [ns&#45;0]tax, [ns&#45;0]finish_paid)</title>
<path fill="none" stroke="black" d="M315.25,-186.94C296.15,-167.94 273.87,-145.78 263.65,-135.61"/>
</g>
<!-- #answer(False, [ns&#45;0]tax, [ns&#45;0]finish_not_paid) -->
<g id="node9" class="node">
<title>#answer(False, [ns&#45;0]tax, [ns&#45;0]finish_not_paid)</title>
<polygon fill="#ffffff" stroke="transparent" points="390,-122 390,-135 427,-135 427,-122 390,-122"/>
<text text-anchor="start" x="391" y="-126" font-family="Times,serif" font-size="10.00">FALSE</text>
</g>
<!-- [ns&#45;0]tax&#45;&gt;#answer(False, [ns&#45;0]tax, [ns&#45;0]finish_not_paid) -->
<g id="edge7" class="edge">
<title>[ns&#45;0]tax:[ns&#45;0]tax&#45;&gt;#answer(False, [ns&#45;0]tax, [ns&#45;0]finish_not_paid):#answer(False, [ns&#45;0]tax, [ns&#45;0]finish_not_paid)</title>
<path fill="none" stroke="black" d="M369.83,-186.94C382.56,-167.94 397.42,-145.78 404.24,-135.61"/>
</g>
<!-- #option([ns&#45;0]arriving, [ns&#45;0]tax, pay_tax) -->
<g id="node6" class="node">
<title>#option([ns&#45;0]arriving, [ns&#45;0]tax, pay_tax)</title>
<polygon fill="#ffffff" stroke="transparent" points="385,-305 385,-318 427,-318 427,-305 385,-305"/>
<text text-anchor="start" x="386" y="-309" font-family="Times,serif" font-size="10.00">pay_tax</text>
</g>
<!-- [ns&#45;0]arriving&#45;&gt;#option([ns&#45;0]arriving, [ns&#45;0]tax, pay_tax) -->
<g id="edge1" class="edge">
<title>[ns&#45;0]arriving:[ns&#45;0]arriving&#45;&gt;#option([ns&#45;0]arriving, [ns&#45;0]tax, pay_tax):#option([ns&#45;0]arriving, [ns&#45;0]tax, pay_tax)</title>
<path fill="none" stroke="black" stroke-dasharray="1,5" d="M426.79,-369.8C420.57,-352.8 411.98,-329.35 408.08,-318.69"/>
</g>
<!-- #option([ns&#45;0]arriving, [ns&#45;0]finish_not_paid, not_paid) -->
<g id="node7" class="node">
<title>#option([ns&#45;0]arriving, [ns&#45;0]finish_not_paid, not_paid)</title>
<polygon fill="#ffffff" stroke="transparent" points="499,-213.5 499,-226.5 546,-226.5 546,-213.5 499,-213.5"/>
<text text-anchor="start" x="500" y="-217.5" font-family="Times,serif" font-size="10.00">not_paid</text>
</g>
<!-- [ns&#45;0]arriving&#45;&gt;#option([ns&#45;0]arriving, [ns&#45;0]finish_not_paid, not_paid) -->
<g id="edge3" class="edge">
<title>[ns&#45;0]arriving:[ns&#45;0]arriving&#45;&gt;#option([ns&#45;0]arriving, [ns&#45;0]finish_not_paid, not_paid):#option([ns&#45;0]arriving, [ns&#45;0]finish_not_paid, not_paid)</title>
<path fill="none" stroke="black" stroke-dasharray="1,5" d="M444.27,-369.9C464.22,-331.81 507.29,-249.59 519,-227.22"/>
</g>
<!-- #option([ns&#45;0]arriving, [ns&#45;0]tax, pay_tax)&#45;&gt;[ns&#45;0]tax -->
<g id="edge2" class="edge">
<title>#option([ns&#45;0]arriving, [ns&#45;0]tax, pay_tax):#option([ns&#45;0]arriving, [ns&#45;0]tax, pay_tax)&#45;&gt;[ns&#45;0]tax:[ns&#45;0]tax</title>
<path fill="none" stroke="black" stroke-dasharray="1,5" d="M402.37,-305.4C396.8,-296.8 385.63,-279.57 374.87,-262.96"/>
<polygon fill="black" stroke="black" points="377.68,-260.86 369.3,-254.37 371.8,-264.67 377.68,-260.86"/>
</g>
<!-- #option([ns&#45;0]arriving, [ns&#45;0]finish_not_paid, not_paid)&#45;&gt;[ns&#45;0]finish_not_paid -->
<g id="edge4" class="edge">
<title>#option([ns&#45;0]arriving, [ns&#45;0]finish_not_paid, not_paid):#option([ns&#45;0]arriving, [ns&#45;0]finish_not_paid, not_paid)&#45;&gt;[ns&#45;0]finish_not_paid:[ns&#45;0]finish_not_paid</title>
<path fill="none" stroke="black" stroke-dasharray="1,5" d="M522,-213.88C522,-194.12 522,-126.54 522,-81.27"/>
<polygon fill="black" stroke="black" points="525.5,-81.13 522,-71.13 518.5,-81.13 525.5,-81.13"/>
</g>
<!-- #answer(True, [ns&#45;0]tax, [ns&#45;0]finish_paid)&#45;&gt;[ns&#45;0]finish_paid -->
<g id="edge6" class="edge">
<title>#answer(True, [ns&#45;0]tax, [ns&#45;0]finish_paid):#answer(True, [ns&#45;0]tax, [ns&#45;0]finish_paid)&#45;&gt;[ns&#45;0]finish_paid:[ns&#45;0]finish_paid</title>
<path fill="none" stroke="black" d="M252.37,-122.4C243.48,-113.56 225.44,-95.62 208.31,-78.59"/>
<polygon fill="black" stroke="black" points="210.62,-75.94 201.06,-71.37 205.68,-80.91 210.62,-75.94"/>
</g>
<!-- #answer(False, [ns&#45;0]tax, [ns&#45;0]finish_not_paid)&#45;&gt;[ns&#45;0]finish_not_paid -->
<g id="edge8" class="edge">
<title>#answer(False, [ns&#45;0]tax, [ns&#45;0]finish_not_paid):#answer(False, [ns&#45;0]tax, [ns&#45;0]finish_not_paid)&#45;&gt;[ns&#45;0]finish_not_paid:[ns&#45;0]finish_not_paid</title>
<path fill="none" stroke="black" d="M415.13,-122.4C426.64,-113.37 450.24,-94.84 472.35,-77.48"/>
<polygon fill="black" stroke="black" points="474.7,-80.09 480.4,-71.16 470.37,-74.58 474.7,-80.09"/>
</g>
</g>
</svg>
