<?xml version="1.0" encoding="UTF-8" standalone="no"?>
<!DOCTYPE svg PUBLIC "-//W3C//DTD SVG 1.1//EN"
 "http://www.w3.org/Graphics/SVG/1.1/DTD/svg11.dtd">
<!-- Generated by graphviz version 2.34.0 (20130907.0221)
 -->
<!-- Title: quest Pages: 1 -->
<svg width="499pt" height="540pt"
 viewBox="0.00 0.00 499.00 540.00" xmlns="http://www.w3.org/2000/svg" xmlns:xlink="http://www.w3.org/1999/xlink">
<g id="graph0" class="graph" transform="scale(1 1) rotate(0) translate(4 536)">
<title>quest</title>
<polygon fill="white" stroke="white" points="-4,4 -4,-536 495,-536 495,4 -4,4"/>
<!-- [ns&#45;0]start -->
<g id="node1" class="node"><title>[ns&#45;0]start</title>
<polygon fill="#eeeeee" stroke="none" points="245.5,-472.5 245.5,-527.5 370.5,-527.5 370.5,-472.5 245.5,-472.5"/>
<text text-anchor="start" x="248" y="-517.5" font-family="Times,serif" font-style="italic" font-size="10.00">[ns&#45;0]start</text>
<text text-anchor="start" x="321" y="-517.5" font-family="Times,serif" font-weight="bold" font-size="10.00">complex</text>
<text text-anchor="start" x="248" y="-503" font-family="Times,serif" font-size="10.00">Начало: «сложное» задание</text>
<polygon fill="#dddddd" stroke="none" points="247,-486 247,-499 370,-499 370,-486 247,-486"/>
<text text-anchor="start" x="248" y="-491" font-family="Times,serif" font-size="10.00">hero </text>
<text text-anchor="start" x="269" y="-491" font-family="Times,serif" font-weight="bold" font-size="10.00">находится в</text>
<text text-anchor="start" x="324" y="-491" font-family="Times,serif" font-size="10.00"> place_1</text>
<polygon fill="#ffffff" stroke="none" points="247,-473 247,-486 370,-486 370,-473 247,-473"/>
<text text-anchor="start" x="248" y="-478" font-family="Times,serif" font-weight="bold" font-size="10.00">сообщение:</text>
<text text-anchor="start" x="300" y="-478" font-family="Times,serif" font-size="10.00"> intro</text>
<polygon fill="none" stroke="black" points="245.5,-472.5 245.5,-527.5 370.5,-527.5 370.5,-472.5 245.5,-472.5"/>
</g>
<!-- [ns&#45;0]arriving -->
<g id="node5" class="node"><title>[ns&#45;0]arriving</title>
<polygon fill="#ddddff" stroke="none" points="161.5,-386 161.5,-428 454.5,-428 454.5,-386 161.5,-386"/>
<text text-anchor="start" x="164" y="-418.5" font-family="Times,serif" font-style="italic" font-size="10.00">[ns&#45;0]arriving</text>
<text text-anchor="start" x="164" y="-404" font-family="Times,serif" font-size="10.00">Заплатить пошлину при прибытии в город или махнуть через стену</text>
<polygon fill="#ccccee" stroke="none" points="163,-387 163,-400 454,-400 454,-387 163,-387"/>
<text text-anchor="start" x="164" y="-392" font-family="Times,serif" font-size="10.00">hero </text>
<text text-anchor="start" x="185" y="-392" font-family="Times,serif" font-weight="bold" font-size="10.00">находится в</text>
<text text-anchor="start" x="240" y="-392" font-family="Times,serif" font-size="10.00"> place_10</text>
<polygon fill="none" stroke="black" points="161.5,-386 161.5,-428 454.5,-428 454.5,-386 161.5,-386"/>
</g>
<!-- [ns&#45;0]start&#45;&gt;[ns&#45;0]arriving -->
<g id="edge7" class="edge"><title>[ns&#45;0]start:[ns&#45;0]start&#45;&gt;[ns&#45;0]arriving:[ns&#45;0]arriving</title>
<path fill="none" stroke="black" d="M308,-472.189C308,-461.542 308,-449.241 308,-438.275"/>
<polygon fill="black" stroke="black" points="311.5,-438.266 308,-428.266 304.5,-438.267 311.5,-438.266"/>
</g>
<!-- [ns&#45;0]finish_paid -->
<g id="node2" class="node"><title>[ns&#45;0]finish_paid</title>
<polygon fill="#eeeeee" stroke="none" points="7.5,-4.5 7.5,-85.5 228.5,-85.5 228.5,-4.5 7.5,-4.5"/>
<text text-anchor="start" x="10" y="-75.5" font-family="Times,serif" font-style="italic" font-size="10.00">[ns&#45;0]finish_paid</text>
<text text-anchor="start" x="10" y="-61" font-family="Times,serif" font-size="10.00">завершить задание</text>
<polygon fill="#ffffff" stroke="none" points="9,-44 9,-57 228,-57 228,-44 9,-44"/>
<text text-anchor="start" x="10" y="-49" font-family="Times,serif" font-weight="bold" font-size="10.00">выдать награду </text>
<text text-anchor="start" x="85" y="-49" font-family="Times,serif" font-size="10.00">  hero </text>
<text text-anchor="start" x="110" y="-49" font-family="Times,serif" font-weight="bold" font-size="10.00">типа </text>
<text text-anchor="start" x="134" y="-49" font-family="Times,serif" font-size="10.00"> finish </text>
<text text-anchor="start" x="162" y="-49" font-family="Times,serif" font-weight="bold" font-size="10.00">в размере</text>
<text text-anchor="start" x="205" y="-49" font-family="Times,serif" font-size="10.00"> 1.00</text>
<polygon fill="#ffffff" stroke="none" points="9,-31 9,-44 228,-44 228,-31 9,-31"/>
<text text-anchor="start" x="10" y="-36" font-family="Times,serif" font-weight="bold" font-size="10.00">увеличить влияние </text>
<text text-anchor="start" x="98" y="-36" font-family="Times,serif" font-size="10.00">  place_10 </text>
<text text-anchor="start" x="143" y="-36" font-family="Times,serif" font-weight="bold" font-size="10.00">на </text>
<text text-anchor="start" x="156" y="-36" font-family="Times,serif" font-size="10.00"> 1.00</text>
<polygon fill="#eeeeee" stroke="none" points="9,-18 9,-31 228,-31 228,-18 9,-18"/>
<text text-anchor="start" x="10" y="-23" font-family="Times,serif" font-weight="bold" font-size="10.00">результаты:</text>
<text text-anchor="start" x="10" y="-10" font-family="Times,serif" font-weight="bold" font-size="10.00">place_10</text>
<text text-anchor="start" x="120" y="-9" font-family="Times,serif" font-size="10.00">successed</text>
<polygon fill="none" stroke="black" points="7.5,-4.5 7.5,-85.5 228.5,-85.5 228.5,-4.5 7.5,-4.5"/>
</g>
<!-- [ns&#45;0]tax -->
<g id="node3" class="node"><title>[ns&#45;0]tax</title>
<polygon fill="#ffdddd" stroke="none" points="119,-202 119,-270 319,-270 319,-202 119,-202"/>
<text text-anchor="start" x="121" y="-260.5" font-family="Times,serif" font-style="italic" font-size="10.00">[ns&#45;0]tax</text>
<text text-anchor="start" x="121" y="-246" font-family="Times,serif" font-size="10.00">Хватит ли у героя денег на пошлину</text>
<polygon fill="#ffeeee" stroke="none" points="120,-229 120,-242 318,-242 318,-229 120,-229"/>
<text text-anchor="start" x="121" y="-234" font-family="Times,serif" font-weight="bold" font-size="10.00">сообщение:</text>
<text text-anchor="start" x="173" y="-234" font-family="Times,serif" font-size="10.00"> tax_officer_conversation</text>
<polygon fill="#ffdddd" stroke="none" points="120,-216 120,-229 318,-229 318,-216 120,-216"/>
<text text-anchor="start" x="121" y="-221" font-family="Times,serif" font-weight="bold" font-size="10.00">условия:</text>
<text text-anchor="start" x="121" y="-208" font-family="Times,serif" font-weight="bold" font-size="10.00">если </text>
<polygon fill="#ffdddd" stroke="none" points="201,-203 201,-216 318,-216 318,-203 201,-203"/>
<text text-anchor="start" x="202" y="-208" font-family="Times,serif" font-size="10.00">hero </text>
<text text-anchor="start" x="223" y="-208" font-family="Times,serif" font-weight="bold" font-size="10.00">имеет </text>
<text text-anchor="start" x="252" y="-208" font-family="Times,serif" font-size="10.00"> 100500 </text>
<text text-anchor="start" x="289" y="-208" font-family="Times,serif" font-weight="bold" font-size="10.00">монет</text>
<polygon fill="none" stroke="black" points="119,-202 119,-270 319,-270 319,-202 119,-202"/>
</g>
<!-- #answer(False, [ns&#45;0]tax, [ns&#45;0]finish_not_paid) -->
<g id="node6" class="node"><title>#answer(False, [ns&#45;0]tax, [ns&#45;0]finish_not_paid)</title>
<polygon fill="#ffffff" stroke="none" points="291,-137 291,-151 324,-151 324,-137 291,-137"/>
<text text-anchor="start" x="292" y="-141.5" font-family="Times,serif" font-size="10.00">ЛОЖЬ</text>
</g>
<!-- [ns&#45;0]tax&#45;&gt;#answer(False, [ns&#45;0]tax, [ns&#45;0]finish_not_paid) -->
<g id="edge1" class="edge"><title>[ns&#45;0]tax:[ns&#45;0]tax&#45;&gt;#answer(False, [ns&#45;0]tax, [ns&#45;0]finish_not_paid):#answer(False, [ns&#45;0]tax, [ns&#45;0]finish_not_paid)</title>
<path fill="none" stroke="black" d="M251.268,-201.998C269.516,-183.336 290.668,-161.703 300.871,-151.268"/>
</g>
<!-- #answer(True, [ns&#45;0]tax, [ns&#45;0]finish_paid) -->
<g id="node7" class="node"><title>#answer(True, [ns&#45;0]tax, [ns&#45;0]finish_paid)</title>
<polygon fill="#ffffff" stroke="none" points="146,-137 146,-151 192,-151 192,-137 146,-137"/>
<text text-anchor="start" x="147" y="-141.5" font-family="Times,serif" font-size="10.00">ИСТИНА</text>
</g>
<!-- [ns&#45;0]tax&#45;&gt;#answer(True, [ns&#45;0]tax, [ns&#45;0]finish_paid) -->
<g id="edge3" class="edge"><title>[ns&#45;0]tax:[ns&#45;0]tax&#45;&gt;#answer(True, [ns&#45;0]tax, [ns&#45;0]finish_paid):#answer(True, [ns&#45;0]tax, [ns&#45;0]finish_paid)</title>
<path fill="none" stroke="black" d="M200.666,-201.998C190.298,-183.336 178.28,-161.703 172.482,-151.268"/>
</g>
<!-- [ns&#45;0]finish_not_paid -->
<g id="node4" class="node"><title>[ns&#45;0]finish_not_paid</title>
<polygon fill="#eeeeee" stroke="none" points="262.5,-4.5 262.5,-85.5 483.5,-85.5 483.5,-4.5 262.5,-4.5"/>
<text text-anchor="start" x="265" y="-75.5" font-family="Times,serif" font-style="italic" font-size="10.00">[ns&#45;0]finish_not_paid</text>
<text text-anchor="start" x="265" y="-61" font-family="Times,serif" font-size="10.00">завершить задание</text>
<polygon fill="#ffffff" stroke="none" points="264,-44 264,-57 483,-57 483,-44 264,-44"/>
<text text-anchor="start" x="265" y="-49" font-family="Times,serif" font-weight="bold" font-size="10.00">выдать награду </text>
<text text-anchor="start" x="340" y="-49" font-family="Times,serif" font-size="10.00">  hero </text>
<text text-anchor="start" x="365" y="-49" font-family="Times,serif" font-weight="bold" font-size="10.00">типа </text>
<text text-anchor="start" x="389" y="-49" font-family="Times,serif" font-size="10.00"> finish </text>
<text text-anchor="start" x="417" y="-49" font-family="Times,serif" font-weight="bold" font-size="10.00">в размере</text>
<text text-anchor="start" x="460" y="-49" font-family="Times,serif" font-size="10.00"> 1.00</text>
<polygon fill="#ffffff" stroke="none" points="264,-31 264,-44 483,-44 483,-31 264,-31"/>
<text text-anchor="start" x="265" y="-36" font-family="Times,serif" font-weight="bold" font-size="10.00">увеличить влияние </text>
<text text-anchor="start" x="353" y="-36" font-family="Times,serif" font-size="10.00">  place_10 </text>
<text text-anchor="start" x="398" y="-36" font-family="Times,serif" font-weight="bold" font-size="10.00">на </text>
<text text-anchor="start" x="411" y="-36" font-family="Times,serif" font-size="10.00"> &#45;1.00</text>
<polygon fill="#eeeeee" stroke="none" points="264,-18 264,-31 483,-31 483,-18 264,-18"/>
<text text-anchor="start" x="265" y="-23" font-family="Times,serif" font-weight="bold" font-size="10.00">результаты:</text>
<text text-anchor="start" x="265" y="-10" font-family="Times,serif" font-weight="bold" font-size="10.00">place_10</text>
<text text-anchor="start" x="375" y="-9" font-family="Times,serif" font-size="10.00">failed</text>
<polygon fill="none" stroke="black" points="262.5,-4.5 262.5,-85.5 483.5,-85.5 483.5,-4.5 262.5,-4.5"/>
</g>
<!-- #option([ns&#45;0]arriving, [ns&#45;0]tax, pay_tax) -->
<g id="node8" class="node"><title>#option([ns&#45;0]arriving, [ns&#45;0]tax, pay_tax)</title>
<polygon fill="#ffffff" stroke="none" points="250,-321 250,-335 287,-335 287,-321 250,-321"/>
<text text-anchor="start" x="251" y="-325.5" font-family="Times,serif" font-size="10.00">pay_tax</text>
</g>
<!-- [ns&#45;0]arriving&#45;&gt;#option([ns&#45;0]arriving, [ns&#45;0]tax, pay_tax) -->
<g id="edge5" class="edge"><title>[ns&#45;0]arriving:[ns&#45;0]arriving&#45;&gt;#option([ns&#45;0]arriving, [ns&#45;0]tax, pay_tax):#option([ns&#45;0]arriving, [ns&#45;0]tax, pay_tax)</title>
<path fill="none" stroke="black" stroke-dasharray="1,5" d="M297.49,-385.769C288.787,-369.015 276.962,-346.253 271.295,-335.342"/>
</g>
<!-- #option([ns&#45;0]arriving, [ns&#45;0]finish_not_paid, not_paid) -->
<g id="node9" class="node"><title>#option([ns&#45;0]arriving, [ns&#45;0]finish_not_paid, not_paid)</title>
<polygon fill="#ffffff" stroke="none" points="353,-229 353,-243 393,-243 393,-229 353,-229"/>
<text text-anchor="start" x="354" y="-233.5" font-family="Times,serif" font-size="10.00">not_paid</text>
</g>
<!-- [ns&#45;0]arriving&#45;&gt;#option([ns&#45;0]arriving, [ns&#45;0]finish_not_paid, not_paid) -->
<g id="edge8" class="edge"><title>[ns&#45;0]arriving:[ns&#45;0]arriving&#45;&gt;#option([ns&#45;0]arriving, [ns&#45;0]finish_not_paid, not_paid):#option([ns&#45;0]arriving, [ns&#45;0]finish_not_paid, not_paid)</title>
<path fill="none" stroke="black" stroke-dasharray="1,5" d="M315.712,-385.95C330.441,-347.654 361.894,-265.874 370.679,-243.035"/>
</g>
<!-- #answer(False, [ns&#45;0]tax, [ns&#45;0]finish_not_paid)&#45;&gt;[ns&#45;0]finish_not_paid -->
<g id="edge2" class="edge"><title>#answer(False, [ns&#45;0]tax, [ns&#45;0]finish_not_paid):#answer(False, [ns&#45;0]tax, [ns&#45;0]finish_not_paid)&#45;&gt;[ns&#45;0]finish_not_paid:[ns&#45;0]finish_not_paid</title>
<path fill="none" stroke="black" d="M311.129,-136.932C317.095,-128.164 328.682,-111.134 340.232,-94.159"/>
<polygon fill="black" stroke="black" points="343.142,-96.1036 345.874,-85.867 337.355,-92.1657 343.142,-96.1036"/>
</g>
<!-- #answer(True, [ns&#45;0]tax, [ns&#45;0]finish_paid)&#45;&gt;[ns&#45;0]finish_paid -->
<g id="edge4" class="edge"><title>#answer(True, [ns&#45;0]tax, [ns&#45;0]finish_paid):#answer(True, [ns&#45;0]tax, [ns&#45;0]finish_paid)&#45;&gt;[ns&#45;0]finish_paid:[ns&#45;0]finish_paid</title>
<path fill="none" stroke="black" d="M165.81,-136.932C161.283,-128.323 152.57,-111.75 143.808,-95.0849"/>
<polygon fill="black" stroke="black" points="146.713,-93.0893 138.961,-85.867 140.517,-96.3469 146.713,-93.0893"/>
</g>
<!-- #option([ns&#45;0]arriving, [ns&#45;0]tax, pay_tax)&#45;&gt;[ns&#45;0]tax -->
<g id="edge6" class="edge"><title>#option([ns&#45;0]arriving, [ns&#45;0]tax, pay_tax):#option([ns&#45;0]arriving, [ns&#45;0]tax, pay_tax)&#45;&gt;[ns&#45;0]tax:[ns&#45;0]tax</title>
<path fill="none" stroke="black" stroke-dasharray="1,5" d="M264.632,-320.814C259.889,-312.102 250.833,-295.468 242.031,-279.301"/>
<polygon fill="black" stroke="black" points="245.051,-277.53 237.196,-270.421 238.904,-280.877 245.051,-277.53"/>
</g>
<!-- #option([ns&#45;0]arriving, [ns&#45;0]finish_not_paid, not_paid)&#45;&gt;[ns&#45;0]finish_not_paid -->
<g id="edge9" class="edge"><title>#option([ns&#45;0]arriving, [ns&#45;0]finish_not_paid, not_paid):#option([ns&#45;0]arriving, [ns&#45;0]finish_not_paid, not_paid)&#45;&gt;[ns&#45;0]finish_not_paid:[ns&#45;0]finish_not_paid</title>
<path fill="none" stroke="black" stroke-dasharray="1,5" d="M373,-228.712C373,-208.346 373,-142.813 373,-96.0646"/>
<polygon fill="black" stroke="black" points="376.5,-95.8078 373,-85.8078 369.5,-95.8079 376.5,-95.8078"/>
</g>
</g>
</svg>
