<?xml version="1.0" encoding="UTF-8" standalone="no"?>
<!DOCTYPE svg PUBLIC "-//W3C//DTD SVG 1.1//EN"
 "http://www.w3.org/Graphics/SVG/1.1/DTD/svg11.dtd">
<!-- Generated by graphviz version 2.38.0 (20140413.2041)
 -->
<!-- Title: quest Pages: 1 -->
<svg width="498pt" height="521pt"
 viewBox="0.00 0.00 498.00 521.00" xmlns="http://www.w3.org/2000/svg" xmlns:xlink="http://www.w3.org/1999/xlink">
<g id="graph0" class="graph" transform="scale(1 1) rotate(0) translate(4 517)">
<title>quest</title>
<polygon fill="white" stroke="none" points="-4,4 -4,-517 494,-517 494,4 -4,4"/>
<!-- [ns&#45;0]start -->
<g id="node1" class="node"><title>[ns&#45;0]start</title>
<polygon fill="#eeeeee" stroke="none" points="252,-455 252,-509 376,-509 376,-455 252,-455"/>
<text text-anchor="start" x="254" y="-500" font-family="Times,serif" font-style="italic" font-size="10.00">[ns&#45;0]start</text>
<text text-anchor="start" x="327.5" y="-500" font-family="Times,serif" font-weight="bold" font-size="10.00">complex</text>
<text text-anchor="start" x="254" y="-486" font-family="Times,serif" font-size="10.00">Начало: «сложное» задание</text>
<polygon fill="#dddddd" stroke="none" points="253,-469 253,-482 375,-482 375,-469 253,-469"/>
<text text-anchor="start" x="254" y="-474" font-family="Times,serif" font-size="10.00">hero </text>
<text text-anchor="start" x="275" y="-474" font-family="Times,serif" font-weight="bold" font-size="10.00">находится в</text>
<text text-anchor="start" x="330" y="-474" font-family="Times,serif" font-size="10.00"> place_1</text>
<polygon fill="#ffffff" stroke="none" points="253,-456 253,-469 375,-469 375,-456 253,-456"/>
<text text-anchor="start" x="254" y="-461" font-family="Times,serif" font-weight="bold" font-size="10.00">сообщение:</text>
<text text-anchor="start" x="306" y="-461" font-family="Times,serif" font-size="10.00"> intro</text>
<polygon fill="none" stroke="black" points="252,-455 252,-509 376,-509 376,-455 252,-455"/>
</g>
<!-- [ns&#45;0]arriving -->
<g id="node5" class="node"><title>[ns&#45;0]arriving</title>
<polygon fill="#ddddff" stroke="none" points="168.5,-370 168.5,-411 459.5,-411 459.5,-370 168.5,-370"/>
<text text-anchor="start" x="171" y="-401.5" font-family="Times,serif" font-style="italic" font-size="10.00">[ns&#45;0]arriving</text>
<text text-anchor="start" x="171" y="-387.5" font-family="Times,serif" font-size="10.00">Заплатить пошлину при прибытии в город или махнуть через стену</text>
<polygon fill="#ccccee" stroke="none" points="170,-370.5 170,-383.5 459,-383.5 459,-370.5 170,-370.5"/>
<text text-anchor="start" x="171" y="-375.5" font-family="Times,serif" font-size="10.00">hero </text>
<text text-anchor="start" x="192" y="-375.5" font-family="Times,serif" font-weight="bold" font-size="10.00">находится в</text>
<text text-anchor="start" x="247" y="-375.5" font-family="Times,serif" font-size="10.00"> place_4</text>
<polygon fill="none" stroke="black" points="168.5,-370 168.5,-411 459.5,-411 459.5,-370 168.5,-370"/>
</g>
<!-- [ns&#45;0]start&#45;&gt;[ns&#45;0]arriving -->
<g id="edge7" class="edge"><title>[ns&#45;0]start:[ns&#45;0]start&#45;&gt;[ns&#45;0]arriving:[ns&#45;0]arriving</title>
<path fill="none" stroke="black" d="M314,-454.631C314,-444.19 314,-432.132 314,-421.37"/>
<polygon fill="black" stroke="black" points="317.5,-421.148 314,-411.148 310.5,-421.148 317.5,-421.148"/>
</g>
<!-- [ns&#45;0]finish_paid -->
<g id="node2" class="node"><title>[ns&#45;0]finish_paid</title>
<polygon fill="#eeeeee" stroke="none" points="8,-4 8,-71 228,-71 228,-4 8,-4"/>
<text text-anchor="start" x="10" y="-61.5" font-family="Times,serif" font-style="italic" font-size="10.00">[ns&#45;0]finish_paid</text>
<text text-anchor="start" x="10" y="-47.5" font-family="Times,serif" font-size="10.00">завершить задание</text>
<polygon fill="#ffffff" stroke="none" points="9,-30.5 9,-43.5 227,-43.5 227,-30.5 9,-30.5"/>
<text text-anchor="start" x="10" y="-35.5" font-family="Times,serif" font-weight="bold" font-size="10.00">выдать награду </text>
<text text-anchor="start" x="85" y="-35.5" font-family="Times,serif" font-size="10.00">  hero </text>
<text text-anchor="start" x="110" y="-35.5" font-family="Times,serif" font-weight="bold" font-size="10.00">типа </text>
<text text-anchor="start" x="134" y="-35.5" font-family="Times,serif" font-size="10.00"> finish </text>
<text text-anchor="start" x="162" y="-35.5" font-family="Times,serif" font-weight="bold" font-size="10.00">в размере</text>
<text text-anchor="start" x="205" y="-35.5" font-family="Times,serif" font-size="10.00"> 1.00</text>
<polygon fill="#eeeeee" stroke="none" points="9,-17.5 9,-30.5 227,-30.5 227,-17.5 9,-17.5"/>
<text text-anchor="start" x="10" y="-22.5" font-family="Times,serif" font-weight="bold" font-size="10.00">результаты:</text>
<text text-anchor="start" x="10" y="-9.5" font-family="Times,serif" font-weight="bold" font-size="10.00">place_4</text>
<text text-anchor="start" x="135" y="-8.5" font-family="Times,serif" font-size="10.00">successed</text>
<polygon fill="none" stroke="black" points="8,-4 8,-71 228,-71 228,-4 8,-4"/>
</g>
<!-- [ns&#45;0]tax -->
<g id="node3" class="node"><title>[ns&#45;0]tax</title>
<polygon fill="#ffdddd" stroke="none" points="157.5,-187 157.5,-254 318.5,-254 318.5,-187 157.5,-187"/>
<text text-anchor="start" x="160" y="-244.5" font-family="Times,serif" font-style="italic" font-size="10.00">[ns&#45;0]tax</text>
<text text-anchor="start" x="160" y="-230.5" font-family="Times,serif" font-size="10.00">Хватит ли у героя денег на пошлину</text>
<polygon fill="#ffeeee" stroke="none" points="159,-213.5 159,-226.5 318,-226.5 318,-213.5 159,-213.5"/>
<text text-anchor="start" x="160" y="-218.5" font-family="Times,serif" font-weight="bold" font-size="10.00">сообщение:</text>
<text text-anchor="start" x="212" y="-218.5" font-family="Times,serif" font-size="10.00"> tax_officer_conversation</text>
<polygon fill="#ffdddd" stroke="none" points="159,-200.5 159,-213.5 318,-213.5 318,-200.5 159,-200.5"/>
<text text-anchor="start" x="160" y="-205.5" font-family="Times,serif" font-weight="bold" font-size="10.00">условия:</text>
<text text-anchor="start" x="160" y="-192.5" font-family="Times,serif" font-weight="bold" font-size="10.00">если </text>
<polygon fill="#ffdddd" stroke="none" points="200,-187.5 200,-200.5 318,-200.5 318,-187.5 200,-187.5"/>
<text text-anchor="start" x="201" y="-192.5" font-family="Times,serif" font-size="10.00">hero </text>
<text text-anchor="start" x="222" y="-192.5" font-family="Times,serif" font-weight="bold" font-size="10.00">имеет </text>
<text text-anchor="start" x="251" y="-192.5" font-family="Times,serif" font-size="10.00"> 100500 </text>
<text text-anchor="start" x="288" y="-192.5" font-family="Times,serif" font-weight="bold" font-size="10.00">монет</text>
<polygon fill="none" stroke="black" points="157.5,-187 157.5,-254 318.5,-254 318.5,-187 157.5,-187"/>
</g>
<!-- #answer(False, [ns&#45;0]tax, [ns&#45;0]finish_not_paid) -->
<g id="node6" class="node"><title>#answer(False, [ns&#45;0]tax, [ns&#45;0]finish_not_paid)</title>
<polygon fill="#ffffff" stroke="none" points="300,-122 300,-135 332,-135 332,-122 300,-122"/>
<text text-anchor="start" x="301" y="-126" font-family="Times,serif" font-size="10.00">ЛОЖЬ</text>
</g>
<!-- [ns&#45;0]tax&#45;&gt;#answer(False, [ns&#45;0]tax, [ns&#45;0]finish_not_paid) -->
<g id="edge1" class="edge"><title>[ns&#45;0]tax:[ns&#45;0]tax&#45;&gt;#answer(False, [ns&#45;0]tax, [ns&#45;0]finish_not_paid):#answer(False, [ns&#45;0]tax, [ns&#45;0]finish_not_paid)</title>
<path fill="none" stroke="black" d="M266.38,-186.935C282.933,-167.942 302.248,-145.78 311.107,-135.615"/>
</g>
<!-- #answer(True, [ns&#45;0]tax, [ns&#45;0]finish_paid) -->
<g id="node7" class="node"><title>#answer(True, [ns&#45;0]tax, [ns&#45;0]finish_paid)</title>
<polygon fill="#ffffff" stroke="none" points="156,-122 156,-135 201,-135 201,-122 156,-122"/>
<text text-anchor="start" x="157" y="-126" font-family="Times,serif" font-size="10.00">ИСТИНА</text>
</g>
<!-- [ns&#45;0]tax&#45;&gt;#answer(True, [ns&#45;0]tax, [ns&#45;0]finish_paid) -->
<g id="edge3" class="edge"><title>[ns&#45;0]tax:[ns&#45;0]tax&#45;&gt;#answer(True, [ns&#45;0]tax, [ns&#45;0]finish_paid):#answer(True, [ns&#45;0]tax, [ns&#45;0]finish_paid)</title>
<path fill="none" stroke="black" d="M216.169,-186.935C203.436,-167.942 188.579,-145.78 181.764,-135.615"/>
</g>
<!-- [ns&#45;0]finish_not_paid -->
<g id="node4" class="node"><title>[ns&#45;0]finish_not_paid</title>
<polygon fill="#eeeeee" stroke="none" points="262,-4 262,-71 482,-71 482,-4 262,-4"/>
<text text-anchor="start" x="264" y="-61.5" font-family="Times,serif" font-style="italic" font-size="10.00">[ns&#45;0]finish_not_paid</text>
<text text-anchor="start" x="264" y="-47.5" font-family="Times,serif" font-size="10.00">завершить задание</text>
<polygon fill="#ffffff" stroke="none" points="263,-30.5 263,-43.5 481,-43.5 481,-30.5 263,-30.5"/>
<text text-anchor="start" x="264" y="-35.5" font-family="Times,serif" font-weight="bold" font-size="10.00">выдать награду </text>
<text text-anchor="start" x="339" y="-35.5" font-family="Times,serif" font-size="10.00">  hero </text>
<text text-anchor="start" x="364" y="-35.5" font-family="Times,serif" font-weight="bold" font-size="10.00">типа </text>
<text text-anchor="start" x="388" y="-35.5" font-family="Times,serif" font-size="10.00"> finish </text>
<text text-anchor="start" x="416" y="-35.5" font-family="Times,serif" font-weight="bold" font-size="10.00">в размере</text>
<text text-anchor="start" x="459" y="-35.5" font-family="Times,serif" font-size="10.00"> 1.00</text>
<polygon fill="#eeeeee" stroke="none" points="263,-17.5 263,-30.5 481,-30.5 481,-17.5 263,-17.5"/>
<text text-anchor="start" x="264" y="-22.5" font-family="Times,serif" font-weight="bold" font-size="10.00">результаты:</text>
<text text-anchor="start" x="264" y="-9.5" font-family="Times,serif" font-weight="bold" font-size="10.00">place_4</text>
<text text-anchor="start" x="406" y="-8.5" font-family="Times,serif" font-size="10.00">failed</text>
<polygon fill="none" stroke="black" points="262,-4 262,-71 482,-71 482,-4 262,-4"/>
</g>
<!-- #option([ns&#45;0]arriving, [ns&#45;0]tax, pay_tax) -->
<g id="node8" class="node"><title>#option([ns&#45;0]arriving, [ns&#45;0]tax, pay_tax)</title>
<polygon fill="#ffffff" stroke="none" points="259,-305 259,-318 295,-318 295,-305 259,-305"/>
<text text-anchor="start" x="260" y="-309" font-family="Times,serif" font-size="10.00">pay_tax</text>
</g>
<!-- [ns&#45;0]arriving&#45;&gt;#option([ns&#45;0]arriving, [ns&#45;0]tax, pay_tax) -->
<g id="edge5" class="edge"><title>[ns&#45;0]arriving:[ns&#45;0]arriving&#45;&gt;#option([ns&#45;0]arriving, [ns&#45;0]tax, pay_tax):#option([ns&#45;0]arriving, [ns&#45;0]tax, pay_tax)</title>
<path fill="none" stroke="black" stroke-dasharray="1,5" d="M304.472,-369.799C296.249,-352.8 284.908,-329.35 279.751,-318.687"/>
</g>
<!-- #option([ns&#45;0]arriving, [ns&#45;0]finish_not_paid, not_paid) -->
<g id="node9" class="node"><title>#option([ns&#45;0]arriving, [ns&#45;0]finish_not_paid, not_paid)</title>
<polygon fill="#ffffff" stroke="none" points="353,-213.5 353,-226.5 392,-226.5 392,-213.5 353,-213.5"/>
<text text-anchor="start" x="354" y="-217.5" font-family="Times,serif" font-size="10.00">not_paid</text>
</g>
<!-- [ns&#45;0]arriving&#45;&gt;#option([ns&#45;0]arriving, [ns&#45;0]finish_not_paid, not_paid) -->
<g id="edge8" class="edge"><title>[ns&#45;0]arriving:[ns&#45;0]arriving&#45;&gt;#option([ns&#45;0]arriving, [ns&#45;0]finish_not_paid, not_paid):#option([ns&#45;0]arriving, [ns&#45;0]finish_not_paid, not_paid)</title>
<path fill="none" stroke="black" stroke-dasharray="1,5" d="M320.767,-369.899C333.915,-331.815 362.302,-249.591 370.026,-227.219"/>
</g>
<!-- #answer(False, [ns&#45;0]tax, [ns&#45;0]finish_not_paid)&#45;&gt;[ns&#45;0]finish_not_paid -->
<g id="edge2" class="edge"><title>#answer(False, [ns&#45;0]tax, [ns&#45;0]finish_not_paid):#answer(False, [ns&#45;0]tax, [ns&#45;0]finish_not_paid)&#45;&gt;[ns&#45;0]finish_not_paid:[ns&#45;0]finish_not_paid</title>
<path fill="none" stroke="black" d="M319.503,-122.401C324.886,-113.798 335.663,-96.5739 346.06,-79.9583"/>
<polygon fill="black" stroke="black" points="349.094,-81.7076 351.431,-71.3738 343.16,-77.9946 349.094,-81.7076"/>
</g>
<!-- #answer(True, [ns&#45;0]tax, [ns&#45;0]finish_paid)&#45;&gt;[ns&#45;0]finish_paid -->
<g id="edge4" class="edge"><title>#answer(True, [ns&#45;0]tax, [ns&#45;0]finish_paid):#answer(True, [ns&#45;0]tax, [ns&#45;0]finish_paid)&#45;&gt;[ns&#45;0]finish_paid:[ns&#45;0]finish_paid</title>
<path fill="none" stroke="black" d="M174.247,-122.401C168.479,-113.798 156.932,-96.5739 145.793,-79.9583"/>
<polygon fill="black" stroke="black" points="148.514,-77.7311 140.038,-71.3738 142.7,-81.629 148.514,-77.7311"/>
</g>
<!-- #option([ns&#45;0]arriving, [ns&#45;0]tax, pay_tax)&#45;&gt;[ns&#45;0]tax -->
<g id="edge6" class="edge"><title>#option([ns&#45;0]arriving, [ns&#45;0]tax, pay_tax):#option([ns&#45;0]arriving, [ns&#45;0]tax, pay_tax)&#45;&gt;[ns&#45;0]tax:[ns&#45;0]tax</title>
<path fill="none" stroke="black" stroke-dasharray="1,5" d="M274.56,-305.401C270.88,-296.956 263.58,-280.203 256.464,-263.874"/>
<polygon fill="black" stroke="black" points="259.528,-262.143 252.325,-254.374 253.111,-264.939 259.528,-262.143"/>
</g>
<!-- #option([ns&#45;0]arriving, [ns&#45;0]finish_not_paid, not_paid)&#45;&gt;[ns&#45;0]finish_not_paid -->
<g id="edge9" class="edge"><title>#option([ns&#45;0]arriving, [ns&#45;0]finish_not_paid, not_paid):#option([ns&#45;0]arriving, [ns&#45;0]finish_not_paid, not_paid)&#45;&gt;[ns&#45;0]finish_not_paid:[ns&#45;0]finish_not_paid</title>
<path fill="none" stroke="black" stroke-dasharray="1,5" d="M372,-213.885C372,-194.122 372,-126.538 372,-81.2708"/>
<polygon fill="black" stroke="black" points="375.5,-81.132 372,-71.132 368.5,-81.132 375.5,-81.132"/>
</g>
</g>
</svg>
