<?xml version="1.0" encoding="UTF-8" standalone="no"?>
<!DOCTYPE svg PUBLIC "-//W3C//DTD SVG 1.1//EN"
 "http://www.w3.org/Graphics/SVG/1.1/DTD/svg11.dtd">
<!-- Generated by graphviz version 2.34.0 (20130907.0221)
 -->
<!-- Title: quest Pages: 1 -->
<svg width="583pt" height="408pt"
 viewBox="0.00 0.00 583.00 408.00" xmlns="http://www.w3.org/2000/svg" xmlns:xlink="http://www.w3.org/1999/xlink">
<g id="graph0" class="graph" transform="scale(1 1) rotate(0) translate(4 404)">
<title>quest</title>
<polygon fill="white" stroke="white" points="-4,4 -4,-404 579,-404 579,4 -4,4"/>
<!-- [ns&#45;0]finish_steal -->
<g id="node1" class="node"><title>[ns&#45;0]finish_steal</title>
<polygon fill="#eeeeee" stroke="none" points="7.5,-4 7.5,-150 262.5,-150 262.5,-4 7.5,-4"/>
<text text-anchor="start" x="10" y="-140.5" font-family="Times,serif" font-style="italic" font-size="10.00">[ns&#45;0]finish_steal</text>
<text text-anchor="start" x="10" y="-126" font-family="Times,serif" font-size="10.00">Доставить посылку скупщику</text>
<polygon fill="#dddddd" stroke="none" points="9,-109 9,-122 262,-122 262,-109 9,-109"/>
<text text-anchor="start" x="10" y="-114" font-family="Times,serif" font-size="10.00">hero </text>
<text text-anchor="start" x="31" y="-114" font-family="Times,serif" font-weight="bold" font-size="10.00">находится в</text>
<text text-anchor="start" x="86" y="-114" font-family="Times,serif" font-size="10.00"> place_10</text>
<polygon fill="#ffffff" stroke="none" points="9,-96 9,-109 262,-109 262,-96 9,-96"/>
<text text-anchor="start" x="10" y="-101" font-family="Times,serif" font-weight="bold" font-size="10.00">выдать награду </text>
<text text-anchor="start" x="85" y="-101" font-family="Times,serif" font-size="10.00">  hero </text>
<text text-anchor="start" x="110" y="-101" font-family="Times,serif" font-weight="bold" font-size="10.00">типа </text>
<text text-anchor="start" x="134" y="-101" font-family="Times,serif" font-size="10.00"> finish_steal </text>
<text text-anchor="start" x="186" y="-101" font-family="Times,serif" font-weight="bold" font-size="10.00">в размере</text>
<text text-anchor="start" x="229" y="-101" font-family="Times,serif" font-size="10.00"> 1.50</text>
<polygon fill="#ffffff" stroke="none" points="9,-83 9,-96 262,-96 262,-83 9,-83"/>
<text text-anchor="start" x="10" y="-88" font-family="Times,serif" font-weight="bold" font-size="10.00">увеличить влияние </text>
<text text-anchor="start" x="98" y="-88" font-family="Times,serif" font-size="10.00">  person_1 </text>
<text text-anchor="start" x="143" y="-88" font-family="Times,serif" font-weight="bold" font-size="10.00">на </text>
<text text-anchor="start" x="156" y="-88" font-family="Times,serif" font-size="10.00"> &#45;1.00</text>
<polygon fill="#ffffff" stroke="none" points="9,-70 9,-83 262,-83 262,-70 9,-70"/>
<text text-anchor="start" x="10" y="-75" font-family="Times,serif" font-weight="bold" font-size="10.00">увеличить влияние </text>
<text text-anchor="start" x="98" y="-75" font-family="Times,serif" font-size="10.00">  person_6 </text>
<text text-anchor="start" x="143" y="-75" font-family="Times,serif" font-weight="bold" font-size="10.00">на </text>
<text text-anchor="start" x="156" y="-75" font-family="Times,serif" font-size="10.00"> &#45;1.00</text>
<polygon fill="#ffffff" stroke="none" points="9,-57 9,-70 262,-70 262,-57 9,-57"/>
<text text-anchor="start" x="10" y="-62" font-family="Times,serif" font-weight="bold" font-size="10.00">увеличить влияние </text>
<text text-anchor="start" x="98" y="-62" font-family="Times,serif" font-size="10.00">  person_10 </text>
<text text-anchor="start" x="148" y="-62" font-family="Times,serif" font-weight="bold" font-size="10.00">на </text>
<text text-anchor="start" x="161" y="-62" font-family="Times,serif" font-size="10.00"> 1.00</text>
<polygon fill="#eeeeee" stroke="none" points="9,-44 9,-57 262,-57 262,-44 9,-44"/>
<text text-anchor="start" x="10" y="-49" font-family="Times,serif" font-weight="bold" font-size="10.00">результаты:</text>
<text text-anchor="start" x="10" y="-36" font-family="Times,serif" font-weight="bold" font-size="10.00">person_1</text>
<text text-anchor="start" x="142" y="-35" font-family="Times,serif" font-size="10.00">failed</text>
<text text-anchor="start" x="10" y="-23" font-family="Times,serif" font-weight="bold" font-size="10.00">person_10</text>
<text text-anchor="start" x="142" y="-22" font-family="Times,serif" font-size="10.00">successed</text>
<text text-anchor="start" x="10" y="-10" font-family="Times,serif" font-weight="bold" font-size="10.00">person_6</text>
<text text-anchor="start" x="142" y="-9" font-family="Times,serif" font-size="10.00">failed</text>
<polygon fill="none" stroke="black" points="7.5,-4 7.5,-150 262.5,-150 262.5,-4 7.5,-4"/>
</g>
<!-- [ns&#45;0]start -->
<g id="node2" class="node"><title>[ns&#45;0]start</title>
<polygon fill="#eeeeee" stroke="none" points="185.5,-340.5 185.5,-395.5 302.5,-395.5 302.5,-340.5 185.5,-340.5"/>
<text text-anchor="start" x="188" y="-385.5" font-family="Times,serif" font-style="italic" font-size="10.00">[ns&#45;0]start</text>
<text text-anchor="start" x="255.5" y="-385.5" font-family="Times,serif" font-weight="bold" font-size="10.00">delivery</text>
<text text-anchor="start" x="188" y="-371" font-family="Times,serif" font-size="10.00">Начало: доставка</text>
<polygon fill="#dddddd" stroke="none" points="187,-354 187,-367 302,-367 302,-354 187,-354"/>
<text text-anchor="start" x="188" y="-359" font-family="Times,serif" font-size="10.00">hero </text>
<text text-anchor="start" x="209" y="-359" font-family="Times,serif" font-weight="bold" font-size="10.00">находится в</text>
<text text-anchor="start" x="264" y="-359" font-family="Times,serif" font-size="10.00"> place_1</text>
<polygon fill="#ffffff" stroke="none" points="187,-341 187,-354 302,-354 302,-341 187,-341"/>
<text text-anchor="start" x="188" y="-346" font-family="Times,serif" font-weight="bold" font-size="10.00">сообщение:</text>
<text text-anchor="start" x="240" y="-346" font-family="Times,serif" font-size="10.00"> intro</text>
<polygon fill="none" stroke="black" points="185.5,-340.5 185.5,-395.5 302.5,-395.5 302.5,-340.5 185.5,-340.5"/>
</g>
<!-- [ns&#45;0]delivery_choice -->
<g id="node3" class="node"><title>[ns&#45;0]delivery_choice</title>
<polygon fill="#ddddff" stroke="none" points="172,-266.5 172,-295.5 316,-295.5 316,-266.5 172,-266.5"/>
<text text-anchor="start" x="174" y="-285.5" font-family="Times,serif" font-style="italic" font-size="10.00">[ns&#45;0]delivery_choice</text>
<text text-anchor="start" x="174" y="-271" font-family="Times,serif" font-size="10.00">Решение: доставить или украсть</text>
<polygon fill="none" stroke="black" points="172,-266.5 172,-295.5 316,-295.5 316,-266.5 172,-266.5"/>
</g>
<!-- [ns&#45;0]start&#45;&gt;[ns&#45;0]delivery_choice -->
<g id="edge3" class="edge"><title>[ns&#45;0]start:[ns&#45;0]start&#45;&gt;[ns&#45;0]delivery_choice:[ns&#45;0]delivery_choice</title>
<path fill="none" stroke="black" d="M244,-340.105C244,-329.132 244,-316.546 244,-305.9"/>
<polygon fill="black" stroke="black" points="247.5,-305.657 244,-295.657 240.5,-305.657 247.5,-305.657"/>
</g>
<!-- #option([ns&#45;0]delivery_choice, [ns&#45;0]finish_steal) -->
<g id="node5" class="node"><title>#option([ns&#45;0]delivery_choice, [ns&#45;0]finish_steal)</title>
<polygon fill="#ffffff" stroke="none" points="125,-207 125,-221 224,-221 224,-207 125,-207"/>
<text text-anchor="start" x="126" y="-211.5" font-family="Times,serif" font-size="10.00">steal</text>
<polygon fill="#eeeeee" stroke="none" points="125,-194 125,-207 224,-207 224,-194 125,-194"/>
<text text-anchor="start" x="126" y="-199" font-family="Times,serif" font-weight="bold" font-size="10.00">сообщение:</text>
<text text-anchor="start" x="178" y="-199" font-family="Times,serif" font-size="10.00"> start_steal</text>
</g>
<!-- [ns&#45;0]delivery_choice&#45;&gt;#option([ns&#45;0]delivery_choice, [ns&#45;0]finish_steal) -->
<g id="edge1" class="edge"><title>[ns&#45;0]delivery_choice:[ns&#45;0]delivery_choice&#45;&gt;#option([ns&#45;0]delivery_choice, [ns&#45;0]finish_steal):#option([ns&#45;0]delivery_choice, [ns&#45;0]finish_steal)</title>
<path fill="none" stroke="black" stroke-dasharray="1,5" d="M230.503,-266.31C217.79,-253.416 198.897,-234.252 186.515,-221.693"/>
</g>
<!-- #option([ns&#45;0]delivery_choice, [ns&#45;0]finish_delivery) -->
<g id="node6" class="node"><title>#option([ns&#45;0]delivery_choice, [ns&#45;0]finish_delivery)</title>
<polygon fill="#ffffff" stroke="none" points="336,-207 336,-221 450,-221 450,-207 336,-207"/>
<text text-anchor="start" x="337" y="-211.5" font-family="Times,serif" font-size="10.00">delivery</text>
<polygon fill="#eeeeee" stroke="none" points="336,-194 336,-207 450,-207 450,-194 336,-194"/>
<text text-anchor="start" x="337" y="-199" font-family="Times,serif" font-weight="bold" font-size="10.00">сообщение:</text>
<text text-anchor="start" x="389" y="-199" font-family="Times,serif" font-size="10.00"> start_delivery</text>
</g>
<!-- [ns&#45;0]delivery_choice&#45;&gt;#option([ns&#45;0]delivery_choice, [ns&#45;0]finish_delivery) -->
<g id="edge4" class="edge"><title>[ns&#45;0]delivery_choice:[ns&#45;0]delivery_choice&#45;&gt;#option([ns&#45;0]delivery_choice, [ns&#45;0]finish_delivery):#option([ns&#45;0]delivery_choice, [ns&#45;0]finish_delivery)</title>
<path fill="none" stroke="black" stroke-dasharray="1,5" d="M272.376,-266.478C299.565,-253.523 340.265,-234.129 366.727,-221.519"/>
</g>
<!-- [ns&#45;0]finish_delivery -->
<g id="node4" class="node"><title>[ns&#45;0]finish_delivery</title>
<polygon fill="#eeeeee" stroke="none" points="296.5,-10.5 296.5,-143.5 567.5,-143.5 567.5,-10.5 296.5,-10.5"/>
<text text-anchor="start" x="299" y="-133.5" font-family="Times,serif" font-style="italic" font-size="10.00">[ns&#45;0]finish_delivery</text>
<text text-anchor="start" x="299" y="-119" font-family="Times,serif" font-size="10.00">Доставить посылку получателю</text>
<polygon fill="#dddddd" stroke="none" points="298,-102 298,-115 567,-115 567,-102 298,-102"/>
<text text-anchor="start" x="299" y="-107" font-family="Times,serif" font-size="10.00">hero </text>
<text text-anchor="start" x="320" y="-107" font-family="Times,serif" font-weight="bold" font-size="10.00">находится в</text>
<text text-anchor="start" x="375" y="-107" font-family="Times,serif" font-size="10.00"> place_6</text>
<polygon fill="#ffffff" stroke="none" points="298,-89 298,-102 567,-102 567,-89 298,-89"/>
<text text-anchor="start" x="299" y="-94" font-family="Times,serif" font-weight="bold" font-size="10.00">выдать награду </text>
<text text-anchor="start" x="374" y="-94" font-family="Times,serif" font-size="10.00">  hero </text>
<text text-anchor="start" x="399" y="-94" font-family="Times,serif" font-weight="bold" font-size="10.00">типа </text>
<text text-anchor="start" x="423" y="-94" font-family="Times,serif" font-size="10.00"> finish_delivery </text>
<text text-anchor="start" x="490" y="-94" font-family="Times,serif" font-weight="bold" font-size="10.00">в размере</text>
<text text-anchor="start" x="533" y="-94" font-family="Times,serif" font-size="10.00"> 1.00</text>
<polygon fill="#ffffff" stroke="none" points="298,-76 298,-89 567,-89 567,-76 298,-76"/>
<text text-anchor="start" x="299" y="-81" font-family="Times,serif" font-weight="bold" font-size="10.00">увеличить влияние </text>
<text text-anchor="start" x="387" y="-81" font-family="Times,serif" font-size="10.00">  person_1 </text>
<text text-anchor="start" x="432" y="-81" font-family="Times,serif" font-weight="bold" font-size="10.00">на </text>
<text text-anchor="start" x="445" y="-81" font-family="Times,serif" font-size="10.00"> 1.00</text>
<polygon fill="#ffffff" stroke="none" points="298,-63 298,-76 567,-76 567,-63 298,-63"/>
<text text-anchor="start" x="299" y="-68" font-family="Times,serif" font-weight="bold" font-size="10.00">увеличить влияние </text>
<text text-anchor="start" x="387" y="-68" font-family="Times,serif" font-size="10.00">  person_6 </text>
<text text-anchor="start" x="432" y="-68" font-family="Times,serif" font-weight="bold" font-size="10.00">на </text>
<text text-anchor="start" x="445" y="-68" font-family="Times,serif" font-size="10.00"> 1.00</text>
<polygon fill="#eeeeee" stroke="none" points="298,-50 298,-63 567,-63 567,-50 298,-50"/>
<text text-anchor="start" x="299" y="-55" font-family="Times,serif" font-weight="bold" font-size="10.00">результаты:</text>
<text text-anchor="start" x="299" y="-42" font-family="Times,serif" font-weight="bold" font-size="10.00">person_1</text>
<text text-anchor="start" x="439" y="-41" font-family="Times,serif" font-size="10.00">successed</text>
<text text-anchor="start" x="299" y="-29" font-family="Times,serif" font-weight="bold" font-size="10.00">person_10</text>
<text text-anchor="start" x="439" y="-28" font-family="Times,serif" font-size="10.00">neutral</text>
<text text-anchor="start" x="299" y="-16" font-family="Times,serif" font-weight="bold" font-size="10.00">person_6</text>
<text text-anchor="start" x="439" y="-15" font-family="Times,serif" font-size="10.00">successed</text>
<polygon fill="none" stroke="black" points="296.5,-10.5 296.5,-143.5 567.5,-143.5 567.5,-10.5 296.5,-10.5"/>
</g>
<!-- #option([ns&#45;0]delivery_choice, [ns&#45;0]finish_steal)&#45;&gt;[ns&#45;0]finish_steal -->
<g id="edge2" class="edge"><title>#option([ns&#45;0]delivery_choice, [ns&#45;0]finish_steal):#option([ns&#45;0]delivery_choice, [ns&#45;0]finish_steal)&#45;&gt;[ns&#45;0]finish_steal:[ns&#45;0]finish_steal</title>
<path fill="none" stroke="black" stroke-dasharray="1,5" d="M170.118,-194.159C167.498,-185.493 163.792,-173.235 159.762,-159.906"/>
<polygon fill="black" stroke="black" points="163.026,-158.605 156.781,-150.046 156.325,-160.631 163.026,-158.605"/>
</g>
<!-- #option([ns&#45;0]delivery_choice, [ns&#45;0]finish_delivery)&#45;&gt;[ns&#45;0]finish_delivery -->
<g id="edge5" class="edge"><title>#option([ns&#45;0]delivery_choice, [ns&#45;0]finish_delivery):#option([ns&#45;0]delivery_choice, [ns&#45;0]finish_delivery)&#45;&gt;[ns&#45;0]finish_delivery:[ns&#45;0]finish_delivery</title>
<path fill="none" stroke="black" stroke-dasharray="1,5" d="M396.882,-194.159C399.914,-184.132 404.398,-169.298 409.157,-153.558"/>
<polygon fill="black" stroke="black" points="412.601,-154.26 412.145,-143.675 405.901,-152.234 412.601,-154.26"/>
</g>
</g>
</svg>
