<?xml version="1.0" encoding="UTF-8" standalone="no"?>
<!DOCTYPE svg PUBLIC "-//W3C//DTD SVG 1.1//EN"
 "http://www.w3.org/Graphics/SVG/1.1/DTD/svg11.dtd">
<!-- Generated by graphviz version 2.34.0 (20130907.0221)
 -->
<!-- Title: quest Pages: 1 -->
<svg width="1488pt" height="796pt"
 viewBox="0.00 0.00 1488.00 796.00" xmlns="http://www.w3.org/2000/svg" xmlns:xlink="http://www.w3.org/1999/xlink">
<g id="graph0" class="graph" transform="scale(1 1) rotate(0) translate(4 792)">
<title>quest</title>
<polygon fill="white" stroke="white" points="-4,4 -4,-792 1484,-792 1484,4 -4,4"/>
<g id="clust2" class="cluster"><title>cluster_[ns&#45;0]delivery_variants</title>
<polygon fill="#ffffdd" stroke="black" points="671,-374 671,-555 1210,-555 1210,-374 671,-374"/>
<text text-anchor="middle" x="940.5" y="-539.8" font-family="Times,serif" font-size="14.00">cluster_[ns&#45;0]delivery_variants</text>
</g>
<g id="clust1" class="cluster"><title>cluster_[ns&#45;0]lie_variants</title>
<polygon fill="#ffffdd" stroke="black" points="8,-374 8,-555 663,-555 663,-374 8,-374"/>
<text text-anchor="middle" x="335.5" y="-539.8" font-family="Times,serif" font-size="14.00">cluster_[ns&#45;0]lie_variants</text>
</g>
<!-- [ns&#45;0]finish_steal -->
<g id="node1" class="node"><title>[ns&#45;0]finish_steal</title>
<polygon fill="#eeeeee" stroke="none" points="1227.5,-380 1227.5,-526 1472.5,-526 1472.5,-380 1227.5,-380"/>
<text text-anchor="start" x="1230" y="-516.5" font-family="Times,serif" font-style="italic" font-size="10.00">[ns&#45;0]finish_steal</text>
<text text-anchor="start" x="1230" y="-502" font-family="Times,serif" font-size="10.00">Доставить посылку скупщику</text>
<polygon fill="#dddddd" stroke="none" points="1229,-485 1229,-498 1472,-498 1472,-485 1229,-485"/>
<text text-anchor="start" x="1230" y="-490" font-family="Times,serif" font-size="10.00">hero </text>
<text text-anchor="start" x="1251" y="-490" font-family="Times,serif" font-weight="bold" font-size="10.00">находится в</text>
<text text-anchor="start" x="1306" y="-490" font-family="Times,serif" font-size="10.00"> place_3</text>
<polygon fill="#ffffff" stroke="none" points="1229,-472 1229,-485 1472,-485 1472,-472 1229,-472"/>
<text text-anchor="start" x="1230" y="-477" font-family="Times,serif" font-weight="bold" font-size="10.00">выдать награду </text>
<text text-anchor="start" x="1305" y="-477" font-family="Times,serif" font-size="10.00">  hero </text>
<text text-anchor="start" x="1330" y="-477" font-family="Times,serif" font-weight="bold" font-size="10.00">типа </text>
<text text-anchor="start" x="1354" y="-477" font-family="Times,serif" font-size="10.00"> finish_steal </text>
<text text-anchor="start" x="1406" y="-477" font-family="Times,serif" font-weight="bold" font-size="10.00">в размере</text>
<text text-anchor="start" x="1449" y="-477" font-family="Times,serif" font-size="10.00"> 1.50</text>
<polygon fill="#ffffff" stroke="none" points="1229,-459 1229,-472 1472,-472 1472,-459 1229,-459"/>
<text text-anchor="start" x="1230" y="-464" font-family="Times,serif" font-weight="bold" font-size="10.00">увеличить влияние </text>
<text text-anchor="start" x="1318" y="-464" font-family="Times,serif" font-size="10.00">  person_1 </text>
<text text-anchor="start" x="1363" y="-464" font-family="Times,serif" font-weight="bold" font-size="10.00">на </text>
<text text-anchor="start" x="1376" y="-464" font-family="Times,serif" font-size="10.00"> &#45;1.00</text>
<polygon fill="#ffffff" stroke="none" points="1229,-446 1229,-459 1472,-459 1472,-446 1229,-446"/>
<text text-anchor="start" x="1230" y="-451" font-family="Times,serif" font-weight="bold" font-size="10.00">увеличить влияние </text>
<text text-anchor="start" x="1318" y="-451" font-family="Times,serif" font-size="10.00">  person_4 </text>
<text text-anchor="start" x="1363" y="-451" font-family="Times,serif" font-weight="bold" font-size="10.00">на </text>
<text text-anchor="start" x="1376" y="-451" font-family="Times,serif" font-size="10.00"> &#45;1.00</text>
<polygon fill="#ffffff" stroke="none" points="1229,-433 1229,-446 1472,-446 1472,-433 1229,-433"/>
<text text-anchor="start" x="1230" y="-438" font-family="Times,serif" font-weight="bold" font-size="10.00">увеличить влияние </text>
<text text-anchor="start" x="1318" y="-438" font-family="Times,serif" font-size="10.00">  person_3 </text>
<text text-anchor="start" x="1363" y="-438" font-family="Times,serif" font-weight="bold" font-size="10.00">на </text>
<text text-anchor="start" x="1376" y="-438" font-family="Times,serif" font-size="10.00"> 0.15</text>
<polygon fill="#eeeeee" stroke="none" points="1229,-420 1229,-433 1472,-433 1472,-420 1229,-420"/>
<text text-anchor="start" x="1230" y="-425" font-family="Times,serif" font-weight="bold" font-size="10.00">результаты:</text>
<text text-anchor="start" x="1230" y="-412" font-family="Times,serif" font-weight="bold" font-size="10.00">person_1</text>
<text text-anchor="start" x="1352" y="-411" font-family="Times,serif" font-size="10.00">failed</text>
<text text-anchor="start" x="1230" y="-399" font-family="Times,serif" font-weight="bold" font-size="10.00">person_3</text>
<text text-anchor="start" x="1352" y="-398" font-family="Times,serif" font-size="10.00">successed</text>
<text text-anchor="start" x="1230" y="-386" font-family="Times,serif" font-weight="bold" font-size="10.00">person_4</text>
<text text-anchor="start" x="1352" y="-385" font-family="Times,serif" font-size="10.00">failed</text>
<polygon fill="none" stroke="black" points="1227.5,-380 1227.5,-526 1472.5,-526 1472.5,-380 1227.5,-380"/>
</g>
<!-- [ns&#45;0]start -->
<g id="node2" class="node"><title>[ns&#45;0]start</title>
<polygon fill="#eeeeee" stroke="none" points="734.5,-728.5 734.5,-783.5 851.5,-783.5 851.5,-728.5 734.5,-728.5"/>
<text text-anchor="start" x="737" y="-773.5" font-family="Times,serif" font-style="italic" font-size="10.00">[ns&#45;0]start</text>
<text text-anchor="start" x="804.5" y="-773.5" font-family="Times,serif" font-weight="bold" font-size="10.00">delivery</text>
<text text-anchor="start" x="737" y="-759" font-family="Times,serif" font-size="10.00">Начало: доставка</text>
<polygon fill="#dddddd" stroke="none" points="736,-742 736,-755 851,-755 851,-742 736,-742"/>
<text text-anchor="start" x="737" y="-747" font-family="Times,serif" font-size="10.00">hero </text>
<text text-anchor="start" x="758" y="-747" font-family="Times,serif" font-weight="bold" font-size="10.00">находится в</text>
<text text-anchor="start" x="813" y="-747" font-family="Times,serif" font-size="10.00"> place_1</text>
<polygon fill="#ffffff" stroke="none" points="736,-729 736,-742 851,-742 851,-729 736,-729"/>
<text text-anchor="start" x="737" y="-734" font-family="Times,serif" font-weight="bold" font-size="10.00">сообщение:</text>
<text text-anchor="start" x="789" y="-734" font-family="Times,serif" font-size="10.00"> intro</text>
<polygon fill="none" stroke="black" points="734.5,-728.5 734.5,-783.5 851.5,-783.5 851.5,-728.5 734.5,-728.5"/>
</g>
<!-- [ns&#45;0]delivery_choice -->
<g id="node7" class="node"><title>[ns&#45;0]delivery_choice</title>
<polygon fill="#ddddff" stroke="none" points="721,-654.5 721,-683.5 865,-683.5 865,-654.5 721,-654.5"/>
<text text-anchor="start" x="723" y="-673.5" font-family="Times,serif" font-style="italic" font-size="10.00">[ns&#45;0]delivery_choice</text>
<text text-anchor="start" x="723" y="-659" font-family="Times,serif" font-size="10.00">Решение: доставить или украсть</text>
<polygon fill="none" stroke="black" points="721,-654.5 721,-683.5 865,-683.5 865,-654.5 721,-654.5"/>
</g>
<!-- [ns&#45;0]start&#45;&gt;[ns&#45;0]delivery_choice -->
<g id="edge9" class="edge"><title>[ns&#45;0]start:[ns&#45;0]start&#45;&gt;[ns&#45;0]delivery_choice:[ns&#45;0]delivery_choice</title>
<path fill="none" stroke="black" d="M793,-728.105C793,-717.132 793,-704.546 793,-693.9"/>
<polygon fill="black" stroke="black" points="796.5,-693.657 793,-683.657 789.5,-693.657 796.5,-693.657"/>
</g>
<!-- [ns&#45;0]finish_fight_for_stealed__delivery -->
<g id="node3" class="node"><title>[ns&#45;0]finish_fight_for_stealed__delivery</title>
<polygon fill="#eeeeee" stroke="none" points="859.5,-4.5 859.5,-137.5 1162.5,-137.5 1162.5,-4.5 859.5,-4.5"/>
<text text-anchor="start" x="862" y="-127.5" font-family="Times,serif" font-style="italic" font-size="10.00">[ns&#45;0]finish_fight_for_stealed__delivery</text>
<text text-anchor="start" x="862" y="-113" font-family="Times,serif" font-size="10.00">Доставить посылку получателю</text>
<polygon fill="#dddddd" stroke="none" points="861,-96 861,-109 1162,-109 1162,-96 861,-96"/>
<text text-anchor="start" x="862" y="-101" font-family="Times,serif" font-size="10.00">hero </text>
<text text-anchor="start" x="883" y="-101" font-family="Times,serif" font-weight="bold" font-size="10.00">находится в</text>
<text text-anchor="start" x="938" y="-101" font-family="Times,serif" font-size="10.00"> place_4</text>
<polygon fill="#ffffff" stroke="none" points="861,-83 861,-96 1162,-96 1162,-83 861,-83"/>
<text text-anchor="start" x="862" y="-88" font-family="Times,serif" font-weight="bold" font-size="10.00">выдать награду </text>
<text text-anchor="start" x="937" y="-88" font-family="Times,serif" font-size="10.00">  hero </text>
<text text-anchor="start" x="962" y="-88" font-family="Times,serif" font-weight="bold" font-size="10.00">типа </text>
<text text-anchor="start" x="986" y="-88" font-family="Times,serif" font-size="10.00"> finish_delivery </text>
<text text-anchor="start" x="1053" y="-88" font-family="Times,serif" font-weight="bold" font-size="10.00">в размере</text>
<text text-anchor="start" x="1096" y="-88" font-family="Times,serif" font-size="10.00"> 1.00</text>
<polygon fill="#ffffff" stroke="none" points="861,-70 861,-83 1162,-83 1162,-70 861,-70"/>
<text text-anchor="start" x="862" y="-75" font-family="Times,serif" font-weight="bold" font-size="10.00">увеличить влияние </text>
<text text-anchor="start" x="950" y="-75" font-family="Times,serif" font-size="10.00">  person_1 </text>
<text text-anchor="start" x="995" y="-75" font-family="Times,serif" font-weight="bold" font-size="10.00">на </text>
<text text-anchor="start" x="1008" y="-75" font-family="Times,serif" font-size="10.00"> 1.00</text>
<polygon fill="#ffffff" stroke="none" points="861,-57 861,-70 1162,-70 1162,-57 861,-57"/>
<text text-anchor="start" x="862" y="-62" font-family="Times,serif" font-weight="bold" font-size="10.00">увеличить влияние </text>
<text text-anchor="start" x="950" y="-62" font-family="Times,serif" font-size="10.00">  person_4 </text>
<text text-anchor="start" x="995" y="-62" font-family="Times,serif" font-weight="bold" font-size="10.00">на </text>
<text text-anchor="start" x="1008" y="-62" font-family="Times,serif" font-size="10.00"> 1.00</text>
<polygon fill="#eeeeee" stroke="none" points="861,-44 861,-57 1162,-57 1162,-44 861,-44"/>
<text text-anchor="start" x="862" y="-49" font-family="Times,serif" font-weight="bold" font-size="10.00">результаты:</text>
<text text-anchor="start" x="862" y="-36" font-family="Times,serif" font-weight="bold" font-size="10.00">person_1</text>
<text text-anchor="start" x="1034" y="-35" font-family="Times,serif" font-size="10.00">successed</text>
<text text-anchor="start" x="862" y="-23" font-family="Times,serif" font-weight="bold" font-size="10.00">person_3</text>
<text text-anchor="start" x="1034" y="-22" font-family="Times,serif" font-size="10.00">neutral</text>
<text text-anchor="start" x="862" y="-10" font-family="Times,serif" font-weight="bold" font-size="10.00">person_4</text>
<text text-anchor="start" x="1034" y="-9" font-family="Times,serif" font-size="10.00">successed</text>
<polygon fill="none" stroke="black" points="859.5,-4.5 859.5,-137.5 1162.5,-137.5 1162.5,-4.5 859.5,-4.5"/>
</g>
<!-- [ns&#45;0]delivery_stealed -->
<g id="node4" class="node"><title>[ns&#45;0]delivery_stealed</title>
<polygon fill="#ddffdd" stroke="none" points="687.5,-419 687.5,-487 898.5,-487 898.5,-419 687.5,-419"/>
<text text-anchor="start" x="690" y="-477.5" font-family="Times,serif" font-style="italic" font-size="10.00">[ns&#45;0]delivery_stealed</text>
<text text-anchor="start" x="690" y="-463" font-family="Times,serif" font-size="10.00">письмо украдено</text>
<polygon fill="#cceecc" stroke="none" points="689,-446 689,-459 898,-459 898,-446 689,-446"/>
<text text-anchor="start" x="690" y="-451" font-family="Times,serif" font-size="10.00">hero </text>
<text text-anchor="start" x="711" y="-451" font-family="Times,serif" font-weight="bold" font-size="10.00">прошёл</text>
<text text-anchor="start" x="745" y="-451" font-family="Times,serif" font-size="10.00"> 60%</text>
<text text-anchor="start" x="767" y="-451" font-family="Times,serif" font-weight="bold" font-size="10.00"> дороги от</text>
<text text-anchor="start" x="813" y="-451" font-family="Times,serif" font-size="10.00"> place_1 </text>
<text text-anchor="start" x="850" y="-451" font-family="Times,serif" font-weight="bold" font-size="10.00">до</text>
<text text-anchor="start" x="861" y="-451" font-family="Times,serif" font-size="10.00"> place_4</text>
<polygon fill="#eeffee" stroke="none" points="689,-433 689,-446 898,-446 898,-433 689,-433"/>
<text text-anchor="start" x="690" y="-438" font-family="Times,serif" font-weight="bold" font-size="10.00">сообщение:</text>
<text text-anchor="start" x="742" y="-438" font-family="Times,serif" font-size="10.00"> delivery_stealed</text>
<polygon fill="#eeffee" stroke="none" points="689,-420 689,-433 898,-433 898,-420 689,-420"/>
<text text-anchor="start" x="690" y="-425" font-family="Times,serif" font-weight="bold" font-size="10.00">отправить </text>
<text text-anchor="start" x="740" y="-425" font-family="Times,serif" font-size="10.00"> hero</text>
<text text-anchor="start" x="761" y="-425" font-family="Times,serif" font-weight="bold" font-size="10.00">бродить в округе</text>
<polygon fill="none" stroke="black" points="687.5,-419 687.5,-487 898.5,-487 898.5,-419 687.5,-419"/>
</g>
<!-- [ns&#45;0]fight_for_stealed -->
<g id="node5" class="node"><title>[ns&#45;0]fight_for_stealed</title>
<polygon fill="#ffdddd" stroke="none" points="715.5,-254.5 715.5,-335.5 870.5,-335.5 870.5,-254.5 715.5,-254.5"/>
<text text-anchor="start" x="718" y="-325.5" font-family="Times,serif" font-style="italic" font-size="10.00">[ns&#45;0]fight_for_stealed</text>
<text text-anchor="start" x="718" y="-311" font-family="Times,serif" font-size="10.00">Сразиться с вором</text>
<polygon fill="#ffeeee" stroke="none" points="717,-294 717,-307 870,-307 870,-294 717,-294"/>
<text text-anchor="start" x="718" y="-299" font-family="Times,serif" font-weight="bold" font-size="10.00">сообщение:</text>
<text text-anchor="start" x="770" y="-299" font-family="Times,serif" font-size="10.00"> fight_thief</text>
<polygon fill="#ffeeee" stroke="none" points="717,-281 717,-294 870,-294 870,-281 717,-281"/>
<text text-anchor="start" x="718" y="-286" font-family="Times,serif" font-weight="bold" font-size="10.00">сразиться с наёмником</text>
<polygon fill="#ffdddd" stroke="none" points="717,-268 717,-281 870,-281 870,-268 717,-268"/>
<text text-anchor="start" x="718" y="-273" font-family="Times,serif" font-weight="bold" font-size="10.00">условия:</text>
<text text-anchor="start" x="718" y="-260" font-family="Times,serif" font-weight="bold" font-size="10.00">если </text>
<polygon fill="#ffdddd" stroke="none" points="817,-255 817,-268 870,-268 870,-255 817,-255"/>
<text text-anchor="start" x="818" y="-260" font-family="Times,serif" font-size="10.00">hero </text>
<text text-anchor="start" x="839" y="-260" font-family="Times,serif" font-weight="bold" font-size="10.00">жив</text>
<polygon fill="none" stroke="black" points="715.5,-254.5 715.5,-335.5 870.5,-335.5 870.5,-254.5 715.5,-254.5"/>
</g>
<!-- [ns&#45;0]delivery_stealed&#45;&gt;[ns&#45;0]fight_for_stealed -->
<g id="edge16" class="edge"><title>[ns&#45;0]delivery_stealed:[ns&#45;0]delivery_stealed&#45;&gt;[ns&#45;0]fight_for_stealed:[ns&#45;0]fight_for_stealed</title>
<path fill="none" stroke="black" d="M793,-418.916C793,-397.725 793,-369.824 793,-345.962"/>
<polygon fill="black" stroke="black" points="796.5,-345.668 793,-335.668 789.5,-345.668 796.5,-345.668"/>
</g>
<!-- #answer(False, [ns&#45;0]fight_for_stealed, [ns&#45;0]finish_fight_for_stealed__hero_died) -->
<g id="node11" class="node"><title>#answer(False, [ns&#45;0]fight_for_stealed, [ns&#45;0]finish_fight_for_stealed__hero_died)</title>
<polygon fill="#ffffff" stroke="none" points="718,-189 718,-203 751,-203 751,-189 718,-189"/>
<text text-anchor="start" x="719" y="-193.5" font-family="Times,serif" font-size="10.00">ЛОЖЬ</text>
</g>
<!-- [ns&#45;0]fight_for_stealed&#45;&gt;#answer(False, [ns&#45;0]fight_for_stealed, [ns&#45;0]finish_fight_for_stealed__hero_died) -->
<g id="edge1" class="edge"><title>[ns&#45;0]fight_for_stealed:[ns&#45;0]fight_for_stealed&#45;&gt;#answer(False, [ns&#45;0]fight_for_stealed, [ns&#45;0]finish_fight_for_stealed__hero_died):#answer(False, [ns&#45;0]fight_for_stealed, [ns&#45;0]finish_fight_for_stealed__hero_died)</title>
<path fill="none" stroke="black" d="M768.832,-254.267C756.994,-234.803 743.97,-213.392 737.733,-203.138"/>
</g>
<!-- #answer(True, [ns&#45;0]fight_for_stealed, [ns&#45;0]finish_fight_for_stealed__delivery) -->
<g id="node14" class="node"><title>#answer(True, [ns&#45;0]fight_for_stealed, [ns&#45;0]finish_fight_for_stealed__delivery)</title>
<polygon fill="#ffffff" stroke="none" points="893,-195 893,-209 1024,-209 1024,-195 893,-195"/>
<text text-anchor="start" x="894" y="-199.5" font-family="Times,serif" font-size="10.00">ИСТИНА</text>
<polygon fill="#eeeeee" stroke="none" points="893,-182 893,-195 1024,-195 1024,-182 893,-182"/>
<text text-anchor="start" x="894" y="-187" font-family="Times,serif" font-weight="bold" font-size="10.00">сообщение:</text>
<text text-anchor="start" x="946" y="-187" font-family="Times,serif" font-size="10.00"> delivery_returned</text>
</g>
<!-- [ns&#45;0]fight_for_stealed&#45;&gt;#answer(True, [ns&#45;0]fight_for_stealed, [ns&#45;0]finish_fight_for_stealed__delivery) -->
<g id="edge7" class="edge"><title>[ns&#45;0]fight_for_stealed:[ns&#45;0]fight_for_stealed&#45;&gt;#answer(True, [ns&#45;0]fight_for_stealed, [ns&#45;0]finish_fight_for_stealed__delivery):#answer(True, [ns&#45;0]fight_for_stealed, [ns&#45;0]finish_fight_for_stealed__delivery)</title>
<path fill="none" stroke="black" d="M860.588,-254.267C887.821,-238.257 917.297,-220.928 936.608,-209.576"/>
</g>
<!-- [ns&#45;0]finish_fight_for_stealed__hero_died -->
<g id="node6" class="node"><title>[ns&#45;0]finish_fight_for_stealed__hero_died</title>
<polygon fill="#eeeeee" stroke="none" points="538.5,-24 538.5,-118 825.5,-118 825.5,-24 538.5,-24"/>
<text text-anchor="start" x="541" y="-108.5" font-family="Times,serif" font-style="italic" font-size="10.00">[ns&#45;0]finish_fight_for_stealed__hero_died</text>
<text text-anchor="start" x="541" y="-94" font-family="Times,serif" font-size="10.00">Герой не смог вернуть украденное письмо</text>
<polygon fill="#ffffff" stroke="none" points="540,-77 540,-90 825,-90 825,-77 540,-77"/>
<text text-anchor="start" x="541" y="-82" font-family="Times,serif" font-weight="bold" font-size="10.00">сообщение:</text>
<text text-anchor="start" x="593" y="-82" font-family="Times,serif" font-size="10.00"> finish_fight_for_stealed__hero_died</text>
<polygon fill="#eeeeee" stroke="none" points="540,-64 540,-77 825,-77 825,-64 540,-64"/>
<text text-anchor="start" x="541" y="-69" font-family="Times,serif" font-weight="bold" font-size="10.00">результаты:</text>
<text text-anchor="start" x="541" y="-56" font-family="Times,serif" font-weight="bold" font-size="10.00">person_1</text>
<text text-anchor="start" x="722" y="-55" font-family="Times,serif" font-size="10.00">neutral</text>
<text text-anchor="start" x="541" y="-43" font-family="Times,serif" font-weight="bold" font-size="10.00">person_3</text>
<text text-anchor="start" x="722" y="-42" font-family="Times,serif" font-size="10.00">neutral</text>
<text text-anchor="start" x="541" y="-30" font-family="Times,serif" font-weight="bold" font-size="10.00">person_4</text>
<text text-anchor="start" x="722" y="-29" font-family="Times,serif" font-size="10.00">neutral</text>
<polygon fill="none" stroke="black" points="538.5,-24 538.5,-118 825.5,-118 825.5,-24 538.5,-24"/>
</g>
<!-- #option([ns&#45;0]delivery_choice, [ns&#45;0]finish_fake_delivery, fake) -->
<g id="node12" class="node"><title>#option([ns&#45;0]delivery_choice, [ns&#45;0]finish_fake_delivery, fake)</title>
<polygon fill="#ffffff" stroke="none" points="228,-596 228,-610 326,-610 326,-596 228,-596"/>
<text text-anchor="start" x="229" y="-600.5" font-family="Times,serif" font-size="10.00">fake</text>
<polygon fill="#aadddd" stroke="none" points="228,-583 228,-596 326,-596 326,-583 228,-583"/>
<text text-anchor="start" x="229" y="-587" font-family="Times,serif" font-size="10.00">[бесчестие]</text>
<polygon fill="#eeeeee" stroke="none" points="228,-570 228,-583 326,-583 326,-570 228,-570"/>
<text text-anchor="start" x="229" y="-575" font-family="Times,serif" font-weight="bold" font-size="10.00">сообщение:</text>
<text text-anchor="start" x="281" y="-575" font-family="Times,serif" font-size="10.00"> start_fake</text>
</g>
<!-- [ns&#45;0]delivery_choice&#45;&gt;#option([ns&#45;0]delivery_choice, [ns&#45;0]finish_fake_delivery, fake) -->
<g id="edge3" class="edge"><title>[ns&#45;0]delivery_choice:[ns&#45;0]delivery_choice&#45;&gt;#option([ns&#45;0]delivery_choice, [ns&#45;0]finish_fake_delivery, fake):#option([ns&#45;0]delivery_choice, [ns&#45;0]finish_fake_delivery, fake)</title>
<path fill="none" stroke="black" stroke-dasharray="1,5" d="M720.981,-657.253C614.42,-641.351 417.518,-611.969 326.06,-598.321"/>
</g>
<!-- #option([ns&#45;0]delivery_choice, [ns&#45;0]delivery_stealed, delivery) -->
<g id="node13" class="node"><title>#option([ns&#45;0]delivery_choice, [ns&#45;0]delivery_stealed, delivery)</title>
<polygon fill="#ffffff" stroke="none" points="736,-596 736,-610 850,-610 850,-596 736,-596"/>
<text text-anchor="start" x="737" y="-600.5" font-family="Times,serif" font-size="10.00">delivery</text>
<polygon fill="#aadddd" stroke="none" points="736,-583 736,-596 850,-596 850,-583 736,-583"/>
<text text-anchor="start" x="737" y="-587" font-family="Times,serif" font-size="10.00">[честь]</text>
<polygon fill="#eeeeee" stroke="none" points="736,-570 736,-583 850,-583 850,-570 736,-570"/>
<text text-anchor="start" x="737" y="-575" font-family="Times,serif" font-weight="bold" font-size="10.00">сообщение:</text>
<text text-anchor="start" x="789" y="-575" font-family="Times,serif" font-size="10.00"> start_delivery</text>
</g>
<!-- [ns&#45;0]delivery_choice&#45;&gt;#option([ns&#45;0]delivery_choice, [ns&#45;0]delivery_stealed, delivery) -->
<g id="edge5" class="edge"><title>[ns&#45;0]delivery_choice:[ns&#45;0]delivery_choice&#45;&gt;#option([ns&#45;0]delivery_choice, [ns&#45;0]delivery_stealed, delivery):#option([ns&#45;0]delivery_choice, [ns&#45;0]delivery_stealed, delivery)</title>
<path fill="none" stroke="black" stroke-dasharray="1,5" d="M793,-654.234C793,-641.949 793,-623.837 793,-610.142"/>
</g>
<!-- #option([ns&#45;0]delivery_choice, [ns&#45;0]finish_delivery, delivery) -->
<g id="node15" class="node"><title>#option([ns&#45;0]delivery_choice, [ns&#45;0]finish_delivery, delivery)</title>
<polygon fill="#ffffff" stroke="none" points="945,-596 945,-610 1059,-610 1059,-596 945,-596"/>
<text text-anchor="start" x="946" y="-600.5" font-family="Times,serif" font-size="10.00">delivery</text>
<polygon fill="#aadddd" stroke="none" points="945,-583 945,-596 1059,-596 1059,-583 945,-583"/>
<text text-anchor="start" x="946" y="-587" font-family="Times,serif" font-size="10.00">[честь]</text>
<polygon fill="#eeeeee" stroke="none" points="945,-570 945,-583 1059,-583 1059,-570 945,-570"/>
<text text-anchor="start" x="946" y="-575" font-family="Times,serif" font-weight="bold" font-size="10.00">сообщение:</text>
<text text-anchor="start" x="998" y="-575" font-family="Times,serif" font-size="10.00"> start_delivery</text>
</g>
<!-- [ns&#45;0]delivery_choice&#45;&gt;#option([ns&#45;0]delivery_choice, [ns&#45;0]finish_delivery, delivery) -->
<g id="edge10" class="edge"><title>[ns&#45;0]delivery_choice:[ns&#45;0]delivery_choice&#45;&gt;#option([ns&#45;0]delivery_choice, [ns&#45;0]finish_delivery, delivery):#option([ns&#45;0]delivery_choice, [ns&#45;0]finish_delivery, delivery)</title>
<path fill="none" stroke="black" stroke-dasharray="1,5" d="M829.884,-654.411C863.282,-642.107 912.829,-623.853 950.198,-610.085"/>
</g>
<!-- #option([ns&#45;0]delivery_choice, [ns&#45;0]finish_steal, steal) -->
<g id="node16" class="node"><title>#option([ns&#45;0]delivery_choice, [ns&#45;0]finish_steal, steal)</title>
<polygon fill="#ffffff" stroke="none" points="1197,-596 1197,-610 1296,-610 1296,-596 1197,-596"/>
<text text-anchor="start" x="1198" y="-600.5" font-family="Times,serif" font-size="10.00">steal</text>
<polygon fill="#aadddd" stroke="none" points="1197,-583 1197,-596 1296,-596 1296,-583 1197,-583"/>
<text text-anchor="start" x="1198" y="-587" font-family="Times,serif" font-size="10.00">[бесчестие]</text>
<polygon fill="#eeeeee" stroke="none" points="1197,-570 1197,-583 1296,-583 1296,-570 1197,-570"/>
<text text-anchor="start" x="1198" y="-575" font-family="Times,serif" font-weight="bold" font-size="10.00">сообщение:</text>
<text text-anchor="start" x="1250" y="-575" font-family="Times,serif" font-size="10.00"> start_steal</text>
</g>
<!-- [ns&#45;0]delivery_choice&#45;&gt;#option([ns&#45;0]delivery_choice, [ns&#45;0]finish_steal, steal) -->
<g id="edge12" class="edge"><title>[ns&#45;0]delivery_choice:[ns&#45;0]delivery_choice&#45;&gt;#option([ns&#45;0]delivery_choice, [ns&#45;0]finish_steal, steal):#option([ns&#45;0]delivery_choice, [ns&#45;0]finish_steal, steal)</title>
<path fill="none" stroke="black" stroke-dasharray="1,5" d="M865.029,-655.757C957.645,-640.014 1116.07,-613.085 1196.31,-599.447"/>
</g>
<!-- #option([ns&#45;0]delivery_choice, [ns&#45;0]dummy_state, dummy_lie) -->
<g id="node17" class="node"><title>#option([ns&#45;0]delivery_choice, [ns&#45;0]dummy_state, dummy_lie)</title>
<polygon fill="#ffffff" stroke="none" points="561,-583 561,-597 611,-597 611,-583 561,-583"/>
<text text-anchor="start" x="562" y="-587.5" font-family="Times,serif" font-size="10.00">dummy_lie</text>
</g>
<!-- [ns&#45;0]delivery_choice&#45;&gt;#option([ns&#45;0]delivery_choice, [ns&#45;0]dummy_state, dummy_lie) -->
<g id="edge14" class="edge"><title>[ns&#45;0]delivery_choice:[ns&#45;0]delivery_choice&#45;&gt;#option([ns&#45;0]delivery_choice, [ns&#45;0]dummy_state, dummy_lie):#option([ns&#45;0]delivery_choice, [ns&#45;0]dummy_state, dummy_lie)</title>
<path fill="none" stroke="black" stroke-dasharray="1,5" d="M756.469,-654.411C710.971,-637.487 635.216,-609.307 602.205,-597.028"/>
</g>
<!-- [ns&#45;0]finish_fake_delivery -->
<g id="node8" class="node"><title>[ns&#45;0]finish_fake_delivery</title>
<polygon fill="#eeeeee" stroke="none" points="24.5,-386.5 24.5,-519.5 307.5,-519.5 307.5,-386.5 24.5,-386.5"/>
<text text-anchor="start" x="27" y="-509.5" font-family="Times,serif" font-style="italic" font-size="10.00">[ns&#45;0]finish_fake_delivery</text>
<text text-anchor="start" x="27" y="-495" font-family="Times,serif" font-size="10.00">Подделать письмо</text>
<polygon fill="#dddddd" stroke="none" points="26,-478 26,-491 307,-491 307,-478 26,-478"/>
<text text-anchor="start" x="27" y="-483" font-family="Times,serif" font-size="10.00">hero </text>
<text text-anchor="start" x="48" y="-483" font-family="Times,serif" font-weight="bold" font-size="10.00">находится в</text>
<text text-anchor="start" x="103" y="-483" font-family="Times,serif" font-size="10.00"> place_4</text>
<polygon fill="#ffffff" stroke="none" points="26,-465 26,-478 307,-478 307,-465 26,-465"/>
<text text-anchor="start" x="27" y="-470" font-family="Times,serif" font-weight="bold" font-size="10.00">выдать награду </text>
<text text-anchor="start" x="102" y="-470" font-family="Times,serif" font-size="10.00">  hero </text>
<text text-anchor="start" x="127" y="-470" font-family="Times,serif" font-weight="bold" font-size="10.00">типа </text>
<text text-anchor="start" x="151" y="-470" font-family="Times,serif" font-size="10.00"> finish_fake_delivery </text>
<text text-anchor="start" x="241" y="-470" font-family="Times,serif" font-weight="bold" font-size="10.00">в размере</text>
<text text-anchor="start" x="284" y="-470" font-family="Times,serif" font-size="10.00"> 2.00</text>
<polygon fill="#ffffff" stroke="none" points="26,-452 26,-465 307,-465 307,-452 26,-452"/>
<text text-anchor="start" x="27" y="-457" font-family="Times,serif" font-weight="bold" font-size="10.00">увеличить влияние </text>
<text text-anchor="start" x="115" y="-457" font-family="Times,serif" font-size="10.00">  person_1 </text>
<text text-anchor="start" x="160" y="-457" font-family="Times,serif" font-weight="bold" font-size="10.00">на </text>
<text text-anchor="start" x="173" y="-457" font-family="Times,serif" font-size="10.00"> &#45;1.00</text>
<polygon fill="#ffffff" stroke="none" points="26,-439 26,-452 307,-452 307,-439 26,-439"/>
<text text-anchor="start" x="27" y="-444" font-family="Times,serif" font-weight="bold" font-size="10.00">увеличить влияние </text>
<text text-anchor="start" x="115" y="-444" font-family="Times,serif" font-size="10.00">  person_4 </text>
<text text-anchor="start" x="160" y="-444" font-family="Times,serif" font-weight="bold" font-size="10.00">на </text>
<text text-anchor="start" x="173" y="-444" font-family="Times,serif" font-size="10.00"> &#45;1.00</text>
<polygon fill="#eeeeee" stroke="none" points="26,-426 26,-439 307,-439 307,-426 26,-426"/>
<text text-anchor="start" x="27" y="-431" font-family="Times,serif" font-weight="bold" font-size="10.00">результаты:</text>
<text text-anchor="start" x="27" y="-418" font-family="Times,serif" font-weight="bold" font-size="10.00">person_1</text>
<text text-anchor="start" x="168" y="-417" font-family="Times,serif" font-size="10.00">failed</text>
<text text-anchor="start" x="27" y="-405" font-family="Times,serif" font-weight="bold" font-size="10.00">person_3</text>
<text text-anchor="start" x="168" y="-404" font-family="Times,serif" font-size="10.00">neutral</text>
<text text-anchor="start" x="27" y="-392" font-family="Times,serif" font-weight="bold" font-size="10.00">person_4</text>
<text text-anchor="start" x="168" y="-391" font-family="Times,serif" font-size="10.00">failed</text>
<polygon fill="none" stroke="black" points="24.5,-386.5 24.5,-519.5 307.5,-519.5 307.5,-386.5 24.5,-386.5"/>
</g>
<!-- [ns&#45;0]finish_delivery -->
<g id="node9" class="node"><title>[ns&#45;0]finish_delivery</title>
<polygon fill="#eeeeee" stroke="none" points="932.5,-386.5 932.5,-519.5 1193.5,-519.5 1193.5,-386.5 932.5,-386.5"/>
<text text-anchor="start" x="935" y="-509.5" font-family="Times,serif" font-style="italic" font-size="10.00">[ns&#45;0]finish_delivery</text>
<text text-anchor="start" x="935" y="-495" font-family="Times,serif" font-size="10.00">Доставить посылку получателю</text>
<polygon fill="#dddddd" stroke="none" points="934,-478 934,-491 1193,-491 1193,-478 934,-478"/>
<text text-anchor="start" x="935" y="-483" font-family="Times,serif" font-size="10.00">hero </text>
<text text-anchor="start" x="956" y="-483" font-family="Times,serif" font-weight="bold" font-size="10.00">находится в</text>
<text text-anchor="start" x="1011" y="-483" font-family="Times,serif" font-size="10.00"> place_4</text>
<polygon fill="#ffffff" stroke="none" points="934,-465 934,-478 1193,-478 1193,-465 934,-465"/>
<text text-anchor="start" x="935" y="-470" font-family="Times,serif" font-weight="bold" font-size="10.00">выдать награду </text>
<text text-anchor="start" x="1010" y="-470" font-family="Times,serif" font-size="10.00">  hero </text>
<text text-anchor="start" x="1035" y="-470" font-family="Times,serif" font-weight="bold" font-size="10.00">типа </text>
<text text-anchor="start" x="1059" y="-470" font-family="Times,serif" font-size="10.00"> finish_delivery </text>
<text text-anchor="start" x="1126" y="-470" font-family="Times,serif" font-weight="bold" font-size="10.00">в размере</text>
<text text-anchor="start" x="1169" y="-470" font-family="Times,serif" font-size="10.00"> 1.00</text>
<polygon fill="#ffffff" stroke="none" points="934,-452 934,-465 1193,-465 1193,-452 934,-452"/>
<text text-anchor="start" x="935" y="-457" font-family="Times,serif" font-weight="bold" font-size="10.00">увеличить влияние </text>
<text text-anchor="start" x="1023" y="-457" font-family="Times,serif" font-size="10.00">  person_1 </text>
<text text-anchor="start" x="1068" y="-457" font-family="Times,serif" font-weight="bold" font-size="10.00">на </text>
<text text-anchor="start" x="1081" y="-457" font-family="Times,serif" font-size="10.00"> 1.00</text>
<polygon fill="#ffffff" stroke="none" points="934,-439 934,-452 1193,-452 1193,-439 934,-439"/>
<text text-anchor="start" x="935" y="-444" font-family="Times,serif" font-weight="bold" font-size="10.00">увеличить влияние </text>
<text text-anchor="start" x="1023" y="-444" font-family="Times,serif" font-size="10.00">  person_4 </text>
<text text-anchor="start" x="1068" y="-444" font-family="Times,serif" font-weight="bold" font-size="10.00">на </text>
<text text-anchor="start" x="1081" y="-444" font-family="Times,serif" font-size="10.00"> 1.00</text>
<polygon fill="#eeeeee" stroke="none" points="934,-426 934,-439 1193,-439 1193,-426 934,-426"/>
<text text-anchor="start" x="935" y="-431" font-family="Times,serif" font-weight="bold" font-size="10.00">результаты:</text>
<text text-anchor="start" x="935" y="-418" font-family="Times,serif" font-weight="bold" font-size="10.00">person_1</text>
<text text-anchor="start" x="1065" y="-417" font-family="Times,serif" font-size="10.00">successed</text>
<text text-anchor="start" x="935" y="-405" font-family="Times,serif" font-weight="bold" font-size="10.00">person_3</text>
<text text-anchor="start" x="1065" y="-404" font-family="Times,serif" font-size="10.00">neutral</text>
<text text-anchor="start" x="935" y="-392" font-family="Times,serif" font-weight="bold" font-size="10.00">person_4</text>
<text text-anchor="start" x="1065" y="-391" font-family="Times,serif" font-size="10.00">successed</text>
<polygon fill="none" stroke="black" points="932.5,-386.5 932.5,-519.5 1193.5,-519.5 1193.5,-386.5 932.5,-386.5"/>
</g>
<!-- [ns&#45;0]dummy_state -->
<g id="node10" class="node"><title>[ns&#45;0]dummy_state</title>
<polygon fill="#eeeeee" stroke="none" points="341.5,-412.5 341.5,-493.5 646.5,-493.5 646.5,-412.5 341.5,-412.5"/>
<text text-anchor="start" x="344" y="-483.5" font-family="Times,serif" font-style="italic" font-size="10.00">[ns&#45;0]dummy_state</text>
<text text-anchor="start" x="344" y="-469" font-family="Times,serif" font-size="10.00">заглушка, чтобы можно было управлять появлением подделки письма</text>
<polygon fill="#eeeeee" stroke="none" points="343,-452 343,-465 646,-465 646,-452 343,-452"/>
<text text-anchor="start" x="344" y="-457" font-family="Times,serif" font-weight="bold" font-size="10.00">результаты:</text>
<text text-anchor="start" x="344" y="-444" font-family="Times,serif" font-weight="bold" font-size="10.00">person_1</text>
<text text-anchor="start" x="496" y="-443" font-family="Times,serif" font-size="10.00">neutral</text>
<text text-anchor="start" x="344" y="-431" font-family="Times,serif" font-weight="bold" font-size="10.00">person_3</text>
<text text-anchor="start" x="496" y="-430" font-family="Times,serif" font-size="10.00">neutral</text>
<text text-anchor="start" x="344" y="-418" font-family="Times,serif" font-weight="bold" font-size="10.00">person_4</text>
<text text-anchor="start" x="496" y="-417" font-family="Times,serif" font-size="10.00">neutral</text>
<polygon fill="none" stroke="black" points="341.5,-412.5 341.5,-493.5 646.5,-493.5 646.5,-412.5 341.5,-412.5"/>
</g>
<!-- #answer(False, [ns&#45;0]fight_for_stealed, [ns&#45;0]finish_fight_for_stealed__hero_died)&#45;&gt;[ns&#45;0]finish_fight_for_stealed__hero_died -->
<g id="edge2" class="edge"><title>#answer(False, [ns&#45;0]fight_for_stealed, [ns&#45;0]finish_fight_for_stealed__hero_died):#answer(False, [ns&#45;0]fight_for_stealed, [ns&#45;0]finish_fight_for_stealed__hero_died)&#45;&gt;[ns&#45;0]finish_fight_for_stealed__hero_died:[ns&#45;0]finish_fight_for_stealed__hero_died</title>
<path fill="none" stroke="black" d="M731.35,-188.731C726.508,-177.278 715.788,-151.921 705.572,-127.756"/>
<polygon fill="black" stroke="black" points="708.663,-126.079 701.545,-118.231 702.215,-128.805 708.663,-126.079"/>
</g>
<!-- #option([ns&#45;0]delivery_choice, [ns&#45;0]finish_fake_delivery, fake)&#45;&gt;[ns&#45;0]finish_fake_delivery -->
<g id="edge4" class="edge"><title>#option([ns&#45;0]delivery_choice, [ns&#45;0]finish_fake_delivery, fake):#option([ns&#45;0]delivery_choice, [ns&#45;0]finish_fake_delivery, fake)&#45;&gt;[ns&#45;0]finish_fake_delivery:[ns&#45;0]finish_fake_delivery</title>
<path fill="none" stroke="black" stroke-dasharray="1,5" d="M261.332,-569.944C251.934,-558.514 239.315,-543.166 226.34,-527.387"/>
<polygon fill="black" stroke="black" points="229.009,-525.122 219.955,-519.621 223.602,-529.568 229.009,-525.122"/>
</g>
<!-- #option([ns&#45;0]delivery_choice, [ns&#45;0]delivery_stealed, delivery)&#45;&gt;[ns&#45;0]delivery_stealed -->
<g id="edge6" class="edge"><title>#option([ns&#45;0]delivery_choice, [ns&#45;0]delivery_stealed, delivery):#option([ns&#45;0]delivery_choice, [ns&#45;0]delivery_stealed, delivery)&#45;&gt;[ns&#45;0]delivery_stealed:[ns&#45;0]delivery_stealed</title>
<path fill="none" stroke="black" stroke-dasharray="1,5" d="M793,-569.944C793,-551.12 793,-521.671 793,-497.164"/>
<polygon fill="black" stroke="black" points="796.5,-497.008 793,-487.009 789.5,-497.009 796.5,-497.008"/>
</g>
<!-- #answer(True, [ns&#45;0]fight_for_stealed, [ns&#45;0]finish_fight_for_stealed__delivery)&#45;&gt;[ns&#45;0]finish_fight_for_stealed__delivery -->
<g id="edge8" class="edge"><title>#answer(True, [ns&#45;0]fight_for_stealed, [ns&#45;0]finish_fight_for_stealed__delivery):#answer(True, [ns&#45;0]fight_for_stealed, [ns&#45;0]finish_fight_for_stealed__delivery)&#45;&gt;[ns&#45;0]finish_fight_for_stealed__delivery:[ns&#45;0]finish_fight_for_stealed__delivery</title>
<path fill="none" stroke="black" d="M963.472,-182.3C967.297,-173.423 972.754,-160.76 978.615,-147.159"/>
<polygon fill="black" stroke="black" points="981.979,-148.196 982.722,-137.627 975.55,-145.426 981.979,-148.196"/>
</g>
<!-- #option([ns&#45;0]delivery_choice, [ns&#45;0]finish_delivery, delivery)&#45;&gt;[ns&#45;0]finish_delivery -->
<g id="edge11" class="edge"><title>#option([ns&#45;0]delivery_choice, [ns&#45;0]finish_delivery, delivery):#option([ns&#45;0]delivery_choice, [ns&#45;0]finish_delivery, delivery)&#45;&gt;[ns&#45;0]finish_delivery:[ns&#45;0]finish_delivery</title>
<path fill="none" stroke="black" stroke-dasharray="1,5" d="M1010.61,-569.944C1015.59,-558.929 1022.21,-544.277 1029.06,-529.106"/>
<polygon fill="black" stroke="black" points="1032.42,-530.175 1033.35,-519.621 1026.04,-527.292 1032.42,-530.175"/>
</g>
<!-- #option([ns&#45;0]delivery_choice, [ns&#45;0]finish_steal, steal)&#45;&gt;[ns&#45;0]finish_steal -->
<g id="edge13" class="edge"><title>#option([ns&#45;0]delivery_choice, [ns&#45;0]finish_steal, steal):#option([ns&#45;0]delivery_choice, [ns&#45;0]finish_steal, steal)&#45;&gt;[ns&#45;0]finish_steal:[ns&#45;0]finish_steal</title>
<path fill="none" stroke="black" stroke-dasharray="1,5" d="M1260.68,-569.944C1268.15,-560.254 1277.78,-547.748 1287.95,-534.55"/>
<polygon fill="black" stroke="black" points="1291,-536.32 1294.33,-526.262 1285.46,-532.048 1291,-536.32"/>
</g>
<!-- #option([ns&#45;0]delivery_choice, [ns&#45;0]dummy_state, dummy_lie)&#45;&gt;[ns&#45;0]dummy_state -->
<g id="edge15" class="edge"><title>#option([ns&#45;0]delivery_choice, [ns&#45;0]dummy_state, dummy_lie):#option([ns&#45;0]delivery_choice, [ns&#45;0]dummy_state, dummy_lie)&#45;&gt;[ns&#45;0]dummy_state:[ns&#45;0]dummy_state</title>
<path fill="none" stroke="black" stroke-dasharray="1,5" d="M581.808,-582.849C572.136,-568.657 547.503,-532.51 526.781,-502.103"/>
<polygon fill="black" stroke="black" points="529.58,-499.994 521.056,-493.702 523.795,-503.936 529.58,-499.994"/>
</g>
</g>
</svg>
