<?xml version="1.0" encoding="UTF-8" standalone="no"?>
<!DOCTYPE svg PUBLIC "-//W3C//DTD SVG 1.1//EN"
 "http://www.w3.org/Graphics/SVG/1.1/DTD/svg11.dtd">
<!-- Generated by graphviz version 2.34.0 (20130907.0221)
 -->
<!-- Title: quest Pages: 1 -->
<svg width="518pt" height="408pt"
 viewBox="0.00 0.00 518.00 408.00" xmlns="http://www.w3.org/2000/svg" xmlns:xlink="http://www.w3.org/1999/xlink">
<g id="graph0" class="graph" transform="scale(1 1) rotate(0) translate(4 404)">
<title>quest</title>
<polygon fill="white" stroke="white" points="-4,4 -4,-404 514,-404 514,4 -4,4"/>
<!-- [ns&#45;0]finish_steal -->
<g id="node1" class="node"><title>[ns&#45;0]finish_steal</title>
<polygon fill="#eeeeee" stroke="none" points="8,-4 8,-150 230,-150 230,-4 8,-4"/>
<text text-anchor="start" x="10" y="-140.5" font-family="Times,serif" font-style="italic" font-size="10.00">[ns&#45;0]finish_steal</text>
<text text-anchor="start" x="10" y="-126" font-family="Times,serif" font-size="10.00">Доставить посылку скупщику</text>
<polygon fill="#dddddd" stroke="none" points="9,-109 9,-122 229,-122 229,-109 9,-109"/>
<text text-anchor="start" x="10" y="-114" font-family="Times,serif" font-size="10.00">hero </text>
<text text-anchor="start" x="31" y="-114" font-family="Times,serif" font-weight="bold" font-size="10.00">находится в</text>
<text text-anchor="start" x="86" y="-114" font-family="Times,serif" font-size="10.00"> place_6</text>
<polygon fill="#ffffff" stroke="none" points="9,-96 9,-109 229,-109 229,-96 9,-96"/>
<text text-anchor="start" x="10" y="-101" font-family="Times,serif" font-weight="bold" font-size="10.00">выдать награду </text>
<text text-anchor="start" x="85" y="-101" font-family="Times,serif" font-size="10.00">  hero </text>
<text text-anchor="start" x="110" y="-101" font-family="Times,serif" font-weight="bold" font-size="10.00">типа </text>
<text text-anchor="start" x="134" y="-101" font-family="Times,serif" font-size="10.00"> finish_steal</text>
<polygon fill="#ffffff" stroke="none" points="9,-83 9,-96 229,-96 229,-83 9,-83"/>
<text text-anchor="start" x="10" y="-88" font-family="Times,serif" font-weight="bold" font-size="10.00">увеличить влияние </text>
<text text-anchor="start" x="98" y="-88" font-family="Times,serif" font-size="10.00">  person_1 </text>
<text text-anchor="start" x="143" y="-88" font-family="Times,serif" font-weight="bold" font-size="10.00">на </text>
<text text-anchor="start" x="156" y="-88" font-family="Times,serif" font-size="10.00"> &#45;1.00</text>
<polygon fill="#ffffff" stroke="none" points="9,-70 9,-83 229,-83 229,-70 9,-70"/>
<text text-anchor="start" x="10" y="-75" font-family="Times,serif" font-weight="bold" font-size="10.00">увеличить влияние </text>
<text text-anchor="start" x="98" y="-75" font-family="Times,serif" font-size="10.00">  person_5 </text>
<text text-anchor="start" x="143" y="-75" font-family="Times,serif" font-weight="bold" font-size="10.00">на </text>
<text text-anchor="start" x="156" y="-75" font-family="Times,serif" font-size="10.00"> &#45;1.00</text>
<polygon fill="#ffffff" stroke="none" points="9,-57 9,-70 229,-70 229,-57 9,-57"/>
<text text-anchor="start" x="10" y="-62" font-family="Times,serif" font-weight="bold" font-size="10.00">увеличить влияние </text>
<text text-anchor="start" x="98" y="-62" font-family="Times,serif" font-size="10.00">  person_6 </text>
<text text-anchor="start" x="143" y="-62" font-family="Times,serif" font-weight="bold" font-size="10.00">на </text>
<text text-anchor="start" x="156" y="-62" font-family="Times,serif" font-size="10.00"> 1.00</text>
<polygon fill="#eeeeee" stroke="none" points="9,-44 9,-57 229,-57 229,-44 9,-44"/>
<text text-anchor="start" x="10" y="-49" font-family="Times,serif" font-weight="bold" font-size="10.00">результаты:</text>
<text text-anchor="start" x="10" y="-36" font-family="Times,serif" font-weight="bold" font-size="10.00">person_1</text>
<text text-anchor="start" x="142" y="-35" font-family="Times,serif" font-size="10.00">failed</text>
<text text-anchor="start" x="10" y="-23" font-family="Times,serif" font-weight="bold" font-size="10.00">person_5</text>
<text text-anchor="start" x="142" y="-22" font-family="Times,serif" font-size="10.00">failed</text>
<text text-anchor="start" x="10" y="-10" font-family="Times,serif" font-weight="bold" font-size="10.00">person_6</text>
<text text-anchor="start" x="142" y="-9" font-family="Times,serif" font-size="10.00">successed</text>
<polygon fill="none" stroke="black" points="8,-4 8,-150 230,-150 230,-4 8,-4"/>
</g>
<!-- [ns&#45;0]start -->
<g id="node2" class="node"><title>[ns&#45;0]start</title>
<polygon fill="#eeeeee" stroke="none" points="161.5,-340.5 161.5,-395.5 278.5,-395.5 278.5,-340.5 161.5,-340.5"/>
<text text-anchor="start" x="164" y="-385.5" font-family="Times,serif" font-style="italic" font-size="10.00">[ns&#45;0]start</text>
<text text-anchor="start" x="231.5" y="-385.5" font-family="Times,serif" font-weight="bold" font-size="10.00">delivery</text>
<text text-anchor="start" x="164" y="-371" font-family="Times,serif" font-size="10.00">Начало: доставка</text>
<polygon fill="#dddddd" stroke="none" points="163,-354 163,-367 278,-367 278,-354 163,-354"/>
<text text-anchor="start" x="164" y="-359" font-family="Times,serif" font-size="10.00">hero </text>
<text text-anchor="start" x="185" y="-359" font-family="Times,serif" font-weight="bold" font-size="10.00">находится в</text>
<text text-anchor="start" x="240" y="-359" font-family="Times,serif" font-size="10.00"> place_1</text>
<polygon fill="#ffffff" stroke="none" points="163,-341 163,-354 278,-354 278,-341 163,-341"/>
<text text-anchor="start" x="164" y="-346" font-family="Times,serif" font-weight="bold" font-size="10.00">сообщение:</text>
<text text-anchor="start" x="216" y="-346" font-family="Times,serif" font-size="10.00"> intro</text>
<polygon fill="none" stroke="black" points="161.5,-340.5 161.5,-395.5 278.5,-395.5 278.5,-340.5 161.5,-340.5"/>
</g>
<!-- [ns&#45;0]delivery_choice -->
<g id="node3" class="node"><title>[ns&#45;0]delivery_choice</title>
<polygon fill="#ddddff" stroke="none" points="148,-266.5 148,-295.5 292,-295.5 292,-266.5 148,-266.5"/>
<text text-anchor="start" x="150" y="-285.5" font-family="Times,serif" font-style="italic" font-size="10.00">[ns&#45;0]delivery_choice</text>
<text text-anchor="start" x="150" y="-271" font-family="Times,serif" font-size="10.00">Решение: доставить или украсть</text>
<polygon fill="none" stroke="black" points="148,-266.5 148,-295.5 292,-295.5 292,-266.5 148,-266.5"/>
</g>
<!-- [ns&#45;0]start&#45;&gt;[ns&#45;0]delivery_choice -->
<g id="edge3" class="edge"><title>[ns&#45;0]start:[ns&#45;0]start&#45;&gt;[ns&#45;0]delivery_choice:[ns&#45;0]delivery_choice</title>
<path fill="none" stroke="black" d="M220,-340.105C220,-329.132 220,-316.546 220,-305.9"/>
<polygon fill="black" stroke="black" points="223.5,-305.657 220,-295.657 216.5,-305.657 223.5,-305.657"/>
</g>
<!-- #option([ns&#45;0]delivery_choice, [ns&#45;0]finish_steal) -->
<g id="node5" class="node"><title>#option([ns&#45;0]delivery_choice, [ns&#45;0]finish_steal)</title>
<polygon fill="#ffffff" stroke="none" points="101,-207 101,-221 200,-221 200,-207 101,-207"/>
<text text-anchor="start" x="102" y="-211.5" font-family="Times,serif" font-size="10.00">steal</text>
<polygon fill="#eeeeee" stroke="none" points="101,-194 101,-207 200,-207 200,-194 101,-194"/>
<text text-anchor="start" x="102" y="-199" font-family="Times,serif" font-weight="bold" font-size="10.00">сообщение:</text>
<text text-anchor="start" x="154" y="-199" font-family="Times,serif" font-size="10.00"> start_steal</text>
</g>
<!-- [ns&#45;0]delivery_choice&#45;&gt;#option([ns&#45;0]delivery_choice, [ns&#45;0]finish_steal) -->
<g id="edge1" class="edge"><title>[ns&#45;0]delivery_choice:[ns&#45;0]delivery_choice&#45;&gt;#option([ns&#45;0]delivery_choice, [ns&#45;0]finish_steal):#option([ns&#45;0]delivery_choice, [ns&#45;0]finish_steal)</title>
<path fill="none" stroke="black" stroke-dasharray="1,5" d="M206.503,-266.31C193.79,-253.416 174.897,-234.252 162.515,-221.693"/>
</g>
<!-- #option([ns&#45;0]delivery_choice, [ns&#45;0]finish_delivery) -->
<g id="node6" class="node"><title>#option([ns&#45;0]delivery_choice, [ns&#45;0]finish_delivery)</title>
<polygon fill="#ffffff" stroke="none" points="295,-207 295,-221 409,-221 409,-207 295,-207"/>
<text text-anchor="start" x="296" y="-211.5" font-family="Times,serif" font-size="10.00">delivery</text>
<polygon fill="#eeeeee" stroke="none" points="295,-194 295,-207 409,-207 409,-194 295,-194"/>
<text text-anchor="start" x="296" y="-199" font-family="Times,serif" font-weight="bold" font-size="10.00">сообщение:</text>
<text text-anchor="start" x="348" y="-199" font-family="Times,serif" font-size="10.00"> start_delivery</text>
</g>
<!-- [ns&#45;0]delivery_choice&#45;&gt;#option([ns&#45;0]delivery_choice, [ns&#45;0]finish_delivery) -->
<g id="edge4" class="edge"><title>[ns&#45;0]delivery_choice:[ns&#45;0]delivery_choice&#45;&gt;#option([ns&#45;0]delivery_choice, [ns&#45;0]finish_delivery):#option([ns&#45;0]delivery_choice, [ns&#45;0]finish_delivery)</title>
<path fill="none" stroke="black" stroke-dasharray="1,5" d="M245.139,-266.478C269.225,-253.523 305.281,-234.129 328.725,-221.519"/>
</g>
<!-- [ns&#45;0]finish_delivery -->
<g id="node4" class="node"><title>[ns&#45;0]finish_delivery</title>
<polygon fill="#eeeeee" stroke="none" points="264,-10.5 264,-143.5 502,-143.5 502,-10.5 264,-10.5"/>
<text text-anchor="start" x="266" y="-133.5" font-family="Times,serif" font-style="italic" font-size="10.00">[ns&#45;0]finish_delivery</text>
<text text-anchor="start" x="266" y="-119" font-family="Times,serif" font-size="10.00">Доставить посылку получателю</text>
<polygon fill="#dddddd" stroke="none" points="265,-102 265,-115 501,-115 501,-102 265,-102"/>
<text text-anchor="start" x="266" y="-107" font-family="Times,serif" font-size="10.00">hero </text>
<text text-anchor="start" x="287" y="-107" font-family="Times,serif" font-weight="bold" font-size="10.00">находится в</text>
<text text-anchor="start" x="342" y="-107" font-family="Times,serif" font-size="10.00"> place_5</text>
<polygon fill="#ffffff" stroke="none" points="265,-89 265,-102 501,-102 501,-89 265,-89"/>
<text text-anchor="start" x="266" y="-94" font-family="Times,serif" font-weight="bold" font-size="10.00">выдать награду </text>
<text text-anchor="start" x="341" y="-94" font-family="Times,serif" font-size="10.00">  hero </text>
<text text-anchor="start" x="366" y="-94" font-family="Times,serif" font-weight="bold" font-size="10.00">типа </text>
<text text-anchor="start" x="390" y="-94" font-family="Times,serif" font-size="10.00"> finish_delivery</text>
<polygon fill="#ffffff" stroke="none" points="265,-76 265,-89 501,-89 501,-76 265,-76"/>
<text text-anchor="start" x="266" y="-81" font-family="Times,serif" font-weight="bold" font-size="10.00">увеличить влияние </text>
<text text-anchor="start" x="354" y="-81" font-family="Times,serif" font-size="10.00">  person_1 </text>
<text text-anchor="start" x="399" y="-81" font-family="Times,serif" font-weight="bold" font-size="10.00">на </text>
<text text-anchor="start" x="412" y="-81" font-family="Times,serif" font-size="10.00"> 1.00</text>
<polygon fill="#ffffff" stroke="none" points="265,-63 265,-76 501,-76 501,-63 265,-63"/>
<text text-anchor="start" x="266" y="-68" font-family="Times,serif" font-weight="bold" font-size="10.00">увеличить влияние </text>
<text text-anchor="start" x="354" y="-68" font-family="Times,serif" font-size="10.00">  person_5 </text>
<text text-anchor="start" x="399" y="-68" font-family="Times,serif" font-weight="bold" font-size="10.00">на </text>
<text text-anchor="start" x="412" y="-68" font-family="Times,serif" font-size="10.00"> 1.00</text>
<polygon fill="#eeeeee" stroke="none" points="265,-50 265,-63 501,-63 501,-50 265,-50"/>
<text text-anchor="start" x="266" y="-55" font-family="Times,serif" font-weight="bold" font-size="10.00">результаты:</text>
<text text-anchor="start" x="266" y="-42" font-family="Times,serif" font-weight="bold" font-size="10.00">person_1</text>
<text text-anchor="start" x="406" y="-41" font-family="Times,serif" font-size="10.00">successed</text>
<text text-anchor="start" x="266" y="-29" font-family="Times,serif" font-weight="bold" font-size="10.00">person_5</text>
<text text-anchor="start" x="406" y="-28" font-family="Times,serif" font-size="10.00">successed</text>
<text text-anchor="start" x="266" y="-16" font-family="Times,serif" font-weight="bold" font-size="10.00">person_6</text>
<text text-anchor="start" x="406" y="-15" font-family="Times,serif" font-size="10.00">neutral</text>
<polygon fill="none" stroke="black" points="264,-10.5 264,-143.5 502,-143.5 502,-10.5 264,-10.5"/>
</g>
<!-- #option([ns&#45;0]delivery_choice, [ns&#45;0]finish_steal)&#45;&gt;[ns&#45;0]finish_steal -->
<g id="edge2" class="edge"><title>#option([ns&#45;0]delivery_choice, [ns&#45;0]finish_steal):#option([ns&#45;0]delivery_choice, [ns&#45;0]finish_steal)&#45;&gt;[ns&#45;0]finish_steal:[ns&#45;0]finish_steal</title>
<path fill="none" stroke="black" stroke-dasharray="1,5" d="M146.914,-194.159C144.832,-185.493 141.886,-173.235 138.683,-159.906"/>
<polygon fill="black" stroke="black" points="142.053,-158.952 136.313,-150.046 135.247,-160.587 142.053,-158.952"/>
</g>
<!-- #option([ns&#45;0]delivery_choice, [ns&#45;0]finish_delivery)&#45;&gt;[ns&#45;0]finish_delivery -->
<g id="edge5" class="edge"><title>#option([ns&#45;0]delivery_choice, [ns&#45;0]finish_delivery):#option([ns&#45;0]delivery_choice, [ns&#45;0]finish_delivery)&#45;&gt;[ns&#45;0]finish_delivery:[ns&#45;0]finish_delivery</title>
<path fill="none" stroke="black" stroke-dasharray="1,5" d="M355.086,-194.159C357.495,-184.132 361.06,-169.298 364.843,-153.558"/>
<polygon fill="black" stroke="black" points="368.284,-154.216 367.218,-143.675 361.478,-152.58 368.284,-154.216"/>
</g>
</g>
</svg>
