<?xml version="1.0" encoding="UTF-8" standalone="no"?>
<!DOCTYPE svg PUBLIC "-//W3C//DTD SVG 1.1//EN"
 "http://www.w3.org/Graphics/SVG/1.1/DTD/svg11.dtd">
<!-- Generated by graphviz version 2.43.0 (0)
 -->
<!-- Title: quest Pages: 1 -->
<svg width="2118pt" height="724pt"
 viewBox="0.00 0.00 2118.00 724.00" xmlns="http://www.w3.org/2000/svg" xmlns:xlink="http://www.w3.org/1999/xlink">
<g id="graph0" class="graph" transform="scale(1 1) rotate(0) translate(4 720)">
<title>quest</title>
<polygon fill="white" stroke="transparent" points="-4,4 -4,-720 2114,-720 2114,4 -4,4"/>
<g id="clust2" class="cluster">
<title>cluster_[ns&#45;0]lie_variants</title>
<polygon fill="#ffffdd" stroke="black" points="374.5,-338 374.5,-491 1160.5,-491 1160.5,-338 374.5,-338"/>
<text text-anchor="middle" x="767.5" y="-475.8" font-family="Times,serif" font-size="14.00">cluster_[ns&#45;0]lie_variants</text>
</g>
<g id="clust1" class="cluster">
<title>cluster_[ns&#45;0]delivery_variants</title>
<polygon fill="#ffffdd" stroke="black" points="1168.5,-338 1168.5,-491 1922.5,-491 1922.5,-338 1168.5,-338"/>
<text text-anchor="middle" x="1545.5" y="-475.8" font-family="Times,serif" font-size="14.00">cluster_[ns&#45;0]delivery_variants</text>
</g>
<!-- [ns&#45;0]delivery_stealed -->
<g id="node1" class="node">
<title>[ns&#45;0]delivery_stealed</title>
<polygon fill="#ddffdd" stroke="transparent" points="1585,-369.5 1585,-436.5 1906,-436.5 1906,-369.5 1585,-369.5"/>
<text text-anchor="start" x="1587.5" y="-427" font-family="Times,serif" font-style="italic" font-size="10.00">[ns&#45;0]delivery_stealed</text>
<text text-anchor="start" x="1587.5" y="-413" font-family="Times,serif" font-size="10.00">letter stolen</text>
<polygon fill="#cceecc" stroke="transparent" points="1586.5,-396 1586.5,-409 1905.5,-409 1905.5,-396 1586.5,-396"/>
<text text-anchor="start" x="1587.5" y="-401" font-family="Times,serif" font-size="10.00">hero </text>
<text text-anchor="start" x="1614.5" y="-401" font-family="Times,serif" font-weight="bold" font-size="10.00">has passed</text>
<text text-anchor="start" x="1677.5" y="-401" font-family="Times,serif" font-size="10.00"> 77%</text>
<text text-anchor="start" x="1702.5" y="-401" font-family="Times,serif" font-weight="bold" font-size="10.00"> of the road from</text>
<text text-anchor="start" x="1799.5" y="-401" font-family="Times,serif" font-size="10.00"> place_1 </text>
<text text-anchor="start" x="1844.5" y="-401" font-family="Times,serif" font-weight="bold" font-size="10.00">to</text>
<text text-anchor="start" x="1856.5" y="-401" font-family="Times,serif" font-size="10.00"> place_10</text>
<polygon fill="#eeffee" stroke="transparent" points="1586.5,-383 1586.5,-396 1905.5,-396 1905.5,-383 1586.5,-383"/>
<text text-anchor="start" x="1587.5" y="-388" font-family="Times,serif" font-weight="bold" font-size="10.00">message:</text>
<text text-anchor="start" x="1639.5" y="-388" font-family="Times,serif" font-size="10.00"> delivery_stealed</text>
<polygon fill="#eeffee" stroke="transparent" points="1586.5,-370 1586.5,-383 1905.5,-383 1905.5,-370 1586.5,-370"/>
<text text-anchor="start" x="1587.5" y="-375" font-family="Times,serif" font-weight="bold" font-size="10.00">send </text>
<text text-anchor="start" x="1618.5" y="-375" font-family="Times,serif" font-size="10.00"> hero</text>
<text text-anchor="start" x="1645.5" y="-375" font-family="Times,serif" font-weight="bold" font-size="10.00">to wander around</text>
<polygon fill="none" stroke="black" points="1585,-369.5 1585,-436.5 1906,-436.5 1906,-369.5 1585,-369.5"/>
</g>
<!-- [ns&#45;0]fight_for_stealed -->
<g id="node5" class="node">
<title>[ns&#45;0]fight_for_stealed</title>
<polygon fill="#ffdddd" stroke="transparent" points="1651.5,-226 1651.5,-306 1839.5,-306 1839.5,-226 1651.5,-226"/>
<text text-anchor="start" x="1653.5" y="-297" font-family="Times,serif" font-style="italic" font-size="10.00">[ns&#45;0]fight_for_stealed</text>
<text text-anchor="start" x="1653.5" y="-283" font-family="Times,serif" font-size="10.00">Fight the thief</text>
<polygon fill="#ffeeee" stroke="transparent" points="1652.5,-266 1652.5,-279 1838.5,-279 1838.5,-266 1652.5,-266"/>
<text text-anchor="start" x="1653.5" y="-271" font-family="Times,serif" font-weight="bold" font-size="10.00">message:</text>
<text text-anchor="start" x="1705.5" y="-271" font-family="Times,serif" font-size="10.00"> fight_thief</text>
<polygon fill="#ffeeee" stroke="transparent" points="1652.5,-253 1652.5,-266 1838.5,-266 1838.5,-253 1652.5,-253"/>
<text text-anchor="start" x="1653.5" y="-258" font-family="Times,serif" font-weight="bold" font-size="10.00">fight with a mercenary</text>
<polygon fill="#ffdddd" stroke="transparent" points="1652.5,-240 1652.5,-253 1838.5,-253 1838.5,-240 1652.5,-240"/>
<text text-anchor="start" x="1653.5" y="-245" font-family="Times,serif" font-weight="bold" font-size="10.00">conditions:</text>
<text text-anchor="start" x="1653.5" y="-232" font-family="Times,serif" font-weight="bold" font-size="10.00">if </text>
<polygon fill="#ffdddd" stroke="transparent" points="1769.5,-227 1769.5,-240 1838.5,-240 1838.5,-227 1769.5,-227"/>
<text text-anchor="start" x="1770.5" y="-232" font-family="Times,serif" font-size="10.00">hero </text>
<text text-anchor="start" x="1797.5" y="-232" font-family="Times,serif" font-weight="bold" font-size="10.00">is alive</text>
<polygon fill="none" stroke="black" points="1651.5,-226 1651.5,-306 1839.5,-306 1839.5,-226 1651.5,-226"/>
</g>
<!-- [ns&#45;0]delivery_stealed&#45;&gt;[ns&#45;0]fight_for_stealed -->
<g id="edge9" class="edge">
<title>[ns&#45;0]delivery_stealed:[ns&#45;0]delivery_stealed&#45;&gt;[ns&#45;0]fight_for_stealed:[ns&#45;0]fight_for_stealed</title>
<path fill="none" stroke="black" d="M1745.5,-369.32C1745.5,-353.4 1745.5,-333.93 1745.5,-316.26"/>
<polygon fill="black" stroke="black" points="1749,-316.1 1745.5,-306.1 1742,-316.1 1749,-316.1"/>
</g>
<!-- [ns&#45;0]finish_fight_for_stealed__hero_died -->
<g id="node2" class="node">
<title>[ns&#45;0]finish_fight_for_stealed__hero_died</title>
<polygon fill="#eeeeee" stroke="transparent" points="1446.5,-10.5 1446.5,-103.5 1700.5,-103.5 1700.5,-10.5 1446.5,-10.5"/>
<text text-anchor="start" x="1448.5" y="-94" font-family="Times,serif" font-style="italic" font-size="10.00">[ns&#45;0]finish_fight_for_stealed__hero_died</text>
<text text-anchor="start" x="1448.5" y="-80" font-family="Times,serif" font-size="10.00">The hero failed to retrieve the stolen letter</text>
<polygon fill="#ffffff" stroke="transparent" points="1447.5,-63 1447.5,-76 1699.5,-76 1699.5,-63 1447.5,-63"/>
<text text-anchor="start" x="1448.5" y="-68" font-family="Times,serif" font-weight="bold" font-size="10.00">message:</text>
<text text-anchor="start" x="1500.5" y="-68" font-family="Times,serif" font-size="10.00"> finish_fight_for_stealed__hero_died</text>
<polygon fill="#eeeeee" stroke="transparent" points="1447.5,-50 1447.5,-63 1699.5,-63 1699.5,-50 1447.5,-50"/>
<text text-anchor="start" x="1448.5" y="-55" font-family="Times,serif" font-weight="bold" font-size="10.00">results:</text>
<text text-anchor="start" x="1448.5" y="-42" font-family="Times,serif" font-weight="bold" font-size="10.00">person_1</text>
<text text-anchor="start" x="1661.5" y="-41" font-family="Times,serif" font-size="10.00">neutral</text>
<text text-anchor="start" x="1448.5" y="-29" font-family="Times,serif" font-weight="bold" font-size="10.00">person_10</text>
<text text-anchor="start" x="1661.5" y="-28" font-family="Times,serif" font-size="10.00">neutral</text>
<text text-anchor="start" x="1448.5" y="-16" font-family="Times,serif" font-weight="bold" font-size="10.00">person_3</text>
<text text-anchor="start" x="1661.5" y="-15" font-family="Times,serif" font-size="10.00">neutral</text>
<polygon fill="none" stroke="black" points="1446.5,-10.5 1446.5,-103.5 1700.5,-103.5 1700.5,-10.5 1446.5,-10.5"/>
</g>
<!-- [ns&#45;0]dummy_state -->
<g id="node3" class="node">
<title>[ns&#45;0]dummy_state</title>
<polygon fill="#eeeeee" stroke="transparent" points="818.5,-363 818.5,-443 1144.5,-443 1144.5,-363 818.5,-363"/>
<text text-anchor="start" x="820.5" y="-434" font-family="Times,serif" font-style="italic" font-size="10.00">[ns&#45;0]dummy_state</text>
<text text-anchor="start" x="820.5" y="-420" font-family="Times,serif" font-size="10.00">dummy, so you can control the appearance of the letter forgery</text>
<polygon fill="#eeeeee" stroke="transparent" points="819.5,-403 819.5,-416 1143.5,-416 1143.5,-403 819.5,-403"/>
<text text-anchor="start" x="820.5" y="-408" font-family="Times,serif" font-weight="bold" font-size="10.00">results:</text>
<text text-anchor="start" x="820.5" y="-395" font-family="Times,serif" font-weight="bold" font-size="10.00">person_1</text>
<text text-anchor="start" x="1013.5" y="-394" font-family="Times,serif" font-size="10.00">neutral</text>
<text text-anchor="start" x="820.5" y="-382" font-family="Times,serif" font-weight="bold" font-size="10.00">person_10</text>
<text text-anchor="start" x="1013.5" y="-381" font-family="Times,serif" font-size="10.00">neutral</text>
<text text-anchor="start" x="820.5" y="-369" font-family="Times,serif" font-weight="bold" font-size="10.00">person_3</text>
<text text-anchor="start" x="1013.5" y="-368" font-family="Times,serif" font-size="10.00">neutral</text>
<polygon fill="none" stroke="black" points="818.5,-363 818.5,-443 1144.5,-443 1144.5,-363 818.5,-363"/>
</g>
<!-- [ns&#45;0]start -->
<g id="node4" class="node">
<title>[ns&#45;0]start</title>
<polygon fill="#eeeeee" stroke="transparent" points="910,-658 910,-712 1053,-712 1053,-658 910,-658"/>
<text text-anchor="start" x="912.5" y="-703" font-family="Times,serif" font-style="italic" font-size="10.00">[ns&#45;0]start</text>
<text text-anchor="start" x="997.5" y="-703" font-family="Times,serif" font-weight="bold" font-size="10.00">delivery</text>
<text text-anchor="start" x="912.5" y="-689" font-family="Times,serif" font-size="10.00">Start: delivery</text>
<polygon fill="#dddddd" stroke="transparent" points="911.5,-672 911.5,-685 1052.5,-685 1052.5,-672 911.5,-672"/>
<text text-anchor="start" x="912.5" y="-677" font-family="Times,serif" font-size="10.00">hero </text>
<text text-anchor="start" x="939.5" y="-677" font-family="Times,serif" font-weight="bold" font-size="10.00">is located in</text>
<text text-anchor="start" x="1009.5" y="-677" font-family="Times,serif" font-size="10.00"> place_1</text>
<polygon fill="#ffffff" stroke="transparent" points="911.5,-659 911.5,-672 1052.5,-672 1052.5,-659 911.5,-659"/>
<text text-anchor="start" x="912.5" y="-664" font-family="Times,serif" font-weight="bold" font-size="10.00">message:</text>
<text text-anchor="start" x="964.5" y="-664" font-family="Times,serif" font-size="10.00"> intro</text>
<polygon fill="none" stroke="black" points="910,-658 910,-712 1053,-712 1053,-658 910,-658"/>
</g>
<!-- [ns&#45;0]delivery_choice -->
<g id="node8" class="node">
<title>[ns&#45;0]delivery_choice</title>
<polygon fill="#ddddff" stroke="transparent" points="916.5,-586 916.5,-614 1046.5,-614 1046.5,-586 916.5,-586"/>
<text text-anchor="start" x="918.5" y="-605" font-family="Times,serif" font-style="italic" font-size="10.00">[ns&#45;0]delivery_choice</text>
<text text-anchor="start" x="918.5" y="-591" font-family="Times,serif" font-size="10.00">Decision: deliver or steal</text>
<polygon fill="none" stroke="black" points="916.5,-586 916.5,-614 1046.5,-614 1046.5,-586 916.5,-586"/>
</g>
<!-- [ns&#45;0]start&#45;&gt;[ns&#45;0]delivery_choice -->
<g id="edge14" class="edge">
<title>[ns&#45;0]start:[ns&#45;0]start&#45;&gt;[ns&#45;0]delivery_choice:[ns&#45;0]delivery_choice</title>
<path fill="none" stroke="black" d="M981.5,-657.74C981.5,-647.02 981.5,-634.73 981.5,-624.34"/>
<polygon fill="black" stroke="black" points="985,-624.34 981.5,-614.34 978,-624.34 985,-624.34"/>
</g>
<!-- #answer(False, [ns&#45;0]fight_for_stealed, [ns&#45;0]finish_fight_for_stealed__hero_died) -->
<g id="node14" class="node">
<title>#answer(False, [ns&#45;0]fight_for_stealed, [ns&#45;0]finish_fight_for_stealed__hero_died)</title>
<polygon fill="#ffffff" stroke="transparent" points="1663.5,-161 1663.5,-174 1700.5,-174 1700.5,-161 1663.5,-161"/>
<text text-anchor="start" x="1664.5" y="-165" font-family="Times,serif" font-size="10.00">FALSE</text>
</g>
<!-- [ns&#45;0]fight_for_stealed&#45;&gt;#answer(False, [ns&#45;0]fight_for_stealed, [ns&#45;0]finish_fight_for_stealed__hero_died) -->
<g id="edge7" class="edge">
<title>[ns&#45;0]fight_for_stealed:[ns&#45;0]fight_for_stealed&#45;&gt;#answer(False, [ns&#45;0]fight_for_stealed, [ns&#45;0]finish_fight_for_stealed__hero_died):#answer(False, [ns&#45;0]fight_for_stealed, [ns&#45;0]finish_fight_for_stealed__hero_died)</title>
<path fill="none" stroke="black" d="M1719.47,-225.95C1706.46,-206.43 1692.08,-184.87 1685.36,-174.79"/>
</g>
<!-- #answer(True, [ns&#45;0]fight_for_stealed, [ns&#45;0]finish_fight_for_stealed__delivery) -->
<g id="node17" class="node">
<title>#answer(True, [ns&#45;0]fight_for_stealed, [ns&#45;0]finish_fight_for_stealed__delivery)</title>
<polygon fill="#ffffff" stroke="transparent" points="1789.5,-168 1789.5,-181 1938.5,-181 1938.5,-168 1789.5,-168"/>
<text text-anchor="start" x="1790.5" y="-172" font-family="Times,serif" font-size="10.00">TRUE</text>
<polygon fill="#eeeeee" stroke="transparent" points="1789.5,-155 1789.5,-168 1938.5,-168 1938.5,-155 1789.5,-155"/>
<text text-anchor="start" x="1790.5" y="-160" font-family="Times,serif" font-weight="bold" font-size="10.00">message:</text>
<text text-anchor="start" x="1842.5" y="-160" font-family="Times,serif" font-size="10.00"> delivery_returned</text>
</g>
<!-- [ns&#45;0]fight_for_stealed&#45;&gt;#answer(True, [ns&#45;0]fight_for_stealed, [ns&#45;0]finish_fight_for_stealed__delivery) -->
<g id="edge15" class="edge">
<title>[ns&#45;0]fight_for_stealed:[ns&#45;0]fight_for_stealed&#45;&gt;#answer(True, [ns&#45;0]fight_for_stealed, [ns&#45;0]finish_fight_for_stealed__delivery):#answer(True, [ns&#45;0]fight_for_stealed, [ns&#45;0]finish_fight_for_stealed__delivery)</title>
<path fill="none" stroke="black" d="M1793.5,-225.95C1813.28,-209.86 1834.77,-192.38 1848.64,-181.09"/>
</g>
<!-- [ns&#45;0]finish_fight_for_stealed__delivery -->
<g id="node6" class="node">
<title>[ns&#45;0]finish_fight_for_stealed__delivery</title>
<polygon fill="#eeeeee" stroke="transparent" points="1735,-4 1735,-110 2102,-110 2102,-4 1735,-4"/>
<text text-anchor="start" x="1737.5" y="-101" font-family="Times,serif" font-style="italic" font-size="10.00">[ns&#45;0]finish_fight_for_stealed__delivery</text>
<text text-anchor="start" x="1737.5" y="-87" font-family="Times,serif" font-size="10.00">Deliver the package to the recipient</text>
<polygon fill="#dddddd" stroke="transparent" points="1736.5,-70 1736.5,-83 2101.5,-83 2101.5,-70 1736.5,-70"/>
<text text-anchor="start" x="1737.5" y="-75" font-family="Times,serif" font-size="10.00">hero </text>
<text text-anchor="start" x="1764.5" y="-75" font-family="Times,serif" font-weight="bold" font-size="10.00">is located in</text>
<text text-anchor="start" x="1834.5" y="-75" font-family="Times,serif" font-size="10.00"> place_10</text>
<polygon fill="#ffffff" stroke="transparent" points="1736.5,-57 1736.5,-70 2101.5,-70 2101.5,-57 1736.5,-57"/>
<text text-anchor="start" x="1737.5" y="-62" font-family="Times,serif" font-weight="bold" font-size="10.00">give reward to </text>
<text text-anchor="start" x="1821.5" y="-62" font-family="Times,serif" font-size="10.00">  hero </text>
<text text-anchor="start" x="1854.5" y="-62" font-family="Times,serif" font-weight="bold" font-size="10.00">of type </text>
<text text-anchor="start" x="1897.5" y="-62" font-family="Times,serif" font-size="10.00"> finish_delivery </text>
<text text-anchor="start" x="1979.5" y="-62" font-family="Times,serif" font-weight="bold" font-size="10.00">in the amount of</text>
<text text-anchor="start" x="2075.5" y="-62" font-family="Times,serif" font-size="10.00"> 1.00</text>
<polygon fill="#eeeeee" stroke="transparent" points="1736.5,-44 1736.5,-57 2101.5,-57 2101.5,-44 1736.5,-44"/>
<text text-anchor="start" x="1737.5" y="-49" font-family="Times,serif" font-weight="bold" font-size="10.00">results:</text>
<text text-anchor="start" x="1737.5" y="-36" font-family="Times,serif" font-weight="bold" font-size="10.00">person_1</text>
<text text-anchor="start" x="1994.5" y="-35" font-family="Times,serif" font-size="10.00">successed</text>
<text text-anchor="start" x="1737.5" y="-23" font-family="Times,serif" font-weight="bold" font-size="10.00">person_10</text>
<text text-anchor="start" x="1994.5" y="-22" font-family="Times,serif" font-size="10.00">successed</text>
<text text-anchor="start" x="1737.5" y="-10" font-family="Times,serif" font-weight="bold" font-size="10.00">person_3</text>
<text text-anchor="start" x="1994.5" y="-9" font-family="Times,serif" font-size="10.00">neutral</text>
<polygon fill="none" stroke="black" points="1735,-4 1735,-110 2102,-110 2102,-4 1735,-4"/>
</g>
<!-- [ns&#45;0]finish_steal -->
<g id="node7" class="node">
<title>[ns&#45;0]finish_steal</title>
<polygon fill="#eeeeee" stroke="transparent" points="8,-350 8,-456 357,-456 357,-350 8,-350"/>
<text text-anchor="start" x="10.5" y="-447" font-family="Times,serif" font-style="italic" font-size="10.00">[ns&#45;0]finish_steal</text>
<text text-anchor="start" x="10.5" y="-433" font-family="Times,serif" font-size="10.00">Deliver the package to the fence</text>
<polygon fill="#dddddd" stroke="transparent" points="9.5,-416 9.5,-429 356.5,-429 356.5,-416 9.5,-416"/>
<text text-anchor="start" x="10.5" y="-421" font-family="Times,serif" font-size="10.00">hero </text>
<text text-anchor="start" x="37.5" y="-421" font-family="Times,serif" font-weight="bold" font-size="10.00">is located in</text>
<text text-anchor="start" x="107.5" y="-421" font-family="Times,serif" font-size="10.00"> place_3</text>
<polygon fill="#ffffff" stroke="transparent" points="9.5,-403 9.5,-416 356.5,-416 356.5,-403 9.5,-403"/>
<text text-anchor="start" x="10.5" y="-408" font-family="Times,serif" font-weight="bold" font-size="10.00">give reward to </text>
<text text-anchor="start" x="94.5" y="-408" font-family="Times,serif" font-size="10.00">  hero </text>
<text text-anchor="start" x="127.5" y="-408" font-family="Times,serif" font-weight="bold" font-size="10.00">of type </text>
<text text-anchor="start" x="170.5" y="-408" font-family="Times,serif" font-size="10.00"> finish_steal </text>
<text text-anchor="start" x="234.5" y="-408" font-family="Times,serif" font-weight="bold" font-size="10.00">in the amount of</text>
<text text-anchor="start" x="330.5" y="-408" font-family="Times,serif" font-size="10.00"> 1.50</text>
<polygon fill="#eeeeee" stroke="transparent" points="9.5,-390 9.5,-403 356.5,-403 356.5,-390 9.5,-390"/>
<text text-anchor="start" x="10.5" y="-395" font-family="Times,serif" font-weight="bold" font-size="10.00">results:</text>
<text text-anchor="start" x="10.5" y="-382" font-family="Times,serif" font-weight="bold" font-size="10.00">person_1</text>
<text text-anchor="start" x="201.5" y="-381" font-family="Times,serif" font-size="10.00">failed</text>
<text text-anchor="start" x="10.5" y="-369" font-family="Times,serif" font-weight="bold" font-size="10.00">person_10</text>
<text text-anchor="start" x="201.5" y="-368" font-family="Times,serif" font-size="10.00">failed</text>
<text text-anchor="start" x="10.5" y="-356" font-family="Times,serif" font-weight="bold" font-size="10.00">person_3</text>
<text text-anchor="start" x="201.5" y="-355" font-family="Times,serif" font-size="10.00">successed</text>
<polygon fill="none" stroke="black" points="8,-350 8,-456 357,-456 357,-350 8,-350"/>
</g>
<!-- #option([ns&#45;0]delivery_choice, [ns&#45;0]finish_steal, steal) -->
<g id="node11" class="node">
<title>#option([ns&#45;0]delivery_choice, [ns&#45;0]finish_steal, steal)</title>
<polygon fill="#ffffff" stroke="transparent" points="396.5,-528.5 396.5,-541.5 506.5,-541.5 506.5,-528.5 396.5,-528.5"/>
<text text-anchor="start" x="397.5" y="-532.5" font-family="Times,serif" font-size="10.00">steal</text>
<polygon fill="#aadddd" stroke="transparent" points="396.5,-515.5 396.5,-528.5 506.5,-528.5 506.5,-515.5 396.5,-515.5"/>
<text text-anchor="start" x="397.5" y="-519.5" font-family="Times,serif" font-size="10.00">[dishonor]</text>
<polygon fill="#eeeeee" stroke="transparent" points="396.5,-502.5 396.5,-515.5 506.5,-515.5 506.5,-502.5 396.5,-502.5"/>
<text text-anchor="start" x="397.5" y="-507.5" font-family="Times,serif" font-weight="bold" font-size="10.00">message:</text>
<text text-anchor="start" x="449.5" y="-507.5" font-family="Times,serif" font-size="10.00"> start_steal</text>
</g>
<!-- [ns&#45;0]delivery_choice&#45;&gt;#option([ns&#45;0]delivery_choice, [ns&#45;0]finish_steal, steal) -->
<g id="edge1" class="edge">
<title>[ns&#45;0]delivery_choice:[ns&#45;0]delivery_choice&#45;&gt;#option([ns&#45;0]delivery_choice, [ns&#45;0]finish_steal, steal):#option([ns&#45;0]delivery_choice, [ns&#45;0]finish_steal, steal)</title>
<path fill="none" stroke="black" stroke-dasharray="1,5" d="M916.25,-589.7C810.83,-574.69 604.95,-545.36 506.5,-531.33"/>
</g>
<!-- #option([ns&#45;0]delivery_choice, [ns&#45;0]finish_fake_delivery, fake) -->
<g id="node12" class="node">
<title>#option([ns&#45;0]delivery_choice, [ns&#45;0]finish_fake_delivery, fake)</title>
<polygon fill="#ffffff" stroke="transparent" points="671.5,-528.5 671.5,-541.5 779.5,-541.5 779.5,-528.5 671.5,-528.5"/>
<text text-anchor="start" x="672.5" y="-532.5" font-family="Times,serif" font-size="10.00">fake</text>
<polygon fill="#aadddd" stroke="transparent" points="671.5,-515.5 671.5,-528.5 779.5,-528.5 779.5,-515.5 671.5,-515.5"/>
<text text-anchor="start" x="672.5" y="-519.5" font-family="Times,serif" font-size="10.00">[dishonor]</text>
<polygon fill="#eeeeee" stroke="transparent" points="671.5,-502.5 671.5,-515.5 779.5,-515.5 779.5,-502.5 671.5,-502.5"/>
<text text-anchor="start" x="672.5" y="-507.5" font-family="Times,serif" font-weight="bold" font-size="10.00">message:</text>
<text text-anchor="start" x="724.5" y="-507.5" font-family="Times,serif" font-size="10.00"> start_fake</text>
</g>
<!-- [ns&#45;0]delivery_choice&#45;&gt;#option([ns&#45;0]delivery_choice, [ns&#45;0]finish_fake_delivery, fake) -->
<g id="edge3" class="edge">
<title>[ns&#45;0]delivery_choice:[ns&#45;0]delivery_choice&#45;&gt;#option([ns&#45;0]delivery_choice, [ns&#45;0]finish_fake_delivery, fake):#option([ns&#45;0]delivery_choice, [ns&#45;0]finish_fake_delivery, fake)</title>
<path fill="none" stroke="black" stroke-dasharray="1,5" d="M937.2,-585.94C893.55,-573.06 826.78,-553.37 779.93,-539.55"/>
</g>
<!-- #option([ns&#45;0]delivery_choice, [ns&#45;0]dummy_state, dummy_lie) -->
<g id="node13" class="node">
<title>#option([ns&#45;0]delivery_choice, [ns&#45;0]dummy_state, dummy_lie)</title>
<polygon fill="#ffffff" stroke="transparent" points="952.5,-515.5 952.5,-528.5 1011.5,-528.5 1011.5,-515.5 952.5,-515.5"/>
<text text-anchor="start" x="953.5" y="-519.5" font-family="Times,serif" font-size="10.00">dummy_lie</text>
</g>
<!-- [ns&#45;0]delivery_choice&#45;&gt;#option([ns&#45;0]delivery_choice, [ns&#45;0]dummy_state, dummy_lie) -->
<g id="edge5" class="edge">
<title>[ns&#45;0]delivery_choice:[ns&#45;0]delivery_choice&#45;&gt;#option([ns&#45;0]delivery_choice, [ns&#45;0]dummy_state, dummy_lie):#option([ns&#45;0]delivery_choice, [ns&#45;0]dummy_state, dummy_lie)</title>
<path fill="none" stroke="black" stroke-dasharray="1,5" d="M981.5,-585.85C981.5,-569.12 981.5,-540.97 981.5,-529.07"/>
</g>
<!-- #option([ns&#45;0]delivery_choice, [ns&#45;0]finish_delivery, delivery) -->
<g id="node15" class="node">
<title>#option([ns&#45;0]delivery_choice, [ns&#45;0]finish_delivery, delivery)</title>
<polygon fill="#ffffff" stroke="transparent" points="1174.5,-528.5 1174.5,-541.5 1301.5,-541.5 1301.5,-528.5 1174.5,-528.5"/>
<text text-anchor="start" x="1175.5" y="-532.5" font-family="Times,serif" font-size="10.00">delivery</text>
<polygon fill="#aadddd" stroke="transparent" points="1174.5,-515.5 1174.5,-528.5 1301.5,-528.5 1301.5,-515.5 1174.5,-515.5"/>
<text text-anchor="start" x="1175.5" y="-519.5" font-family="Times,serif" font-size="10.00">[honor]</text>
<polygon fill="#eeeeee" stroke="transparent" points="1174.5,-502.5 1174.5,-515.5 1301.5,-515.5 1301.5,-502.5 1174.5,-502.5"/>
<text text-anchor="start" x="1175.5" y="-507.5" font-family="Times,serif" font-weight="bold" font-size="10.00">message:</text>
<text text-anchor="start" x="1227.5" y="-507.5" font-family="Times,serif" font-size="10.00"> start_delivery</text>
</g>
<!-- [ns&#45;0]delivery_choice&#45;&gt;#option([ns&#45;0]delivery_choice, [ns&#45;0]finish_delivery, delivery) -->
<g id="edge10" class="edge">
<title>[ns&#45;0]delivery_choice:[ns&#45;0]delivery_choice&#45;&gt;#option([ns&#45;0]delivery_choice, [ns&#45;0]finish_delivery, delivery):#option([ns&#45;0]delivery_choice, [ns&#45;0]finish_delivery, delivery)</title>
<path fill="none" stroke="black" stroke-dasharray="1,5" d="M1025.8,-585.94C1066.87,-573.82 1128.42,-555.67 1174.58,-542.06"/>
</g>
<!-- #option([ns&#45;0]delivery_choice, [ns&#45;0]delivery_stealed, delivery) -->
<g id="node16" class="node">
<title>#option([ns&#45;0]delivery_choice, [ns&#45;0]delivery_stealed, delivery)</title>
<polygon fill="#ffffff" stroke="transparent" points="1508.5,-528.5 1508.5,-541.5 1635.5,-541.5 1635.5,-528.5 1508.5,-528.5"/>
<text text-anchor="start" x="1509.5" y="-532.5" font-family="Times,serif" font-size="10.00">delivery</text>
<polygon fill="#aadddd" stroke="transparent" points="1508.5,-515.5 1508.5,-528.5 1635.5,-528.5 1635.5,-515.5 1508.5,-515.5"/>
<text text-anchor="start" x="1509.5" y="-519.5" font-family="Times,serif" font-size="10.00">[honor]</text>
<polygon fill="#eeeeee" stroke="transparent" points="1508.5,-502.5 1508.5,-515.5 1635.5,-515.5 1635.5,-502.5 1508.5,-502.5"/>
<text text-anchor="start" x="1509.5" y="-507.5" font-family="Times,serif" font-weight="bold" font-size="10.00">message:</text>
<text text-anchor="start" x="1561.5" y="-507.5" font-family="Times,serif" font-size="10.00"> start_delivery</text>
</g>
<!-- [ns&#45;0]delivery_choice&#45;&gt;#option([ns&#45;0]delivery_choice, [ns&#45;0]delivery_stealed, delivery) -->
<g id="edge12" class="edge">
<title>[ns&#45;0]delivery_choice:[ns&#45;0]delivery_choice&#45;&gt;#option([ns&#45;0]delivery_choice, [ns&#45;0]delivery_stealed, delivery):#option([ns&#45;0]delivery_choice, [ns&#45;0]delivery_stealed, delivery)</title>
<path fill="none" stroke="black" stroke-dasharray="1,5" d="M1046.61,-590.67C1160.64,-576.08 1395.08,-546.08 1507.98,-531.63"/>
</g>
<!-- [ns&#45;0]finish_fake_delivery -->
<g id="node9" class="node">
<title>[ns&#45;0]finish_fake_delivery</title>
<polygon fill="#eeeeee" stroke="transparent" points="390.5,-350 390.5,-456 784.5,-456 784.5,-350 390.5,-350"/>
<text text-anchor="start" x="392.5" y="-447" font-family="Times,serif" font-style="italic" font-size="10.00">[ns&#45;0]finish_fake_delivery</text>
<text text-anchor="start" x="392.5" y="-433" font-family="Times,serif" font-size="10.00">Forge the letter</text>
<polygon fill="#dddddd" stroke="transparent" points="391.5,-416 391.5,-429 783.5,-429 783.5,-416 391.5,-416"/>
<text text-anchor="start" x="392.5" y="-421" font-family="Times,serif" font-size="10.00">hero </text>
<text text-anchor="start" x="419.5" y="-421" font-family="Times,serif" font-weight="bold" font-size="10.00">is located in</text>
<text text-anchor="start" x="489.5" y="-421" font-family="Times,serif" font-size="10.00"> place_10</text>
<polygon fill="#ffffff" stroke="transparent" points="391.5,-403 391.5,-416 783.5,-416 783.5,-403 391.5,-403"/>
<text text-anchor="start" x="392.5" y="-408" font-family="Times,serif" font-weight="bold" font-size="10.00">give reward to </text>
<text text-anchor="start" x="476.5" y="-408" font-family="Times,serif" font-size="10.00">  hero </text>
<text text-anchor="start" x="509.5" y="-408" font-family="Times,serif" font-weight="bold" font-size="10.00">of type </text>
<text text-anchor="start" x="552.5" y="-408" font-family="Times,serif" font-size="10.00"> finish_fake_delivery </text>
<text text-anchor="start" x="661.5" y="-408" font-family="Times,serif" font-weight="bold" font-size="10.00">in the amount of</text>
<text text-anchor="start" x="757.5" y="-408" font-family="Times,serif" font-size="10.00"> 2.00</text>
<polygon fill="#eeeeee" stroke="transparent" points="391.5,-390 391.5,-403 783.5,-403 783.5,-390 391.5,-390"/>
<text text-anchor="start" x="392.5" y="-395" font-family="Times,serif" font-weight="bold" font-size="10.00">results:</text>
<text text-anchor="start" x="392.5" y="-382" font-family="Times,serif" font-weight="bold" font-size="10.00">person_1</text>
<text text-anchor="start" x="635.5" y="-381" font-family="Times,serif" font-size="10.00">failed</text>
<text text-anchor="start" x="392.5" y="-369" font-family="Times,serif" font-weight="bold" font-size="10.00">person_10</text>
<text text-anchor="start" x="635.5" y="-368" font-family="Times,serif" font-size="10.00">failed</text>
<text text-anchor="start" x="392.5" y="-356" font-family="Times,serif" font-weight="bold" font-size="10.00">person_3</text>
<text text-anchor="start" x="635.5" y="-355" font-family="Times,serif" font-size="10.00">neutral</text>
<polygon fill="none" stroke="black" points="390.5,-350 390.5,-456 784.5,-456 784.5,-350 390.5,-350"/>
</g>
<!-- [ns&#45;0]finish_delivery -->
<g id="node10" class="node">
<title>[ns&#45;0]finish_delivery</title>
<polygon fill="#eeeeee" stroke="transparent" points="1184,-350 1184,-456 1551,-456 1551,-350 1184,-350"/>
<text text-anchor="start" x="1186.5" y="-447" font-family="Times,serif" font-style="italic" font-size="10.00">[ns&#45;0]finish_delivery</text>
<text text-anchor="start" x="1186.5" y="-433" font-family="Times,serif" font-size="10.00">Deliver the package to the recipient</text>
<polygon fill="#dddddd" stroke="transparent" points="1185.5,-416 1185.5,-429 1550.5,-429 1550.5,-416 1185.5,-416"/>
<text text-anchor="start" x="1186.5" y="-421" font-family="Times,serif" font-size="10.00">hero </text>
<text text-anchor="start" x="1213.5" y="-421" font-family="Times,serif" font-weight="bold" font-size="10.00">is located in</text>
<text text-anchor="start" x="1283.5" y="-421" font-family="Times,serif" font-size="10.00"> place_10</text>
<polygon fill="#ffffff" stroke="transparent" points="1185.5,-403 1185.5,-416 1550.5,-416 1550.5,-403 1185.5,-403"/>
<text text-anchor="start" x="1186.5" y="-408" font-family="Times,serif" font-weight="bold" font-size="10.00">give reward to </text>
<text text-anchor="start" x="1270.5" y="-408" font-family="Times,serif" font-size="10.00">  hero </text>
<text text-anchor="start" x="1303.5" y="-408" font-family="Times,serif" font-weight="bold" font-size="10.00">of type </text>
<text text-anchor="start" x="1346.5" y="-408" font-family="Times,serif" font-size="10.00"> finish_delivery </text>
<text text-anchor="start" x="1428.5" y="-408" font-family="Times,serif" font-weight="bold" font-size="10.00">in the amount of</text>
<text text-anchor="start" x="1524.5" y="-408" font-family="Times,serif" font-size="10.00"> 1.00</text>
<polygon fill="#eeeeee" stroke="transparent" points="1185.5,-390 1185.5,-403 1550.5,-403 1550.5,-390 1185.5,-390"/>
<text text-anchor="start" x="1186.5" y="-395" font-family="Times,serif" font-weight="bold" font-size="10.00">results:</text>
<text text-anchor="start" x="1186.5" y="-382" font-family="Times,serif" font-weight="bold" font-size="10.00">person_1</text>
<text text-anchor="start" x="1395.5" y="-381" font-family="Times,serif" font-size="10.00">successed</text>
<text text-anchor="start" x="1186.5" y="-369" font-family="Times,serif" font-weight="bold" font-size="10.00">person_10</text>
<text text-anchor="start" x="1395.5" y="-368" font-family="Times,serif" font-size="10.00">successed</text>
<text text-anchor="start" x="1186.5" y="-356" font-family="Times,serif" font-weight="bold" font-size="10.00">person_3</text>
<text text-anchor="start" x="1395.5" y="-355" font-family="Times,serif" font-size="10.00">neutral</text>
<polygon fill="none" stroke="black" points="1184,-350 1184,-456 1551,-456 1551,-350 1184,-350"/>
</g>
<!-- #option([ns&#45;0]delivery_choice, [ns&#45;0]finish_steal, steal)&#45;&gt;[ns&#45;0]finish_steal -->
<g id="edge2" class="edge">
<title>#option([ns&#45;0]delivery_choice, [ns&#45;0]finish_steal, steal):#option([ns&#45;0]delivery_choice, [ns&#45;0]finish_steal, steal)&#45;&gt;[ns&#45;0]finish_steal:[ns&#45;0]finish_steal</title>
<path fill="none" stroke="black" stroke-dasharray="1,5" d="M400.29,-502.87C390.35,-499.07 380.06,-495.01 370.5,-491 347.91,-481.53 324.03,-470.94 301.14,-460.5"/>
<polygon fill="black" stroke="black" points="302.3,-457.18 291.75,-456.2 299.38,-463.54 302.3,-457.18"/>
</g>
<!-- #option([ns&#45;0]delivery_choice, [ns&#45;0]finish_fake_delivery, fake)&#45;&gt;[ns&#45;0]finish_fake_delivery -->
<g id="edge4" class="edge">
<title>#option([ns&#45;0]delivery_choice, [ns&#45;0]finish_fake_delivery, fake):#option([ns&#45;0]delivery_choice, [ns&#45;0]finish_fake_delivery, fake)&#45;&gt;[ns&#45;0]finish_fake_delivery:[ns&#45;0]finish_fake_delivery</title>
<path fill="none" stroke="black" stroke-dasharray="1,5" d="M703.63,-502.88C690.72,-491.88 673.58,-477.29 656.44,-462.7"/>
<polygon fill="black" stroke="black" points="658.47,-459.83 648.58,-456.01 653.93,-465.16 658.47,-459.83"/>
</g>
<!-- #option([ns&#45;0]delivery_choice, [ns&#45;0]dummy_state, dummy_lie)&#45;&gt;[ns&#45;0]dummy_state -->
<g id="edge6" class="edge">
<title>#option([ns&#45;0]delivery_choice, [ns&#45;0]dummy_state, dummy_lie):#option([ns&#45;0]delivery_choice, [ns&#45;0]dummy_state, dummy_lie)&#45;&gt;[ns&#45;0]dummy_state:[ns&#45;0]dummy_state</title>
<path fill="none" stroke="black" stroke-dasharray="1,5" d="M981.5,-515.83C981.5,-504.44 981.5,-477.76 981.5,-453.32"/>
<polygon fill="black" stroke="black" points="985,-453.03 981.5,-443.03 978,-453.03 985,-453.03"/>
</g>
<!-- #answer(False, [ns&#45;0]fight_for_stealed, [ns&#45;0]finish_fight_for_stealed__hero_died)&#45;&gt;[ns&#45;0]finish_fight_for_stealed__hero_died -->
<g id="edge8" class="edge">
<title>#answer(False, [ns&#45;0]fight_for_stealed, [ns&#45;0]finish_fight_for_stealed__hero_died):#answer(False, [ns&#45;0]fight_for_stealed, [ns&#45;0]finish_fight_for_stealed__hero_died)&#45;&gt;[ns&#45;0]finish_fight_for_stealed__hero_died:[ns&#45;0]finish_fight_for_stealed__hero_died</title>
<path fill="none" stroke="black" d="M1676,-161.44C1666.46,-151.82 1645.95,-131.12 1625.76,-110.74"/>
<polygon fill="black" stroke="black" points="1628.17,-108.2 1618.65,-103.56 1623.2,-113.13 1628.17,-108.2"/>
</g>
<!-- #option([ns&#45;0]delivery_choice, [ns&#45;0]finish_delivery, delivery)&#45;&gt;[ns&#45;0]finish_delivery -->
<g id="edge11" class="edge">
<title>#option([ns&#45;0]delivery_choice, [ns&#45;0]finish_delivery, delivery):#option([ns&#45;0]delivery_choice, [ns&#45;0]finish_delivery, delivery)&#45;&gt;[ns&#45;0]finish_delivery:[ns&#45;0]finish_delivery</title>
<path fill="none" stroke="black" stroke-dasharray="1,5" d="M1258.1,-502.88C1270.16,-491.98 1286.12,-477.55 1302.12,-463.09"/>
<polygon fill="black" stroke="black" points="1304.88,-465.31 1309.96,-456.01 1300.19,-460.12 1304.88,-465.31"/>
</g>
<!-- #option([ns&#45;0]delivery_choice, [ns&#45;0]delivery_stealed, delivery)&#45;&gt;[ns&#45;0]delivery_stealed -->
<g id="edge13" class="edge">
<title>#option([ns&#45;0]delivery_choice, [ns&#45;0]delivery_stealed, delivery):#option([ns&#45;0]delivery_choice, [ns&#45;0]delivery_stealed, delivery)&#45;&gt;[ns&#45;0]delivery_stealed:[ns&#45;0]delivery_stealed</title>
<path fill="none" stroke="black" stroke-dasharray="1,5" d="M1599.07,-502.88C1623.16,-486.62 1658.89,-462.49 1689.02,-442.14"/>
<polygon fill="black" stroke="black" points="1691.03,-445 1697.36,-436.51 1687.11,-439.2 1691.03,-445"/>
</g>
<!-- #answer(True, [ns&#45;0]fight_for_stealed, [ns&#45;0]finish_fight_for_stealed__delivery)&#45;&gt;[ns&#45;0]finish_fight_for_stealed__delivery -->
<g id="edge16" class="edge">
<title>#answer(True, [ns&#45;0]fight_for_stealed, [ns&#45;0]finish_fight_for_stealed__delivery):#answer(True, [ns&#45;0]fight_for_stealed, [ns&#45;0]finish_fight_for_stealed__delivery)&#45;&gt;[ns&#45;0]finish_fight_for_stealed__delivery:[ns&#45;0]finish_fight_for_stealed__delivery</title>
<path fill="none" stroke="black" d="M1869.6,-154.92C1874.16,-145.87 1880.79,-132.74 1887.7,-119.05"/>
<polygon fill="black" stroke="black" points="1890.88,-120.51 1892.26,-110.01 1884.63,-117.36 1890.88,-120.51"/>
</g>
</g>
</svg>
