<?xml version="1.0" encoding="UTF-8" standalone="no"?>
<!DOCTYPE svg PUBLIC "-//W3C//DTD SVG 1.1//EN"
 "http://www.w3.org/Graphics/SVG/1.1/DTD/svg11.dtd">
<!-- Generated by graphviz version 2.34.0 (20130907.0221)
 -->
<!-- Title: quest Pages: 1 -->
<svg width="1630pt" height="784pt"
 viewBox="0.00 0.00 1630.00 784.00" xmlns="http://www.w3.org/2000/svg" xmlns:xlink="http://www.w3.org/1999/xlink">
<g id="graph0" class="graph" transform="scale(1 1) rotate(0) translate(4 780)">
<title>quest</title>
<polygon fill="white" stroke="white" points="-4,4 -4,-780 1626,-780 1626,4 -4,4"/>
<g id="clust2" class="cluster"><title>cluster_[ns&#45;0]delivery_variants</title>
<polygon fill="#ffffdd" stroke="black" points="140,-374 140,-555 679,-555 679,-374 140,-374"/>
<text text-anchor="middle" x="409.5" y="-539.8" font-family="Times,serif" font-size="14.00">cluster_[ns&#45;0]delivery_variants</text>
</g>
<g id="clust1" class="cluster"><title>cluster_[ns&#45;0]lie_variants</title>
<polygon fill="#ffffdd" stroke="black" points="959,-374 959,-555 1614,-555 1614,-374 959,-374"/>
<text text-anchor="middle" x="1286.5" y="-539.8" font-family="Times,serif" font-size="14.00">cluster_[ns&#45;0]lie_variants</text>
</g>
<!-- [ns&#45;0]finish_steal -->
<g id="node1" class="node"><title>[ns&#45;0]finish_steal</title>
<polygon fill="#eeeeee" stroke="none" points="696.5,-380 696.5,-526 941.5,-526 941.5,-380 696.5,-380"/>
<text text-anchor="start" x="699" y="-516.5" font-family="Times,serif" font-style="italic" font-size="10.00">[ns&#45;0]finish_steal</text>
<text text-anchor="start" x="699" y="-502" font-family="Times,serif" font-size="10.00">Доставить посылку скупщику</text>
<polygon fill="#dddddd" stroke="none" points="698,-485 698,-498 941,-498 941,-485 698,-485"/>
<text text-anchor="start" x="699" y="-490" font-family="Times,serif" font-size="10.00">hero </text>
<text text-anchor="start" x="720" y="-490" font-family="Times,serif" font-weight="bold" font-size="10.00">находится в</text>
<text text-anchor="start" x="775" y="-490" font-family="Times,serif" font-size="10.00"> place_5</text>
<polygon fill="#ffffff" stroke="none" points="698,-472 698,-485 941,-485 941,-472 698,-472"/>
<text text-anchor="start" x="699" y="-477" font-family="Times,serif" font-weight="bold" font-size="10.00">выдать награду </text>
<text text-anchor="start" x="774" y="-477" font-family="Times,serif" font-size="10.00">  hero </text>
<text text-anchor="start" x="799" y="-477" font-family="Times,serif" font-weight="bold" font-size="10.00">типа </text>
<text text-anchor="start" x="823" y="-477" font-family="Times,serif" font-size="10.00"> finish_steal </text>
<text text-anchor="start" x="875" y="-477" font-family="Times,serif" font-weight="bold" font-size="10.00">в размере</text>
<text text-anchor="start" x="918" y="-477" font-family="Times,serif" font-size="10.00"> 1.50</text>
<polygon fill="#ffffff" stroke="none" points="698,-459 698,-472 941,-472 941,-459 698,-459"/>
<text text-anchor="start" x="699" y="-464" font-family="Times,serif" font-weight="bold" font-size="10.00">увеличить влияние </text>
<text text-anchor="start" x="787" y="-464" font-family="Times,serif" font-size="10.00">  person_1 </text>
<text text-anchor="start" x="832" y="-464" font-family="Times,serif" font-weight="bold" font-size="10.00">на </text>
<text text-anchor="start" x="845" y="-464" font-family="Times,serif" font-size="10.00"> &#45;1.50</text>
<polygon fill="#ffffff" stroke="none" points="698,-446 698,-459 941,-459 941,-446 698,-446"/>
<text text-anchor="start" x="699" y="-451" font-family="Times,serif" font-weight="bold" font-size="10.00">увеличить влияние </text>
<text text-anchor="start" x="787" y="-451" font-family="Times,serif" font-size="10.00">  person_3 </text>
<text text-anchor="start" x="832" y="-451" font-family="Times,serif" font-weight="bold" font-size="10.00">на </text>
<text text-anchor="start" x="845" y="-451" font-family="Times,serif" font-size="10.00"> &#45;1.50</text>
<polygon fill="#ffffff" stroke="none" points="698,-433 698,-446 941,-446 941,-433 698,-433"/>
<text text-anchor="start" x="699" y="-438" font-family="Times,serif" font-weight="bold" font-size="10.00">увеличить влияние </text>
<text text-anchor="start" x="787" y="-438" font-family="Times,serif" font-size="10.00">  person_5 </text>
<text text-anchor="start" x="832" y="-438" font-family="Times,serif" font-weight="bold" font-size="10.00">на </text>
<text text-anchor="start" x="845" y="-438" font-family="Times,serif" font-size="10.00"> 1.00</text>
<polygon fill="#eeeeee" stroke="none" points="698,-420 698,-433 941,-433 941,-420 698,-420"/>
<text text-anchor="start" x="699" y="-425" font-family="Times,serif" font-weight="bold" font-size="10.00">результаты:</text>
<text text-anchor="start" x="699" y="-412" font-family="Times,serif" font-weight="bold" font-size="10.00">person_1</text>
<text text-anchor="start" x="821" y="-411" font-family="Times,serif" font-size="10.00">failed</text>
<text text-anchor="start" x="699" y="-399" font-family="Times,serif" font-weight="bold" font-size="10.00">person_3</text>
<text text-anchor="start" x="821" y="-398" font-family="Times,serif" font-size="10.00">failed</text>
<text text-anchor="start" x="699" y="-386" font-family="Times,serif" font-weight="bold" font-size="10.00">person_5</text>
<text text-anchor="start" x="821" y="-385" font-family="Times,serif" font-size="10.00">successed</text>
<polygon fill="none" stroke="black" points="696.5,-380 696.5,-526 941.5,-526 941.5,-380 696.5,-380"/>
</g>
<!-- [ns&#45;0]start -->
<g id="node2" class="node"><title>[ns&#45;0]start</title>
<polygon fill="#eeeeee" stroke="none" points="760.5,-716.5 760.5,-771.5 877.5,-771.5 877.5,-716.5 760.5,-716.5"/>
<text text-anchor="start" x="763" y="-761.5" font-family="Times,serif" font-style="italic" font-size="10.00">[ns&#45;0]start</text>
<text text-anchor="start" x="830.5" y="-761.5" font-family="Times,serif" font-weight="bold" font-size="10.00">delivery</text>
<text text-anchor="start" x="763" y="-747" font-family="Times,serif" font-size="10.00">Начало: доставка</text>
<polygon fill="#dddddd" stroke="none" points="762,-730 762,-743 877,-743 877,-730 762,-730"/>
<text text-anchor="start" x="763" y="-735" font-family="Times,serif" font-size="10.00">hero </text>
<text text-anchor="start" x="784" y="-735" font-family="Times,serif" font-weight="bold" font-size="10.00">находится в</text>
<text text-anchor="start" x="839" y="-735" font-family="Times,serif" font-size="10.00"> place_1</text>
<polygon fill="#ffffff" stroke="none" points="762,-717 762,-730 877,-730 877,-717 762,-717"/>
<text text-anchor="start" x="763" y="-722" font-family="Times,serif" font-weight="bold" font-size="10.00">сообщение:</text>
<text text-anchor="start" x="815" y="-722" font-family="Times,serif" font-size="10.00"> intro</text>
<polygon fill="none" stroke="black" points="760.5,-716.5 760.5,-771.5 877.5,-771.5 877.5,-716.5 760.5,-716.5"/>
</g>
<!-- [ns&#45;0]delivery_choice -->
<g id="node7" class="node"><title>[ns&#45;0]delivery_choice</title>
<polygon fill="#ddddff" stroke="none" points="747,-642.5 747,-671.5 891,-671.5 891,-642.5 747,-642.5"/>
<text text-anchor="start" x="749" y="-661.5" font-family="Times,serif" font-style="italic" font-size="10.00">[ns&#45;0]delivery_choice</text>
<text text-anchor="start" x="749" y="-647" font-family="Times,serif" font-size="10.00">Решение: доставить или украсть</text>
<polygon fill="none" stroke="black" points="747,-642.5 747,-671.5 891,-671.5 891,-642.5 747,-642.5"/>
</g>
<!-- [ns&#45;0]start&#45;&gt;[ns&#45;0]delivery_choice -->
<g id="edge7" class="edge"><title>[ns&#45;0]start:[ns&#45;0]start&#45;&gt;[ns&#45;0]delivery_choice:[ns&#45;0]delivery_choice</title>
<path fill="none" stroke="black" d="M819,-716.105C819,-705.132 819,-692.546 819,-681.9"/>
<polygon fill="black" stroke="black" points="822.5,-681.657 819,-671.657 815.5,-681.657 822.5,-681.657"/>
</g>
<!-- [ns&#45;0]finish_fight_for_stealed__delivery -->
<g id="node3" class="node"><title>[ns&#45;0]finish_fight_for_stealed__delivery</title>
<polygon fill="#eeeeee" stroke="none" points="328.5,-4.5 328.5,-137.5 631.5,-137.5 631.5,-4.5 328.5,-4.5"/>
<text text-anchor="start" x="331" y="-127.5" font-family="Times,serif" font-style="italic" font-size="10.00">[ns&#45;0]finish_fight_for_stealed__delivery</text>
<text text-anchor="start" x="331" y="-113" font-family="Times,serif" font-size="10.00">Доставить посылку получателю</text>
<polygon fill="#dddddd" stroke="none" points="330,-96 330,-109 631,-109 631,-96 330,-96"/>
<text text-anchor="start" x="331" y="-101" font-family="Times,serif" font-size="10.00">hero </text>
<text text-anchor="start" x="352" y="-101" font-family="Times,serif" font-weight="bold" font-size="10.00">находится в</text>
<text text-anchor="start" x="407" y="-101" font-family="Times,serif" font-size="10.00"> place_3</text>
<polygon fill="#ffffff" stroke="none" points="330,-83 330,-96 631,-96 631,-83 330,-83"/>
<text text-anchor="start" x="331" y="-88" font-family="Times,serif" font-weight="bold" font-size="10.00">выдать награду </text>
<text text-anchor="start" x="406" y="-88" font-family="Times,serif" font-size="10.00">  hero </text>
<text text-anchor="start" x="431" y="-88" font-family="Times,serif" font-weight="bold" font-size="10.00">типа </text>
<text text-anchor="start" x="455" y="-88" font-family="Times,serif" font-size="10.00"> finish_delivery </text>
<text text-anchor="start" x="522" y="-88" font-family="Times,serif" font-weight="bold" font-size="10.00">в размере</text>
<text text-anchor="start" x="565" y="-88" font-family="Times,serif" font-size="10.00"> 1.00</text>
<polygon fill="#ffffff" stroke="none" points="330,-70 330,-83 631,-83 631,-70 330,-70"/>
<text text-anchor="start" x="331" y="-75" font-family="Times,serif" font-weight="bold" font-size="10.00">увеличить влияние </text>
<text text-anchor="start" x="419" y="-75" font-family="Times,serif" font-size="10.00">  person_1 </text>
<text text-anchor="start" x="464" y="-75" font-family="Times,serif" font-weight="bold" font-size="10.00">на </text>
<text text-anchor="start" x="477" y="-75" font-family="Times,serif" font-size="10.00"> 1.00</text>
<polygon fill="#ffffff" stroke="none" points="330,-57 330,-70 631,-70 631,-57 330,-57"/>
<text text-anchor="start" x="331" y="-62" font-family="Times,serif" font-weight="bold" font-size="10.00">увеличить влияние </text>
<text text-anchor="start" x="419" y="-62" font-family="Times,serif" font-size="10.00">  person_3 </text>
<text text-anchor="start" x="464" y="-62" font-family="Times,serif" font-weight="bold" font-size="10.00">на </text>
<text text-anchor="start" x="477" y="-62" font-family="Times,serif" font-size="10.00"> 1.00</text>
<polygon fill="#eeeeee" stroke="none" points="330,-44 330,-57 631,-57 631,-44 330,-44"/>
<text text-anchor="start" x="331" y="-49" font-family="Times,serif" font-weight="bold" font-size="10.00">результаты:</text>
<text text-anchor="start" x="331" y="-36" font-family="Times,serif" font-weight="bold" font-size="10.00">person_1</text>
<text text-anchor="start" x="503" y="-35" font-family="Times,serif" font-size="10.00">successed</text>
<text text-anchor="start" x="331" y="-23" font-family="Times,serif" font-weight="bold" font-size="10.00">person_3</text>
<text text-anchor="start" x="503" y="-22" font-family="Times,serif" font-size="10.00">successed</text>
<text text-anchor="start" x="331" y="-10" font-family="Times,serif" font-weight="bold" font-size="10.00">person_5</text>
<text text-anchor="start" x="503" y="-9" font-family="Times,serif" font-size="10.00">neutral</text>
<polygon fill="none" stroke="black" points="328.5,-4.5 328.5,-137.5 631.5,-137.5 631.5,-4.5 328.5,-4.5"/>
</g>
<!-- [ns&#45;0]delivery_stealed -->
<g id="node4" class="node"><title>[ns&#45;0]delivery_stealed</title>
<polygon fill="#ddffdd" stroke="none" points="156.5,-419 156.5,-487 367.5,-487 367.5,-419 156.5,-419"/>
<text text-anchor="start" x="159" y="-477.5" font-family="Times,serif" font-style="italic" font-size="10.00">[ns&#45;0]delivery_stealed</text>
<text text-anchor="start" x="159" y="-463" font-family="Times,serif" font-size="10.00">письмо украдено</text>
<polygon fill="#cceecc" stroke="none" points="158,-446 158,-459 367,-459 367,-446 158,-446"/>
<text text-anchor="start" x="159" y="-451" font-family="Times,serif" font-size="10.00">hero </text>
<text text-anchor="start" x="180" y="-451" font-family="Times,serif" font-weight="bold" font-size="10.00">прошёл</text>
<text text-anchor="start" x="214" y="-451" font-family="Times,serif" font-size="10.00"> 68%</text>
<text text-anchor="start" x="236" y="-451" font-family="Times,serif" font-weight="bold" font-size="10.00"> дороги от</text>
<text text-anchor="start" x="282" y="-451" font-family="Times,serif" font-size="10.00"> place_1 </text>
<text text-anchor="start" x="319" y="-451" font-family="Times,serif" font-weight="bold" font-size="10.00">до</text>
<text text-anchor="start" x="330" y="-451" font-family="Times,serif" font-size="10.00"> place_3</text>
<polygon fill="#eeffee" stroke="none" points="158,-433 158,-446 367,-446 367,-433 158,-433"/>
<text text-anchor="start" x="159" y="-438" font-family="Times,serif" font-weight="bold" font-size="10.00">сообщение:</text>
<text text-anchor="start" x="211" y="-438" font-family="Times,serif" font-size="10.00"> delivery_stealed</text>
<polygon fill="#eeffee" stroke="none" points="158,-420 158,-433 367,-433 367,-420 158,-420"/>
<text text-anchor="start" x="159" y="-425" font-family="Times,serif" font-weight="bold" font-size="10.00">отправить </text>
<text text-anchor="start" x="209" y="-425" font-family="Times,serif" font-size="10.00"> hero</text>
<text text-anchor="start" x="230" y="-425" font-family="Times,serif" font-weight="bold" font-size="10.00">бродить в округе</text>
<polygon fill="none" stroke="black" points="156.5,-419 156.5,-487 367.5,-487 367.5,-419 156.5,-419"/>
</g>
<!-- [ns&#45;0]fight_for_stealed -->
<g id="node5" class="node"><title>[ns&#45;0]fight_for_stealed</title>
<polygon fill="#ffdddd" stroke="none" points="184.5,-254.5 184.5,-335.5 339.5,-335.5 339.5,-254.5 184.5,-254.5"/>
<text text-anchor="start" x="187" y="-325.5" font-family="Times,serif" font-style="italic" font-size="10.00">[ns&#45;0]fight_for_stealed</text>
<text text-anchor="start" x="187" y="-311" font-family="Times,serif" font-size="10.00">Сразиться с вором</text>
<polygon fill="#ffeeee" stroke="none" points="186,-294 186,-307 339,-307 339,-294 186,-294"/>
<text text-anchor="start" x="187" y="-299" font-family="Times,serif" font-weight="bold" font-size="10.00">сообщение:</text>
<text text-anchor="start" x="239" y="-299" font-family="Times,serif" font-size="10.00"> fight_thief</text>
<polygon fill="#ffeeee" stroke="none" points="186,-281 186,-294 339,-294 339,-281 186,-281"/>
<text text-anchor="start" x="187" y="-286" font-family="Times,serif" font-weight="bold" font-size="10.00">сразиться с наёмником</text>
<polygon fill="#ffdddd" stroke="none" points="186,-268 186,-281 339,-281 339,-268 186,-268"/>
<text text-anchor="start" x="187" y="-273" font-family="Times,serif" font-weight="bold" font-size="10.00">условия:</text>
<text text-anchor="start" x="187" y="-260" font-family="Times,serif" font-weight="bold" font-size="10.00">если </text>
<polygon fill="#ffdddd" stroke="none" points="286,-255 286,-268 339,-268 339,-255 286,-255"/>
<text text-anchor="start" x="287" y="-260" font-family="Times,serif" font-size="10.00">hero </text>
<text text-anchor="start" x="308" y="-260" font-family="Times,serif" font-weight="bold" font-size="10.00">жив</text>
<polygon fill="none" stroke="black" points="184.5,-254.5 184.5,-335.5 339.5,-335.5 339.5,-254.5 184.5,-254.5"/>
</g>
<!-- [ns&#45;0]delivery_stealed&#45;&gt;[ns&#45;0]fight_for_stealed -->
<g id="edge14" class="edge"><title>[ns&#45;0]delivery_stealed:[ns&#45;0]delivery_stealed&#45;&gt;[ns&#45;0]fight_for_stealed:[ns&#45;0]fight_for_stealed</title>
<path fill="none" stroke="black" d="M262,-418.916C262,-397.725 262,-369.824 262,-345.962"/>
<polygon fill="black" stroke="black" points="265.5,-345.668 262,-335.668 258.5,-345.668 265.5,-345.668"/>
</g>
<!-- #answer(False, [ns&#45;0]fight_for_stealed, [ns&#45;0]finish_fight_for_stealed__hero_died) -->
<g id="node11" class="node"><title>#answer(False, [ns&#45;0]fight_for_stealed, [ns&#45;0]finish_fight_for_stealed__hero_died)</title>
<polygon fill="#ffffff" stroke="none" points="187,-189 187,-203 220,-203 220,-189 187,-189"/>
<text text-anchor="start" x="188" y="-193.5" font-family="Times,serif" font-size="10.00">ЛОЖЬ</text>
</g>
<!-- [ns&#45;0]fight_for_stealed&#45;&gt;#answer(False, [ns&#45;0]fight_for_stealed, [ns&#45;0]finish_fight_for_stealed__hero_died) -->
<g id="edge1" class="edge"><title>[ns&#45;0]fight_for_stealed:[ns&#45;0]fight_for_stealed&#45;&gt;#answer(False, [ns&#45;0]fight_for_stealed, [ns&#45;0]finish_fight_for_stealed__hero_died):#answer(False, [ns&#45;0]fight_for_stealed, [ns&#45;0]finish_fight_for_stealed__hero_died)</title>
<path fill="none" stroke="black" d="M237.832,-254.267C225.994,-234.803 212.97,-213.392 206.733,-203.138"/>
</g>
<!-- #answer(True, [ns&#45;0]fight_for_stealed, [ns&#45;0]finish_fight_for_stealed__delivery) -->
<g id="node13" class="node"><title>#answer(True, [ns&#45;0]fight_for_stealed, [ns&#45;0]finish_fight_for_stealed__delivery)</title>
<polygon fill="#ffffff" stroke="none" points="362,-195 362,-209 493,-209 493,-195 362,-195"/>
<text text-anchor="start" x="363" y="-199.5" font-family="Times,serif" font-size="10.00">ИСТИНА</text>
<polygon fill="#eeeeee" stroke="none" points="362,-182 362,-195 493,-195 493,-182 362,-182"/>
<text text-anchor="start" x="363" y="-187" font-family="Times,serif" font-weight="bold" font-size="10.00">сообщение:</text>
<text text-anchor="start" x="415" y="-187" font-family="Times,serif" font-size="10.00"> delivery_returned</text>
</g>
<!-- [ns&#45;0]fight_for_stealed&#45;&gt;#answer(True, [ns&#45;0]fight_for_stealed, [ns&#45;0]finish_fight_for_stealed__delivery) -->
<g id="edge5" class="edge"><title>[ns&#45;0]fight_for_stealed:[ns&#45;0]fight_for_stealed&#45;&gt;#answer(True, [ns&#45;0]fight_for_stealed, [ns&#45;0]finish_fight_for_stealed__delivery):#answer(True, [ns&#45;0]fight_for_stealed, [ns&#45;0]finish_fight_for_stealed__delivery)</title>
<path fill="none" stroke="black" d="M329.588,-254.267C356.821,-238.257 386.297,-220.928 405.608,-209.576"/>
</g>
<!-- [ns&#45;0]finish_fight_for_stealed__hero_died -->
<g id="node6" class="node"><title>[ns&#45;0]finish_fight_for_stealed__hero_died</title>
<polygon fill="#eeeeee" stroke="none" points="7.5,-24 7.5,-118 294.5,-118 294.5,-24 7.5,-24"/>
<text text-anchor="start" x="10" y="-108.5" font-family="Times,serif" font-style="italic" font-size="10.00">[ns&#45;0]finish_fight_for_stealed__hero_died</text>
<text text-anchor="start" x="10" y="-94" font-family="Times,serif" font-size="10.00">Герой не смог вернуть украденное письмо</text>
<polygon fill="#ffffff" stroke="none" points="9,-77 9,-90 294,-90 294,-77 9,-77"/>
<text text-anchor="start" x="10" y="-82" font-family="Times,serif" font-weight="bold" font-size="10.00">сообщение:</text>
<text text-anchor="start" x="62" y="-82" font-family="Times,serif" font-size="10.00"> finish_fight_for_stealed__hero_died</text>
<polygon fill="#eeeeee" stroke="none" points="9,-64 9,-77 294,-77 294,-64 9,-64"/>
<text text-anchor="start" x="10" y="-69" font-family="Times,serif" font-weight="bold" font-size="10.00">результаты:</text>
<text text-anchor="start" x="10" y="-56" font-family="Times,serif" font-weight="bold" font-size="10.00">person_1</text>
<text text-anchor="start" x="191" y="-55" font-family="Times,serif" font-size="10.00">neutral</text>
<text text-anchor="start" x="10" y="-43" font-family="Times,serif" font-weight="bold" font-size="10.00">person_3</text>
<text text-anchor="start" x="191" y="-42" font-family="Times,serif" font-size="10.00">neutral</text>
<text text-anchor="start" x="10" y="-30" font-family="Times,serif" font-weight="bold" font-size="10.00">person_5</text>
<text text-anchor="start" x="191" y="-29" font-family="Times,serif" font-size="10.00">neutral</text>
<polygon fill="none" stroke="black" points="7.5,-24 7.5,-118 294.5,-118 294.5,-24 7.5,-24"/>
</g>
<!-- #option([ns&#45;0]delivery_choice, [ns&#45;0]delivery_stealed, delivery) -->
<g id="node12" class="node"><title>#option([ns&#45;0]delivery_choice, [ns&#45;0]delivery_stealed, delivery)</title>
<polygon fill="#ffffff" stroke="none" points="272,-583 272,-597 386,-597 386,-583 272,-583"/>
<text text-anchor="start" x="273" y="-587.5" font-family="Times,serif" font-size="10.00">delivery</text>
<polygon fill="#eeeeee" stroke="none" points="272,-570 272,-583 386,-583 386,-570 272,-570"/>
<text text-anchor="start" x="273" y="-575" font-family="Times,serif" font-weight="bold" font-size="10.00">сообщение:</text>
<text text-anchor="start" x="325" y="-575" font-family="Times,serif" font-size="10.00"> start_delivery</text>
</g>
<!-- [ns&#45;0]delivery_choice&#45;&gt;#option([ns&#45;0]delivery_choice, [ns&#45;0]delivery_stealed, delivery) -->
<g id="edge3" class="edge"><title>[ns&#45;0]delivery_choice:[ns&#45;0]delivery_choice&#45;&gt;#option([ns&#45;0]delivery_choice, [ns&#45;0]delivery_stealed, delivery):#option([ns&#45;0]delivery_choice, [ns&#45;0]delivery_stealed, delivery)</title>
<path fill="none" stroke="black" stroke-dasharray="1,5" d="M746.962,-645.562C649.067,-631.377 475.976,-606.297 386.356,-593.311"/>
</g>
<!-- #option([ns&#45;0]delivery_choice, [ns&#45;0]finish_delivery, delivery) -->
<g id="node14" class="node"><title>#option([ns&#45;0]delivery_choice, [ns&#45;0]finish_delivery, delivery)</title>
<polygon fill="#ffffff" stroke="none" points="554,-583 554,-597 668,-597 668,-583 554,-583"/>
<text text-anchor="start" x="555" y="-587.5" font-family="Times,serif" font-size="10.00">delivery</text>
<polygon fill="#eeeeee" stroke="none" points="554,-570 554,-583 668,-583 668,-570 554,-570"/>
<text text-anchor="start" x="555" y="-575" font-family="Times,serif" font-weight="bold" font-size="10.00">сообщение:</text>
<text text-anchor="start" x="607" y="-575" font-family="Times,serif" font-size="10.00"> start_delivery</text>
</g>
<!-- [ns&#45;0]delivery_choice&#45;&gt;#option([ns&#45;0]delivery_choice, [ns&#45;0]finish_delivery, delivery) -->
<g id="edge8" class="edge"><title>[ns&#45;0]delivery_choice:[ns&#45;0]delivery_choice&#45;&gt;#option([ns&#45;0]delivery_choice, [ns&#45;0]finish_delivery, delivery):#option([ns&#45;0]delivery_choice, [ns&#45;0]finish_delivery, delivery)</title>
<path fill="none" stroke="black" stroke-dasharray="1,5" d="M779.387,-642.478C741.433,-629.523 684.617,-610.129 647.676,-597.519"/>
</g>
<!-- #option([ns&#45;0]delivery_choice, [ns&#45;0]finish_steal, steal) -->
<g id="node15" class="node"><title>#option([ns&#45;0]delivery_choice, [ns&#45;0]finish_steal, steal)</title>
<polygon fill="#ffffff" stroke="none" points="770,-583 770,-597 869,-597 869,-583 770,-583"/>
<text text-anchor="start" x="771" y="-587.5" font-family="Times,serif" font-size="10.00">steal</text>
<polygon fill="#eeeeee" stroke="none" points="770,-570 770,-583 869,-583 869,-570 770,-570"/>
<text text-anchor="start" x="771" y="-575" font-family="Times,serif" font-weight="bold" font-size="10.00">сообщение:</text>
<text text-anchor="start" x="823" y="-575" font-family="Times,serif" font-size="10.00"> start_steal</text>
</g>
<!-- [ns&#45;0]delivery_choice&#45;&gt;#option([ns&#45;0]delivery_choice, [ns&#45;0]finish_steal, steal) -->
<g id="edge10" class="edge"><title>[ns&#45;0]delivery_choice:[ns&#45;0]delivery_choice&#45;&gt;#option([ns&#45;0]delivery_choice, [ns&#45;0]finish_steal, steal):#option([ns&#45;0]delivery_choice, [ns&#45;0]finish_steal, steal)</title>
<path fill="none" stroke="black" stroke-dasharray="1,5" d="M819,-642.31C819,-629.416 819,-610.252 819,-597.693"/>
</g>
<!-- #option([ns&#45;0]delivery_choice, [ns&#45;0]dummy_state, dummy_lie) -->
<g id="node16" class="node"><title>#option([ns&#45;0]delivery_choice, [ns&#45;0]dummy_state, dummy_lie)</title>
<polygon fill="#ffffff" stroke="none" points="1003,-577 1003,-591 1053,-591 1053,-577 1003,-577"/>
<text text-anchor="start" x="1004" y="-581.5" font-family="Times,serif" font-size="10.00">dummy_lie</text>
</g>
<!-- [ns&#45;0]delivery_choice&#45;&gt;#option([ns&#45;0]delivery_choice, [ns&#45;0]dummy_state, dummy_lie) -->
<g id="edge12" class="edge"><title>[ns&#45;0]delivery_choice:[ns&#45;0]delivery_choice&#45;&gt;#option([ns&#45;0]delivery_choice, [ns&#45;0]dummy_state, dummy_lie):#option([ns&#45;0]delivery_choice, [ns&#45;0]dummy_state, dummy_lie)</title>
<path fill="none" stroke="black" stroke-dasharray="1,5" d="M858.803,-642.478C904.283,-627.028 976.716,-602.422 1010.09,-591.084"/>
</g>
<!-- #option([ns&#45;0]delivery_choice, [ns&#45;0]finish_fake_delivery, fake) -->
<g id="node17" class="node"><title>#option([ns&#45;0]delivery_choice, [ns&#45;0]finish_fake_delivery, fake)</title>
<polygon fill="#ffffff" stroke="none" points="1247,-583 1247,-597 1345,-597 1345,-583 1247,-583"/>
<text text-anchor="start" x="1248" y="-587.5" font-family="Times,serif" font-size="10.00">fake</text>
<polygon fill="#eeeeee" stroke="none" points="1247,-570 1247,-583 1345,-583 1345,-570 1247,-570"/>
<text text-anchor="start" x="1248" y="-575" font-family="Times,serif" font-weight="bold" font-size="10.00">сообщение:</text>
<text text-anchor="start" x="1300" y="-575" font-family="Times,serif" font-size="10.00"> start_fake</text>
</g>
<!-- [ns&#45;0]delivery_choice&#45;&gt;#option([ns&#45;0]delivery_choice, [ns&#45;0]finish_fake_delivery, fake) -->
<g id="edge15" class="edge"><title>[ns&#45;0]delivery_choice:[ns&#45;0]delivery_choice&#45;&gt;#option([ns&#45;0]delivery_choice, [ns&#45;0]finish_fake_delivery, fake):#option([ns&#45;0]delivery_choice, [ns&#45;0]finish_fake_delivery, fake)</title>
<path fill="none" stroke="black" stroke-dasharray="1,5" d="M891.187,-645.255C989.374,-630.64 1162.45,-604.879 1246.89,-592.31"/>
</g>
<!-- [ns&#45;0]finish_fake_delivery -->
<g id="node8" class="node"><title>[ns&#45;0]finish_fake_delivery</title>
<polygon fill="#eeeeee" stroke="none" points="1314.5,-386.5 1314.5,-519.5 1597.5,-519.5 1597.5,-386.5 1314.5,-386.5"/>
<text text-anchor="start" x="1317" y="-509.5" font-family="Times,serif" font-style="italic" font-size="10.00">[ns&#45;0]finish_fake_delivery</text>
<text text-anchor="start" x="1317" y="-495" font-family="Times,serif" font-size="10.00">Подделать письмо</text>
<polygon fill="#dddddd" stroke="none" points="1316,-478 1316,-491 1597,-491 1597,-478 1316,-478"/>
<text text-anchor="start" x="1317" y="-483" font-family="Times,serif" font-size="10.00">hero </text>
<text text-anchor="start" x="1338" y="-483" font-family="Times,serif" font-weight="bold" font-size="10.00">находится в</text>
<text text-anchor="start" x="1393" y="-483" font-family="Times,serif" font-size="10.00"> place_3</text>
<polygon fill="#ffffff" stroke="none" points="1316,-465 1316,-478 1597,-478 1597,-465 1316,-465"/>
<text text-anchor="start" x="1317" y="-470" font-family="Times,serif" font-weight="bold" font-size="10.00">выдать награду </text>
<text text-anchor="start" x="1392" y="-470" font-family="Times,serif" font-size="10.00">  hero </text>
<text text-anchor="start" x="1417" y="-470" font-family="Times,serif" font-weight="bold" font-size="10.00">типа </text>
<text text-anchor="start" x="1441" y="-470" font-family="Times,serif" font-size="10.00"> finish_fake_delivery </text>
<text text-anchor="start" x="1531" y="-470" font-family="Times,serif" font-weight="bold" font-size="10.00">в размере</text>
<text text-anchor="start" x="1574" y="-470" font-family="Times,serif" font-size="10.00"> 2.00</text>
<polygon fill="#ffffff" stroke="none" points="1316,-452 1316,-465 1597,-465 1597,-452 1316,-452"/>
<text text-anchor="start" x="1317" y="-457" font-family="Times,serif" font-weight="bold" font-size="10.00">увеличить влияние </text>
<text text-anchor="start" x="1405" y="-457" font-family="Times,serif" font-size="10.00">  person_1 </text>
<text text-anchor="start" x="1450" y="-457" font-family="Times,serif" font-weight="bold" font-size="10.00">на </text>
<text text-anchor="start" x="1463" y="-457" font-family="Times,serif" font-size="10.00"> &#45;1.00</text>
<polygon fill="#ffffff" stroke="none" points="1316,-439 1316,-452 1597,-452 1597,-439 1316,-439"/>
<text text-anchor="start" x="1317" y="-444" font-family="Times,serif" font-weight="bold" font-size="10.00">увеличить влияние </text>
<text text-anchor="start" x="1405" y="-444" font-family="Times,serif" font-size="10.00">  person_3 </text>
<text text-anchor="start" x="1450" y="-444" font-family="Times,serif" font-weight="bold" font-size="10.00">на </text>
<text text-anchor="start" x="1463" y="-444" font-family="Times,serif" font-size="10.00"> &#45;1.00</text>
<polygon fill="#eeeeee" stroke="none" points="1316,-426 1316,-439 1597,-439 1597,-426 1316,-426"/>
<text text-anchor="start" x="1317" y="-431" font-family="Times,serif" font-weight="bold" font-size="10.00">результаты:</text>
<text text-anchor="start" x="1317" y="-418" font-family="Times,serif" font-weight="bold" font-size="10.00">person_1</text>
<text text-anchor="start" x="1458" y="-417" font-family="Times,serif" font-size="10.00">failed</text>
<text text-anchor="start" x="1317" y="-405" font-family="Times,serif" font-weight="bold" font-size="10.00">person_3</text>
<text text-anchor="start" x="1458" y="-404" font-family="Times,serif" font-size="10.00">failed</text>
<text text-anchor="start" x="1317" y="-392" font-family="Times,serif" font-weight="bold" font-size="10.00">person_5</text>
<text text-anchor="start" x="1458" y="-391" font-family="Times,serif" font-size="10.00">neutral</text>
<polygon fill="none" stroke="black" points="1314.5,-386.5 1314.5,-519.5 1597.5,-519.5 1597.5,-386.5 1314.5,-386.5"/>
</g>
<!-- [ns&#45;0]finish_delivery -->
<g id="node9" class="node"><title>[ns&#45;0]finish_delivery</title>
<polygon fill="#eeeeee" stroke="none" points="401.5,-386.5 401.5,-519.5 662.5,-519.5 662.5,-386.5 401.5,-386.5"/>
<text text-anchor="start" x="404" y="-509.5" font-family="Times,serif" font-style="italic" font-size="10.00">[ns&#45;0]finish_delivery</text>
<text text-anchor="start" x="404" y="-495" font-family="Times,serif" font-size="10.00">Доставить посылку получателю</text>
<polygon fill="#dddddd" stroke="none" points="403,-478 403,-491 662,-491 662,-478 403,-478"/>
<text text-anchor="start" x="404" y="-483" font-family="Times,serif" font-size="10.00">hero </text>
<text text-anchor="start" x="425" y="-483" font-family="Times,serif" font-weight="bold" font-size="10.00">находится в</text>
<text text-anchor="start" x="480" y="-483" font-family="Times,serif" font-size="10.00"> place_3</text>
<polygon fill="#ffffff" stroke="none" points="403,-465 403,-478 662,-478 662,-465 403,-465"/>
<text text-anchor="start" x="404" y="-470" font-family="Times,serif" font-weight="bold" font-size="10.00">выдать награду </text>
<text text-anchor="start" x="479" y="-470" font-family="Times,serif" font-size="10.00">  hero </text>
<text text-anchor="start" x="504" y="-470" font-family="Times,serif" font-weight="bold" font-size="10.00">типа </text>
<text text-anchor="start" x="528" y="-470" font-family="Times,serif" font-size="10.00"> finish_delivery </text>
<text text-anchor="start" x="595" y="-470" font-family="Times,serif" font-weight="bold" font-size="10.00">в размере</text>
<text text-anchor="start" x="638" y="-470" font-family="Times,serif" font-size="10.00"> 1.00</text>
<polygon fill="#ffffff" stroke="none" points="403,-452 403,-465 662,-465 662,-452 403,-452"/>
<text text-anchor="start" x="404" y="-457" font-family="Times,serif" font-weight="bold" font-size="10.00">увеличить влияние </text>
<text text-anchor="start" x="492" y="-457" font-family="Times,serif" font-size="10.00">  person_1 </text>
<text text-anchor="start" x="537" y="-457" font-family="Times,serif" font-weight="bold" font-size="10.00">на </text>
<text text-anchor="start" x="550" y="-457" font-family="Times,serif" font-size="10.00"> 1.00</text>
<polygon fill="#ffffff" stroke="none" points="403,-439 403,-452 662,-452 662,-439 403,-439"/>
<text text-anchor="start" x="404" y="-444" font-family="Times,serif" font-weight="bold" font-size="10.00">увеличить влияние </text>
<text text-anchor="start" x="492" y="-444" font-family="Times,serif" font-size="10.00">  person_3 </text>
<text text-anchor="start" x="537" y="-444" font-family="Times,serif" font-weight="bold" font-size="10.00">на </text>
<text text-anchor="start" x="550" y="-444" font-family="Times,serif" font-size="10.00"> 1.00</text>
<polygon fill="#eeeeee" stroke="none" points="403,-426 403,-439 662,-439 662,-426 403,-426"/>
<text text-anchor="start" x="404" y="-431" font-family="Times,serif" font-weight="bold" font-size="10.00">результаты:</text>
<text text-anchor="start" x="404" y="-418" font-family="Times,serif" font-weight="bold" font-size="10.00">person_1</text>
<text text-anchor="start" x="534" y="-417" font-family="Times,serif" font-size="10.00">successed</text>
<text text-anchor="start" x="404" y="-405" font-family="Times,serif" font-weight="bold" font-size="10.00">person_3</text>
<text text-anchor="start" x="534" y="-404" font-family="Times,serif" font-size="10.00">successed</text>
<text text-anchor="start" x="404" y="-392" font-family="Times,serif" font-weight="bold" font-size="10.00">person_5</text>
<text text-anchor="start" x="534" y="-391" font-family="Times,serif" font-size="10.00">neutral</text>
<polygon fill="none" stroke="black" points="401.5,-386.5 401.5,-519.5 662.5,-519.5 662.5,-386.5 401.5,-386.5"/>
</g>
<!-- [ns&#45;0]dummy_state -->
<g id="node10" class="node"><title>[ns&#45;0]dummy_state</title>
<polygon fill="#eeeeee" stroke="none" points="975.5,-412.5 975.5,-493.5 1280.5,-493.5 1280.5,-412.5 975.5,-412.5"/>
<text text-anchor="start" x="978" y="-483.5" font-family="Times,serif" font-style="italic" font-size="10.00">[ns&#45;0]dummy_state</text>
<text text-anchor="start" x="978" y="-469" font-family="Times,serif" font-size="10.00">заглушка, чтобы можно было управлять появлением подделки письма</text>
<polygon fill="#eeeeee" stroke="none" points="977,-452 977,-465 1280,-465 1280,-452 977,-452"/>
<text text-anchor="start" x="978" y="-457" font-family="Times,serif" font-weight="bold" font-size="10.00">результаты:</text>
<text text-anchor="start" x="978" y="-444" font-family="Times,serif" font-weight="bold" font-size="10.00">person_1</text>
<text text-anchor="start" x="1130" y="-443" font-family="Times,serif" font-size="10.00">neutral</text>
<text text-anchor="start" x="978" y="-431" font-family="Times,serif" font-weight="bold" font-size="10.00">person_3</text>
<text text-anchor="start" x="1130" y="-430" font-family="Times,serif" font-size="10.00">neutral</text>
<text text-anchor="start" x="978" y="-418" font-family="Times,serif" font-weight="bold" font-size="10.00">person_5</text>
<text text-anchor="start" x="1130" y="-417" font-family="Times,serif" font-size="10.00">neutral</text>
<polygon fill="none" stroke="black" points="975.5,-412.5 975.5,-493.5 1280.5,-493.5 1280.5,-412.5 975.5,-412.5"/>
</g>
<!-- #answer(False, [ns&#45;0]fight_for_stealed, [ns&#45;0]finish_fight_for_stealed__hero_died)&#45;&gt;[ns&#45;0]finish_fight_for_stealed__hero_died -->
<g id="edge2" class="edge"><title>#answer(False, [ns&#45;0]fight_for_stealed, [ns&#45;0]finish_fight_for_stealed__hero_died):#answer(False, [ns&#45;0]fight_for_stealed, [ns&#45;0]finish_fight_for_stealed__hero_died)&#45;&gt;[ns&#45;0]finish_fight_for_stealed__hero_died:[ns&#45;0]finish_fight_for_stealed__hero_died</title>
<path fill="none" stroke="black" d="M200.35,-188.731C195.508,-177.278 184.788,-151.921 174.572,-127.756"/>
<polygon fill="black" stroke="black" points="177.663,-126.079 170.545,-118.231 171.215,-128.805 177.663,-126.079"/>
</g>
<!-- #option([ns&#45;0]delivery_choice, [ns&#45;0]delivery_stealed, delivery)&#45;&gt;[ns&#45;0]delivery_stealed -->
<g id="edge4" class="edge"><title>#option([ns&#45;0]delivery_choice, [ns&#45;0]delivery_stealed, delivery):#option([ns&#45;0]delivery_choice, [ns&#45;0]delivery_stealed, delivery)&#45;&gt;[ns&#45;0]delivery_stealed:[ns&#45;0]delivery_stealed</title>
<path fill="none" stroke="black" stroke-dasharray="1,5" d="M322.331,-570.159C313.458,-553.075 297.337,-522.036 283.99,-496.34"/>
<polygon fill="black" stroke="black" points="286.933,-494.411 279.217,-487.15 280.721,-497.638 286.933,-494.411"/>
</g>
<!-- #answer(True, [ns&#45;0]fight_for_stealed, [ns&#45;0]finish_fight_for_stealed__delivery)&#45;&gt;[ns&#45;0]finish_fight_for_stealed__delivery -->
<g id="edge6" class="edge"><title>#answer(True, [ns&#45;0]fight_for_stealed, [ns&#45;0]finish_fight_for_stealed__delivery):#answer(True, [ns&#45;0]fight_for_stealed, [ns&#45;0]finish_fight_for_stealed__delivery)&#45;&gt;[ns&#45;0]finish_fight_for_stealed__delivery:[ns&#45;0]finish_fight_for_stealed__delivery</title>
<path fill="none" stroke="black" d="M432.472,-182.3C436.297,-173.423 441.754,-160.76 447.615,-147.159"/>
<polygon fill="black" stroke="black" points="450.979,-148.196 451.722,-137.627 444.55,-145.426 450.979,-148.196"/>
</g>
<!-- #option([ns&#45;0]delivery_choice, [ns&#45;0]finish_delivery, delivery)&#45;&gt;[ns&#45;0]finish_delivery -->
<g id="edge9" class="edge"><title>#option([ns&#45;0]delivery_choice, [ns&#45;0]finish_delivery, delivery):#option([ns&#45;0]delivery_choice, [ns&#45;0]finish_delivery, delivery)&#45;&gt;[ns&#45;0]finish_delivery:[ns&#45;0]finish_delivery</title>
<path fill="none" stroke="black" stroke-dasharray="1,5" d="M603.136,-570.159C596.822,-559.848 587.394,-544.454 577.452,-528.219"/>
<polygon fill="black" stroke="black" points="580.427,-526.375 572.22,-519.675 574.457,-530.031 580.427,-526.375"/>
</g>
<!-- #option([ns&#45;0]delivery_choice, [ns&#45;0]finish_steal, steal)&#45;&gt;[ns&#45;0]finish_steal -->
<g id="edge11" class="edge"><title>#option([ns&#45;0]delivery_choice, [ns&#45;0]finish_steal, steal):#option([ns&#45;0]delivery_choice, [ns&#45;0]finish_steal, steal)&#45;&gt;[ns&#45;0]finish_steal:[ns&#45;0]finish_steal</title>
<path fill="none" stroke="black" stroke-dasharray="1,5" d="M819,-570.159C819,-561.577 819,-549.473 819,-536.294"/>
<polygon fill="black" stroke="black" points="822.5,-536.046 819,-526.046 815.5,-536.046 822.5,-536.046"/>
</g>
<!-- #option([ns&#45;0]delivery_choice, [ns&#45;0]dummy_state, dummy_lie)&#45;&gt;[ns&#45;0]dummy_state -->
<g id="edge13" class="edge"><title>#option([ns&#45;0]delivery_choice, [ns&#45;0]dummy_state, dummy_lie):#option([ns&#45;0]delivery_choice, [ns&#45;0]dummy_state, dummy_lie)&#45;&gt;[ns&#45;0]dummy_state:[ns&#45;0]dummy_state</title>
<path fill="none" stroke="black" stroke-dasharray="1,5" d="M1032.82,-576.778C1043.26,-563.311 1068.79,-530.385 1090.78,-502.018"/>
<polygon fill="black" stroke="black" points="1093.81,-503.821 1097.17,-493.773 1088.28,-499.532 1093.81,-503.821"/>
</g>
<!-- #option([ns&#45;0]delivery_choice, [ns&#45;0]finish_fake_delivery, fake)&#45;&gt;[ns&#45;0]finish_fake_delivery -->
<g id="edge16" class="edge"><title>#option([ns&#45;0]delivery_choice, [ns&#45;0]finish_fake_delivery, fake):#option([ns&#45;0]delivery_choice, [ns&#45;0]finish_fake_delivery, fake)&#45;&gt;[ns&#45;0]finish_fake_delivery:[ns&#45;0]finish_fake_delivery</title>
<path fill="none" stroke="black" stroke-dasharray="1,5" d="M1311.63,-570.396C1325.01,-559.611 1345.43,-543.145 1366.75,-525.962"/>
<polygon fill="black" stroke="black" points="1369.04,-528.609 1374.63,-519.608 1364.64,-523.16 1369.04,-528.609"/>
</g>
</g>
</svg>
