<?xml version="1.0" encoding="UTF-8" standalone="no"?>
<!DOCTYPE svg PUBLIC "-//W3C//DTD SVG 1.1//EN"
 "http://www.w3.org/Graphics/SVG/1.1/DTD/svg11.dtd">
<!-- Generated by graphviz version 2.38.0 (20140413.2041)
 -->
<!-- Title: quest Pages: 1 -->
<svg width="1482pt" height="724pt"
 viewBox="0.00 0.00 1482.00 724.00" xmlns="http://www.w3.org/2000/svg" xmlns:xlink="http://www.w3.org/1999/xlink">
<g id="graph0" class="graph" transform="scale(1 1) rotate(0) translate(4 720)">
<title>quest</title>
<polygon fill="white" stroke="none" points="-4,4 -4,-720 1478,-720 1478,4 -4,4"/>
<g id="clust2" class="cluster"><title>cluster_[ns&#45;0]delivery_variants</title>
<polygon fill="#ffffdd" stroke="black" points="668,-338 668,-491 1204,-491 1204,-338 668,-338"/>
<text text-anchor="middle" x="936" y="-475.8" font-family="Times,serif" font-size="14.00">cluster_[ns&#45;0]delivery_variants</text>
</g>
<g id="clust1" class="cluster"><title>cluster_[ns&#45;0]lie_variants</title>
<polygon fill="#ffffdd" stroke="black" points="8,-338 8,-491 660,-491 660,-338 8,-338"/>
<text text-anchor="middle" x="334" y="-475.8" font-family="Times,serif" font-size="14.00">cluster_[ns&#45;0]lie_variants</text>
</g>
<!-- [ns&#45;0]finish_steal -->
<g id="node1" class="node"><title>[ns&#45;0]finish_steal</title>
<polygon fill="#eeeeee" stroke="none" points="1222,-350 1222,-456 1466,-456 1466,-350 1222,-350"/>
<text text-anchor="start" x="1224" y="-447" font-family="Times,serif" font-style="italic" font-size="10.00">[ns&#45;0]finish_steal</text>
<text text-anchor="start" x="1224" y="-433" font-family="Times,serif" font-size="10.00">Доставить посылку скупщику</text>
<polygon fill="#dddddd" stroke="none" points="1223,-416 1223,-429 1465,-429 1465,-416 1223,-416"/>
<text text-anchor="start" x="1224" y="-421" font-family="Times,serif" font-size="10.00">hero </text>
<text text-anchor="start" x="1245" y="-421" font-family="Times,serif" font-weight="bold" font-size="10.00">находится в</text>
<text text-anchor="start" x="1300" y="-421" font-family="Times,serif" font-size="10.00"> place_3</text>
<polygon fill="#ffffff" stroke="none" points="1223,-403 1223,-416 1465,-416 1465,-403 1223,-403"/>
<text text-anchor="start" x="1224" y="-408" font-family="Times,serif" font-weight="bold" font-size="10.00">выдать награду </text>
<text text-anchor="start" x="1299" y="-408" font-family="Times,serif" font-size="10.00">  hero </text>
<text text-anchor="start" x="1324" y="-408" font-family="Times,serif" font-weight="bold" font-size="10.00">типа </text>
<text text-anchor="start" x="1348" y="-408" font-family="Times,serif" font-size="10.00"> finish_steal </text>
<text text-anchor="start" x="1400" y="-408" font-family="Times,serif" font-weight="bold" font-size="10.00">в размере</text>
<text text-anchor="start" x="1443" y="-408" font-family="Times,serif" font-size="10.00"> 1.50</text>
<polygon fill="#eeeeee" stroke="none" points="1223,-390 1223,-403 1465,-403 1465,-390 1223,-390"/>
<text text-anchor="start" x="1224" y="-395" font-family="Times,serif" font-weight="bold" font-size="10.00">результаты:</text>
<text text-anchor="start" x="1224" y="-382" font-family="Times,serif" font-weight="bold" font-size="10.00">person_1</text>
<text text-anchor="start" x="1361" y="-381" font-family="Times,serif" font-size="10.00">failed</text>
<text text-anchor="start" x="1224" y="-369" font-family="Times,serif" font-weight="bold" font-size="10.00">person_2</text>
<text text-anchor="start" x="1361" y="-368" font-family="Times,serif" font-size="10.00">failed</text>
<text text-anchor="start" x="1224" y="-356" font-family="Times,serif" font-weight="bold" font-size="10.00">person_3</text>
<text text-anchor="start" x="1361" y="-355" font-family="Times,serif" font-size="10.00">successed</text>
<polygon fill="none" stroke="black" points="1222,-350 1222,-456 1466,-456 1466,-350 1222,-350"/>
</g>
<!-- [ns&#45;0]start -->
<g id="node2" class="node"><title>[ns&#45;0]start</title>
<polygon fill="#eeeeee" stroke="none" points="731.5,-658 731.5,-712 846.5,-712 846.5,-658 731.5,-658"/>
<text text-anchor="start" x="734" y="-703" font-family="Times,serif" font-style="italic" font-size="10.00">[ns&#45;0]start</text>
<text text-anchor="start" x="801.5" y="-703" font-family="Times,serif" font-weight="bold" font-size="10.00">delivery</text>
<text text-anchor="start" x="734" y="-689" font-family="Times,serif" font-size="10.00">Начало: доставка</text>
<polygon fill="#dddddd" stroke="none" points="733,-672 733,-685 846,-685 846,-672 733,-672"/>
<text text-anchor="start" x="734" y="-677" font-family="Times,serif" font-size="10.00">hero </text>
<text text-anchor="start" x="755" y="-677" font-family="Times,serif" font-weight="bold" font-size="10.00">находится в</text>
<text text-anchor="start" x="810" y="-677" font-family="Times,serif" font-size="10.00"> place_1</text>
<polygon fill="#ffffff" stroke="none" points="733,-659 733,-672 846,-672 846,-659 733,-659"/>
<text text-anchor="start" x="734" y="-664" font-family="Times,serif" font-weight="bold" font-size="10.00">сообщение:</text>
<text text-anchor="start" x="786" y="-664" font-family="Times,serif" font-size="10.00"> intro</text>
<polygon fill="none" stroke="black" points="731.5,-658 731.5,-712 846.5,-712 846.5,-658 731.5,-658"/>
</g>
<!-- [ns&#45;0]delivery_choice -->
<g id="node7" class="node"><title>[ns&#45;0]delivery_choice</title>
<polygon fill="#ddddff" stroke="none" points="717.5,-586 717.5,-614 860.5,-614 860.5,-586 717.5,-586"/>
<text text-anchor="start" x="720" y="-605" font-family="Times,serif" font-style="italic" font-size="10.00">[ns&#45;0]delivery_choice</text>
<text text-anchor="start" x="720" y="-591" font-family="Times,serif" font-size="10.00">Решение: доставить или украсть</text>
<polygon fill="none" stroke="black" points="717.5,-586 717.5,-614 860.5,-614 860.5,-586 717.5,-586"/>
</g>
<!-- [ns&#45;0]start&#45;&gt;[ns&#45;0]delivery_choice -->
<g id="edge9" class="edge"><title>[ns&#45;0]start:[ns&#45;0]start&#45;&gt;[ns&#45;0]delivery_choice:[ns&#45;0]delivery_choice</title>
<path fill="none" stroke="black" d="M789,-657.738C789,-647.023 789,-634.733 789,-624.338"/>
<polygon fill="black" stroke="black" points="792.5,-624.335 789,-614.335 785.5,-624.335 792.5,-624.335"/>
</g>
<!-- [ns&#45;0]finish_fight_for_stealed__delivery -->
<g id="node3" class="node"><title>[ns&#45;0]finish_fight_for_stealed__delivery</title>
<polygon fill="#eeeeee" stroke="none" points="832.5,-4 832.5,-110 1091.5,-110 1091.5,-4 832.5,-4"/>
<text text-anchor="start" x="835" y="-101" font-family="Times,serif" font-style="italic" font-size="10.00">[ns&#45;0]finish_fight_for_stealed__delivery</text>
<text text-anchor="start" x="835" y="-87" font-family="Times,serif" font-size="10.00">Доставить посылку получателю</text>
<polygon fill="#dddddd" stroke="none" points="834,-70 834,-83 1091,-83 1091,-70 834,-70"/>
<text text-anchor="start" x="835" y="-75" font-family="Times,serif" font-size="10.00">hero </text>
<text text-anchor="start" x="856" y="-75" font-family="Times,serif" font-weight="bold" font-size="10.00">находится в</text>
<text text-anchor="start" x="911" y="-75" font-family="Times,serif" font-size="10.00"> place_2</text>
<polygon fill="#ffffff" stroke="none" points="834,-57 834,-70 1091,-70 1091,-57 834,-57"/>
<text text-anchor="start" x="835" y="-62" font-family="Times,serif" font-weight="bold" font-size="10.00">выдать награду </text>
<text text-anchor="start" x="910" y="-62" font-family="Times,serif" font-size="10.00">  hero </text>
<text text-anchor="start" x="935" y="-62" font-family="Times,serif" font-weight="bold" font-size="10.00">типа </text>
<text text-anchor="start" x="959" y="-62" font-family="Times,serif" font-size="10.00"> finish_delivery </text>
<text text-anchor="start" x="1026" y="-62" font-family="Times,serif" font-weight="bold" font-size="10.00">в размере</text>
<text text-anchor="start" x="1069" y="-62" font-family="Times,serif" font-size="10.00"> 1.00</text>
<polygon fill="#eeeeee" stroke="none" points="834,-44 834,-57 1091,-57 1091,-44 834,-44"/>
<text text-anchor="start" x="835" y="-49" font-family="Times,serif" font-weight="bold" font-size="10.00">результаты:</text>
<text text-anchor="start" x="835" y="-36" font-family="Times,serif" font-weight="bold" font-size="10.00">person_1</text>
<text text-anchor="start" x="1028" y="-35" font-family="Times,serif" font-size="10.00">successed</text>
<text text-anchor="start" x="835" y="-23" font-family="Times,serif" font-weight="bold" font-size="10.00">person_2</text>
<text text-anchor="start" x="1028" y="-22" font-family="Times,serif" font-size="10.00">successed</text>
<text text-anchor="start" x="835" y="-10" font-family="Times,serif" font-weight="bold" font-size="10.00">person_3</text>
<text text-anchor="start" x="1028" y="-9" font-family="Times,serif" font-size="10.00">neutral</text>
<polygon fill="none" stroke="black" points="832.5,-4 832.5,-110 1091.5,-110 1091.5,-4 832.5,-4"/>
</g>
<!-- [ns&#45;0]delivery_stealed -->
<g id="node4" class="node"><title>[ns&#45;0]delivery_stealed</title>
<polygon fill="#ddffdd" stroke="none" points="684,-369.5 684,-436.5 894,-436.5 894,-369.5 684,-369.5"/>
<text text-anchor="start" x="686" y="-427" font-family="Times,serif" font-style="italic" font-size="10.00">[ns&#45;0]delivery_stealed</text>
<text text-anchor="start" x="686" y="-413" font-family="Times,serif" font-size="10.00">письмо украдено</text>
<polygon fill="#cceecc" stroke="none" points="685,-396 685,-409 893,-409 893,-396 685,-396"/>
<text text-anchor="start" x="686" y="-401" font-family="Times,serif" font-size="10.00">hero </text>
<text text-anchor="start" x="707" y="-401" font-family="Times,serif" font-weight="bold" font-size="10.00">прошёл</text>
<text text-anchor="start" x="741" y="-401" font-family="Times,serif" font-size="10.00"> 81%</text>
<text text-anchor="start" x="763" y="-401" font-family="Times,serif" font-weight="bold" font-size="10.00"> дороги от</text>
<text text-anchor="start" x="809" y="-401" font-family="Times,serif" font-size="10.00"> place_1 </text>
<text text-anchor="start" x="846" y="-401" font-family="Times,serif" font-weight="bold" font-size="10.00">до</text>
<text text-anchor="start" x="857" y="-401" font-family="Times,serif" font-size="10.00"> place_2</text>
<polygon fill="#eeffee" stroke="none" points="685,-383 685,-396 893,-396 893,-383 685,-383"/>
<text text-anchor="start" x="686" y="-388" font-family="Times,serif" font-weight="bold" font-size="10.00">сообщение:</text>
<text text-anchor="start" x="738" y="-388" font-family="Times,serif" font-size="10.00"> delivery_stealed</text>
<polygon fill="#eeffee" stroke="none" points="685,-370 685,-383 893,-383 893,-370 685,-370"/>
<text text-anchor="start" x="686" y="-375" font-family="Times,serif" font-weight="bold" font-size="10.00">отправить </text>
<text text-anchor="start" x="736" y="-375" font-family="Times,serif" font-size="10.00"> hero</text>
<text text-anchor="start" x="757" y="-375" font-family="Times,serif" font-weight="bold" font-size="10.00">бродить в округе</text>
<polygon fill="none" stroke="black" points="684,-369.5 684,-436.5 894,-436.5 894,-369.5 684,-369.5"/>
</g>
<!-- [ns&#45;0]fight_for_stealed -->
<g id="node5" class="node"><title>[ns&#45;0]fight_for_stealed</title>
<polygon fill="#ffdddd" stroke="none" points="717.5,-226 717.5,-306 860.5,-306 860.5,-226 717.5,-226"/>
<text text-anchor="start" x="720" y="-297" font-family="Times,serif" font-style="italic" font-size="10.00">[ns&#45;0]fight_for_stealed</text>
<text text-anchor="start" x="720" y="-283" font-family="Times,serif" font-size="10.00">Сразиться с вором</text>
<polygon fill="#ffeeee" stroke="none" points="719,-266 719,-279 860,-279 860,-266 719,-266"/>
<text text-anchor="start" x="720" y="-271" font-family="Times,serif" font-weight="bold" font-size="10.00">сообщение:</text>
<text text-anchor="start" x="772" y="-271" font-family="Times,serif" font-size="10.00"> fight_thief</text>
<polygon fill="#ffeeee" stroke="none" points="719,-253 719,-266 860,-266 860,-253 719,-253"/>
<text text-anchor="start" x="720" y="-258" font-family="Times,serif" font-weight="bold" font-size="10.00">сразиться с наёмником</text>
<polygon fill="#ffdddd" stroke="none" points="719,-240 719,-253 860,-253 860,-240 719,-240"/>
<text text-anchor="start" x="720" y="-245" font-family="Times,serif" font-weight="bold" font-size="10.00">условия:</text>
<text text-anchor="start" x="720" y="-232" font-family="Times,serif" font-weight="bold" font-size="10.00">если </text>
<polygon fill="#ffdddd" stroke="none" points="818,-227 818,-240 860,-240 860,-227 818,-227"/>
<text text-anchor="start" x="819" y="-232" font-family="Times,serif" font-size="10.00">hero </text>
<text text-anchor="start" x="840" y="-232" font-family="Times,serif" font-weight="bold" font-size="10.00">жив</text>
<polygon fill="none" stroke="black" points="717.5,-226 717.5,-306 860.5,-306 860.5,-226 717.5,-226"/>
</g>
<!-- [ns&#45;0]delivery_stealed&#45;&gt;[ns&#45;0]fight_for_stealed -->
<g id="edge16" class="edge"><title>[ns&#45;0]delivery_stealed:[ns&#45;0]delivery_stealed&#45;&gt;[ns&#45;0]fight_for_stealed:[ns&#45;0]fight_for_stealed</title>
<path fill="none" stroke="black" d="M789,-369.32C789,-353.404 789,-333.93 789,-316.26"/>
<polygon fill="black" stroke="black" points="792.5,-316.104 789,-306.104 785.5,-316.104 792.5,-316.104"/>
</g>
<!-- #answer(False, [ns&#45;0]fight_for_stealed, [ns&#45;0]finish_fight_for_stealed__hero_died) -->
<g id="node11" class="node"><title>#answer(False, [ns&#45;0]fight_for_stealed, [ns&#45;0]finish_fight_for_stealed__hero_died)</title>
<polygon fill="#ffffff" stroke="none" points="714,-161 714,-174 746,-174 746,-161 714,-161"/>
<text text-anchor="start" x="715" y="-165" font-family="Times,serif" font-size="10.00">ЛОЖЬ</text>
</g>
<!-- [ns&#45;0]fight_for_stealed&#45;&gt;#answer(False, [ns&#45;0]fight_for_stealed, [ns&#45;0]finish_fight_for_stealed__hero_died) -->
<g id="edge1" class="edge"><title>[ns&#45;0]fight_for_stealed:[ns&#45;0]fight_for_stealed&#45;&gt;#answer(False, [ns&#45;0]fight_for_stealed, [ns&#45;0]finish_fight_for_stealed__hero_died):#answer(False, [ns&#45;0]fight_for_stealed, [ns&#45;0]finish_fight_for_stealed__hero_died)</title>
<path fill="none" stroke="black" d="M765.002,-225.953C753.007,-206.435 739.753,-184.869 733.558,-174.789"/>
</g>
<!-- #answer(True, [ns&#45;0]fight_for_stealed, [ns&#45;0]finish_fight_for_stealed__delivery) -->
<g id="node14" class="node"><title>#answer(True, [ns&#45;0]fight_for_stealed, [ns&#45;0]finish_fight_for_stealed__delivery)</title>
<polygon fill="#ffffff" stroke="none" points="859,-168 859,-181 989,-181 989,-168 859,-168"/>
<text text-anchor="start" x="860" y="-172" font-family="Times,serif" font-size="10.00">ИСТИНА</text>
<polygon fill="#eeeeee" stroke="none" points="859,-155 859,-168 989,-168 989,-155 859,-155"/>
<text text-anchor="start" x="860" y="-160" font-family="Times,serif" font-weight="bold" font-size="10.00">сообщение:</text>
<text text-anchor="start" x="912" y="-160" font-family="Times,serif" font-size="10.00"> delivery_returned</text>
</g>
<!-- [ns&#45;0]fight_for_stealed&#45;&gt;#answer(True, [ns&#45;0]fight_for_stealed, [ns&#45;0]finish_fight_for_stealed__delivery) -->
<g id="edge7" class="edge"><title>[ns&#45;0]fight_for_stealed:[ns&#45;0]fight_for_stealed&#45;&gt;#answer(True, [ns&#45;0]fight_for_stealed, [ns&#45;0]finish_fight_for_stealed__delivery):#answer(True, [ns&#45;0]fight_for_stealed, [ns&#45;0]finish_fight_for_stealed__delivery)</title>
<path fill="none" stroke="black" d="M843.91,-225.953C866.539,-209.861 891.126,-192.377 907.005,-181.086"/>
</g>
<!-- [ns&#45;0]finish_fight_for_stealed__hero_died -->
<g id="node6" class="node"><title>[ns&#45;0]finish_fight_for_stealed__hero_died</title>
<polygon fill="#eeeeee" stroke="none" points="585.5,-10.5 585.5,-103.5 798.5,-103.5 798.5,-10.5 585.5,-10.5"/>
<text text-anchor="start" x="588" y="-94" font-family="Times,serif" font-style="italic" font-size="10.00">[ns&#45;0]finish_fight_for_stealed__hero_died</text>
<text text-anchor="start" x="588" y="-80" font-family="Times,serif" font-size="10.00">Герой не смог вернуть украденное письмо</text>
<polygon fill="#ffffff" stroke="none" points="587,-63 587,-76 798,-76 798,-63 587,-63"/>
<text text-anchor="start" x="588" y="-68" font-family="Times,serif" font-weight="bold" font-size="10.00">сообщение:</text>
<text text-anchor="start" x="640" y="-68" font-family="Times,serif" font-size="10.00"> finish_fight_for_stealed__hero_died</text>
<polygon fill="#eeeeee" stroke="none" points="587,-50 587,-63 798,-63 798,-50 587,-50"/>
<text text-anchor="start" x="588" y="-55" font-family="Times,serif" font-weight="bold" font-size="10.00">результаты:</text>
<text text-anchor="start" x="588" y="-42" font-family="Times,serif" font-weight="bold" font-size="10.00">person_1</text>
<text text-anchor="start" x="768" y="-41" font-family="Times,serif" font-size="10.00">neutral</text>
<text text-anchor="start" x="588" y="-29" font-family="Times,serif" font-weight="bold" font-size="10.00">person_2</text>
<text text-anchor="start" x="768" y="-28" font-family="Times,serif" font-size="10.00">neutral</text>
<text text-anchor="start" x="588" y="-16" font-family="Times,serif" font-weight="bold" font-size="10.00">person_3</text>
<text text-anchor="start" x="768" y="-15" font-family="Times,serif" font-size="10.00">neutral</text>
<polygon fill="none" stroke="black" points="585.5,-10.5 585.5,-103.5 798.5,-103.5 798.5,-10.5 585.5,-10.5"/>
</g>
<!-- #option([ns&#45;0]delivery_choice, [ns&#45;0]finish_fake_delivery, fake) -->
<g id="node12" class="node"><title>#option([ns&#45;0]delivery_choice, [ns&#45;0]finish_fake_delivery, fake)</title>
<polygon fill="#ffffff" stroke="none" points="227,-528.5 227,-541.5 324,-541.5 324,-528.5 227,-528.5"/>
<text text-anchor="start" x="228" y="-532.5" font-family="Times,serif" font-size="10.00">fake</text>
<polygon fill="#aadddd" stroke="none" points="227,-515.5 227,-528.5 324,-528.5 324,-515.5 227,-515.5"/>
<text text-anchor="start" x="228" y="-519.5" font-family="Times,serif" font-size="10.00">[бесчестие]</text>
<polygon fill="#eeeeee" stroke="none" points="227,-502.5 227,-515.5 324,-515.5 324,-502.5 227,-502.5"/>
<text text-anchor="start" x="228" y="-507.5" font-family="Times,serif" font-weight="bold" font-size="10.00">сообщение:</text>
<text text-anchor="start" x="280" y="-507.5" font-family="Times,serif" font-size="10.00"> start_fake</text>
</g>
<!-- [ns&#45;0]delivery_choice&#45;&gt;#option([ns&#45;0]delivery_choice, [ns&#45;0]finish_fake_delivery, fake) -->
<g id="edge3" class="edge"><title>[ns&#45;0]delivery_choice:[ns&#45;0]delivery_choice&#45;&gt;#option([ns&#45;0]delivery_choice, [ns&#45;0]finish_fake_delivery, fake):#option([ns&#45;0]delivery_choice, [ns&#45;0]finish_fake_delivery, fake)</title>
<path fill="none" stroke="black" stroke-dasharray="1,5" d="M717.26,-588.462C610.974,-572.85 414.463,-543.985 323.515,-530.626"/>
</g>
<!-- #option([ns&#45;0]delivery_choice, [ns&#45;0]delivery_stealed, delivery) -->
<g id="node13" class="node"><title>#option([ns&#45;0]delivery_choice, [ns&#45;0]delivery_stealed, delivery)</title>
<polygon fill="#ffffff" stroke="none" points="733,-528.5 733,-541.5 846,-541.5 846,-528.5 733,-528.5"/>
<text text-anchor="start" x="734" y="-532.5" font-family="Times,serif" font-size="10.00">delivery</text>
<polygon fill="#aadddd" stroke="none" points="733,-515.5 733,-528.5 846,-528.5 846,-515.5 733,-515.5"/>
<text text-anchor="start" x="734" y="-519.5" font-family="Times,serif" font-size="10.00">[честь]</text>
<polygon fill="#eeeeee" stroke="none" points="733,-502.5 733,-515.5 846,-515.5 846,-502.5 733,-502.5"/>
<text text-anchor="start" x="734" y="-507.5" font-family="Times,serif" font-weight="bold" font-size="10.00">сообщение:</text>
<text text-anchor="start" x="786" y="-507.5" font-family="Times,serif" font-size="10.00"> start_delivery</text>
</g>
<!-- [ns&#45;0]delivery_choice&#45;&gt;#option([ns&#45;0]delivery_choice, [ns&#45;0]delivery_stealed, delivery) -->
<g id="edge5" class="edge"><title>[ns&#45;0]delivery_choice:[ns&#45;0]delivery_choice&#45;&gt;#option([ns&#45;0]delivery_choice, [ns&#45;0]delivery_stealed, delivery):#option([ns&#45;0]delivery_choice, [ns&#45;0]delivery_stealed, delivery)</title>
<path fill="none" stroke="black" stroke-dasharray="1,5" d="M789,-585.849C789,-573.766 789,-555.727 789,-542.157"/>
</g>
<!-- #option([ns&#45;0]delivery_choice, [ns&#45;0]finish_delivery, delivery) -->
<g id="node15" class="node"><title>#option([ns&#45;0]delivery_choice, [ns&#45;0]finish_delivery, delivery)</title>
<polygon fill="#ffffff" stroke="none" points="941,-528.5 941,-541.5 1054,-541.5 1054,-528.5 941,-528.5"/>
<text text-anchor="start" x="942" y="-532.5" font-family="Times,serif" font-size="10.00">delivery</text>
<polygon fill="#aadddd" stroke="none" points="941,-515.5 941,-528.5 1054,-528.5 1054,-515.5 941,-515.5"/>
<text text-anchor="start" x="942" y="-519.5" font-family="Times,serif" font-size="10.00">[честь]</text>
<polygon fill="#eeeeee" stroke="none" points="941,-502.5 941,-515.5 1054,-515.5 1054,-502.5 941,-502.5"/>
<text text-anchor="start" x="942" y="-507.5" font-family="Times,serif" font-weight="bold" font-size="10.00">сообщение:</text>
<text text-anchor="start" x="994" y="-507.5" font-family="Times,serif" font-size="10.00"> start_delivery</text>
</g>
<!-- [ns&#45;0]delivery_choice&#45;&gt;#option([ns&#45;0]delivery_choice, [ns&#45;0]finish_delivery, delivery) -->
<g id="edge10" class="edge"><title>[ns&#45;0]delivery_choice:[ns&#45;0]delivery_choice&#45;&gt;#option([ns&#45;0]delivery_choice, [ns&#45;0]finish_delivery, delivery):#option([ns&#45;0]delivery_choice, [ns&#45;0]finish_delivery, delivery)</title>
<path fill="none" stroke="black" stroke-dasharray="1,5" d="M825.231,-585.849C858.636,-573.724 908.563,-555.601 945.993,-542.015"/>
</g>
<!-- #option([ns&#45;0]delivery_choice, [ns&#45;0]finish_steal, steal) -->
<g id="node16" class="node"><title>#option([ns&#45;0]delivery_choice, [ns&#45;0]finish_steal, steal)</title>
<polygon fill="#ffffff" stroke="none" points="1191,-528.5 1191,-541.5 1289,-541.5 1289,-528.5 1191,-528.5"/>
<text text-anchor="start" x="1192" y="-532.5" font-family="Times,serif" font-size="10.00">steal</text>
<polygon fill="#aadddd" stroke="none" points="1191,-515.5 1191,-528.5 1289,-528.5 1289,-515.5 1191,-515.5"/>
<text text-anchor="start" x="1192" y="-519.5" font-family="Times,serif" font-size="10.00">[бесчестие]</text>
<polygon fill="#eeeeee" stroke="none" points="1191,-502.5 1191,-515.5 1289,-515.5 1289,-502.5 1191,-502.5"/>
<text text-anchor="start" x="1192" y="-507.5" font-family="Times,serif" font-weight="bold" font-size="10.00">сообщение:</text>
<text text-anchor="start" x="1244" y="-507.5" font-family="Times,serif" font-size="10.00"> start_steal</text>
</g>
<!-- [ns&#45;0]delivery_choice&#45;&gt;#option([ns&#45;0]delivery_choice, [ns&#45;0]finish_steal, steal) -->
<g id="edge12" class="edge"><title>[ns&#45;0]delivery_choice:[ns&#45;0]delivery_choice&#45;&gt;#option([ns&#45;0]delivery_choice, [ns&#45;0]finish_steal, steal):#option([ns&#45;0]delivery_choice, [ns&#45;0]finish_steal, steal)</title>
<path fill="none" stroke="black" stroke-dasharray="1,5" d="M860.961,-586.953C953.35,-571.487 1111.22,-545.058 1190.91,-531.718"/>
</g>
<!-- #option([ns&#45;0]delivery_choice, [ns&#45;0]dummy_state, dummy_lie) -->
<g id="node17" class="node"><title>#option([ns&#45;0]delivery_choice, [ns&#45;0]dummy_state, dummy_lie)</title>
<polygon fill="#ffffff" stroke="none" points="559,-515.5 559,-528.5 608,-528.5 608,-515.5 559,-515.5"/>
<text text-anchor="start" x="560" y="-519.5" font-family="Times,serif" font-size="10.00">dummy_lie</text>
</g>
<!-- [ns&#45;0]delivery_choice&#45;&gt;#option([ns&#45;0]delivery_choice, [ns&#45;0]dummy_state, dummy_lie) -->
<g id="edge14" class="edge"><title>[ns&#45;0]delivery_choice:[ns&#45;0]delivery_choice&#45;&gt;#option([ns&#45;0]delivery_choice, [ns&#45;0]dummy_state, dummy_lie):#option([ns&#45;0]delivery_choice, [ns&#45;0]dummy_state, dummy_lie)</title>
<path fill="none" stroke="black" stroke-dasharray="1,5" d="M753.118,-585.849C707.469,-569.118 630.668,-540.97 598.21,-529.075"/>
</g>
<!-- [ns&#45;0]finish_fake_delivery -->
<g id="node8" class="node"><title>[ns&#45;0]finish_fake_delivery</title>
<polygon fill="#eeeeee" stroke="none" points="24,-350 24,-456 306,-456 306,-350 24,-350"/>
<text text-anchor="start" x="26" y="-447" font-family="Times,serif" font-style="italic" font-size="10.00">[ns&#45;0]finish_fake_delivery</text>
<text text-anchor="start" x="26" y="-433" font-family="Times,serif" font-size="10.00">Подделать письмо</text>
<polygon fill="#dddddd" stroke="none" points="25,-416 25,-429 305,-429 305,-416 25,-416"/>
<text text-anchor="start" x="26" y="-421" font-family="Times,serif" font-size="10.00">hero </text>
<text text-anchor="start" x="47" y="-421" font-family="Times,serif" font-weight="bold" font-size="10.00">находится в</text>
<text text-anchor="start" x="102" y="-421" font-family="Times,serif" font-size="10.00"> place_2</text>
<polygon fill="#ffffff" stroke="none" points="25,-403 25,-416 305,-416 305,-403 25,-403"/>
<text text-anchor="start" x="26" y="-408" font-family="Times,serif" font-weight="bold" font-size="10.00">выдать награду </text>
<text text-anchor="start" x="101" y="-408" font-family="Times,serif" font-size="10.00">  hero </text>
<text text-anchor="start" x="126" y="-408" font-family="Times,serif" font-weight="bold" font-size="10.00">типа </text>
<text text-anchor="start" x="150" y="-408" font-family="Times,serif" font-size="10.00"> finish_fake_delivery </text>
<text text-anchor="start" x="240" y="-408" font-family="Times,serif" font-weight="bold" font-size="10.00">в размере</text>
<text text-anchor="start" x="283" y="-408" font-family="Times,serif" font-size="10.00"> 2.00</text>
<polygon fill="#eeeeee" stroke="none" points="25,-390 25,-403 305,-403 305,-390 25,-390"/>
<text text-anchor="start" x="26" y="-395" font-family="Times,serif" font-weight="bold" font-size="10.00">результаты:</text>
<text text-anchor="start" x="26" y="-382" font-family="Times,serif" font-weight="bold" font-size="10.00">person_1</text>
<text text-anchor="start" x="206" y="-381" font-family="Times,serif" font-size="10.00">failed</text>
<text text-anchor="start" x="26" y="-369" font-family="Times,serif" font-weight="bold" font-size="10.00">person_2</text>
<text text-anchor="start" x="206" y="-368" font-family="Times,serif" font-size="10.00">failed</text>
<text text-anchor="start" x="26" y="-356" font-family="Times,serif" font-weight="bold" font-size="10.00">person_3</text>
<text text-anchor="start" x="206" y="-355" font-family="Times,serif" font-size="10.00">neutral</text>
<polygon fill="none" stroke="black" points="24,-350 24,-456 306,-456 306,-350 24,-350"/>
</g>
<!-- [ns&#45;0]finish_delivery -->
<g id="node9" class="node"><title>[ns&#45;0]finish_delivery</title>
<polygon fill="#eeeeee" stroke="none" points="928.5,-350 928.5,-456 1187.5,-456 1187.5,-350 928.5,-350"/>
<text text-anchor="start" x="931" y="-447" font-family="Times,serif" font-style="italic" font-size="10.00">[ns&#45;0]finish_delivery</text>
<text text-anchor="start" x="931" y="-433" font-family="Times,serif" font-size="10.00">Доставить посылку получателю</text>
<polygon fill="#dddddd" stroke="none" points="930,-416 930,-429 1187,-429 1187,-416 930,-416"/>
<text text-anchor="start" x="931" y="-421" font-family="Times,serif" font-size="10.00">hero </text>
<text text-anchor="start" x="952" y="-421" font-family="Times,serif" font-weight="bold" font-size="10.00">находится в</text>
<text text-anchor="start" x="1007" y="-421" font-family="Times,serif" font-size="10.00"> place_2</text>
<polygon fill="#ffffff" stroke="none" points="930,-403 930,-416 1187,-416 1187,-403 930,-403"/>
<text text-anchor="start" x="931" y="-408" font-family="Times,serif" font-weight="bold" font-size="10.00">выдать награду </text>
<text text-anchor="start" x="1006" y="-408" font-family="Times,serif" font-size="10.00">  hero </text>
<text text-anchor="start" x="1031" y="-408" font-family="Times,serif" font-weight="bold" font-size="10.00">типа </text>
<text text-anchor="start" x="1055" y="-408" font-family="Times,serif" font-size="10.00"> finish_delivery </text>
<text text-anchor="start" x="1122" y="-408" font-family="Times,serif" font-weight="bold" font-size="10.00">в размере</text>
<text text-anchor="start" x="1165" y="-408" font-family="Times,serif" font-size="10.00"> 1.00</text>
<polygon fill="#eeeeee" stroke="none" points="930,-390 930,-403 1187,-403 1187,-390 930,-390"/>
<text text-anchor="start" x="931" y="-395" font-family="Times,serif" font-weight="bold" font-size="10.00">результаты:</text>
<text text-anchor="start" x="931" y="-382" font-family="Times,serif" font-weight="bold" font-size="10.00">person_1</text>
<text text-anchor="start" x="1083" y="-381" font-family="Times,serif" font-size="10.00">successed</text>
<text text-anchor="start" x="931" y="-369" font-family="Times,serif" font-weight="bold" font-size="10.00">person_2</text>
<text text-anchor="start" x="1083" y="-368" font-family="Times,serif" font-size="10.00">successed</text>
<text text-anchor="start" x="931" y="-356" font-family="Times,serif" font-weight="bold" font-size="10.00">person_3</text>
<text text-anchor="start" x="1083" y="-355" font-family="Times,serif" font-size="10.00">neutral</text>
<polygon fill="none" stroke="black" points="928.5,-350 928.5,-456 1187.5,-456 1187.5,-350 928.5,-350"/>
</g>
<!-- [ns&#45;0]dummy_state -->
<g id="node10" class="node"><title>[ns&#45;0]dummy_state</title>
<polygon fill="#eeeeee" stroke="none" points="340,-363 340,-443 644,-443 644,-363 340,-363"/>
<text text-anchor="start" x="342" y="-434" font-family="Times,serif" font-style="italic" font-size="10.00">[ns&#45;0]dummy_state</text>
<text text-anchor="start" x="342" y="-420" font-family="Times,serif" font-size="10.00">заглушка, чтобы можно было управлять появлением подделки письма</text>
<polygon fill="#eeeeee" stroke="none" points="341,-403 341,-416 643,-416 643,-403 341,-403"/>
<text text-anchor="start" x="342" y="-408" font-family="Times,serif" font-weight="bold" font-size="10.00">результаты:</text>
<text text-anchor="start" x="342" y="-395" font-family="Times,serif" font-weight="bold" font-size="10.00">person_1</text>
<text text-anchor="start" x="518" y="-394" font-family="Times,serif" font-size="10.00">neutral</text>
<text text-anchor="start" x="342" y="-382" font-family="Times,serif" font-weight="bold" font-size="10.00">person_2</text>
<text text-anchor="start" x="518" y="-381" font-family="Times,serif" font-size="10.00">neutral</text>
<text text-anchor="start" x="342" y="-369" font-family="Times,serif" font-weight="bold" font-size="10.00">person_3</text>
<text text-anchor="start" x="518" y="-368" font-family="Times,serif" font-size="10.00">neutral</text>
<polygon fill="none" stroke="black" points="340,-363 340,-443 644,-443 644,-363 340,-363"/>
</g>
<!-- #answer(False, [ns&#45;0]fight_for_stealed, [ns&#45;0]finish_fight_for_stealed__hero_died)&#45;&gt;[ns&#45;0]finish_fight_for_stealed__hero_died -->
<g id="edge2" class="edge"><title>#answer(False, [ns&#45;0]fight_for_stealed, [ns&#45;0]finish_fight_for_stealed__hero_died):#answer(False, [ns&#45;0]fight_for_stealed, [ns&#45;0]finish_fight_for_stealed__hero_died)&#45;&gt;[ns&#45;0]finish_fight_for_stealed__hero_died:[ns&#45;0]finish_fight_for_stealed__hero_died</title>
<path fill="none" stroke="black" d="M728.063,-161.445C724.84,-152.199 718.051,-132.726 711.224,-113.143"/>
<polygon fill="black" stroke="black" points="714.482,-111.855 707.885,-103.565 707.872,-114.16 714.482,-111.855"/>
</g>
<!-- #option([ns&#45;0]delivery_choice, [ns&#45;0]finish_fake_delivery, fake)&#45;&gt;[ns&#45;0]finish_fake_delivery -->
<g id="edge4" class="edge"><title>#option([ns&#45;0]delivery_choice, [ns&#45;0]finish_fake_delivery, fake):#option([ns&#45;0]delivery_choice, [ns&#45;0]finish_fake_delivery, fake)&#45;&gt;[ns&#45;0]finish_fake_delivery:[ns&#45;0]finish_fake_delivery</title>
<path fill="none" stroke="black" stroke-dasharray="1,5" d="M257.57,-502.882C247.459,-492.081 234.103,-477.814 220.692,-463.489"/>
<polygon fill="black" stroke="black" points="223.08,-460.918 213.69,-456.01 217.97,-465.702 223.08,-460.918"/>
</g>
<!-- #option([ns&#45;0]delivery_choice, [ns&#45;0]delivery_stealed, delivery)&#45;&gt;[ns&#45;0]delivery_stealed -->
<g id="edge6" class="edge"><title>#option([ns&#45;0]delivery_choice, [ns&#45;0]delivery_stealed, delivery):#option([ns&#45;0]delivery_choice, [ns&#45;0]delivery_stealed, delivery)&#45;&gt;[ns&#45;0]delivery_stealed:[ns&#45;0]delivery_stealed</title>
<path fill="none" stroke="black" stroke-dasharray="1,5" d="M789,-502.882C789,-487.852 789,-466.111 789,-446.839"/>
<polygon fill="black" stroke="black" points="792.5,-446.741 789,-436.741 785.5,-446.741 792.5,-446.741"/>
</g>
<!-- #answer(True, [ns&#45;0]fight_for_stealed, [ns&#45;0]finish_fight_for_stealed__delivery)&#45;&gt;[ns&#45;0]finish_fight_for_stealed__delivery -->
<g id="edge8" class="edge"><title>#answer(True, [ns&#45;0]fight_for_stealed, [ns&#45;0]finish_fight_for_stealed__delivery):#answer(True, [ns&#45;0]fight_for_stealed, [ns&#45;0]finish_fight_for_stealed__delivery)&#45;&gt;[ns&#45;0]finish_fight_for_stealed__delivery:[ns&#45;0]finish_fight_for_stealed__delivery</title>
<path fill="none" stroke="black" d="M928.212,-154.919C931.306,-146.043 935.77,-133.238 940.444,-119.831"/>
<polygon fill="black" stroke="black" points="943.881,-120.605 943.868,-110.01 937.271,-118.3 943.881,-120.605"/>
</g>
<!-- #option([ns&#45;0]delivery_choice, [ns&#45;0]finish_delivery, delivery)&#45;&gt;[ns&#45;0]finish_delivery -->
<g id="edge11" class="edge"><title>#option([ns&#45;0]delivery_choice, [ns&#45;0]finish_delivery, delivery):#option([ns&#45;0]delivery_choice, [ns&#45;0]finish_delivery, delivery)&#45;&gt;[ns&#45;0]finish_delivery:[ns&#45;0]finish_delivery</title>
<path fill="none" stroke="black" stroke-dasharray="1,5" d="M1006.67,-502.882C1012.07,-492.478 1019.14,-478.857 1026.3,-465.066"/>
<polygon fill="black" stroke="black" points="1029.5,-466.498 1031,-456.01 1023.28,-463.273 1029.5,-466.498"/>
</g>
<!-- #option([ns&#45;0]delivery_choice, [ns&#45;0]finish_steal, steal)&#45;&gt;[ns&#45;0]finish_steal -->
<g id="edge13" class="edge"><title>#option([ns&#45;0]delivery_choice, [ns&#45;0]finish_steal, steal):#option([ns&#45;0]delivery_choice, [ns&#45;0]finish_steal, steal)&#45;&gt;[ns&#45;0]finish_steal:[ns&#45;0]finish_steal</title>
<path fill="none" stroke="black" stroke-dasharray="1,5" d="M1256.48,-502.882C1265.95,-492.18 1278.44,-478.076 1291,-463.883"/>
<polygon fill="black" stroke="black" points="1293.96,-465.818 1297.97,-456.01 1288.72,-461.179 1293.96,-465.818"/>
</g>
<!-- #option([ns&#45;0]delivery_choice, [ns&#45;0]dummy_state, dummy_lie)&#45;&gt;[ns&#45;0]dummy_state -->
<g id="edge15" class="edge"><title>#option([ns&#45;0]delivery_choice, [ns&#45;0]dummy_state, dummy_lie):#option([ns&#45;0]delivery_choice, [ns&#45;0]dummy_state, dummy_lie)&#45;&gt;[ns&#45;0]dummy_state:[ns&#45;0]dummy_state</title>
<path fill="none" stroke="black" stroke-dasharray="1,5" d="M578.611,-515.833C569.513,-504.085 547.824,-476.081 528.429,-451.037"/>
<polygon fill="black" stroke="black" points="531.121,-448.797 522.231,-443.034 525.587,-453.083 531.121,-448.797"/>
</g>
</g>
</svg>
