<?xml version="1.0" encoding="UTF-8" standalone="no"?>
<!DOCTYPE svg PUBLIC "-//W3C//DTD SVG 1.1//EN"
 "http://www.w3.org/Graphics/SVG/1.1/DTD/svg11.dtd">
<!-- Generated by graphviz version 2.34.0 (20130907.0221)
 -->
<!-- Title: quest Pages: 1 -->
<svg width="1166pt" height="787pt"
 viewBox="0.00 0.00 1166.00 787.00" xmlns="http://www.w3.org/2000/svg" xmlns:xlink="http://www.w3.org/1999/xlink">
<g id="graph0" class="graph" transform="scale(1 1) rotate(0) translate(4 783)">
<title>quest</title>
<polygon fill="white" stroke="white" points="-4,4 -4,-783 1162,-783 1162,4 -4,4"/>
<g id="clust2" class="cluster"><title>cluster_[ns&#45;0]delivery_variants</title>
<polygon fill="#ffffdd" stroke="black" points="611,-374 611,-555 1150,-555 1150,-374 611,-374"/>
<text text-anchor="middle" x="880.5" y="-539.8" font-family="Times,serif" font-size="14.00">cluster_[ns&#45;0]delivery_variants</text>
</g>
<g id="clust1" class="cluster"><title>cluster_[ns&#45;0]lie_variants</title>
<polygon fill="#ffffdd" stroke="black" points="8,-368 8,-561 603,-561 603,-368 8,-368"/>
<text text-anchor="middle" x="305.5" y="-545.8" font-family="Times,serif" font-size="14.00">cluster_[ns&#45;0]lie_variants</text>
</g>
<!-- [ns&#45;0]fight_for_stealed -->
<g id="node1" class="node"><title>[ns&#45;0]fight_for_stealed</title>
<polygon fill="#ffdddd" stroke="none" points="655.5,-254.5 655.5,-335.5 810.5,-335.5 810.5,-254.5 655.5,-254.5"/>
<text text-anchor="start" x="658" y="-325.5" font-family="Times,serif" font-style="italic" font-size="10.00">[ns&#45;0]fight_for_stealed</text>
<text text-anchor="start" x="658" y="-311" font-family="Times,serif" font-size="10.00">Сразиться с вором</text>
<polygon fill="#ffeeee" stroke="none" points="657,-294 657,-307 810,-307 810,-294 657,-294"/>
<text text-anchor="start" x="658" y="-299" font-family="Times,serif" font-weight="bold" font-size="10.00">сообщение:</text>
<text text-anchor="start" x="710" y="-299" font-family="Times,serif" font-size="10.00"> fight_thief</text>
<polygon fill="#ffeeee" stroke="none" points="657,-281 657,-294 810,-294 810,-281 657,-281"/>
<text text-anchor="start" x="658" y="-286" font-family="Times,serif" font-weight="bold" font-size="10.00">сразиться с наёмником</text>
<polygon fill="#ffdddd" stroke="none" points="657,-268 657,-281 810,-281 810,-268 657,-268"/>
<text text-anchor="start" x="658" y="-273" font-family="Times,serif" font-weight="bold" font-size="10.00">условия:</text>
<text text-anchor="start" x="658" y="-260" font-family="Times,serif" font-weight="bold" font-size="10.00">если </text>
<polygon fill="#ffdddd" stroke="none" points="757,-255 757,-268 810,-268 810,-255 757,-255"/>
<text text-anchor="start" x="758" y="-260" font-family="Times,serif" font-size="10.00">hero </text>
<text text-anchor="start" x="779" y="-260" font-family="Times,serif" font-weight="bold" font-size="10.00">жив</text>
<polygon fill="none" stroke="black" points="655.5,-254.5 655.5,-335.5 810.5,-335.5 810.5,-254.5 655.5,-254.5"/>
</g>
<!-- #answer(False, [ns&#45;0]fight_for_stealed, [ns&#45;0]finish_fight_for_stealed__hero_died) -->
<g id="node10" class="node"><title>#answer(False, [ns&#45;0]fight_for_stealed, [ns&#45;0]finish_fight_for_stealed__hero_died)</title>
<polygon fill="#ffffff" stroke="none" points="658,-189 658,-203 691,-203 691,-189 658,-189"/>
<text text-anchor="start" x="659" y="-193.5" font-family="Times,serif" font-size="10.00">ЛОЖЬ</text>
</g>
<!-- [ns&#45;0]fight_for_stealed&#45;&gt;#answer(False, [ns&#45;0]fight_for_stealed, [ns&#45;0]finish_fight_for_stealed__hero_died) -->
<g id="edge1" class="edge"><title>[ns&#45;0]fight_for_stealed:[ns&#45;0]fight_for_stealed&#45;&gt;#answer(False, [ns&#45;0]fight_for_stealed, [ns&#45;0]finish_fight_for_stealed__hero_died):#answer(False, [ns&#45;0]fight_for_stealed, [ns&#45;0]finish_fight_for_stealed__hero_died)</title>
<path fill="none" stroke="black" d="M708.832,-254.267C696.994,-234.803 683.97,-213.392 677.733,-203.138"/>
</g>
<!-- #answer(True, [ns&#45;0]fight_for_stealed, [ns&#45;0]finish_fight_for_stealed__delivery) -->
<g id="node14" class="node"><title>#answer(True, [ns&#45;0]fight_for_stealed, [ns&#45;0]finish_fight_for_stealed__delivery)</title>
<polygon fill="#ffffff" stroke="none" points="833,-195 833,-209 964,-209 964,-195 833,-195"/>
<text text-anchor="start" x="834" y="-199.5" font-family="Times,serif" font-size="10.00">ИСТИНА</text>
<polygon fill="#eeeeee" stroke="none" points="833,-182 833,-195 964,-195 964,-182 833,-182"/>
<text text-anchor="start" x="834" y="-187" font-family="Times,serif" font-weight="bold" font-size="10.00">сообщение:</text>
<text text-anchor="start" x="886" y="-187" font-family="Times,serif" font-size="10.00"> delivery_returned</text>
</g>
<!-- [ns&#45;0]fight_for_stealed&#45;&gt;#answer(True, [ns&#45;0]fight_for_stealed, [ns&#45;0]finish_fight_for_stealed__delivery) -->
<g id="edge9" class="edge"><title>[ns&#45;0]fight_for_stealed:[ns&#45;0]fight_for_stealed&#45;&gt;#answer(True, [ns&#45;0]fight_for_stealed, [ns&#45;0]finish_fight_for_stealed__delivery):#answer(True, [ns&#45;0]fight_for_stealed, [ns&#45;0]finish_fight_for_stealed__delivery)</title>
<path fill="none" stroke="black" d="M800.588,-254.267C827.821,-238.257 857.297,-220.928 876.608,-209.576"/>
</g>
<!-- [ns&#45;0]finish_steal -->
<g id="node2" class="node"><title>[ns&#45;0]finish_steal</title>
<polygon fill="#eeeeee" stroke="none" points="24.5,-380 24.5,-526 269.5,-526 269.5,-380 24.5,-380"/>
<text text-anchor="start" x="27" y="-516.5" font-family="Times,serif" font-style="italic" font-size="10.00">[ns&#45;0]finish_steal</text>
<text text-anchor="start" x="27" y="-502" font-family="Times,serif" font-size="10.00">Доставить посылку скупщику</text>
<polygon fill="#dddddd" stroke="none" points="26,-485 26,-498 269,-498 269,-485 26,-485"/>
<text text-anchor="start" x="27" y="-490" font-family="Times,serif" font-size="10.00">hero </text>
<text text-anchor="start" x="48" y="-490" font-family="Times,serif" font-weight="bold" font-size="10.00">находится в</text>
<text text-anchor="start" x="103" y="-490" font-family="Times,serif" font-size="10.00"> place_8</text>
<polygon fill="#ffffff" stroke="none" points="26,-472 26,-485 269,-485 269,-472 26,-472"/>
<text text-anchor="start" x="27" y="-477" font-family="Times,serif" font-weight="bold" font-size="10.00">выдать награду </text>
<text text-anchor="start" x="102" y="-477" font-family="Times,serif" font-size="10.00">  hero </text>
<text text-anchor="start" x="127" y="-477" font-family="Times,serif" font-weight="bold" font-size="10.00">типа </text>
<text text-anchor="start" x="151" y="-477" font-family="Times,serif" font-size="10.00"> finish_steal </text>
<text text-anchor="start" x="203" y="-477" font-family="Times,serif" font-weight="bold" font-size="10.00">в размере</text>
<text text-anchor="start" x="246" y="-477" font-family="Times,serif" font-size="10.00"> 1.50</text>
<polygon fill="#ffffff" stroke="none" points="26,-459 26,-472 269,-472 269,-459 26,-459"/>
<text text-anchor="start" x="27" y="-464" font-family="Times,serif" font-weight="bold" font-size="10.00">увеличить влияние </text>
<text text-anchor="start" x="115" y="-464" font-family="Times,serif" font-size="10.00">  person_1 </text>
<text text-anchor="start" x="160" y="-464" font-family="Times,serif" font-weight="bold" font-size="10.00">на </text>
<text text-anchor="start" x="173" y="-464" font-family="Times,serif" font-size="10.00"> &#45;1.50</text>
<polygon fill="#ffffff" stroke="none" points="26,-446 26,-459 269,-459 269,-446 26,-446"/>
<text text-anchor="start" x="27" y="-451" font-family="Times,serif" font-weight="bold" font-size="10.00">увеличить влияние </text>
<text text-anchor="start" x="115" y="-451" font-family="Times,serif" font-size="10.00">  person_5 </text>
<text text-anchor="start" x="160" y="-451" font-family="Times,serif" font-weight="bold" font-size="10.00">на </text>
<text text-anchor="start" x="173" y="-451" font-family="Times,serif" font-size="10.00"> &#45;1.50</text>
<polygon fill="#ffffff" stroke="none" points="26,-433 26,-446 269,-446 269,-433 26,-433"/>
<text text-anchor="start" x="27" y="-438" font-family="Times,serif" font-weight="bold" font-size="10.00">увеличить влияние </text>
<text text-anchor="start" x="115" y="-438" font-family="Times,serif" font-size="10.00">  person_8 </text>
<text text-anchor="start" x="160" y="-438" font-family="Times,serif" font-weight="bold" font-size="10.00">на </text>
<text text-anchor="start" x="173" y="-438" font-family="Times,serif" font-size="10.00"> 1.00</text>
<polygon fill="#eeeeee" stroke="none" points="26,-420 26,-433 269,-433 269,-420 26,-420"/>
<text text-anchor="start" x="27" y="-425" font-family="Times,serif" font-weight="bold" font-size="10.00">результаты:</text>
<text text-anchor="start" x="27" y="-412" font-family="Times,serif" font-weight="bold" font-size="10.00">person_1</text>
<text text-anchor="start" x="149" y="-411" font-family="Times,serif" font-size="10.00">failed</text>
<text text-anchor="start" x="27" y="-399" font-family="Times,serif" font-weight="bold" font-size="10.00">person_5</text>
<text text-anchor="start" x="149" y="-398" font-family="Times,serif" font-size="10.00">failed</text>
<text text-anchor="start" x="27" y="-386" font-family="Times,serif" font-weight="bold" font-size="10.00">person_8</text>
<text text-anchor="start" x="149" y="-385" font-family="Times,serif" font-size="10.00">successed</text>
<polygon fill="none" stroke="black" points="24.5,-380 24.5,-526 269.5,-526 269.5,-380 24.5,-380"/>
</g>
<!-- [ns&#45;0]finish_fight_for_stealed__delivery -->
<g id="node3" class="node"><title>[ns&#45;0]finish_fight_for_stealed__delivery</title>
<polygon fill="#eeeeee" stroke="none" points="799.5,-4.5 799.5,-137.5 1102.5,-137.5 1102.5,-4.5 799.5,-4.5"/>
<text text-anchor="start" x="802" y="-127.5" font-family="Times,serif" font-style="italic" font-size="10.00">[ns&#45;0]finish_fight_for_stealed__delivery</text>
<text text-anchor="start" x="802" y="-113" font-family="Times,serif" font-size="10.00">Доставить посылку получателю</text>
<polygon fill="#dddddd" stroke="none" points="801,-96 801,-109 1102,-109 1102,-96 801,-96"/>
<text text-anchor="start" x="802" y="-101" font-family="Times,serif" font-size="10.00">hero </text>
<text text-anchor="start" x="823" y="-101" font-family="Times,serif" font-weight="bold" font-size="10.00">находится в</text>
<text text-anchor="start" x="878" y="-101" font-family="Times,serif" font-size="10.00"> place_5</text>
<polygon fill="#ffffff" stroke="none" points="801,-83 801,-96 1102,-96 1102,-83 801,-83"/>
<text text-anchor="start" x="802" y="-88" font-family="Times,serif" font-weight="bold" font-size="10.00">выдать награду </text>
<text text-anchor="start" x="877" y="-88" font-family="Times,serif" font-size="10.00">  hero </text>
<text text-anchor="start" x="902" y="-88" font-family="Times,serif" font-weight="bold" font-size="10.00">типа </text>
<text text-anchor="start" x="926" y="-88" font-family="Times,serif" font-size="10.00"> finish_delivery </text>
<text text-anchor="start" x="993" y="-88" font-family="Times,serif" font-weight="bold" font-size="10.00">в размере</text>
<text text-anchor="start" x="1036" y="-88" font-family="Times,serif" font-size="10.00"> 1.00</text>
<polygon fill="#ffffff" stroke="none" points="801,-70 801,-83 1102,-83 1102,-70 801,-70"/>
<text text-anchor="start" x="802" y="-75" font-family="Times,serif" font-weight="bold" font-size="10.00">увеличить влияние </text>
<text text-anchor="start" x="890" y="-75" font-family="Times,serif" font-size="10.00">  person_1 </text>
<text text-anchor="start" x="935" y="-75" font-family="Times,serif" font-weight="bold" font-size="10.00">на </text>
<text text-anchor="start" x="948" y="-75" font-family="Times,serif" font-size="10.00"> 1.00</text>
<polygon fill="#ffffff" stroke="none" points="801,-57 801,-70 1102,-70 1102,-57 801,-57"/>
<text text-anchor="start" x="802" y="-62" font-family="Times,serif" font-weight="bold" font-size="10.00">увеличить влияние </text>
<text text-anchor="start" x="890" y="-62" font-family="Times,serif" font-size="10.00">  person_5 </text>
<text text-anchor="start" x="935" y="-62" font-family="Times,serif" font-weight="bold" font-size="10.00">на </text>
<text text-anchor="start" x="948" y="-62" font-family="Times,serif" font-size="10.00"> 1.00</text>
<polygon fill="#eeeeee" stroke="none" points="801,-44 801,-57 1102,-57 1102,-44 801,-44"/>
<text text-anchor="start" x="802" y="-49" font-family="Times,serif" font-weight="bold" font-size="10.00">результаты:</text>
<text text-anchor="start" x="802" y="-36" font-family="Times,serif" font-weight="bold" font-size="10.00">person_1</text>
<text text-anchor="start" x="974" y="-35" font-family="Times,serif" font-size="10.00">successed</text>
<text text-anchor="start" x="802" y="-23" font-family="Times,serif" font-weight="bold" font-size="10.00">person_5</text>
<text text-anchor="start" x="974" y="-22" font-family="Times,serif" font-size="10.00">successed</text>
<text text-anchor="start" x="802" y="-10" font-family="Times,serif" font-weight="bold" font-size="10.00">person_8</text>
<text text-anchor="start" x="974" y="-9" font-family="Times,serif" font-size="10.00">neutral</text>
<polygon fill="none" stroke="black" points="799.5,-4.5 799.5,-137.5 1102.5,-137.5 1102.5,-4.5 799.5,-4.5"/>
</g>
<!-- [ns&#45;0]start -->
<g id="node4" class="node"><title>[ns&#45;0]start</title>
<polygon fill="#eeeeee" stroke="none" points="530.5,-719.5 530.5,-774.5 647.5,-774.5 647.5,-719.5 530.5,-719.5"/>
<text text-anchor="start" x="533" y="-764.5" font-family="Times,serif" font-style="italic" font-size="10.00">[ns&#45;0]start</text>
<text text-anchor="start" x="600.5" y="-764.5" font-family="Times,serif" font-weight="bold" font-size="10.00">delivery</text>
<text text-anchor="start" x="533" y="-750" font-family="Times,serif" font-size="10.00">Начало: доставка</text>
<polygon fill="#dddddd" stroke="none" points="532,-733 532,-746 647,-746 647,-733 532,-733"/>
<text text-anchor="start" x="533" y="-738" font-family="Times,serif" font-size="10.00">hero </text>
<text text-anchor="start" x="554" y="-738" font-family="Times,serif" font-weight="bold" font-size="10.00">находится в</text>
<text text-anchor="start" x="609" y="-738" font-family="Times,serif" font-size="10.00"> place_1</text>
<polygon fill="#ffffff" stroke="none" points="532,-720 532,-733 647,-733 647,-720 532,-720"/>
<text text-anchor="start" x="533" y="-725" font-family="Times,serif" font-weight="bold" font-size="10.00">сообщение:</text>
<text text-anchor="start" x="585" y="-725" font-family="Times,serif" font-size="10.00"> intro</text>
<polygon fill="none" stroke="black" points="530.5,-719.5 530.5,-774.5 647.5,-774.5 647.5,-719.5 530.5,-719.5"/>
</g>
<!-- [ns&#45;0]delivery_choice -->
<g id="node7" class="node"><title>[ns&#45;0]delivery_choice</title>
<polygon fill="#ddddff" stroke="none" points="517,-645.5 517,-674.5 661,-674.5 661,-645.5 517,-645.5"/>
<text text-anchor="start" x="519" y="-664.5" font-family="Times,serif" font-style="italic" font-size="10.00">[ns&#45;0]delivery_choice</text>
<text text-anchor="start" x="519" y="-650" font-family="Times,serif" font-size="10.00">Решение: доставить или украсть</text>
<polygon fill="none" stroke="black" points="517,-645.5 517,-674.5 661,-674.5 661,-645.5 517,-645.5"/>
</g>
<!-- [ns&#45;0]start&#45;&gt;[ns&#45;0]delivery_choice -->
<g id="edge11" class="edge"><title>[ns&#45;0]start:[ns&#45;0]start&#45;&gt;[ns&#45;0]delivery_choice:[ns&#45;0]delivery_choice</title>
<path fill="none" stroke="black" d="M589,-719.105C589,-708.132 589,-695.546 589,-684.9"/>
<polygon fill="black" stroke="black" points="592.5,-684.657 589,-674.657 585.5,-684.657 592.5,-684.657"/>
</g>
<!-- [ns&#45;0]delivery_stealed -->
<g id="node5" class="node"><title>[ns&#45;0]delivery_stealed</title>
<polygon fill="#ddffdd" stroke="none" points="627.5,-419 627.5,-487 838.5,-487 838.5,-419 627.5,-419"/>
<text text-anchor="start" x="630" y="-477.5" font-family="Times,serif" font-style="italic" font-size="10.00">[ns&#45;0]delivery_stealed</text>
<text text-anchor="start" x="630" y="-463" font-family="Times,serif" font-size="10.00">письмо украдено</text>
<polygon fill="#cceecc" stroke="none" points="629,-446 629,-459 838,-459 838,-446 629,-446"/>
<text text-anchor="start" x="630" y="-451" font-family="Times,serif" font-size="10.00">hero </text>
<text text-anchor="start" x="651" y="-451" font-family="Times,serif" font-weight="bold" font-size="10.00">прошёл</text>
<text text-anchor="start" x="685" y="-451" font-family="Times,serif" font-size="10.00"> 65%</text>
<text text-anchor="start" x="707" y="-451" font-family="Times,serif" font-weight="bold" font-size="10.00"> дороги от</text>
<text text-anchor="start" x="753" y="-451" font-family="Times,serif" font-size="10.00"> place_1 </text>
<text text-anchor="start" x="790" y="-451" font-family="Times,serif" font-weight="bold" font-size="10.00">до</text>
<text text-anchor="start" x="801" y="-451" font-family="Times,serif" font-size="10.00"> place_5</text>
<polygon fill="#eeffee" stroke="none" points="629,-433 629,-446 838,-446 838,-433 629,-433"/>
<text text-anchor="start" x="630" y="-438" font-family="Times,serif" font-weight="bold" font-size="10.00">сообщение:</text>
<text text-anchor="start" x="682" y="-438" font-family="Times,serif" font-size="10.00"> delivery_stealed</text>
<polygon fill="#eeffee" stroke="none" points="629,-420 629,-433 838,-433 838,-420 629,-420"/>
<text text-anchor="start" x="630" y="-425" font-family="Times,serif" font-weight="bold" font-size="10.00">отправить </text>
<text text-anchor="start" x="680" y="-425" font-family="Times,serif" font-size="10.00"> hero</text>
<text text-anchor="start" x="701" y="-425" font-family="Times,serif" font-weight="bold" font-size="10.00">бродить в округе</text>
<polygon fill="none" stroke="black" points="627.5,-419 627.5,-487 838.5,-487 838.5,-419 627.5,-419"/>
</g>
<!-- [ns&#45;0]delivery_stealed&#45;&gt;[ns&#45;0]fight_for_stealed -->
<g id="edge14" class="edge"><title>[ns&#45;0]delivery_stealed:[ns&#45;0]delivery_stealed&#45;&gt;[ns&#45;0]fight_for_stealed:[ns&#45;0]fight_for_stealed</title>
<path fill="none" stroke="black" d="M733,-418.916C733,-397.725 733,-369.824 733,-345.962"/>
<polygon fill="black" stroke="black" points="736.5,-345.668 733,-335.668 729.5,-345.668 736.5,-345.668"/>
</g>
<!-- [ns&#45;0]finish_fight_for_stealed__hero_died -->
<g id="node6" class="node"><title>[ns&#45;0]finish_fight_for_stealed__hero_died</title>
<polygon fill="#eeeeee" stroke="none" points="478.5,-24 478.5,-118 765.5,-118 765.5,-24 478.5,-24"/>
<text text-anchor="start" x="481" y="-108.5" font-family="Times,serif" font-style="italic" font-size="10.00">[ns&#45;0]finish_fight_for_stealed__hero_died</text>
<text text-anchor="start" x="481" y="-94" font-family="Times,serif" font-size="10.00">Герой не смог вернуть украденное письмо</text>
<polygon fill="#ffffff" stroke="none" points="480,-77 480,-90 765,-90 765,-77 480,-77"/>
<text text-anchor="start" x="481" y="-82" font-family="Times,serif" font-weight="bold" font-size="10.00">сообщение:</text>
<text text-anchor="start" x="533" y="-82" font-family="Times,serif" font-size="10.00"> finish_fight_for_stealed__hero_died</text>
<polygon fill="#eeeeee" stroke="none" points="480,-64 480,-77 765,-77 765,-64 480,-64"/>
<text text-anchor="start" x="481" y="-69" font-family="Times,serif" font-weight="bold" font-size="10.00">результаты:</text>
<text text-anchor="start" x="481" y="-56" font-family="Times,serif" font-weight="bold" font-size="10.00">person_1</text>
<text text-anchor="start" x="662" y="-55" font-family="Times,serif" font-size="10.00">neutral</text>
<text text-anchor="start" x="481" y="-43" font-family="Times,serif" font-weight="bold" font-size="10.00">person_5</text>
<text text-anchor="start" x="662" y="-42" font-family="Times,serif" font-size="10.00">neutral</text>
<text text-anchor="start" x="481" y="-30" font-family="Times,serif" font-weight="bold" font-size="10.00">person_8</text>
<text text-anchor="start" x="662" y="-29" font-family="Times,serif" font-size="10.00">neutral</text>
<polygon fill="none" stroke="black" points="478.5,-24 478.5,-118 765.5,-118 765.5,-24 478.5,-24"/>
</g>
<!-- #option([ns&#45;0]delivery_choice, [ns&#45;0]finish_steal) -->
<g id="node11" class="node"><title>#option([ns&#45;0]delivery_choice, [ns&#45;0]finish_steal)</title>
<polygon fill="#ffffff" stroke="none" points="218,-586 218,-600 317,-600 317,-586 218,-586"/>
<text text-anchor="start" x="219" y="-590.5" font-family="Times,serif" font-size="10.00">steal</text>
<polygon fill="#eeeeee" stroke="none" points="218,-573 218,-586 317,-586 317,-573 218,-573"/>
<text text-anchor="start" x="219" y="-578" font-family="Times,serif" font-weight="bold" font-size="10.00">сообщение:</text>
<text text-anchor="start" x="271" y="-578" font-family="Times,serif" font-size="10.00"> start_steal</text>
</g>
<!-- [ns&#45;0]delivery_choice&#45;&gt;#option([ns&#45;0]delivery_choice, [ns&#45;0]finish_steal) -->
<g id="edge3" class="edge"><title>[ns&#45;0]delivery_choice:[ns&#45;0]delivery_choice&#45;&gt;#option([ns&#45;0]delivery_choice, [ns&#45;0]finish_steal):#option([ns&#45;0]delivery_choice, [ns&#45;0]finish_steal)</title>
<path fill="none" stroke="black" stroke-dasharray="1,5" d="M527.676,-645.478C466.457,-631.98 373.539,-611.491 316.751,-598.97"/>
</g>
<!-- #option([ns&#45;0]delivery_choice, [ns&#45;0]delivery_stealed) -->
<g id="node12" class="node"><title>#option([ns&#45;0]delivery_choice, [ns&#45;0]delivery_stealed)</title>
<polygon fill="#ffffff" stroke="none" points="639,-586 639,-600 753,-600 753,-586 639,-586"/>
<text text-anchor="start" x="640" y="-590.5" font-family="Times,serif" font-size="10.00">delivery</text>
<polygon fill="#eeeeee" stroke="none" points="639,-573 639,-586 753,-586 753,-573 639,-573"/>
<text text-anchor="start" x="640" y="-578" font-family="Times,serif" font-weight="bold" font-size="10.00">сообщение:</text>
<text text-anchor="start" x="692" y="-578" font-family="Times,serif" font-size="10.00"> start_delivery</text>
</g>
<!-- [ns&#45;0]delivery_choice&#45;&gt;#option([ns&#45;0]delivery_choice, [ns&#45;0]delivery_stealed) -->
<g id="edge5" class="edge"><title>[ns&#45;0]delivery_choice:[ns&#45;0]delivery_choice&#45;&gt;#option([ns&#45;0]delivery_choice, [ns&#45;0]delivery_stealed):#option([ns&#45;0]delivery_choice, [ns&#45;0]delivery_stealed)</title>
<path fill="none" stroke="black" stroke-dasharray="1,5" d="M609.378,-645.478C628.902,-632.523 658.13,-613.129 677.133,-600.519"/>
</g>
<!-- #option([ns&#45;0]delivery_choice, [ns&#45;0]finish_fake_delivery) -->
<g id="node13" class="node"><title>#option([ns&#45;0]delivery_choice, [ns&#45;0]finish_fake_delivery)</title>
<polygon fill="#ffffff" stroke="none" points="433,-586 433,-600 531,-600 531,-586 433,-586"/>
<text text-anchor="start" x="434" y="-590.5" font-family="Times,serif" font-size="10.00">fake</text>
<polygon fill="#eeeeee" stroke="none" points="433,-573 433,-586 531,-586 531,-573 433,-573"/>
<text text-anchor="start" x="434" y="-578" font-family="Times,serif" font-weight="bold" font-size="10.00">сообщение:</text>
<text text-anchor="start" x="486" y="-578" font-family="Times,serif" font-size="10.00"> start_fake</text>
</g>
<!-- [ns&#45;0]delivery_choice&#45;&gt;#option([ns&#45;0]delivery_choice, [ns&#45;0]finish_fake_delivery) -->
<g id="edge7" class="edge"><title>[ns&#45;0]delivery_choice:[ns&#45;0]delivery_choice&#45;&gt;#option([ns&#45;0]delivery_choice, [ns&#45;0]finish_fake_delivery):#option([ns&#45;0]delivery_choice, [ns&#45;0]finish_fake_delivery)</title>
<path fill="none" stroke="black" stroke-dasharray="1,5" d="M568.622,-645.478C549.098,-632.523 519.87,-613.129 500.867,-600.519"/>
</g>
<!-- #option([ns&#45;0]delivery_choice, [ns&#45;0]finish_delivery) -->
<g id="node15" class="node"><title>#option([ns&#45;0]delivery_choice, [ns&#45;0]finish_delivery)</title>
<polygon fill="#ffffff" stroke="none" points="885,-586 885,-600 999,-600 999,-586 885,-586"/>
<text text-anchor="start" x="886" y="-590.5" font-family="Times,serif" font-size="10.00">delivery</text>
<polygon fill="#eeeeee" stroke="none" points="885,-573 885,-586 999,-586 999,-573 885,-573"/>
<text text-anchor="start" x="886" y="-578" font-family="Times,serif" font-weight="bold" font-size="10.00">сообщение:</text>
<text text-anchor="start" x="938" y="-578" font-family="Times,serif" font-size="10.00"> start_delivery</text>
</g>
<!-- [ns&#45;0]delivery_choice&#45;&gt;#option([ns&#45;0]delivery_choice, [ns&#45;0]finish_delivery) -->
<g id="edge12" class="edge"><title>[ns&#45;0]delivery_choice:[ns&#45;0]delivery_choice&#45;&gt;#option([ns&#45;0]delivery_choice, [ns&#45;0]finish_delivery):#option([ns&#45;0]delivery_choice, [ns&#45;0]finish_delivery)</title>
<path fill="none" stroke="black" stroke-dasharray="1,5" d="M656.227,-645.478C722.44,-632.161 822.478,-612.04 884.934,-599.478"/>
</g>
<!-- [ns&#45;0]finish_fake_delivery -->
<g id="node8" class="node"><title>[ns&#45;0]finish_fake_delivery</title>
<polygon fill="#eeeeee" stroke="none" points="303.5,-386.5 303.5,-519.5 586.5,-519.5 586.5,-386.5 303.5,-386.5"/>
<text text-anchor="start" x="306" y="-509.5" font-family="Times,serif" font-style="italic" font-size="10.00">[ns&#45;0]finish_fake_delivery</text>
<text text-anchor="start" x="306" y="-495" font-family="Times,serif" font-size="10.00">Подделать письмо</text>
<polygon fill="#dddddd" stroke="none" points="305,-478 305,-491 586,-491 586,-478 305,-478"/>
<text text-anchor="start" x="306" y="-483" font-family="Times,serif" font-size="10.00">hero </text>
<text text-anchor="start" x="327" y="-483" font-family="Times,serif" font-weight="bold" font-size="10.00">находится в</text>
<text text-anchor="start" x="382" y="-483" font-family="Times,serif" font-size="10.00"> place_5</text>
<polygon fill="#ffffff" stroke="none" points="305,-465 305,-478 586,-478 586,-465 305,-465"/>
<text text-anchor="start" x="306" y="-470" font-family="Times,serif" font-weight="bold" font-size="10.00">выдать награду </text>
<text text-anchor="start" x="381" y="-470" font-family="Times,serif" font-size="10.00">  hero </text>
<text text-anchor="start" x="406" y="-470" font-family="Times,serif" font-weight="bold" font-size="10.00">типа </text>
<text text-anchor="start" x="430" y="-470" font-family="Times,serif" font-size="10.00"> finish_fake_delivery </text>
<text text-anchor="start" x="520" y="-470" font-family="Times,serif" font-weight="bold" font-size="10.00">в размере</text>
<text text-anchor="start" x="563" y="-470" font-family="Times,serif" font-size="10.00"> 2.00</text>
<polygon fill="#ffffff" stroke="none" points="305,-452 305,-465 586,-465 586,-452 305,-452"/>
<text text-anchor="start" x="306" y="-457" font-family="Times,serif" font-weight="bold" font-size="10.00">увеличить влияние </text>
<text text-anchor="start" x="394" y="-457" font-family="Times,serif" font-size="10.00">  person_1 </text>
<text text-anchor="start" x="439" y="-457" font-family="Times,serif" font-weight="bold" font-size="10.00">на </text>
<text text-anchor="start" x="452" y="-457" font-family="Times,serif" font-size="10.00"> &#45;1.00</text>
<polygon fill="#ffffff" stroke="none" points="305,-439 305,-452 586,-452 586,-439 305,-439"/>
<text text-anchor="start" x="306" y="-444" font-family="Times,serif" font-weight="bold" font-size="10.00">увеличить влияние </text>
<text text-anchor="start" x="394" y="-444" font-family="Times,serif" font-size="10.00">  person_5 </text>
<text text-anchor="start" x="439" y="-444" font-family="Times,serif" font-weight="bold" font-size="10.00">на </text>
<text text-anchor="start" x="452" y="-444" font-family="Times,serif" font-size="10.00"> &#45;1.00</text>
<polygon fill="#eeeeee" stroke="none" points="305,-426 305,-439 586,-439 586,-426 305,-426"/>
<text text-anchor="start" x="306" y="-431" font-family="Times,serif" font-weight="bold" font-size="10.00">результаты:</text>
<text text-anchor="start" x="306" y="-418" font-family="Times,serif" font-weight="bold" font-size="10.00">person_1</text>
<text text-anchor="start" x="447" y="-417" font-family="Times,serif" font-size="10.00">failed</text>
<text text-anchor="start" x="306" y="-405" font-family="Times,serif" font-weight="bold" font-size="10.00">person_5</text>
<text text-anchor="start" x="447" y="-404" font-family="Times,serif" font-size="10.00">failed</text>
<text text-anchor="start" x="306" y="-392" font-family="Times,serif" font-weight="bold" font-size="10.00">person_8</text>
<text text-anchor="start" x="447" y="-391" font-family="Times,serif" font-size="10.00">neutral</text>
<polygon fill="none" stroke="black" points="303.5,-386.5 303.5,-519.5 586.5,-519.5 586.5,-386.5 303.5,-386.5"/>
</g>
<!-- [ns&#45;0]finish_delivery -->
<g id="node9" class="node"><title>[ns&#45;0]finish_delivery</title>
<polygon fill="#eeeeee" stroke="none" points="872.5,-386.5 872.5,-519.5 1133.5,-519.5 1133.5,-386.5 872.5,-386.5"/>
<text text-anchor="start" x="875" y="-509.5" font-family="Times,serif" font-style="italic" font-size="10.00">[ns&#45;0]finish_delivery</text>
<text text-anchor="start" x="875" y="-495" font-family="Times,serif" font-size="10.00">Доставить посылку получателю</text>
<polygon fill="#dddddd" stroke="none" points="874,-478 874,-491 1133,-491 1133,-478 874,-478"/>
<text text-anchor="start" x="875" y="-483" font-family="Times,serif" font-size="10.00">hero </text>
<text text-anchor="start" x="896" y="-483" font-family="Times,serif" font-weight="bold" font-size="10.00">находится в</text>
<text text-anchor="start" x="951" y="-483" font-family="Times,serif" font-size="10.00"> place_5</text>
<polygon fill="#ffffff" stroke="none" points="874,-465 874,-478 1133,-478 1133,-465 874,-465"/>
<text text-anchor="start" x="875" y="-470" font-family="Times,serif" font-weight="bold" font-size="10.00">выдать награду </text>
<text text-anchor="start" x="950" y="-470" font-family="Times,serif" font-size="10.00">  hero </text>
<text text-anchor="start" x="975" y="-470" font-family="Times,serif" font-weight="bold" font-size="10.00">типа </text>
<text text-anchor="start" x="999" y="-470" font-family="Times,serif" font-size="10.00"> finish_delivery </text>
<text text-anchor="start" x="1066" y="-470" font-family="Times,serif" font-weight="bold" font-size="10.00">в размере</text>
<text text-anchor="start" x="1109" y="-470" font-family="Times,serif" font-size="10.00"> 1.00</text>
<polygon fill="#ffffff" stroke="none" points="874,-452 874,-465 1133,-465 1133,-452 874,-452"/>
<text text-anchor="start" x="875" y="-457" font-family="Times,serif" font-weight="bold" font-size="10.00">увеличить влияние </text>
<text text-anchor="start" x="963" y="-457" font-family="Times,serif" font-size="10.00">  person_1 </text>
<text text-anchor="start" x="1008" y="-457" font-family="Times,serif" font-weight="bold" font-size="10.00">на </text>
<text text-anchor="start" x="1021" y="-457" font-family="Times,serif" font-size="10.00"> 1.00</text>
<polygon fill="#ffffff" stroke="none" points="874,-439 874,-452 1133,-452 1133,-439 874,-439"/>
<text text-anchor="start" x="875" y="-444" font-family="Times,serif" font-weight="bold" font-size="10.00">увеличить влияние </text>
<text text-anchor="start" x="963" y="-444" font-family="Times,serif" font-size="10.00">  person_5 </text>
<text text-anchor="start" x="1008" y="-444" font-family="Times,serif" font-weight="bold" font-size="10.00">на </text>
<text text-anchor="start" x="1021" y="-444" font-family="Times,serif" font-size="10.00"> 1.00</text>
<polygon fill="#eeeeee" stroke="none" points="874,-426 874,-439 1133,-439 1133,-426 874,-426"/>
<text text-anchor="start" x="875" y="-431" font-family="Times,serif" font-weight="bold" font-size="10.00">результаты:</text>
<text text-anchor="start" x="875" y="-418" font-family="Times,serif" font-weight="bold" font-size="10.00">person_1</text>
<text text-anchor="start" x="1005" y="-417" font-family="Times,serif" font-size="10.00">successed</text>
<text text-anchor="start" x="875" y="-405" font-family="Times,serif" font-weight="bold" font-size="10.00">person_5</text>
<text text-anchor="start" x="1005" y="-404" font-family="Times,serif" font-size="10.00">successed</text>
<text text-anchor="start" x="875" y="-392" font-family="Times,serif" font-weight="bold" font-size="10.00">person_8</text>
<text text-anchor="start" x="1005" y="-391" font-family="Times,serif" font-size="10.00">neutral</text>
<polygon fill="none" stroke="black" points="872.5,-386.5 872.5,-519.5 1133.5,-519.5 1133.5,-386.5 872.5,-386.5"/>
</g>
<!-- #answer(False, [ns&#45;0]fight_for_stealed, [ns&#45;0]finish_fight_for_stealed__hero_died)&#45;&gt;[ns&#45;0]finish_fight_for_stealed__hero_died -->
<g id="edge2" class="edge"><title>#answer(False, [ns&#45;0]fight_for_stealed, [ns&#45;0]finish_fight_for_stealed__hero_died):#answer(False, [ns&#45;0]fight_for_stealed, [ns&#45;0]finish_fight_for_stealed__hero_died)&#45;&gt;[ns&#45;0]finish_fight_for_stealed__hero_died:[ns&#45;0]finish_fight_for_stealed__hero_died</title>
<path fill="none" stroke="black" d="M671.35,-188.731C666.508,-177.278 655.788,-151.921 645.572,-127.756"/>
<polygon fill="black" stroke="black" points="648.663,-126.079 641.545,-118.231 642.215,-128.805 648.663,-126.079"/>
</g>
<!-- #option([ns&#45;0]delivery_choice, [ns&#45;0]finish_steal)&#45;&gt;[ns&#45;0]finish_steal -->
<g id="edge4" class="edge"><title>#option([ns&#45;0]delivery_choice, [ns&#45;0]finish_steal):#option([ns&#45;0]delivery_choice, [ns&#45;0]finish_steal)&#45;&gt;[ns&#45;0]finish_steal:[ns&#45;0]finish_steal</title>
<path fill="none" stroke="black" stroke-dasharray="1,5" d="M255.494,-573.343C246.621,-563.583 233.523,-549.175 219.469,-533.716"/>
<polygon fill="black" stroke="black" points="221.825,-531.104 212.508,-526.059 216.645,-535.813 221.825,-531.104"/>
</g>
<!-- #option([ns&#45;0]delivery_choice, [ns&#45;0]delivery_stealed)&#45;&gt;[ns&#45;0]delivery_stealed -->
<g id="edge6" class="edge"><title>#option([ns&#45;0]delivery_choice, [ns&#45;0]delivery_stealed):#option([ns&#45;0]delivery_choice, [ns&#45;0]delivery_stealed)&#45;&gt;[ns&#45;0]delivery_stealed:[ns&#45;0]delivery_stealed</title>
<path fill="none" stroke="black" stroke-dasharray="1,5" d="M699.548,-573.343C704.439,-555.892 713.497,-523.578 720.955,-496.972"/>
<polygon fill="black" stroke="black" points="724.394,-497.671 723.723,-487.098 717.653,-495.782 724.394,-497.671"/>
</g>
<!-- #option([ns&#45;0]delivery_choice, [ns&#45;0]finish_fake_delivery)&#45;&gt;[ns&#45;0]finish_fake_delivery -->
<g id="edge8" class="edge"><title>#option([ns&#45;0]delivery_choice, [ns&#45;0]finish_fake_delivery):#option([ns&#45;0]delivery_choice, [ns&#45;0]finish_fake_delivery)&#45;&gt;[ns&#45;0]finish_fake_delivery:[ns&#45;0]finish_fake_delivery</title>
<path fill="none" stroke="black" stroke-dasharray="1,5" d="M478.452,-573.343C475.489,-562.771 470.996,-546.743 466.257,-529.835"/>
<polygon fill="black" stroke="black" points="469.517,-528.497 463.447,-519.813 462.776,-530.386 469.517,-528.497"/>
</g>
<!-- #answer(True, [ns&#45;0]fight_for_stealed, [ns&#45;0]finish_fight_for_stealed__delivery)&#45;&gt;[ns&#45;0]finish_fight_for_stealed__delivery -->
<g id="edge10" class="edge"><title>#answer(True, [ns&#45;0]fight_for_stealed, [ns&#45;0]finish_fight_for_stealed__delivery):#answer(True, [ns&#45;0]fight_for_stealed, [ns&#45;0]finish_fight_for_stealed__delivery)&#45;&gt;[ns&#45;0]finish_fight_for_stealed__delivery:[ns&#45;0]finish_fight_for_stealed__delivery</title>
<path fill="none" stroke="black" d="M903.472,-182.3C907.297,-173.423 912.754,-160.76 918.615,-147.159"/>
<polygon fill="black" stroke="black" points="921.979,-148.196 922.722,-137.627 915.55,-145.426 921.979,-148.196"/>
</g>
<!-- #option([ns&#45;0]delivery_choice, [ns&#45;0]finish_delivery)&#45;&gt;[ns&#45;0]finish_delivery -->
<g id="edge13" class="edge"><title>#option([ns&#45;0]delivery_choice, [ns&#45;0]finish_delivery):#option([ns&#45;0]delivery_choice, [ns&#45;0]finish_delivery)&#45;&gt;[ns&#45;0]finish_delivery:[ns&#45;0]finish_delivery</title>
<path fill="none" stroke="black" stroke-dasharray="1,5" d="M947.849,-573.343C952.78,-562.672 960.28,-546.443 968.174,-529.361"/>
<polygon fill="black" stroke="black" points="971.569,-530.359 972.587,-519.813 965.214,-527.422 971.569,-530.359"/>
</g>
</g>
</svg>
