<?xml version="1.0" encoding="UTF-8" standalone="no"?>
<!DOCTYPE svg PUBLIC "-//W3C//DTD SVG 1.1//EN"
 "http://www.w3.org/Graphics/SVG/1.1/DTD/svg11.dtd">
<!-- Generated by graphviz version 2.34.0 (20130907.0221)
 -->
<!-- Title: quest Pages: 1 -->
<svg width="1488pt" height="784pt"
 viewBox="0.00 0.00 1488.00 784.00" xmlns="http://www.w3.org/2000/svg" xmlns:xlink="http://www.w3.org/1999/xlink">
<g id="graph0" class="graph" transform="scale(1 1) rotate(0) translate(4 780)">
<title>quest</title>
<polygon fill="white" stroke="white" points="-4,4 -4,-780 1484,-780 1484,4 -4,4"/>
<g id="clust2" class="cluster"><title>cluster_[ns&#45;0]delivery_variants</title>
<polygon fill="#ffffdd" stroke="black" points="270,-374 270,-555 809,-555 809,-374 270,-374"/>
<text text-anchor="middle" x="539.5" y="-539.8" font-family="Times,serif" font-size="14.00">cluster_[ns&#45;0]delivery_variants</text>
</g>
<g id="clust1" class="cluster"><title>cluster_[ns&#45;0]lie_variants</title>
<polygon fill="#ffffdd" stroke="black" points="817,-374 817,-555 1472,-555 1472,-374 817,-374"/>
<text text-anchor="middle" x="1144.5" y="-539.8" font-family="Times,serif" font-size="14.00">cluster_[ns&#45;0]lie_variants</text>
</g>
<!-- [ns&#45;0]fight_for_stealed -->
<g id="node1" class="node"><title>[ns&#45;0]fight_for_stealed</title>
<polygon fill="#ffdddd" stroke="none" points="314.5,-254.5 314.5,-335.5 469.5,-335.5 469.5,-254.5 314.5,-254.5"/>
<text text-anchor="start" x="317" y="-325.5" font-family="Times,serif" font-style="italic" font-size="10.00">[ns&#45;0]fight_for_stealed</text>
<text text-anchor="start" x="317" y="-311" font-family="Times,serif" font-size="10.00">Сразиться с вором</text>
<polygon fill="#ffeeee" stroke="none" points="316,-294 316,-307 469,-307 469,-294 316,-294"/>
<text text-anchor="start" x="317" y="-299" font-family="Times,serif" font-weight="bold" font-size="10.00">сообщение:</text>
<text text-anchor="start" x="369" y="-299" font-family="Times,serif" font-size="10.00"> fight_thief</text>
<polygon fill="#ffeeee" stroke="none" points="316,-281 316,-294 469,-294 469,-281 316,-281"/>
<text text-anchor="start" x="317" y="-286" font-family="Times,serif" font-weight="bold" font-size="10.00">сразиться с наёмником</text>
<polygon fill="#ffdddd" stroke="none" points="316,-268 316,-281 469,-281 469,-268 316,-268"/>
<text text-anchor="start" x="317" y="-273" font-family="Times,serif" font-weight="bold" font-size="10.00">условия:</text>
<text text-anchor="start" x="317" y="-260" font-family="Times,serif" font-weight="bold" font-size="10.00">если </text>
<polygon fill="#ffdddd" stroke="none" points="416,-255 416,-268 469,-268 469,-255 416,-255"/>
<text text-anchor="start" x="417" y="-260" font-family="Times,serif" font-size="10.00">hero </text>
<text text-anchor="start" x="438" y="-260" font-family="Times,serif" font-weight="bold" font-size="10.00">жив</text>
<polygon fill="none" stroke="black" points="314.5,-254.5 314.5,-335.5 469.5,-335.5 469.5,-254.5 314.5,-254.5"/>
</g>
<!-- #answer(False, [ns&#45;0]fight_for_stealed, [ns&#45;0]finish_fight_for_stealed__hero_died) -->
<g id="node11" class="node"><title>#answer(False, [ns&#45;0]fight_for_stealed, [ns&#45;0]finish_fight_for_stealed__hero_died)</title>
<polygon fill="#ffffff" stroke="none" points="317,-189 317,-203 350,-203 350,-189 317,-189"/>
<text text-anchor="start" x="318" y="-193.5" font-family="Times,serif" font-size="10.00">ЛОЖЬ</text>
</g>
<!-- [ns&#45;0]fight_for_stealed&#45;&gt;#answer(False, [ns&#45;0]fight_for_stealed, [ns&#45;0]finish_fight_for_stealed__hero_died) -->
<g id="edge1" class="edge"><title>[ns&#45;0]fight_for_stealed:[ns&#45;0]fight_for_stealed&#45;&gt;#answer(False, [ns&#45;0]fight_for_stealed, [ns&#45;0]finish_fight_for_stealed__hero_died):#answer(False, [ns&#45;0]fight_for_stealed, [ns&#45;0]finish_fight_for_stealed__hero_died)</title>
<path fill="none" stroke="black" d="M367.832,-254.267C355.994,-234.803 342.97,-213.392 336.733,-203.138"/>
</g>
<!-- #answer(True, [ns&#45;0]fight_for_stealed, [ns&#45;0]finish_fight_for_stealed__delivery) -->
<g id="node16" class="node"><title>#answer(True, [ns&#45;0]fight_for_stealed, [ns&#45;0]finish_fight_for_stealed__delivery)</title>
<polygon fill="#ffffff" stroke="none" points="492,-195 492,-209 623,-209 623,-195 492,-195"/>
<text text-anchor="start" x="493" y="-199.5" font-family="Times,serif" font-size="10.00">ИСТИНА</text>
<polygon fill="#eeeeee" stroke="none" points="492,-182 492,-195 623,-195 623,-182 492,-182"/>
<text text-anchor="start" x="493" y="-187" font-family="Times,serif" font-weight="bold" font-size="10.00">сообщение:</text>
<text text-anchor="start" x="545" y="-187" font-family="Times,serif" font-size="10.00"> delivery_returned</text>
</g>
<!-- [ns&#45;0]fight_for_stealed&#45;&gt;#answer(True, [ns&#45;0]fight_for_stealed, [ns&#45;0]finish_fight_for_stealed__delivery) -->
<g id="edge11" class="edge"><title>[ns&#45;0]fight_for_stealed:[ns&#45;0]fight_for_stealed&#45;&gt;#answer(True, [ns&#45;0]fight_for_stealed, [ns&#45;0]finish_fight_for_stealed__delivery):#answer(True, [ns&#45;0]fight_for_stealed, [ns&#45;0]finish_fight_for_stealed__delivery)</title>
<path fill="none" stroke="black" d="M459.588,-254.267C486.821,-238.257 516.297,-220.928 535.608,-209.576"/>
</g>
<!-- [ns&#45;0]finish_steal -->
<g id="node2" class="node"><title>[ns&#45;0]finish_steal</title>
<polygon fill="#eeeeee" stroke="none" points="7.5,-380 7.5,-526 252.5,-526 252.5,-380 7.5,-380"/>
<text text-anchor="start" x="10" y="-516.5" font-family="Times,serif" font-style="italic" font-size="10.00">[ns&#45;0]finish_steal</text>
<text text-anchor="start" x="10" y="-502" font-family="Times,serif" font-size="10.00">Доставить посылку скупщику</text>
<polygon fill="#dddddd" stroke="none" points="9,-485 9,-498 252,-498 252,-485 9,-485"/>
<text text-anchor="start" x="10" y="-490" font-family="Times,serif" font-size="10.00">hero </text>
<text text-anchor="start" x="31" y="-490" font-family="Times,serif" font-weight="bold" font-size="10.00">находится в</text>
<text text-anchor="start" x="86" y="-490" font-family="Times,serif" font-size="10.00"> place_3</text>
<polygon fill="#ffffff" stroke="none" points="9,-472 9,-485 252,-485 252,-472 9,-472"/>
<text text-anchor="start" x="10" y="-477" font-family="Times,serif" font-weight="bold" font-size="10.00">выдать награду </text>
<text text-anchor="start" x="85" y="-477" font-family="Times,serif" font-size="10.00">  hero </text>
<text text-anchor="start" x="110" y="-477" font-family="Times,serif" font-weight="bold" font-size="10.00">типа </text>
<text text-anchor="start" x="134" y="-477" font-family="Times,serif" font-size="10.00"> finish_steal </text>
<text text-anchor="start" x="186" y="-477" font-family="Times,serif" font-weight="bold" font-size="10.00">в размере</text>
<text text-anchor="start" x="229" y="-477" font-family="Times,serif" font-size="10.00"> 1.50</text>
<polygon fill="#ffffff" stroke="none" points="9,-459 9,-472 252,-472 252,-459 9,-459"/>
<text text-anchor="start" x="10" y="-464" font-family="Times,serif" font-weight="bold" font-size="10.00">увеличить влияние </text>
<text text-anchor="start" x="98" y="-464" font-family="Times,serif" font-size="10.00">  person_1 </text>
<text text-anchor="start" x="143" y="-464" font-family="Times,serif" font-weight="bold" font-size="10.00">на </text>
<text text-anchor="start" x="156" y="-464" font-family="Times,serif" font-size="10.00"> &#45;1.50</text>
<polygon fill="#ffffff" stroke="none" points="9,-446 9,-459 252,-459 252,-446 9,-446"/>
<text text-anchor="start" x="10" y="-451" font-family="Times,serif" font-weight="bold" font-size="10.00">увеличить влияние </text>
<text text-anchor="start" x="98" y="-451" font-family="Times,serif" font-size="10.00">  person_9 </text>
<text text-anchor="start" x="143" y="-451" font-family="Times,serif" font-weight="bold" font-size="10.00">на </text>
<text text-anchor="start" x="156" y="-451" font-family="Times,serif" font-size="10.00"> &#45;1.50</text>
<polygon fill="#ffffff" stroke="none" points="9,-433 9,-446 252,-446 252,-433 9,-433"/>
<text text-anchor="start" x="10" y="-438" font-family="Times,serif" font-weight="bold" font-size="10.00">увеличить влияние </text>
<text text-anchor="start" x="98" y="-438" font-family="Times,serif" font-size="10.00">  person_3 </text>
<text text-anchor="start" x="143" y="-438" font-family="Times,serif" font-weight="bold" font-size="10.00">на </text>
<text text-anchor="start" x="156" y="-438" font-family="Times,serif" font-size="10.00"> 1.00</text>
<polygon fill="#eeeeee" stroke="none" points="9,-420 9,-433 252,-433 252,-420 9,-420"/>
<text text-anchor="start" x="10" y="-425" font-family="Times,serif" font-weight="bold" font-size="10.00">результаты:</text>
<text text-anchor="start" x="10" y="-412" font-family="Times,serif" font-weight="bold" font-size="10.00">person_1</text>
<text text-anchor="start" x="132" y="-411" font-family="Times,serif" font-size="10.00">failed</text>
<text text-anchor="start" x="10" y="-399" font-family="Times,serif" font-weight="bold" font-size="10.00">person_3</text>
<text text-anchor="start" x="132" y="-398" font-family="Times,serif" font-size="10.00">successed</text>
<text text-anchor="start" x="10" y="-386" font-family="Times,serif" font-weight="bold" font-size="10.00">person_9</text>
<text text-anchor="start" x="132" y="-385" font-family="Times,serif" font-size="10.00">failed</text>
<polygon fill="none" stroke="black" points="7.5,-380 7.5,-526 252.5,-526 252.5,-380 7.5,-380"/>
</g>
<!-- [ns&#45;0]finish_fight_for_stealed__delivery -->
<g id="node3" class="node"><title>[ns&#45;0]finish_fight_for_stealed__delivery</title>
<polygon fill="#eeeeee" stroke="none" points="458.5,-4.5 458.5,-137.5 761.5,-137.5 761.5,-4.5 458.5,-4.5"/>
<text text-anchor="start" x="461" y="-127.5" font-family="Times,serif" font-style="italic" font-size="10.00">[ns&#45;0]finish_fight_for_stealed__delivery</text>
<text text-anchor="start" x="461" y="-113" font-family="Times,serif" font-size="10.00">Доставить посылку получателю</text>
<polygon fill="#dddddd" stroke="none" points="460,-96 460,-109 761,-109 761,-96 460,-96"/>
<text text-anchor="start" x="461" y="-101" font-family="Times,serif" font-size="10.00">hero </text>
<text text-anchor="start" x="482" y="-101" font-family="Times,serif" font-weight="bold" font-size="10.00">находится в</text>
<text text-anchor="start" x="537" y="-101" font-family="Times,serif" font-size="10.00"> place_9</text>
<polygon fill="#ffffff" stroke="none" points="460,-83 460,-96 761,-96 761,-83 460,-83"/>
<text text-anchor="start" x="461" y="-88" font-family="Times,serif" font-weight="bold" font-size="10.00">выдать награду </text>
<text text-anchor="start" x="536" y="-88" font-family="Times,serif" font-size="10.00">  hero </text>
<text text-anchor="start" x="561" y="-88" font-family="Times,serif" font-weight="bold" font-size="10.00">типа </text>
<text text-anchor="start" x="585" y="-88" font-family="Times,serif" font-size="10.00"> finish_delivery </text>
<text text-anchor="start" x="652" y="-88" font-family="Times,serif" font-weight="bold" font-size="10.00">в размере</text>
<text text-anchor="start" x="695" y="-88" font-family="Times,serif" font-size="10.00"> 1.00</text>
<polygon fill="#ffffff" stroke="none" points="460,-70 460,-83 761,-83 761,-70 460,-70"/>
<text text-anchor="start" x="461" y="-75" font-family="Times,serif" font-weight="bold" font-size="10.00">увеличить влияние </text>
<text text-anchor="start" x="549" y="-75" font-family="Times,serif" font-size="10.00">  person_1 </text>
<text text-anchor="start" x="594" y="-75" font-family="Times,serif" font-weight="bold" font-size="10.00">на </text>
<text text-anchor="start" x="607" y="-75" font-family="Times,serif" font-size="10.00"> 1.00</text>
<polygon fill="#ffffff" stroke="none" points="460,-57 460,-70 761,-70 761,-57 460,-57"/>
<text text-anchor="start" x="461" y="-62" font-family="Times,serif" font-weight="bold" font-size="10.00">увеличить влияние </text>
<text text-anchor="start" x="549" y="-62" font-family="Times,serif" font-size="10.00">  person_9 </text>
<text text-anchor="start" x="594" y="-62" font-family="Times,serif" font-weight="bold" font-size="10.00">на </text>
<text text-anchor="start" x="607" y="-62" font-family="Times,serif" font-size="10.00"> 1.00</text>
<polygon fill="#eeeeee" stroke="none" points="460,-44 460,-57 761,-57 761,-44 460,-44"/>
<text text-anchor="start" x="461" y="-49" font-family="Times,serif" font-weight="bold" font-size="10.00">результаты:</text>
<text text-anchor="start" x="461" y="-36" font-family="Times,serif" font-weight="bold" font-size="10.00">person_1</text>
<text text-anchor="start" x="633" y="-35" font-family="Times,serif" font-size="10.00">successed</text>
<text text-anchor="start" x="461" y="-23" font-family="Times,serif" font-weight="bold" font-size="10.00">person_3</text>
<text text-anchor="start" x="633" y="-22" font-family="Times,serif" font-size="10.00">neutral</text>
<text text-anchor="start" x="461" y="-10" font-family="Times,serif" font-weight="bold" font-size="10.00">person_9</text>
<text text-anchor="start" x="633" y="-9" font-family="Times,serif" font-size="10.00">successed</text>
<polygon fill="none" stroke="black" points="458.5,-4.5 458.5,-137.5 761.5,-137.5 761.5,-4.5 458.5,-4.5"/>
</g>
<!-- [ns&#45;0]start -->
<g id="node4" class="node"><title>[ns&#45;0]start</title>
<polygon fill="#eeeeee" stroke="none" points="603.5,-716.5 603.5,-771.5 720.5,-771.5 720.5,-716.5 603.5,-716.5"/>
<text text-anchor="start" x="606" y="-761.5" font-family="Times,serif" font-style="italic" font-size="10.00">[ns&#45;0]start</text>
<text text-anchor="start" x="673.5" y="-761.5" font-family="Times,serif" font-weight="bold" font-size="10.00">delivery</text>
<text text-anchor="start" x="606" y="-747" font-family="Times,serif" font-size="10.00">Начало: доставка</text>
<polygon fill="#dddddd" stroke="none" points="605,-730 605,-743 720,-743 720,-730 605,-730"/>
<text text-anchor="start" x="606" y="-735" font-family="Times,serif" font-size="10.00">hero </text>
<text text-anchor="start" x="627" y="-735" font-family="Times,serif" font-weight="bold" font-size="10.00">находится в</text>
<text text-anchor="start" x="682" y="-735" font-family="Times,serif" font-size="10.00"> place_1</text>
<polygon fill="#ffffff" stroke="none" points="605,-717 605,-730 720,-730 720,-717 605,-717"/>
<text text-anchor="start" x="606" y="-722" font-family="Times,serif" font-weight="bold" font-size="10.00">сообщение:</text>
<text text-anchor="start" x="658" y="-722" font-family="Times,serif" font-size="10.00"> intro</text>
<polygon fill="none" stroke="black" points="603.5,-716.5 603.5,-771.5 720.5,-771.5 720.5,-716.5 603.5,-716.5"/>
</g>
<!-- [ns&#45;0]delivery_choice -->
<g id="node7" class="node"><title>[ns&#45;0]delivery_choice</title>
<polygon fill="#ddddff" stroke="none" points="590,-642.5 590,-671.5 734,-671.5 734,-642.5 590,-642.5"/>
<text text-anchor="start" x="592" y="-661.5" font-family="Times,serif" font-style="italic" font-size="10.00">[ns&#45;0]delivery_choice</text>
<text text-anchor="start" x="592" y="-647" font-family="Times,serif" font-size="10.00">Решение: доставить или украсть</text>
<polygon fill="none" stroke="black" points="590,-642.5 590,-671.5 734,-671.5 734,-642.5 590,-642.5"/>
</g>
<!-- [ns&#45;0]start&#45;&gt;[ns&#45;0]delivery_choice -->
<g id="edge13" class="edge"><title>[ns&#45;0]start:[ns&#45;0]start&#45;&gt;[ns&#45;0]delivery_choice:[ns&#45;0]delivery_choice</title>
<path fill="none" stroke="black" d="M662,-716.105C662,-705.132 662,-692.546 662,-681.9"/>
<polygon fill="black" stroke="black" points="665.5,-681.657 662,-671.657 658.5,-681.657 665.5,-681.657"/>
</g>
<!-- [ns&#45;0]delivery_stealed -->
<g id="node5" class="node"><title>[ns&#45;0]delivery_stealed</title>
<polygon fill="#ddffdd" stroke="none" points="286.5,-419 286.5,-487 497.5,-487 497.5,-419 286.5,-419"/>
<text text-anchor="start" x="289" y="-477.5" font-family="Times,serif" font-style="italic" font-size="10.00">[ns&#45;0]delivery_stealed</text>
<text text-anchor="start" x="289" y="-463" font-family="Times,serif" font-size="10.00">письмо украдено</text>
<polygon fill="#cceecc" stroke="none" points="288,-446 288,-459 497,-459 497,-446 288,-446"/>
<text text-anchor="start" x="289" y="-451" font-family="Times,serif" font-size="10.00">hero </text>
<text text-anchor="start" x="310" y="-451" font-family="Times,serif" font-weight="bold" font-size="10.00">прошёл</text>
<text text-anchor="start" x="344" y="-451" font-family="Times,serif" font-size="10.00"> 67%</text>
<text text-anchor="start" x="366" y="-451" font-family="Times,serif" font-weight="bold" font-size="10.00"> дороги от</text>
<text text-anchor="start" x="412" y="-451" font-family="Times,serif" font-size="10.00"> place_1 </text>
<text text-anchor="start" x="449" y="-451" font-family="Times,serif" font-weight="bold" font-size="10.00">до</text>
<text text-anchor="start" x="460" y="-451" font-family="Times,serif" font-size="10.00"> place_9</text>
<polygon fill="#eeffee" stroke="none" points="288,-433 288,-446 497,-446 497,-433 288,-433"/>
<text text-anchor="start" x="289" y="-438" font-family="Times,serif" font-weight="bold" font-size="10.00">сообщение:</text>
<text text-anchor="start" x="341" y="-438" font-family="Times,serif" font-size="10.00"> delivery_stealed</text>
<polygon fill="#eeffee" stroke="none" points="288,-420 288,-433 497,-433 497,-420 288,-420"/>
<text text-anchor="start" x="289" y="-425" font-family="Times,serif" font-weight="bold" font-size="10.00">отправить </text>
<text text-anchor="start" x="339" y="-425" font-family="Times,serif" font-size="10.00"> hero</text>
<text text-anchor="start" x="360" y="-425" font-family="Times,serif" font-weight="bold" font-size="10.00">бродить в округе</text>
<polygon fill="none" stroke="black" points="286.5,-419 286.5,-487 497.5,-487 497.5,-419 286.5,-419"/>
</g>
<!-- [ns&#45;0]delivery_stealed&#45;&gt;[ns&#45;0]fight_for_stealed -->
<g id="edge16" class="edge"><title>[ns&#45;0]delivery_stealed:[ns&#45;0]delivery_stealed&#45;&gt;[ns&#45;0]fight_for_stealed:[ns&#45;0]fight_for_stealed</title>
<path fill="none" stroke="black" d="M392,-418.916C392,-397.725 392,-369.824 392,-345.962"/>
<polygon fill="black" stroke="black" points="395.5,-345.668 392,-335.668 388.5,-345.668 395.5,-345.668"/>
</g>
<!-- [ns&#45;0]finish_fight_for_stealed__hero_died -->
<g id="node6" class="node"><title>[ns&#45;0]finish_fight_for_stealed__hero_died</title>
<polygon fill="#eeeeee" stroke="none" points="137.5,-24 137.5,-118 424.5,-118 424.5,-24 137.5,-24"/>
<text text-anchor="start" x="140" y="-108.5" font-family="Times,serif" font-style="italic" font-size="10.00">[ns&#45;0]finish_fight_for_stealed__hero_died</text>
<text text-anchor="start" x="140" y="-94" font-family="Times,serif" font-size="10.00">Герой не смог вернуть украденное письмо</text>
<polygon fill="#ffffff" stroke="none" points="139,-77 139,-90 424,-90 424,-77 139,-77"/>
<text text-anchor="start" x="140" y="-82" font-family="Times,serif" font-weight="bold" font-size="10.00">сообщение:</text>
<text text-anchor="start" x="192" y="-82" font-family="Times,serif" font-size="10.00"> finish_fight_for_stealed__hero_died</text>
<polygon fill="#eeeeee" stroke="none" points="139,-64 139,-77 424,-77 424,-64 139,-64"/>
<text text-anchor="start" x="140" y="-69" font-family="Times,serif" font-weight="bold" font-size="10.00">результаты:</text>
<text text-anchor="start" x="140" y="-56" font-family="Times,serif" font-weight="bold" font-size="10.00">person_1</text>
<text text-anchor="start" x="321" y="-55" font-family="Times,serif" font-size="10.00">neutral</text>
<text text-anchor="start" x="140" y="-43" font-family="Times,serif" font-weight="bold" font-size="10.00">person_3</text>
<text text-anchor="start" x="321" y="-42" font-family="Times,serif" font-size="10.00">neutral</text>
<text text-anchor="start" x="140" y="-30" font-family="Times,serif" font-weight="bold" font-size="10.00">person_9</text>
<text text-anchor="start" x="321" y="-29" font-family="Times,serif" font-size="10.00">neutral</text>
<polygon fill="none" stroke="black" points="137.5,-24 137.5,-118 424.5,-118 424.5,-24 137.5,-24"/>
</g>
<!-- #option([ns&#45;0]delivery_choice, [ns&#45;0]finish_steal) -->
<g id="node12" class="node"><title>#option([ns&#45;0]delivery_choice, [ns&#45;0]finish_steal)</title>
<polygon fill="#ffffff" stroke="none" points="142,-583 142,-597 241,-597 241,-583 142,-583"/>
<text text-anchor="start" x="143" y="-587.5" font-family="Times,serif" font-size="10.00">steal</text>
<polygon fill="#eeeeee" stroke="none" points="142,-570 142,-583 241,-583 241,-570 142,-570"/>
<text text-anchor="start" x="143" y="-575" font-family="Times,serif" font-weight="bold" font-size="10.00">сообщение:</text>
<text text-anchor="start" x="195" y="-575" font-family="Times,serif" font-size="10.00"> start_steal</text>
</g>
<!-- [ns&#45;0]delivery_choice&#45;&gt;#option([ns&#45;0]delivery_choice, [ns&#45;0]finish_steal) -->
<g id="edge3" class="edge"><title>[ns&#45;0]delivery_choice:[ns&#45;0]delivery_choice&#45;&gt;#option([ns&#45;0]delivery_choice, [ns&#45;0]finish_steal):#option([ns&#45;0]delivery_choice, [ns&#45;0]finish_steal)</title>
<path fill="none" stroke="black" stroke-dasharray="1,5" d="M589.953,-645.139C493.316,-630.572 324.222,-605.082 240.649,-592.484"/>
</g>
<!-- #option([ns&#45;0]delivery_choice, [ns&#45;0]delivery_stealed) -->
<g id="node13" class="node"><title>#option([ns&#45;0]delivery_choice, [ns&#45;0]delivery_stealed)</title>
<polygon fill="#ffffff" stroke="none" points="396,-583 396,-597 510,-597 510,-583 396,-583"/>
<text text-anchor="start" x="397" y="-587.5" font-family="Times,serif" font-size="10.00">delivery</text>
<polygon fill="#eeeeee" stroke="none" points="396,-570 396,-583 510,-583 510,-570 396,-570"/>
<text text-anchor="start" x="397" y="-575" font-family="Times,serif" font-weight="bold" font-size="10.00">сообщение:</text>
<text text-anchor="start" x="449" y="-575" font-family="Times,serif" font-size="10.00"> start_delivery</text>
</g>
<!-- [ns&#45;0]delivery_choice&#45;&gt;#option([ns&#45;0]delivery_choice, [ns&#45;0]delivery_stealed) -->
<g id="edge5" class="edge"><title>[ns&#45;0]delivery_choice:[ns&#45;0]delivery_choice&#45;&gt;#option([ns&#45;0]delivery_choice, [ns&#45;0]delivery_stealed):#option([ns&#45;0]delivery_choice, [ns&#45;0]delivery_stealed)</title>
<path fill="none" stroke="black" stroke-dasharray="1,5" d="M622.197,-642.478C584.06,-629.523 526.971,-610.129 489.852,-597.519"/>
</g>
<!-- #option([ns&#45;0]delivery_choice, [ns&#45;0]finish_fake_delivery) -->
<g id="node14" class="node"><title>#option([ns&#45;0]delivery_choice, [ns&#45;0]finish_fake_delivery)</title>
<polygon fill="#ffffff" stroke="none" points="839,-583 839,-597 937,-597 937,-583 839,-583"/>
<text text-anchor="start" x="840" y="-587.5" font-family="Times,serif" font-size="10.00">fake</text>
<polygon fill="#eeeeee" stroke="none" points="839,-570 839,-583 937,-583 937,-570 839,-570"/>
<text text-anchor="start" x="840" y="-575" font-family="Times,serif" font-weight="bold" font-size="10.00">сообщение:</text>
<text text-anchor="start" x="892" y="-575" font-family="Times,serif" font-size="10.00"> start_fake</text>
</g>
<!-- [ns&#45;0]delivery_choice&#45;&gt;#option([ns&#45;0]delivery_choice, [ns&#45;0]finish_fake_delivery) -->
<g id="edge7" class="edge"><title>[ns&#45;0]delivery_choice:[ns&#45;0]delivery_choice&#45;&gt;#option([ns&#45;0]delivery_choice, [ns&#45;0]finish_fake_delivery):#option([ns&#45;0]delivery_choice, [ns&#45;0]finish_fake_delivery)</title>
<path fill="none" stroke="black" stroke-dasharray="1,5" d="M705.041,-642.478C746.279,-629.523 808.012,-610.129 848.15,-597.519"/>
</g>
<!-- #option([ns&#45;0]delivery_choice, [ns&#45;0]dummy_state) -->
<g id="node15" class="node"><title>#option([ns&#45;0]delivery_choice, [ns&#45;0]dummy_state)</title>
<polygon fill="#ffffff" stroke="none" points="1124,-577 1124,-591 1174,-591 1174,-577 1124,-577"/>
<text text-anchor="start" x="1125" y="-581.5" font-family="Times,serif" font-size="10.00">dummy_lie</text>
</g>
<!-- [ns&#45;0]delivery_choice&#45;&gt;#option([ns&#45;0]delivery_choice, [ns&#45;0]dummy_state) -->
<g id="edge9" class="edge"><title>[ns&#45;0]delivery_choice:[ns&#45;0]delivery_choice&#45;&gt;#option([ns&#45;0]delivery_choice, [ns&#45;0]dummy_state):#option([ns&#45;0]delivery_choice, [ns&#45;0]dummy_state)</title>
<path fill="none" stroke="black" stroke-dasharray="1,5" d="M734.121,-645.486C845.062,-629.311 1052.27,-599.102 1123.89,-588.661"/>
</g>
<!-- #option([ns&#45;0]delivery_choice, [ns&#45;0]finish_delivery) -->
<g id="node17" class="node"><title>#option([ns&#45;0]delivery_choice, [ns&#45;0]finish_delivery)</title>
<polygon fill="#ffffff" stroke="none" points="605,-583 605,-597 719,-597 719,-583 605,-583"/>
<text text-anchor="start" x="606" y="-587.5" font-family="Times,serif" font-size="10.00">delivery</text>
<polygon fill="#eeeeee" stroke="none" points="605,-570 605,-583 719,-583 719,-570 605,-570"/>
<text text-anchor="start" x="606" y="-575" font-family="Times,serif" font-weight="bold" font-size="10.00">сообщение:</text>
<text text-anchor="start" x="658" y="-575" font-family="Times,serif" font-size="10.00"> start_delivery</text>
</g>
<!-- [ns&#45;0]delivery_choice&#45;&gt;#option([ns&#45;0]delivery_choice, [ns&#45;0]finish_delivery) -->
<g id="edge14" class="edge"><title>[ns&#45;0]delivery_choice:[ns&#45;0]delivery_choice&#45;&gt;#option([ns&#45;0]delivery_choice, [ns&#45;0]finish_delivery):#option([ns&#45;0]delivery_choice, [ns&#45;0]finish_delivery)</title>
<path fill="none" stroke="black" stroke-dasharray="1,5" d="M662,-642.31C662,-629.416 662,-610.252 662,-597.693"/>
</g>
<!-- [ns&#45;0]finish_fake_delivery -->
<g id="node8" class="node"><title>[ns&#45;0]finish_fake_delivery</title>
<polygon fill="#eeeeee" stroke="none" points="833.5,-386.5 833.5,-519.5 1116.5,-519.5 1116.5,-386.5 833.5,-386.5"/>
<text text-anchor="start" x="836" y="-509.5" font-family="Times,serif" font-style="italic" font-size="10.00">[ns&#45;0]finish_fake_delivery</text>
<text text-anchor="start" x="836" y="-495" font-family="Times,serif" font-size="10.00">Подделать письмо</text>
<polygon fill="#dddddd" stroke="none" points="835,-478 835,-491 1116,-491 1116,-478 835,-478"/>
<text text-anchor="start" x="836" y="-483" font-family="Times,serif" font-size="10.00">hero </text>
<text text-anchor="start" x="857" y="-483" font-family="Times,serif" font-weight="bold" font-size="10.00">находится в</text>
<text text-anchor="start" x="912" y="-483" font-family="Times,serif" font-size="10.00"> place_9</text>
<polygon fill="#ffffff" stroke="none" points="835,-465 835,-478 1116,-478 1116,-465 835,-465"/>
<text text-anchor="start" x="836" y="-470" font-family="Times,serif" font-weight="bold" font-size="10.00">выдать награду </text>
<text text-anchor="start" x="911" y="-470" font-family="Times,serif" font-size="10.00">  hero </text>
<text text-anchor="start" x="936" y="-470" font-family="Times,serif" font-weight="bold" font-size="10.00">типа </text>
<text text-anchor="start" x="960" y="-470" font-family="Times,serif" font-size="10.00"> finish_fake_delivery </text>
<text text-anchor="start" x="1050" y="-470" font-family="Times,serif" font-weight="bold" font-size="10.00">в размере</text>
<text text-anchor="start" x="1093" y="-470" font-family="Times,serif" font-size="10.00"> 2.00</text>
<polygon fill="#ffffff" stroke="none" points="835,-452 835,-465 1116,-465 1116,-452 835,-452"/>
<text text-anchor="start" x="836" y="-457" font-family="Times,serif" font-weight="bold" font-size="10.00">увеличить влияние </text>
<text text-anchor="start" x="924" y="-457" font-family="Times,serif" font-size="10.00">  person_1 </text>
<text text-anchor="start" x="969" y="-457" font-family="Times,serif" font-weight="bold" font-size="10.00">на </text>
<text text-anchor="start" x="982" y="-457" font-family="Times,serif" font-size="10.00"> &#45;1.00</text>
<polygon fill="#ffffff" stroke="none" points="835,-439 835,-452 1116,-452 1116,-439 835,-439"/>
<text text-anchor="start" x="836" y="-444" font-family="Times,serif" font-weight="bold" font-size="10.00">увеличить влияние </text>
<text text-anchor="start" x="924" y="-444" font-family="Times,serif" font-size="10.00">  person_9 </text>
<text text-anchor="start" x="969" y="-444" font-family="Times,serif" font-weight="bold" font-size="10.00">на </text>
<text text-anchor="start" x="982" y="-444" font-family="Times,serif" font-size="10.00"> &#45;1.00</text>
<polygon fill="#eeeeee" stroke="none" points="835,-426 835,-439 1116,-439 1116,-426 835,-426"/>
<text text-anchor="start" x="836" y="-431" font-family="Times,serif" font-weight="bold" font-size="10.00">результаты:</text>
<text text-anchor="start" x="836" y="-418" font-family="Times,serif" font-weight="bold" font-size="10.00">person_1</text>
<text text-anchor="start" x="977" y="-417" font-family="Times,serif" font-size="10.00">failed</text>
<text text-anchor="start" x="836" y="-405" font-family="Times,serif" font-weight="bold" font-size="10.00">person_3</text>
<text text-anchor="start" x="977" y="-404" font-family="Times,serif" font-size="10.00">neutral</text>
<text text-anchor="start" x="836" y="-392" font-family="Times,serif" font-weight="bold" font-size="10.00">person_9</text>
<text text-anchor="start" x="977" y="-391" font-family="Times,serif" font-size="10.00">failed</text>
<polygon fill="none" stroke="black" points="833.5,-386.5 833.5,-519.5 1116.5,-519.5 1116.5,-386.5 833.5,-386.5"/>
</g>
<!-- [ns&#45;0]finish_delivery -->
<g id="node9" class="node"><title>[ns&#45;0]finish_delivery</title>
<polygon fill="#eeeeee" stroke="none" points="531.5,-386.5 531.5,-519.5 792.5,-519.5 792.5,-386.5 531.5,-386.5"/>
<text text-anchor="start" x="534" y="-509.5" font-family="Times,serif" font-style="italic" font-size="10.00">[ns&#45;0]finish_delivery</text>
<text text-anchor="start" x="534" y="-495" font-family="Times,serif" font-size="10.00">Доставить посылку получателю</text>
<polygon fill="#dddddd" stroke="none" points="533,-478 533,-491 792,-491 792,-478 533,-478"/>
<text text-anchor="start" x="534" y="-483" font-family="Times,serif" font-size="10.00">hero </text>
<text text-anchor="start" x="555" y="-483" font-family="Times,serif" font-weight="bold" font-size="10.00">находится в</text>
<text text-anchor="start" x="610" y="-483" font-family="Times,serif" font-size="10.00"> place_9</text>
<polygon fill="#ffffff" stroke="none" points="533,-465 533,-478 792,-478 792,-465 533,-465"/>
<text text-anchor="start" x="534" y="-470" font-family="Times,serif" font-weight="bold" font-size="10.00">выдать награду </text>
<text text-anchor="start" x="609" y="-470" font-family="Times,serif" font-size="10.00">  hero </text>
<text text-anchor="start" x="634" y="-470" font-family="Times,serif" font-weight="bold" font-size="10.00">типа </text>
<text text-anchor="start" x="658" y="-470" font-family="Times,serif" font-size="10.00"> finish_delivery </text>
<text text-anchor="start" x="725" y="-470" font-family="Times,serif" font-weight="bold" font-size="10.00">в размере</text>
<text text-anchor="start" x="768" y="-470" font-family="Times,serif" font-size="10.00"> 1.00</text>
<polygon fill="#ffffff" stroke="none" points="533,-452 533,-465 792,-465 792,-452 533,-452"/>
<text text-anchor="start" x="534" y="-457" font-family="Times,serif" font-weight="bold" font-size="10.00">увеличить влияние </text>
<text text-anchor="start" x="622" y="-457" font-family="Times,serif" font-size="10.00">  person_1 </text>
<text text-anchor="start" x="667" y="-457" font-family="Times,serif" font-weight="bold" font-size="10.00">на </text>
<text text-anchor="start" x="680" y="-457" font-family="Times,serif" font-size="10.00"> 1.00</text>
<polygon fill="#ffffff" stroke="none" points="533,-439 533,-452 792,-452 792,-439 533,-439"/>
<text text-anchor="start" x="534" y="-444" font-family="Times,serif" font-weight="bold" font-size="10.00">увеличить влияние </text>
<text text-anchor="start" x="622" y="-444" font-family="Times,serif" font-size="10.00">  person_9 </text>
<text text-anchor="start" x="667" y="-444" font-family="Times,serif" font-weight="bold" font-size="10.00">на </text>
<text text-anchor="start" x="680" y="-444" font-family="Times,serif" font-size="10.00"> 1.00</text>
<polygon fill="#eeeeee" stroke="none" points="533,-426 533,-439 792,-439 792,-426 533,-426"/>
<text text-anchor="start" x="534" y="-431" font-family="Times,serif" font-weight="bold" font-size="10.00">результаты:</text>
<text text-anchor="start" x="534" y="-418" font-family="Times,serif" font-weight="bold" font-size="10.00">person_1</text>
<text text-anchor="start" x="664" y="-417" font-family="Times,serif" font-size="10.00">successed</text>
<text text-anchor="start" x="534" y="-405" font-family="Times,serif" font-weight="bold" font-size="10.00">person_3</text>
<text text-anchor="start" x="664" y="-404" font-family="Times,serif" font-size="10.00">neutral</text>
<text text-anchor="start" x="534" y="-392" font-family="Times,serif" font-weight="bold" font-size="10.00">person_9</text>
<text text-anchor="start" x="664" y="-391" font-family="Times,serif" font-size="10.00">successed</text>
<polygon fill="none" stroke="black" points="531.5,-386.5 531.5,-519.5 792.5,-519.5 792.5,-386.5 531.5,-386.5"/>
</g>
<!-- [ns&#45;0]dummy_state -->
<g id="node10" class="node"><title>[ns&#45;0]dummy_state</title>
<polygon fill="#eeeeee" stroke="none" points="1150.5,-412.5 1150.5,-493.5 1455.5,-493.5 1455.5,-412.5 1150.5,-412.5"/>
<text text-anchor="start" x="1153" y="-483.5" font-family="Times,serif" font-style="italic" font-size="10.00">[ns&#45;0]dummy_state</text>
<text text-anchor="start" x="1153" y="-469" font-family="Times,serif" font-size="10.00">заглушка, чтобы можно было управлять появлением подделки письма</text>
<polygon fill="#eeeeee" stroke="none" points="1152,-452 1152,-465 1455,-465 1455,-452 1152,-452"/>
<text text-anchor="start" x="1153" y="-457" font-family="Times,serif" font-weight="bold" font-size="10.00">результаты:</text>
<text text-anchor="start" x="1153" y="-444" font-family="Times,serif" font-weight="bold" font-size="10.00">person_1</text>
<text text-anchor="start" x="1305" y="-443" font-family="Times,serif" font-size="10.00">neutral</text>
<text text-anchor="start" x="1153" y="-431" font-family="Times,serif" font-weight="bold" font-size="10.00">person_3</text>
<text text-anchor="start" x="1305" y="-430" font-family="Times,serif" font-size="10.00">neutral</text>
<text text-anchor="start" x="1153" y="-418" font-family="Times,serif" font-weight="bold" font-size="10.00">person_9</text>
<text text-anchor="start" x="1305" y="-417" font-family="Times,serif" font-size="10.00">neutral</text>
<polygon fill="none" stroke="black" points="1150.5,-412.5 1150.5,-493.5 1455.5,-493.5 1455.5,-412.5 1150.5,-412.5"/>
</g>
<!-- #answer(False, [ns&#45;0]fight_for_stealed, [ns&#45;0]finish_fight_for_stealed__hero_died)&#45;&gt;[ns&#45;0]finish_fight_for_stealed__hero_died -->
<g id="edge2" class="edge"><title>#answer(False, [ns&#45;0]fight_for_stealed, [ns&#45;0]finish_fight_for_stealed__hero_died):#answer(False, [ns&#45;0]fight_for_stealed, [ns&#45;0]finish_fight_for_stealed__hero_died)&#45;&gt;[ns&#45;0]finish_fight_for_stealed__hero_died:[ns&#45;0]finish_fight_for_stealed__hero_died</title>
<path fill="none" stroke="black" d="M330.35,-188.731C325.508,-177.278 314.788,-151.921 304.572,-127.756"/>
<polygon fill="black" stroke="black" points="307.663,-126.079 300.545,-118.231 301.215,-128.805 307.663,-126.079"/>
</g>
<!-- #option([ns&#45;0]delivery_choice, [ns&#45;0]finish_steal)&#45;&gt;[ns&#45;0]finish_steal -->
<g id="edge4" class="edge"><title>#option([ns&#45;0]delivery_choice, [ns&#45;0]finish_steal):#option([ns&#45;0]delivery_choice, [ns&#45;0]finish_steal)&#45;&gt;[ns&#45;0]finish_steal:[ns&#45;0]finish_steal</title>
<path fill="none" stroke="black" stroke-dasharray="1,5" d="M184.928,-570.159C180.75,-561.324 174.808,-548.758 168.363,-535.128"/>
<polygon fill="black" stroke="black" points="171.507,-533.59 164.068,-526.046 165.179,-536.583 171.507,-533.59"/>
</g>
<!-- #option([ns&#45;0]delivery_choice, [ns&#45;0]delivery_stealed)&#45;&gt;[ns&#45;0]delivery_stealed -->
<g id="edge6" class="edge"><title>#option([ns&#45;0]delivery_choice, [ns&#45;0]delivery_stealed):#option([ns&#45;0]delivery_choice, [ns&#45;0]delivery_stealed)&#45;&gt;[ns&#45;0]delivery_stealed:[ns&#45;0]delivery_stealed</title>
<path fill="none" stroke="black" stroke-dasharray="1,5" d="M446.928,-570.159C438.849,-553.075 424.172,-522.036 412.021,-496.34"/>
<polygon fill="black" stroke="black" points="415.115,-494.694 407.676,-487.15 408.786,-497.686 415.115,-494.694"/>
</g>
<!-- #option([ns&#45;0]delivery_choice, [ns&#45;0]finish_fake_delivery)&#45;&gt;[ns&#45;0]finish_fake_delivery -->
<g id="edge8" class="edge"><title>#option([ns&#45;0]delivery_choice, [ns&#45;0]finish_fake_delivery):#option([ns&#45;0]delivery_choice, [ns&#45;0]finish_fake_delivery)&#45;&gt;[ns&#45;0]finish_fake_delivery:[ns&#45;0]finish_fake_delivery</title>
<path fill="none" stroke="black" stroke-dasharray="1,5" d="M896.66,-570.159C903.614,-559.848 913.996,-544.454 924.945,-528.219"/>
<polygon fill="black" stroke="black" points="928.018,-529.923 930.708,-519.675 922.214,-526.009 928.018,-529.923"/>
</g>
<!-- #option([ns&#45;0]delivery_choice, [ns&#45;0]dummy_state)&#45;&gt;[ns&#45;0]dummy_state -->
<g id="edge10" class="edge"><title>#option([ns&#45;0]delivery_choice, [ns&#45;0]dummy_state):#option([ns&#45;0]delivery_choice, [ns&#45;0]dummy_state)&#45;&gt;[ns&#45;0]dummy_state:[ns&#45;0]dummy_state</title>
<path fill="none" stroke="black" stroke-dasharray="1,5" d="M1156.43,-576.778C1172.85,-563.022 1213.51,-528.963 1247.85,-500.198"/>
<polygon fill="black" stroke="black" points="1250.1,-502.878 1255.52,-493.773 1245.61,-497.512 1250.1,-502.878"/>
</g>
<!-- #answer(True, [ns&#45;0]fight_for_stealed, [ns&#45;0]finish_fight_for_stealed__delivery)&#45;&gt;[ns&#45;0]finish_fight_for_stealed__delivery -->
<g id="edge12" class="edge"><title>#answer(True, [ns&#45;0]fight_for_stealed, [ns&#45;0]finish_fight_for_stealed__delivery):#answer(True, [ns&#45;0]fight_for_stealed, [ns&#45;0]finish_fight_for_stealed__delivery)&#45;&gt;[ns&#45;0]finish_fight_for_stealed__delivery:[ns&#45;0]finish_fight_for_stealed__delivery</title>
<path fill="none" stroke="black" d="M562.472,-182.3C566.297,-173.423 571.754,-160.76 577.615,-147.159"/>
<polygon fill="black" stroke="black" points="580.979,-148.196 581.722,-137.627 574.55,-145.426 580.979,-148.196"/>
</g>
<!-- #option([ns&#45;0]delivery_choice, [ns&#45;0]finish_delivery)&#45;&gt;[ns&#45;0]finish_delivery -->
<g id="edge15" class="edge"><title>#option([ns&#45;0]delivery_choice, [ns&#45;0]finish_delivery):#option([ns&#45;0]delivery_choice, [ns&#45;0]finish_delivery)&#45;&gt;[ns&#45;0]finish_delivery:[ns&#45;0]finish_delivery</title>
<path fill="none" stroke="black" stroke-dasharray="1,5" d="M662,-570.159C662,-560.227 662,-545.577 662,-530.003"/>
<polygon fill="black" stroke="black" points="665.5,-529.675 662,-519.675 658.5,-529.675 665.5,-529.675"/>
</g>
</g>
</svg>
