<?xml version="1.0" encoding="UTF-8" standalone="no"?>
<!DOCTYPE svg PUBLIC "-//W3C//DTD SVG 1.1//EN"
 "http://www.w3.org/Graphics/SVG/1.1/DTD/svg11.dtd">
<!-- Generated by graphviz version 2.34.0 (20130907.0221)
 -->
<!-- Title: quest Pages: 1 -->
<svg width="501pt" height="344pt"
 viewBox="0.00 0.00 501.00 344.00" xmlns="http://www.w3.org/2000/svg" xmlns:xlink="http://www.w3.org/1999/xlink">
<g id="graph0" class="graph" transform="scale(1 1) rotate(0) translate(4 340)">
<title>quest</title>
<polygon fill="white" stroke="white" points="-4,4 -4,-340 497,-340 497,4 -4,4"/>
<!-- [ns&#45;0]finish_steal -->
<g id="node1" class="node"><title>[ns&#45;0]finish_steal</title>
<polygon fill="#eeeeee" stroke="none" points="7.5,-4.5 7.5,-85.5 226.5,-85.5 226.5,-4.5 7.5,-4.5"/>
<text text-anchor="start" x="10" y="-75.5" font-family="Times,serif" font-style="italic" font-size="10.00">[ns&#45;0]finish_steal</text>
<text text-anchor="start" x="114.5" y="-75.5" font-family="Times,serif" font-weight="bold" font-size="10.00">finish_steal</text>
<text text-anchor="start" x="191.5" y="-75.5" font-family="Times,serif" font-weight="bold" font-size="10.00">failed</text>
<text text-anchor="start" x="10" y="-61" font-family="Times,serif" font-size="10.00">Доставить посылку скупщику</text>
<polygon fill="#dddddd" stroke="none" points="9,-44 9,-57 182,-57 182,-44 9,-44"/>
<text text-anchor="start" x="10" y="-49" font-family="Times,serif" font-size="10.00">hero </text>
<text text-anchor="start" x="31" y="-49" font-family="Times,serif" font-weight="bold" font-size="10.00">находится в</text>
<text text-anchor="start" x="86" y="-49" font-family="Times,serif" font-size="10.00"> place_4</text>
<polygon fill="#ffffff" stroke="none" points="9,-31 9,-44 182,-44 182,-31 9,-31"/>
<text text-anchor="start" x="10" y="-36" font-family="Times,serif" font-weight="bold" font-size="10.00">увеличить влияние </text>
<text text-anchor="start" x="98" y="-36" font-family="Times,serif" font-size="10.00">  person_1 </text>
<text text-anchor="start" x="143" y="-36" font-family="Times,serif" font-weight="bold" font-size="10.00">на </text>
<text text-anchor="start" x="156" y="-36" font-family="Times,serif" font-size="10.00"> &#45;1.00</text>
<polygon fill="#ffffff" stroke="none" points="9,-18 9,-31 182,-31 182,-18 9,-18"/>
<text text-anchor="start" x="10" y="-23" font-family="Times,serif" font-weight="bold" font-size="10.00">увеличить влияние </text>
<text text-anchor="start" x="98" y="-23" font-family="Times,serif" font-size="10.00">  person_3 </text>
<text text-anchor="start" x="143" y="-23" font-family="Times,serif" font-weight="bold" font-size="10.00">на </text>
<text text-anchor="start" x="156" y="-23" font-family="Times,serif" font-size="10.00"> &#45;1.00</text>
<polygon fill="#ffffff" stroke="none" points="9,-5 9,-18 182,-18 182,-5 9,-5"/>
<text text-anchor="start" x="10" y="-10" font-family="Times,serif" font-weight="bold" font-size="10.00">увеличить влияние </text>
<text text-anchor="start" x="98" y="-10" font-family="Times,serif" font-size="10.00">  person_4 </text>
<text text-anchor="start" x="143" y="-10" font-family="Times,serif" font-weight="bold" font-size="10.00">на </text>
<text text-anchor="start" x="156" y="-10" font-family="Times,serif" font-size="10.00"> 1.00</text>
<polygon fill="none" stroke="black" points="7.5,-4.5 7.5,-85.5 226.5,-85.5 226.5,-4.5 7.5,-4.5"/>
</g>
<!-- [ns&#45;0]start -->
<g id="node2" class="node"><title>[ns&#45;0]start</title>
<polygon fill="#eeeeee" stroke="none" points="157.5,-276.5 157.5,-331.5 274.5,-331.5 274.5,-276.5 157.5,-276.5"/>
<text text-anchor="start" x="160" y="-321.5" font-family="Times,serif" font-style="italic" font-size="10.00">[ns&#45;0]start</text>
<text text-anchor="start" x="227.5" y="-321.5" font-family="Times,serif" font-weight="bold" font-size="10.00">delivery</text>
<text text-anchor="start" x="160" y="-307" font-family="Times,serif" font-size="10.00">Начало: доставка</text>
<polygon fill="#dddddd" stroke="none" points="159,-290 159,-303 274,-303 274,-290 159,-290"/>
<text text-anchor="start" x="160" y="-295" font-family="Times,serif" font-size="10.00">hero </text>
<text text-anchor="start" x="181" y="-295" font-family="Times,serif" font-weight="bold" font-size="10.00">находится в</text>
<text text-anchor="start" x="236" y="-295" font-family="Times,serif" font-size="10.00"> place_1</text>
<polygon fill="#ffffff" stroke="none" points="159,-277 159,-290 274,-290 274,-277 159,-277"/>
<text text-anchor="start" x="160" y="-282" font-family="Times,serif" font-weight="bold" font-size="10.00">сообщение:</text>
<text text-anchor="start" x="212" y="-282" font-family="Times,serif" font-size="10.00"> intro</text>
<polygon fill="none" stroke="black" points="157.5,-276.5 157.5,-331.5 274.5,-331.5 274.5,-276.5 157.5,-276.5"/>
</g>
<!-- [ns&#45;0]delivery_choice -->
<g id="node3" class="node"><title>[ns&#45;0]delivery_choice</title>
<polygon fill="#ddddff" stroke="none" points="144,-202.5 144,-231.5 288,-231.5 288,-202.5 144,-202.5"/>
<text text-anchor="start" x="146" y="-221.5" font-family="Times,serif" font-style="italic" font-size="10.00">[ns&#45;0]delivery_choice</text>
<text text-anchor="start" x="146" y="-207" font-family="Times,serif" font-size="10.00">Решение: доставить или украсть</text>
<polygon fill="none" stroke="black" points="144,-202.5 144,-231.5 288,-231.5 288,-202.5 144,-202.5"/>
</g>
<!-- [ns&#45;0]start&#45;&gt;[ns&#45;0]delivery_choice -->
<g id="edge3" class="edge"><title>[ns&#45;0]start:[ns&#45;0]start&#45;&gt;[ns&#45;0]delivery_choice:[ns&#45;0]delivery_choice</title>
<path fill="none" stroke="black" d="M216,-276.105C216,-265.132 216,-252.546 216,-241.9"/>
<polygon fill="black" stroke="black" points="219.5,-241.657 216,-231.657 212.5,-241.657 219.5,-241.657"/>
</g>
<!-- #option([ns&#45;0]delivery_choice, [ns&#45;0]finish_steal) -->
<g id="node5" class="node"><title>#option([ns&#45;0]delivery_choice, [ns&#45;0]finish_steal)</title>
<polygon fill="#ffffff" stroke="none" points="97,-143 97,-157 196,-157 196,-143 97,-143"/>
<text text-anchor="start" x="98" y="-147.5" font-family="Times,serif" font-size="10.00">steal</text>
<polygon fill="#eeeeee" stroke="none" points="97,-130 97,-143 196,-143 196,-130 97,-130"/>
<text text-anchor="start" x="98" y="-135" font-family="Times,serif" font-weight="bold" font-size="10.00">сообщение:</text>
<text text-anchor="start" x="150" y="-135" font-family="Times,serif" font-size="10.00"> start_steal</text>
</g>
<!-- [ns&#45;0]delivery_choice&#45;&gt;#option([ns&#45;0]delivery_choice, [ns&#45;0]finish_steal) -->
<g id="edge1" class="edge"><title>[ns&#45;0]delivery_choice:[ns&#45;0]delivery_choice&#45;&gt;#option([ns&#45;0]delivery_choice, [ns&#45;0]finish_steal):#option([ns&#45;0]delivery_choice, [ns&#45;0]finish_steal)</title>
<path fill="none" stroke="black" stroke-dasharray="1,5" d="M202.503,-202.31C189.79,-189.416 170.897,-170.252 158.515,-157.693"/>
</g>
<!-- #option([ns&#45;0]delivery_choice, [ns&#45;0]finish_delivery) -->
<g id="node6" class="node"><title>#option([ns&#45;0]delivery_choice, [ns&#45;0]finish_delivery)</title>
<polygon fill="#ffffff" stroke="none" points="287,-143 287,-157 401,-157 401,-143 287,-143"/>
<text text-anchor="start" x="288" y="-147.5" font-family="Times,serif" font-size="10.00">delivery</text>
<polygon fill="#eeeeee" stroke="none" points="287,-130 287,-143 401,-143 401,-130 287,-130"/>
<text text-anchor="start" x="288" y="-135" font-family="Times,serif" font-weight="bold" font-size="10.00">сообщение:</text>
<text text-anchor="start" x="340" y="-135" font-family="Times,serif" font-size="10.00"> start_delivery</text>
</g>
<!-- [ns&#45;0]delivery_choice&#45;&gt;#option([ns&#45;0]delivery_choice, [ns&#45;0]finish_delivery) -->
<g id="edge4" class="edge"><title>[ns&#45;0]delivery_choice:[ns&#45;0]delivery_choice&#45;&gt;#option([ns&#45;0]delivery_choice, [ns&#45;0]finish_delivery):#option([ns&#45;0]delivery_choice, [ns&#45;0]finish_delivery)</title>
<path fill="none" stroke="black" stroke-dasharray="1,5" d="M240.377,-202.478C263.733,-189.523 298.697,-170.129 321.43,-157.519"/>
</g>
<!-- [ns&#45;0]finish_delivery -->
<g id="node4" class="node"><title>[ns&#45;0]finish_delivery</title>
<polygon fill="#eeeeee" stroke="none" points="261,-11 261,-79 485,-79 485,-11 261,-11"/>
<text text-anchor="start" x="263" y="-69.5" font-family="Times,serif" font-style="italic" font-size="10.00">[ns&#45;0]finish_delivery</text>
<text text-anchor="start" x="362.5" y="-69.5" font-family="Times,serif" font-weight="bold" font-size="10.00">finish_delivery</text>
<text text-anchor="start" x="440.5" y="-69.5" font-family="Times,serif" font-weight="bold" font-size="10.00">successed</text>
<text text-anchor="start" x="263" y="-55" font-family="Times,serif" font-size="10.00">Доставить посылку получателю</text>
<polygon fill="#dddddd" stroke="none" points="262,-38 262,-51 437,-51 437,-38 262,-38"/>
<text text-anchor="start" x="263" y="-43" font-family="Times,serif" font-size="10.00">hero </text>
<text text-anchor="start" x="284" y="-43" font-family="Times,serif" font-weight="bold" font-size="10.00">находится в</text>
<text text-anchor="start" x="339" y="-43" font-family="Times,serif" font-size="10.00"> place_3</text>
<polygon fill="#ffffff" stroke="none" points="262,-25 262,-38 437,-38 437,-25 262,-25"/>
<text text-anchor="start" x="263" y="-30" font-family="Times,serif" font-weight="bold" font-size="10.00">увеличить влияние </text>
<text text-anchor="start" x="351" y="-30" font-family="Times,serif" font-size="10.00">  person_1 </text>
<text text-anchor="start" x="396" y="-30" font-family="Times,serif" font-weight="bold" font-size="10.00">на </text>
<text text-anchor="start" x="409" y="-30" font-family="Times,serif" font-size="10.00"> 1.00</text>
<polygon fill="#ffffff" stroke="none" points="262,-12 262,-25 437,-25 437,-12 262,-12"/>
<text text-anchor="start" x="263" y="-17" font-family="Times,serif" font-weight="bold" font-size="10.00">увеличить влияние </text>
<text text-anchor="start" x="351" y="-17" font-family="Times,serif" font-size="10.00">  person_3 </text>
<text text-anchor="start" x="396" y="-17" font-family="Times,serif" font-weight="bold" font-size="10.00">на </text>
<text text-anchor="start" x="409" y="-17" font-family="Times,serif" font-size="10.00"> 1.00</text>
<polygon fill="none" stroke="black" points="261,-11 261,-79 485,-79 485,-11 261,-11"/>
</g>
<!-- #option([ns&#45;0]delivery_choice, [ns&#45;0]finish_steal)&#45;&gt;[ns&#45;0]finish_steal -->
<g id="edge2" class="edge"><title>#option([ns&#45;0]delivery_choice, [ns&#45;0]finish_steal):#option([ns&#45;0]delivery_choice, [ns&#45;0]finish_steal)&#45;&gt;[ns&#45;0]finish_steal:[ns&#45;0]finish_steal</title>
<path fill="none" stroke="black" stroke-dasharray="1,5" d="M142.209,-130.319C139.493,-121.234 135.644,-108.361 131.77,-95.402"/>
<polygon fill="black" stroke="black" points="135.038,-94.1151 128.82,-85.5367 128.331,-96.1202 135.038,-94.1151"/>
</g>
<!-- #option([ns&#45;0]delivery_choice, [ns&#45;0]finish_delivery)&#45;&gt;[ns&#45;0]finish_delivery -->
<g id="edge5" class="edge"><title>#option([ns&#45;0]delivery_choice, [ns&#45;0]finish_delivery):#option([ns&#45;0]delivery_choice, [ns&#45;0]finish_delivery)&#45;&gt;[ns&#45;0]finish_delivery:[ns&#45;0]finish_delivery</title>
<path fill="none" stroke="black" stroke-dasharray="1,5" d="M347.791,-130.319C350.965,-119.703 355.685,-103.915 360.186,-88.8607"/>
<polygon fill="black" stroke="black" points="363.582,-89.7196 363.093,-79.136 356.876,-87.7144 363.582,-89.7196"/>
</g>
</g>
</svg>
