<?xml version="1.0" encoding="UTF-8" standalone="no"?>
<!DOCTYPE svg PUBLIC "-//W3C//DTD SVG 1.1//EN"
 "http://www.w3.org/Graphics/SVG/1.1/DTD/svg11.dtd">
<!-- Generated by graphviz version 2.34.0 (20130907.0221)
 -->
<!-- Title: quest Pages: 1 -->
<svg width="501pt" height="356pt"
 viewBox="0.00 0.00 501.00 356.00" xmlns="http://www.w3.org/2000/svg" xmlns:xlink="http://www.w3.org/1999/xlink">
<g id="graph0" class="graph" transform="scale(1 1) rotate(0) translate(4 352)">
<title>quest</title>
<polygon fill="white" stroke="white" points="-4,4 -4,-352 497,-352 497,4 -4,4"/>
<!-- [ns&#45;0]finish_steal -->
<g id="node1" class="node"><title>[ns&#45;0]finish_steal</title>
<polygon fill="#eeeeee" stroke="none" points="7.5,-4 7.5,-98 226.5,-98 226.5,-4 7.5,-4"/>
<text text-anchor="start" x="10" y="-88.5" font-family="Times,serif" font-style="italic" font-size="10.00">[ns&#45;0]finish_steal</text>
<text text-anchor="start" x="114.5" y="-88.5" font-family="Times,serif" font-weight="bold" font-size="10.00">finish_steal</text>
<text text-anchor="start" x="191.5" y="-88.5" font-family="Times,serif" font-weight="bold" font-size="10.00">failed</text>
<text text-anchor="start" x="10" y="-74" font-family="Times,serif" font-size="10.00">Доставить посылку скупщику</text>
<polygon fill="#dddddd" stroke="none" points="9,-57 9,-70 182,-70 182,-57 9,-57"/>
<text text-anchor="start" x="10" y="-62" font-family="Times,serif" font-size="10.00">hero </text>
<text text-anchor="start" x="31" y="-62" font-family="Times,serif" font-weight="bold" font-size="10.00">находится в</text>
<text text-anchor="start" x="86" y="-62" font-family="Times,serif" font-size="10.00"> place_5</text>
<polygon fill="#ffffff" stroke="none" points="9,-44 9,-57 182,-57 182,-44 9,-44"/>
<text text-anchor="start" x="10" y="-49" font-family="Times,serif" font-weight="bold" font-size="10.00">сообщение:</text>
<text text-anchor="start" x="62" y="-49" font-family="Times,serif" font-size="10.00"> finish_delivery</text>
<polygon fill="#ffffff" stroke="none" points="9,-31 9,-44 182,-44 182,-31 9,-31"/>
<text text-anchor="start" x="10" y="-36" font-family="Times,serif" font-weight="bold" font-size="10.00">увеличить влияние </text>
<text text-anchor="start" x="98" y="-36" font-family="Times,serif" font-size="10.00">  person_1 </text>
<text text-anchor="start" x="143" y="-36" font-family="Times,serif" font-weight="bold" font-size="10.00">на </text>
<text text-anchor="start" x="156" y="-36" font-family="Times,serif" font-size="10.00"> &#45;1.00</text>
<polygon fill="#ffffff" stroke="none" points="9,-18 9,-31 182,-31 182,-18 9,-18"/>
<text text-anchor="start" x="10" y="-23" font-family="Times,serif" font-weight="bold" font-size="10.00">увеличить влияние </text>
<text text-anchor="start" x="98" y="-23" font-family="Times,serif" font-size="10.00">  person_3 </text>
<text text-anchor="start" x="143" y="-23" font-family="Times,serif" font-weight="bold" font-size="10.00">на </text>
<text text-anchor="start" x="156" y="-23" font-family="Times,serif" font-size="10.00"> &#45;1.00</text>
<polygon fill="#ffffff" stroke="none" points="9,-5 9,-18 182,-18 182,-5 9,-5"/>
<text text-anchor="start" x="10" y="-10" font-family="Times,serif" font-weight="bold" font-size="10.00">увеличить влияние </text>
<text text-anchor="start" x="98" y="-10" font-family="Times,serif" font-size="10.00">  person_5 </text>
<text text-anchor="start" x="143" y="-10" font-family="Times,serif" font-weight="bold" font-size="10.00">на </text>
<text text-anchor="start" x="156" y="-10" font-family="Times,serif" font-size="10.00"> 1.00</text>
<polygon fill="none" stroke="black" points="7.5,-4 7.5,-98 226.5,-98 226.5,-4 7.5,-4"/>
</g>
<!-- [ns&#45;0]start -->
<g id="node2" class="node"><title>[ns&#45;0]start</title>
<polygon fill="#eeeeee" stroke="none" points="157.5,-288.5 157.5,-343.5 274.5,-343.5 274.5,-288.5 157.5,-288.5"/>
<text text-anchor="start" x="160" y="-333.5" font-family="Times,serif" font-style="italic" font-size="10.00">[ns&#45;0]start</text>
<text text-anchor="start" x="227.5" y="-333.5" font-family="Times,serif" font-weight="bold" font-size="10.00">delivery</text>
<text text-anchor="start" x="160" y="-319" font-family="Times,serif" font-size="10.00">Начало: доставка</text>
<polygon fill="#dddddd" stroke="none" points="159,-302 159,-315 274,-315 274,-302 159,-302"/>
<text text-anchor="start" x="160" y="-307" font-family="Times,serif" font-size="10.00">hero </text>
<text text-anchor="start" x="181" y="-307" font-family="Times,serif" font-weight="bold" font-size="10.00">находится в</text>
<text text-anchor="start" x="236" y="-307" font-family="Times,serif" font-size="10.00"> place_1</text>
<polygon fill="#ffffff" stroke="none" points="159,-289 159,-302 274,-302 274,-289 159,-289"/>
<text text-anchor="start" x="160" y="-294" font-family="Times,serif" font-weight="bold" font-size="10.00">сообщение:</text>
<text text-anchor="start" x="212" y="-294" font-family="Times,serif" font-size="10.00"> intro</text>
<polygon fill="none" stroke="black" points="157.5,-288.5 157.5,-343.5 274.5,-343.5 274.5,-288.5 157.5,-288.5"/>
</g>
<!-- [ns&#45;0]delivery_choice -->
<g id="node3" class="node"><title>[ns&#45;0]delivery_choice</title>
<polygon fill="#ddddff" stroke="none" points="144,-214.5 144,-243.5 288,-243.5 288,-214.5 144,-214.5"/>
<text text-anchor="start" x="146" y="-233.5" font-family="Times,serif" font-style="italic" font-size="10.00">[ns&#45;0]delivery_choice</text>
<text text-anchor="start" x="146" y="-219" font-family="Times,serif" font-size="10.00">Решение: доставить или украсть</text>
<polygon fill="none" stroke="black" points="144,-214.5 144,-243.5 288,-243.5 288,-214.5 144,-214.5"/>
</g>
<!-- [ns&#45;0]start&#45;&gt;[ns&#45;0]delivery_choice -->
<g id="edge3" class="edge"><title>[ns&#45;0]start:[ns&#45;0]start&#45;&gt;[ns&#45;0]delivery_choice:[ns&#45;0]delivery_choice</title>
<path fill="none" stroke="black" d="M216,-288.105C216,-277.132 216,-264.546 216,-253.9"/>
<polygon fill="black" stroke="black" points="219.5,-253.657 216,-243.657 212.5,-253.657 219.5,-253.657"/>
</g>
<!-- #option([ns&#45;0]delivery_choice, [ns&#45;0]finish_steal) -->
<g id="node5" class="node"><title>#option([ns&#45;0]delivery_choice, [ns&#45;0]finish_steal)</title>
<polygon fill="#ffffff" stroke="none" points="97,-155 97,-169 196,-169 196,-155 97,-155"/>
<text text-anchor="start" x="98" y="-159.5" font-family="Times,serif" font-size="10.00">steal</text>
<polygon fill="#eeeeee" stroke="none" points="97,-142 97,-155 196,-155 196,-142 97,-142"/>
<text text-anchor="start" x="98" y="-147" font-family="Times,serif" font-weight="bold" font-size="10.00">сообщение:</text>
<text text-anchor="start" x="150" y="-147" font-family="Times,serif" font-size="10.00"> start_steal</text>
</g>
<!-- [ns&#45;0]delivery_choice&#45;&gt;#option([ns&#45;0]delivery_choice, [ns&#45;0]finish_steal) -->
<g id="edge1" class="edge"><title>[ns&#45;0]delivery_choice:[ns&#45;0]delivery_choice&#45;&gt;#option([ns&#45;0]delivery_choice, [ns&#45;0]finish_steal):#option([ns&#45;0]delivery_choice, [ns&#45;0]finish_steal)</title>
<path fill="none" stroke="black" stroke-dasharray="1,5" d="M202.503,-214.31C189.79,-201.416 170.897,-182.252 158.515,-169.693"/>
</g>
<!-- #option([ns&#45;0]delivery_choice, [ns&#45;0]finish_delivery) -->
<g id="node6" class="node"><title>#option([ns&#45;0]delivery_choice, [ns&#45;0]finish_delivery)</title>
<polygon fill="#ffffff" stroke="none" points="287,-155 287,-169 401,-169 401,-155 287,-155"/>
<text text-anchor="start" x="288" y="-159.5" font-family="Times,serif" font-size="10.00">delivery</text>
<polygon fill="#eeeeee" stroke="none" points="287,-142 287,-155 401,-155 401,-142 287,-142"/>
<text text-anchor="start" x="288" y="-147" font-family="Times,serif" font-weight="bold" font-size="10.00">сообщение:</text>
<text text-anchor="start" x="340" y="-147" font-family="Times,serif" font-size="10.00"> start_delivery</text>
</g>
<!-- [ns&#45;0]delivery_choice&#45;&gt;#option([ns&#45;0]delivery_choice, [ns&#45;0]finish_delivery) -->
<g id="edge4" class="edge"><title>[ns&#45;0]delivery_choice:[ns&#45;0]delivery_choice&#45;&gt;#option([ns&#45;0]delivery_choice, [ns&#45;0]finish_delivery):#option([ns&#45;0]delivery_choice, [ns&#45;0]finish_delivery)</title>
<path fill="none" stroke="black" stroke-dasharray="1,5" d="M240.377,-214.478C263.733,-201.523 298.697,-182.129 321.43,-169.519"/>
</g>
<!-- [ns&#45;0]finish_delivery -->
<g id="node4" class="node"><title>[ns&#45;0]finish_delivery</title>
<polygon fill="#eeeeee" stroke="none" points="261,-10.5 261,-91.5 485,-91.5 485,-10.5 261,-10.5"/>
<text text-anchor="start" x="263" y="-81.5" font-family="Times,serif" font-style="italic" font-size="10.00">[ns&#45;0]finish_delivery</text>
<text text-anchor="start" x="362.5" y="-81.5" font-family="Times,serif" font-weight="bold" font-size="10.00">finish_delivery</text>
<text text-anchor="start" x="440.5" y="-81.5" font-family="Times,serif" font-weight="bold" font-size="10.00">successed</text>
<text text-anchor="start" x="263" y="-67" font-family="Times,serif" font-size="10.00">Доставить посылку получателю</text>
<polygon fill="#dddddd" stroke="none" points="262,-50 262,-63 437,-63 437,-50 262,-50"/>
<text text-anchor="start" x="263" y="-55" font-family="Times,serif" font-size="10.00">hero </text>
<text text-anchor="start" x="284" y="-55" font-family="Times,serif" font-weight="bold" font-size="10.00">находится в</text>
<text text-anchor="start" x="339" y="-55" font-family="Times,serif" font-size="10.00"> place_3</text>
<polygon fill="#ffffff" stroke="none" points="262,-37 262,-50 437,-50 437,-37 262,-37"/>
<text text-anchor="start" x="263" y="-42" font-family="Times,serif" font-weight="bold" font-size="10.00">сообщение:</text>
<text text-anchor="start" x="315" y="-42" font-family="Times,serif" font-size="10.00"> finish_delivery</text>
<polygon fill="#ffffff" stroke="none" points="262,-24 262,-37 437,-37 437,-24 262,-24"/>
<text text-anchor="start" x="263" y="-29" font-family="Times,serif" font-weight="bold" font-size="10.00">увеличить влияние </text>
<text text-anchor="start" x="351" y="-29" font-family="Times,serif" font-size="10.00">  person_1 </text>
<text text-anchor="start" x="396" y="-29" font-family="Times,serif" font-weight="bold" font-size="10.00">на </text>
<text text-anchor="start" x="409" y="-29" font-family="Times,serif" font-size="10.00"> 1.00</text>
<polygon fill="#ffffff" stroke="none" points="262,-11 262,-24 437,-24 437,-11 262,-11"/>
<text text-anchor="start" x="263" y="-16" font-family="Times,serif" font-weight="bold" font-size="10.00">увеличить влияние </text>
<text text-anchor="start" x="351" y="-16" font-family="Times,serif" font-size="10.00">  person_3 </text>
<text text-anchor="start" x="396" y="-16" font-family="Times,serif" font-weight="bold" font-size="10.00">на </text>
<text text-anchor="start" x="409" y="-16" font-family="Times,serif" font-size="10.00"> 1.00</text>
<polygon fill="none" stroke="black" points="261,-10.5 261,-91.5 485,-91.5 485,-10.5 261,-10.5"/>
</g>
<!-- #option([ns&#45;0]delivery_choice, [ns&#45;0]finish_steal)&#45;&gt;[ns&#45;0]finish_steal -->
<g id="edge2" class="edge"><title>#option([ns&#45;0]delivery_choice, [ns&#45;0]finish_steal):#option([ns&#45;0]delivery_choice, [ns&#45;0]finish_steal)&#45;&gt;[ns&#45;0]finish_steal:[ns&#45;0]finish_steal</title>
<path fill="none" stroke="black" stroke-dasharray="1,5" d="M142.444,-142.37C139.961,-133.552 136.455,-121.099 132.837,-108.248"/>
<polygon fill="black" stroke="black" points="136.142,-107.074 130.063,-98.3964 129.404,-108.971 136.142,-107.074"/>
</g>
<!-- #option([ns&#45;0]delivery_choice, [ns&#45;0]finish_delivery)&#45;&gt;[ns&#45;0]finish_delivery -->
<g id="edge5" class="edge"><title>#option([ns&#45;0]delivery_choice, [ns&#45;0]finish_delivery):#option([ns&#45;0]delivery_choice, [ns&#45;0]finish_delivery)&#45;&gt;[ns&#45;0]finish_delivery:[ns&#45;0]finish_delivery</title>
<path fill="none" stroke="black" stroke-dasharray="1,5" d="M347.556,-142.37C350.459,-132.059 354.762,-116.777 359.007,-101.701"/>
<polygon fill="black" stroke="black" points="362.431,-102.452 361.772,-91.8778 355.693,-100.555 362.431,-102.452"/>
</g>
</g>
</svg>
