<?xml version="1.0" encoding="UTF-8" standalone="no"?>
<!DOCTYPE svg PUBLIC "-//W3C//DTD SVG 1.1//EN"
 "http://www.w3.org/Graphics/SVG/1.1/DTD/svg11.dtd">
<!-- Generated by graphviz version 2.34.0 (20130907.0221)
 -->
<!-- Title: quest Pages: 1 -->
<svg width="563pt" height="408pt"
 viewBox="0.00 0.00 563.00 408.00" xmlns="http://www.w3.org/2000/svg" xmlns:xlink="http://www.w3.org/1999/xlink">
<g id="graph0" class="graph" transform="scale(1 1) rotate(0) translate(4 404)">
<title>quest</title>
<polygon fill="white" stroke="white" points="-4,4 -4,-404 559,-404 559,4 -4,4"/>
<!-- [ns&#45;0]finish_steal -->
<g id="node1" class="node"><title>[ns&#45;0]finish_steal</title>
<polygon fill="#eeeeee" stroke="none" points="7.5,-4 7.5,-150 252.5,-150 252.5,-4 7.5,-4"/>
<text text-anchor="start" x="10" y="-140.5" font-family="Times,serif" font-style="italic" font-size="10.00">[ns&#45;0]finish_steal</text>
<text text-anchor="start" x="10" y="-126" font-family="Times,serif" font-size="10.00">Доставить посылку скупщику</text>
<polygon fill="#dddddd" stroke="none" points="9,-109 9,-122 252,-122 252,-109 9,-109"/>
<text text-anchor="start" x="10" y="-114" font-family="Times,serif" font-size="10.00">hero </text>
<text text-anchor="start" x="31" y="-114" font-family="Times,serif" font-weight="bold" font-size="10.00">находится в</text>
<text text-anchor="start" x="86" y="-114" font-family="Times,serif" font-size="10.00"> place_9</text>
<polygon fill="#ffffff" stroke="none" points="9,-96 9,-109 252,-109 252,-96 9,-96"/>
<text text-anchor="start" x="10" y="-101" font-family="Times,serif" font-weight="bold" font-size="10.00">выдать награду </text>
<text text-anchor="start" x="85" y="-101" font-family="Times,serif" font-size="10.00">  hero </text>
<text text-anchor="start" x="110" y="-101" font-family="Times,serif" font-weight="bold" font-size="10.00">типа </text>
<text text-anchor="start" x="134" y="-101" font-family="Times,serif" font-size="10.00"> finish_steal </text>
<text text-anchor="start" x="186" y="-101" font-family="Times,serif" font-weight="bold" font-size="10.00">в размере</text>
<text text-anchor="start" x="229" y="-101" font-family="Times,serif" font-size="10.00"> 1.50</text>
<polygon fill="#ffffff" stroke="none" points="9,-83 9,-96 252,-96 252,-83 9,-83"/>
<text text-anchor="start" x="10" y="-88" font-family="Times,serif" font-weight="bold" font-size="10.00">увеличить влияние </text>
<text text-anchor="start" x="98" y="-88" font-family="Times,serif" font-size="10.00">  person_1 </text>
<text text-anchor="start" x="143" y="-88" font-family="Times,serif" font-weight="bold" font-size="10.00">на </text>
<text text-anchor="start" x="156" y="-88" font-family="Times,serif" font-size="10.00"> &#45;1.00</text>
<polygon fill="#ffffff" stroke="none" points="9,-70 9,-83 252,-83 252,-70 9,-70"/>
<text text-anchor="start" x="10" y="-75" font-family="Times,serif" font-weight="bold" font-size="10.00">увеличить влияние </text>
<text text-anchor="start" x="98" y="-75" font-family="Times,serif" font-size="10.00">  person_5 </text>
<text text-anchor="start" x="143" y="-75" font-family="Times,serif" font-weight="bold" font-size="10.00">на </text>
<text text-anchor="start" x="156" y="-75" font-family="Times,serif" font-size="10.00"> &#45;1.00</text>
<polygon fill="#ffffff" stroke="none" points="9,-57 9,-70 252,-70 252,-57 9,-57"/>
<text text-anchor="start" x="10" y="-62" font-family="Times,serif" font-weight="bold" font-size="10.00">увеличить влияние </text>
<text text-anchor="start" x="98" y="-62" font-family="Times,serif" font-size="10.00">  person_9 </text>
<text text-anchor="start" x="143" y="-62" font-family="Times,serif" font-weight="bold" font-size="10.00">на </text>
<text text-anchor="start" x="156" y="-62" font-family="Times,serif" font-size="10.00"> 1.00</text>
<polygon fill="#eeeeee" stroke="none" points="9,-44 9,-57 252,-57 252,-44 9,-44"/>
<text text-anchor="start" x="10" y="-49" font-family="Times,serif" font-weight="bold" font-size="10.00">результаты:</text>
<text text-anchor="start" x="10" y="-36" font-family="Times,serif" font-weight="bold" font-size="10.00">person_1</text>
<text text-anchor="start" x="132" y="-35" font-family="Times,serif" font-size="10.00">failed</text>
<text text-anchor="start" x="10" y="-23" font-family="Times,serif" font-weight="bold" font-size="10.00">person_5</text>
<text text-anchor="start" x="132" y="-22" font-family="Times,serif" font-size="10.00">failed</text>
<text text-anchor="start" x="10" y="-10" font-family="Times,serif" font-weight="bold" font-size="10.00">person_9</text>
<text text-anchor="start" x="132" y="-9" font-family="Times,serif" font-size="10.00">successed</text>
<polygon fill="none" stroke="black" points="7.5,-4 7.5,-150 252.5,-150 252.5,-4 7.5,-4"/>
</g>
<!-- [ns&#45;0]start -->
<g id="node2" class="node"><title>[ns&#45;0]start</title>
<polygon fill="#eeeeee" stroke="none" points="177.5,-340.5 177.5,-395.5 294.5,-395.5 294.5,-340.5 177.5,-340.5"/>
<text text-anchor="start" x="180" y="-385.5" font-family="Times,serif" font-style="italic" font-size="10.00">[ns&#45;0]start</text>
<text text-anchor="start" x="247.5" y="-385.5" font-family="Times,serif" font-weight="bold" font-size="10.00">delivery</text>
<text text-anchor="start" x="180" y="-371" font-family="Times,serif" font-size="10.00">Начало: доставка</text>
<polygon fill="#dddddd" stroke="none" points="179,-354 179,-367 294,-367 294,-354 179,-354"/>
<text text-anchor="start" x="180" y="-359" font-family="Times,serif" font-size="10.00">hero </text>
<text text-anchor="start" x="201" y="-359" font-family="Times,serif" font-weight="bold" font-size="10.00">находится в</text>
<text text-anchor="start" x="256" y="-359" font-family="Times,serif" font-size="10.00"> place_1</text>
<polygon fill="#ffffff" stroke="none" points="179,-341 179,-354 294,-354 294,-341 179,-341"/>
<text text-anchor="start" x="180" y="-346" font-family="Times,serif" font-weight="bold" font-size="10.00">сообщение:</text>
<text text-anchor="start" x="232" y="-346" font-family="Times,serif" font-size="10.00"> intro</text>
<polygon fill="none" stroke="black" points="177.5,-340.5 177.5,-395.5 294.5,-395.5 294.5,-340.5 177.5,-340.5"/>
</g>
<!-- [ns&#45;0]delivery_choice -->
<g id="node3" class="node"><title>[ns&#45;0]delivery_choice</title>
<polygon fill="#ddddff" stroke="none" points="164,-266.5 164,-295.5 308,-295.5 308,-266.5 164,-266.5"/>
<text text-anchor="start" x="166" y="-285.5" font-family="Times,serif" font-style="italic" font-size="10.00">[ns&#45;0]delivery_choice</text>
<text text-anchor="start" x="166" y="-271" font-family="Times,serif" font-size="10.00">Решение: доставить или украсть</text>
<polygon fill="none" stroke="black" points="164,-266.5 164,-295.5 308,-295.5 308,-266.5 164,-266.5"/>
</g>
<!-- [ns&#45;0]start&#45;&gt;[ns&#45;0]delivery_choice -->
<g id="edge3" class="edge"><title>[ns&#45;0]start:[ns&#45;0]start&#45;&gt;[ns&#45;0]delivery_choice:[ns&#45;0]delivery_choice</title>
<path fill="none" stroke="black" d="M236,-340.105C236,-329.132 236,-316.546 236,-305.9"/>
<polygon fill="black" stroke="black" points="239.5,-305.657 236,-295.657 232.5,-305.657 239.5,-305.657"/>
</g>
<!-- #option([ns&#45;0]delivery_choice, [ns&#45;0]finish_steal) -->
<g id="node5" class="node"><title>#option([ns&#45;0]delivery_choice, [ns&#45;0]finish_steal)</title>
<polygon fill="#ffffff" stroke="none" points="117,-207 117,-221 216,-221 216,-207 117,-207"/>
<text text-anchor="start" x="118" y="-211.5" font-family="Times,serif" font-size="10.00">steal</text>
<polygon fill="#eeeeee" stroke="none" points="117,-194 117,-207 216,-207 216,-194 117,-194"/>
<text text-anchor="start" x="118" y="-199" font-family="Times,serif" font-weight="bold" font-size="10.00">сообщение:</text>
<text text-anchor="start" x="170" y="-199" font-family="Times,serif" font-size="10.00"> start_steal</text>
</g>
<!-- [ns&#45;0]delivery_choice&#45;&gt;#option([ns&#45;0]delivery_choice, [ns&#45;0]finish_steal) -->
<g id="edge1" class="edge"><title>[ns&#45;0]delivery_choice:[ns&#45;0]delivery_choice&#45;&gt;#option([ns&#45;0]delivery_choice, [ns&#45;0]finish_steal):#option([ns&#45;0]delivery_choice, [ns&#45;0]finish_steal)</title>
<path fill="none" stroke="black" stroke-dasharray="1,5" d="M222.503,-266.31C209.79,-253.416 190.897,-234.252 178.515,-221.693"/>
</g>
<!-- #option([ns&#45;0]delivery_choice, [ns&#45;0]finish_delivery) -->
<g id="node6" class="node"><title>#option([ns&#45;0]delivery_choice, [ns&#45;0]finish_delivery)</title>
<polygon fill="#ffffff" stroke="none" points="323,-207 323,-221 437,-221 437,-207 323,-207"/>
<text text-anchor="start" x="324" y="-211.5" font-family="Times,serif" font-size="10.00">delivery</text>
<polygon fill="#eeeeee" stroke="none" points="323,-194 323,-207 437,-207 437,-194 323,-194"/>
<text text-anchor="start" x="324" y="-199" font-family="Times,serif" font-weight="bold" font-size="10.00">сообщение:</text>
<text text-anchor="start" x="376" y="-199" font-family="Times,serif" font-size="10.00"> start_delivery</text>
</g>
<!-- [ns&#45;0]delivery_choice&#45;&gt;#option([ns&#45;0]delivery_choice, [ns&#45;0]finish_delivery) -->
<g id="edge4" class="edge"><title>[ns&#45;0]delivery_choice:[ns&#45;0]delivery_choice&#45;&gt;#option([ns&#45;0]delivery_choice, [ns&#45;0]finish_delivery):#option([ns&#45;0]delivery_choice, [ns&#45;0]finish_delivery)</title>
<path fill="none" stroke="black" stroke-dasharray="1,5" d="M263.424,-266.478C289.7,-253.523 329.034,-234.129 354.609,-221.519"/>
</g>
<!-- [ns&#45;0]finish_delivery -->
<g id="node4" class="node"><title>[ns&#45;0]finish_delivery</title>
<polygon fill="#eeeeee" stroke="none" points="286.5,-10.5 286.5,-143.5 547.5,-143.5 547.5,-10.5 286.5,-10.5"/>
<text text-anchor="start" x="289" y="-133.5" font-family="Times,serif" font-style="italic" font-size="10.00">[ns&#45;0]finish_delivery</text>
<text text-anchor="start" x="289" y="-119" font-family="Times,serif" font-size="10.00">Доставить посылку получателю</text>
<polygon fill="#dddddd" stroke="none" points="288,-102 288,-115 547,-115 547,-102 288,-102"/>
<text text-anchor="start" x="289" y="-107" font-family="Times,serif" font-size="10.00">hero </text>
<text text-anchor="start" x="310" y="-107" font-family="Times,serif" font-weight="bold" font-size="10.00">находится в</text>
<text text-anchor="start" x="365" y="-107" font-family="Times,serif" font-size="10.00"> place_5</text>
<polygon fill="#ffffff" stroke="none" points="288,-89 288,-102 547,-102 547,-89 288,-89"/>
<text text-anchor="start" x="289" y="-94" font-family="Times,serif" font-weight="bold" font-size="10.00">выдать награду </text>
<text text-anchor="start" x="364" y="-94" font-family="Times,serif" font-size="10.00">  hero </text>
<text text-anchor="start" x="389" y="-94" font-family="Times,serif" font-weight="bold" font-size="10.00">типа </text>
<text text-anchor="start" x="413" y="-94" font-family="Times,serif" font-size="10.00"> finish_delivery </text>
<text text-anchor="start" x="480" y="-94" font-family="Times,serif" font-weight="bold" font-size="10.00">в размере</text>
<text text-anchor="start" x="523" y="-94" font-family="Times,serif" font-size="10.00"> 1.00</text>
<polygon fill="#ffffff" stroke="none" points="288,-76 288,-89 547,-89 547,-76 288,-76"/>
<text text-anchor="start" x="289" y="-81" font-family="Times,serif" font-weight="bold" font-size="10.00">увеличить влияние </text>
<text text-anchor="start" x="377" y="-81" font-family="Times,serif" font-size="10.00">  person_1 </text>
<text text-anchor="start" x="422" y="-81" font-family="Times,serif" font-weight="bold" font-size="10.00">на </text>
<text text-anchor="start" x="435" y="-81" font-family="Times,serif" font-size="10.00"> 1.00</text>
<polygon fill="#ffffff" stroke="none" points="288,-63 288,-76 547,-76 547,-63 288,-63"/>
<text text-anchor="start" x="289" y="-68" font-family="Times,serif" font-weight="bold" font-size="10.00">увеличить влияние </text>
<text text-anchor="start" x="377" y="-68" font-family="Times,serif" font-size="10.00">  person_5 </text>
<text text-anchor="start" x="422" y="-68" font-family="Times,serif" font-weight="bold" font-size="10.00">на </text>
<text text-anchor="start" x="435" y="-68" font-family="Times,serif" font-size="10.00"> 1.00</text>
<polygon fill="#eeeeee" stroke="none" points="288,-50 288,-63 547,-63 547,-50 288,-50"/>
<text text-anchor="start" x="289" y="-55" font-family="Times,serif" font-weight="bold" font-size="10.00">результаты:</text>
<text text-anchor="start" x="289" y="-42" font-family="Times,serif" font-weight="bold" font-size="10.00">person_1</text>
<text text-anchor="start" x="419" y="-41" font-family="Times,serif" font-size="10.00">successed</text>
<text text-anchor="start" x="289" y="-29" font-family="Times,serif" font-weight="bold" font-size="10.00">person_5</text>
<text text-anchor="start" x="419" y="-28" font-family="Times,serif" font-size="10.00">successed</text>
<text text-anchor="start" x="289" y="-16" font-family="Times,serif" font-weight="bold" font-size="10.00">person_9</text>
<text text-anchor="start" x="419" y="-15" font-family="Times,serif" font-size="10.00">neutral</text>
<polygon fill="none" stroke="black" points="286.5,-10.5 286.5,-143.5 547.5,-143.5 547.5,-10.5 286.5,-10.5"/>
</g>
<!-- #option([ns&#45;0]delivery_choice, [ns&#45;0]finish_steal)&#45;&gt;[ns&#45;0]finish_steal -->
<g id="edge2" class="edge"><title>#option([ns&#45;0]delivery_choice, [ns&#45;0]finish_steal):#option([ns&#45;0]delivery_choice, [ns&#45;0]finish_steal)&#45;&gt;[ns&#45;0]finish_steal:[ns&#45;0]finish_steal</title>
<path fill="none" stroke="black" stroke-dasharray="1,5" d="M162.417,-194.159C159.998,-185.493 156.577,-173.235 152.857,-159.906"/>
<polygon fill="black" stroke="black" points="156.165,-158.737 150.106,-150.046 149.423,-160.619 156.165,-158.737"/>
</g>
<!-- #option([ns&#45;0]delivery_choice, [ns&#45;0]finish_delivery)&#45;&gt;[ns&#45;0]finish_delivery -->
<g id="edge5" class="edge"><title>#option([ns&#45;0]delivery_choice, [ns&#45;0]finish_delivery):#option([ns&#45;0]delivery_choice, [ns&#45;0]finish_delivery)&#45;&gt;[ns&#45;0]finish_delivery:[ns&#45;0]finish_delivery</title>
<path fill="none" stroke="black" stroke-dasharray="1,5" d="M383.683,-194.159C386.559,-184.132 390.814,-169.298 395.328,-153.558"/>
<polygon fill="black" stroke="black" points="398.77,-154.252 398.163,-143.675 392.041,-152.323 398.77,-154.252"/>
</g>
</g>
</svg>
