<?xml version="1.0" encoding="UTF-8" standalone="no"?>
<!DOCTYPE svg PUBLIC "-//W3C//DTD SVG 1.1//EN"
 "http://www.w3.org/Graphics/SVG/1.1/DTD/svg11.dtd">
<!-- Generated by graphviz version 2.34.0 (20130907.0221)
 -->
<!-- Title: quest Pages: 1 -->
<svg width="1493pt" height="796pt"
 viewBox="0.00 0.00 1493.00 796.00" xmlns="http://www.w3.org/2000/svg" xmlns:xlink="http://www.w3.org/1999/xlink">
<g id="graph0" class="graph" transform="scale(1 1) rotate(0) translate(4 792)">
<title>quest</title>
<polygon fill="white" stroke="white" points="-4,4 -4,-792 1489,-792 1489,4 -4,4"/>
<g id="clust2" class="cluster"><title>cluster_[ns&#45;0]delivery_variants</title>
<polygon fill="#ffffdd" stroke="black" points="671,-374 671,-555 1215,-555 1215,-374 671,-374"/>
<text text-anchor="middle" x="943" y="-539.8" font-family="Times,serif" font-size="14.00">cluster_[ns&#45;0]delivery_variants</text>
</g>
<g id="clust1" class="cluster"><title>cluster_[ns&#45;0]lie_variants</title>
<polygon fill="#ffffdd" stroke="black" points="8,-374 8,-555 663,-555 663,-374 8,-374"/>
<text text-anchor="middle" x="335.5" y="-539.8" font-family="Times,serif" font-size="14.00">cluster_[ns&#45;0]lie_variants</text>
</g>
<!-- [ns&#45;0]finish_steal -->
<g id="node1" class="node"><title>[ns&#45;0]finish_steal</title>
<polygon fill="#eeeeee" stroke="none" points="1232.5,-380 1232.5,-526 1477.5,-526 1477.5,-380 1232.5,-380"/>
<text text-anchor="start" x="1235" y="-516.5" font-family="Times,serif" font-style="italic" font-size="10.00">[ns&#45;0]finish_steal</text>
<text text-anchor="start" x="1235" y="-502" font-family="Times,serif" font-size="10.00">Доставить посылку скупщику</text>
<polygon fill="#dddddd" stroke="none" points="1234,-485 1234,-498 1477,-498 1477,-485 1234,-485"/>
<text text-anchor="start" x="1235" y="-490" font-family="Times,serif" font-size="10.00">hero </text>
<text text-anchor="start" x="1256" y="-490" font-family="Times,serif" font-weight="bold" font-size="10.00">находится в</text>
<text text-anchor="start" x="1311" y="-490" font-family="Times,serif" font-size="10.00"> place_3</text>
<polygon fill="#ffffff" stroke="none" points="1234,-472 1234,-485 1477,-485 1477,-472 1234,-472"/>
<text text-anchor="start" x="1235" y="-477" font-family="Times,serif" font-weight="bold" font-size="10.00">выдать награду </text>
<text text-anchor="start" x="1310" y="-477" font-family="Times,serif" font-size="10.00">  hero </text>
<text text-anchor="start" x="1335" y="-477" font-family="Times,serif" font-weight="bold" font-size="10.00">типа </text>
<text text-anchor="start" x="1359" y="-477" font-family="Times,serif" font-size="10.00"> finish_steal </text>
<text text-anchor="start" x="1411" y="-477" font-family="Times,serif" font-weight="bold" font-size="10.00">в размере</text>
<text text-anchor="start" x="1454" y="-477" font-family="Times,serif" font-size="10.00"> 1.50</text>
<polygon fill="#ffffff" stroke="none" points="1234,-459 1234,-472 1477,-472 1477,-459 1234,-459"/>
<text text-anchor="start" x="1235" y="-464" font-family="Times,serif" font-weight="bold" font-size="10.00">увеличить влияние </text>
<text text-anchor="start" x="1323" y="-464" font-family="Times,serif" font-size="10.00">  </text>
<text text-anchor="start" x="1328" y="-464" font-family="Times,serif" font-size="10.00" fill="#000000">person_1</text>
<text text-anchor="start" x="1366" y="-464" font-family="Times,serif" font-size="10.00"> </text>
<text text-anchor="start" x="1369" y="-464" font-family="Times,serif" font-weight="bold" font-size="10.00">на </text>
<text text-anchor="start" x="1382" y="-464" font-family="Times,serif" font-size="10.00"> &#45;1.00</text>
<polygon fill="#ffffff" stroke="none" points="1234,-446 1234,-459 1477,-459 1477,-446 1234,-446"/>
<text text-anchor="start" x="1235" y="-451" font-family="Times,serif" font-weight="bold" font-size="10.00">увеличить влияние </text>
<text text-anchor="start" x="1323" y="-451" font-family="Times,serif" font-size="10.00">  </text>
<text text-anchor="start" x="1328" y="-451" font-family="Times,serif" font-size="10.00" fill="#000000">person_10</text>
<text text-anchor="start" x="1371" y="-451" font-family="Times,serif" font-size="10.00"> </text>
<text text-anchor="start" x="1374" y="-451" font-family="Times,serif" font-weight="bold" font-size="10.00">на </text>
<text text-anchor="start" x="1387" y="-451" font-family="Times,serif" font-size="10.00"> &#45;1.00</text>
<polygon fill="#ffffff" stroke="none" points="1234,-433 1234,-446 1477,-446 1477,-433 1234,-433"/>
<text text-anchor="start" x="1235" y="-438" font-family="Times,serif" font-weight="bold" font-size="10.00">увеличить влияние </text>
<text text-anchor="start" x="1323" y="-438" font-family="Times,serif" font-size="10.00">  </text>
<text text-anchor="start" x="1328" y="-438" font-family="Times,serif" font-size="10.00" fill="#aa55aa">person_3</text>
<text text-anchor="start" x="1366" y="-438" font-family="Times,serif" font-size="10.00"> </text>
<text text-anchor="start" x="1369" y="-438" font-family="Times,serif" font-weight="bold" font-size="10.00">на </text>
<text text-anchor="start" x="1382" y="-438" font-family="Times,serif" font-size="10.00"> 1.00</text>
<polygon fill="#eeeeee" stroke="none" points="1234,-420 1234,-433 1477,-433 1477,-420 1234,-420"/>
<text text-anchor="start" x="1235" y="-425" font-family="Times,serif" font-weight="bold" font-size="10.00">результаты:</text>
<text text-anchor="start" x="1235" y="-412" font-family="Times,serif" font-weight="bold" font-size="10.00">person_1</text>
<text text-anchor="start" x="1357" y="-411" font-family="Times,serif" font-size="10.00">failed</text>
<text text-anchor="start" x="1235" y="-399" font-family="Times,serif" font-weight="bold" font-size="10.00">person_10</text>
<text text-anchor="start" x="1357" y="-398" font-family="Times,serif" font-size="10.00">failed</text>
<text text-anchor="start" x="1235" y="-386" font-family="Times,serif" font-weight="bold" font-size="10.00">person_3</text>
<text text-anchor="start" x="1357" y="-385" font-family="Times,serif" font-size="10.00">successed</text>
<polygon fill="none" stroke="black" points="1232.5,-380 1232.5,-526 1477.5,-526 1477.5,-380 1232.5,-380"/>
</g>
<!-- [ns&#45;0]start -->
<g id="node2" class="node"><title>[ns&#45;0]start</title>
<polygon fill="#eeeeee" stroke="none" points="736.5,-728.5 736.5,-783.5 853.5,-783.5 853.5,-728.5 736.5,-728.5"/>
<text text-anchor="start" x="739" y="-773.5" font-family="Times,serif" font-style="italic" font-size="10.00">[ns&#45;0]start</text>
<text text-anchor="start" x="806.5" y="-773.5" font-family="Times,serif" font-weight="bold" font-size="10.00">delivery</text>
<text text-anchor="start" x="739" y="-759" font-family="Times,serif" font-size="10.00">Начало: доставка</text>
<polygon fill="#dddddd" stroke="none" points="738,-742 738,-755 853,-755 853,-742 738,-742"/>
<text text-anchor="start" x="739" y="-747" font-family="Times,serif" font-size="10.00">hero </text>
<text text-anchor="start" x="760" y="-747" font-family="Times,serif" font-weight="bold" font-size="10.00">находится в</text>
<text text-anchor="start" x="815" y="-747" font-family="Times,serif" font-size="10.00"> place_1</text>
<polygon fill="#ffffff" stroke="none" points="738,-729 738,-742 853,-742 853,-729 738,-729"/>
<text text-anchor="start" x="739" y="-734" font-family="Times,serif" font-weight="bold" font-size="10.00">сообщение:</text>
<text text-anchor="start" x="791" y="-734" font-family="Times,serif" font-size="10.00"> intro</text>
<polygon fill="none" stroke="black" points="736.5,-728.5 736.5,-783.5 853.5,-783.5 853.5,-728.5 736.5,-728.5"/>
</g>
<!-- [ns&#45;0]delivery_choice -->
<g id="node7" class="node"><title>[ns&#45;0]delivery_choice</title>
<polygon fill="#ddddff" stroke="none" points="723,-654.5 723,-683.5 867,-683.5 867,-654.5 723,-654.5"/>
<text text-anchor="start" x="725" y="-673.5" font-family="Times,serif" font-style="italic" font-size="10.00">[ns&#45;0]delivery_choice</text>
<text text-anchor="start" x="725" y="-659" font-family="Times,serif" font-size="10.00">Решение: доставить или украсть</text>
<polygon fill="none" stroke="black" points="723,-654.5 723,-683.5 867,-683.5 867,-654.5 723,-654.5"/>
</g>
<!-- [ns&#45;0]start&#45;&gt;[ns&#45;0]delivery_choice -->
<g id="edge7" class="edge"><title>[ns&#45;0]start:[ns&#45;0]start&#45;&gt;[ns&#45;0]delivery_choice:[ns&#45;0]delivery_choice</title>
<path fill="none" stroke="black" d="M795,-728.105C795,-717.132 795,-704.546 795,-693.9"/>
<polygon fill="black" stroke="black" points="798.5,-693.657 795,-683.657 791.5,-693.657 798.5,-693.657"/>
</g>
<!-- [ns&#45;0]finish_fight_for_stealed__delivery -->
<g id="node3" class="node"><title>[ns&#45;0]finish_fight_for_stealed__delivery</title>
<polygon fill="#eeeeee" stroke="none" points="861.5,-4.5 861.5,-137.5 1164.5,-137.5 1164.5,-4.5 861.5,-4.5"/>
<text text-anchor="start" x="864" y="-127.5" font-family="Times,serif" font-style="italic" font-size="10.00">[ns&#45;0]finish_fight_for_stealed__delivery</text>
<text text-anchor="start" x="864" y="-113" font-family="Times,serif" font-size="10.00">Доставить посылку получателю</text>
<polygon fill="#dddddd" stroke="none" points="863,-96 863,-109 1164,-109 1164,-96 863,-96"/>
<text text-anchor="start" x="864" y="-101" font-family="Times,serif" font-size="10.00">hero </text>
<text text-anchor="start" x="885" y="-101" font-family="Times,serif" font-weight="bold" font-size="10.00">находится в</text>
<text text-anchor="start" x="940" y="-101" font-family="Times,serif" font-size="10.00"> place_10</text>
<polygon fill="#ffffff" stroke="none" points="863,-83 863,-96 1164,-96 1164,-83 863,-83"/>
<text text-anchor="start" x="864" y="-88" font-family="Times,serif" font-weight="bold" font-size="10.00">выдать награду </text>
<text text-anchor="start" x="939" y="-88" font-family="Times,serif" font-size="10.00">  hero </text>
<text text-anchor="start" x="964" y="-88" font-family="Times,serif" font-weight="bold" font-size="10.00">типа </text>
<text text-anchor="start" x="988" y="-88" font-family="Times,serif" font-size="10.00"> finish_delivery </text>
<text text-anchor="start" x="1055" y="-88" font-family="Times,serif" font-weight="bold" font-size="10.00">в размере</text>
<text text-anchor="start" x="1098" y="-88" font-family="Times,serif" font-size="10.00"> 1.00</text>
<polygon fill="#ffffff" stroke="none" points="863,-70 863,-83 1164,-83 1164,-70 863,-70"/>
<text text-anchor="start" x="864" y="-75" font-family="Times,serif" font-weight="bold" font-size="10.00">увеличить влияние </text>
<text text-anchor="start" x="952" y="-75" font-family="Times,serif" font-size="10.00">  </text>
<text text-anchor="start" x="957" y="-75" font-family="Times,serif" font-size="10.00" fill="#000000">person_1</text>
<text text-anchor="start" x="995" y="-75" font-family="Times,serif" font-size="10.00"> </text>
<text text-anchor="start" x="998" y="-75" font-family="Times,serif" font-weight="bold" font-size="10.00">на </text>
<text text-anchor="start" x="1011" y="-75" font-family="Times,serif" font-size="10.00"> 1.00</text>
<polygon fill="#ffffff" stroke="none" points="863,-57 863,-70 1164,-70 1164,-57 863,-57"/>
<text text-anchor="start" x="864" y="-62" font-family="Times,serif" font-weight="bold" font-size="10.00">увеличить влияние </text>
<text text-anchor="start" x="952" y="-62" font-family="Times,serif" font-size="10.00">  </text>
<text text-anchor="start" x="957" y="-62" font-family="Times,serif" font-size="10.00" fill="#000000">person_10</text>
<text text-anchor="start" x="1000" y="-62" font-family="Times,serif" font-size="10.00"> </text>
<text text-anchor="start" x="1003" y="-62" font-family="Times,serif" font-weight="bold" font-size="10.00">на </text>
<text text-anchor="start" x="1016" y="-62" font-family="Times,serif" font-size="10.00"> 1.00</text>
<polygon fill="#eeeeee" stroke="none" points="863,-44 863,-57 1164,-57 1164,-44 863,-44"/>
<text text-anchor="start" x="864" y="-49" font-family="Times,serif" font-weight="bold" font-size="10.00">результаты:</text>
<text text-anchor="start" x="864" y="-36" font-family="Times,serif" font-weight="bold" font-size="10.00">person_1</text>
<text text-anchor="start" x="1036" y="-35" font-family="Times,serif" font-size="10.00">successed</text>
<text text-anchor="start" x="864" y="-23" font-family="Times,serif" font-weight="bold" font-size="10.00">person_10</text>
<text text-anchor="start" x="1036" y="-22" font-family="Times,serif" font-size="10.00">successed</text>
<text text-anchor="start" x="864" y="-10" font-family="Times,serif" font-weight="bold" font-size="10.00">person_3</text>
<text text-anchor="start" x="1036" y="-9" font-family="Times,serif" font-size="10.00">neutral</text>
<polygon fill="none" stroke="black" points="861.5,-4.5 861.5,-137.5 1164.5,-137.5 1164.5,-4.5 861.5,-4.5"/>
</g>
<!-- [ns&#45;0]delivery_stealed -->
<g id="node4" class="node"><title>[ns&#45;0]delivery_stealed</title>
<polygon fill="#ddffdd" stroke="none" points="686.5,-419 686.5,-487 903.5,-487 903.5,-419 686.5,-419"/>
<text text-anchor="start" x="689" y="-477.5" font-family="Times,serif" font-style="italic" font-size="10.00">[ns&#45;0]delivery_stealed</text>
<text text-anchor="start" x="689" y="-463" font-family="Times,serif" font-size="10.00">письмо украдено</text>
<polygon fill="#cceecc" stroke="none" points="688,-446 688,-459 903,-459 903,-446 688,-446"/>
<text text-anchor="start" x="689" y="-451" font-family="Times,serif" font-size="10.00">hero </text>
<text text-anchor="start" x="710" y="-451" font-family="Times,serif" font-weight="bold" font-size="10.00">прошёл</text>
<text text-anchor="start" x="744" y="-451" font-family="Times,serif" font-size="10.00"> 61%</text>
<text text-anchor="start" x="766" y="-451" font-family="Times,serif" font-weight="bold" font-size="10.00"> дороги от</text>
<text text-anchor="start" x="812" y="-451" font-family="Times,serif" font-size="10.00"> place_1 </text>
<text text-anchor="start" x="849" y="-451" font-family="Times,serif" font-weight="bold" font-size="10.00">до</text>
<text text-anchor="start" x="860" y="-451" font-family="Times,serif" font-size="10.00"> place_10</text>
<polygon fill="#eeffee" stroke="none" points="688,-433 688,-446 903,-446 903,-433 688,-433"/>
<text text-anchor="start" x="689" y="-438" font-family="Times,serif" font-weight="bold" font-size="10.00">сообщение:</text>
<text text-anchor="start" x="741" y="-438" font-family="Times,serif" font-size="10.00"> delivery_stealed</text>
<polygon fill="#eeffee" stroke="none" points="688,-420 688,-433 903,-433 903,-420 688,-420"/>
<text text-anchor="start" x="689" y="-425" font-family="Times,serif" font-weight="bold" font-size="10.00">отправить </text>
<text text-anchor="start" x="739" y="-425" font-family="Times,serif" font-size="10.00"> hero</text>
<text text-anchor="start" x="760" y="-425" font-family="Times,serif" font-weight="bold" font-size="10.00">бродить в округе</text>
<polygon fill="none" stroke="black" points="686.5,-419 686.5,-487 903.5,-487 903.5,-419 686.5,-419"/>
</g>
<!-- [ns&#45;0]fight_for_stealed -->
<g id="node5" class="node"><title>[ns&#45;0]fight_for_stealed</title>
<polygon fill="#ffdddd" stroke="none" points="717.5,-254.5 717.5,-335.5 872.5,-335.5 872.5,-254.5 717.5,-254.5"/>
<text text-anchor="start" x="720" y="-325.5" font-family="Times,serif" font-style="italic" font-size="10.00">[ns&#45;0]fight_for_stealed</text>
<text text-anchor="start" x="720" y="-311" font-family="Times,serif" font-size="10.00">Сразиться с вором</text>
<polygon fill="#ffeeee" stroke="none" points="719,-294 719,-307 872,-307 872,-294 719,-294"/>
<text text-anchor="start" x="720" y="-299" font-family="Times,serif" font-weight="bold" font-size="10.00">сообщение:</text>
<text text-anchor="start" x="772" y="-299" font-family="Times,serif" font-size="10.00"> fight_thief</text>
<polygon fill="#ffeeee" stroke="none" points="719,-281 719,-294 872,-294 872,-281 719,-281"/>
<text text-anchor="start" x="720" y="-286" font-family="Times,serif" font-weight="bold" font-size="10.00">сразиться с наёмником</text>
<polygon fill="#ffdddd" stroke="none" points="719,-268 719,-281 872,-281 872,-268 719,-268"/>
<text text-anchor="start" x="720" y="-273" font-family="Times,serif" font-weight="bold" font-size="10.00">условия:</text>
<text text-anchor="start" x="720" y="-260" font-family="Times,serif" font-weight="bold" font-size="10.00">если </text>
<polygon fill="#ffdddd" stroke="none" points="819,-255 819,-268 872,-268 872,-255 819,-255"/>
<text text-anchor="start" x="820" y="-260" font-family="Times,serif" font-size="10.00">hero </text>
<text text-anchor="start" x="841" y="-260" font-family="Times,serif" font-weight="bold" font-size="10.00">жив</text>
<polygon fill="none" stroke="black" points="717.5,-254.5 717.5,-335.5 872.5,-335.5 872.5,-254.5 717.5,-254.5"/>
</g>
<!-- [ns&#45;0]delivery_stealed&#45;&gt;[ns&#45;0]fight_for_stealed -->
<g id="edge16" class="edge"><title>[ns&#45;0]delivery_stealed:[ns&#45;0]delivery_stealed&#45;&gt;[ns&#45;0]fight_for_stealed:[ns&#45;0]fight_for_stealed</title>
<path fill="none" stroke="black" d="M795,-418.916C795,-397.725 795,-369.824 795,-345.962"/>
<polygon fill="black" stroke="black" points="798.5,-345.668 795,-335.668 791.5,-345.668 798.5,-345.668"/>
</g>
<!-- #answer(False, [ns&#45;0]fight_for_stealed, [ns&#45;0]finish_fight_for_stealed__hero_died) -->
<g id="node11" class="node"><title>#answer(False, [ns&#45;0]fight_for_stealed, [ns&#45;0]finish_fight_for_stealed__hero_died)</title>
<polygon fill="#ffffff" stroke="none" points="720,-189 720,-203 753,-203 753,-189 720,-189"/>
<text text-anchor="start" x="721" y="-193.5" font-family="Times,serif" font-size="10.00">ЛОЖЬ</text>
</g>
<!-- [ns&#45;0]fight_for_stealed&#45;&gt;#answer(False, [ns&#45;0]fight_for_stealed, [ns&#45;0]finish_fight_for_stealed__hero_died) -->
<g id="edge1" class="edge"><title>[ns&#45;0]fight_for_stealed:[ns&#45;0]fight_for_stealed&#45;&gt;#answer(False, [ns&#45;0]fight_for_stealed, [ns&#45;0]finish_fight_for_stealed__hero_died):#answer(False, [ns&#45;0]fight_for_stealed, [ns&#45;0]finish_fight_for_stealed__hero_died)</title>
<path fill="none" stroke="black" d="M770.832,-254.267C758.994,-234.803 745.97,-213.392 739.733,-203.138"/>
</g>
<!-- #answer(True, [ns&#45;0]fight_for_stealed, [ns&#45;0]finish_fight_for_stealed__delivery) -->
<g id="node17" class="node"><title>#answer(True, [ns&#45;0]fight_for_stealed, [ns&#45;0]finish_fight_for_stealed__delivery)</title>
<polygon fill="#ffffff" stroke="none" points="895,-195 895,-209 1026,-209 1026,-195 895,-195"/>
<text text-anchor="start" x="896" y="-199.5" font-family="Times,serif" font-size="10.00">ИСТИНА</text>
<polygon fill="#eeeeee" stroke="none" points="895,-182 895,-195 1026,-195 1026,-182 895,-182"/>
<text text-anchor="start" x="896" y="-187" font-family="Times,serif" font-weight="bold" font-size="10.00">сообщение:</text>
<text text-anchor="start" x="948" y="-187" font-family="Times,serif" font-size="10.00"> delivery_returned</text>
</g>
<!-- [ns&#45;0]fight_for_stealed&#45;&gt;#answer(True, [ns&#45;0]fight_for_stealed, [ns&#45;0]finish_fight_for_stealed__delivery) -->
<g id="edge14" class="edge"><title>[ns&#45;0]fight_for_stealed:[ns&#45;0]fight_for_stealed&#45;&gt;#answer(True, [ns&#45;0]fight_for_stealed, [ns&#45;0]finish_fight_for_stealed__delivery):#answer(True, [ns&#45;0]fight_for_stealed, [ns&#45;0]finish_fight_for_stealed__delivery)</title>
<path fill="none" stroke="black" d="M862.588,-254.267C889.821,-238.257 919.297,-220.928 938.608,-209.576"/>
</g>
<!-- [ns&#45;0]finish_fight_for_stealed__hero_died -->
<g id="node6" class="node"><title>[ns&#45;0]finish_fight_for_stealed__hero_died</title>
<polygon fill="#eeeeee" stroke="none" points="540.5,-24 540.5,-118 827.5,-118 827.5,-24 540.5,-24"/>
<text text-anchor="start" x="543" y="-108.5" font-family="Times,serif" font-style="italic" font-size="10.00">[ns&#45;0]finish_fight_for_stealed__hero_died</text>
<text text-anchor="start" x="543" y="-94" font-family="Times,serif" font-size="10.00">Герой не смог вернуть украденное письмо</text>
<polygon fill="#ffffff" stroke="none" points="542,-77 542,-90 827,-90 827,-77 542,-77"/>
<text text-anchor="start" x="543" y="-82" font-family="Times,serif" font-weight="bold" font-size="10.00">сообщение:</text>
<text text-anchor="start" x="595" y="-82" font-family="Times,serif" font-size="10.00"> finish_fight_for_stealed__hero_died</text>
<polygon fill="#eeeeee" stroke="none" points="542,-64 542,-77 827,-77 827,-64 542,-64"/>
<text text-anchor="start" x="543" y="-69" font-family="Times,serif" font-weight="bold" font-size="10.00">результаты:</text>
<text text-anchor="start" x="543" y="-56" font-family="Times,serif" font-weight="bold" font-size="10.00">person_1</text>
<text text-anchor="start" x="724" y="-55" font-family="Times,serif" font-size="10.00">neutral</text>
<text text-anchor="start" x="543" y="-43" font-family="Times,serif" font-weight="bold" font-size="10.00">person_10</text>
<text text-anchor="start" x="724" y="-42" font-family="Times,serif" font-size="10.00">neutral</text>
<text text-anchor="start" x="543" y="-30" font-family="Times,serif" font-weight="bold" font-size="10.00">person_3</text>
<text text-anchor="start" x="724" y="-29" font-family="Times,serif" font-size="10.00">neutral</text>
<polygon fill="none" stroke="black" points="540.5,-24 540.5,-118 827.5,-118 827.5,-24 540.5,-24"/>
</g>
<!-- #option([ns&#45;0]delivery_choice, [ns&#45;0]finish_fake_delivery, fake) -->
<g id="node12" class="node"><title>#option([ns&#45;0]delivery_choice, [ns&#45;0]finish_fake_delivery, fake)</title>
<polygon fill="#ffffff" stroke="none" points="228,-596 228,-610 326,-610 326,-596 228,-596"/>
<text text-anchor="start" x="229" y="-600.5" font-family="Times,serif" font-size="10.00">fake</text>
<polygon fill="#aadddd" stroke="none" points="228,-583 228,-596 326,-596 326,-583 228,-583"/>
<text text-anchor="start" x="229" y="-587" font-family="Times,serif" font-size="10.00">[бесчестие]</text>
<polygon fill="#eeeeee" stroke="none" points="228,-570 228,-583 326,-583 326,-570 228,-570"/>
<text text-anchor="start" x="229" y="-575" font-family="Times,serif" font-weight="bold" font-size="10.00">сообщение:</text>
<text text-anchor="start" x="281" y="-575" font-family="Times,serif" font-size="10.00"> start_fake</text>
</g>
<!-- [ns&#45;0]delivery_choice&#45;&gt;#option([ns&#45;0]delivery_choice, [ns&#45;0]finish_fake_delivery, fake) -->
<g id="edge3" class="edge"><title>[ns&#45;0]delivery_choice:[ns&#45;0]delivery_choice&#45;&gt;#option([ns&#45;0]delivery_choice, [ns&#45;0]finish_fake_delivery, fake):#option([ns&#45;0]delivery_choice, [ns&#45;0]finish_fake_delivery, fake)</title>
<path fill="none" stroke="black" stroke-dasharray="1,5" d="M722.974,-657.293C616.086,-641.405 418.225,-611.993 326.309,-598.33"/>
</g>
<!-- #option([ns&#45;0]delivery_choice, [ns&#45;0]delivery_stealed, delivery) -->
<g id="node13" class="node"><title>#option([ns&#45;0]delivery_choice, [ns&#45;0]delivery_stealed, delivery)</title>
<polygon fill="#ffffff" stroke="none" points="738,-596 738,-610 852,-610 852,-596 738,-596"/>
<text text-anchor="start" x="739" y="-600.5" font-family="Times,serif" font-size="10.00">delivery</text>
<polygon fill="#aadddd" stroke="none" points="738,-583 738,-596 852,-596 852,-583 738,-583"/>
<text text-anchor="start" x="739" y="-587" font-family="Times,serif" font-size="10.00">[честь]</text>
<polygon fill="#eeeeee" stroke="none" points="738,-570 738,-583 852,-583 852,-570 738,-570"/>
<text text-anchor="start" x="739" y="-575" font-family="Times,serif" font-weight="bold" font-size="10.00">сообщение:</text>
<text text-anchor="start" x="791" y="-575" font-family="Times,serif" font-size="10.00"> start_delivery</text>
</g>
<!-- [ns&#45;0]delivery_choice&#45;&gt;#option([ns&#45;0]delivery_choice, [ns&#45;0]delivery_stealed, delivery) -->
<g id="edge5" class="edge"><title>[ns&#45;0]delivery_choice:[ns&#45;0]delivery_choice&#45;&gt;#option([ns&#45;0]delivery_choice, [ns&#45;0]delivery_stealed, delivery):#option([ns&#45;0]delivery_choice, [ns&#45;0]delivery_stealed, delivery)</title>
<path fill="none" stroke="black" stroke-dasharray="1,5" d="M795,-654.234C795,-641.949 795,-623.837 795,-610.142"/>
</g>
<!-- #option([ns&#45;0]delivery_choice, [ns&#45;0]finish_delivery, delivery) -->
<g id="node14" class="node"><title>#option([ns&#45;0]delivery_choice, [ns&#45;0]finish_delivery, delivery)</title>
<polygon fill="#ffffff" stroke="none" points="948,-596 948,-610 1062,-610 1062,-596 948,-596"/>
<text text-anchor="start" x="949" y="-600.5" font-family="Times,serif" font-size="10.00">delivery</text>
<polygon fill="#aadddd" stroke="none" points="948,-583 948,-596 1062,-596 1062,-583 948,-583"/>
<text text-anchor="start" x="949" y="-587" font-family="Times,serif" font-size="10.00">[честь]</text>
<polygon fill="#eeeeee" stroke="none" points="948,-570 948,-583 1062,-583 1062,-570 948,-570"/>
<text text-anchor="start" x="949" y="-575" font-family="Times,serif" font-weight="bold" font-size="10.00">сообщение:</text>
<text text-anchor="start" x="1001" y="-575" font-family="Times,serif" font-size="10.00"> start_delivery</text>
</g>
<!-- [ns&#45;0]delivery_choice&#45;&gt;#option([ns&#45;0]delivery_choice, [ns&#45;0]finish_delivery, delivery) -->
<g id="edge8" class="edge"><title>[ns&#45;0]delivery_choice:[ns&#45;0]delivery_choice&#45;&gt;#option([ns&#45;0]delivery_choice, [ns&#45;0]finish_delivery, delivery):#option([ns&#45;0]delivery_choice, [ns&#45;0]finish_delivery, delivery)</title>
<path fill="none" stroke="black" stroke-dasharray="1,5" d="M832.06,-654.411C865.618,-642.107 915.402,-623.853 952.95,-610.085"/>
</g>
<!-- #option([ns&#45;0]delivery_choice, [ns&#45;0]finish_steal, steal) -->
<g id="node15" class="node"><title>#option([ns&#45;0]delivery_choice, [ns&#45;0]finish_steal, steal)</title>
<polygon fill="#ffffff" stroke="none" points="1201,-596 1201,-610 1300,-610 1300,-596 1201,-596"/>
<text text-anchor="start" x="1202" y="-600.5" font-family="Times,serif" font-size="10.00">steal</text>
<polygon fill="#aadddd" stroke="none" points="1201,-583 1201,-596 1300,-596 1300,-583 1201,-583"/>
<text text-anchor="start" x="1202" y="-587" font-family="Times,serif" font-size="10.00">[бесчестие]</text>
<polygon fill="#eeeeee" stroke="none" points="1201,-570 1201,-583 1300,-583 1300,-570 1201,-570"/>
<text text-anchor="start" x="1202" y="-575" font-family="Times,serif" font-weight="bold" font-size="10.00">сообщение:</text>
<text text-anchor="start" x="1254" y="-575" font-family="Times,serif" font-size="10.00"> start_steal</text>
</g>
<!-- [ns&#45;0]delivery_choice&#45;&gt;#option([ns&#45;0]delivery_choice, [ns&#45;0]finish_steal, steal) -->
<g id="edge10" class="edge"><title>[ns&#45;0]delivery_choice:[ns&#45;0]delivery_choice&#45;&gt;#option([ns&#45;0]delivery_choice, [ns&#45;0]finish_steal, steal):#option([ns&#45;0]delivery_choice, [ns&#45;0]finish_steal, steal)</title>
<path fill="none" stroke="black" stroke-dasharray="1,5" d="M867.096,-655.799C960.187,-640.045 1119.78,-613.038 1200.35,-599.402"/>
</g>
<!-- #option([ns&#45;0]delivery_choice, [ns&#45;0]dummy_state, dummy_lie) -->
<g id="node16" class="node"><title>#option([ns&#45;0]delivery_choice, [ns&#45;0]dummy_state, dummy_lie)</title>
<polygon fill="#ffffff" stroke="none" points="562,-583 562,-597 612,-597 612,-583 562,-583"/>
<text text-anchor="start" x="563" y="-587.5" font-family="Times,serif" font-size="10.00">dummy_lie</text>
</g>
<!-- [ns&#45;0]delivery_choice&#45;&gt;#option([ns&#45;0]delivery_choice, [ns&#45;0]dummy_state, dummy_lie) -->
<g id="edge12" class="edge"><title>[ns&#45;0]delivery_choice:[ns&#45;0]delivery_choice&#45;&gt;#option([ns&#45;0]delivery_choice, [ns&#45;0]dummy_state, dummy_lie):#option([ns&#45;0]delivery_choice, [ns&#45;0]dummy_state, dummy_lie)</title>
<path fill="none" stroke="black" stroke-dasharray="1,5" d="M758.293,-654.411C712.575,-637.487 636.454,-609.307 603.283,-597.028"/>
</g>
<!-- [ns&#45;0]finish_fake_delivery -->
<g id="node8" class="node"><title>[ns&#45;0]finish_fake_delivery</title>
<polygon fill="#eeeeee" stroke="none" points="24.5,-386.5 24.5,-519.5 307.5,-519.5 307.5,-386.5 24.5,-386.5"/>
<text text-anchor="start" x="27" y="-509.5" font-family="Times,serif" font-style="italic" font-size="10.00">[ns&#45;0]finish_fake_delivery</text>
<text text-anchor="start" x="27" y="-495" font-family="Times,serif" font-size="10.00">Подделать письмо</text>
<polygon fill="#dddddd" stroke="none" points="26,-478 26,-491 307,-491 307,-478 26,-478"/>
<text text-anchor="start" x="27" y="-483" font-family="Times,serif" font-size="10.00">hero </text>
<text text-anchor="start" x="48" y="-483" font-family="Times,serif" font-weight="bold" font-size="10.00">находится в</text>
<text text-anchor="start" x="103" y="-483" font-family="Times,serif" font-size="10.00"> place_10</text>
<polygon fill="#ffffff" stroke="none" points="26,-465 26,-478 307,-478 307,-465 26,-465"/>
<text text-anchor="start" x="27" y="-470" font-family="Times,serif" font-weight="bold" font-size="10.00">выдать награду </text>
<text text-anchor="start" x="102" y="-470" font-family="Times,serif" font-size="10.00">  hero </text>
<text text-anchor="start" x="127" y="-470" font-family="Times,serif" font-weight="bold" font-size="10.00">типа </text>
<text text-anchor="start" x="151" y="-470" font-family="Times,serif" font-size="10.00"> finish_fake_delivery </text>
<text text-anchor="start" x="241" y="-470" font-family="Times,serif" font-weight="bold" font-size="10.00">в размере</text>
<text text-anchor="start" x="284" y="-470" font-family="Times,serif" font-size="10.00"> 2.00</text>
<polygon fill="#ffffff" stroke="none" points="26,-452 26,-465 307,-465 307,-452 26,-452"/>
<text text-anchor="start" x="27" y="-457" font-family="Times,serif" font-weight="bold" font-size="10.00">увеличить влияние </text>
<text text-anchor="start" x="115" y="-457" font-family="Times,serif" font-size="10.00">  </text>
<text text-anchor="start" x="120" y="-457" font-family="Times,serif" font-size="10.00" fill="#000000">person_1</text>
<text text-anchor="start" x="158" y="-457" font-family="Times,serif" font-size="10.00"> </text>
<text text-anchor="start" x="161" y="-457" font-family="Times,serif" font-weight="bold" font-size="10.00">на </text>
<text text-anchor="start" x="174" y="-457" font-family="Times,serif" font-size="10.00"> &#45;1.00</text>
<polygon fill="#ffffff" stroke="none" points="26,-439 26,-452 307,-452 307,-439 26,-439"/>
<text text-anchor="start" x="27" y="-444" font-family="Times,serif" font-weight="bold" font-size="10.00">увеличить влияние </text>
<text text-anchor="start" x="115" y="-444" font-family="Times,serif" font-size="10.00">  </text>
<text text-anchor="start" x="120" y="-444" font-family="Times,serif" font-size="10.00" fill="#000000">person_10</text>
<text text-anchor="start" x="163" y="-444" font-family="Times,serif" font-size="10.00"> </text>
<text text-anchor="start" x="166" y="-444" font-family="Times,serif" font-weight="bold" font-size="10.00">на </text>
<text text-anchor="start" x="179" y="-444" font-family="Times,serif" font-size="10.00"> &#45;1.00</text>
<polygon fill="#eeeeee" stroke="none" points="26,-426 26,-439 307,-439 307,-426 26,-426"/>
<text text-anchor="start" x="27" y="-431" font-family="Times,serif" font-weight="bold" font-size="10.00">результаты:</text>
<text text-anchor="start" x="27" y="-418" font-family="Times,serif" font-weight="bold" font-size="10.00">person_1</text>
<text text-anchor="start" x="168" y="-417" font-family="Times,serif" font-size="10.00">failed</text>
<text text-anchor="start" x="27" y="-405" font-family="Times,serif" font-weight="bold" font-size="10.00">person_10</text>
<text text-anchor="start" x="168" y="-404" font-family="Times,serif" font-size="10.00">failed</text>
<text text-anchor="start" x="27" y="-392" font-family="Times,serif" font-weight="bold" font-size="10.00">person_3</text>
<text text-anchor="start" x="168" y="-391" font-family="Times,serif" font-size="10.00">neutral</text>
<polygon fill="none" stroke="black" points="24.5,-386.5 24.5,-519.5 307.5,-519.5 307.5,-386.5 24.5,-386.5"/>
</g>
<!-- [ns&#45;0]finish_delivery -->
<g id="node9" class="node"><title>[ns&#45;0]finish_delivery</title>
<polygon fill="#eeeeee" stroke="none" points="937.5,-386.5 937.5,-519.5 1198.5,-519.5 1198.5,-386.5 937.5,-386.5"/>
<text text-anchor="start" x="940" y="-509.5" font-family="Times,serif" font-style="italic" font-size="10.00">[ns&#45;0]finish_delivery</text>
<text text-anchor="start" x="940" y="-495" font-family="Times,serif" font-size="10.00">Доставить посылку получателю</text>
<polygon fill="#dddddd" stroke="none" points="939,-478 939,-491 1198,-491 1198,-478 939,-478"/>
<text text-anchor="start" x="940" y="-483" font-family="Times,serif" font-size="10.00">hero </text>
<text text-anchor="start" x="961" y="-483" font-family="Times,serif" font-weight="bold" font-size="10.00">находится в</text>
<text text-anchor="start" x="1016" y="-483" font-family="Times,serif" font-size="10.00"> place_10</text>
<polygon fill="#ffffff" stroke="none" points="939,-465 939,-478 1198,-478 1198,-465 939,-465"/>
<text text-anchor="start" x="940" y="-470" font-family="Times,serif" font-weight="bold" font-size="10.00">выдать награду </text>
<text text-anchor="start" x="1015" y="-470" font-family="Times,serif" font-size="10.00">  hero </text>
<text text-anchor="start" x="1040" y="-470" font-family="Times,serif" font-weight="bold" font-size="10.00">типа </text>
<text text-anchor="start" x="1064" y="-470" font-family="Times,serif" font-size="10.00"> finish_delivery </text>
<text text-anchor="start" x="1131" y="-470" font-family="Times,serif" font-weight="bold" font-size="10.00">в размере</text>
<text text-anchor="start" x="1174" y="-470" font-family="Times,serif" font-size="10.00"> 1.00</text>
<polygon fill="#ffffff" stroke="none" points="939,-452 939,-465 1198,-465 1198,-452 939,-452"/>
<text text-anchor="start" x="940" y="-457" font-family="Times,serif" font-weight="bold" font-size="10.00">увеличить влияние </text>
<text text-anchor="start" x="1028" y="-457" font-family="Times,serif" font-size="10.00">  </text>
<text text-anchor="start" x="1033" y="-457" font-family="Times,serif" font-size="10.00" fill="#000000">person_1</text>
<text text-anchor="start" x="1071" y="-457" font-family="Times,serif" font-size="10.00"> </text>
<text text-anchor="start" x="1074" y="-457" font-family="Times,serif" font-weight="bold" font-size="10.00">на </text>
<text text-anchor="start" x="1087" y="-457" font-family="Times,serif" font-size="10.00"> 1.00</text>
<polygon fill="#ffffff" stroke="none" points="939,-439 939,-452 1198,-452 1198,-439 939,-439"/>
<text text-anchor="start" x="940" y="-444" font-family="Times,serif" font-weight="bold" font-size="10.00">увеличить влияние </text>
<text text-anchor="start" x="1028" y="-444" font-family="Times,serif" font-size="10.00">  </text>
<text text-anchor="start" x="1033" y="-444" font-family="Times,serif" font-size="10.00" fill="#000000">person_10</text>
<text text-anchor="start" x="1076" y="-444" font-family="Times,serif" font-size="10.00"> </text>
<text text-anchor="start" x="1079" y="-444" font-family="Times,serif" font-weight="bold" font-size="10.00">на </text>
<text text-anchor="start" x="1092" y="-444" font-family="Times,serif" font-size="10.00"> 1.00</text>
<polygon fill="#eeeeee" stroke="none" points="939,-426 939,-439 1198,-439 1198,-426 939,-426"/>
<text text-anchor="start" x="940" y="-431" font-family="Times,serif" font-weight="bold" font-size="10.00">результаты:</text>
<text text-anchor="start" x="940" y="-418" font-family="Times,serif" font-weight="bold" font-size="10.00">person_1</text>
<text text-anchor="start" x="1070" y="-417" font-family="Times,serif" font-size="10.00">successed</text>
<text text-anchor="start" x="940" y="-405" font-family="Times,serif" font-weight="bold" font-size="10.00">person_10</text>
<text text-anchor="start" x="1070" y="-404" font-family="Times,serif" font-size="10.00">successed</text>
<text text-anchor="start" x="940" y="-392" font-family="Times,serif" font-weight="bold" font-size="10.00">person_3</text>
<text text-anchor="start" x="1070" y="-391" font-family="Times,serif" font-size="10.00">neutral</text>
<polygon fill="none" stroke="black" points="937.5,-386.5 937.5,-519.5 1198.5,-519.5 1198.5,-386.5 937.5,-386.5"/>
</g>
<!-- [ns&#45;0]dummy_state -->
<g id="node10" class="node"><title>[ns&#45;0]dummy_state</title>
<polygon fill="#eeeeee" stroke="none" points="341.5,-412.5 341.5,-493.5 646.5,-493.5 646.5,-412.5 341.5,-412.5"/>
<text text-anchor="start" x="344" y="-483.5" font-family="Times,serif" font-style="italic" font-size="10.00">[ns&#45;0]dummy_state</text>
<text text-anchor="start" x="344" y="-469" font-family="Times,serif" font-size="10.00">заглушка, чтобы можно было управлять появлением подделки письма</text>
<polygon fill="#eeeeee" stroke="none" points="343,-452 343,-465 646,-465 646,-452 343,-452"/>
<text text-anchor="start" x="344" y="-457" font-family="Times,serif" font-weight="bold" font-size="10.00">результаты:</text>
<text text-anchor="start" x="344" y="-444" font-family="Times,serif" font-weight="bold" font-size="10.00">person_1</text>
<text text-anchor="start" x="496" y="-443" font-family="Times,serif" font-size="10.00">neutral</text>
<text text-anchor="start" x="344" y="-431" font-family="Times,serif" font-weight="bold" font-size="10.00">person_10</text>
<text text-anchor="start" x="496" y="-430" font-family="Times,serif" font-size="10.00">neutral</text>
<text text-anchor="start" x="344" y="-418" font-family="Times,serif" font-weight="bold" font-size="10.00">person_3</text>
<text text-anchor="start" x="496" y="-417" font-family="Times,serif" font-size="10.00">neutral</text>
<polygon fill="none" stroke="black" points="341.5,-412.5 341.5,-493.5 646.5,-493.5 646.5,-412.5 341.5,-412.5"/>
</g>
<!-- #answer(False, [ns&#45;0]fight_for_stealed, [ns&#45;0]finish_fight_for_stealed__hero_died)&#45;&gt;[ns&#45;0]finish_fight_for_stealed__hero_died -->
<g id="edge2" class="edge"><title>#answer(False, [ns&#45;0]fight_for_stealed, [ns&#45;0]finish_fight_for_stealed__hero_died):#answer(False, [ns&#45;0]fight_for_stealed, [ns&#45;0]finish_fight_for_stealed__hero_died)&#45;&gt;[ns&#45;0]finish_fight_for_stealed__hero_died:[ns&#45;0]finish_fight_for_stealed__hero_died</title>
<path fill="none" stroke="black" d="M733.35,-188.731C728.508,-177.278 717.788,-151.921 707.572,-127.756"/>
<polygon fill="black" stroke="black" points="710.663,-126.079 703.545,-118.231 704.215,-128.805 710.663,-126.079"/>
</g>
<!-- #option([ns&#45;0]delivery_choice, [ns&#45;0]finish_fake_delivery, fake)&#45;&gt;[ns&#45;0]finish_fake_delivery -->
<g id="edge4" class="edge"><title>#option([ns&#45;0]delivery_choice, [ns&#45;0]finish_fake_delivery, fake):#option([ns&#45;0]delivery_choice, [ns&#45;0]finish_fake_delivery, fake)&#45;&gt;[ns&#45;0]finish_fake_delivery:[ns&#45;0]finish_fake_delivery</title>
<path fill="none" stroke="black" stroke-dasharray="1,5" d="M261.332,-569.944C251.934,-558.514 239.315,-543.166 226.34,-527.387"/>
<polygon fill="black" stroke="black" points="229.009,-525.122 219.955,-519.621 223.602,-529.568 229.009,-525.122"/>
</g>
<!-- #option([ns&#45;0]delivery_choice, [ns&#45;0]delivery_stealed, delivery)&#45;&gt;[ns&#45;0]delivery_stealed -->
<g id="edge6" class="edge"><title>#option([ns&#45;0]delivery_choice, [ns&#45;0]delivery_stealed, delivery):#option([ns&#45;0]delivery_choice, [ns&#45;0]delivery_stealed, delivery)&#45;&gt;[ns&#45;0]delivery_stealed:[ns&#45;0]delivery_stealed</title>
<path fill="none" stroke="black" stroke-dasharray="1,5" d="M795,-569.944C795,-551.12 795,-521.671 795,-497.164"/>
<polygon fill="black" stroke="black" points="798.5,-497.008 795,-487.009 791.5,-497.009 798.5,-497.008"/>
</g>
<!-- #option([ns&#45;0]delivery_choice, [ns&#45;0]finish_delivery, delivery)&#45;&gt;[ns&#45;0]finish_delivery -->
<g id="edge9" class="edge"><title>#option([ns&#45;0]delivery_choice, [ns&#45;0]finish_delivery, delivery):#option([ns&#45;0]delivery_choice, [ns&#45;0]finish_delivery, delivery)&#45;&gt;[ns&#45;0]finish_delivery:[ns&#45;0]finish_delivery</title>
<path fill="none" stroke="black" stroke-dasharray="1,5" d="M1013.89,-569.944C1019.03,-558.929 1025.87,-544.277 1032.95,-529.106"/>
<polygon fill="black" stroke="black" points="1036.32,-530.163 1037.38,-519.621 1029.98,-527.203 1036.32,-530.163"/>
</g>
<!-- #option([ns&#45;0]delivery_choice, [ns&#45;0]finish_steal, steal)&#45;&gt;[ns&#45;0]finish_steal -->
<g id="edge11" class="edge"><title>#option([ns&#45;0]delivery_choice, [ns&#45;0]finish_steal, steal):#option([ns&#45;0]delivery_choice, [ns&#45;0]finish_steal, steal)&#45;&gt;[ns&#45;0]finish_steal:[ns&#45;0]finish_steal</title>
<path fill="none" stroke="black" stroke-dasharray="1,5" d="M1264.82,-569.944C1272.43,-560.162 1282.27,-547.512 1292.64,-534.176"/>
<polygon fill="black" stroke="black" points="1295.42,-536.304 1298.8,-526.262 1289.89,-532.007 1295.42,-536.304"/>
</g>
<!-- #option([ns&#45;0]delivery_choice, [ns&#45;0]dummy_state, dummy_lie)&#45;&gt;[ns&#45;0]dummy_state -->
<g id="edge13" class="edge"><title>#option([ns&#45;0]delivery_choice, [ns&#45;0]dummy_state, dummy_lie):#option([ns&#45;0]delivery_choice, [ns&#45;0]dummy_state, dummy_lie)&#45;&gt;[ns&#45;0]dummy_state:[ns&#45;0]dummy_state</title>
<path fill="none" stroke="black" stroke-dasharray="1,5" d="M582.762,-582.849C572.986,-568.657 548.085,-532.51 527.138,-502.103"/>
<polygon fill="black" stroke="black" points="529.905,-499.951 521.35,-493.702 524.141,-503.922 529.905,-499.951"/>
</g>
<!-- #answer(True, [ns&#45;0]fight_for_stealed, [ns&#45;0]finish_fight_for_stealed__delivery)&#45;&gt;[ns&#45;0]finish_fight_for_stealed__delivery -->
<g id="edge15" class="edge"><title>#answer(True, [ns&#45;0]fight_for_stealed, [ns&#45;0]finish_fight_for_stealed__delivery):#answer(True, [ns&#45;0]fight_for_stealed, [ns&#45;0]finish_fight_for_stealed__delivery)&#45;&gt;[ns&#45;0]finish_fight_for_stealed__delivery:[ns&#45;0]finish_fight_for_stealed__delivery</title>
<path fill="none" stroke="black" d="M965.472,-182.3C969.297,-173.423 974.754,-160.76 980.615,-147.159"/>
<polygon fill="black" stroke="black" points="983.979,-148.196 984.722,-137.627 977.55,-145.426 983.979,-148.196"/>
</g>
</g>
</svg>
