<?xml version="1.0" encoding="UTF-8" standalone="no"?>
<!DOCTYPE svg PUBLIC "-//W3C//DTD SVG 1.1//EN"
 "http://www.w3.org/Graphics/SVG/1.1/DTD/svg11.dtd">
<!-- Generated by graphviz version 2.34.0 (20130907.0221)
 -->
<!-- Title: quest Pages: 1 -->
<svg width="431pt" height="356pt"
 viewBox="0.00 0.00 431.00 356.00" xmlns="http://www.w3.org/2000/svg" xmlns:xlink="http://www.w3.org/1999/xlink">
<g id="graph0" class="graph" transform="scale(1 1) rotate(0) translate(4 352)">
<title>quest</title>
<polygon fill="white" stroke="white" points="-4,4 -4,-352 427,-352 427,4 -4,4"/>
<!-- [ns&#45;0]finish_steal -->
<g id="node1" class="node"><title>[ns&#45;0]finish_steal</title>
<polygon fill="#eeeeee" stroke="none" points="7.5,-4 7.5,-98 186.5,-98 186.5,-4 7.5,-4"/>
<text text-anchor="start" x="10" y="-88.5" font-family="Times,serif" font-style="italic" font-size="10.00">[ns&#45;0]finish_steal</text>
<text text-anchor="start" x="129.5" y="-88.5" font-family="Times,serif" font-weight="bold" font-size="10.00">failed</text>
<text text-anchor="start" x="10" y="-74" font-family="Times,serif" font-size="10.00">Доставить посылку скупщику</text>
<polygon fill="#dddddd" stroke="none" points="9,-57 9,-70 186,-70 186,-57 9,-57"/>
<text text-anchor="start" x="10" y="-62" font-family="Times,serif" font-size="10.00">hero </text>
<text text-anchor="start" x="31" y="-62" font-family="Times,serif" font-weight="bold" font-size="10.00">находится в</text>
<text text-anchor="start" x="86" y="-62" font-family="Times,serif" font-size="10.00"> place_2</text>
<polygon fill="#ffffff" stroke="none" points="9,-44 9,-57 186,-57 186,-44 9,-44"/>
<text text-anchor="start" x="10" y="-49" font-family="Times,serif" font-weight="bold" font-size="10.00">выдать награду </text>
<text text-anchor="start" x="85" y="-49" font-family="Times,serif" font-size="10.00">  hero </text>
<text text-anchor="start" x="110" y="-49" font-family="Times,serif" font-weight="bold" font-size="10.00">типа </text>
<text text-anchor="start" x="134" y="-49" font-family="Times,serif" font-size="10.00"> finish_steal</text>
<polygon fill="#ffffff" stroke="none" points="9,-31 9,-44 186,-44 186,-31 9,-31"/>
<text text-anchor="start" x="10" y="-36" font-family="Times,serif" font-weight="bold" font-size="10.00">увеличить влияние </text>
<text text-anchor="start" x="98" y="-36" font-family="Times,serif" font-size="10.00">  person_1 </text>
<text text-anchor="start" x="143" y="-36" font-family="Times,serif" font-weight="bold" font-size="10.00">на </text>
<text text-anchor="start" x="156" y="-36" font-family="Times,serif" font-size="10.00"> &#45;1.00</text>
<polygon fill="#ffffff" stroke="none" points="9,-18 9,-31 186,-31 186,-18 9,-18"/>
<text text-anchor="start" x="10" y="-23" font-family="Times,serif" font-weight="bold" font-size="10.00">увеличить влияние </text>
<text text-anchor="start" x="98" y="-23" font-family="Times,serif" font-size="10.00">  person_5 </text>
<text text-anchor="start" x="143" y="-23" font-family="Times,serif" font-weight="bold" font-size="10.00">на </text>
<text text-anchor="start" x="156" y="-23" font-family="Times,serif" font-size="10.00"> &#45;1.00</text>
<polygon fill="#ffffff" stroke="none" points="9,-5 9,-18 186,-18 186,-5 9,-5"/>
<text text-anchor="start" x="10" y="-10" font-family="Times,serif" font-weight="bold" font-size="10.00">увеличить влияние </text>
<text text-anchor="start" x="98" y="-10" font-family="Times,serif" font-size="10.00">  person_2 </text>
<text text-anchor="start" x="143" y="-10" font-family="Times,serif" font-weight="bold" font-size="10.00">на </text>
<text text-anchor="start" x="156" y="-10" font-family="Times,serif" font-size="10.00"> 1.00</text>
<polygon fill="none" stroke="black" points="7.5,-4 7.5,-98 186.5,-98 186.5,-4 7.5,-4"/>
</g>
<!-- [ns&#45;0]start -->
<g id="node2" class="node"><title>[ns&#45;0]start</title>
<polygon fill="#eeeeee" stroke="none" points="128.5,-288.5 128.5,-343.5 245.5,-343.5 245.5,-288.5 128.5,-288.5"/>
<text text-anchor="start" x="131" y="-333.5" font-family="Times,serif" font-style="italic" font-size="10.00">[ns&#45;0]start</text>
<text text-anchor="start" x="198.5" y="-333.5" font-family="Times,serif" font-weight="bold" font-size="10.00">delivery</text>
<text text-anchor="start" x="131" y="-319" font-family="Times,serif" font-size="10.00">Начало: доставка</text>
<polygon fill="#dddddd" stroke="none" points="130,-302 130,-315 245,-315 245,-302 130,-302"/>
<text text-anchor="start" x="131" y="-307" font-family="Times,serif" font-size="10.00">hero </text>
<text text-anchor="start" x="152" y="-307" font-family="Times,serif" font-weight="bold" font-size="10.00">находится в</text>
<text text-anchor="start" x="207" y="-307" font-family="Times,serif" font-size="10.00"> place_1</text>
<polygon fill="#ffffff" stroke="none" points="130,-289 130,-302 245,-302 245,-289 130,-289"/>
<text text-anchor="start" x="131" y="-294" font-family="Times,serif" font-weight="bold" font-size="10.00">сообщение:</text>
<text text-anchor="start" x="183" y="-294" font-family="Times,serif" font-size="10.00"> intro</text>
<polygon fill="none" stroke="black" points="128.5,-288.5 128.5,-343.5 245.5,-343.5 245.5,-288.5 128.5,-288.5"/>
</g>
<!-- [ns&#45;0]delivery_choice -->
<g id="node3" class="node"><title>[ns&#45;0]delivery_choice</title>
<polygon fill="#ddddff" stroke="none" points="115,-214.5 115,-243.5 259,-243.5 259,-214.5 115,-214.5"/>
<text text-anchor="start" x="117" y="-233.5" font-family="Times,serif" font-style="italic" font-size="10.00">[ns&#45;0]delivery_choice</text>
<text text-anchor="start" x="117" y="-219" font-family="Times,serif" font-size="10.00">Решение: доставить или украсть</text>
<polygon fill="none" stroke="black" points="115,-214.5 115,-243.5 259,-243.5 259,-214.5 115,-214.5"/>
</g>
<!-- [ns&#45;0]start&#45;&gt;[ns&#45;0]delivery_choice -->
<g id="edge3" class="edge"><title>[ns&#45;0]start:[ns&#45;0]start&#45;&gt;[ns&#45;0]delivery_choice:[ns&#45;0]delivery_choice</title>
<path fill="none" stroke="black" d="M187,-288.105C187,-277.132 187,-264.546 187,-253.9"/>
<polygon fill="black" stroke="black" points="190.5,-253.657 187,-243.657 183.5,-253.657 190.5,-253.657"/>
</g>
<!-- #option([ns&#45;0]delivery_choice, [ns&#45;0]finish_steal) -->
<g id="node5" class="node"><title>#option([ns&#45;0]delivery_choice, [ns&#45;0]finish_steal)</title>
<polygon fill="#ffffff" stroke="none" points="68,-155 68,-169 167,-169 167,-155 68,-155"/>
<text text-anchor="start" x="69" y="-159.5" font-family="Times,serif" font-size="10.00">steal</text>
<polygon fill="#eeeeee" stroke="none" points="68,-142 68,-155 167,-155 167,-142 68,-142"/>
<text text-anchor="start" x="69" y="-147" font-family="Times,serif" font-weight="bold" font-size="10.00">сообщение:</text>
<text text-anchor="start" x="121" y="-147" font-family="Times,serif" font-size="10.00"> start_steal</text>
</g>
<!-- [ns&#45;0]delivery_choice&#45;&gt;#option([ns&#45;0]delivery_choice, [ns&#45;0]finish_steal) -->
<g id="edge1" class="edge"><title>[ns&#45;0]delivery_choice:[ns&#45;0]delivery_choice&#45;&gt;#option([ns&#45;0]delivery_choice, [ns&#45;0]finish_steal):#option([ns&#45;0]delivery_choice, [ns&#45;0]finish_steal)</title>
<path fill="none" stroke="black" stroke-dasharray="1,5" d="M173.503,-214.31C160.79,-201.416 141.897,-182.252 129.515,-169.693"/>
</g>
<!-- #option([ns&#45;0]delivery_choice, [ns&#45;0]finish_delivery) -->
<g id="node6" class="node"><title>#option([ns&#45;0]delivery_choice, [ns&#45;0]finish_delivery)</title>
<polygon fill="#ffffff" stroke="none" points="241,-155 241,-169 355,-169 355,-155 241,-155"/>
<text text-anchor="start" x="242" y="-159.5" font-family="Times,serif" font-size="10.00">delivery</text>
<polygon fill="#eeeeee" stroke="none" points="241,-142 241,-155 355,-155 355,-142 241,-142"/>
<text text-anchor="start" x="242" y="-147" font-family="Times,serif" font-weight="bold" font-size="10.00">сообщение:</text>
<text text-anchor="start" x="294" y="-147" font-family="Times,serif" font-size="10.00"> start_delivery</text>
</g>
<!-- [ns&#45;0]delivery_choice&#45;&gt;#option([ns&#45;0]delivery_choice, [ns&#45;0]finish_delivery) -->
<g id="edge4" class="edge"><title>[ns&#45;0]delivery_choice:[ns&#45;0]delivery_choice&#45;&gt;#option([ns&#45;0]delivery_choice, [ns&#45;0]finish_delivery):#option([ns&#45;0]delivery_choice, [ns&#45;0]finish_delivery)</title>
<path fill="none" stroke="black" stroke-dasharray="1,5" d="M208.14,-214.478C228.394,-201.523 258.714,-182.129 278.428,-169.519"/>
</g>
<!-- [ns&#45;0]finish_delivery -->
<g id="node4" class="node"><title>[ns&#45;0]finish_delivery</title>
<polygon fill="#eeeeee" stroke="none" points="220.5,-10.5 220.5,-91.5 415.5,-91.5 415.5,-10.5 220.5,-10.5"/>
<text text-anchor="start" x="223" y="-81.5" font-family="Times,serif" font-style="italic" font-size="10.00">[ns&#45;0]finish_delivery</text>
<text text-anchor="start" x="347" y="-81.5" font-family="Times,serif" font-weight="bold" font-size="10.00">successed</text>
<text text-anchor="start" x="223" y="-67" font-family="Times,serif" font-size="10.00">Доставить посылку получателю</text>
<polygon fill="#dddddd" stroke="none" points="222,-50 222,-63 415,-63 415,-50 222,-50"/>
<text text-anchor="start" x="223" y="-55" font-family="Times,serif" font-size="10.00">hero </text>
<text text-anchor="start" x="244" y="-55" font-family="Times,serif" font-weight="bold" font-size="10.00">находится в</text>
<text text-anchor="start" x="299" y="-55" font-family="Times,serif" font-size="10.00"> place_5</text>
<polygon fill="#ffffff" stroke="none" points="222,-37 222,-50 415,-50 415,-37 222,-37"/>
<text text-anchor="start" x="223" y="-42" font-family="Times,serif" font-weight="bold" font-size="10.00">выдать награду </text>
<text text-anchor="start" x="298" y="-42" font-family="Times,serif" font-size="10.00">  hero </text>
<text text-anchor="start" x="323" y="-42" font-family="Times,serif" font-weight="bold" font-size="10.00">типа </text>
<text text-anchor="start" x="347" y="-42" font-family="Times,serif" font-size="10.00"> finish_delivery</text>
<polygon fill="#ffffff" stroke="none" points="222,-24 222,-37 415,-37 415,-24 222,-24"/>
<text text-anchor="start" x="223" y="-29" font-family="Times,serif" font-weight="bold" font-size="10.00">увеличить влияние </text>
<text text-anchor="start" x="311" y="-29" font-family="Times,serif" font-size="10.00">  person_1 </text>
<text text-anchor="start" x="356" y="-29" font-family="Times,serif" font-weight="bold" font-size="10.00">на </text>
<text text-anchor="start" x="369" y="-29" font-family="Times,serif" font-size="10.00"> 1.00</text>
<polygon fill="#ffffff" stroke="none" points="222,-11 222,-24 415,-24 415,-11 222,-11"/>
<text text-anchor="start" x="223" y="-16" font-family="Times,serif" font-weight="bold" font-size="10.00">увеличить влияние </text>
<text text-anchor="start" x="311" y="-16" font-family="Times,serif" font-size="10.00">  person_5 </text>
<text text-anchor="start" x="356" y="-16" font-family="Times,serif" font-weight="bold" font-size="10.00">на </text>
<text text-anchor="start" x="369" y="-16" font-family="Times,serif" font-size="10.00"> 1.00</text>
<polygon fill="none" stroke="black" points="220.5,-10.5 220.5,-91.5 415.5,-91.5 415.5,-10.5 220.5,-10.5"/>
</g>
<!-- #option([ns&#45;0]delivery_choice, [ns&#45;0]finish_steal)&#45;&gt;[ns&#45;0]finish_steal -->
<g id="edge2" class="edge"><title>#option([ns&#45;0]delivery_choice, [ns&#45;0]finish_steal):#option([ns&#45;0]delivery_choice, [ns&#45;0]finish_steal)&#45;&gt;[ns&#45;0]finish_steal:[ns&#45;0]finish_steal</title>
<path fill="none" stroke="black" stroke-dasharray="1,5" d="M114.548,-142.37C112.835,-133.552 110.417,-121.099 107.922,-108.248"/>
<polygon fill="black" stroke="black" points="111.351,-107.546 106.009,-98.3964 104.479,-108.88 111.351,-107.546"/>
</g>
<!-- #option([ns&#45;0]delivery_choice, [ns&#45;0]finish_delivery)&#45;&gt;[ns&#45;0]finish_delivery -->
<g id="edge5" class="edge"><title>#option([ns&#45;0]delivery_choice, [ns&#45;0]finish_delivery):#option([ns&#45;0]delivery_choice, [ns&#45;0]finish_delivery)&#45;&gt;[ns&#45;0]finish_delivery:[ns&#45;0]finish_delivery</title>
<path fill="none" stroke="black" stroke-dasharray="1,5" d="M300.452,-142.37C302.455,-132.059 305.422,-116.777 308.349,-101.701"/>
<polygon fill="black" stroke="black" points="311.786,-102.362 310.257,-91.8778 304.915,-101.027 311.786,-102.362"/>
</g>
</g>
</svg>
