<?xml version="1.0" encoding="UTF-8" standalone="no"?>
<!DOCTYPE svg PUBLIC "-//W3C//DTD SVG 1.1//EN"
 "http://www.w3.org/Graphics/SVG/1.1/DTD/svg11.dtd">
<!-- Generated by graphviz version 2.43.0 (0)
 -->
<!-- Title: quest Pages: 1 -->
<svg width="490pt" height="638pt"
 viewBox="0.00 0.00 489.50 638.00" xmlns="http://www.w3.org/2000/svg" xmlns:xlink="http://www.w3.org/1999/xlink">
<g id="graph0" class="graph" transform="scale(1 1) rotate(0) translate(4 634)">
<title>quest</title>
<polygon fill="white" stroke="transparent" points="-4,4 -4,-634 485.5,-634 485.5,4 -4,4"/>
<g id="clust1" class="cluster">
<title>cluster_[ns&#45;0]help_subquest</title>
<polygon fill="#96ffff" stroke="black" points="8,-180 8,-403 401,-403 401,-180 8,-180"/>
<text text-anchor="middle" x="204.5" y="-387.8" font-family="Times,serif" font-size="14.00">cluster_[ns&#45;0]help_subquest</text>
</g>
<g id="clust2" class="cluster">
<title>cluster_[ns&#45;1]event</title>
<polygon fill="#ffffdd" stroke="black" points="16,-188 16,-328 393,-328 393,-188 16,-188"/>
<text text-anchor="middle" x="204.5" y="-312.8" font-family="Times,serif" font-size="14.00">cluster_[ns&#45;1]event</text>
</g>
<!-- [ns&#45;1]start -->
<g id="node1" class="node">
<title>[ns&#45;1]start</title>
<polygon fill="#eeeeee" stroke="transparent" points="130.5,-340 130.5,-368 259.5,-368 259.5,-340 130.5,-340"/>
<text text-anchor="start" x="133" y="-359" font-family="Times,serif" font-style="italic" font-size="10.00">[ns&#45;1]start</text>
<text text-anchor="start" x="212.5" y="-359" font-family="Times,serif" font-weight="bold" font-size="10.00">simple</text>
<text text-anchor="start" x="133" y="-345" font-family="Times,serif" font-size="10.00">Start: the simplest quest</text>
<polygon fill="none" stroke="black" points="130.5,-340 130.5,-368 259.5,-368 259.5,-340 130.5,-340"/>
</g>
<!-- [ns&#45;1]finish_successed -->
<g id="node3" class="node">
<title>[ns&#45;1]finish_successed</title>
<polygon fill="#eeeeee" stroke="transparent" points="203.5,-200 203.5,-293 376.5,-293 376.5,-200 203.5,-200"/>
<text text-anchor="start" x="206" y="-283.5" font-family="Times,serif" font-style="italic" font-size="10.00">[ns&#45;1]finish_successed</text>
<text text-anchor="start" x="206" y="-269.5" font-family="Times,serif" font-size="10.00">complete the quest successfully</text>
<polygon fill="#eeeeee" stroke="transparent" points="205,-252.5 205,-265.5 376,-265.5 376,-252.5 205,-252.5"/>
<text text-anchor="start" x="206" y="-257.5" font-family="Times,serif" font-weight="bold" font-size="10.00">results:</text>
<text text-anchor="start" x="206" y="-244.5" font-family="Times,serif" font-weight="bold" font-size="10.00">person_4</text>
<text text-anchor="start" x="323" y="-243.5" font-family="Times,serif" font-size="10.00">successed</text>
<text text-anchor="start" x="206" y="-231.5" font-family="Times,serif" font-weight="bold" font-size="10.00">person_9</text>
<text text-anchor="start" x="323" y="-230.5" font-family="Times,serif" font-size="10.00">successed</text>
<text text-anchor="start" x="206" y="-218.5" font-family="Times,serif" font-weight="bold" font-size="10.00">place_4</text>
<text text-anchor="start" x="323" y="-217.5" font-family="Times,serif" font-size="10.00">successed</text>
<text text-anchor="start" x="206" y="-205.5" font-family="Times,serif" font-weight="bold" font-size="10.00">place_9</text>
<text text-anchor="start" x="323" y="-204.5" font-family="Times,serif" font-size="10.00">successed</text>
<polygon fill="none" stroke="black" points="203.5,-200 203.5,-293 376.5,-293 376.5,-200 203.5,-200"/>
</g>
<!-- [ns&#45;1]start&#45;&gt;[ns&#45;1]finish_successed -->
<g id="edge1" class="edge">
<title>[ns&#45;1]start:[ns&#45;1]start&#45;&gt;[ns&#45;1]finish_successed:[ns&#45;1]finish_successed</title>
<path fill="none" stroke="black" d="M207.03,-339.64C216.05,-329.63 229.02,-315.22 242.04,-300.76"/>
<polygon fill="black" stroke="black" points="244.74,-303 248.83,-293.22 239.54,-298.31 244.74,-303"/>
</g>
<!-- [ns&#45;1]finish_failed -->
<g id="node6" class="node">
<title>[ns&#45;1]finish_failed</title>
<polygon fill="#eeeeee" stroke="transparent" points="32.5,-200 32.5,-293 169.5,-293 169.5,-200 32.5,-200"/>
<text text-anchor="start" x="35" y="-283.5" font-family="Times,serif" font-style="italic" font-size="10.00">[ns&#45;1]finish_failed</text>
<text text-anchor="start" x="35" y="-269.5" font-family="Times,serif" font-size="10.00">complete the quest poorly</text>
<polygon fill="#eeeeee" stroke="transparent" points="34,-252.5 34,-265.5 169,-265.5 169,-252.5 34,-252.5"/>
<text text-anchor="start" x="35" y="-257.5" font-family="Times,serif" font-weight="bold" font-size="10.00">results:</text>
<text text-anchor="start" x="35" y="-244.5" font-family="Times,serif" font-weight="bold" font-size="10.00">person_4</text>
<text text-anchor="start" x="134" y="-243.5" font-family="Times,serif" font-size="10.00">failed</text>
<text text-anchor="start" x="35" y="-231.5" font-family="Times,serif" font-weight="bold" font-size="10.00">person_9</text>
<text text-anchor="start" x="134" y="-230.5" font-family="Times,serif" font-size="10.00">failed</text>
<text text-anchor="start" x="35" y="-218.5" font-family="Times,serif" font-weight="bold" font-size="10.00">place_4</text>
<text text-anchor="start" x="134" y="-217.5" font-family="Times,serif" font-size="10.00">failed</text>
<text text-anchor="start" x="35" y="-205.5" font-family="Times,serif" font-weight="bold" font-size="10.00">place_9</text>
<text text-anchor="start" x="134" y="-204.5" font-family="Times,serif" font-size="10.00">failed</text>
<polygon fill="none" stroke="black" points="32.5,-200 32.5,-293 169.5,-293 169.5,-200 32.5,-200"/>
</g>
<!-- [ns&#45;1]start&#45;&gt;[ns&#45;1]finish_failed -->
<g id="edge2" class="edge">
<title>[ns&#45;1]start:[ns&#45;1]start&#45;&gt;[ns&#45;1]finish_failed:[ns&#45;1]finish_failed</title>
<path fill="none" stroke="black" d="M183.09,-339.64C174.18,-329.63 161.34,-315.22 148.46,-300.76"/>
<polygon fill="black" stroke="black" points="151,-298.36 141.74,-293.22 145.78,-303.02 151,-298.36"/>
</g>
<!-- [ns&#45;0]meeting -->
<g id="node2" class="node">
<title>[ns&#45;0]meeting</title>
<polygon fill="#ddffdd" stroke="transparent" points="123.5,-487 123.5,-528 266.5,-528 266.5,-487 123.5,-487"/>
<text text-anchor="start" x="126" y="-518.5" font-family="Times,serif" font-style="italic" font-size="10.00">[ns&#45;0]meeting</text>
<text text-anchor="start" x="126" y="-504.5" font-family="Times,serif" font-size="10.00">встреча с соратником</text>
<polygon fill="#cceecc" stroke="transparent" points="125,-487.5 125,-500.5 266,-500.5 266,-487.5 125,-487.5"/>
<text text-anchor="start" x="126" y="-492.5" font-family="Times,serif" font-size="10.00">hero </text>
<text text-anchor="start" x="153" y="-492.5" font-family="Times,serif" font-weight="bold" font-size="10.00">is located in</text>
<text text-anchor="start" x="223" y="-492.5" font-family="Times,serif" font-size="10.00"> place_4</text>
<polygon fill="none" stroke="black" points="123.5,-487 123.5,-528 266.5,-528 266.5,-487 123.5,-487"/>
</g>
<!-- #jump([ns&#45;0]meeting, [ns&#45;1]start) -->
<g id="node8" class="node">
<title>#jump([ns&#45;0]meeting, [ns&#45;1]start)</title>
<polygon fill="#eeeeee" stroke="transparent" points="136,-422 136,-435 254,-435 254,-422 136,-422"/>
<text text-anchor="start" x="137" y="-427" font-family="Times,serif" font-weight="bold" font-size="10.00">message:</text>
<text text-anchor="start" x="189" y="-427" font-family="Times,serif" font-size="10.00"> before_help</text>
</g>
<!-- [ns&#45;0]meeting&#45;&gt;#jump([ns&#45;0]meeting, [ns&#45;1]start) -->
<g id="edge5" class="edge">
<title>[ns&#45;0]meeting:[ns&#45;0]meeting&#45;&gt;#jump([ns&#45;0]meeting, [ns&#45;1]start):#jump([ns&#45;0]meeting, [ns&#45;1]start)</title>
<path fill="none" stroke="black" d="M195,-486.8C195,-469.8 195,-446.35 195,-435.69"/>
</g>
<!-- #jump([ns&#45;1]finish_successed, [ns&#45;0]finish_meeting) -->
<g id="node7" class="node">
<title>#jump([ns&#45;1]finish_successed, [ns&#45;0]finish_meeting)</title>
<polygon fill="#eeeeee" stroke="transparent" points="236,-135 236,-148 345,-148 345,-135 236,-135"/>
<text text-anchor="start" x="237" y="-140" font-family="Times,serif" font-weight="bold" font-size="10.00">message:</text>
<text text-anchor="start" x="289" y="-140" font-family="Times,serif" font-size="10.00"> after_help</text>
</g>
<!-- [ns&#45;1]finish_successed&#45;&gt;#jump([ns&#45;1]finish_successed, [ns&#45;0]finish_meeting) -->
<g id="edge3" class="edge">
<title>[ns&#45;1]finish_successed:[ns&#45;1]finish_successed&#45;&gt;#jump([ns&#45;1]finish_successed, [ns&#45;0]finish_meeting):#jump([ns&#45;1]finish_successed, [ns&#45;0]finish_meeting)</title>
<path fill="none" stroke="black" d="M290,-199.95C290,-179.84 290,-158.55 290,-148.66"/>
</g>
<!-- [ns&#45;0]start -->
<g id="node4" class="node">
<title>[ns&#45;0]start</title>
<polygon fill="#eeeeee" stroke="transparent" points="114.5,-572 114.5,-626 275.5,-626 275.5,-572 114.5,-572"/>
<text text-anchor="start" x="117" y="-617" font-family="Times,serif" font-style="italic" font-size="10.00">[ns&#45;0]start</text>
<text text-anchor="start" x="200.5" y="-617" font-family="Times,serif" font-weight="bold" font-size="10.00">help_friend</text>
<text text-anchor="start" x="117" y="-603" font-family="Times,serif" font-size="10.00">Начало: навестить соратника</text>
<polygon fill="#dddddd" stroke="transparent" points="116,-586 116,-599 275,-599 275,-586 116,-586"/>
<text text-anchor="start" x="117" y="-591" font-family="Times,serif" font-size="10.00">hero </text>
<text text-anchor="start" x="144" y="-591" font-family="Times,serif" font-weight="bold" font-size="10.00">is located in</text>
<text text-anchor="start" x="214" y="-591" font-family="Times,serif" font-size="10.00"> place_1</text>
<polygon fill="#ffffff" stroke="transparent" points="116,-573 116,-586 275,-586 275,-573 116,-573"/>
<text text-anchor="start" x="117" y="-578" font-family="Times,serif" font-weight="bold" font-size="10.00">message:</text>
<text text-anchor="start" x="169" y="-578" font-family="Times,serif" font-size="10.00"> intro</text>
<polygon fill="none" stroke="black" points="114.5,-572 114.5,-626 275.5,-626 275.5,-572 114.5,-572"/>
</g>
<!-- [ns&#45;0]start&#45;&gt;[ns&#45;0]meeting -->
<g id="edge7" class="edge">
<title>[ns&#45;0]start:[ns&#45;0]start&#45;&gt;[ns&#45;0]meeting:[ns&#45;0]meeting</title>
<path fill="none" stroke="black" d="M195,-571.63C195,-561.19 195,-549.13 195,-538.37"/>
<polygon fill="black" stroke="black" points="198.5,-538.15 195,-528.15 191.5,-538.15 198.5,-538.15"/>
</g>
<!-- [ns&#45;0]finish_meeting -->
<g id="node5" class="node">
<title>[ns&#45;0]finish_meeting</title>
<polygon fill="#eeeeee" stroke="transparent" points="106.5,-4 106.5,-84 473.5,-84 473.5,-4 106.5,-4"/>
<text text-anchor="start" x="109" y="-75" font-family="Times,serif" font-style="italic" font-size="10.00">[ns&#45;0]finish_meeting</text>
<text text-anchor="start" x="109" y="-61" font-family="Times,serif" font-size="10.00">соратнику оказана помощь</text>
<polygon fill="#dddddd" stroke="transparent" points="108,-44 108,-57 473,-57 473,-44 108,-44"/>
<text text-anchor="start" x="109" y="-49" font-family="Times,serif" font-size="10.00">hero </text>
<text text-anchor="start" x="136" y="-49" font-family="Times,serif" font-weight="bold" font-size="10.00">is located in</text>
<text text-anchor="start" x="206" y="-49" font-family="Times,serif" font-size="10.00"> place_4</text>
<polygon fill="#ffffff" stroke="transparent" points="108,-31 108,-44 473,-44 473,-31 108,-31"/>
<text text-anchor="start" x="109" y="-36" font-family="Times,serif" font-weight="bold" font-size="10.00">give reward to </text>
<text text-anchor="start" x="193" y="-36" font-family="Times,serif" font-size="10.00">  hero </text>
<text text-anchor="start" x="226" y="-36" font-family="Times,serif" font-weight="bold" font-size="10.00">of type </text>
<text text-anchor="start" x="269" y="-36" font-family="Times,serif" font-size="10.00"> finish_meeting </text>
<text text-anchor="start" x="351" y="-36" font-family="Times,serif" font-weight="bold" font-size="10.00">in the amount of</text>
<text text-anchor="start" x="447" y="-36" font-family="Times,serif" font-size="10.00"> 1.00</text>
<polygon fill="#eeeeee" stroke="transparent" points="108,-18 108,-31 473,-31 473,-18 108,-18"/>
<text text-anchor="start" x="109" y="-23" font-family="Times,serif" font-weight="bold" font-size="10.00">results:</text>
<text text-anchor="start" x="109" y="-10" font-family="Times,serif" font-weight="bold" font-size="10.00">person_4</text>
<text text-anchor="start" x="318" y="-9" font-family="Times,serif" font-size="10.00">successed</text>
<polygon fill="none" stroke="black" points="106.5,-4 106.5,-84 473.5,-84 473.5,-4 106.5,-4"/>
</g>
<!-- #jump([ns&#45;1]finish_successed, [ns&#45;0]finish_meeting)&#45;&gt;[ns&#45;0]finish_meeting -->
<g id="edge4" class="edge">
<title>#jump([ns&#45;1]finish_successed, [ns&#45;0]finish_meeting):#jump([ns&#45;1]finish_successed, [ns&#45;0]finish_meeting)&#45;&gt;[ns&#45;0]finish_meeting:[ns&#45;0]finish_meeting</title>
<path fill="none" stroke="black" d="M290,-135.28C290,-126.99 290,-110.83 290,-94.44"/>
<polygon fill="black" stroke="black" points="293.5,-94.27 290,-84.27 286.5,-94.27 293.5,-94.27"/>
</g>
<!-- #jump([ns&#45;0]meeting, [ns&#45;1]start)&#45;&gt;[ns&#45;1]start -->
<g id="edge6" class="edge">
<title>#jump([ns&#45;0]meeting, [ns&#45;1]start):#jump([ns&#45;0]meeting, [ns&#45;1]start)&#45;&gt;[ns&#45;1]start:[ns&#45;1]start</title>
<path fill="none" stroke="black" d="M195,-422.27C195,-412.97 195,-394.06 195,-378.65"/>
<polygon fill="black" stroke="black" points="198.5,-378.24 195,-368.24 191.5,-378.24 198.5,-378.24"/>
</g>
</g>
</svg>
