<?xml version="1.0" encoding="UTF-8" standalone="no"?>
<!DOCTYPE svg PUBLIC "-//W3C//DTD SVG 1.1//EN"
 "http://www.w3.org/Graphics/SVG/1.1/DTD/svg11.dtd">
<!-- Generated by graphviz version 2.34.0 (20130907.0221)
 -->
<!-- Title: quest Pages: 1 -->
<svg width="434pt" height="658pt"
 viewBox="0.00 0.00 434.00 658.00" xmlns="http://www.w3.org/2000/svg" xmlns:xlink="http://www.w3.org/1999/xlink">
<g id="graph0" class="graph" transform="scale(1 1) rotate(0) translate(4 654)">
<title>quest</title>
<polygon fill="white" stroke="white" points="-4,4 -4,-654 430,-654 430,4 -4,4"/>
<g id="clust1" class="cluster"><title>cluster_[ns&#45;0]help_subquest</title>
<polygon fill="#96ffff" stroke="black" points="34,-194 34,-420 418,-420 418,-194 34,-194"/>
<text text-anchor="middle" x="226" y="-404.8" font-family="Times,serif" font-size="14.00">cluster_[ns&#45;0]help_subquest</text>
</g>
<g id="clust2" class="cluster"><title>cluster_[ns&#45;1]event</title>
<polygon fill="#ffffdd" stroke="black" points="42,-202 42,-343 410,-343 410,-202 42,-202"/>
<text text-anchor="middle" x="226" y="-327.8" font-family="Times,serif" font-size="14.00">cluster_[ns&#45;1]event</text>
</g>
<!-- [ns&#45;1]start -->
<g id="node1" class="node"><title>[ns&#45;1]start</title>
<polygon fill="#eeeeee" stroke="none" points="163.5,-355.5 163.5,-384.5 296.5,-384.5 296.5,-355.5 163.5,-355.5"/>
<text text-anchor="start" x="166" y="-374.5" font-family="Times,serif" font-style="italic" font-size="10.00">[ns&#45;1]start</text>
<text text-anchor="start" x="249.5" y="-374.5" font-family="Times,serif" font-weight="bold" font-size="10.00">simple</text>
<text text-anchor="start" x="166" y="-360" font-family="Times,serif" font-size="10.00">Начало: самый простой квест</text>
<polygon fill="none" stroke="black" points="163.5,-355.5 163.5,-384.5 296.5,-384.5 296.5,-355.5 163.5,-355.5"/>
</g>
<!-- [ns&#45;1]finish_failed -->
<g id="node3" class="node"><title>[ns&#45;1]finish_failed</title>
<polygon fill="#eeeeee" stroke="none" points="252,-214 252,-308 394,-308 394,-214 252,-214"/>
<text text-anchor="start" x="254" y="-298.5" font-family="Times,serif" font-style="italic" font-size="10.00">[ns&#45;1]finish_failed</text>
<text text-anchor="start" x="254" y="-284" font-family="Times,serif" font-size="10.00">завершить задание плохо</text>
<polygon fill="#eeeeee" stroke="none" points="253,-267 253,-280 393,-280 393,-267 253,-267"/>
<text text-anchor="start" x="254" y="-272" font-family="Times,serif" font-weight="bold" font-size="10.00">результаты:</text>
<text text-anchor="start" x="254" y="-259" font-family="Times,serif" font-weight="bold" font-size="10.00">person_2</text>
<text text-anchor="start" x="365" y="-258" font-family="Times,serif" font-size="10.00">failed</text>
<text text-anchor="start" x="254" y="-246" font-family="Times,serif" font-weight="bold" font-size="10.00">person_4</text>
<text text-anchor="start" x="365" y="-245" font-family="Times,serif" font-size="10.00">failed</text>
<text text-anchor="start" x="254" y="-233" font-family="Times,serif" font-weight="bold" font-size="10.00">place_2</text>
<text text-anchor="start" x="365" y="-232" font-family="Times,serif" font-size="10.00">failed</text>
<text text-anchor="start" x="254" y="-220" font-family="Times,serif" font-weight="bold" font-size="10.00">place_4</text>
<text text-anchor="start" x="365" y="-219" font-family="Times,serif" font-size="10.00">failed</text>
<polygon fill="none" stroke="black" points="252,-214 252,-308 394,-308 394,-214 252,-214"/>
</g>
<!-- [ns&#45;1]start&#45;&gt;[ns&#45;1]finish_failed -->
<g id="edge1" class="edge"><title>[ns&#45;1]start:[ns&#45;1]start&#45;&gt;[ns&#45;1]finish_failed:[ns&#45;1]finish_failed</title>
<path fill="none" stroke="black" d="M241.779,-355.448C250.602,-345.296 263.302,-330.685 276.046,-316.022"/>
<polygon fill="black" stroke="black" points="278.776,-318.216 282.695,-308.373 273.493,-313.624 278.776,-318.216"/>
</g>
<!-- [ns&#45;1]finish_successed -->
<g id="node4" class="node"><title>[ns&#45;1]finish_successed</title>
<polygon fill="#eeeeee" stroke="none" points="58.5,-214 58.5,-308 217.5,-308 217.5,-214 58.5,-214"/>
<text text-anchor="start" x="61" y="-298.5" font-family="Times,serif" font-style="italic" font-size="10.00">[ns&#45;1]finish_successed</text>
<text text-anchor="start" x="61" y="-284" font-family="Times,serif" font-size="10.00">завершить задание удачно</text>
<polygon fill="#eeeeee" stroke="none" points="60,-267 60,-280 217,-280 217,-267 60,-267"/>
<text text-anchor="start" x="61" y="-272" font-family="Times,serif" font-weight="bold" font-size="10.00">результаты:</text>
<text text-anchor="start" x="61" y="-259" font-family="Times,serif" font-weight="bold" font-size="10.00">person_2</text>
<text text-anchor="start" x="176" y="-258" font-family="Times,serif" font-size="10.00">successed</text>
<text text-anchor="start" x="61" y="-246" font-family="Times,serif" font-weight="bold" font-size="10.00">person_4</text>
<text text-anchor="start" x="176" y="-245" font-family="Times,serif" font-size="10.00">successed</text>
<text text-anchor="start" x="61" y="-233" font-family="Times,serif" font-weight="bold" font-size="10.00">place_2</text>
<text text-anchor="start" x="176" y="-232" font-family="Times,serif" font-size="10.00">successed</text>
<text text-anchor="start" x="61" y="-220" font-family="Times,serif" font-weight="bold" font-size="10.00">place_4</text>
<text text-anchor="start" x="176" y="-219" font-family="Times,serif" font-size="10.00">successed</text>
<polygon fill="none" stroke="black" points="58.5,-214 58.5,-308 217.5,-308 217.5,-214 58.5,-214"/>
</g>
<!-- [ns&#45;1]start&#45;&gt;[ns&#45;1]finish_successed -->
<g id="edge7" class="edge"><title>[ns&#45;1]start:[ns&#45;1]start&#45;&gt;[ns&#45;1]finish_successed:[ns&#45;1]finish_successed</title>
<path fill="none" stroke="black" d="M218.348,-355.448C209.619,-345.296 197.056,-330.685 184.449,-316.022"/>
<polygon fill="black" stroke="black" points="187.045,-313.673 177.872,-308.373 181.737,-318.237 187.045,-313.673"/>
</g>
<!-- [ns&#45;0]start -->
<g id="node2" class="node"><title>[ns&#45;0]start</title>
<polygon fill="#eeeeee" stroke="none" points="164.5,-590.5 164.5,-645.5 295.5,-645.5 295.5,-590.5 164.5,-590.5"/>
<text text-anchor="start" x="167" y="-635.5" font-family="Times,serif" font-style="italic" font-size="10.00">[ns&#45;0]start</text>
<text text-anchor="start" x="238.5" y="-635.5" font-family="Times,serif" font-weight="bold" font-size="10.00">help_friend</text>
<text text-anchor="start" x="167" y="-621" font-family="Times,serif" font-size="10.00">Начало: навестить соратника</text>
<polygon fill="#dddddd" stroke="none" points="166,-604 166,-617 295,-617 295,-604 166,-604"/>
<text text-anchor="start" x="167" y="-609" font-family="Times,serif" font-size="10.00">hero </text>
<text text-anchor="start" x="188" y="-609" font-family="Times,serif" font-weight="bold" font-size="10.00">находится в</text>
<text text-anchor="start" x="243" y="-609" font-family="Times,serif" font-size="10.00"> place_1</text>
<polygon fill="#ffffff" stroke="none" points="166,-591 166,-604 295,-604 295,-591 166,-591"/>
<text text-anchor="start" x="167" y="-596" font-family="Times,serif" font-weight="bold" font-size="10.00">сообщение:</text>
<text text-anchor="start" x="219" y="-596" font-family="Times,serif" font-size="10.00"> intro</text>
<polygon fill="none" stroke="black" points="164.5,-590.5 164.5,-645.5 295.5,-645.5 295.5,-590.5 164.5,-590.5"/>
</g>
<!-- [ns&#45;0]meeting -->
<g id="node5" class="node"><title>[ns&#45;0]meeting</title>
<polygon fill="#ddffdd" stroke="none" points="152.5,-504 152.5,-546 307.5,-546 307.5,-504 152.5,-504"/>
<text text-anchor="start" x="155" y="-536.5" font-family="Times,serif" font-style="italic" font-size="10.00">[ns&#45;0]meeting</text>
<text text-anchor="start" x="155" y="-522" font-family="Times,serif" font-size="10.00">встреча с соратником</text>
<polygon fill="#cceecc" stroke="none" points="154,-505 154,-518 307,-518 307,-505 154,-505"/>
<text text-anchor="start" x="155" y="-510" font-family="Times,serif" font-size="10.00">hero </text>
<text text-anchor="start" x="176" y="-510" font-family="Times,serif" font-weight="bold" font-size="10.00">находится в</text>
<text text-anchor="start" x="231" y="-510" font-family="Times,serif" font-size="10.00"> place_4</text>
<polygon fill="none" stroke="black" points="152.5,-504 152.5,-546 307.5,-546 307.5,-504 152.5,-504"/>
</g>
<!-- [ns&#45;0]start&#45;&gt;[ns&#45;0]meeting -->
<g id="edge6" class="edge"><title>[ns&#45;0]start:[ns&#45;0]start&#45;&gt;[ns&#45;0]meeting:[ns&#45;0]meeting</title>
<path fill="none" stroke="black" d="M230,-590.189C230,-579.542 230,-567.241 230,-556.275"/>
<polygon fill="black" stroke="black" points="233.5,-556.266 230,-546.266 226.5,-556.267 233.5,-556.266"/>
</g>
<!-- #jump([ns&#45;1]finish_successed, [ns&#45;0]finish_meeting) -->
<g id="node7" class="node"><title>#jump([ns&#45;1]finish_successed, [ns&#45;0]finish_meeting)</title>
<polygon fill="#eeeeee" stroke="none" points="89,-149 89,-163 188,-163 188,-149 89,-149"/>
<text text-anchor="start" x="90" y="-154.5" font-family="Times,serif" font-weight="bold" font-size="10.00">сообщение:</text>
<text text-anchor="start" x="142" y="-154.5" font-family="Times,serif" font-size="10.00"> after_help</text>
</g>
<!-- [ns&#45;1]finish_successed&#45;&gt;#jump([ns&#45;1]finish_successed, [ns&#45;0]finish_meeting) -->
<g id="edge2" class="edge"><title>[ns&#45;1]finish_successed:[ns&#45;1]finish_successed&#45;&gt;#jump([ns&#45;1]finish_successed, [ns&#45;0]finish_meeting):#jump([ns&#45;1]finish_successed, [ns&#45;0]finish_meeting)</title>
<path fill="none" stroke="black" d="M138,-213.923C138,-194.211 138,-173.429 138,-163.298"/>
</g>
<!-- #jump([ns&#45;0]meeting, [ns&#45;1]start) -->
<g id="node8" class="node"><title>#jump([ns&#45;0]meeting, [ns&#45;1]start)</title>
<polygon fill="#eeeeee" stroke="none" points="177,-439 177,-453 284,-453 284,-439 177,-439"/>
<text text-anchor="start" x="178" y="-444.5" font-family="Times,serif" font-weight="bold" font-size="10.00">сообщение:</text>
<text text-anchor="start" x="230" y="-444.5" font-family="Times,serif" font-size="10.00"> before_help</text>
</g>
<!-- [ns&#45;0]meeting&#45;&gt;#jump([ns&#45;0]meeting, [ns&#45;1]start) -->
<g id="edge4" class="edge"><title>[ns&#45;0]meeting:[ns&#45;0]meeting&#45;&gt;#jump([ns&#45;0]meeting, [ns&#45;1]start):#jump([ns&#45;0]meeting, [ns&#45;1]start)</title>
<path fill="none" stroke="black" d="M230,-503.769C230,-487.015 230,-464.253 230,-453.342"/>
</g>
<!-- [ns&#45;0]finish_meeting -->
<g id="node6" class="node"><title>[ns&#45;0]finish_meeting</title>
<polygon fill="#eeeeee" stroke="none" points="7.5,-4 7.5,-98 268.5,-98 268.5,-4 7.5,-4"/>
<text text-anchor="start" x="10" y="-88.5" font-family="Times,serif" font-style="italic" font-size="10.00">[ns&#45;0]finish_meeting</text>
<text text-anchor="start" x="10" y="-74" font-family="Times,serif" font-size="10.00">соратнику оказана помощь</text>
<polygon fill="#dddddd" stroke="none" points="9,-57 9,-70 268,-70 268,-57 9,-57"/>
<text text-anchor="start" x="10" y="-62" font-family="Times,serif" font-size="10.00">hero </text>
<text text-anchor="start" x="31" y="-62" font-family="Times,serif" font-weight="bold" font-size="10.00">находится в</text>
<text text-anchor="start" x="86" y="-62" font-family="Times,serif" font-size="10.00"> place_4</text>
<polygon fill="#ffffff" stroke="none" points="9,-44 9,-57 268,-57 268,-44 9,-44"/>
<text text-anchor="start" x="10" y="-49" font-family="Times,serif" font-weight="bold" font-size="10.00">выдать награду </text>
<text text-anchor="start" x="85" y="-49" font-family="Times,serif" font-size="10.00">  hero </text>
<text text-anchor="start" x="110" y="-49" font-family="Times,serif" font-weight="bold" font-size="10.00">типа </text>
<text text-anchor="start" x="134" y="-49" font-family="Times,serif" font-size="10.00"> finish_meeting </text>
<text text-anchor="start" x="201" y="-49" font-family="Times,serif" font-weight="bold" font-size="10.00">в размере</text>
<text text-anchor="start" x="244" y="-49" font-family="Times,serif" font-size="10.00"> 1.00</text>
<polygon fill="#ffffff" stroke="none" points="9,-31 9,-44 268,-44 268,-31 9,-31"/>
<text text-anchor="start" x="10" y="-36" font-family="Times,serif" font-weight="bold" font-size="10.00">увеличить влияние </text>
<text text-anchor="start" x="98" y="-36" font-family="Times,serif" font-size="10.00">  person_4 </text>
<text text-anchor="start" x="143" y="-36" font-family="Times,serif" font-weight="bold" font-size="10.00">на </text>
<text text-anchor="start" x="156" y="-36" font-family="Times,serif" font-size="10.00"> 1.00</text>
<polygon fill="#eeeeee" stroke="none" points="9,-18 9,-31 268,-31 268,-18 9,-18"/>
<text text-anchor="start" x="10" y="-23" font-family="Times,serif" font-weight="bold" font-size="10.00">результаты:</text>
<text text-anchor="start" x="10" y="-10" font-family="Times,serif" font-weight="bold" font-size="10.00">person_4</text>
<text text-anchor="start" x="140" y="-9" font-family="Times,serif" font-size="10.00">successed</text>
<polygon fill="none" stroke="black" points="7.5,-4 7.5,-98 268.5,-98 268.5,-4 7.5,-4"/>
</g>
<!-- #jump([ns&#45;1]finish_successed, [ns&#45;0]finish_meeting)&#45;&gt;[ns&#45;0]finish_meeting -->
<g id="edge3" class="edge"><title>#jump([ns&#45;1]finish_successed, [ns&#45;0]finish_meeting):#jump([ns&#45;1]finish_successed, [ns&#45;0]finish_meeting)&#45;&gt;[ns&#45;0]finish_meeting:[ns&#45;0]finish_meeting</title>
<path fill="none" stroke="black" d="M138,-148.865C138,-140.545 138,-124.829 138,-108.44"/>
<polygon fill="black" stroke="black" points="141.5,-108.209 138,-98.2087 134.5,-108.209 141.5,-108.209"/>
</g>
<!-- #jump([ns&#45;0]meeting, [ns&#45;1]start)&#45;&gt;[ns&#45;1]start -->
<g id="edge5" class="edge"><title>#jump([ns&#45;0]meeting, [ns&#45;1]start):#jump([ns&#45;0]meeting, [ns&#45;1]start)&#45;&gt;[ns&#45;1]start:[ns&#45;1]start</title>
<path fill="none" stroke="black" d="M230,-438.944C230,-429.352 230,-410.159 230,-394.611"/>
<polygon fill="black" stroke="black" points="233.5,-394.593 230,-384.593 226.5,-394.593 233.5,-394.593"/>
</g>
</g>
</svg>
