<?xml version="1.0" encoding="UTF-8" standalone="no"?>
<!DOCTYPE svg PUBLIC "-//W3C//DTD SVG 1.1//EN"
 "http://www.w3.org/Graphics/SVG/1.1/DTD/svg11.dtd">
<!-- Generated by graphviz version 2.34.0 (20130907.0221)
 -->
<!-- Title: quest Pages: 1 -->
<svg width="419pt" height="690pt"
 viewBox="0.00 0.00 419.00 690.00" xmlns="http://www.w3.org/2000/svg" xmlns:xlink="http://www.w3.org/1999/xlink">
<g id="graph0" class="graph" transform="scale(1 1) rotate(0) translate(4 686)">
<title>quest</title>
<polygon fill="white" stroke="white" points="-4,4 -4,-686 415,-686 415,4 -4,4"/>
<g id="clust1" class="cluster"><title>cluster_[ns&#45;0]help_subquest</title>
<polygon fill="#96ffff" stroke="black" points="19,-300 19,-526 403,-526 403,-300 19,-300"/>
<text text-anchor="middle" x="211" y="-510.8" font-family="Times,serif" font-size="14.00">cluster_[ns&#45;0]help_subquest</text>
</g>
<g id="clust2" class="cluster"><title>cluster_[ns&#45;1]event</title>
<polygon fill="#ffffdd" stroke="black" points="27,-308 27,-449 395,-449 395,-308 27,-308"/>
<text text-anchor="middle" x="211" y="-433.8" font-family="Times,serif" font-size="14.00">cluster_[ns&#45;1]event</text>
</g>
<!-- [ns&#45;1]start -->
<g id="node1" class="node"><title>[ns&#45;1]start</title>
<polygon fill="#eeeeee" stroke="none" points="139.5,-461.5 139.5,-490.5 272.5,-490.5 272.5,-461.5 139.5,-461.5"/>
<text text-anchor="start" x="142" y="-480.5" font-family="Times,serif" font-style="italic" font-size="10.00">[ns&#45;1]start</text>
<text text-anchor="start" x="225.5" y="-480.5" font-family="Times,serif" font-weight="bold" font-size="10.00">simple</text>
<text text-anchor="start" x="142" y="-466" font-family="Times,serif" font-size="10.00">Начало: самый простой квест</text>
<polygon fill="none" stroke="black" points="139.5,-461.5 139.5,-490.5 272.5,-490.5 272.5,-461.5 139.5,-461.5"/>
</g>
<!-- [ns&#45;1]finish_failed -->
<g id="node4" class="node"><title>[ns&#45;1]finish_failed</title>
<polygon fill="#eeeeee" stroke="none" points="43,-320 43,-414 185,-414 185,-320 43,-320"/>
<text text-anchor="start" x="45" y="-404.5" font-family="Times,serif" font-style="italic" font-size="10.00">[ns&#45;1]finish_failed</text>
<text text-anchor="start" x="45" y="-390" font-family="Times,serif" font-size="10.00">завершить задание плохо</text>
<polygon fill="#eeeeee" stroke="none" points="44,-373 44,-386 184,-386 184,-373 44,-373"/>
<text text-anchor="start" x="45" y="-378" font-family="Times,serif" font-weight="bold" font-size="10.00">результаты:</text>
<text text-anchor="start" x="45" y="-365" font-family="Times,serif" font-weight="bold" font-size="10.00">person_8</text>
<text text-anchor="start" x="156" y="-364" font-family="Times,serif" font-size="10.00">failed</text>
<text text-anchor="start" x="45" y="-352" font-family="Times,serif" font-weight="bold" font-size="10.00">person_9</text>
<text text-anchor="start" x="156" y="-351" font-family="Times,serif" font-size="10.00">failed</text>
<text text-anchor="start" x="45" y="-339" font-family="Times,serif" font-weight="bold" font-size="10.00">place_8</text>
<text text-anchor="start" x="156" y="-338" font-family="Times,serif" font-size="10.00">failed</text>
<text text-anchor="start" x="45" y="-326" font-family="Times,serif" font-weight="bold" font-size="10.00">place_9</text>
<text text-anchor="start" x="156" y="-325" font-family="Times,serif" font-size="10.00">failed</text>
<polygon fill="none" stroke="black" points="43,-320 43,-414 185,-414 185,-320 43,-320"/>
</g>
<!-- [ns&#45;1]start&#45;&gt;[ns&#45;1]finish_failed -->
<g id="edge3" class="edge"><title>[ns&#45;1]start:[ns&#45;1]start&#45;&gt;[ns&#45;1]finish_failed:[ns&#45;1]finish_failed</title>
<path fill="none" stroke="black" d="M194.348,-461.448C185.619,-451.296 173.056,-436.685 160.449,-422.022"/>
<polygon fill="black" stroke="black" points="163.045,-419.673 153.872,-414.373 157.737,-424.237 163.045,-419.673"/>
</g>
<!-- [ns&#45;1]finish_successed -->
<g id="node5" class="node"><title>[ns&#45;1]finish_successed</title>
<polygon fill="#eeeeee" stroke="none" points="219.5,-320 219.5,-414 378.5,-414 378.5,-320 219.5,-320"/>
<text text-anchor="start" x="222" y="-404.5" font-family="Times,serif" font-style="italic" font-size="10.00">[ns&#45;1]finish_successed</text>
<text text-anchor="start" x="222" y="-390" font-family="Times,serif" font-size="10.00">завершить задание удачно</text>
<polygon fill="#eeeeee" stroke="none" points="221,-373 221,-386 378,-386 378,-373 221,-373"/>
<text text-anchor="start" x="222" y="-378" font-family="Times,serif" font-weight="bold" font-size="10.00">результаты:</text>
<text text-anchor="start" x="222" y="-365" font-family="Times,serif" font-weight="bold" font-size="10.00">person_8</text>
<text text-anchor="start" x="337" y="-364" font-family="Times,serif" font-size="10.00">successed</text>
<text text-anchor="start" x="222" y="-352" font-family="Times,serif" font-weight="bold" font-size="10.00">person_9</text>
<text text-anchor="start" x="337" y="-351" font-family="Times,serif" font-size="10.00">successed</text>
<text text-anchor="start" x="222" y="-339" font-family="Times,serif" font-weight="bold" font-size="10.00">place_8</text>
<text text-anchor="start" x="337" y="-338" font-family="Times,serif" font-size="10.00">successed</text>
<text text-anchor="start" x="222" y="-326" font-family="Times,serif" font-weight="bold" font-size="10.00">place_9</text>
<text text-anchor="start" x="337" y="-325" font-family="Times,serif" font-size="10.00">successed</text>
<polygon fill="none" stroke="black" points="219.5,-320 219.5,-414 378.5,-414 378.5,-320 219.5,-320"/>
</g>
<!-- [ns&#45;1]start&#45;&gt;[ns&#45;1]finish_successed -->
<g id="edge6" class="edge"><title>[ns&#45;1]start:[ns&#45;1]start&#45;&gt;[ns&#45;1]finish_successed:[ns&#45;1]finish_successed</title>
<path fill="none" stroke="black" d="M217.779,-461.448C226.602,-451.296 239.302,-436.685 252.046,-422.022"/>
<polygon fill="black" stroke="black" points="254.776,-424.216 258.695,-414.373 249.493,-419.624 254.776,-424.216"/>
</g>
<!-- [ns&#45;0]start -->
<g id="node2" class="node"><title>[ns&#45;0]start</title>
<polygon fill="#eeeeee" stroke="none" points="138.5,-610 138.5,-678 273.5,-678 273.5,-610 138.5,-610"/>
<text text-anchor="start" x="141" y="-668.5" font-family="Times,serif" font-style="italic" font-size="10.00">[ns&#45;0]start</text>
<text text-anchor="start" x="230.5" y="-668.5" font-family="Times,serif" font-weight="bold" font-size="10.00">help</text>
<text text-anchor="start" x="141" y="-654" font-family="Times,serif" font-size="10.00">Начало: помочь знакомому</text>
<polygon fill="#dddddd" stroke="none" points="140,-637 140,-650 273,-650 273,-637 140,-637"/>
<text text-anchor="start" x="141" y="-642" font-family="Times,serif" font-size="10.00">hero </text>
<text text-anchor="start" x="162" y="-642" font-family="Times,serif" font-weight="bold" font-size="10.00">находится в</text>
<text text-anchor="start" x="217" y="-642" font-family="Times,serif" font-size="10.00"> place_1</text>
<polygon fill="#dddddd" stroke="none" points="140,-624 140,-637 273,-637 273,-624 140,-624"/>
<text text-anchor="start" x="141" y="-629" font-family="Times,serif" font-size="10.00">person_9 </text>
<text text-anchor="start" x="181" y="-629" font-family="Times,serif" font-weight="bold" font-size="10.00">находится в</text>
<text text-anchor="start" x="236" y="-629" font-family="Times,serif" font-size="10.00"> place_9</text>
<polygon fill="#ffffff" stroke="none" points="140,-611 140,-624 273,-624 273,-611 140,-611"/>
<text text-anchor="start" x="141" y="-616" font-family="Times,serif" font-weight="bold" font-size="10.00">сообщение:</text>
<text text-anchor="start" x="193" y="-616" font-family="Times,serif" font-size="10.00"> intro</text>
<polygon fill="none" stroke="black" points="138.5,-610 138.5,-678 273.5,-678 273.5,-610 138.5,-610"/>
</g>
<!-- #jump([ns&#45;0]start, [ns&#45;1]start) -->
<g id="node7" class="node"><title>#jump([ns&#45;0]start, [ns&#45;1]start)</title>
<polygon fill="#eeeeee" stroke="none" points="153,-545 153,-559 260,-559 260,-545 153,-545"/>
<text text-anchor="start" x="154" y="-550.5" font-family="Times,serif" font-weight="bold" font-size="10.00">сообщение:</text>
<text text-anchor="start" x="206" y="-550.5" font-family="Times,serif" font-size="10.00"> before_help</text>
</g>
<!-- [ns&#45;0]start&#45;&gt;#jump([ns&#45;0]start, [ns&#45;1]start) -->
<g id="edge1" class="edge"><title>[ns&#45;0]start:[ns&#45;0]start&#45;&gt;#jump([ns&#45;0]start, [ns&#45;1]start):#jump([ns&#45;0]start, [ns&#45;1]start)</title>
<path fill="none" stroke="black" d="M206,-609.998C206,-591.336 206,-569.703 206,-559.268"/>
</g>
<!-- [ns&#45;0]finish_failed -->
<g id="node3" class="node"><title>[ns&#45;0]finish_failed</title>
<polygon fill="#eeeeee" stroke="none" points="7.5,-168.5 7.5,-275.5 192.5,-275.5 192.5,-168.5 7.5,-168.5"/>
<text text-anchor="start" x="10" y="-265.5" font-family="Times,serif" font-style="italic" font-size="10.00">[ns&#45;0]finish_failed</text>
<text text-anchor="start" x="10" y="-251" font-family="Times,serif" font-size="10.00">не удалось помочь</text>
<polygon fill="#ffffff" stroke="none" points="9,-234 9,-247 192,-247 192,-234 9,-234"/>
<text text-anchor="start" x="10" y="-239" font-family="Times,serif" font-weight="bold" font-size="10.00">выдать награду </text>
<text text-anchor="start" x="85" y="-239" font-family="Times,serif" font-size="10.00">  hero </text>
<text text-anchor="start" x="110" y="-239" font-family="Times,serif" font-weight="bold" font-size="10.00">типа </text>
<text text-anchor="start" x="134" y="-239" font-family="Times,serif" font-size="10.00"> finish_failed</text>
<polygon fill="#ffffff" stroke="none" points="9,-221 9,-234 192,-234 192,-221 9,-221"/>
<text text-anchor="start" x="10" y="-226" font-family="Times,serif" font-weight="bold" font-size="10.00">увеличить влияние </text>
<text text-anchor="start" x="98" y="-226" font-family="Times,serif" font-size="10.00">  person_1 </text>
<text text-anchor="start" x="143" y="-226" font-family="Times,serif" font-weight="bold" font-size="10.00">на </text>
<text text-anchor="start" x="156" y="-226" font-family="Times,serif" font-size="10.00"> &#45;1.00</text>
<polygon fill="#ffffff" stroke="none" points="9,-208 9,-221 192,-221 192,-208 9,-208"/>
<text text-anchor="start" x="10" y="-213" font-family="Times,serif" font-weight="bold" font-size="10.00">увеличить влияние </text>
<text text-anchor="start" x="98" y="-213" font-family="Times,serif" font-size="10.00">  person_9 </text>
<text text-anchor="start" x="143" y="-213" font-family="Times,serif" font-weight="bold" font-size="10.00">на </text>
<text text-anchor="start" x="156" y="-213" font-family="Times,serif" font-size="10.00"> &#45;1.00</text>
<polygon fill="#eeeeee" stroke="none" points="9,-195 9,-208 192,-208 192,-195 9,-195"/>
<text text-anchor="start" x="10" y="-200" font-family="Times,serif" font-weight="bold" font-size="10.00">результаты:</text>
<text text-anchor="start" x="10" y="-187" font-family="Times,serif" font-weight="bold" font-size="10.00">person_1</text>
<text text-anchor="start" x="102" y="-186" font-family="Times,serif" font-size="10.00">failed</text>
<text text-anchor="start" x="10" y="-174" font-family="Times,serif" font-weight="bold" font-size="10.00">person_9</text>
<text text-anchor="start" x="102" y="-173" font-family="Times,serif" font-size="10.00">failed</text>
<polygon fill="none" stroke="black" points="7.5,-168.5 7.5,-275.5 192.5,-275.5 192.5,-168.5 7.5,-168.5"/>
</g>
<!-- [ns&#45;1]finish_failed&#45;&gt;[ns&#45;0]finish_failed -->
<g id="edge7" class="edge"><title>[ns&#45;1]finish_failed:[ns&#45;1]finish_failed&#45;&gt;[ns&#45;0]finish_failed:[ns&#45;0]finish_failed</title>
<path fill="none" stroke="black" d="M109.493,-319.967C108.424,-309.042 107.265,-297.205 106.136,-285.678"/>
<polygon fill="black" stroke="black" points="109.613,-285.271 105.155,-275.659 102.647,-285.953 109.613,-285.271"/>
</g>
<!-- #jump([ns&#45;1]finish_successed, [ns&#45;0]finish_successed) -->
<g id="node8" class="node"><title>#jump([ns&#45;1]finish_successed, [ns&#45;0]finish_successed)</title>
<polygon fill="#eeeeee" stroke="none" points="227,-215 227,-229 371,-229 371,-215 227,-215"/>
<text text-anchor="start" x="228" y="-220.5" font-family="Times,serif" font-weight="bold" font-size="10.00">сообщение:</text>
<text text-anchor="start" x="280" y="-220.5" font-family="Times,serif" font-size="10.00"> after_successed_help</text>
</g>
<!-- [ns&#45;1]finish_successed&#45;&gt;#jump([ns&#45;1]finish_successed, [ns&#45;0]finish_successed) -->
<g id="edge4" class="edge"><title>[ns&#45;1]finish_successed:[ns&#45;1]finish_successed&#45;&gt;#jump([ns&#45;1]finish_successed, [ns&#45;0]finish_successed):#jump([ns&#45;1]finish_successed, [ns&#45;0]finish_successed)</title>
<path fill="none" stroke="black" d="M299,-319.967C299,-286.655 299,-244.859 299,-229.254"/>
</g>
<!-- [ns&#45;0]finish_successed -->
<g id="node6" class="node"><title>[ns&#45;0]finish_successed</title>
<polygon fill="#eeeeee" stroke="none" points="198.5,-4 198.5,-124 399.5,-124 399.5,-4 198.5,-4"/>
<text text-anchor="start" x="201" y="-114.5" font-family="Times,serif" font-style="italic" font-size="10.00">[ns&#45;0]finish_successed</text>
<text text-anchor="start" x="201" y="-100" font-family="Times,serif" font-size="10.00">помощь оказана</text>
<polygon fill="#dddddd" stroke="none" points="200,-83 200,-96 399,-96 399,-83 200,-83"/>
<text text-anchor="start" x="201" y="-88" font-family="Times,serif" font-size="10.00">hero </text>
<text text-anchor="start" x="222" y="-88" font-family="Times,serif" font-weight="bold" font-size="10.00">находится в</text>
<text text-anchor="start" x="277" y="-88" font-family="Times,serif" font-size="10.00"> place_1</text>
<polygon fill="#ffffff" stroke="none" points="200,-70 200,-83 399,-83 399,-70 200,-70"/>
<text text-anchor="start" x="201" y="-75" font-family="Times,serif" font-weight="bold" font-size="10.00">выдать награду </text>
<text text-anchor="start" x="276" y="-75" font-family="Times,serif" font-size="10.00">  hero </text>
<text text-anchor="start" x="301" y="-75" font-family="Times,serif" font-weight="bold" font-size="10.00">типа </text>
<text text-anchor="start" x="325" y="-75" font-family="Times,serif" font-size="10.00"> finish_successed</text>
<polygon fill="#ffffff" stroke="none" points="200,-57 200,-70 399,-70 399,-57 200,-57"/>
<text text-anchor="start" x="201" y="-62" font-family="Times,serif" font-weight="bold" font-size="10.00">увеличить влияние </text>
<text text-anchor="start" x="289" y="-62" font-family="Times,serif" font-size="10.00">  person_1 </text>
<text text-anchor="start" x="334" y="-62" font-family="Times,serif" font-weight="bold" font-size="10.00">на </text>
<text text-anchor="start" x="347" y="-62" font-family="Times,serif" font-size="10.00"> 1.00</text>
<polygon fill="#ffffff" stroke="none" points="200,-44 200,-57 399,-57 399,-44 200,-44"/>
<text text-anchor="start" x="201" y="-49" font-family="Times,serif" font-weight="bold" font-size="10.00">увеличить влияние </text>
<text text-anchor="start" x="289" y="-49" font-family="Times,serif" font-size="10.00">  person_9 </text>
<text text-anchor="start" x="334" y="-49" font-family="Times,serif" font-weight="bold" font-size="10.00">на </text>
<text text-anchor="start" x="347" y="-49" font-family="Times,serif" font-size="10.00"> 1.00</text>
<polygon fill="#eeeeee" stroke="none" points="200,-31 200,-44 399,-44 399,-31 200,-31"/>
<text text-anchor="start" x="201" y="-36" font-family="Times,serif" font-weight="bold" font-size="10.00">результаты:</text>
<text text-anchor="start" x="201" y="-23" font-family="Times,serif" font-weight="bold" font-size="10.00">person_1</text>
<text text-anchor="start" x="301" y="-22" font-family="Times,serif" font-size="10.00">successed</text>
<text text-anchor="start" x="201" y="-10" font-family="Times,serif" font-weight="bold" font-size="10.00">person_9</text>
<text text-anchor="start" x="301" y="-9" font-family="Times,serif" font-size="10.00">successed</text>
<polygon fill="none" stroke="black" points="198.5,-4 198.5,-124 399.5,-124 399.5,-4 198.5,-4"/>
</g>
<!-- #jump([ns&#45;0]start, [ns&#45;1]start)&#45;&gt;[ns&#45;1]start -->
<g id="edge2" class="edge"><title>#jump([ns&#45;0]start, [ns&#45;1]start):#jump([ns&#45;0]start, [ns&#45;1]start)&#45;&gt;[ns&#45;1]start:[ns&#45;1]start</title>
<path fill="none" stroke="black" d="M206,-544.944C206,-535.352 206,-516.159 206,-500.611"/>
<polygon fill="black" stroke="black" points="209.5,-500.593 206,-490.593 202.5,-500.593 209.5,-500.593"/>
</g>
<!-- #jump([ns&#45;1]finish_successed, [ns&#45;0]finish_successed)&#45;&gt;[ns&#45;0]finish_successed -->
<g id="edge5" class="edge"><title>#jump([ns&#45;1]finish_successed, [ns&#45;0]finish_successed):#jump([ns&#45;1]finish_successed, [ns&#45;0]finish_successed)&#45;&gt;[ns&#45;0]finish_successed:[ns&#45;0]finish_successed</title>
<path fill="none" stroke="black" d="M299,-214.691C299,-200.907 299,-166.749 299,-134.54"/>
<polygon fill="black" stroke="black" points="302.5,-134.178 299,-124.178 295.5,-134.179 302.5,-134.178"/>
</g>
</g>
</svg>
