<?xml version="1.0" encoding="UTF-8" standalone="no"?>
<!DOCTYPE svg PUBLIC "-//W3C//DTD SVG 1.1//EN"
 "http://www.w3.org/Graphics/SVG/1.1/DTD/svg11.dtd">
<!-- Generated by graphviz version 2.43.0 (0)
 -->
<!-- Title: quest Pages: 1 -->
<svg width="684pt" height="631pt"
 viewBox="0.00 0.00 683.50 631.00" xmlns="http://www.w3.org/2000/svg" xmlns:xlink="http://www.w3.org/1999/xlink">
<g id="graph0" class="graph" transform="scale(1 1) rotate(0) translate(4 627)">
<title>quest</title>
<polygon fill="white" stroke="transparent" points="-4,4 -4,-627 679.5,-627 679.5,4 -4,4"/>
<g id="clust1" class="cluster">
<title>cluster_[ns&#45;0]help_subquest</title>
<polygon fill="#96ffff" stroke="black" points="85.5,-245 85.5,-468 478.5,-468 478.5,-245 85.5,-245"/>
<text text-anchor="middle" x="282" y="-452.8" font-family="Times,serif" font-size="14.00">cluster_[ns&#45;0]help_subquest</text>
</g>
<g id="clust2" class="cluster">
<title>cluster_[ns&#45;1]event</title>
<polygon fill="#ffffdd" stroke="black" points="93.5,-253 93.5,-393 470.5,-393 470.5,-253 93.5,-253"/>
<text text-anchor="middle" x="282" y="-377.8" font-family="Times,serif" font-size="14.00">cluster_[ns&#45;1]event</text>
</g>
<!-- [ns&#45;1]start -->
<g id="node1" class="node">
<title>[ns&#45;1]start</title>
<polygon fill="#eeeeee" stroke="transparent" points="226,-405 226,-433 355,-433 355,-405 226,-405"/>
<text text-anchor="start" x="228.5" y="-424" font-family="Times,serif" font-style="italic" font-size="10.00">[ns&#45;1]start</text>
<text text-anchor="start" x="308" y="-424" font-family="Times,serif" font-weight="bold" font-size="10.00">simple</text>
<text text-anchor="start" x="228.5" y="-410" font-family="Times,serif" font-size="10.00">Start: the simplest quest</text>
<polygon fill="none" stroke="black" points="226,-405 226,-433 355,-433 355,-405 226,-405"/>
</g>
<!-- [ns&#45;1]finish_successed -->
<g id="node3" class="node">
<title>[ns&#45;1]finish_successed</title>
<polygon fill="#eeeeee" stroke="transparent" points="110,-265 110,-358 283,-358 283,-265 110,-265"/>
<text text-anchor="start" x="112.5" y="-348.5" font-family="Times,serif" font-style="italic" font-size="10.00">[ns&#45;1]finish_successed</text>
<text text-anchor="start" x="112.5" y="-334.5" font-family="Times,serif" font-size="10.00">complete the quest successfully</text>
<polygon fill="#eeeeee" stroke="transparent" points="111.5,-317.5 111.5,-330.5 282.5,-330.5 282.5,-317.5 111.5,-317.5"/>
<text text-anchor="start" x="112.5" y="-322.5" font-family="Times,serif" font-weight="bold" font-size="10.00">results:</text>
<text text-anchor="start" x="112.5" y="-309.5" font-family="Times,serif" font-weight="bold" font-size="10.00">person_2</text>
<text text-anchor="start" x="229.5" y="-308.5" font-family="Times,serif" font-size="10.00">successed</text>
<text text-anchor="start" x="112.5" y="-296.5" font-family="Times,serif" font-weight="bold" font-size="10.00">person_3</text>
<text text-anchor="start" x="229.5" y="-295.5" font-family="Times,serif" font-size="10.00">successed</text>
<text text-anchor="start" x="112.5" y="-283.5" font-family="Times,serif" font-weight="bold" font-size="10.00">place_2</text>
<text text-anchor="start" x="229.5" y="-282.5" font-family="Times,serif" font-size="10.00">successed</text>
<text text-anchor="start" x="112.5" y="-270.5" font-family="Times,serif" font-weight="bold" font-size="10.00">place_3</text>
<text text-anchor="start" x="229.5" y="-269.5" font-family="Times,serif" font-size="10.00">successed</text>
<polygon fill="none" stroke="black" points="110,-265 110,-358 283,-358 283,-265 110,-265"/>
</g>
<!-- [ns&#45;1]start&#45;&gt;[ns&#45;1]finish_successed -->
<g id="edge1" class="edge">
<title>[ns&#45;1]start:[ns&#45;1]start&#45;&gt;[ns&#45;1]finish_successed:[ns&#45;1]finish_successed</title>
<path fill="none" stroke="black" d="M278.59,-404.64C269.68,-394.63 256.84,-380.22 243.96,-365.76"/>
<polygon fill="black" stroke="black" points="246.5,-363.36 237.24,-358.22 241.28,-368.02 246.5,-363.36"/>
</g>
<!-- [ns&#45;1]finish_failed -->
<g id="node5" class="node">
<title>[ns&#45;1]finish_failed</title>
<polygon fill="#eeeeee" stroke="transparent" points="317,-265 317,-358 454,-358 454,-265 317,-265"/>
<text text-anchor="start" x="319.5" y="-348.5" font-family="Times,serif" font-style="italic" font-size="10.00">[ns&#45;1]finish_failed</text>
<text text-anchor="start" x="319.5" y="-334.5" font-family="Times,serif" font-size="10.00">complete the quest poorly</text>
<polygon fill="#eeeeee" stroke="transparent" points="318.5,-317.5 318.5,-330.5 453.5,-330.5 453.5,-317.5 318.5,-317.5"/>
<text text-anchor="start" x="319.5" y="-322.5" font-family="Times,serif" font-weight="bold" font-size="10.00">results:</text>
<text text-anchor="start" x="319.5" y="-309.5" font-family="Times,serif" font-weight="bold" font-size="10.00">person_2</text>
<text text-anchor="start" x="418.5" y="-308.5" font-family="Times,serif" font-size="10.00">failed</text>
<text text-anchor="start" x="319.5" y="-296.5" font-family="Times,serif" font-weight="bold" font-size="10.00">person_3</text>
<text text-anchor="start" x="418.5" y="-295.5" font-family="Times,serif" font-size="10.00">failed</text>
<text text-anchor="start" x="319.5" y="-283.5" font-family="Times,serif" font-weight="bold" font-size="10.00">place_2</text>
<text text-anchor="start" x="418.5" y="-282.5" font-family="Times,serif" font-size="10.00">failed</text>
<text text-anchor="start" x="319.5" y="-270.5" font-family="Times,serif" font-weight="bold" font-size="10.00">place_3</text>
<text text-anchor="start" x="418.5" y="-269.5" font-family="Times,serif" font-size="10.00">failed</text>
<polygon fill="none" stroke="black" points="317,-265 317,-358 454,-358 454,-265 317,-265"/>
</g>
<!-- [ns&#45;1]start&#45;&gt;[ns&#45;1]finish_failed -->
<g id="edge4" class="edge">
<title>[ns&#45;1]start:[ns&#45;1]start&#45;&gt;[ns&#45;1]finish_failed:[ns&#45;1]finish_failed</title>
<path fill="none" stroke="black" d="M302.53,-404.64C311.55,-394.63 324.52,-380.22 337.54,-365.76"/>
<polygon fill="black" stroke="black" points="340.24,-368 344.33,-358.22 335.04,-363.31 340.24,-368"/>
</g>
<!-- [ns&#45;0]finish_successed -->
<g id="node2" class="node">
<title>[ns&#45;0]finish_successed</title>
<polygon fill="#eeeeee" stroke="transparent" points="8,-4 8,-97 385,-97 385,-4 8,-4"/>
<text text-anchor="start" x="10.5" y="-87.5" font-family="Times,serif" font-style="italic" font-size="10.00">[ns&#45;0]finish_successed</text>
<text text-anchor="start" x="10.5" y="-73.5" font-family="Times,serif" font-size="10.00">help provided</text>
<polygon fill="#dddddd" stroke="transparent" points="9.5,-56.5 9.5,-69.5 384.5,-69.5 384.5,-56.5 9.5,-56.5"/>
<text text-anchor="start" x="10.5" y="-61.5" font-family="Times,serif" font-size="10.00">hero </text>
<text text-anchor="start" x="37.5" y="-61.5" font-family="Times,serif" font-weight="bold" font-size="10.00">is located in</text>
<text text-anchor="start" x="107.5" y="-61.5" font-family="Times,serif" font-size="10.00"> place_1</text>
<polygon fill="#ffffff" stroke="transparent" points="9.5,-43.5 9.5,-56.5 384.5,-56.5 384.5,-43.5 9.5,-43.5"/>
<text text-anchor="start" x="10.5" y="-48.5" font-family="Times,serif" font-weight="bold" font-size="10.00">give reward to </text>
<text text-anchor="start" x="94.5" y="-48.5" font-family="Times,serif" font-size="10.00">  hero </text>
<text text-anchor="start" x="127.5" y="-48.5" font-family="Times,serif" font-weight="bold" font-size="10.00">of type </text>
<text text-anchor="start" x="170.5" y="-48.5" font-family="Times,serif" font-size="10.00"> finish_successed </text>
<text text-anchor="start" x="262.5" y="-48.5" font-family="Times,serif" font-weight="bold" font-size="10.00">in the amount of</text>
<text text-anchor="start" x="358.5" y="-48.5" font-family="Times,serif" font-size="10.00"> 1.00</text>
<polygon fill="#eeeeee" stroke="transparent" points="9.5,-30.5 9.5,-43.5 384.5,-43.5 384.5,-30.5 9.5,-30.5"/>
<text text-anchor="start" x="10.5" y="-35.5" font-family="Times,serif" font-weight="bold" font-size="10.00">results:</text>
<text text-anchor="start" x="10.5" y="-22.5" font-family="Times,serif" font-weight="bold" font-size="10.00">person_1</text>
<text text-anchor="start" x="229.5" y="-21.5" font-family="Times,serif" font-size="10.00">successed</text>
<text text-anchor="start" x="10.5" y="-9.5" font-family="Times,serif" font-weight="bold" font-size="10.00">person_2</text>
<text text-anchor="start" x="229.5" y="-8.5" font-family="Times,serif" font-size="10.00">successed</text>
<polygon fill="none" stroke="black" points="8,-4 8,-97 385,-97 385,-4 8,-4"/>
</g>
<!-- #jump([ns&#45;1]finish_successed, [ns&#45;0]finish_successed) -->
<g id="node8" class="node">
<title>#jump([ns&#45;1]finish_successed, [ns&#45;0]finish_successed)</title>
<polygon fill="#eeeeee" stroke="transparent" points="113.5,-174 113.5,-187 279.5,-187 279.5,-174 113.5,-174"/>
<text text-anchor="start" x="114.5" y="-179" font-family="Times,serif" font-weight="bold" font-size="10.00">message:</text>
<text text-anchor="start" x="166.5" y="-179" font-family="Times,serif" font-size="10.00"> after_successed_help</text>
</g>
<!-- [ns&#45;1]finish_successed&#45;&gt;#jump([ns&#45;1]finish_successed, [ns&#45;0]finish_successed) -->
<g id="edge5" class="edge">
<title>[ns&#45;1]finish_successed:[ns&#45;1]finish_successed&#45;&gt;#jump([ns&#45;1]finish_successed, [ns&#45;0]finish_successed):#jump([ns&#45;1]finish_successed, [ns&#45;0]finish_successed)</title>
<path fill="none" stroke="black" d="M196.5,-264.83C196.5,-235.69 196.5,-200.96 196.5,-187.61"/>
</g>
<!-- [ns&#45;0]start -->
<g id="node4" class="node">
<title>[ns&#45;0]start</title>
<polygon fill="#eeeeee" stroke="transparent" points="207.5,-552 207.5,-619 373.5,-619 373.5,-552 207.5,-552"/>
<text text-anchor="start" x="209.5" y="-609.5" font-family="Times,serif" font-style="italic" font-size="10.00">[ns&#45;0]start</text>
<text text-anchor="start" x="326" y="-609.5" font-family="Times,serif" font-weight="bold" font-size="10.00">help</text>
<text text-anchor="start" x="209.5" y="-595.5" font-family="Times,serif" font-size="10.00">Start: help a friend</text>
<polygon fill="#dddddd" stroke="transparent" points="208.5,-578.5 208.5,-591.5 372.5,-591.5 372.5,-578.5 208.5,-578.5"/>
<text text-anchor="start" x="209.5" y="-583.5" font-family="Times,serif" font-size="10.00">hero </text>
<text text-anchor="start" x="236.5" y="-583.5" font-family="Times,serif" font-weight="bold" font-size="10.00">is located in</text>
<text text-anchor="start" x="306.5" y="-583.5" font-family="Times,serif" font-size="10.00"> place_1</text>
<polygon fill="#dddddd" stroke="transparent" points="208.5,-565.5 208.5,-578.5 372.5,-578.5 372.5,-565.5 208.5,-565.5"/>
<text text-anchor="start" x="209.5" y="-570.5" font-family="Times,serif" font-size="10.00">person_2 </text>
<text text-anchor="start" x="259.5" y="-570.5" font-family="Times,serif" font-weight="bold" font-size="10.00">is located in</text>
<text text-anchor="start" x="329.5" y="-570.5" font-family="Times,serif" font-size="10.00"> place_2</text>
<polygon fill="#ffffff" stroke="transparent" points="208.5,-552.5 208.5,-565.5 372.5,-565.5 372.5,-552.5 208.5,-552.5"/>
<text text-anchor="start" x="209.5" y="-557.5" font-family="Times,serif" font-weight="bold" font-size="10.00">message:</text>
<text text-anchor="start" x="261.5" y="-557.5" font-family="Times,serif" font-size="10.00"> intro</text>
<polygon fill="none" stroke="black" points="207.5,-552 207.5,-619 373.5,-619 373.5,-552 207.5,-552"/>
</g>
<!-- #jump([ns&#45;0]start, [ns&#45;1]start) -->
<g id="node7" class="node">
<title>#jump([ns&#45;0]start, [ns&#45;1]start)</title>
<polygon fill="#eeeeee" stroke="transparent" points="231.5,-487 231.5,-500 349.5,-500 349.5,-487 231.5,-487"/>
<text text-anchor="start" x="232.5" y="-492" font-family="Times,serif" font-weight="bold" font-size="10.00">message:</text>
<text text-anchor="start" x="284.5" y="-492" font-family="Times,serif" font-size="10.00"> before_help</text>
</g>
<!-- [ns&#45;0]start&#45;&gt;#jump([ns&#45;0]start, [ns&#45;1]start) -->
<g id="edge2" class="edge">
<title>[ns&#45;0]start:[ns&#45;0]start&#45;&gt;#jump([ns&#45;0]start, [ns&#45;1]start):#jump([ns&#45;0]start, [ns&#45;1]start)</title>
<path fill="none" stroke="black" d="M290.5,-551.94C290.5,-532.94 290.5,-510.78 290.5,-500.61"/>
</g>
<!-- [ns&#45;0]finish_failed -->
<g id="node6" class="node">
<title>[ns&#45;0]finish_failed</title>
<polygon fill="#eeeeee" stroke="transparent" points="313.5,-141 313.5,-221 667.5,-221 667.5,-141 313.5,-141"/>
<text text-anchor="start" x="315.5" y="-212" font-family="Times,serif" font-style="italic" font-size="10.00">[ns&#45;0]finish_failed</text>
<text text-anchor="start" x="315.5" y="-198" font-family="Times,serif" font-size="10.00">failed to help</text>
<polygon fill="#ffffff" stroke="transparent" points="314.5,-181 314.5,-194 666.5,-194 666.5,-181 314.5,-181"/>
<text text-anchor="start" x="315.5" y="-186" font-family="Times,serif" font-weight="bold" font-size="10.00">give reward to </text>
<text text-anchor="start" x="399.5" y="-186" font-family="Times,serif" font-size="10.00">  hero </text>
<text text-anchor="start" x="432.5" y="-186" font-family="Times,serif" font-weight="bold" font-size="10.00">of type </text>
<text text-anchor="start" x="475.5" y="-186" font-family="Times,serif" font-size="10.00"> finish_failed </text>
<text text-anchor="start" x="544.5" y="-186" font-family="Times,serif" font-weight="bold" font-size="10.00">in the amount of</text>
<text text-anchor="start" x="640.5" y="-186" font-family="Times,serif" font-size="10.00"> 1.00</text>
<polygon fill="#eeeeee" stroke="transparent" points="314.5,-168 314.5,-181 666.5,-181 666.5,-168 314.5,-168"/>
<text text-anchor="start" x="315.5" y="-173" font-family="Times,serif" font-weight="bold" font-size="10.00">results:</text>
<text text-anchor="start" x="315.5" y="-160" font-family="Times,serif" font-weight="bold" font-size="10.00">person_1</text>
<text text-anchor="start" x="522.5" y="-159" font-family="Times,serif" font-size="10.00">failed</text>
<text text-anchor="start" x="315.5" y="-147" font-family="Times,serif" font-weight="bold" font-size="10.00">person_2</text>
<text text-anchor="start" x="522.5" y="-146" font-family="Times,serif" font-size="10.00">failed</text>
<polygon fill="none" stroke="black" points="313.5,-141 313.5,-221 667.5,-221 667.5,-141 313.5,-141"/>
</g>
<!-- [ns&#45;1]finish_failed&#45;&gt;[ns&#45;0]finish_failed -->
<g id="edge7" class="edge">
<title>[ns&#45;1]finish_failed:[ns&#45;1]finish_failed&#45;&gt;[ns&#45;0]finish_failed:[ns&#45;0]finish_failed</title>
<path fill="none" stroke="black" d="M422.81,-264.83C432.3,-253.23 442.5,-240.74 452.04,-229.07"/>
<polygon fill="black" stroke="black" points="454.9,-231.09 458.52,-221.13 449.48,-226.66 454.9,-231.09"/>
</g>
<!-- #jump([ns&#45;0]start, [ns&#45;1]start)&#45;&gt;[ns&#45;1]start -->
<g id="edge3" class="edge">
<title>#jump([ns&#45;0]start, [ns&#45;1]start):#jump([ns&#45;0]start, [ns&#45;1]start)&#45;&gt;[ns&#45;1]start:[ns&#45;1]start</title>
<path fill="none" stroke="black" d="M290.5,-487.27C290.5,-477.97 290.5,-459.06 290.5,-443.65"/>
<polygon fill="black" stroke="black" points="294,-443.24 290.5,-433.24 287,-443.24 294,-443.24"/>
</g>
<!-- #jump([ns&#45;1]finish_successed, [ns&#45;0]finish_successed)&#45;&gt;[ns&#45;0]finish_successed -->
<g id="edge6" class="edge">
<title>#jump([ns&#45;1]finish_successed, [ns&#45;0]finish_successed):#jump([ns&#45;1]finish_successed, [ns&#45;0]finish_successed)&#45;&gt;[ns&#45;0]finish_successed:[ns&#45;0]finish_successed</title>
<path fill="none" stroke="black" d="M196.5,-174.48C196.5,-162.68 196.5,-133.9 196.5,-107.15"/>
<polygon fill="black" stroke="black" points="200,-107.03 196.5,-97.03 193,-107.03 200,-107.03"/>
</g>
</g>
</svg>
