<?xml version="1.0" encoding="UTF-8" standalone="no"?>
<!DOCTYPE svg PUBLIC "-//W3C//DTD SVG 1.1//EN"
 "http://www.w3.org/Graphics/SVG/1.1/DTD/svg11.dtd">
<!-- Generated by graphviz version 2.34.0 (20130907.0221)
 -->
<!-- Title: quest Pages: 1 -->
<svg width="411pt" height="658pt"
 viewBox="0.00 0.00 411.00 658.00" xmlns="http://www.w3.org/2000/svg" xmlns:xlink="http://www.w3.org/1999/xlink">
<g id="graph0" class="graph" transform="scale(1 1) rotate(0) translate(4 654)">
<title>quest</title>
<polygon fill="white" stroke="white" points="-4,4 -4,-654 407,-654 407,4 -4,4"/>
<g id="clust1" class="cluster"><title>cluster_[ns&#45;0]help_subquest</title>
<polygon fill="#96ffff" stroke="black" points="11,-194 11,-420 395,-420 395,-194 11,-194"/>
<text text-anchor="middle" x="203" y="-404.8" font-family="Times,serif" font-size="14.00">cluster_[ns&#45;0]help_subquest</text>
</g>
<g id="clust2" class="cluster"><title>cluster_[ns&#45;1]event</title>
<polygon fill="#ffffdd" stroke="black" points="19,-202 19,-343 387,-343 387,-202 19,-202"/>
<text text-anchor="middle" x="203" y="-327.8" font-family="Times,serif" font-size="14.00">cluster_[ns&#45;1]event</text>
</g>
<!-- [ns&#45;1]start -->
<g id="node1" class="node"><title>[ns&#45;1]start</title>
<polygon fill="#eeeeee" stroke="none" points="140.5,-355.5 140.5,-384.5 273.5,-384.5 273.5,-355.5 140.5,-355.5"/>
<text text-anchor="start" x="143" y="-374.5" font-family="Times,serif" font-style="italic" font-size="10.00">[ns&#45;1]start</text>
<text text-anchor="start" x="226.5" y="-374.5" font-family="Times,serif" font-weight="bold" font-size="10.00">simple</text>
<text text-anchor="start" x="143" y="-360" font-family="Times,serif" font-size="10.00">Начало: самый простой квест</text>
<polygon fill="none" stroke="black" points="140.5,-355.5 140.5,-384.5 273.5,-384.5 273.5,-355.5 140.5,-355.5"/>
</g>
<!-- [ns&#45;1]finish_failed -->
<g id="node3" class="node"><title>[ns&#45;1]finish_failed</title>
<polygon fill="#eeeeee" stroke="none" points="229,-214 229,-308 371,-308 371,-214 229,-214"/>
<text text-anchor="start" x="231" y="-298.5" font-family="Times,serif" font-style="italic" font-size="10.00">[ns&#45;1]finish_failed</text>
<text text-anchor="start" x="231" y="-284" font-family="Times,serif" font-size="10.00">завершить задание плохо</text>
<polygon fill="#eeeeee" stroke="none" points="230,-267 230,-280 370,-280 370,-267 230,-267"/>
<text text-anchor="start" x="231" y="-272" font-family="Times,serif" font-weight="bold" font-size="10.00">результаты:</text>
<text text-anchor="start" x="231" y="-259" font-family="Times,serif" font-weight="bold" font-size="10.00">person_10</text>
<text text-anchor="start" x="342" y="-258" font-family="Times,serif" font-size="10.00">failed</text>
<text text-anchor="start" x="231" y="-246" font-family="Times,serif" font-weight="bold" font-size="10.00">person_4</text>
<text text-anchor="start" x="342" y="-245" font-family="Times,serif" font-size="10.00">failed</text>
<text text-anchor="start" x="231" y="-233" font-family="Times,serif" font-weight="bold" font-size="10.00">place_10</text>
<text text-anchor="start" x="342" y="-232" font-family="Times,serif" font-size="10.00">failed</text>
<text text-anchor="start" x="231" y="-220" font-family="Times,serif" font-weight="bold" font-size="10.00">place_4</text>
<text text-anchor="start" x="342" y="-219" font-family="Times,serif" font-size="10.00">failed</text>
<polygon fill="none" stroke="black" points="229,-214 229,-308 371,-308 371,-214 229,-214"/>
</g>
<!-- [ns&#45;1]start&#45;&gt;[ns&#45;1]finish_failed -->
<g id="edge1" class="edge"><title>[ns&#45;1]start:[ns&#45;1]start&#45;&gt;[ns&#45;1]finish_failed:[ns&#45;1]finish_failed</title>
<path fill="none" stroke="black" d="M218.779,-355.448C227.602,-345.296 240.302,-330.685 253.046,-316.022"/>
<polygon fill="black" stroke="black" points="255.776,-318.216 259.695,-308.373 250.493,-313.624 255.776,-318.216"/>
</g>
<!-- [ns&#45;1]finish_successed -->
<g id="node4" class="node"><title>[ns&#45;1]finish_successed</title>
<polygon fill="#eeeeee" stroke="none" points="35.5,-214 35.5,-308 194.5,-308 194.5,-214 35.5,-214"/>
<text text-anchor="start" x="38" y="-298.5" font-family="Times,serif" font-style="italic" font-size="10.00">[ns&#45;1]finish_successed</text>
<text text-anchor="start" x="38" y="-284" font-family="Times,serif" font-size="10.00">завершить задание удачно</text>
<polygon fill="#eeeeee" stroke="none" points="37,-267 37,-280 194,-280 194,-267 37,-267"/>
<text text-anchor="start" x="38" y="-272" font-family="Times,serif" font-weight="bold" font-size="10.00">результаты:</text>
<text text-anchor="start" x="38" y="-259" font-family="Times,serif" font-weight="bold" font-size="10.00">person_10</text>
<text text-anchor="start" x="153" y="-258" font-family="Times,serif" font-size="10.00">successed</text>
<text text-anchor="start" x="38" y="-246" font-family="Times,serif" font-weight="bold" font-size="10.00">person_4</text>
<text text-anchor="start" x="153" y="-245" font-family="Times,serif" font-size="10.00">successed</text>
<text text-anchor="start" x="38" y="-233" font-family="Times,serif" font-weight="bold" font-size="10.00">place_10</text>
<text text-anchor="start" x="153" y="-232" font-family="Times,serif" font-size="10.00">successed</text>
<text text-anchor="start" x="38" y="-220" font-family="Times,serif" font-weight="bold" font-size="10.00">place_4</text>
<text text-anchor="start" x="153" y="-219" font-family="Times,serif" font-size="10.00">successed</text>
<polygon fill="none" stroke="black" points="35.5,-214 35.5,-308 194.5,-308 194.5,-214 35.5,-214"/>
</g>
<!-- [ns&#45;1]start&#45;&gt;[ns&#45;1]finish_successed -->
<g id="edge7" class="edge"><title>[ns&#45;1]start:[ns&#45;1]start&#45;&gt;[ns&#45;1]finish_successed:[ns&#45;1]finish_successed</title>
<path fill="none" stroke="black" d="M195.348,-355.448C186.619,-345.296 174.056,-330.685 161.449,-316.022"/>
<polygon fill="black" stroke="black" points="164.045,-313.673 154.872,-308.373 158.737,-318.237 164.045,-313.673"/>
</g>
<!-- [ns&#45;0]start -->
<g id="node2" class="node"><title>[ns&#45;0]start</title>
<polygon fill="#eeeeee" stroke="none" points="141.5,-590.5 141.5,-645.5 272.5,-645.5 272.5,-590.5 141.5,-590.5"/>
<text text-anchor="start" x="144" y="-635.5" font-family="Times,serif" font-style="italic" font-size="10.00">[ns&#45;0]start</text>
<text text-anchor="start" x="215.5" y="-635.5" font-family="Times,serif" font-weight="bold" font-size="10.00">help_friend</text>
<text text-anchor="start" x="144" y="-621" font-family="Times,serif" font-size="10.00">Начало: навестить соратника</text>
<polygon fill="#dddddd" stroke="none" points="143,-604 143,-617 272,-617 272,-604 143,-604"/>
<text text-anchor="start" x="144" y="-609" font-family="Times,serif" font-size="10.00">hero </text>
<text text-anchor="start" x="165" y="-609" font-family="Times,serif" font-weight="bold" font-size="10.00">находится в</text>
<text text-anchor="start" x="220" y="-609" font-family="Times,serif" font-size="10.00"> place_1</text>
<polygon fill="#ffffff" stroke="none" points="143,-591 143,-604 272,-604 272,-591 143,-591"/>
<text text-anchor="start" x="144" y="-596" font-family="Times,serif" font-weight="bold" font-size="10.00">сообщение:</text>
<text text-anchor="start" x="196" y="-596" font-family="Times,serif" font-size="10.00"> intro</text>
<polygon fill="none" stroke="black" points="141.5,-590.5 141.5,-645.5 272.5,-645.5 272.5,-590.5 141.5,-590.5"/>
</g>
<!-- [ns&#45;0]meeting -->
<g id="node5" class="node"><title>[ns&#45;0]meeting</title>
<polygon fill="#ddffdd" stroke="none" points="129.5,-504 129.5,-546 284.5,-546 284.5,-504 129.5,-504"/>
<text text-anchor="start" x="132" y="-536.5" font-family="Times,serif" font-style="italic" font-size="10.00">[ns&#45;0]meeting</text>
<text text-anchor="start" x="132" y="-522" font-family="Times,serif" font-size="10.00">встреча с соратником</text>
<polygon fill="#cceecc" stroke="none" points="131,-505 131,-518 284,-518 284,-505 131,-505"/>
<text text-anchor="start" x="132" y="-510" font-family="Times,serif" font-size="10.00">hero </text>
<text text-anchor="start" x="153" y="-510" font-family="Times,serif" font-weight="bold" font-size="10.00">находится в</text>
<text text-anchor="start" x="208" y="-510" font-family="Times,serif" font-size="10.00"> place_4</text>
<polygon fill="none" stroke="black" points="129.5,-504 129.5,-546 284.5,-546 284.5,-504 129.5,-504"/>
</g>
<!-- [ns&#45;0]start&#45;&gt;[ns&#45;0]meeting -->
<g id="edge6" class="edge"><title>[ns&#45;0]start:[ns&#45;0]start&#45;&gt;[ns&#45;0]meeting:[ns&#45;0]meeting</title>
<path fill="none" stroke="black" d="M207,-590.189C207,-579.542 207,-567.241 207,-556.275"/>
<polygon fill="black" stroke="black" points="210.5,-556.266 207,-546.266 203.5,-556.267 210.5,-556.266"/>
</g>
<!-- #jump([ns&#45;1]finish_successed, [ns&#45;0]finish_meeting) -->
<g id="node7" class="node"><title>#jump([ns&#45;1]finish_successed, [ns&#45;0]finish_meeting)</title>
<polygon fill="#eeeeee" stroke="none" points="66,-149 66,-163 165,-163 165,-149 66,-149"/>
<text text-anchor="start" x="67" y="-154.5" font-family="Times,serif" font-weight="bold" font-size="10.00">сообщение:</text>
<text text-anchor="start" x="119" y="-154.5" font-family="Times,serif" font-size="10.00"> after_help</text>
</g>
<!-- [ns&#45;1]finish_successed&#45;&gt;#jump([ns&#45;1]finish_successed, [ns&#45;0]finish_meeting) -->
<g id="edge2" class="edge"><title>[ns&#45;1]finish_successed:[ns&#45;1]finish_successed&#45;&gt;#jump([ns&#45;1]finish_successed, [ns&#45;0]finish_meeting):#jump([ns&#45;1]finish_successed, [ns&#45;0]finish_meeting)</title>
<path fill="none" stroke="black" d="M115,-213.923C115,-194.211 115,-173.429 115,-163.298"/>
</g>
<!-- #jump([ns&#45;0]meeting, [ns&#45;1]start) -->
<g id="node8" class="node"><title>#jump([ns&#45;0]meeting, [ns&#45;1]start)</title>
<polygon fill="#eeeeee" stroke="none" points="154,-439 154,-453 261,-453 261,-439 154,-439"/>
<text text-anchor="start" x="155" y="-444.5" font-family="Times,serif" font-weight="bold" font-size="10.00">сообщение:</text>
<text text-anchor="start" x="207" y="-444.5" font-family="Times,serif" font-size="10.00"> before_help</text>
</g>
<!-- [ns&#45;0]meeting&#45;&gt;#jump([ns&#45;0]meeting, [ns&#45;1]start) -->
<g id="edge4" class="edge"><title>[ns&#45;0]meeting:[ns&#45;0]meeting&#45;&gt;#jump([ns&#45;0]meeting, [ns&#45;1]start):#jump([ns&#45;0]meeting, [ns&#45;1]start)</title>
<path fill="none" stroke="black" d="M207,-503.769C207,-487.015 207,-464.253 207,-453.342"/>
</g>
<!-- [ns&#45;0]finish_meeting -->
<g id="node6" class="node"><title>[ns&#45;0]finish_meeting</title>
<polygon fill="#eeeeee" stroke="none" points="7,-4 7,-98 223,-98 223,-4 7,-4"/>
<text text-anchor="start" x="9" y="-88.5" font-family="Times,serif" font-style="italic" font-size="10.00">[ns&#45;0]finish_meeting</text>
<text text-anchor="start" x="9" y="-74" font-family="Times,serif" font-size="10.00">соратнику оказана помощь</text>
<polygon fill="#dddddd" stroke="none" points="8,-57 8,-70 222,-70 222,-57 8,-57"/>
<text text-anchor="start" x="9" y="-62" font-family="Times,serif" font-size="10.00">hero </text>
<text text-anchor="start" x="30" y="-62" font-family="Times,serif" font-weight="bold" font-size="10.00">находится в</text>
<text text-anchor="start" x="85" y="-62" font-family="Times,serif" font-size="10.00"> place_4</text>
<polygon fill="#ffffff" stroke="none" points="8,-44 8,-57 222,-57 222,-44 8,-44"/>
<text text-anchor="start" x="9" y="-49" font-family="Times,serif" font-weight="bold" font-size="10.00">выдать награду </text>
<text text-anchor="start" x="84" y="-49" font-family="Times,serif" font-size="10.00">  hero </text>
<text text-anchor="start" x="109" y="-49" font-family="Times,serif" font-weight="bold" font-size="10.00">типа </text>
<text text-anchor="start" x="133" y="-49" font-family="Times,serif" font-size="10.00"> finish_meeting</text>
<polygon fill="#ffffff" stroke="none" points="8,-31 8,-44 222,-44 222,-31 8,-31"/>
<text text-anchor="start" x="9" y="-36" font-family="Times,serif" font-weight="bold" font-size="10.00">увеличить влияние </text>
<text text-anchor="start" x="97" y="-36" font-family="Times,serif" font-size="10.00">  person_4 </text>
<text text-anchor="start" x="142" y="-36" font-family="Times,serif" font-weight="bold" font-size="10.00">на </text>
<text text-anchor="start" x="155" y="-36" font-family="Times,serif" font-size="10.00"> 1.00</text>
<polygon fill="#eeeeee" stroke="none" points="8,-18 8,-31 222,-31 222,-18 8,-18"/>
<text text-anchor="start" x="9" y="-23" font-family="Times,serif" font-weight="bold" font-size="10.00">результаты:</text>
<text text-anchor="start" x="9" y="-10" font-family="Times,serif" font-weight="bold" font-size="10.00">person_4</text>
<text text-anchor="start" x="128" y="-9" font-family="Times,serif" font-size="10.00">successed</text>
<polygon fill="none" stroke="black" points="7,-4 7,-98 223,-98 223,-4 7,-4"/>
</g>
<!-- #jump([ns&#45;1]finish_successed, [ns&#45;0]finish_meeting)&#45;&gt;[ns&#45;0]finish_meeting -->
<g id="edge3" class="edge"><title>#jump([ns&#45;1]finish_successed, [ns&#45;0]finish_meeting):#jump([ns&#45;1]finish_successed, [ns&#45;0]finish_meeting)&#45;&gt;[ns&#45;0]finish_meeting:[ns&#45;0]finish_meeting</title>
<path fill="none" stroke="black" d="M115,-148.865C115,-140.545 115,-124.829 115,-108.44"/>
<polygon fill="black" stroke="black" points="118.5,-108.209 115,-98.2087 111.5,-108.209 118.5,-108.209"/>
</g>
<!-- #jump([ns&#45;0]meeting, [ns&#45;1]start)&#45;&gt;[ns&#45;1]start -->
<g id="edge5" class="edge"><title>#jump([ns&#45;0]meeting, [ns&#45;1]start):#jump([ns&#45;0]meeting, [ns&#45;1]start)&#45;&gt;[ns&#45;1]start:[ns&#45;1]start</title>
<path fill="none" stroke="black" d="M207,-438.944C207,-429.352 207,-410.159 207,-394.611"/>
<polygon fill="black" stroke="black" points="210.5,-394.593 207,-384.593 203.5,-394.593 210.5,-394.593"/>
</g>
</g>
</svg>
