<?xml version="1.0" encoding="UTF-8" standalone="no"?>
<!DOCTYPE svg PUBLIC "-//W3C//DTD SVG 1.1//EN"
 "http://www.w3.org/Graphics/SVG/1.1/DTD/svg11.dtd">
<!-- Generated by graphviz version 2.34.0 (20130907.0221)
 -->
<!-- Title: quest Pages: 1 -->
<svg width="400pt" height="568pt"
 viewBox="0.00 0.00 400.00 568.00" xmlns="http://www.w3.org/2000/svg" xmlns:xlink="http://www.w3.org/1999/xlink">
<g id="graph0" class="graph" transform="scale(1 1) rotate(0) translate(4 564)">
<title>quest</title>
<polygon fill="white" stroke="white" points="-4,4 -4,-564 396,-564 396,4 -4,4"/>
<g id="clust1" class="cluster"><title>cluster_[ns&#45;0]help_subquest</title>
<polygon fill="#96ffff" stroke="black" points="8,-104 8,-402 384,-402 384,-104 8,-104"/>
<text text-anchor="middle" x="196" y="-386.8" font-family="Times,serif" font-size="14.00">cluster_[ns&#45;0]help_subquest</text>
</g>
<g id="clust2" class="cluster"><title>cluster_[ns&#45;1]event</title>
<polygon fill="#ffffdd" stroke="black" points="16,-176 16,-253 376,-253 376,-176 16,-176"/>
<text text-anchor="middle" x="196" y="-237.8" font-family="Times,serif" font-size="14.00">cluster_[ns&#45;1]event</text>
</g>
<!-- [ns&#45;1]start -->
<g id="node1" class="node"><title>[ns&#45;1]start</title>
<polygon fill="#eeeeee" stroke="none" points="133.5,-265.5 133.5,-294.5 266.5,-294.5 266.5,-265.5 133.5,-265.5"/>
<text text-anchor="start" x="136" y="-284.5" font-family="Times,serif" font-style="italic" font-size="10.00">[ns&#45;1]start</text>
<text text-anchor="start" x="219.5" y="-284.5" font-family="Times,serif" font-weight="bold" font-size="10.00">simple</text>
<text text-anchor="start" x="136" y="-270" font-family="Times,serif" font-size="10.00">Начало: самый простой квест</text>
<polygon fill="none" stroke="black" points="133.5,-265.5 133.5,-294.5 266.5,-294.5 266.5,-265.5 133.5,-265.5"/>
</g>
<!-- [ns&#45;1]finish_failed -->
<g id="node3" class="node"><title>[ns&#45;1]finish_failed</title>
<polygon fill="#eeeeee" stroke="none" points="222,-188.5 222,-217.5 360,-217.5 360,-188.5 222,-188.5"/>
<text text-anchor="start" x="224" y="-207.5" font-family="Times,serif" font-style="italic" font-size="10.00">[ns&#45;1]finish_failed</text>
<text text-anchor="start" x="319" y="-207.5" font-family="Times,serif" font-weight="bold" font-size="10.00">failed</text>
<text text-anchor="start" x="224" y="-193" font-family="Times,serif" font-size="10.00">завершить задание плохо</text>
<polygon fill="none" stroke="black" points="222,-188.5 222,-217.5 360,-217.5 360,-188.5 222,-188.5"/>
</g>
<!-- [ns&#45;1]start&#45;&gt;[ns&#45;1]finish_failed -->
<g id="edge5" class="edge"><title>[ns&#45;1]start:[ns&#45;1]start&#45;&gt;[ns&#45;1]finish_failed:[ns&#45;1]finish_failed</title>
<path fill="none" stroke="black" d="M216.691,-265.244C230.673,-253.72 250.821,-237.115 266.611,-224.101"/>
<polygon fill="black" stroke="black" points="268.924,-226.73 274.415,-217.669 264.472,-221.328 268.924,-226.73"/>
</g>
<!-- [ns&#45;1]finish_successed -->
<g id="node4" class="node"><title>[ns&#45;1]finish_successed</title>
<polygon fill="#eeeeee" stroke="none" points="32,-188.5 32,-217.5 188,-217.5 188,-188.5 32,-188.5"/>
<text text-anchor="start" x="34" y="-207.5" font-family="Times,serif" font-style="italic" font-size="10.00">[ns&#45;1]finish_successed</text>
<text text-anchor="start" x="138.5" y="-207.5" font-family="Times,serif" font-weight="bold" font-size="10.00">successed</text>
<text text-anchor="start" x="34" y="-193" font-family="Times,serif" font-size="10.00">завершить задание удачно</text>
<polygon fill="none" stroke="black" points="32,-188.5 32,-217.5 188,-217.5 188,-188.5 32,-188.5"/>
</g>
<!-- [ns&#45;1]start&#45;&gt;[ns&#45;1]finish_successed -->
<g id="edge7" class="edge"><title>[ns&#45;1]start:[ns&#45;1]start&#45;&gt;[ns&#45;1]finish_successed:[ns&#45;1]finish_successed</title>
<path fill="none" stroke="black" d="M183.493,-265.244C169.664,-253.72 149.738,-237.115 134.121,-224.101"/>
<polygon fill="black" stroke="black" points="136.326,-221.382 126.403,-217.669 131.844,-226.76 136.326,-221.382"/>
</g>
<!-- [ns&#45;0]start -->
<g id="node2" class="node"><title>[ns&#45;0]start</title>
<polygon fill="#eeeeee" stroke="none" points="134.5,-500.5 134.5,-555.5 265.5,-555.5 265.5,-500.5 134.5,-500.5"/>
<text text-anchor="start" x="137" y="-545.5" font-family="Times,serif" font-style="italic" font-size="10.00">[ns&#45;0]start</text>
<text text-anchor="start" x="208.5" y="-545.5" font-family="Times,serif" font-weight="bold" font-size="10.00">help_friend</text>
<text text-anchor="start" x="137" y="-531" font-family="Times,serif" font-size="10.00">Начало: навестить соратника</text>
<polygon fill="#dddddd" stroke="none" points="136,-514 136,-527 265,-527 265,-514 136,-514"/>
<text text-anchor="start" x="137" y="-519" font-family="Times,serif" font-size="10.00">hero </text>
<text text-anchor="start" x="158" y="-519" font-family="Times,serif" font-weight="bold" font-size="10.00">находится в</text>
<text text-anchor="start" x="213" y="-519" font-family="Times,serif" font-size="10.00"> place_1</text>
<polygon fill="#ffffff" stroke="none" points="136,-501 136,-514 265,-514 265,-501 136,-501"/>
<text text-anchor="start" x="137" y="-506" font-family="Times,serif" font-weight="bold" font-size="10.00">сообщение:</text>
<text text-anchor="start" x="189" y="-506" font-family="Times,serif" font-size="10.00"> intro</text>
<polygon fill="none" stroke="black" points="134.5,-500.5 134.5,-555.5 265.5,-555.5 265.5,-500.5 134.5,-500.5"/>
</g>
<!-- [ns&#45;0]meeting -->
<g id="node5" class="node"><title>[ns&#45;0]meeting</title>
<polygon fill="#ddffdd" stroke="none" points="122.5,-414 122.5,-456 277.5,-456 277.5,-414 122.5,-414"/>
<text text-anchor="start" x="125" y="-446.5" font-family="Times,serif" font-style="italic" font-size="10.00">[ns&#45;0]meeting</text>
<text text-anchor="start" x="125" y="-432" font-family="Times,serif" font-size="10.00">встреча с соратником</text>
<polygon fill="#cceecc" stroke="none" points="124,-415 124,-428 277,-428 277,-415 124,-415"/>
<text text-anchor="start" x="125" y="-420" font-family="Times,serif" font-size="10.00">hero </text>
<text text-anchor="start" x="146" y="-420" font-family="Times,serif" font-weight="bold" font-size="10.00">находится в</text>
<text text-anchor="start" x="201" y="-420" font-family="Times,serif" font-size="10.00"> place_4</text>
<polygon fill="none" stroke="black" points="122.5,-414 122.5,-456 277.5,-456 277.5,-414 122.5,-414"/>
</g>
<!-- [ns&#45;0]start&#45;&gt;[ns&#45;0]meeting -->
<g id="edge6" class="edge"><title>[ns&#45;0]start:[ns&#45;0]start&#45;&gt;[ns&#45;0]meeting:[ns&#45;0]meeting</title>
<path fill="none" stroke="black" d="M200,-500.189C200,-489.542 200,-477.241 200,-466.275"/>
<polygon fill="black" stroke="black" points="203.5,-466.266 200,-456.266 196.5,-466.267 203.5,-466.266"/>
</g>
<!-- #jump([ns&#45;1]finish_successed, [ns&#45;0]finish_meeting) -->
<g id="node7" class="node"><title>#jump([ns&#45;1]finish_successed, [ns&#45;0]finish_meeting)</title>
<polygon fill="#eeeeee" stroke="none" points="61,-123 61,-137 160,-137 160,-123 61,-123"/>
<text text-anchor="start" x="62" y="-128.5" font-family="Times,serif" font-weight="bold" font-size="10.00">сообщение:</text>
<text text-anchor="start" x="114" y="-128.5" font-family="Times,serif" font-size="10.00"> after_help</text>
</g>
<!-- [ns&#45;1]finish_successed&#45;&gt;#jump([ns&#45;1]finish_successed, [ns&#45;0]finish_meeting) -->
<g id="edge1" class="edge"><title>[ns&#45;1]finish_successed:[ns&#45;1]finish_successed&#45;&gt;#jump([ns&#45;1]finish_successed, [ns&#45;0]finish_meeting):#jump([ns&#45;1]finish_successed, [ns&#45;0]finish_meeting)</title>
<path fill="none" stroke="black" d="M110,-188.31C110,-172.837 110,-148.336 110,-137.053"/>
</g>
<!-- #jump([ns&#45;0]meeting, [ns&#45;1]start) -->
<g id="node8" class="node"><title>#jump([ns&#45;0]meeting, [ns&#45;1]start)</title>
<polygon fill="#eeeeee" stroke="none" points="147,-346 147,-360 254,-360 254,-346 147,-346"/>
<text text-anchor="start" x="148" y="-351.5" font-family="Times,serif" font-weight="bold" font-size="10.00">сообщение:</text>
<text text-anchor="start" x="200" y="-351.5" font-family="Times,serif" font-size="10.00"> before_help</text>
</g>
<!-- [ns&#45;0]meeting&#45;&gt;#jump([ns&#45;0]meeting, [ns&#45;1]start) -->
<g id="edge3" class="edge"><title>[ns&#45;0]meeting:[ns&#45;0]meeting&#45;&gt;#jump([ns&#45;0]meeting, [ns&#45;1]start):#jump([ns&#45;0]meeting, [ns&#45;1]start)</title>
<path fill="none" stroke="black" d="M200,-413.813C200,-396.038 200,-371.281 200,-360.013"/>
</g>
<!-- [ns&#45;0]finish_meeting -->
<g id="node6" class="node"><title>[ns&#45;0]finish_meeting</title>
<polygon fill="#eeeeee" stroke="none" points="13.5,-4 13.5,-72 206.5,-72 206.5,-4 13.5,-4"/>
<text text-anchor="start" x="16" y="-62.5" font-family="Times,serif" font-style="italic" font-size="10.00">[ns&#45;0]finish_meeting</text>
<text text-anchor="start" x="138.5" y="-62.5" font-family="Times,serif" font-weight="bold" font-size="10.00">successed</text>
<text text-anchor="start" x="16" y="-48" font-family="Times,serif" font-size="10.00">соратнику оказана помощь</text>
<polygon fill="#dddddd" stroke="none" points="15,-31 15,-44 206,-44 206,-31 15,-31"/>
<text text-anchor="start" x="16" y="-36" font-family="Times,serif" font-size="10.00">hero </text>
<text text-anchor="start" x="37" y="-36" font-family="Times,serif" font-weight="bold" font-size="10.00">находится в</text>
<text text-anchor="start" x="92" y="-36" font-family="Times,serif" font-size="10.00"> place_4</text>
<polygon fill="#ffffff" stroke="none" points="15,-18 15,-31 206,-31 206,-18 15,-18"/>
<text text-anchor="start" x="16" y="-23" font-family="Times,serif" font-weight="bold" font-size="10.00">выдать награду </text>
<text text-anchor="start" x="91" y="-23" font-family="Times,serif" font-size="10.00">  hero </text>
<text text-anchor="start" x="116" y="-23" font-family="Times,serif" font-weight="bold" font-size="10.00">типа </text>
<text text-anchor="start" x="140" y="-23" font-family="Times,serif" font-size="10.00"> finish_meeting</text>
<polygon fill="#ffffff" stroke="none" points="15,-5 15,-18 206,-18 206,-5 15,-5"/>
<text text-anchor="start" x="16" y="-10" font-family="Times,serif" font-weight="bold" font-size="10.00">увеличить влияние </text>
<text text-anchor="start" x="104" y="-10" font-family="Times,serif" font-size="10.00">  person_4 </text>
<text text-anchor="start" x="149" y="-10" font-family="Times,serif" font-weight="bold" font-size="10.00">на </text>
<text text-anchor="start" x="162" y="-10" font-family="Times,serif" font-size="10.00"> 1.00</text>
<polygon fill="none" stroke="black" points="13.5,-4 13.5,-72 206.5,-72 206.5,-4 13.5,-4"/>
</g>
<!-- #jump([ns&#45;1]finish_successed, [ns&#45;0]finish_meeting)&#45;&gt;[ns&#45;0]finish_meeting -->
<g id="edge2" class="edge"><title>#jump([ns&#45;1]finish_successed, [ns&#45;0]finish_meeting):#jump([ns&#45;1]finish_successed, [ns&#45;0]finish_meeting)&#45;&gt;[ns&#45;0]finish_meeting:[ns&#45;0]finish_meeting</title>
<path fill="none" stroke="black" d="M110,-122.814C110,-114.344 110,-98.3863 110,-82.6494"/>
<polygon fill="black" stroke="black" points="113.5,-82.4207 110,-72.4207 106.5,-82.4208 113.5,-82.4207"/>
</g>
<!-- #jump([ns&#45;0]meeting, [ns&#45;1]start)&#45;&gt;[ns&#45;1]start -->
<g id="edge4" class="edge"><title>#jump([ns&#45;0]meeting, [ns&#45;1]start):#jump([ns&#45;0]meeting, [ns&#45;1]start)&#45;&gt;[ns&#45;1]start:[ns&#45;1]start</title>
<path fill="none" stroke="black" d="M200,-345.947C200,-336.968 200,-319.618 200,-305.109"/>
<polygon fill="black" stroke="black" points="203.5,-304.753 200,-294.753 196.5,-304.753 203.5,-304.753"/>
</g>
</g>
</svg>
