<?xml version="1.0" encoding="UTF-8" standalone="no"?>
<!DOCTYPE svg PUBLIC "-//W3C//DTD SVG 1.1//EN"
 "http://www.w3.org/Graphics/SVG/1.1/DTD/svg11.dtd">
<!-- Generated by graphviz version 2.34.0 (20130907.0221)
 -->
<!-- Title: quest Pages: 1 -->
<svg width="428pt" height="658pt"
 viewBox="0.00 0.00 428.00 658.00" xmlns="http://www.w3.org/2000/svg" xmlns:xlink="http://www.w3.org/1999/xlink">
<g id="graph0" class="graph" transform="scale(1 1) rotate(0) translate(4 654)">
<title>quest</title>
<polygon fill="white" stroke="white" points="-4,4 -4,-654 424,-654 424,4 -4,4"/>
<g id="clust1" class="cluster"><title>cluster_[ns&#45;0]help_subquest</title>
<polygon fill="#96ffff" stroke="black" points="36,-194 36,-420 412,-420 412,-194 36,-194"/>
<text text-anchor="middle" x="224" y="-404.8" font-family="Times,serif" font-size="14.00">cluster_[ns&#45;0]help_subquest</text>
</g>
<g id="clust2" class="cluster"><title>cluster_[ns&#45;1]event</title>
<polygon fill="#ffffdd" stroke="black" points="44,-202 44,-343 404,-343 404,-202 44,-202"/>
<text text-anchor="middle" x="224" y="-327.8" font-family="Times,serif" font-size="14.00">cluster_[ns&#45;1]event</text>
</g>
<!-- [ns&#45;1]start -->
<g id="node1" class="node"><title>[ns&#45;1]start</title>
<polygon fill="#eeeeee" stroke="none" points="161.5,-355.5 161.5,-384.5 294.5,-384.5 294.5,-355.5 161.5,-355.5"/>
<text text-anchor="start" x="164" y="-374.5" font-family="Times,serif" font-style="italic" font-size="10.00">[ns&#45;1]start</text>
<text text-anchor="start" x="247.5" y="-374.5" font-family="Times,serif" font-weight="bold" font-size="10.00">simple</text>
<text text-anchor="start" x="164" y="-360" font-family="Times,serif" font-size="10.00">Начало: самый простой квест</text>
<polygon fill="none" stroke="black" points="161.5,-355.5 161.5,-384.5 294.5,-384.5 294.5,-355.5 161.5,-355.5"/>
</g>
<!-- [ns&#45;1]finish_failed -->
<g id="node3" class="node"><title>[ns&#45;1]finish_failed</title>
<polygon fill="#eeeeee" stroke="none" points="250,-214 250,-308 388,-308 388,-214 250,-214"/>
<text text-anchor="start" x="252" y="-298.5" font-family="Times,serif" font-style="italic" font-size="10.00">[ns&#45;1]finish_failed</text>
<text text-anchor="start" x="252" y="-284" font-family="Times,serif" font-size="10.00">завершить задание плохо</text>
<polygon fill="#eeeeee" stroke="none" points="251,-267 251,-280 387,-280 387,-267 251,-267"/>
<text text-anchor="start" x="252" y="-272" font-family="Times,serif" font-weight="bold" font-size="10.00">результаты:</text>
<text text-anchor="start" x="252" y="-259" font-family="Times,serif" font-weight="bold" font-size="10.00">person_4</text>
<text text-anchor="start" x="333" y="-258" font-family="Times,serif" font-size="10.00">failed</text>
<text text-anchor="start" x="252" y="-246" font-family="Times,serif" font-weight="bold" font-size="10.00">person_9</text>
<text text-anchor="start" x="333" y="-245" font-family="Times,serif" font-size="10.00">failed</text>
<text text-anchor="start" x="252" y="-233" font-family="Times,serif" font-weight="bold" font-size="10.00">place_4</text>
<text text-anchor="start" x="333" y="-232" font-family="Times,serif" font-size="10.00">failed</text>
<text text-anchor="start" x="252" y="-220" font-family="Times,serif" font-weight="bold" font-size="10.00">place_9</text>
<text text-anchor="start" x="333" y="-219" font-family="Times,serif" font-size="10.00">failed</text>
<polygon fill="none" stroke="black" points="250,-214 250,-308 388,-308 388,-214 250,-214"/>
</g>
<!-- [ns&#45;1]start&#45;&gt;[ns&#45;1]finish_failed -->
<g id="edge6" class="edge"><title>[ns&#45;1]start:[ns&#45;1]start&#45;&gt;[ns&#45;1]finish_failed:[ns&#45;1]finish_failed</title>
<path fill="none" stroke="black" d="M239.525,-355.448C248.159,-345.296 260.585,-330.685 273.056,-316.022"/>
<polygon fill="black" stroke="black" points="275.749,-318.258 279.562,-308.373 270.417,-313.723 275.749,-318.258"/>
</g>
<!-- [ns&#45;1]finish_successed -->
<g id="node4" class="node"><title>[ns&#45;1]finish_successed</title>
<polygon fill="#eeeeee" stroke="none" points="60,-214 60,-308 216,-308 216,-214 60,-214"/>
<text text-anchor="start" x="62" y="-298.5" font-family="Times,serif" font-style="italic" font-size="10.00">[ns&#45;1]finish_successed</text>
<text text-anchor="start" x="62" y="-284" font-family="Times,serif" font-size="10.00">завершить задание удачно</text>
<polygon fill="#eeeeee" stroke="none" points="61,-267 61,-280 215,-280 215,-267 61,-267"/>
<text text-anchor="start" x="62" y="-272" font-family="Times,serif" font-weight="bold" font-size="10.00">результаты:</text>
<text text-anchor="start" x="62" y="-259" font-family="Times,serif" font-weight="bold" font-size="10.00">person_4</text>
<text text-anchor="start" x="159" y="-258" font-family="Times,serif" font-size="10.00">successed</text>
<text text-anchor="start" x="62" y="-246" font-family="Times,serif" font-weight="bold" font-size="10.00">person_9</text>
<text text-anchor="start" x="159" y="-245" font-family="Times,serif" font-size="10.00">successed</text>
<text text-anchor="start" x="62" y="-233" font-family="Times,serif" font-weight="bold" font-size="10.00">place_4</text>
<text text-anchor="start" x="159" y="-232" font-family="Times,serif" font-size="10.00">successed</text>
<text text-anchor="start" x="62" y="-220" font-family="Times,serif" font-weight="bold" font-size="10.00">place_9</text>
<text text-anchor="start" x="159" y="-219" font-family="Times,serif" font-size="10.00">successed</text>
<polygon fill="none" stroke="black" points="60,-214 60,-308 216,-308 216,-214 60,-214"/>
</g>
<!-- [ns&#45;1]start&#45;&gt;[ns&#45;1]finish_successed -->
<g id="edge7" class="edge"><title>[ns&#45;1]start:[ns&#45;1]start&#45;&gt;[ns&#45;1]finish_successed:[ns&#45;1]finish_successed</title>
<path fill="none" stroke="black" d="M216.601,-355.448C208.141,-345.389 195.998,-330.953 183.778,-316.426"/>
<polygon fill="black" stroke="black" points="186.12,-313.773 177.005,-308.373 180.763,-318.278 186.12,-313.773"/>
</g>
<!-- [ns&#45;0]start -->
<g id="node2" class="node"><title>[ns&#45;0]start</title>
<polygon fill="#eeeeee" stroke="none" points="162.5,-590.5 162.5,-645.5 293.5,-645.5 293.5,-590.5 162.5,-590.5"/>
<text text-anchor="start" x="165" y="-635.5" font-family="Times,serif" font-style="italic" font-size="10.00">[ns&#45;0]start</text>
<text text-anchor="start" x="236.5" y="-635.5" font-family="Times,serif" font-weight="bold" font-size="10.00">help_friend</text>
<text text-anchor="start" x="165" y="-621" font-family="Times,serif" font-size="10.00">Начало: навестить соратника</text>
<polygon fill="#dddddd" stroke="none" points="164,-604 164,-617 293,-617 293,-604 164,-604"/>
<text text-anchor="start" x="165" y="-609" font-family="Times,serif" font-size="10.00">hero </text>
<text text-anchor="start" x="186" y="-609" font-family="Times,serif" font-weight="bold" font-size="10.00">находится в</text>
<text text-anchor="start" x="241" y="-609" font-family="Times,serif" font-size="10.00"> place_1</text>
<polygon fill="#ffffff" stroke="none" points="164,-591 164,-604 293,-604 293,-591 164,-591"/>
<text text-anchor="start" x="165" y="-596" font-family="Times,serif" font-weight="bold" font-size="10.00">сообщение:</text>
<text text-anchor="start" x="217" y="-596" font-family="Times,serif" font-size="10.00"> intro</text>
<polygon fill="none" stroke="black" points="162.5,-590.5 162.5,-645.5 293.5,-645.5 293.5,-590.5 162.5,-590.5"/>
</g>
<!-- [ns&#45;0]meeting -->
<g id="node5" class="node"><title>[ns&#45;0]meeting</title>
<polygon fill="#ddffdd" stroke="none" points="168,-504 168,-546 288,-546 288,-504 168,-504"/>
<text text-anchor="start" x="170" y="-536.5" font-family="Times,serif" font-style="italic" font-size="10.00">[ns&#45;0]meeting</text>
<text text-anchor="start" x="170" y="-522" font-family="Times,serif" font-size="10.00">встреча с соратником</text>
<polygon fill="#cceecc" stroke="none" points="169,-505 169,-518 287,-518 287,-505 169,-505"/>
<text text-anchor="start" x="170" y="-510" font-family="Times,serif" font-size="10.00">hero </text>
<text text-anchor="start" x="191" y="-510" font-family="Times,serif" font-weight="bold" font-size="10.00">находится в</text>
<text text-anchor="start" x="246" y="-510" font-family="Times,serif" font-size="10.00"> place_4</text>
<polygon fill="none" stroke="black" points="168,-504 168,-546 288,-546 288,-504 168,-504"/>
</g>
<!-- [ns&#45;0]start&#45;&gt;[ns&#45;0]meeting -->
<g id="edge3" class="edge"><title>[ns&#45;0]start:[ns&#45;0]start&#45;&gt;[ns&#45;0]meeting:[ns&#45;0]meeting</title>
<path fill="none" stroke="black" d="M228,-590.189C228,-579.542 228,-567.241 228,-556.275"/>
<polygon fill="black" stroke="black" points="231.5,-556.266 228,-546.266 224.5,-556.267 231.5,-556.266"/>
</g>
<!-- #jump([ns&#45;1]finish_successed, [ns&#45;0]finish_meeting) -->
<g id="node7" class="node"><title>#jump([ns&#45;1]finish_successed, [ns&#45;0]finish_meeting)</title>
<polygon fill="#eeeeee" stroke="none" points="89,-149 89,-163 188,-163 188,-149 89,-149"/>
<text text-anchor="start" x="90" y="-154.5" font-family="Times,serif" font-weight="bold" font-size="10.00">сообщение:</text>
<text text-anchor="start" x="142" y="-154.5" font-family="Times,serif" font-size="10.00"> after_help</text>
</g>
<!-- [ns&#45;1]finish_successed&#45;&gt;#jump([ns&#45;1]finish_successed, [ns&#45;0]finish_meeting) -->
<g id="edge1" class="edge"><title>[ns&#45;1]finish_successed:[ns&#45;1]finish_successed&#45;&gt;#jump([ns&#45;1]finish_successed, [ns&#45;0]finish_meeting):#jump([ns&#45;1]finish_successed, [ns&#45;0]finish_meeting)</title>
<path fill="none" stroke="black" d="M138,-213.923C138,-194.211 138,-173.429 138,-163.298"/>
</g>
<!-- #jump([ns&#45;0]meeting, [ns&#45;1]start) -->
<g id="node8" class="node"><title>#jump([ns&#45;0]meeting, [ns&#45;1]start)</title>
<polygon fill="#eeeeee" stroke="none" points="175,-439 175,-453 282,-453 282,-439 175,-439"/>
<text text-anchor="start" x="176" y="-444.5" font-family="Times,serif" font-weight="bold" font-size="10.00">сообщение:</text>
<text text-anchor="start" x="228" y="-444.5" font-family="Times,serif" font-size="10.00"> before_help</text>
</g>
<!-- [ns&#45;0]meeting&#45;&gt;#jump([ns&#45;0]meeting, [ns&#45;1]start) -->
<g id="edge4" class="edge"><title>[ns&#45;0]meeting:[ns&#45;0]meeting&#45;&gt;#jump([ns&#45;0]meeting, [ns&#45;1]start):#jump([ns&#45;0]meeting, [ns&#45;1]start)</title>
<path fill="none" stroke="black" d="M228,-503.769C228,-487.015 228,-464.253 228,-453.342"/>
</g>
<!-- [ns&#45;0]finish_meeting -->
<g id="node6" class="node"><title>[ns&#45;0]finish_meeting</title>
<polygon fill="#eeeeee" stroke="none" points="7.5,-4 7.5,-98 268.5,-98 268.5,-4 7.5,-4"/>
<text text-anchor="start" x="10" y="-88.5" font-family="Times,serif" font-style="italic" font-size="10.00">[ns&#45;0]finish_meeting</text>
<text text-anchor="start" x="10" y="-74" font-family="Times,serif" font-size="10.00">соратнику оказана помощь</text>
<polygon fill="#dddddd" stroke="none" points="9,-57 9,-70 268,-70 268,-57 9,-57"/>
<text text-anchor="start" x="10" y="-62" font-family="Times,serif" font-size="10.00">hero </text>
<text text-anchor="start" x="31" y="-62" font-family="Times,serif" font-weight="bold" font-size="10.00">находится в</text>
<text text-anchor="start" x="86" y="-62" font-family="Times,serif" font-size="10.00"> place_4</text>
<polygon fill="#ffffff" stroke="none" points="9,-44 9,-57 268,-57 268,-44 9,-44"/>
<text text-anchor="start" x="10" y="-49" font-family="Times,serif" font-weight="bold" font-size="10.00">выдать награду </text>
<text text-anchor="start" x="85" y="-49" font-family="Times,serif" font-size="10.00">  hero </text>
<text text-anchor="start" x="110" y="-49" font-family="Times,serif" font-weight="bold" font-size="10.00">типа </text>
<text text-anchor="start" x="134" y="-49" font-family="Times,serif" font-size="10.00"> finish_meeting </text>
<text text-anchor="start" x="201" y="-49" font-family="Times,serif" font-weight="bold" font-size="10.00">в размере</text>
<text text-anchor="start" x="244" y="-49" font-family="Times,serif" font-size="10.00"> 1.00</text>
<polygon fill="#ffffff" stroke="none" points="9,-31 9,-44 268,-44 268,-31 9,-31"/>
<text text-anchor="start" x="10" y="-36" font-family="Times,serif" font-weight="bold" font-size="10.00">увеличить влияние </text>
<text text-anchor="start" x="98" y="-36" font-family="Times,serif" font-size="10.00">  person_4 </text>
<text text-anchor="start" x="143" y="-36" font-family="Times,serif" font-weight="bold" font-size="10.00">на </text>
<text text-anchor="start" x="156" y="-36" font-family="Times,serif" font-size="10.00"> 1.00</text>
<polygon fill="#eeeeee" stroke="none" points="9,-18 9,-31 268,-31 268,-18 9,-18"/>
<text text-anchor="start" x="10" y="-23" font-family="Times,serif" font-weight="bold" font-size="10.00">результаты:</text>
<text text-anchor="start" x="10" y="-10" font-family="Times,serif" font-weight="bold" font-size="10.00">person_4</text>
<text text-anchor="start" x="140" y="-9" font-family="Times,serif" font-size="10.00">successed</text>
<polygon fill="none" stroke="black" points="7.5,-4 7.5,-98 268.5,-98 268.5,-4 7.5,-4"/>
</g>
<!-- #jump([ns&#45;1]finish_successed, [ns&#45;0]finish_meeting)&#45;&gt;[ns&#45;0]finish_meeting -->
<g id="edge2" class="edge"><title>#jump([ns&#45;1]finish_successed, [ns&#45;0]finish_meeting):#jump([ns&#45;1]finish_successed, [ns&#45;0]finish_meeting)&#45;&gt;[ns&#45;0]finish_meeting:[ns&#45;0]finish_meeting</title>
<path fill="none" stroke="black" d="M138,-148.865C138,-140.545 138,-124.829 138,-108.44"/>
<polygon fill="black" stroke="black" points="141.5,-108.209 138,-98.2087 134.5,-108.209 141.5,-108.209"/>
</g>
<!-- #jump([ns&#45;0]meeting, [ns&#45;1]start)&#45;&gt;[ns&#45;1]start -->
<g id="edge5" class="edge"><title>#jump([ns&#45;0]meeting, [ns&#45;1]start):#jump([ns&#45;0]meeting, [ns&#45;1]start)&#45;&gt;[ns&#45;1]start:[ns&#45;1]start</title>
<path fill="none" stroke="black" d="M228,-438.944C228,-429.352 228,-410.159 228,-394.611"/>
<polygon fill="black" stroke="black" points="231.5,-394.593 228,-384.593 224.5,-394.593 231.5,-394.593"/>
</g>
</g>
</svg>
