<?xml version="1.0" encoding="UTF-8" standalone="no"?>
<!DOCTYPE svg PUBLIC "-//W3C//DTD SVG 1.1//EN"
 "http://www.w3.org/Graphics/SVG/1.1/DTD/svg11.dtd">
<!-- Generated by graphviz version 2.38.0 (20140413.2041)
 -->
<!-- Title: quest Pages: 1 -->
<svg width="394pt" height="638pt"
 viewBox="0.00 0.00 393.50 638.00" xmlns="http://www.w3.org/2000/svg" xmlns:xlink="http://www.w3.org/1999/xlink">
<g id="graph0" class="graph" transform="scale(1 1) rotate(0) translate(4 634)">
<title>quest</title>
<polygon fill="white" stroke="none" points="-4,4 -4,-634 389.5,-634 389.5,4 -4,4"/>
<g id="clust1" class="cluster"><title>cluster_[ns&#45;0]help_subquest</title>
<polygon fill="#96ffff" stroke="black" points="43.5,-180 43.5,-403 377.5,-403 377.5,-180 43.5,-180"/>
<text text-anchor="middle" x="210.5" y="-387.8" font-family="Times,serif" font-size="14.00">cluster_[ns&#45;0]help_subquest</text>
</g>
<g id="clust2" class="cluster"><title>cluster_[ns&#45;1]event</title>
<polygon fill="#ffffdd" stroke="black" points="51.5,-188 51.5,-328 369.5,-328 369.5,-188 51.5,-188"/>
<text text-anchor="middle" x="210.5" y="-312.8" font-family="Times,serif" font-size="14.00">cluster_[ns&#45;1]event</text>
</g>
<!-- [ns&#45;1]start -->
<g id="node1" class="node"><title>[ns&#45;1]start</title>
<polygon fill="#eeeeee" stroke="none" points="151,-340 151,-368 282,-368 282,-340 151,-340"/>
<text text-anchor="start" x="153.5" y="-359" font-family="Times,serif" font-style="italic" font-size="10.00">[ns&#45;1]start</text>
<text text-anchor="start" x="239" y="-359" font-family="Times,serif" font-weight="bold" font-size="10.00">simple</text>
<text text-anchor="start" x="153.5" y="-345" font-family="Times,serif" font-size="10.00">Начало: самый простой квест</text>
<polygon fill="none" stroke="black" points="151,-340 151,-368 282,-368 282,-340 151,-340"/>
</g>
<!-- [ns&#45;1]finish_failed -->
<g id="node3" class="node"><title>[ns&#45;1]finish_failed</title>
<polygon fill="#eeeeee" stroke="none" points="241.5,-200 241.5,-293 353.5,-293 353.5,-200 241.5,-200"/>
<text text-anchor="start" x="243.5" y="-283.5" font-family="Times,serif" font-style="italic" font-size="10.00">[ns&#45;1]finish_failed</text>
<text text-anchor="start" x="243.5" y="-269.5" font-family="Times,serif" font-size="10.00">завершить задание плохо</text>
<polygon fill="#eeeeee" stroke="none" points="242.5,-252.5 242.5,-265.5 352.5,-265.5 352.5,-252.5 242.5,-252.5"/>
<text text-anchor="start" x="243.5" y="-257.5" font-family="Times,serif" font-weight="bold" font-size="10.00">результаты:</text>
<text text-anchor="start" x="243.5" y="-244.5" font-family="Times,serif" font-weight="bold" font-size="10.00">person_4</text>
<text text-anchor="start" x="325.5" y="-243.5" font-family="Times,serif" font-size="10.00">failed</text>
<text text-anchor="start" x="243.5" y="-231.5" font-family="Times,serif" font-weight="bold" font-size="10.00">person_6</text>
<text text-anchor="start" x="325.5" y="-230.5" font-family="Times,serif" font-size="10.00">failed</text>
<text text-anchor="start" x="243.5" y="-218.5" font-family="Times,serif" font-weight="bold" font-size="10.00">place_4</text>
<text text-anchor="start" x="325.5" y="-217.5" font-family="Times,serif" font-size="10.00">failed</text>
<text text-anchor="start" x="243.5" y="-205.5" font-family="Times,serif" font-weight="bold" font-size="10.00">place_6</text>
<text text-anchor="start" x="325.5" y="-204.5" font-family="Times,serif" font-size="10.00">failed</text>
<polygon fill="none" stroke="black" points="241.5,-200 241.5,-293 353.5,-293 353.5,-200 241.5,-200"/>
</g>
<!-- [ns&#45;1]start&#45;&gt;[ns&#45;1]finish_failed -->
<g id="edge6" class="edge"><title>[ns&#45;1]start:[ns&#45;1]start&#45;&gt;[ns&#45;1]finish_failed:[ns&#45;1]finish_failed</title>
<path fill="none" stroke="black" d="M226.759,-339.638C234.373,-329.72 245.302,-315.486 256.299,-301.163"/>
<polygon fill="black" stroke="black" points="259.082,-303.286 262.396,-293.223 253.529,-299.023 259.082,-303.286"/>
</g>
<!-- [ns&#45;1]finish_successed -->
<g id="node4" class="node"><title>[ns&#45;1]finish_successed</title>
<polygon fill="#eeeeee" stroke="none" points="67.5,-200 67.5,-293 207.5,-293 207.5,-200 67.5,-200"/>
<text text-anchor="start" x="69.5" y="-283.5" font-family="Times,serif" font-style="italic" font-size="10.00">[ns&#45;1]finish_successed</text>
<text text-anchor="start" x="69.5" y="-269.5" font-family="Times,serif" font-size="10.00">завершить задание удачно</text>
<polygon fill="#eeeeee" stroke="none" points="68.5,-252.5 68.5,-265.5 206.5,-265.5 206.5,-252.5 68.5,-252.5"/>
<text text-anchor="start" x="69.5" y="-257.5" font-family="Times,serif" font-weight="bold" font-size="10.00">результаты:</text>
<text text-anchor="start" x="69.5" y="-244.5" font-family="Times,serif" font-weight="bold" font-size="10.00">person_4</text>
<text text-anchor="start" x="165.5" y="-243.5" font-family="Times,serif" font-size="10.00">successed</text>
<text text-anchor="start" x="69.5" y="-231.5" font-family="Times,serif" font-weight="bold" font-size="10.00">person_6</text>
<text text-anchor="start" x="165.5" y="-230.5" font-family="Times,serif" font-size="10.00">successed</text>
<text text-anchor="start" x="69.5" y="-218.5" font-family="Times,serif" font-weight="bold" font-size="10.00">place_4</text>
<text text-anchor="start" x="165.5" y="-217.5" font-family="Times,serif" font-size="10.00">successed</text>
<text text-anchor="start" x="69.5" y="-205.5" font-family="Times,serif" font-weight="bold" font-size="10.00">place_6</text>
<text text-anchor="start" x="165.5" y="-204.5" font-family="Times,serif" font-size="10.00">successed</text>
<polygon fill="none" stroke="black" points="67.5,-200 67.5,-293 207.5,-293 207.5,-200 67.5,-200"/>
</g>
<!-- [ns&#45;1]start&#45;&gt;[ns&#45;1]finish_successed -->
<g id="edge7" class="edge"><title>[ns&#45;1]start:[ns&#45;1]start&#45;&gt;[ns&#45;1]finish_successed:[ns&#45;1]finish_successed</title>
<path fill="none" stroke="black" d="M206.495,-339.638C199.137,-329.812 188.606,-315.75 177.981,-301.56"/>
<polygon fill="black" stroke="black" points="180.533,-299.129 171.738,-293.223 174.93,-303.325 180.533,-299.129"/>
</g>
<!-- [ns&#45;0]start -->
<g id="node2" class="node"><title>[ns&#45;0]start</title>
<polygon fill="#eeeeee" stroke="none" points="151.5,-572 151.5,-626 281.5,-626 281.5,-572 151.5,-572"/>
<text text-anchor="start" x="153.5" y="-617" font-family="Times,serif" font-style="italic" font-size="10.00">[ns&#45;0]start</text>
<text text-anchor="start" x="222.5" y="-617" font-family="Times,serif" font-weight="bold" font-size="10.00">help_friend</text>
<text text-anchor="start" x="153.5" y="-603" font-family="Times,serif" font-size="10.00">Начало: навестить соратника</text>
<polygon fill="#dddddd" stroke="none" points="152.5,-586 152.5,-599 280.5,-599 280.5,-586 152.5,-586"/>
<text text-anchor="start" x="153.5" y="-591" font-family="Times,serif" font-size="10.00">hero </text>
<text text-anchor="start" x="174.5" y="-591" font-family="Times,serif" font-weight="bold" font-size="10.00">находится в</text>
<text text-anchor="start" x="229.5" y="-591" font-family="Times,serif" font-size="10.00"> place_1</text>
<polygon fill="#ffffff" stroke="none" points="152.5,-573 152.5,-586 280.5,-586 280.5,-573 152.5,-573"/>
<text text-anchor="start" x="153.5" y="-578" font-family="Times,serif" font-weight="bold" font-size="10.00">сообщение:</text>
<text text-anchor="start" x="205.5" y="-578" font-family="Times,serif" font-size="10.00"> intro</text>
<polygon fill="none" stroke="black" points="151.5,-572 151.5,-626 281.5,-626 281.5,-572 151.5,-572"/>
</g>
<!-- [ns&#45;0]meeting -->
<g id="node5" class="node"><title>[ns&#45;0]meeting</title>
<polygon fill="#ddffdd" stroke="none" points="159,-487 159,-528 274,-528 274,-487 159,-487"/>
<text text-anchor="start" x="161.5" y="-518.5" font-family="Times,serif" font-style="italic" font-size="10.00">[ns&#45;0]meeting</text>
<text text-anchor="start" x="161.5" y="-504.5" font-family="Times,serif" font-size="10.00">встреча с соратником</text>
<polygon fill="#cceecc" stroke="none" points="160.5,-487.5 160.5,-500.5 273.5,-500.5 273.5,-487.5 160.5,-487.5"/>
<text text-anchor="start" x="161.5" y="-492.5" font-family="Times,serif" font-size="10.00">hero </text>
<text text-anchor="start" x="182.5" y="-492.5" font-family="Times,serif" font-weight="bold" font-size="10.00">находится в</text>
<text text-anchor="start" x="237.5" y="-492.5" font-family="Times,serif" font-size="10.00"> place_4</text>
<polygon fill="none" stroke="black" points="159,-487 159,-528 274,-528 274,-487 159,-487"/>
</g>
<!-- [ns&#45;0]start&#45;&gt;[ns&#45;0]meeting -->
<g id="edge3" class="edge"><title>[ns&#45;0]start:[ns&#45;0]start&#45;&gt;[ns&#45;0]meeting:[ns&#45;0]meeting</title>
<path fill="none" stroke="black" d="M216.5,-571.631C216.5,-561.19 216.5,-549.132 216.5,-538.37"/>
<polygon fill="black" stroke="black" points="220,-538.148 216.5,-528.148 213,-538.148 220,-538.148"/>
</g>
<!-- #jump([ns&#45;1]finish_successed, [ns&#45;0]finish_meeting) -->
<g id="node7" class="node"><title>#jump([ns&#45;1]finish_successed, [ns&#45;0]finish_meeting)</title>
<polygon fill="#eeeeee" stroke="none" points="88.5,-135 88.5,-148 186.5,-148 186.5,-135 88.5,-135"/>
<text text-anchor="start" x="89.5" y="-140" font-family="Times,serif" font-weight="bold" font-size="10.00">сообщение:</text>
<text text-anchor="start" x="141.5" y="-140" font-family="Times,serif" font-size="10.00"> after_help</text>
</g>
<!-- [ns&#45;1]finish_successed&#45;&gt;#jump([ns&#45;1]finish_successed, [ns&#45;0]finish_meeting) -->
<g id="edge1" class="edge"><title>[ns&#45;1]finish_successed:[ns&#45;1]finish_successed&#45;&gt;#jump([ns&#45;1]finish_successed, [ns&#45;0]finish_meeting):#jump([ns&#45;1]finish_successed, [ns&#45;0]finish_meeting)</title>
<path fill="none" stroke="black" d="M137.5,-199.945C137.5,-179.841 137.5,-158.554 137.5,-148.664"/>
</g>
<!-- #jump([ns&#45;0]meeting, [ns&#45;1]start) -->
<g id="node8" class="node"><title>#jump([ns&#45;0]meeting, [ns&#45;1]start)</title>
<polygon fill="#eeeeee" stroke="none" points="163.5,-422 163.5,-435 269.5,-435 269.5,-422 163.5,-422"/>
<text text-anchor="start" x="164.5" y="-427" font-family="Times,serif" font-weight="bold" font-size="10.00">сообщение:</text>
<text text-anchor="start" x="216.5" y="-427" font-family="Times,serif" font-size="10.00"> before_help</text>
</g>
<!-- [ns&#45;0]meeting&#45;&gt;#jump([ns&#45;0]meeting, [ns&#45;1]start) -->
<g id="edge4" class="edge"><title>[ns&#45;0]meeting:[ns&#45;0]meeting&#45;&gt;#jump([ns&#45;0]meeting, [ns&#45;1]start):#jump([ns&#45;0]meeting, [ns&#45;1]start)</title>
<path fill="none" stroke="black" d="M216.5,-486.799C216.5,-469.8 216.5,-446.35 216.5,-435.687"/>
</g>
<!-- [ns&#45;0]finish_meeting -->
<g id="node6" class="node"><title>[ns&#45;0]finish_meeting</title>
<polygon fill="#eeeeee" stroke="none" points="8,-4 8,-84 267,-84 267,-4 8,-4"/>
<text text-anchor="start" x="10.5" y="-75" font-family="Times,serif" font-style="italic" font-size="10.00">[ns&#45;0]finish_meeting</text>
<text text-anchor="start" x="10.5" y="-61" font-family="Times,serif" font-size="10.00">соратнику оказана помощь</text>
<polygon fill="#dddddd" stroke="none" points="9.5,-44 9.5,-57 266.5,-57 266.5,-44 9.5,-44"/>
<text text-anchor="start" x="10.5" y="-49" font-family="Times,serif" font-size="10.00">hero </text>
<text text-anchor="start" x="31.5" y="-49" font-family="Times,serif" font-weight="bold" font-size="10.00">находится в</text>
<text text-anchor="start" x="86.5" y="-49" font-family="Times,serif" font-size="10.00"> place_4</text>
<polygon fill="#ffffff" stroke="none" points="9.5,-31 9.5,-44 266.5,-44 266.5,-31 9.5,-31"/>
<text text-anchor="start" x="10.5" y="-36" font-family="Times,serif" font-weight="bold" font-size="10.00">выдать награду </text>
<text text-anchor="start" x="85.5" y="-36" font-family="Times,serif" font-size="10.00">  hero </text>
<text text-anchor="start" x="110.5" y="-36" font-family="Times,serif" font-weight="bold" font-size="10.00">типа </text>
<text text-anchor="start" x="134.5" y="-36" font-family="Times,serif" font-size="10.00"> finish_meeting </text>
<text text-anchor="start" x="201.5" y="-36" font-family="Times,serif" font-weight="bold" font-size="10.00">в размере</text>
<text text-anchor="start" x="244.5" y="-36" font-family="Times,serif" font-size="10.00"> 1.00</text>
<polygon fill="#eeeeee" stroke="none" points="9.5,-18 9.5,-31 266.5,-31 266.5,-18 9.5,-18"/>
<text text-anchor="start" x="10.5" y="-23" font-family="Times,serif" font-weight="bold" font-size="10.00">результаты:</text>
<text text-anchor="start" x="10.5" y="-10" font-family="Times,serif" font-weight="bold" font-size="10.00">person_4</text>
<text text-anchor="start" x="162.5" y="-9" font-family="Times,serif" font-size="10.00">successed</text>
<polygon fill="none" stroke="black" points="8,-4 8,-84 267,-84 267,-4 8,-4"/>
</g>
<!-- #jump([ns&#45;1]finish_successed, [ns&#45;0]finish_meeting)&#45;&gt;[ns&#45;0]finish_meeting -->
<g id="edge2" class="edge"><title>#jump([ns&#45;1]finish_successed, [ns&#45;0]finish_meeting):#jump([ns&#45;1]finish_successed, [ns&#45;0]finish_meeting)&#45;&gt;[ns&#45;0]finish_meeting:[ns&#45;0]finish_meeting</title>
<path fill="none" stroke="black" d="M137.5,-135.282C137.5,-126.992 137.5,-110.826 137.5,-94.4371"/>
<polygon fill="black" stroke="black" points="141,-94.2719 137.5,-84.2719 134,-94.2719 141,-94.2719"/>
</g>
<!-- #jump([ns&#45;0]meeting, [ns&#45;1]start)&#45;&gt;[ns&#45;1]start -->
<g id="edge5" class="edge"><title>#jump([ns&#45;0]meeting, [ns&#45;1]start):#jump([ns&#45;0]meeting, [ns&#45;1]start)&#45;&gt;[ns&#45;1]start:[ns&#45;1]start</title>
<path fill="none" stroke="black" d="M216.5,-422.272C216.5,-412.968 216.5,-394.06 216.5,-378.654"/>
<polygon fill="black" stroke="black" points="220,-378.241 216.5,-368.241 213,-378.241 220,-378.241"/>
</g>
</g>
</svg>
