<?xml version="1.0" encoding="UTF-8" standalone="no"?>
<!DOCTYPE svg PUBLIC "-//W3C//DTD SVG 1.1//EN"
 "http://www.w3.org/Graphics/SVG/1.1/DTD/svg11.dtd">
<!-- Generated by graphviz version 2.34.0 (20130907.0221)
 -->
<!-- Title: quest Pages: 1 -->
<svg width="514pt" height="690pt"
 viewBox="0.00 0.00 514.00 690.00" xmlns="http://www.w3.org/2000/svg" xmlns:xlink="http://www.w3.org/1999/xlink">
<g id="graph0" class="graph" transform="scale(1 1) rotate(0) translate(4 686)">
<title>quest</title>
<polygon fill="white" stroke="white" points="-4,4 -4,-686 510,-686 510,4 -4,4"/>
<g id="clust1" class="cluster"><title>cluster_[ns&#45;0]help_subquest</title>
<polygon fill="#96ffff" stroke="black" points="85,-300 85,-526 469,-526 469,-300 85,-300"/>
<text text-anchor="middle" x="277" y="-510.8" font-family="Times,serif" font-size="14.00">cluster_[ns&#45;0]help_subquest</text>
</g>
<g id="clust2" class="cluster"><title>cluster_[ns&#45;1]event</title>
<polygon fill="#ffffdd" stroke="black" points="93,-308 93,-449 461,-449 461,-308 93,-308"/>
<text text-anchor="middle" x="277" y="-433.8" font-family="Times,serif" font-size="14.00">cluster_[ns&#45;1]event</text>
</g>
<!-- [ns&#45;1]start -->
<g id="node1" class="node"><title>[ns&#45;1]start</title>
<polygon fill="#eeeeee" stroke="none" points="205.5,-461.5 205.5,-490.5 338.5,-490.5 338.5,-461.5 205.5,-461.5"/>
<text text-anchor="start" x="208" y="-480.5" font-family="Times,serif" font-style="italic" font-size="10.00">[ns&#45;1]start</text>
<text text-anchor="start" x="291.5" y="-480.5" font-family="Times,serif" font-weight="bold" font-size="10.00">simple</text>
<text text-anchor="start" x="208" y="-466" font-family="Times,serif" font-size="10.00">Начало: самый простой квест</text>
<polygon fill="none" stroke="black" points="205.5,-461.5 205.5,-490.5 338.5,-490.5 338.5,-461.5 205.5,-461.5"/>
</g>
<!-- [ns&#45;1]finish_failed -->
<g id="node4" class="node"><title>[ns&#45;1]finish_failed</title>
<polygon fill="#eeeeee" stroke="none" points="109,-320 109,-414 251,-414 251,-320 109,-320"/>
<text text-anchor="start" x="111" y="-404.5" font-family="Times,serif" font-style="italic" font-size="10.00">[ns&#45;1]finish_failed</text>
<text text-anchor="start" x="111" y="-390" font-family="Times,serif" font-size="10.00">завершить задание плохо</text>
<polygon fill="#eeeeee" stroke="none" points="110,-373 110,-386 250,-386 250,-373 110,-373"/>
<text text-anchor="start" x="111" y="-378" font-family="Times,serif" font-weight="bold" font-size="10.00">результаты:</text>
<text text-anchor="start" x="111" y="-365" font-family="Times,serif" font-weight="bold" font-size="10.00">person_6</text>
<text text-anchor="start" x="222" y="-364" font-family="Times,serif" font-size="10.00">failed</text>
<text text-anchor="start" x="111" y="-352" font-family="Times,serif" font-weight="bold" font-size="10.00">person_8</text>
<text text-anchor="start" x="222" y="-351" font-family="Times,serif" font-size="10.00">failed</text>
<text text-anchor="start" x="111" y="-339" font-family="Times,serif" font-weight="bold" font-size="10.00">place_6</text>
<text text-anchor="start" x="222" y="-338" font-family="Times,serif" font-size="10.00">failed</text>
<text text-anchor="start" x="111" y="-326" font-family="Times,serif" font-weight="bold" font-size="10.00">place_8</text>
<text text-anchor="start" x="222" y="-325" font-family="Times,serif" font-size="10.00">failed</text>
<polygon fill="none" stroke="black" points="109,-320 109,-414 251,-414 251,-320 109,-320"/>
</g>
<!-- [ns&#45;1]start&#45;&gt;[ns&#45;1]finish_failed -->
<g id="edge3" class="edge"><title>[ns&#45;1]start:[ns&#45;1]start&#45;&gt;[ns&#45;1]finish_failed:[ns&#45;1]finish_failed</title>
<path fill="none" stroke="black" d="M260.348,-461.448C251.619,-451.296 239.056,-436.685 226.449,-422.022"/>
<polygon fill="black" stroke="black" points="229.045,-419.673 219.872,-414.373 223.737,-424.237 229.045,-419.673"/>
</g>
<!-- [ns&#45;1]finish_successed -->
<g id="node5" class="node"><title>[ns&#45;1]finish_successed</title>
<polygon fill="#eeeeee" stroke="none" points="285.5,-320 285.5,-414 444.5,-414 444.5,-320 285.5,-320"/>
<text text-anchor="start" x="288" y="-404.5" font-family="Times,serif" font-style="italic" font-size="10.00">[ns&#45;1]finish_successed</text>
<text text-anchor="start" x="288" y="-390" font-family="Times,serif" font-size="10.00">завершить задание удачно</text>
<polygon fill="#eeeeee" stroke="none" points="287,-373 287,-386 444,-386 444,-373 287,-373"/>
<text text-anchor="start" x="288" y="-378" font-family="Times,serif" font-weight="bold" font-size="10.00">результаты:</text>
<text text-anchor="start" x="288" y="-365" font-family="Times,serif" font-weight="bold" font-size="10.00">person_6</text>
<text text-anchor="start" x="403" y="-364" font-family="Times,serif" font-size="10.00">successed</text>
<text text-anchor="start" x="288" y="-352" font-family="Times,serif" font-weight="bold" font-size="10.00">person_8</text>
<text text-anchor="start" x="403" y="-351" font-family="Times,serif" font-size="10.00">successed</text>
<text text-anchor="start" x="288" y="-339" font-family="Times,serif" font-weight="bold" font-size="10.00">place_6</text>
<text text-anchor="start" x="403" y="-338" font-family="Times,serif" font-size="10.00">successed</text>
<text text-anchor="start" x="288" y="-326" font-family="Times,serif" font-weight="bold" font-size="10.00">place_8</text>
<text text-anchor="start" x="403" y="-325" font-family="Times,serif" font-size="10.00">successed</text>
<polygon fill="none" stroke="black" points="285.5,-320 285.5,-414 444.5,-414 444.5,-320 285.5,-320"/>
</g>
<!-- [ns&#45;1]start&#45;&gt;[ns&#45;1]finish_successed -->
<g id="edge6" class="edge"><title>[ns&#45;1]start:[ns&#45;1]start&#45;&gt;[ns&#45;1]finish_successed:[ns&#45;1]finish_successed</title>
<path fill="none" stroke="black" d="M283.779,-461.448C292.602,-451.296 305.302,-436.685 318.046,-422.022"/>
<polygon fill="black" stroke="black" points="320.776,-424.216 324.695,-414.373 315.493,-419.624 320.776,-424.216"/>
</g>
<!-- [ns&#45;0]start -->
<g id="node2" class="node"><title>[ns&#45;0]start</title>
<polygon fill="#eeeeee" stroke="none" points="204.5,-610 204.5,-678 339.5,-678 339.5,-610 204.5,-610"/>
<text text-anchor="start" x="207" y="-668.5" font-family="Times,serif" font-style="italic" font-size="10.00">[ns&#45;0]start</text>
<text text-anchor="start" x="296.5" y="-668.5" font-family="Times,serif" font-weight="bold" font-size="10.00">help</text>
<text text-anchor="start" x="207" y="-654" font-family="Times,serif" font-size="10.00">Начало: помочь знакомому</text>
<polygon fill="#dddddd" stroke="none" points="206,-637 206,-650 339,-650 339,-637 206,-637"/>
<text text-anchor="start" x="207" y="-642" font-family="Times,serif" font-size="10.00">hero </text>
<text text-anchor="start" x="228" y="-642" font-family="Times,serif" font-weight="bold" font-size="10.00">находится в</text>
<text text-anchor="start" x="283" y="-642" font-family="Times,serif" font-size="10.00"> place_1</text>
<polygon fill="#dddddd" stroke="none" points="206,-624 206,-637 339,-637 339,-624 206,-624"/>
<text text-anchor="start" x="207" y="-629" font-family="Times,serif" font-size="10.00">person_6 </text>
<text text-anchor="start" x="247" y="-629" font-family="Times,serif" font-weight="bold" font-size="10.00">находится в</text>
<text text-anchor="start" x="302" y="-629" font-family="Times,serif" font-size="10.00"> place_6</text>
<polygon fill="#ffffff" stroke="none" points="206,-611 206,-624 339,-624 339,-611 206,-611"/>
<text text-anchor="start" x="207" y="-616" font-family="Times,serif" font-weight="bold" font-size="10.00">сообщение:</text>
<text text-anchor="start" x="259" y="-616" font-family="Times,serif" font-size="10.00"> intro</text>
<polygon fill="none" stroke="black" points="204.5,-610 204.5,-678 339.5,-678 339.5,-610 204.5,-610"/>
</g>
<!-- #jump([ns&#45;0]start, [ns&#45;1]start) -->
<g id="node7" class="node"><title>#jump([ns&#45;0]start, [ns&#45;1]start)</title>
<polygon fill="#eeeeee" stroke="none" points="219,-545 219,-559 326,-559 326,-545 219,-545"/>
<text text-anchor="start" x="220" y="-550.5" font-family="Times,serif" font-weight="bold" font-size="10.00">сообщение:</text>
<text text-anchor="start" x="272" y="-550.5" font-family="Times,serif" font-size="10.00"> before_help</text>
</g>
<!-- [ns&#45;0]start&#45;&gt;#jump([ns&#45;0]start, [ns&#45;1]start) -->
<g id="edge1" class="edge"><title>[ns&#45;0]start:[ns&#45;0]start&#45;&gt;#jump([ns&#45;0]start, [ns&#45;1]start):#jump([ns&#45;0]start, [ns&#45;1]start)</title>
<path fill="none" stroke="black" d="M272,-609.998C272,-591.336 272,-569.703 272,-559.268"/>
</g>
<!-- [ns&#45;0]finish_failed -->
<g id="node3" class="node"><title>[ns&#45;0]finish_failed</title>
<polygon fill="#eeeeee" stroke="none" points="7.5,-168.5 7.5,-275.5 258.5,-275.5 258.5,-168.5 7.5,-168.5"/>
<text text-anchor="start" x="10" y="-265.5" font-family="Times,serif" font-style="italic" font-size="10.00">[ns&#45;0]finish_failed</text>
<text text-anchor="start" x="10" y="-251" font-family="Times,serif" font-size="10.00">не удалось помочь</text>
<polygon fill="#ffffff" stroke="none" points="9,-234 9,-247 258,-247 258,-234 9,-234"/>
<text text-anchor="start" x="10" y="-239" font-family="Times,serif" font-weight="bold" font-size="10.00">выдать награду </text>
<text text-anchor="start" x="85" y="-239" font-family="Times,serif" font-size="10.00">  hero </text>
<text text-anchor="start" x="110" y="-239" font-family="Times,serif" font-weight="bold" font-size="10.00">типа </text>
<text text-anchor="start" x="134" y="-239" font-family="Times,serif" font-size="10.00"> finish_failed </text>
<text text-anchor="start" x="191" y="-239" font-family="Times,serif" font-weight="bold" font-size="10.00">в размере</text>
<text text-anchor="start" x="234" y="-239" font-family="Times,serif" font-size="10.00"> 1.00</text>
<polygon fill="#ffffff" stroke="none" points="9,-221 9,-234 258,-234 258,-221 9,-221"/>
<text text-anchor="start" x="10" y="-226" font-family="Times,serif" font-weight="bold" font-size="10.00">увеличить влияние </text>
<text text-anchor="start" x="98" y="-226" font-family="Times,serif" font-size="10.00">  person_1 </text>
<text text-anchor="start" x="143" y="-226" font-family="Times,serif" font-weight="bold" font-size="10.00">на </text>
<text text-anchor="start" x="156" y="-226" font-family="Times,serif" font-size="10.00"> &#45;1.00</text>
<polygon fill="#ffffff" stroke="none" points="9,-208 9,-221 258,-221 258,-208 9,-208"/>
<text text-anchor="start" x="10" y="-213" font-family="Times,serif" font-weight="bold" font-size="10.00">увеличить влияние </text>
<text text-anchor="start" x="98" y="-213" font-family="Times,serif" font-size="10.00">  person_6 </text>
<text text-anchor="start" x="143" y="-213" font-family="Times,serif" font-weight="bold" font-size="10.00">на </text>
<text text-anchor="start" x="156" y="-213" font-family="Times,serif" font-size="10.00"> &#45;1.00</text>
<polygon fill="#eeeeee" stroke="none" points="9,-195 9,-208 258,-208 258,-195 9,-195"/>
<text text-anchor="start" x="10" y="-200" font-family="Times,serif" font-weight="bold" font-size="10.00">результаты:</text>
<text text-anchor="start" x="10" y="-187" font-family="Times,serif" font-weight="bold" font-size="10.00">person_1</text>
<text text-anchor="start" x="135" y="-186" font-family="Times,serif" font-size="10.00">failed</text>
<text text-anchor="start" x="10" y="-174" font-family="Times,serif" font-weight="bold" font-size="10.00">person_6</text>
<text text-anchor="start" x="135" y="-173" font-family="Times,serif" font-size="10.00">failed</text>
<polygon fill="none" stroke="black" points="7.5,-168.5 7.5,-275.5 258.5,-275.5 258.5,-168.5 7.5,-168.5"/>
</g>
<!-- [ns&#45;1]finish_failed&#45;&gt;[ns&#45;0]finish_failed -->
<g id="edge7" class="edge"><title>[ns&#45;1]finish_failed:[ns&#45;1]finish_failed&#45;&gt;[ns&#45;0]finish_failed:[ns&#45;0]finish_failed</title>
<path fill="none" stroke="black" d="M164.87,-319.967C161.243,-308.932 157.31,-296.965 153.486,-285.329"/>
<polygon fill="black" stroke="black" points="156.755,-284.066 150.308,-275.659 150.105,-286.252 156.755,-284.066"/>
</g>
<!-- #jump([ns&#45;1]finish_successed, [ns&#45;0]finish_successed) -->
<g id="node8" class="node"><title>#jump([ns&#45;1]finish_successed, [ns&#45;0]finish_successed)</title>
<polygon fill="#eeeeee" stroke="none" points="293,-215 293,-229 437,-229 437,-215 293,-215"/>
<text text-anchor="start" x="294" y="-220.5" font-family="Times,serif" font-weight="bold" font-size="10.00">сообщение:</text>
<text text-anchor="start" x="346" y="-220.5" font-family="Times,serif" font-size="10.00"> after_successed_help</text>
</g>
<!-- [ns&#45;1]finish_successed&#45;&gt;#jump([ns&#45;1]finish_successed, [ns&#45;0]finish_successed) -->
<g id="edge4" class="edge"><title>[ns&#45;1]finish_successed:[ns&#45;1]finish_successed&#45;&gt;#jump([ns&#45;1]finish_successed, [ns&#45;0]finish_successed):#jump([ns&#45;1]finish_successed, [ns&#45;0]finish_successed)</title>
<path fill="none" stroke="black" d="M365,-319.967C365,-286.655 365,-244.859 365,-229.254"/>
</g>
<!-- [ns&#45;0]finish_successed -->
<g id="node6" class="node"><title>[ns&#45;0]finish_successed</title>
<polygon fill="#eeeeee" stroke="none" points="231.5,-4 231.5,-124 498.5,-124 498.5,-4 231.5,-4"/>
<text text-anchor="start" x="234" y="-114.5" font-family="Times,serif" font-style="italic" font-size="10.00">[ns&#45;0]finish_successed</text>
<text text-anchor="start" x="234" y="-100" font-family="Times,serif" font-size="10.00">помощь оказана</text>
<polygon fill="#dddddd" stroke="none" points="233,-83 233,-96 498,-96 498,-83 233,-83"/>
<text text-anchor="start" x="234" y="-88" font-family="Times,serif" font-size="10.00">hero </text>
<text text-anchor="start" x="255" y="-88" font-family="Times,serif" font-weight="bold" font-size="10.00">находится в</text>
<text text-anchor="start" x="310" y="-88" font-family="Times,serif" font-size="10.00"> place_1</text>
<polygon fill="#ffffff" stroke="none" points="233,-70 233,-83 498,-83 498,-70 233,-70"/>
<text text-anchor="start" x="234" y="-75" font-family="Times,serif" font-weight="bold" font-size="10.00">выдать награду </text>
<text text-anchor="start" x="309" y="-75" font-family="Times,serif" font-size="10.00">  hero </text>
<text text-anchor="start" x="334" y="-75" font-family="Times,serif" font-weight="bold" font-size="10.00">типа </text>
<text text-anchor="start" x="358" y="-75" font-family="Times,serif" font-size="10.00"> finish_successed </text>
<text text-anchor="start" x="431" y="-75" font-family="Times,serif" font-weight="bold" font-size="10.00">в размере</text>
<text text-anchor="start" x="474" y="-75" font-family="Times,serif" font-size="10.00"> 1.00</text>
<polygon fill="#ffffff" stroke="none" points="233,-57 233,-70 498,-70 498,-57 233,-57"/>
<text text-anchor="start" x="234" y="-62" font-family="Times,serif" font-weight="bold" font-size="10.00">увеличить влияние </text>
<text text-anchor="start" x="322" y="-62" font-family="Times,serif" font-size="10.00">  person_1 </text>
<text text-anchor="start" x="367" y="-62" font-family="Times,serif" font-weight="bold" font-size="10.00">на </text>
<text text-anchor="start" x="380" y="-62" font-family="Times,serif" font-size="10.00"> 1.00</text>
<polygon fill="#ffffff" stroke="none" points="233,-44 233,-57 498,-57 498,-44 233,-44"/>
<text text-anchor="start" x="234" y="-49" font-family="Times,serif" font-weight="bold" font-size="10.00">увеличить влияние </text>
<text text-anchor="start" x="322" y="-49" font-family="Times,serif" font-size="10.00">  person_6 </text>
<text text-anchor="start" x="367" y="-49" font-family="Times,serif" font-weight="bold" font-size="10.00">на </text>
<text text-anchor="start" x="380" y="-49" font-family="Times,serif" font-size="10.00"> 1.00</text>
<polygon fill="#eeeeee" stroke="none" points="233,-31 233,-44 498,-44 498,-31 233,-31"/>
<text text-anchor="start" x="234" y="-36" font-family="Times,serif" font-weight="bold" font-size="10.00">результаты:</text>
<text text-anchor="start" x="234" y="-23" font-family="Times,serif" font-weight="bold" font-size="10.00">person_1</text>
<text text-anchor="start" x="367" y="-22" font-family="Times,serif" font-size="10.00">successed</text>
<text text-anchor="start" x="234" y="-10" font-family="Times,serif" font-weight="bold" font-size="10.00">person_6</text>
<text text-anchor="start" x="367" y="-9" font-family="Times,serif" font-size="10.00">successed</text>
<polygon fill="none" stroke="black" points="231.5,-4 231.5,-124 498.5,-124 498.5,-4 231.5,-4"/>
</g>
<!-- #jump([ns&#45;0]start, [ns&#45;1]start)&#45;&gt;[ns&#45;1]start -->
<g id="edge2" class="edge"><title>#jump([ns&#45;0]start, [ns&#45;1]start):#jump([ns&#45;0]start, [ns&#45;1]start)&#45;&gt;[ns&#45;1]start:[ns&#45;1]start</title>
<path fill="none" stroke="black" d="M272,-544.944C272,-535.352 272,-516.159 272,-500.611"/>
<polygon fill="black" stroke="black" points="275.5,-500.593 272,-490.593 268.5,-500.593 275.5,-500.593"/>
</g>
<!-- #jump([ns&#45;1]finish_successed, [ns&#45;0]finish_successed)&#45;&gt;[ns&#45;0]finish_successed -->
<g id="edge5" class="edge"><title>#jump([ns&#45;1]finish_successed, [ns&#45;0]finish_successed):#jump([ns&#45;1]finish_successed, [ns&#45;0]finish_successed)&#45;&gt;[ns&#45;0]finish_successed:[ns&#45;0]finish_successed</title>
<path fill="none" stroke="black" d="M365,-214.691C365,-200.907 365,-166.749 365,-134.54"/>
<polygon fill="black" stroke="black" points="368.5,-134.178 365,-124.178 361.5,-134.179 368.5,-134.178"/>
</g>
</g>
</svg>
