<?xml version="1.0" encoding="UTF-8" standalone="no"?>
<!DOCTYPE svg PUBLIC "-//W3C//DTD SVG 1.1//EN"
 "http://www.w3.org/Graphics/SVG/1.1/DTD/svg11.dtd">
<!-- Generated by graphviz version 2.34.0 (20130907.0221)
 -->
<!-- Title: quest Pages: 1 -->
<svg width="514pt" height="690pt"
 viewBox="0.00 0.00 514.00 690.00" xmlns="http://www.w3.org/2000/svg" xmlns:xlink="http://www.w3.org/1999/xlink">
<g id="graph0" class="graph" transform="scale(1 1) rotate(0) translate(4 686)">
<title>quest</title>
<polygon fill="white" stroke="white" points="-4,4 -4,-686 510,-686 510,4 -4,4"/>
<g id="clust1" class="cluster"><title>cluster_[ns&#45;0]help_subquest</title>
<polygon fill="#96ffff" stroke="black" points="39,-300 39,-526 415,-526 415,-300 39,-300"/>
<text text-anchor="middle" x="227" y="-510.8" font-family="Times,serif" font-size="14.00">cluster_[ns&#45;0]help_subquest</text>
</g>
<g id="clust2" class="cluster"><title>cluster_[ns&#45;1]event</title>
<polygon fill="#ffffdd" stroke="black" points="47,-308 47,-449 407,-449 407,-308 47,-308"/>
<text text-anchor="middle" x="227" y="-433.8" font-family="Times,serif" font-size="14.00">cluster_[ns&#45;1]event</text>
</g>
<!-- [ns&#45;1]start -->
<g id="node1" class="node"><title>[ns&#45;1]start</title>
<polygon fill="#eeeeee" stroke="none" points="164.5,-461.5 164.5,-490.5 297.5,-490.5 297.5,-461.5 164.5,-461.5"/>
<text text-anchor="start" x="167" y="-480.5" font-family="Times,serif" font-style="italic" font-size="10.00">[ns&#45;1]start</text>
<text text-anchor="start" x="250.5" y="-480.5" font-family="Times,serif" font-weight="bold" font-size="10.00">simple</text>
<text text-anchor="start" x="167" y="-466" font-family="Times,serif" font-size="10.00">Начало: самый простой квест</text>
<polygon fill="none" stroke="black" points="164.5,-461.5 164.5,-490.5 297.5,-490.5 297.5,-461.5 164.5,-461.5"/>
</g>
<!-- [ns&#45;1]finish_successed -->
<g id="node4" class="node"><title>[ns&#45;1]finish_successed</title>
<polygon fill="#eeeeee" stroke="none" points="63,-320 63,-414 219,-414 219,-320 63,-320"/>
<text text-anchor="start" x="65" y="-404.5" font-family="Times,serif" font-style="italic" font-size="10.00">[ns&#45;1]finish_successed</text>
<text text-anchor="start" x="65" y="-390" font-family="Times,serif" font-size="10.00">завершить задание удачно</text>
<polygon fill="#eeeeee" stroke="none" points="64,-373 64,-386 218,-386 218,-373 64,-373"/>
<text text-anchor="start" x="65" y="-378" font-family="Times,serif" font-weight="bold" font-size="10.00">результаты:</text>
<text text-anchor="start" x="65" y="-365" font-family="Times,serif" font-weight="bold" font-size="10.00">person_7</text>
<text text-anchor="start" x="162" y="-364" font-family="Times,serif" font-size="10.00">successed</text>
<text text-anchor="start" x="65" y="-352" font-family="Times,serif" font-weight="bold" font-size="10.00">person_9</text>
<text text-anchor="start" x="162" y="-351" font-family="Times,serif" font-size="10.00">successed</text>
<text text-anchor="start" x="65" y="-339" font-family="Times,serif" font-weight="bold" font-size="10.00">place_7</text>
<text text-anchor="start" x="162" y="-338" font-family="Times,serif" font-size="10.00">successed</text>
<text text-anchor="start" x="65" y="-326" font-family="Times,serif" font-weight="bold" font-size="10.00">place_9</text>
<text text-anchor="start" x="162" y="-325" font-family="Times,serif" font-size="10.00">successed</text>
<polygon fill="none" stroke="black" points="63,-320 63,-414 219,-414 219,-320 63,-320"/>
</g>
<!-- [ns&#45;1]start&#45;&gt;[ns&#45;1]finish_successed -->
<g id="edge6" class="edge"><title>[ns&#45;1]start:[ns&#45;1]start&#45;&gt;[ns&#45;1]finish_successed:[ns&#45;1]finish_successed</title>
<path fill="none" stroke="black" d="M219.601,-461.448C211.141,-451.389 198.998,-436.953 186.778,-422.426"/>
<polygon fill="black" stroke="black" points="189.12,-419.773 180.005,-414.373 183.763,-424.278 189.12,-419.773"/>
</g>
<!-- [ns&#45;1]finish_failed -->
<g id="node5" class="node"><title>[ns&#45;1]finish_failed</title>
<polygon fill="#eeeeee" stroke="none" points="253,-320 253,-414 391,-414 391,-320 253,-320"/>
<text text-anchor="start" x="255" y="-404.5" font-family="Times,serif" font-style="italic" font-size="10.00">[ns&#45;1]finish_failed</text>
<text text-anchor="start" x="255" y="-390" font-family="Times,serif" font-size="10.00">завершить задание плохо</text>
<polygon fill="#eeeeee" stroke="none" points="254,-373 254,-386 390,-386 390,-373 254,-373"/>
<text text-anchor="start" x="255" y="-378" font-family="Times,serif" font-weight="bold" font-size="10.00">результаты:</text>
<text text-anchor="start" x="255" y="-365" font-family="Times,serif" font-weight="bold" font-size="10.00">person_7</text>
<text text-anchor="start" x="336" y="-364" font-family="Times,serif" font-size="10.00">failed</text>
<text text-anchor="start" x="255" y="-352" font-family="Times,serif" font-weight="bold" font-size="10.00">person_9</text>
<text text-anchor="start" x="336" y="-351" font-family="Times,serif" font-size="10.00">failed</text>
<text text-anchor="start" x="255" y="-339" font-family="Times,serif" font-weight="bold" font-size="10.00">place_7</text>
<text text-anchor="start" x="336" y="-338" font-family="Times,serif" font-size="10.00">failed</text>
<text text-anchor="start" x="255" y="-326" font-family="Times,serif" font-weight="bold" font-size="10.00">place_9</text>
<text text-anchor="start" x="336" y="-325" font-family="Times,serif" font-size="10.00">failed</text>
<polygon fill="none" stroke="black" points="253,-320 253,-414 391,-414 391,-320 253,-320"/>
</g>
<!-- [ns&#45;1]start&#45;&gt;[ns&#45;1]finish_failed -->
<g id="edge3" class="edge"><title>[ns&#45;1]start:[ns&#45;1]start&#45;&gt;[ns&#45;1]finish_failed:[ns&#45;1]finish_failed</title>
<path fill="none" stroke="black" d="M242.525,-461.448C251.159,-451.296 263.585,-436.685 276.056,-422.022"/>
<polygon fill="black" stroke="black" points="278.749,-424.258 282.562,-414.373 273.417,-419.723 278.749,-424.258"/>
</g>
<!-- [ns&#45;0]start -->
<g id="node2" class="node"><title>[ns&#45;0]start</title>
<polygon fill="#eeeeee" stroke="none" points="163.5,-610 163.5,-678 298.5,-678 298.5,-610 163.5,-610"/>
<text text-anchor="start" x="166" y="-668.5" font-family="Times,serif" font-style="italic" font-size="10.00">[ns&#45;0]start</text>
<text text-anchor="start" x="255.5" y="-668.5" font-family="Times,serif" font-weight="bold" font-size="10.00">help</text>
<text text-anchor="start" x="166" y="-654" font-family="Times,serif" font-size="10.00">Начало: помочь знакомому</text>
<polygon fill="#dddddd" stroke="none" points="165,-637 165,-650 298,-650 298,-637 165,-637"/>
<text text-anchor="start" x="166" y="-642" font-family="Times,serif" font-size="10.00">hero </text>
<text text-anchor="start" x="187" y="-642" font-family="Times,serif" font-weight="bold" font-size="10.00">находится в</text>
<text text-anchor="start" x="242" y="-642" font-family="Times,serif" font-size="10.00"> place_1</text>
<polygon fill="#dddddd" stroke="none" points="165,-624 165,-637 298,-637 298,-624 165,-624"/>
<text text-anchor="start" x="166" y="-629" font-family="Times,serif" font-size="10.00">person_9 </text>
<text text-anchor="start" x="206" y="-629" font-family="Times,serif" font-weight="bold" font-size="10.00">находится в</text>
<text text-anchor="start" x="261" y="-629" font-family="Times,serif" font-size="10.00"> place_9</text>
<polygon fill="#ffffff" stroke="none" points="165,-611 165,-624 298,-624 298,-611 165,-611"/>
<text text-anchor="start" x="166" y="-616" font-family="Times,serif" font-weight="bold" font-size="10.00">сообщение:</text>
<text text-anchor="start" x="218" y="-616" font-family="Times,serif" font-size="10.00"> intro</text>
<polygon fill="none" stroke="black" points="163.5,-610 163.5,-678 298.5,-678 298.5,-610 163.5,-610"/>
</g>
<!-- #jump([ns&#45;0]start, [ns&#45;1]start) -->
<g id="node7" class="node"><title>#jump([ns&#45;0]start, [ns&#45;1]start)</title>
<polygon fill="#eeeeee" stroke="none" points="178,-545 178,-559 285,-559 285,-545 178,-545"/>
<text text-anchor="start" x="179" y="-550.5" font-family="Times,serif" font-weight="bold" font-size="10.00">сообщение:</text>
<text text-anchor="start" x="231" y="-550.5" font-family="Times,serif" font-size="10.00"> before_help</text>
</g>
<!-- [ns&#45;0]start&#45;&gt;#jump([ns&#45;0]start, [ns&#45;1]start) -->
<g id="edge1" class="edge"><title>[ns&#45;0]start:[ns&#45;0]start&#45;&gt;#jump([ns&#45;0]start, [ns&#45;1]start):#jump([ns&#45;0]start, [ns&#45;1]start)</title>
<path fill="none" stroke="black" d="M231,-609.998C231,-591.336 231,-569.703 231,-559.268"/>
</g>
<!-- [ns&#45;0]finish_failed -->
<g id="node3" class="node"><title>[ns&#45;0]finish_failed</title>
<polygon fill="#eeeeee" stroke="none" points="247.5,-168.5 247.5,-275.5 498.5,-275.5 498.5,-168.5 247.5,-168.5"/>
<text text-anchor="start" x="250" y="-265.5" font-family="Times,serif" font-style="italic" font-size="10.00">[ns&#45;0]finish_failed</text>
<text text-anchor="start" x="250" y="-251" font-family="Times,serif" font-size="10.00">не удалось помочь</text>
<polygon fill="#ffffff" stroke="none" points="249,-234 249,-247 498,-247 498,-234 249,-234"/>
<text text-anchor="start" x="250" y="-239" font-family="Times,serif" font-weight="bold" font-size="10.00">выдать награду </text>
<text text-anchor="start" x="325" y="-239" font-family="Times,serif" font-size="10.00">  hero </text>
<text text-anchor="start" x="350" y="-239" font-family="Times,serif" font-weight="bold" font-size="10.00">типа </text>
<text text-anchor="start" x="374" y="-239" font-family="Times,serif" font-size="10.00"> finish_failed </text>
<text text-anchor="start" x="431" y="-239" font-family="Times,serif" font-weight="bold" font-size="10.00">в размере</text>
<text text-anchor="start" x="474" y="-239" font-family="Times,serif" font-size="10.00"> 1.00</text>
<polygon fill="#ffffff" stroke="none" points="249,-221 249,-234 498,-234 498,-221 249,-221"/>
<text text-anchor="start" x="250" y="-226" font-family="Times,serif" font-weight="bold" font-size="10.00">увеличить влияние </text>
<text text-anchor="start" x="338" y="-226" font-family="Times,serif" font-size="10.00">  person_1 </text>
<text text-anchor="start" x="383" y="-226" font-family="Times,serif" font-weight="bold" font-size="10.00">на </text>
<text text-anchor="start" x="396" y="-226" font-family="Times,serif" font-size="10.00"> &#45;1.00</text>
<polygon fill="#ffffff" stroke="none" points="249,-208 249,-221 498,-221 498,-208 249,-208"/>
<text text-anchor="start" x="250" y="-213" font-family="Times,serif" font-weight="bold" font-size="10.00">увеличить влияние </text>
<text text-anchor="start" x="338" y="-213" font-family="Times,serif" font-size="10.00">  person_9 </text>
<text text-anchor="start" x="383" y="-213" font-family="Times,serif" font-weight="bold" font-size="10.00">на </text>
<text text-anchor="start" x="396" y="-213" font-family="Times,serif" font-size="10.00"> &#45;1.00</text>
<polygon fill="#eeeeee" stroke="none" points="249,-195 249,-208 498,-208 498,-195 249,-195"/>
<text text-anchor="start" x="250" y="-200" font-family="Times,serif" font-weight="bold" font-size="10.00">результаты:</text>
<text text-anchor="start" x="250" y="-187" font-family="Times,serif" font-weight="bold" font-size="10.00">person_1</text>
<text text-anchor="start" x="375" y="-186" font-family="Times,serif" font-size="10.00">failed</text>
<text text-anchor="start" x="250" y="-174" font-family="Times,serif" font-weight="bold" font-size="10.00">person_9</text>
<text text-anchor="start" x="375" y="-173" font-family="Times,serif" font-size="10.00">failed</text>
<polygon fill="none" stroke="black" points="247.5,-168.5 247.5,-275.5 498.5,-275.5 498.5,-168.5 247.5,-168.5"/>
</g>
<!-- #jump([ns&#45;1]finish_successed, [ns&#45;0]finish_successed) -->
<g id="node8" class="node"><title>#jump([ns&#45;1]finish_successed, [ns&#45;0]finish_successed)</title>
<polygon fill="#eeeeee" stroke="none" points="69,-215 69,-229 213,-229 213,-215 69,-215"/>
<text text-anchor="start" x="70" y="-220.5" font-family="Times,serif" font-weight="bold" font-size="10.00">сообщение:</text>
<text text-anchor="start" x="122" y="-220.5" font-family="Times,serif" font-size="10.00"> after_successed_help</text>
</g>
<!-- [ns&#45;1]finish_successed&#45;&gt;#jump([ns&#45;1]finish_successed, [ns&#45;0]finish_successed) -->
<g id="edge4" class="edge"><title>[ns&#45;1]finish_successed:[ns&#45;1]finish_successed&#45;&gt;#jump([ns&#45;1]finish_successed, [ns&#45;0]finish_successed):#jump([ns&#45;1]finish_successed, [ns&#45;0]finish_successed)</title>
<path fill="none" stroke="black" d="M141,-319.967C141,-286.655 141,-244.859 141,-229.254"/>
</g>
<!-- [ns&#45;1]finish_failed&#45;&gt;[ns&#45;0]finish_failed -->
<g id="edge7" class="edge"><title>[ns&#45;1]finish_failed:[ns&#45;1]finish_failed&#45;&gt;[ns&#45;0]finish_failed:[ns&#45;0]finish_failed</title>
<path fill="none" stroke="black" d="M338.417,-319.967C342.353,-308.932 346.621,-296.965 350.771,-285.329"/>
<polygon fill="black" stroke="black" points="354.157,-286.254 354.219,-275.659 347.564,-283.902 354.157,-286.254"/>
</g>
<!-- [ns&#45;0]finish_successed -->
<g id="node6" class="node"><title>[ns&#45;0]finish_successed</title>
<polygon fill="#eeeeee" stroke="none" points="7.5,-4 7.5,-124 274.5,-124 274.5,-4 7.5,-4"/>
<text text-anchor="start" x="10" y="-114.5" font-family="Times,serif" font-style="italic" font-size="10.00">[ns&#45;0]finish_successed</text>
<text text-anchor="start" x="10" y="-100" font-family="Times,serif" font-size="10.00">помощь оказана</text>
<polygon fill="#dddddd" stroke="none" points="9,-83 9,-96 274,-96 274,-83 9,-83"/>
<text text-anchor="start" x="10" y="-88" font-family="Times,serif" font-size="10.00">hero </text>
<text text-anchor="start" x="31" y="-88" font-family="Times,serif" font-weight="bold" font-size="10.00">находится в</text>
<text text-anchor="start" x="86" y="-88" font-family="Times,serif" font-size="10.00"> place_1</text>
<polygon fill="#ffffff" stroke="none" points="9,-70 9,-83 274,-83 274,-70 9,-70"/>
<text text-anchor="start" x="10" y="-75" font-family="Times,serif" font-weight="bold" font-size="10.00">выдать награду </text>
<text text-anchor="start" x="85" y="-75" font-family="Times,serif" font-size="10.00">  hero </text>
<text text-anchor="start" x="110" y="-75" font-family="Times,serif" font-weight="bold" font-size="10.00">типа </text>
<text text-anchor="start" x="134" y="-75" font-family="Times,serif" font-size="10.00"> finish_successed </text>
<text text-anchor="start" x="207" y="-75" font-family="Times,serif" font-weight="bold" font-size="10.00">в размере</text>
<text text-anchor="start" x="250" y="-75" font-family="Times,serif" font-size="10.00"> 1.00</text>
<polygon fill="#ffffff" stroke="none" points="9,-57 9,-70 274,-70 274,-57 9,-57"/>
<text text-anchor="start" x="10" y="-62" font-family="Times,serif" font-weight="bold" font-size="10.00">увеличить влияние </text>
<text text-anchor="start" x="98" y="-62" font-family="Times,serif" font-size="10.00">  person_1 </text>
<text text-anchor="start" x="143" y="-62" font-family="Times,serif" font-weight="bold" font-size="10.00">на </text>
<text text-anchor="start" x="156" y="-62" font-family="Times,serif" font-size="10.00"> 1.00</text>
<polygon fill="#ffffff" stroke="none" points="9,-44 9,-57 274,-57 274,-44 9,-44"/>
<text text-anchor="start" x="10" y="-49" font-family="Times,serif" font-weight="bold" font-size="10.00">увеличить влияние </text>
<text text-anchor="start" x="98" y="-49" font-family="Times,serif" font-size="10.00">  person_9 </text>
<text text-anchor="start" x="143" y="-49" font-family="Times,serif" font-weight="bold" font-size="10.00">на </text>
<text text-anchor="start" x="156" y="-49" font-family="Times,serif" font-size="10.00"> 1.00</text>
<polygon fill="#eeeeee" stroke="none" points="9,-31 9,-44 274,-44 274,-31 9,-31"/>
<text text-anchor="start" x="10" y="-36" font-family="Times,serif" font-weight="bold" font-size="10.00">результаты:</text>
<text text-anchor="start" x="10" y="-23" font-family="Times,serif" font-weight="bold" font-size="10.00">person_1</text>
<text text-anchor="start" x="143" y="-22" font-family="Times,serif" font-size="10.00">successed</text>
<text text-anchor="start" x="10" y="-10" font-family="Times,serif" font-weight="bold" font-size="10.00">person_9</text>
<text text-anchor="start" x="143" y="-9" font-family="Times,serif" font-size="10.00">successed</text>
<polygon fill="none" stroke="black" points="7.5,-4 7.5,-124 274.5,-124 274.5,-4 7.5,-4"/>
</g>
<!-- #jump([ns&#45;0]start, [ns&#45;1]start)&#45;&gt;[ns&#45;1]start -->
<g id="edge2" class="edge"><title>#jump([ns&#45;0]start, [ns&#45;1]start):#jump([ns&#45;0]start, [ns&#45;1]start)&#45;&gt;[ns&#45;1]start:[ns&#45;1]start</title>
<path fill="none" stroke="black" d="M231,-544.944C231,-535.352 231,-516.159 231,-500.611"/>
<polygon fill="black" stroke="black" points="234.5,-500.593 231,-490.593 227.5,-500.593 234.5,-500.593"/>
</g>
<!-- #jump([ns&#45;1]finish_successed, [ns&#45;0]finish_successed)&#45;&gt;[ns&#45;0]finish_successed -->
<g id="edge5" class="edge"><title>#jump([ns&#45;1]finish_successed, [ns&#45;0]finish_successed):#jump([ns&#45;1]finish_successed, [ns&#45;0]finish_successed)&#45;&gt;[ns&#45;0]finish_successed:[ns&#45;0]finish_successed</title>
<path fill="none" stroke="black" d="M141,-214.691C141,-200.907 141,-166.749 141,-134.54"/>
<polygon fill="black" stroke="black" points="144.5,-134.178 141,-124.178 137.5,-134.179 144.5,-134.178"/>
</g>
</g>
</svg>
