<?xml version="1.0" encoding="UTF-8" standalone="no"?>
<!DOCTYPE svg PUBLIC "-//W3C//DTD SVG 1.1//EN"
 "http://www.w3.org/Graphics/SVG/1.1/DTD/svg11.dtd">
<!-- Generated by graphviz version 2.34.0 (20130907.0221)
 -->
<!-- Title: quest Pages: 1 -->
<svg width="601pt" height="548pt"
 viewBox="0.00 0.00 601.00 548.00" xmlns="http://www.w3.org/2000/svg" xmlns:xlink="http://www.w3.org/1999/xlink">
<g id="graph0" class="graph" transform="scale(1 1) rotate(0) translate(4 544)">
<title>quest</title>
<polygon fill="white" stroke="white" points="-4,4 -4,-544 597,-544 597,4 -4,4"/>
<g id="clust1" class="cluster"><title>cluster_[ns&#45;0]help_subquest</title>
<polygon fill="#96ffff" stroke="black" points="8,-138 8,-456 384,-456 384,-138 8,-138"/>
<text text-anchor="middle" x="196" y="-440.8" font-family="Times,serif" font-size="14.00">cluster_[ns&#45;0]help_subquest</text>
</g>
<g id="clust2" class="cluster"><title>cluster_[ns&#45;1]event</title>
<polygon fill="#ffffdd" stroke="black" points="16,-230 16,-307 376,-307 376,-230 16,-230"/>
<text text-anchor="middle" x="196" y="-291.8" font-family="Times,serif" font-size="14.00">cluster_[ns&#45;1]event</text>
</g>
<!-- [ns&#45;1]start -->
<g id="node1" class="node"><title>[ns&#45;1]start</title>
<polygon fill="#eeeeee" stroke="none" points="133.5,-319.5 133.5,-348.5 266.5,-348.5 266.5,-319.5 133.5,-319.5"/>
<text text-anchor="start" x="136" y="-338.5" font-family="Times,serif" font-style="italic" font-size="10.00">[ns&#45;1]start</text>
<text text-anchor="start" x="219.5" y="-338.5" font-family="Times,serif" font-weight="bold" font-size="10.00">simple</text>
<text text-anchor="start" x="136" y="-324" font-family="Times,serif" font-size="10.00">Начало: самый простой квест</text>
<polygon fill="none" stroke="black" points="133.5,-319.5 133.5,-348.5 266.5,-348.5 266.5,-319.5 133.5,-319.5"/>
</g>
<!-- [ns&#45;1]finish_failed -->
<g id="node4" class="node"><title>[ns&#45;1]finish_failed</title>
<polygon fill="#eeeeee" stroke="none" points="222,-242.5 222,-271.5 360,-271.5 360,-242.5 222,-242.5"/>
<text text-anchor="start" x="224" y="-261.5" font-family="Times,serif" font-style="italic" font-size="10.00">[ns&#45;1]finish_failed</text>
<text text-anchor="start" x="319" y="-261.5" font-family="Times,serif" font-weight="bold" font-size="10.00">failed</text>
<text text-anchor="start" x="224" y="-247" font-family="Times,serif" font-size="10.00">завершить задание плохо</text>
<polygon fill="none" stroke="black" points="222,-242.5 222,-271.5 360,-271.5 360,-242.5 222,-242.5"/>
</g>
<!-- [ns&#45;1]start&#45;&gt;[ns&#45;1]finish_failed -->
<g id="edge3" class="edge"><title>[ns&#45;1]start:[ns&#45;1]start&#45;&gt;[ns&#45;1]finish_failed:[ns&#45;1]finish_failed</title>
<path fill="none" stroke="black" d="M216.691,-319.244C230.673,-307.72 250.821,-291.115 266.611,-278.101"/>
<polygon fill="black" stroke="black" points="268.924,-280.73 274.415,-271.669 264.472,-275.328 268.924,-280.73"/>
</g>
<!-- [ns&#45;1]finish_successed -->
<g id="node5" class="node"><title>[ns&#45;1]finish_successed</title>
<polygon fill="#eeeeee" stroke="none" points="32,-242.5 32,-271.5 188,-271.5 188,-242.5 32,-242.5"/>
<text text-anchor="start" x="34" y="-261.5" font-family="Times,serif" font-style="italic" font-size="10.00">[ns&#45;1]finish_successed</text>
<text text-anchor="start" x="138.5" y="-261.5" font-family="Times,serif" font-weight="bold" font-size="10.00">successed</text>
<text text-anchor="start" x="34" y="-247" font-family="Times,serif" font-size="10.00">завершить задание удачно</text>
<polygon fill="none" stroke="black" points="32,-242.5 32,-271.5 188,-271.5 188,-242.5 32,-242.5"/>
</g>
<!-- [ns&#45;1]start&#45;&gt;[ns&#45;1]finish_successed -->
<g id="edge6" class="edge"><title>[ns&#45;1]start:[ns&#45;1]start&#45;&gt;[ns&#45;1]finish_successed:[ns&#45;1]finish_successed</title>
<path fill="none" stroke="black" d="M183.493,-319.244C169.664,-307.72 149.738,-291.115 134.121,-278.101"/>
<polygon fill="black" stroke="black" points="136.326,-275.382 126.403,-271.669 131.844,-280.76 136.326,-275.382"/>
</g>
<!-- [ns&#45;0]start -->
<g id="node2" class="node"><title>[ns&#45;0]start</title>
<polygon fill="#eeeeee" stroke="none" points="132.5,-468 132.5,-536 267.5,-536 267.5,-468 132.5,-468"/>
<text text-anchor="start" x="135" y="-526.5" font-family="Times,serif" font-style="italic" font-size="10.00">[ns&#45;0]start</text>
<text text-anchor="start" x="224.5" y="-526.5" font-family="Times,serif" font-weight="bold" font-size="10.00">help</text>
<text text-anchor="start" x="135" y="-512" font-family="Times,serif" font-size="10.00">Начало: помочь знакомому</text>
<polygon fill="#dddddd" stroke="none" points="134,-495 134,-508 267,-508 267,-495 134,-495"/>
<text text-anchor="start" x="135" y="-500" font-family="Times,serif" font-size="10.00">hero </text>
<text text-anchor="start" x="156" y="-500" font-family="Times,serif" font-weight="bold" font-size="10.00">находится в</text>
<text text-anchor="start" x="211" y="-500" font-family="Times,serif" font-size="10.00"> place_1</text>
<polygon fill="#dddddd" stroke="none" points="134,-482 134,-495 267,-495 267,-482 134,-482"/>
<text text-anchor="start" x="135" y="-487" font-family="Times,serif" font-size="10.00">person_6 </text>
<text text-anchor="start" x="175" y="-487" font-family="Times,serif" font-weight="bold" font-size="10.00">находится в</text>
<text text-anchor="start" x="230" y="-487" font-family="Times,serif" font-size="10.00"> place_6</text>
<polygon fill="#ffffff" stroke="none" points="134,-469 134,-482 267,-482 267,-469 134,-469"/>
<text text-anchor="start" x="135" y="-474" font-family="Times,serif" font-weight="bold" font-size="10.00">сообщение:</text>
<text text-anchor="start" x="187" y="-474" font-family="Times,serif" font-size="10.00"> intro</text>
<polygon fill="none" stroke="black" points="132.5,-468 132.5,-536 267.5,-536 267.5,-468 132.5,-468"/>
</g>
<!-- #jump([ns&#45;0]start, [ns&#45;1]start) -->
<g id="node7" class="node"><title>#jump([ns&#45;0]start, [ns&#45;1]start)</title>
<polygon fill="#eeeeee" stroke="none" points="147,-400 147,-414 254,-414 254,-400 147,-400"/>
<text text-anchor="start" x="148" y="-405.5" font-family="Times,serif" font-weight="bold" font-size="10.00">сообщение:</text>
<text text-anchor="start" x="200" y="-405.5" font-family="Times,serif" font-size="10.00"> before_help</text>
</g>
<!-- [ns&#45;0]start&#45;&gt;#jump([ns&#45;0]start, [ns&#45;1]start) -->
<g id="edge1" class="edge"><title>[ns&#45;0]start:[ns&#45;0]start&#45;&gt;#jump([ns&#45;0]start, [ns&#45;1]start):#jump([ns&#45;0]start, [ns&#45;1]start)</title>
<path fill="none" stroke="black" d="M200,-467.95C200,-448.319 200,-425.19 200,-414.287"/>
</g>
<!-- [ns&#45;0]finish_failed -->
<g id="node3" class="node"><title>[ns&#45;0]finish_failed</title>
<polygon fill="#eeeeee" stroke="none" points="400.5,-130 400.5,-198 585.5,-198 585.5,-130 400.5,-130"/>
<text text-anchor="start" x="403" y="-188.5" font-family="Times,serif" font-style="italic" font-size="10.00">[ns&#45;0]finish_failed</text>
<text text-anchor="start" x="527" y="-188.5" font-family="Times,serif" font-weight="bold" font-size="10.00">failed</text>
<text text-anchor="start" x="403" y="-174" font-family="Times,serif" font-size="10.00">не удалось помочь</text>
<polygon fill="#ffffff" stroke="none" points="402,-157 402,-170 585,-170 585,-157 402,-157"/>
<text text-anchor="start" x="403" y="-162" font-family="Times,serif" font-weight="bold" font-size="10.00">выдать награду </text>
<text text-anchor="start" x="478" y="-162" font-family="Times,serif" font-size="10.00">  hero </text>
<text text-anchor="start" x="503" y="-162" font-family="Times,serif" font-weight="bold" font-size="10.00">типа </text>
<text text-anchor="start" x="527" y="-162" font-family="Times,serif" font-size="10.00"> finish_failed</text>
<polygon fill="#ffffff" stroke="none" points="402,-144 402,-157 585,-157 585,-144 402,-144"/>
<text text-anchor="start" x="403" y="-149" font-family="Times,serif" font-weight="bold" font-size="10.00">увеличить влияние </text>
<text text-anchor="start" x="491" y="-149" font-family="Times,serif" font-size="10.00">  person_1 </text>
<text text-anchor="start" x="536" y="-149" font-family="Times,serif" font-weight="bold" font-size="10.00">на </text>
<text text-anchor="start" x="549" y="-149" font-family="Times,serif" font-size="10.00"> &#45;1.00</text>
<polygon fill="#ffffff" stroke="none" points="402,-131 402,-144 585,-144 585,-131 402,-131"/>
<text text-anchor="start" x="403" y="-136" font-family="Times,serif" font-weight="bold" font-size="10.00">увеличить влияние </text>
<text text-anchor="start" x="491" y="-136" font-family="Times,serif" font-size="10.00">  person_6 </text>
<text text-anchor="start" x="536" y="-136" font-family="Times,serif" font-weight="bold" font-size="10.00">на </text>
<text text-anchor="start" x="549" y="-136" font-family="Times,serif" font-size="10.00"> &#45;1.00</text>
<polygon fill="none" stroke="black" points="400.5,-130 400.5,-198 585.5,-198 585.5,-130 400.5,-130"/>
</g>
<!-- [ns&#45;1]finish_failed&#45;&gt;[ns&#45;0]finish_failed -->
<g id="edge7" class="edge"><title>[ns&#45;1]finish_failed:[ns&#45;1]finish_failed&#45;&gt;[ns&#45;0]finish_failed:[ns&#45;0]finish_failed</title>
<path fill="none" stroke="black" d="M321.241,-242.376C344.882,-231.726 378.917,-216.394 410.464,-202.182"/>
<polygon fill="black" stroke="black" points="412.041,-205.311 419.721,-198.012 409.166,-198.928 412.041,-205.311"/>
</g>
<!-- #jump([ns&#45;1]finish_successed, [ns&#45;0]finish_successed) -->
<g id="node8" class="node"><title>#jump([ns&#45;1]finish_successed, [ns&#45;0]finish_successed)</title>
<polygon fill="#eeeeee" stroke="none" points="38,-157 38,-171 182,-171 182,-157 38,-157"/>
<text text-anchor="start" x="39" y="-162.5" font-family="Times,serif" font-weight="bold" font-size="10.00">сообщение:</text>
<text text-anchor="start" x="91" y="-162.5" font-family="Times,serif" font-size="10.00"> after_successed_help</text>
</g>
<!-- [ns&#45;1]finish_successed&#45;&gt;#jump([ns&#45;1]finish_successed, [ns&#45;0]finish_successed) -->
<g id="edge4" class="edge"><title>[ns&#45;1]finish_successed:[ns&#45;1]finish_successed&#45;&gt;#jump([ns&#45;1]finish_successed, [ns&#45;0]finish_successed):#jump([ns&#45;1]finish_successed, [ns&#45;0]finish_successed)</title>
<path fill="none" stroke="black" d="M110,-242.179C110,-222.092 110,-185.652 110,-171.172"/>
</g>
<!-- [ns&#45;0]finish_successed -->
<g id="node6" class="node"><title>[ns&#45;0]finish_successed</title>
<polygon fill="#eeeeee" stroke="none" points="9.5,-4.5 9.5,-85.5 210.5,-85.5 210.5,-4.5 9.5,-4.5"/>
<text text-anchor="start" x="12" y="-75.5" font-family="Times,serif" font-style="italic" font-size="10.00">[ns&#45;0]finish_successed</text>
<text text-anchor="start" x="140.5" y="-75.5" font-family="Times,serif" font-weight="bold" font-size="10.00">successed</text>
<text text-anchor="start" x="12" y="-61" font-family="Times,serif" font-size="10.00">помощь оказана</text>
<polygon fill="#dddddd" stroke="none" points="11,-44 11,-57 210,-57 210,-44 11,-44"/>
<text text-anchor="start" x="12" y="-49" font-family="Times,serif" font-size="10.00">hero </text>
<text text-anchor="start" x="33" y="-49" font-family="Times,serif" font-weight="bold" font-size="10.00">находится в</text>
<text text-anchor="start" x="88" y="-49" font-family="Times,serif" font-size="10.00"> place_1</text>
<polygon fill="#ffffff" stroke="none" points="11,-31 11,-44 210,-44 210,-31 11,-31"/>
<text text-anchor="start" x="12" y="-36" font-family="Times,serif" font-weight="bold" font-size="10.00">выдать награду </text>
<text text-anchor="start" x="87" y="-36" font-family="Times,serif" font-size="10.00">  hero </text>
<text text-anchor="start" x="112" y="-36" font-family="Times,serif" font-weight="bold" font-size="10.00">типа </text>
<text text-anchor="start" x="136" y="-36" font-family="Times,serif" font-size="10.00"> finish_successed</text>
<polygon fill="#ffffff" stroke="none" points="11,-18 11,-31 210,-31 210,-18 11,-18"/>
<text text-anchor="start" x="12" y="-23" font-family="Times,serif" font-weight="bold" font-size="10.00">увеличить влияние </text>
<text text-anchor="start" x="100" y="-23" font-family="Times,serif" font-size="10.00">  person_1 </text>
<text text-anchor="start" x="145" y="-23" font-family="Times,serif" font-weight="bold" font-size="10.00">на </text>
<text text-anchor="start" x="158" y="-23" font-family="Times,serif" font-size="10.00"> 1.00</text>
<polygon fill="#ffffff" stroke="none" points="11,-5 11,-18 210,-18 210,-5 11,-5"/>
<text text-anchor="start" x="12" y="-10" font-family="Times,serif" font-weight="bold" font-size="10.00">увеличить влияние </text>
<text text-anchor="start" x="100" y="-10" font-family="Times,serif" font-size="10.00">  person_6 </text>
<text text-anchor="start" x="145" y="-10" font-family="Times,serif" font-weight="bold" font-size="10.00">на </text>
<text text-anchor="start" x="158" y="-10" font-family="Times,serif" font-size="10.00"> 1.00</text>
<polygon fill="none" stroke="black" points="9.5,-4.5 9.5,-85.5 210.5,-85.5 210.5,-4.5 9.5,-4.5"/>
</g>
<!-- #jump([ns&#45;0]start, [ns&#45;1]start)&#45;&gt;[ns&#45;1]start -->
<g id="edge2" class="edge"><title>#jump([ns&#45;0]start, [ns&#45;1]start):#jump([ns&#45;0]start, [ns&#45;1]start)&#45;&gt;[ns&#45;1]start:[ns&#45;1]start</title>
<path fill="none" stroke="black" d="M200,-399.947C200,-390.968 200,-373.618 200,-359.109"/>
<polygon fill="black" stroke="black" points="203.5,-358.753 200,-348.753 196.5,-358.753 203.5,-358.753"/>
</g>
<!-- #jump([ns&#45;1]finish_successed, [ns&#45;0]finish_successed)&#45;&gt;[ns&#45;0]finish_successed -->
<g id="edge5" class="edge"><title>#jump([ns&#45;1]finish_successed, [ns&#45;0]finish_successed):#jump([ns&#45;1]finish_successed, [ns&#45;0]finish_successed)&#45;&gt;[ns&#45;0]finish_successed:[ns&#45;0]finish_successed</title>
<path fill="none" stroke="black" d="M110,-156.71C110,-145.122 110,-119.415 110,-95.6881"/>
<polygon fill="black" stroke="black" points="113.5,-95.6873 110,-85.6874 106.5,-95.6874 113.5,-95.6873"/>
</g>
</g>
</svg>
