<?xml version="1.0" encoding="UTF-8" standalone="no"?>
<!DOCTYPE svg PUBLIC "-//W3C//DTD SVG 1.1//EN"
 "http://www.w3.org/Graphics/SVG/1.1/DTD/svg11.dtd">
<!-- Generated by graphviz version 2.38.0 (20140413.2041)
 -->
<!-- Title: quest Pages: 1 -->
<svg width="511pt" height="631pt"
 viewBox="0.00 0.00 511.00 631.00" xmlns="http://www.w3.org/2000/svg" xmlns:xlink="http://www.w3.org/1999/xlink">
<g id="graph0" class="graph" transform="scale(1 1) rotate(0) translate(4 627)">
<title>quest</title>
<polygon fill="white" stroke="none" points="-4,4 -4,-627 507,-627 507,4 -4,4"/>
<g id="clust1" class="cluster"><title>cluster_[ns&#45;0]help_subquest</title>
<polygon fill="#96ffff" stroke="black" points="122.5,-245 122.5,-468 456.5,-468 456.5,-245 122.5,-245"/>
<text text-anchor="middle" x="289.5" y="-452.8" font-family="Times,serif" font-size="14.00">cluster_[ns&#45;0]help_subquest</text>
</g>
<g id="clust2" class="cluster"><title>cluster_[ns&#45;1]event</title>
<polygon fill="#ffffdd" stroke="black" points="130.5,-253 130.5,-393 448.5,-393 448.5,-253 130.5,-253"/>
<text text-anchor="middle" x="289.5" y="-377.8" font-family="Times,serif" font-size="14.00">cluster_[ns&#45;1]event</text>
</g>
<!-- [ns&#45;1]start -->
<g id="node1" class="node"><title>[ns&#45;1]start</title>
<polygon fill="#eeeeee" stroke="none" points="218,-405 218,-433 349,-433 349,-405 218,-405"/>
<text text-anchor="start" x="220.5" y="-424" font-family="Times,serif" font-style="italic" font-size="10.00">[ns&#45;1]start</text>
<text text-anchor="start" x="306" y="-424" font-family="Times,serif" font-weight="bold" font-size="10.00">simple</text>
<text text-anchor="start" x="220.5" y="-410" font-family="Times,serif" font-size="10.00">Начало: самый простой квест</text>
<polygon fill="none" stroke="black" points="218,-405 218,-433 349,-433 349,-405 218,-405"/>
</g>
<!-- [ns&#45;1]finish_failed -->
<g id="node4" class="node"><title>[ns&#45;1]finish_failed</title>
<polygon fill="#eeeeee" stroke="none" points="146.5,-265 146.5,-358 258.5,-358 258.5,-265 146.5,-265"/>
<text text-anchor="start" x="148.5" y="-348.5" font-family="Times,serif" font-style="italic" font-size="10.00">[ns&#45;1]finish_failed</text>
<text text-anchor="start" x="148.5" y="-334.5" font-family="Times,serif" font-size="10.00">завершить задание плохо</text>
<polygon fill="#eeeeee" stroke="none" points="147.5,-317.5 147.5,-330.5 257.5,-330.5 257.5,-317.5 147.5,-317.5"/>
<text text-anchor="start" x="148.5" y="-322.5" font-family="Times,serif" font-weight="bold" font-size="10.00">результаты:</text>
<text text-anchor="start" x="148.5" y="-309.5" font-family="Times,serif" font-weight="bold" font-size="10.00">person_7</text>
<text text-anchor="start" x="230.5" y="-308.5" font-family="Times,serif" font-size="10.00">failed</text>
<text text-anchor="start" x="148.5" y="-296.5" font-family="Times,serif" font-weight="bold" font-size="10.00">person_9</text>
<text text-anchor="start" x="230.5" y="-295.5" font-family="Times,serif" font-size="10.00">failed</text>
<text text-anchor="start" x="148.5" y="-283.5" font-family="Times,serif" font-weight="bold" font-size="10.00">place_7</text>
<text text-anchor="start" x="230.5" y="-282.5" font-family="Times,serif" font-size="10.00">failed</text>
<text text-anchor="start" x="148.5" y="-270.5" font-family="Times,serif" font-weight="bold" font-size="10.00">place_9</text>
<text text-anchor="start" x="230.5" y="-269.5" font-family="Times,serif" font-size="10.00">failed</text>
<polygon fill="none" stroke="black" points="146.5,-265 146.5,-358 258.5,-358 258.5,-265 146.5,-265"/>
</g>
<!-- [ns&#45;1]start&#45;&gt;[ns&#45;1]finish_failed -->
<g id="edge3" class="edge"><title>[ns&#45;1]start:[ns&#45;1]start&#45;&gt;[ns&#45;1]finish_failed:[ns&#45;1]finish_failed</title>
<path fill="none" stroke="black" d="M273.241,-404.638C265.627,-394.72 254.698,-380.486 243.701,-366.163"/>
<polygon fill="black" stroke="black" points="246.471,-364.023 237.604,-358.223 240.918,-368.286 246.471,-364.023"/>
</g>
<!-- [ns&#45;1]finish_successed -->
<g id="node5" class="node"><title>[ns&#45;1]finish_successed</title>
<polygon fill="#eeeeee" stroke="none" points="292.5,-265 292.5,-358 432.5,-358 432.5,-265 292.5,-265"/>
<text text-anchor="start" x="294.5" y="-348.5" font-family="Times,serif" font-style="italic" font-size="10.00">[ns&#45;1]finish_successed</text>
<text text-anchor="start" x="294.5" y="-334.5" font-family="Times,serif" font-size="10.00">завершить задание удачно</text>
<polygon fill="#eeeeee" stroke="none" points="293.5,-317.5 293.5,-330.5 431.5,-330.5 431.5,-317.5 293.5,-317.5"/>
<text text-anchor="start" x="294.5" y="-322.5" font-family="Times,serif" font-weight="bold" font-size="10.00">результаты:</text>
<text text-anchor="start" x="294.5" y="-309.5" font-family="Times,serif" font-weight="bold" font-size="10.00">person_7</text>
<text text-anchor="start" x="390.5" y="-308.5" font-family="Times,serif" font-size="10.00">successed</text>
<text text-anchor="start" x="294.5" y="-296.5" font-family="Times,serif" font-weight="bold" font-size="10.00">person_9</text>
<text text-anchor="start" x="390.5" y="-295.5" font-family="Times,serif" font-size="10.00">successed</text>
<text text-anchor="start" x="294.5" y="-283.5" font-family="Times,serif" font-weight="bold" font-size="10.00">place_7</text>
<text text-anchor="start" x="390.5" y="-282.5" font-family="Times,serif" font-size="10.00">successed</text>
<text text-anchor="start" x="294.5" y="-270.5" font-family="Times,serif" font-weight="bold" font-size="10.00">place_9</text>
<text text-anchor="start" x="390.5" y="-269.5" font-family="Times,serif" font-size="10.00">successed</text>
<polygon fill="none" stroke="black" points="292.5,-265 292.5,-358 432.5,-358 432.5,-265 292.5,-265"/>
</g>
<!-- [ns&#45;1]start&#45;&gt;[ns&#45;1]finish_successed -->
<g id="edge6" class="edge"><title>[ns&#45;1]start:[ns&#45;1]start&#45;&gt;[ns&#45;1]finish_successed:[ns&#45;1]finish_successed</title>
<path fill="none" stroke="black" d="M293.505,-404.638C300.863,-394.812 311.394,-380.75 322.019,-366.56"/>
<polygon fill="black" stroke="black" points="325.07,-368.325 328.262,-358.223 319.467,-364.129 325.07,-368.325"/>
</g>
<!-- [ns&#45;0]start -->
<g id="node2" class="node"><title>[ns&#45;0]start</title>
<polygon fill="#eeeeee" stroke="none" points="216.5,-552 216.5,-619 350.5,-619 350.5,-552 216.5,-552"/>
<text text-anchor="start" x="218.5" y="-609.5" font-family="Times,serif" font-style="italic" font-size="10.00">[ns&#45;0]start</text>
<text text-anchor="start" x="313" y="-609.5" font-family="Times,serif" font-weight="bold" font-size="10.00">help</text>
<text text-anchor="start" x="218.5" y="-595.5" font-family="Times,serif" font-size="10.00">Начало: помочь знакомому</text>
<polygon fill="#dddddd" stroke="none" points="217.5,-578.5 217.5,-591.5 349.5,-591.5 349.5,-578.5 217.5,-578.5"/>
<text text-anchor="start" x="218.5" y="-583.5" font-family="Times,serif" font-size="10.00">hero </text>
<text text-anchor="start" x="239.5" y="-583.5" font-family="Times,serif" font-weight="bold" font-size="10.00">находится в</text>
<text text-anchor="start" x="294.5" y="-583.5" font-family="Times,serif" font-size="10.00"> place_1</text>
<polygon fill="#dddddd" stroke="none" points="217.5,-565.5 217.5,-578.5 349.5,-578.5 349.5,-565.5 217.5,-565.5"/>
<text text-anchor="start" x="218.5" y="-570.5" font-family="Times,serif" font-size="10.00">person_7 </text>
<text text-anchor="start" x="258.5" y="-570.5" font-family="Times,serif" font-weight="bold" font-size="10.00">находится в</text>
<text text-anchor="start" x="313.5" y="-570.5" font-family="Times,serif" font-size="10.00"> place_7</text>
<polygon fill="#ffffff" stroke="none" points="217.5,-552.5 217.5,-565.5 349.5,-565.5 349.5,-552.5 217.5,-552.5"/>
<text text-anchor="start" x="218.5" y="-557.5" font-family="Times,serif" font-weight="bold" font-size="10.00">сообщение:</text>
<text text-anchor="start" x="270.5" y="-557.5" font-family="Times,serif" font-size="10.00"> intro</text>
<polygon fill="none" stroke="black" points="216.5,-552 216.5,-619 350.5,-619 350.5,-552 216.5,-552"/>
</g>
<!-- #jump([ns&#45;0]start, [ns&#45;1]start) -->
<g id="node7" class="node"><title>#jump([ns&#45;0]start, [ns&#45;1]start)</title>
<polygon fill="#eeeeee" stroke="none" points="230.5,-487 230.5,-500 336.5,-500 336.5,-487 230.5,-487"/>
<text text-anchor="start" x="231.5" y="-492" font-family="Times,serif" font-weight="bold" font-size="10.00">сообщение:</text>
<text text-anchor="start" x="283.5" y="-492" font-family="Times,serif" font-size="10.00"> before_help</text>
</g>
<!-- [ns&#45;0]start&#45;&gt;#jump([ns&#45;0]start, [ns&#45;1]start) -->
<g id="edge1" class="edge"><title>[ns&#45;0]start:[ns&#45;0]start&#45;&gt;#jump([ns&#45;0]start, [ns&#45;1]start):#jump([ns&#45;0]start, [ns&#45;1]start)</title>
<path fill="none" stroke="black" d="M283.5,-551.935C283.5,-532.942 283.5,-510.78 283.5,-500.615"/>
</g>
<!-- [ns&#45;0]finish_failed -->
<g id="node3" class="node"><title>[ns&#45;0]finish_failed</title>
<polygon fill="#eeeeee" stroke="none" points="8,-141 8,-221 257,-221 257,-141 8,-141"/>
<text text-anchor="start" x="10.5" y="-212" font-family="Times,serif" font-style="italic" font-size="10.00">[ns&#45;0]finish_failed</text>
<text text-anchor="start" x="10.5" y="-198" font-family="Times,serif" font-size="10.00">не удалось помочь</text>
<polygon fill="#ffffff" stroke="none" points="9.5,-181 9.5,-194 256.5,-194 256.5,-181 9.5,-181"/>
<text text-anchor="start" x="10.5" y="-186" font-family="Times,serif" font-weight="bold" font-size="10.00">выдать награду </text>
<text text-anchor="start" x="85.5" y="-186" font-family="Times,serif" font-size="10.00">  hero </text>
<text text-anchor="start" x="110.5" y="-186" font-family="Times,serif" font-weight="bold" font-size="10.00">типа </text>
<text text-anchor="start" x="134.5" y="-186" font-family="Times,serif" font-size="10.00"> finish_failed </text>
<text text-anchor="start" x="191.5" y="-186" font-family="Times,serif" font-weight="bold" font-size="10.00">в размере</text>
<text text-anchor="start" x="234.5" y="-186" font-family="Times,serif" font-size="10.00"> 1.00</text>
<polygon fill="#eeeeee" stroke="none" points="9.5,-168 9.5,-181 256.5,-181 256.5,-168 9.5,-168"/>
<text text-anchor="start" x="10.5" y="-173" font-family="Times,serif" font-weight="bold" font-size="10.00">результаты:</text>
<text text-anchor="start" x="10.5" y="-160" font-family="Times,serif" font-weight="bold" font-size="10.00">person_1</text>
<text text-anchor="start" x="160.5" y="-159" font-family="Times,serif" font-size="10.00">failed</text>
<text text-anchor="start" x="10.5" y="-147" font-family="Times,serif" font-weight="bold" font-size="10.00">person_7</text>
<text text-anchor="start" x="160.5" y="-146" font-family="Times,serif" font-size="10.00">failed</text>
<polygon fill="none" stroke="black" points="8,-141 8,-221 257,-221 257,-141 8,-141"/>
</g>
<!-- [ns&#45;1]finish_failed&#45;&gt;[ns&#45;0]finish_failed -->
<g id="edge7" class="edge"><title>[ns&#45;1]finish_failed:[ns&#45;1]finish_failed&#45;&gt;[ns&#45;0]finish_failed:[ns&#45;0]finish_failed</title>
<path fill="none" stroke="black" d="M177.624,-264.834C171.484,-253.563 164.89,-241.458 158.69,-230.077"/>
<polygon fill="black" stroke="black" points="161.676,-228.242 153.819,-221.135 155.529,-231.591 161.676,-228.242"/>
</g>
<!-- #jump([ns&#45;1]finish_successed, [ns&#45;0]finish_successed) -->
<g id="node8" class="node"><title>#jump([ns&#45;1]finish_successed, [ns&#45;0]finish_successed)</title>
<polygon fill="#eeeeee" stroke="none" points="291.5,-174 291.5,-187 434.5,-187 434.5,-174 291.5,-174"/>
<text text-anchor="start" x="292.5" y="-179" font-family="Times,serif" font-weight="bold" font-size="10.00">сообщение:</text>
<text text-anchor="start" x="344.5" y="-179" font-family="Times,serif" font-size="10.00"> after_successed_help</text>
</g>
<!-- [ns&#45;1]finish_successed&#45;&gt;#jump([ns&#45;1]finish_successed, [ns&#45;0]finish_successed) -->
<g id="edge4" class="edge"><title>[ns&#45;1]finish_successed:[ns&#45;1]finish_successed&#45;&gt;#jump([ns&#45;1]finish_successed, [ns&#45;0]finish_successed):#jump([ns&#45;1]finish_successed, [ns&#45;0]finish_successed)</title>
<path fill="none" stroke="black" d="M362.5,-264.834C362.5,-235.69 362.5,-200.965 362.5,-187.612"/>
</g>
<!-- [ns&#45;0]finish_successed -->
<g id="node6" class="node"><title>[ns&#45;0]finish_successed</title>
<polygon fill="#eeeeee" stroke="none" points="230,-4 230,-97 495,-97 495,-4 230,-4"/>
<text text-anchor="start" x="232.5" y="-87.5" font-family="Times,serif" font-style="italic" font-size="10.00">[ns&#45;0]finish_successed</text>
<text text-anchor="start" x="232.5" y="-73.5" font-family="Times,serif" font-size="10.00">помощь оказана</text>
<polygon fill="#dddddd" stroke="none" points="231.5,-56.5 231.5,-69.5 494.5,-69.5 494.5,-56.5 231.5,-56.5"/>
<text text-anchor="start" x="232.5" y="-61.5" font-family="Times,serif" font-size="10.00">hero </text>
<text text-anchor="start" x="253.5" y="-61.5" font-family="Times,serif" font-weight="bold" font-size="10.00">находится в</text>
<text text-anchor="start" x="308.5" y="-61.5" font-family="Times,serif" font-size="10.00"> place_1</text>
<polygon fill="#ffffff" stroke="none" points="231.5,-43.5 231.5,-56.5 494.5,-56.5 494.5,-43.5 231.5,-43.5"/>
<text text-anchor="start" x="232.5" y="-48.5" font-family="Times,serif" font-weight="bold" font-size="10.00">выдать награду </text>
<text text-anchor="start" x="307.5" y="-48.5" font-family="Times,serif" font-size="10.00">  hero </text>
<text text-anchor="start" x="332.5" y="-48.5" font-family="Times,serif" font-weight="bold" font-size="10.00">типа </text>
<text text-anchor="start" x="356.5" y="-48.5" font-family="Times,serif" font-size="10.00"> finish_successed </text>
<text text-anchor="start" x="429.5" y="-48.5" font-family="Times,serif" font-weight="bold" font-size="10.00">в размере</text>
<text text-anchor="start" x="472.5" y="-48.5" font-family="Times,serif" font-size="10.00"> 1.00</text>
<polygon fill="#eeeeee" stroke="none" points="231.5,-30.5 231.5,-43.5 494.5,-43.5 494.5,-30.5 231.5,-30.5"/>
<text text-anchor="start" x="232.5" y="-35.5" font-family="Times,serif" font-weight="bold" font-size="10.00">результаты:</text>
<text text-anchor="start" x="232.5" y="-22.5" font-family="Times,serif" font-weight="bold" font-size="10.00">person_1</text>
<text text-anchor="start" x="390.5" y="-21.5" font-family="Times,serif" font-size="10.00">successed</text>
<text text-anchor="start" x="232.5" y="-9.5" font-family="Times,serif" font-weight="bold" font-size="10.00">person_7</text>
<text text-anchor="start" x="390.5" y="-8.5" font-family="Times,serif" font-size="10.00">successed</text>
<polygon fill="none" stroke="black" points="230,-4 230,-97 495,-97 495,-4 230,-4"/>
</g>
<!-- #jump([ns&#45;0]start, [ns&#45;1]start)&#45;&gt;[ns&#45;1]start -->
<g id="edge2" class="edge"><title>#jump([ns&#45;0]start, [ns&#45;1]start):#jump([ns&#45;0]start, [ns&#45;1]start)&#45;&gt;[ns&#45;1]start:[ns&#45;1]start</title>
<path fill="none" stroke="black" d="M283.5,-487.272C283.5,-477.968 283.5,-459.06 283.5,-443.654"/>
<polygon fill="black" stroke="black" points="287,-443.241 283.5,-433.241 280,-443.241 287,-443.241"/>
</g>
<!-- #jump([ns&#45;1]finish_successed, [ns&#45;0]finish_successed)&#45;&gt;[ns&#45;0]finish_successed -->
<g id="edge5" class="edge"><title>#jump([ns&#45;1]finish_successed, [ns&#45;0]finish_successed):#jump([ns&#45;1]finish_successed, [ns&#45;0]finish_successed)&#45;&gt;[ns&#45;0]finish_successed:[ns&#45;0]finish_successed</title>
<path fill="none" stroke="black" d="M362.5,-174.479C362.5,-162.679 362.5,-133.899 362.5,-107.145"/>
<polygon fill="black" stroke="black" points="366,-107.03 362.5,-97.0304 359,-107.03 366,-107.03"/>
</g>
</g>
</svg>
