<?xml version="1.0" encoding="UTF-8" standalone="no"?>
<!DOCTYPE svg PUBLIC "-//W3C//DTD SVG 1.1//EN"
 "http://www.w3.org/Graphics/SVG/1.1/DTD/svg11.dtd">
<!-- Generated by graphviz version 2.34.0 (20130907.0221)
 -->
<!-- Title: quest Pages: 1 -->
<svg width="190pt" height="558pt"
 viewBox="0.00 0.00 190.00 558.00" xmlns="http://www.w3.org/2000/svg" xmlns:xlink="http://www.w3.org/1999/xlink">
<g id="graph0" class="graph" transform="scale(1 1) rotate(0) translate(4 554)">
<title>quest</title>
<polygon fill="white" stroke="white" points="-4,4 -4,-554 186,-554 186,4 -4,4"/>
<!-- [ns&#45;0]drunk_song -->
<g id="node1" class="node"><title>[ns&#45;0]drunk_song</title>
<polygon fill="#ddffdd" stroke="none" points="18.5,-204.5 18.5,-259.5 163.5,-259.5 163.5,-204.5 18.5,-204.5"/>
<text text-anchor="start" x="21" y="-249.5" font-family="Times,serif" font-style="italic" font-size="10.00">[ns&#45;0]drunk_song</text>
<text text-anchor="start" x="21" y="-235" font-family="Times,serif" font-size="10.00">спеть пьяную песню</text>
<polygon fill="#eeffee" stroke="none" points="20,-218 20,-231 163,-231 163,-218 20,-218"/>
<text text-anchor="start" x="21" y="-223" font-family="Times,serif" font-weight="bold" font-size="10.00">сообщение:</text>
<text text-anchor="start" x="73" y="-223" font-family="Times,serif" font-size="10.00"> drunk_song</text>
<polygon fill="#eeffee" stroke="none" points="20,-205 20,-218 163,-218 163,-205 20,-205"/>
<text text-anchor="start" x="21" y="-210" font-family="Times,serif" font-weight="bold" font-size="10.00">заняться </text>
<text text-anchor="start" x="64" y="-210" font-family="Times,serif" font-size="10.00">  drunk_song</text>
<polygon fill="none" stroke="black" points="18.5,-204.5 18.5,-259.5 163.5,-259.5 163.5,-204.5 18.5,-204.5"/>
</g>
<!-- [ns&#45;0]stagger_streets -->
<g id="node5" class="node"><title>[ns&#45;0]stagger_streets</title>
<polygon fill="#ddffdd" stroke="none" points="10.5,-104.5 10.5,-159.5 171.5,-159.5 171.5,-104.5 10.5,-104.5"/>
<text text-anchor="start" x="13" y="-149.5" font-family="Times,serif" font-style="italic" font-size="10.00">[ns&#45;0]stagger_streets</text>
<text text-anchor="start" x="13" y="-135" font-family="Times,serif" font-size="10.00">пошататься по улицам</text>
<polygon fill="#eeffee" stroke="none" points="12,-118 12,-131 171,-131 171,-118 12,-118"/>
<text text-anchor="start" x="13" y="-123" font-family="Times,serif" font-weight="bold" font-size="10.00">сообщение:</text>
<text text-anchor="start" x="65" y="-123" font-family="Times,serif" font-size="10.00"> stagger_streets</text>
<polygon fill="#eeffee" stroke="none" points="12,-105 12,-118 171,-118 171,-105 12,-105"/>
<text text-anchor="start" x="13" y="-110" font-family="Times,serif" font-weight="bold" font-size="10.00">заняться </text>
<text text-anchor="start" x="56" y="-110" font-family="Times,serif" font-size="10.00">  stagger_streets</text>
<polygon fill="none" stroke="black" points="10.5,-104.5 10.5,-159.5 171.5,-159.5 171.5,-104.5 10.5,-104.5"/>
</g>
<!-- [ns&#45;0]drunk_song&#45;&gt;[ns&#45;0]stagger_streets -->
<g id="edge1" class="edge"><title>[ns&#45;0]drunk_song:[ns&#45;0]drunk_song&#45;&gt;[ns&#45;0]stagger_streets:[ns&#45;0]stagger_streets</title>
<path fill="none" stroke="black" d="M91,-204.48C91,-193.803 91,-181.309 91,-169.779"/>
<polygon fill="black" stroke="black" points="94.5001,-169.541 91,-159.541 87.5001,-169.541 94.5001,-169.541"/>
</g>
<!-- [ns&#45;0]start -->
<g id="node2" class="node"><title>[ns&#45;0]start</title>
<polygon fill="#eeeeee" stroke="none" points="17.5,-490.5 17.5,-545.5 164.5,-545.5 164.5,-490.5 17.5,-490.5"/>
<text text-anchor="start" x="20" y="-535.5" font-family="Times,serif" font-style="italic" font-size="10.00">[ns&#45;0]start</text>
<text text-anchor="start" x="105.5" y="-535.5" font-family="Times,serif" font-weight="bold" font-size="10.00">hometown</text>
<text text-anchor="start" x="20" y="-521" font-family="Times,serif" font-size="10.00">Начало: посетить родной города</text>
<polygon fill="#dddddd" stroke="none" points="19,-504 19,-517 164,-517 164,-504 19,-504"/>
<text text-anchor="start" x="20" y="-509" font-family="Times,serif" font-size="10.00">hero </text>
<text text-anchor="start" x="41" y="-509" font-family="Times,serif" font-weight="bold" font-size="10.00">находится в</text>
<text text-anchor="start" x="96" y="-509" font-family="Times,serif" font-size="10.00"> place_1</text>
<polygon fill="#ffffff" stroke="none" points="19,-491 19,-504 164,-504 164,-491 19,-491"/>
<text text-anchor="start" x="20" y="-496" font-family="Times,serif" font-weight="bold" font-size="10.00">сообщение:</text>
<text text-anchor="start" x="72" y="-496" font-family="Times,serif" font-size="10.00"> intro</text>
<polygon fill="none" stroke="black" points="17.5,-490.5 17.5,-545.5 164.5,-545.5 164.5,-490.5 17.5,-490.5"/>
</g>
<!-- [ns&#45;0]arriving -->
<g id="node6" class="node"><title>[ns&#45;0]arriving</title>
<polygon fill="#ddffdd" stroke="none" points="21,-404 21,-446 161,-446 161,-404 21,-404"/>
<text text-anchor="start" x="23" y="-436.5" font-family="Times,serif" font-style="italic" font-size="10.00">[ns&#45;0]arriving</text>
<text text-anchor="start" x="23" y="-422" font-family="Times,serif" font-size="10.00">Прибытие в город</text>
<polygon fill="#cceecc" stroke="none" points="22,-405 22,-418 160,-418 160,-405 22,-405"/>
<text text-anchor="start" x="23" y="-410" font-family="Times,serif" font-size="10.00">hero </text>
<text text-anchor="start" x="44" y="-410" font-family="Times,serif" font-weight="bold" font-size="10.00">находится в</text>
<text text-anchor="start" x="99" y="-410" font-family="Times,serif" font-size="10.00"> place_2</text>
<polygon fill="none" stroke="black" points="21,-404 21,-446 161,-446 161,-404 21,-404"/>
</g>
<!-- [ns&#45;0]start&#45;&gt;[ns&#45;0]arriving -->
<g id="edge4" class="edge"><title>[ns&#45;0]start:[ns&#45;0]start&#45;&gt;[ns&#45;0]arriving:[ns&#45;0]arriving</title>
<path fill="none" stroke="black" d="M91,-490.189C91,-479.542 91,-467.241 91,-456.275"/>
<polygon fill="black" stroke="black" points="94.5001,-456.266 91,-446.266 87.5001,-456.267 94.5001,-456.266"/>
</g>
<!-- [ns&#45;0]chatting -->
<g id="node3" class="node"><title>[ns&#45;0]chatting</title>
<polygon fill="#ddffdd" stroke="none" points="15,-304.5 15,-359.5 167,-359.5 167,-304.5 15,-304.5"/>
<text text-anchor="start" x="17" y="-349.5" font-family="Times,serif" font-style="italic" font-size="10.00">[ns&#45;0]chatting</text>
<text text-anchor="start" x="17" y="-335" font-family="Times,serif" font-size="10.00">пообщаться с друзьями</text>
<polygon fill="#eeffee" stroke="none" points="16,-318 16,-331 166,-331 166,-318 16,-318"/>
<text text-anchor="start" x="17" y="-323" font-family="Times,serif" font-weight="bold" font-size="10.00">сообщение:</text>
<text text-anchor="start" x="69" y="-323" font-family="Times,serif" font-size="10.00"> chatting</text>
<polygon fill="#eeffee" stroke="none" points="16,-305 16,-318 166,-318 166,-305 16,-305"/>
<text text-anchor="start" x="17" y="-310" font-family="Times,serif" font-weight="bold" font-size="10.00">заняться </text>
<text text-anchor="start" x="60" y="-310" font-family="Times,serif" font-size="10.00">  chatting</text>
<polygon fill="none" stroke="black" points="15,-304.5 15,-359.5 167,-359.5 167,-304.5 15,-304.5"/>
</g>
<!-- [ns&#45;0]chatting&#45;&gt;[ns&#45;0]drunk_song -->
<g id="edge5" class="edge"><title>[ns&#45;0]chatting:[ns&#45;0]chatting&#45;&gt;[ns&#45;0]drunk_song:[ns&#45;0]drunk_song</title>
<path fill="none" stroke="black" d="M91,-304.48C91,-293.803 91,-281.309 91,-269.779"/>
<polygon fill="black" stroke="black" points="94.5001,-269.541 91,-259.541 87.5001,-269.541 94.5001,-269.541"/>
</g>
<!-- [ns&#45;0]finish -->
<g id="node4" class="node"><title>[ns&#45;0]finish</title>
<polygon fill="#eeeeee" stroke="none" points="7.5,-4.5 7.5,-59.5 174.5,-59.5 174.5,-4.5 7.5,-4.5"/>
<text text-anchor="start" x="10" y="-49.5" font-family="Times,serif" font-style="italic" font-size="10.00">[ns&#45;0]finish</text>
<text text-anchor="start" x="113" y="-49.5" font-family="Times,serif" font-weight="bold" font-size="10.00">successed</text>
<text text-anchor="start" x="10" y="-35" font-family="Times,serif" font-size="10.00">завершить посещение города</text>
<polygon fill="#ffffff" stroke="none" points="9,-18 9,-31 174,-31 174,-18 9,-18"/>
<text text-anchor="start" x="10" y="-23" font-family="Times,serif" font-weight="bold" font-size="10.00">выдать награду </text>
<text text-anchor="start" x="85" y="-23" font-family="Times,serif" font-size="10.00">  hero </text>
<text text-anchor="start" x="110" y="-23" font-family="Times,serif" font-weight="bold" font-size="10.00">типа </text>
<text text-anchor="start" x="134" y="-23" font-family="Times,serif" font-size="10.00"> finish</text>
<polygon fill="#ffffff" stroke="none" points="9,-5 9,-18 174,-18 174,-5 9,-5"/>
<text text-anchor="start" x="10" y="-10" font-family="Times,serif" font-weight="bold" font-size="10.00">увеличить влияние </text>
<text text-anchor="start" x="98" y="-10" font-family="Times,serif" font-size="10.00">  place_2 </text>
<text text-anchor="start" x="138" y="-10" font-family="Times,serif" font-weight="bold" font-size="10.00">на </text>
<text text-anchor="start" x="151" y="-10" font-family="Times,serif" font-size="10.00"> 1.00</text>
<polygon fill="none" stroke="black" points="7.5,-4.5 7.5,-59.5 174.5,-59.5 174.5,-4.5 7.5,-4.5"/>
</g>
<!-- [ns&#45;0]stagger_streets&#45;&gt;[ns&#45;0]finish -->
<g id="edge2" class="edge"><title>[ns&#45;0]stagger_streets:[ns&#45;0]stagger_streets&#45;&gt;[ns&#45;0]finish:[ns&#45;0]finish</title>
<path fill="none" stroke="black" d="M91,-104.48C91,-93.8034 91,-81.3091 91,-69.7792"/>
<polygon fill="black" stroke="black" points="94.5001,-69.5414 91,-59.5414 87.5001,-69.5414 94.5001,-69.5414"/>
</g>
<!-- [ns&#45;0]arriving&#45;&gt;[ns&#45;0]chatting -->
<g id="edge3" class="edge"><title>[ns&#45;0]arriving:[ns&#45;0]arriving&#45;&gt;[ns&#45;0]chatting:[ns&#45;0]chatting</title>
<path fill="none" stroke="black" d="M91,-403.804C91,-393.862 91,-381.556 91,-370.007"/>
<polygon fill="black" stroke="black" points="94.5001,-369.703 91,-359.703 87.5001,-369.703 94.5001,-369.703"/>
</g>
</g>
</svg>
