<?xml version="1.0" encoding="UTF-8" standalone="no"?>
<!DOCTYPE svg PUBLIC "-//W3C//DTD SVG 1.1//EN"
 "http://www.w3.org/Graphics/SVG/1.1/DTD/svg11.dtd">
<!-- Generated by graphviz version 2.34.0 (20130907.0221)
 -->
<!-- Title: quest Pages: 1 -->
<svg width="244pt" height="584pt"
 viewBox="0.00 0.00 244.00 584.00" xmlns="http://www.w3.org/2000/svg" xmlns:xlink="http://www.w3.org/1999/xlink">
<g id="graph0" class="graph" transform="scale(1 1) rotate(0) translate(4 580)">
<title>quest</title>
<polygon fill="white" stroke="white" points="-4,4 -4,-580 240,-580 240,4 -4,4"/>
<!-- [ns&#45;0]remember_names -->
<g id="node1" class="node"><title>[ns&#45;0]remember_names</title>
<polygon fill="#ddffdd" stroke="none" points="34.5,-230.5 34.5,-285.5 201.5,-285.5 201.5,-230.5 34.5,-230.5"/>
<text text-anchor="start" x="37" y="-275.5" font-family="Times,serif" font-style="italic" font-size="10.00">[ns&#45;0]remember_names</text>
<text text-anchor="start" x="37" y="-261" font-family="Times,serif" font-size="10.00">вспоминать имена друзей</text>
<polygon fill="#eeffee" stroke="none" points="36,-244 36,-257 201,-257 201,-244 36,-244"/>
<text text-anchor="start" x="37" y="-249" font-family="Times,serif" font-weight="bold" font-size="10.00">сообщение:</text>
<text text-anchor="start" x="89" y="-249" font-family="Times,serif" font-size="10.00"> remember_names</text>
<polygon fill="#eeffee" stroke="none" points="36,-231 36,-244 201,-244 201,-231 36,-231"/>
<text text-anchor="start" x="37" y="-236" font-family="Times,serif" font-weight="bold" font-size="10.00">заняться </text>
<text text-anchor="start" x="80" y="-236" font-family="Times,serif" font-size="10.00">  remember_names</text>
<polygon fill="none" stroke="black" points="34.5,-230.5 34.5,-285.5 201.5,-285.5 201.5,-230.5 34.5,-230.5"/>
</g>
<!-- [ns&#45;0]chatting -->
<g id="node3" class="node"><title>[ns&#45;0]chatting</title>
<polygon fill="#ddffdd" stroke="none" points="59.5,-130.5 59.5,-185.5 176.5,-185.5 176.5,-130.5 59.5,-130.5"/>
<text text-anchor="start" x="62" y="-175.5" font-family="Times,serif" font-style="italic" font-size="10.00">[ns&#45;0]chatting</text>
<text text-anchor="start" x="62" y="-161" font-family="Times,serif" font-size="10.00">пообщаться с друзьями</text>
<polygon fill="#eeffee" stroke="none" points="61,-144 61,-157 176,-157 176,-144 61,-144"/>
<text text-anchor="start" x="62" y="-149" font-family="Times,serif" font-weight="bold" font-size="10.00">сообщение:</text>
<text text-anchor="start" x="114" y="-149" font-family="Times,serif" font-size="10.00"> chatting</text>
<polygon fill="#eeffee" stroke="none" points="61,-131 61,-144 176,-144 176,-131 61,-131"/>
<text text-anchor="start" x="62" y="-136" font-family="Times,serif" font-weight="bold" font-size="10.00">заняться </text>
<text text-anchor="start" x="105" y="-136" font-family="Times,serif" font-size="10.00">  chatting</text>
<polygon fill="none" stroke="black" points="59.5,-130.5 59.5,-185.5 176.5,-185.5 176.5,-130.5 59.5,-130.5"/>
</g>
<!-- [ns&#45;0]remember_names&#45;&gt;[ns&#45;0]chatting -->
<g id="edge4" class="edge"><title>[ns&#45;0]remember_names:[ns&#45;0]remember_names&#45;&gt;[ns&#45;0]chatting:[ns&#45;0]chatting</title>
<path fill="none" stroke="black" d="M118,-230.48C118,-219.803 118,-207.309 118,-195.779"/>
<polygon fill="black" stroke="black" points="121.5,-195.541 118,-185.541 114.5,-195.541 121.5,-195.541"/>
</g>
<!-- [ns&#45;0]start -->
<g id="node2" class="node"><title>[ns&#45;0]start</title>
<polygon fill="#eeeeee" stroke="none" points="44.5,-516.5 44.5,-571.5 191.5,-571.5 191.5,-516.5 44.5,-516.5"/>
<text text-anchor="start" x="47" y="-561.5" font-family="Times,serif" font-style="italic" font-size="10.00">[ns&#45;0]start</text>
<text text-anchor="start" x="132.5" y="-561.5" font-family="Times,serif" font-weight="bold" font-size="10.00">hometown</text>
<text text-anchor="start" x="47" y="-547" font-family="Times,serif" font-size="10.00">Начало: посетить родной города</text>
<polygon fill="#dddddd" stroke="none" points="46,-530 46,-543 191,-543 191,-530 46,-530"/>
<text text-anchor="start" x="47" y="-535" font-family="Times,serif" font-size="10.00">hero </text>
<text text-anchor="start" x="68" y="-535" font-family="Times,serif" font-weight="bold" font-size="10.00">находится в</text>
<text text-anchor="start" x="123" y="-535" font-family="Times,serif" font-size="10.00"> place_1</text>
<polygon fill="#ffffff" stroke="none" points="46,-517 46,-530 191,-530 191,-517 46,-517"/>
<text text-anchor="start" x="47" y="-522" font-family="Times,serif" font-weight="bold" font-size="10.00">сообщение:</text>
<text text-anchor="start" x="99" y="-522" font-family="Times,serif" font-size="10.00"> intro</text>
<polygon fill="none" stroke="black" points="44.5,-516.5 44.5,-571.5 191.5,-571.5 191.5,-516.5 44.5,-516.5"/>
</g>
<!-- [ns&#45;0]arriving -->
<g id="node6" class="node"><title>[ns&#45;0]arriving</title>
<polygon fill="#ddffdd" stroke="none" points="57.5,-430 57.5,-472 178.5,-472 178.5,-430 57.5,-430"/>
<text text-anchor="start" x="60" y="-462.5" font-family="Times,serif" font-style="italic" font-size="10.00">[ns&#45;0]arriving</text>
<text text-anchor="start" x="60" y="-448" font-family="Times,serif" font-size="10.00">Прибытие в город</text>
<polygon fill="#cceecc" stroke="none" points="59,-431 59,-444 178,-444 178,-431 59,-431"/>
<text text-anchor="start" x="60" y="-436" font-family="Times,serif" font-size="10.00">hero </text>
<text text-anchor="start" x="81" y="-436" font-family="Times,serif" font-weight="bold" font-size="10.00">находится в</text>
<text text-anchor="start" x="136" y="-436" font-family="Times,serif" font-size="10.00"> place_2</text>
<polygon fill="none" stroke="black" points="57.5,-430 57.5,-472 178.5,-472 178.5,-430 57.5,-430"/>
</g>
<!-- [ns&#45;0]start&#45;&gt;[ns&#45;0]arriving -->
<g id="edge3" class="edge"><title>[ns&#45;0]start:[ns&#45;0]start&#45;&gt;[ns&#45;0]arriving:[ns&#45;0]arriving</title>
<path fill="none" stroke="black" d="M118,-516.189C118,-505.542 118,-493.241 118,-482.275"/>
<polygon fill="black" stroke="black" points="121.5,-482.266 118,-472.266 114.5,-482.267 121.5,-482.266"/>
</g>
<!-- [ns&#45;0]finish -->
<g id="node4" class="node"><title>[ns&#45;0]finish</title>
<polygon fill="#eeeeee" stroke="none" points="7.5,-4.5 7.5,-85.5 228.5,-85.5 228.5,-4.5 7.5,-4.5"/>
<text text-anchor="start" x="10" y="-75.5" font-family="Times,serif" font-style="italic" font-size="10.00">[ns&#45;0]finish</text>
<text text-anchor="start" x="10" y="-61" font-family="Times,serif" font-size="10.00">завершить посещение города</text>
<polygon fill="#ffffff" stroke="none" points="9,-44 9,-57 228,-57 228,-44 9,-44"/>
<text text-anchor="start" x="10" y="-49" font-family="Times,serif" font-weight="bold" font-size="10.00">выдать награду </text>
<text text-anchor="start" x="85" y="-49" font-family="Times,serif" font-size="10.00">  hero </text>
<text text-anchor="start" x="110" y="-49" font-family="Times,serif" font-weight="bold" font-size="10.00">типа </text>
<text text-anchor="start" x="134" y="-49" font-family="Times,serif" font-size="10.00"> finish </text>
<text text-anchor="start" x="162" y="-49" font-family="Times,serif" font-weight="bold" font-size="10.00">в размере</text>
<text text-anchor="start" x="205" y="-49" font-family="Times,serif" font-size="10.00"> 1.00</text>
<polygon fill="#ffffff" stroke="none" points="9,-31 9,-44 228,-44 228,-31 9,-31"/>
<text text-anchor="start" x="10" y="-36" font-family="Times,serif" font-weight="bold" font-size="10.00">увеличить влияние </text>
<text text-anchor="start" x="98" y="-36" font-family="Times,serif" font-size="10.00">  place_2 </text>
<text text-anchor="start" x="138" y="-36" font-family="Times,serif" font-weight="bold" font-size="10.00">на </text>
<text text-anchor="start" x="151" y="-36" font-family="Times,serif" font-size="10.00"> 1.00</text>
<polygon fill="#eeeeee" stroke="none" points="9,-18 9,-31 228,-31 228,-18 9,-18"/>
<text text-anchor="start" x="10" y="-23" font-family="Times,serif" font-weight="bold" font-size="10.00">результаты:</text>
<text text-anchor="start" x="10" y="-10" font-family="Times,serif" font-weight="bold" font-size="10.00">place_2</text>
<text text-anchor="start" x="120" y="-9" font-family="Times,serif" font-size="10.00">successed</text>
<polygon fill="none" stroke="black" points="7.5,-4.5 7.5,-85.5 228.5,-85.5 228.5,-4.5 7.5,-4.5"/>
</g>
<!-- [ns&#45;0]chatting&#45;&gt;[ns&#45;0]finish -->
<g id="edge5" class="edge"><title>[ns&#45;0]chatting:[ns&#45;0]chatting&#45;&gt;[ns&#45;0]finish:[ns&#45;0]finish</title>
<path fill="none" stroke="black" d="M118,-130.413C118,-120.095 118,-107.927 118,-96.0902"/>
<polygon fill="black" stroke="black" points="121.5,-95.8285 118,-85.8286 114.5,-95.8286 121.5,-95.8285"/>
</g>
<!-- [ns&#45;0]search_old_friends -->
<g id="node5" class="node"><title>[ns&#45;0]search_old_friends</title>
<polygon fill="#ddffdd" stroke="none" points="29.5,-330.5 29.5,-385.5 206.5,-385.5 206.5,-330.5 29.5,-330.5"/>
<text text-anchor="start" x="32" y="-375.5" font-family="Times,serif" font-style="italic" font-size="10.00">[ns&#45;0]search_old_friends</text>
<text text-anchor="start" x="32" y="-361" font-family="Times,serif" font-size="10.00">искать старого друга</text>
<polygon fill="#eeffee" stroke="none" points="31,-344 31,-357 206,-357 206,-344 31,-344"/>
<text text-anchor="start" x="32" y="-349" font-family="Times,serif" font-weight="bold" font-size="10.00">сообщение:</text>
<text text-anchor="start" x="84" y="-349" font-family="Times,serif" font-size="10.00"> search_old_friends</text>
<polygon fill="#eeffee" stroke="none" points="31,-331 31,-344 206,-344 206,-331 31,-331"/>
<text text-anchor="start" x="32" y="-336" font-family="Times,serif" font-weight="bold" font-size="10.00">заняться </text>
<text text-anchor="start" x="75" y="-336" font-family="Times,serif" font-size="10.00">  search_old_friends</text>
<polygon fill="none" stroke="black" points="29.5,-330.5 29.5,-385.5 206.5,-385.5 206.5,-330.5 29.5,-330.5"/>
</g>
<!-- [ns&#45;0]search_old_friends&#45;&gt;[ns&#45;0]remember_names -->
<g id="edge1" class="edge"><title>[ns&#45;0]search_old_friends:[ns&#45;0]search_old_friends&#45;&gt;[ns&#45;0]remember_names:[ns&#45;0]remember_names</title>
<path fill="none" stroke="black" d="M118,-330.48C118,-319.803 118,-307.309 118,-295.779"/>
<polygon fill="black" stroke="black" points="121.5,-295.541 118,-285.541 114.5,-295.541 121.5,-295.541"/>
</g>
<!-- [ns&#45;0]arriving&#45;&gt;[ns&#45;0]search_old_friends -->
<g id="edge2" class="edge"><title>[ns&#45;0]arriving:[ns&#45;0]arriving&#45;&gt;[ns&#45;0]search_old_friends:[ns&#45;0]search_old_friends</title>
<path fill="none" stroke="black" d="M118,-429.804C118,-419.862 118,-407.556 118,-396.007"/>
<polygon fill="black" stroke="black" points="121.5,-395.703 118,-385.703 114.5,-395.703 121.5,-395.703"/>
</g>
</g>
</svg>
