<?xml version="1.0" encoding="UTF-8" standalone="no"?>
<!DOCTYPE svg PUBLIC "-//W3C//DTD SVG 1.1//EN"
 "http://www.w3.org/Graphics/SVG/1.1/DTD/svg11.dtd">
<!-- Generated by graphviz version 2.34.0 (20130907.0221)
 -->
<!-- Title: quest Pages: 1 -->
<svg width="1140pt" height="70pt"
 viewBox="0.00 0.00 1140.00 70.00" xmlns="http://www.w3.org/2000/svg" xmlns:xlink="http://www.w3.org/1999/xlink">
<g id="graph0" class="graph" transform="scale(1 1) rotate(0) translate(4 66)">
<title>quest</title>
<polygon fill="white" stroke="white" points="-4,4 -4,-66 1136,-66 1136,4 -4,4"/>
<!-- [ns&#45;0]drunk_song -->
<g id="node1" class="node"><title>[ns&#45;0]drunk_song</title>
<polygon fill="#ddffdd" stroke="none" points="602,-3.5 602,-58.5 734,-58.5 734,-3.5 602,-3.5"/>
<text text-anchor="start" x="604" y="-48.5" font-family="Times,serif" font-style="italic" font-size="10.00">[ns&#45;0]drunk_song</text>
<text text-anchor="start" x="604" y="-34" font-family="Times,serif" font-size="10.00">спеть пьяную песню</text>
<polygon fill="#eeffee" stroke="none" points="603,-17 603,-30 733,-30 733,-17 603,-17"/>
<text text-anchor="start" x="604" y="-22" font-family="Times,serif" font-weight="bold" font-size="10.00">сообщение:</text>
<text text-anchor="start" x="656" y="-22" font-family="Times,serif" font-size="10.00"> drunk_song</text>
<polygon fill="#eeffee" stroke="none" points="603,-4 603,-17 733,-17 733,-4 603,-4"/>
<text text-anchor="start" x="604" y="-9" font-family="Times,serif" font-weight="bold" font-size="10.00">заняться </text>
<text text-anchor="start" x="647" y="-9" font-family="Times,serif" font-size="10.00">  drunk_song</text>
<polygon fill="none" stroke="black" points="602,-3.5 602,-58.5 734,-58.5 734,-3.5 602,-3.5"/>
</g>
<!-- [ns&#45;0]chatting -->
<g id="node4" class="node"><title>[ns&#45;0]chatting</title>
<polygon fill="#ddffdd" stroke="none" points="786.5,-3.5 786.5,-58.5 903.5,-58.5 903.5,-3.5 786.5,-3.5"/>
<text text-anchor="start" x="789" y="-48.5" font-family="Times,serif" font-style="italic" font-size="10.00">[ns&#45;0]chatting</text>
<text text-anchor="start" x="789" y="-34" font-family="Times,serif" font-size="10.00">пообщаться с друзьями</text>
<polygon fill="#eeffee" stroke="none" points="788,-17 788,-30 903,-30 903,-17 788,-17"/>
<text text-anchor="start" x="789" y="-22" font-family="Times,serif" font-weight="bold" font-size="10.00">сообщение:</text>
<text text-anchor="start" x="841" y="-22" font-family="Times,serif" font-size="10.00"> chatting</text>
<polygon fill="#eeffee" stroke="none" points="788,-4 788,-17 903,-17 903,-4 788,-4"/>
<text text-anchor="start" x="789" y="-9" font-family="Times,serif" font-weight="bold" font-size="10.00">заняться </text>
<text text-anchor="start" x="832" y="-9" font-family="Times,serif" font-size="10.00">  chatting</text>
<polygon fill="none" stroke="black" points="786.5,-3.5 786.5,-58.5 903.5,-58.5 903.5,-3.5 786.5,-3.5"/>
</g>
<!-- [ns&#45;0]drunk_song&#45;&gt;[ns&#45;0]chatting -->
<g id="edge1" class="edge"><title>[ns&#45;0]drunk_song:[ns&#45;0]drunk_song&#45;&gt;[ns&#45;0]chatting:[ns&#45;0]chatting</title>
<path fill="none" stroke="black" d="M734.16,-31C734.16,-31 776.488,-31 776.488,-31"/>
<polygon fill="black" stroke="black" points="776.488,-34.5001 786.488,-31 776.488,-27.5001 776.488,-34.5001"/>
</g>
<!-- [ns&#45;0]remember_names -->
<g id="node2" class="node"><title>[ns&#45;0]remember_names</title>
<polygon fill="#ddffdd" stroke="none" points="382.5,-3.5 382.5,-58.5 549.5,-58.5 549.5,-3.5 382.5,-3.5"/>
<text text-anchor="start" x="385" y="-48.5" font-family="Times,serif" font-style="italic" font-size="10.00">[ns&#45;0]remember_names</text>
<text text-anchor="start" x="385" y="-34" font-family="Times,serif" font-size="10.00">вспоминать имена друзей</text>
<polygon fill="#eeffee" stroke="none" points="384,-17 384,-30 549,-30 549,-17 384,-17"/>
<text text-anchor="start" x="385" y="-22" font-family="Times,serif" font-weight="bold" font-size="10.00">сообщение:</text>
<text text-anchor="start" x="437" y="-22" font-family="Times,serif" font-size="10.00"> remember_names</text>
<polygon fill="#eeffee" stroke="none" points="384,-4 384,-17 549,-17 549,-4 384,-4"/>
<text text-anchor="start" x="385" y="-9" font-family="Times,serif" font-weight="bold" font-size="10.00">заняться </text>
<text text-anchor="start" x="428" y="-9" font-family="Times,serif" font-size="10.00">  remember_names</text>
<polygon fill="none" stroke="black" points="382.5,-3.5 382.5,-58.5 549.5,-58.5 549.5,-3.5 382.5,-3.5"/>
</g>
<!-- [ns&#45;0]remember_names&#45;&gt;[ns&#45;0]drunk_song -->
<g id="edge2" class="edge"><title>[ns&#45;0]remember_names:[ns&#45;0]remember_names&#45;&gt;[ns&#45;0]drunk_song:[ns&#45;0]drunk_song</title>
<path fill="none" stroke="black" d="M549.619,-31C549.619,-31 591.7,-31 591.7,-31"/>
<polygon fill="black" stroke="black" points="591.7,-34.5001 601.7,-31 591.7,-27.5001 591.7,-34.5001"/>
</g>
<!-- [ns&#45;0]start -->
<g id="node3" class="node"><title>[ns&#45;0]start</title>
<polygon fill="#eeeeee" stroke="none" points="8.5,-3.5 8.5,-58.5 155.5,-58.5 155.5,-3.5 8.5,-3.5"/>
<text text-anchor="start" x="11" y="-48.5" font-family="Times,serif" font-style="italic" font-size="10.00">[ns&#45;0]start</text>
<text text-anchor="start" x="109" y="-48.5" font-family="Times,serif" font-weight="bold" font-size="10.00">hometown</text>
<text text-anchor="start" x="11" y="-34" font-family="Times,serif" font-size="10.00">Начало: посетить родной города</text>
<polygon fill="#dddddd" stroke="none" points="10,-17 10,-30 155,-30 155,-17 10,-17"/>
<text text-anchor="start" x="11" y="-22" font-family="Times,serif" font-size="10.00">hero </text>
<text text-anchor="start" x="32" y="-22" font-family="Times,serif" font-weight="bold" font-size="10.00">находится в</text>
<text text-anchor="start" x="87" y="-22" font-family="Times,serif" font-size="10.00"> place_1</text>
<polygon fill="#ffffff" stroke="none" points="10,-4 10,-17 155,-17 155,-4 10,-4"/>
<text text-anchor="start" x="11" y="-9" font-family="Times,serif" font-weight="bold" font-size="10.00">сообщение:</text>
<text text-anchor="start" x="63" y="-9" font-family="Times,serif" font-size="10.00"> intro</text>
<polygon fill="none" stroke="black" points="8.5,-3.5 8.5,-58.5 155.5,-58.5 155.5,-3.5 8.5,-3.5"/>
</g>
<!-- [ns&#45;0]arriving -->
<g id="node6" class="node"><title>[ns&#45;0]arriving</title>
<polygon fill="#ddffdd" stroke="none" points="208.5,-10 208.5,-52 329.5,-52 329.5,-10 208.5,-10"/>
<text text-anchor="start" x="211" y="-42.5" font-family="Times,serif" font-style="italic" font-size="10.00">[ns&#45;0]arriving</text>
<text text-anchor="start" x="211" y="-28" font-family="Times,serif" font-size="10.00">Прибытие в город</text>
<polygon fill="#cceecc" stroke="none" points="210,-11 210,-24 329,-24 329,-11 210,-11"/>
<text text-anchor="start" x="211" y="-16" font-family="Times,serif" font-size="10.00">hero </text>
<text text-anchor="start" x="232" y="-16" font-family="Times,serif" font-weight="bold" font-size="10.00">находится в</text>
<text text-anchor="start" x="287" y="-16" font-family="Times,serif" font-size="10.00"> place_2</text>
<polygon fill="none" stroke="black" points="208.5,-10 208.5,-52 329.5,-52 329.5,-10 208.5,-10"/>
</g>
<!-- [ns&#45;0]start&#45;&gt;[ns&#45;0]arriving -->
<g id="edge4" class="edge"><title>[ns&#45;0]start:[ns&#45;0]start&#45;&gt;[ns&#45;0]arriving:[ns&#45;0]arriving</title>
<path fill="none" stroke="black" d="M155.639,-31C155.639,-31 198.385,-31 198.385,-31"/>
<polygon fill="black" stroke="black" points="198.385,-34.5001 208.385,-31 198.385,-27.5001 198.385,-34.5001"/>
</g>
<!-- [ns&#45;0]finish -->
<g id="node5" class="node"><title>[ns&#45;0]finish</title>
<polygon fill="#eeeeee" stroke="none" points="956.5,-3.5 956.5,-58.5 1123.5,-58.5 1123.5,-3.5 956.5,-3.5"/>
<text text-anchor="start" x="959" y="-48.5" font-family="Times,serif" font-style="italic" font-size="10.00">[ns&#45;0]finish</text>
<text text-anchor="start" x="1098" y="-48.5" font-family="Times,serif" font-weight="bold" font-size="10.00">finish</text>
<text text-anchor="start" x="959" y="-34" font-family="Times,serif" font-size="10.00">завершить посещение города</text>
<polygon fill="#ffffff" stroke="none" points="958,-17 958,-30 1123,-30 1123,-17 958,-17"/>
<text text-anchor="start" x="959" y="-22" font-family="Times,serif" font-weight="bold" font-size="10.00">сообщение:</text>
<text text-anchor="start" x="1011" y="-22" font-family="Times,serif" font-size="10.00"> finish</text>
<polygon fill="#ffffff" stroke="none" points="958,-4 958,-17 1123,-17 1123,-4 958,-4"/>
<text text-anchor="start" x="959" y="-9" font-family="Times,serif" font-weight="bold" font-size="10.00">увеличить влияние </text>
<text text-anchor="start" x="1047" y="-9" font-family="Times,serif" font-size="10.00">  place_2 </text>
<text text-anchor="start" x="1087" y="-9" font-family="Times,serif" font-weight="bold" font-size="10.00">на </text>
<text text-anchor="start" x="1100" y="-9" font-family="Times,serif" font-size="10.00"> 1.00</text>
<polygon fill="none" stroke="black" points="956.5,-3.5 956.5,-58.5 1123.5,-58.5 1123.5,-3.5 956.5,-3.5"/>
</g>
<!-- [ns&#45;0]chatting&#45;&gt;[ns&#45;0]finish -->
<g id="edge5" class="edge"><title>[ns&#45;0]chatting:[ns&#45;0]chatting&#45;&gt;[ns&#45;0]finish:[ns&#45;0]finish</title>
<path fill="none" stroke="black" d="M903.506,-31C903.506,-31 946.303,-31 946.303,-31"/>
<polygon fill="black" stroke="black" points="946.304,-34.5001 956.303,-31 946.303,-27.5001 946.304,-34.5001"/>
</g>
<!-- [ns&#45;0]arriving&#45;&gt;[ns&#45;0]remember_names -->
<g id="edge3" class="edge"><title>[ns&#45;0]arriving:[ns&#45;0]arriving&#45;&gt;[ns&#45;0]remember_names:[ns&#45;0]remember_names</title>
<path fill="none" stroke="black" d="M329.714,-31C329.714,-31 372.304,-31 372.304,-31"/>
<polygon fill="black" stroke="black" points="372.304,-34.5001 382.304,-31 372.304,-27.5001 372.304,-34.5001"/>
</g>
</g>
</svg>
