<?xml version="1.0" encoding="UTF-8" standalone="no"?>
<!DOCTYPE svg PUBLIC "-//W3C//DTD SVG 1.1//EN"
 "http://www.w3.org/Graphics/SVG/1.1/DTD/svg11.dtd">
<!-- Generated by graphviz version 2.34.0 (20130907.0221)
 -->
<!-- Title: quest Pages: 1 -->
<svg width="232pt" height="544pt"
 viewBox="0.00 0.00 232.00 544.00" xmlns="http://www.w3.org/2000/svg" xmlns:xlink="http://www.w3.org/1999/xlink">
<g id="graph0" class="graph" transform="scale(1 1) rotate(0) translate(4 540)">
<title>quest</title>
<polygon fill="white" stroke="white" points="-4,4 -4,-540 228,-540 228,4 -4,4"/>
<!-- [ns&#45;0]drunk_song -->
<g id="node1" class="node"><title>[ns&#45;0]drunk_song</title>
<polygon fill="#ddffdd" stroke="none" points="39.5,-290.5 39.5,-345.5 184.5,-345.5 184.5,-290.5 39.5,-290.5"/>
<text text-anchor="start" x="42" y="-335.5" font-family="Times,serif" font-style="italic" font-size="10.00">[ns&#45;0]drunk_song</text>
<text text-anchor="start" x="42" y="-321" font-family="Times,serif" font-size="10.00">спеть пьяную песню</text>
<polygon fill="#eeffee" stroke="none" points="41,-304 41,-317 184,-317 184,-304 41,-304"/>
<text text-anchor="start" x="42" y="-309" font-family="Times,serif" font-weight="bold" font-size="10.00">сообщение:</text>
<text text-anchor="start" x="94" y="-309" font-family="Times,serif" font-size="10.00"> drunk_song</text>
<polygon fill="#eeffee" stroke="none" points="41,-291 41,-304 184,-304 184,-291 41,-291"/>
<text text-anchor="start" x="42" y="-296" font-family="Times,serif" font-weight="bold" font-size="10.00">заняться </text>
<text text-anchor="start" x="85" y="-296" font-family="Times,serif" font-size="10.00">  drunk_song</text>
<polygon fill="none" stroke="black" points="39.5,-290.5 39.5,-345.5 184.5,-345.5 184.5,-290.5 39.5,-290.5"/>
</g>
<!-- [ns&#45;0]chatting -->
<g id="node3" class="node"><title>[ns&#45;0]chatting</title>
<polygon fill="#ddffdd" stroke="none" points="36,-190.5 36,-245.5 188,-245.5 188,-190.5 36,-190.5"/>
<text text-anchor="start" x="38" y="-235.5" font-family="Times,serif" font-style="italic" font-size="10.00">[ns&#45;0]chatting</text>
<text text-anchor="start" x="38" y="-221" font-family="Times,serif" font-size="10.00">пообщаться с друзьями</text>
<polygon fill="#eeffee" stroke="none" points="37,-204 37,-217 187,-217 187,-204 37,-204"/>
<text text-anchor="start" x="38" y="-209" font-family="Times,serif" font-weight="bold" font-size="10.00">сообщение:</text>
<text text-anchor="start" x="90" y="-209" font-family="Times,serif" font-size="10.00"> chatting</text>
<polygon fill="#eeffee" stroke="none" points="37,-191 37,-204 187,-204 187,-191 37,-191"/>
<text text-anchor="start" x="38" y="-196" font-family="Times,serif" font-weight="bold" font-size="10.00">заняться </text>
<text text-anchor="start" x="81" y="-196" font-family="Times,serif" font-size="10.00">  chatting</text>
<polygon fill="none" stroke="black" points="36,-190.5 36,-245.5 188,-245.5 188,-190.5 36,-190.5"/>
</g>
<!-- [ns&#45;0]drunk_song&#45;&gt;[ns&#45;0]chatting -->
<g id="edge1" class="edge"><title>[ns&#45;0]drunk_song:[ns&#45;0]drunk_song&#45;&gt;[ns&#45;0]chatting:[ns&#45;0]chatting</title>
<path fill="none" stroke="black" d="M112,-290.48C112,-279.803 112,-267.309 112,-255.779"/>
<polygon fill="black" stroke="black" points="115.5,-255.541 112,-245.541 108.5,-255.541 115.5,-255.541"/>
</g>
<!-- [ns&#45;0]start -->
<g id="node2" class="node"><title>[ns&#45;0]start</title>
<polygon fill="#eeeeee" stroke="none" points="38.5,-476.5 38.5,-531.5 185.5,-531.5 185.5,-476.5 38.5,-476.5"/>
<text text-anchor="start" x="41" y="-521.5" font-family="Times,serif" font-style="italic" font-size="10.00">[ns&#45;0]start</text>
<text text-anchor="start" x="126.5" y="-521.5" font-family="Times,serif" font-weight="bold" font-size="10.00">hometown</text>
<text text-anchor="start" x="41" y="-507" font-family="Times,serif" font-size="10.00">Начало: посетить родной города</text>
<polygon fill="#dddddd" stroke="none" points="40,-490 40,-503 185,-503 185,-490 40,-490"/>
<text text-anchor="start" x="41" y="-495" font-family="Times,serif" font-size="10.00">hero </text>
<text text-anchor="start" x="62" y="-495" font-family="Times,serif" font-weight="bold" font-size="10.00">находится в</text>
<text text-anchor="start" x="117" y="-495" font-family="Times,serif" font-size="10.00"> place_1</text>
<polygon fill="#ffffff" stroke="none" points="40,-477 40,-490 185,-490 185,-477 40,-477"/>
<text text-anchor="start" x="41" y="-482" font-family="Times,serif" font-weight="bold" font-size="10.00">сообщение:</text>
<text text-anchor="start" x="93" y="-482" font-family="Times,serif" font-size="10.00"> intro</text>
<polygon fill="none" stroke="black" points="38.5,-476.5 38.5,-531.5 185.5,-531.5 185.5,-476.5 38.5,-476.5"/>
</g>
<!-- [ns&#45;0]arriving -->
<g id="node6" class="node"><title>[ns&#45;0]arriving</title>
<polygon fill="#ddffdd" stroke="none" points="42,-390 42,-432 182,-432 182,-390 42,-390"/>
<text text-anchor="start" x="44" y="-422.5" font-family="Times,serif" font-style="italic" font-size="10.00">[ns&#45;0]arriving</text>
<text text-anchor="start" x="44" y="-408" font-family="Times,serif" font-size="10.00">Прибытие в город</text>
<polygon fill="#cceecc" stroke="none" points="43,-391 43,-404 181,-404 181,-391 43,-391"/>
<text text-anchor="start" x="44" y="-396" font-family="Times,serif" font-size="10.00">hero </text>
<text text-anchor="start" x="65" y="-396" font-family="Times,serif" font-weight="bold" font-size="10.00">находится в</text>
<text text-anchor="start" x="120" y="-396" font-family="Times,serif" font-size="10.00"> place_2</text>
<polygon fill="none" stroke="black" points="42,-390 42,-432 182,-432 182,-390 42,-390"/>
</g>
<!-- [ns&#45;0]start&#45;&gt;[ns&#45;0]arriving -->
<g id="edge3" class="edge"><title>[ns&#45;0]start:[ns&#45;0]start&#45;&gt;[ns&#45;0]arriving:[ns&#45;0]arriving</title>
<path fill="none" stroke="black" d="M112,-476.189C112,-465.542 112,-453.241 112,-442.275"/>
<polygon fill="black" stroke="black" points="115.5,-442.266 112,-432.266 108.5,-442.267 115.5,-442.266"/>
</g>
<!-- [ns&#45;0]search_old_friends -->
<g id="node5" class="node"><title>[ns&#45;0]search_old_friends</title>
<polygon fill="#ddffdd" stroke="none" points="23.5,-90.5 23.5,-145.5 200.5,-145.5 200.5,-90.5 23.5,-90.5"/>
<text text-anchor="start" x="26" y="-135.5" font-family="Times,serif" font-style="italic" font-size="10.00">[ns&#45;0]search_old_friends</text>
<text text-anchor="start" x="26" y="-121" font-family="Times,serif" font-size="10.00">искать старого друга</text>
<polygon fill="#eeffee" stroke="none" points="25,-104 25,-117 200,-117 200,-104 25,-104"/>
<text text-anchor="start" x="26" y="-109" font-family="Times,serif" font-weight="bold" font-size="10.00">сообщение:</text>
<text text-anchor="start" x="78" y="-109" font-family="Times,serif" font-size="10.00"> search_old_friends</text>
<polygon fill="#eeffee" stroke="none" points="25,-91 25,-104 200,-104 200,-91 25,-91"/>
<text text-anchor="start" x="26" y="-96" font-family="Times,serif" font-weight="bold" font-size="10.00">заняться </text>
<text text-anchor="start" x="69" y="-96" font-family="Times,serif" font-size="10.00">  search_old_friends</text>
<polygon fill="none" stroke="black" points="23.5,-90.5 23.5,-145.5 200.5,-145.5 200.5,-90.5 23.5,-90.5"/>
</g>
<!-- [ns&#45;0]chatting&#45;&gt;[ns&#45;0]search_old_friends -->
<g id="edge2" class="edge"><title>[ns&#45;0]chatting:[ns&#45;0]chatting&#45;&gt;[ns&#45;0]search_old_friends:[ns&#45;0]search_old_friends</title>
<path fill="none" stroke="black" d="M112,-190.48C112,-179.803 112,-167.309 112,-155.779"/>
<polygon fill="black" stroke="black" points="115.5,-155.541 112,-145.541 108.5,-155.541 115.5,-155.541"/>
</g>
<!-- [ns&#45;0]finish -->
<g id="node4" class="node"><title>[ns&#45;0]finish</title>
<polygon fill="#eeeeee" stroke="none" points="7.5,-4 7.5,-46 216.5,-46 216.5,-4 7.5,-4"/>
<text text-anchor="start" x="10" y="-36.5" font-family="Times,serif" font-style="italic" font-size="10.00">[ns&#45;0]finish</text>
<text text-anchor="start" x="121" y="-36.5" font-family="Times,serif" font-weight="bold" font-size="10.00">finish</text>
<text text-anchor="start" x="175" y="-36.5" font-family="Times,serif" font-weight="bold" font-size="10.00">successed</text>
<text text-anchor="start" x="10" y="-22" font-family="Times,serif" font-size="10.00">завершить посещение города</text>
<polygon fill="#ffffff" stroke="none" points="9,-5 9,-18 174,-18 174,-5 9,-5"/>
<text text-anchor="start" x="10" y="-10" font-family="Times,serif" font-weight="bold" font-size="10.00">увеличить влияние </text>
<text text-anchor="start" x="98" y="-10" font-family="Times,serif" font-size="10.00">  place_2 </text>
<text text-anchor="start" x="138" y="-10" font-family="Times,serif" font-weight="bold" font-size="10.00">на </text>
<text text-anchor="start" x="151" y="-10" font-family="Times,serif" font-size="10.00"> 1.00</text>
<polygon fill="none" stroke="black" points="7.5,-4 7.5,-46 216.5,-46 216.5,-4 7.5,-4"/>
</g>
<!-- [ns&#45;0]search_old_friends&#45;&gt;[ns&#45;0]finish -->
<g id="edge4" class="edge"><title>[ns&#45;0]search_old_friends:[ns&#45;0]search_old_friends&#45;&gt;[ns&#45;0]finish:[ns&#45;0]finish</title>
<path fill="none" stroke="black" d="M112,-90.1892C112,-79.5415 112,-67.2412 112,-56.2746"/>
<polygon fill="black" stroke="black" points="115.5,-56.2665 112,-46.2665 108.5,-56.2665 115.5,-56.2665"/>
</g>
<!-- [ns&#45;0]arriving&#45;&gt;[ns&#45;0]drunk_song -->
<g id="edge5" class="edge"><title>[ns&#45;0]arriving:[ns&#45;0]arriving&#45;&gt;[ns&#45;0]drunk_song:[ns&#45;0]drunk_song</title>
<path fill="none" stroke="black" d="M112,-389.804C112,-379.862 112,-367.556 112,-356.007"/>
<polygon fill="black" stroke="black" points="115.5,-355.703 112,-345.703 108.5,-355.703 115.5,-355.703"/>
</g>
</g>
</svg>
