<?xml version="1.0" encoding="UTF-8" standalone="no"?>
<!DOCTYPE svg PUBLIC "-//W3C//DTD SVG 1.1//EN"
 "http://www.w3.org/Graphics/SVG/1.1/DTD/svg11.dtd">
<!-- Generated by graphviz version 2.34.0 (20130907.0221)
 -->
<!-- Title: quest Pages: 1 -->
<svg width="234pt" height="584pt"
 viewBox="0.00 0.00 234.00 584.00" xmlns="http://www.w3.org/2000/svg" xmlns:xlink="http://www.w3.org/1999/xlink">
<g id="graph0" class="graph" transform="scale(1 1) rotate(0) translate(4 580)">
<title>quest</title>
<polygon fill="white" stroke="white" points="-4,4 -4,-580 230,-580 230,4 -4,4"/>
<!-- [ns&#45;0]remember_names -->
<g id="node1" class="node"><title>[ns&#45;0]remember_names</title>
<polygon fill="#ddffdd" stroke="none" points="24,-130.5 24,-185.5 202,-185.5 202,-130.5 24,-130.5"/>
<text text-anchor="start" x="26" y="-175.5" font-family="Times,serif" font-style="italic" font-size="10.00">[ns&#45;0]remember_names</text>
<text text-anchor="start" x="26" y="-161" font-family="Times,serif" font-size="10.00">вспоминать имена друзей</text>
<polygon fill="#eeffee" stroke="none" points="25,-144 25,-157 201,-157 201,-144 25,-144"/>
<text text-anchor="start" x="26" y="-149" font-family="Times,serif" font-weight="bold" font-size="10.00">сообщение:</text>
<text text-anchor="start" x="78" y="-149" font-family="Times,serif" font-size="10.00"> remember_names</text>
<polygon fill="#eeffee" stroke="none" points="25,-131 25,-144 201,-144 201,-131 25,-131"/>
<text text-anchor="start" x="26" y="-136" font-family="Times,serif" font-weight="bold" font-size="10.00">заняться </text>
<text text-anchor="start" x="69" y="-136" font-family="Times,serif" font-size="10.00">  remember_names</text>
<polygon fill="none" stroke="black" points="24,-130.5 24,-185.5 202,-185.5 202,-130.5 24,-130.5"/>
</g>
<!-- [ns&#45;0]finish -->
<g id="node4" class="node"><title>[ns&#45;0]finish</title>
<polygon fill="#eeeeee" stroke="none" points="7.5,-4.5 7.5,-85.5 218.5,-85.5 218.5,-4.5 7.5,-4.5"/>
<text text-anchor="start" x="10" y="-75.5" font-family="Times,serif" font-style="italic" font-size="10.00">[ns&#45;0]finish</text>
<text text-anchor="start" x="10" y="-61" font-family="Times,serif" font-size="10.00">завершить посещение города</text>
<polygon fill="#ffffff" stroke="none" points="9,-44 9,-57 218,-57 218,-44 9,-44"/>
<text text-anchor="start" x="10" y="-49" font-family="Times,serif" font-weight="bold" font-size="10.00">выдать награду </text>
<text text-anchor="start" x="85" y="-49" font-family="Times,serif" font-size="10.00">  hero </text>
<text text-anchor="start" x="110" y="-49" font-family="Times,serif" font-weight="bold" font-size="10.00">типа </text>
<text text-anchor="start" x="134" y="-49" font-family="Times,serif" font-size="10.00"> finish</text>
<polygon fill="#ffffff" stroke="none" points="9,-31 9,-44 218,-44 218,-31 9,-31"/>
<text text-anchor="start" x="10" y="-36" font-family="Times,serif" font-weight="bold" font-size="10.00">увеличить влияние </text>
<text text-anchor="start" x="98" y="-36" font-family="Times,serif" font-size="10.00">  place_2 </text>
<text text-anchor="start" x="138" y="-36" font-family="Times,serif" font-weight="bold" font-size="10.00">на </text>
<text text-anchor="start" x="151" y="-36" font-family="Times,serif" font-size="10.00"> 1.00</text>
<polygon fill="#eeeeee" stroke="none" points="9,-18 9,-31 218,-31 218,-18 9,-18"/>
<text text-anchor="start" x="10" y="-23" font-family="Times,serif" font-weight="bold" font-size="10.00">результаты:</text>
<text text-anchor="start" x="10" y="-10" font-family="Times,serif" font-weight="bold" font-size="10.00">place_2</text>
<text text-anchor="start" x="137" y="-9" font-family="Times,serif" font-size="10.00">successed</text>
<polygon fill="none" stroke="black" points="7.5,-4.5 7.5,-85.5 218.5,-85.5 218.5,-4.5 7.5,-4.5"/>
</g>
<!-- [ns&#45;0]remember_names&#45;&gt;[ns&#45;0]finish -->
<g id="edge2" class="edge"><title>[ns&#45;0]remember_names:[ns&#45;0]remember_names&#45;&gt;[ns&#45;0]finish:[ns&#45;0]finish</title>
<path fill="none" stroke="black" d="M113,-130.413C113,-120.095 113,-107.927 113,-96.0902"/>
<polygon fill="black" stroke="black" points="116.5,-95.8285 113,-85.8286 109.5,-95.8286 116.5,-95.8285"/>
</g>
<!-- [ns&#45;0]start -->
<g id="node2" class="node"><title>[ns&#45;0]start</title>
<polygon fill="#eeeeee" stroke="none" points="39.5,-516.5 39.5,-571.5 186.5,-571.5 186.5,-516.5 39.5,-516.5"/>
<text text-anchor="start" x="42" y="-561.5" font-family="Times,serif" font-style="italic" font-size="10.00">[ns&#45;0]start</text>
<text text-anchor="start" x="127.5" y="-561.5" font-family="Times,serif" font-weight="bold" font-size="10.00">hometown</text>
<text text-anchor="start" x="42" y="-547" font-family="Times,serif" font-size="10.00">Начало: посетить родной города</text>
<polygon fill="#dddddd" stroke="none" points="41,-530 41,-543 186,-543 186,-530 41,-530"/>
<text text-anchor="start" x="42" y="-535" font-family="Times,serif" font-size="10.00">hero </text>
<text text-anchor="start" x="63" y="-535" font-family="Times,serif" font-weight="bold" font-size="10.00">находится в</text>
<text text-anchor="start" x="118" y="-535" font-family="Times,serif" font-size="10.00"> place_1</text>
<polygon fill="#ffffff" stroke="none" points="41,-517 41,-530 186,-530 186,-517 41,-517"/>
<text text-anchor="start" x="42" y="-522" font-family="Times,serif" font-weight="bold" font-size="10.00">сообщение:</text>
<text text-anchor="start" x="94" y="-522" font-family="Times,serif" font-size="10.00"> intro</text>
<polygon fill="none" stroke="black" points="39.5,-516.5 39.5,-571.5 186.5,-571.5 186.5,-516.5 39.5,-516.5"/>
</g>
<!-- [ns&#45;0]arriving -->
<g id="node6" class="node"><title>[ns&#45;0]arriving</title>
<polygon fill="#ddffdd" stroke="none" points="43,-430 43,-472 183,-472 183,-430 43,-430"/>
<text text-anchor="start" x="45" y="-462.5" font-family="Times,serif" font-style="italic" font-size="10.00">[ns&#45;0]arriving</text>
<text text-anchor="start" x="45" y="-448" font-family="Times,serif" font-size="10.00">Прибытие в город</text>
<polygon fill="#cceecc" stroke="none" points="44,-431 44,-444 182,-444 182,-431 44,-431"/>
<text text-anchor="start" x="45" y="-436" font-family="Times,serif" font-size="10.00">hero </text>
<text text-anchor="start" x="66" y="-436" font-family="Times,serif" font-weight="bold" font-size="10.00">находится в</text>
<text text-anchor="start" x="121" y="-436" font-family="Times,serif" font-size="10.00"> place_2</text>
<polygon fill="none" stroke="black" points="43,-430 43,-472 183,-472 183,-430 43,-430"/>
</g>
<!-- [ns&#45;0]start&#45;&gt;[ns&#45;0]arriving -->
<g id="edge3" class="edge"><title>[ns&#45;0]start:[ns&#45;0]start&#45;&gt;[ns&#45;0]arriving:[ns&#45;0]arriving</title>
<path fill="none" stroke="black" d="M113,-516.189C113,-505.542 113,-493.241 113,-482.275"/>
<polygon fill="black" stroke="black" points="116.5,-482.266 113,-472.266 109.5,-482.267 116.5,-482.266"/>
</g>
<!-- [ns&#45;0]chatting -->
<g id="node3" class="node"><title>[ns&#45;0]chatting</title>
<polygon fill="#ddffdd" stroke="none" points="37,-230.5 37,-285.5 189,-285.5 189,-230.5 37,-230.5"/>
<text text-anchor="start" x="39" y="-275.5" font-family="Times,serif" font-style="italic" font-size="10.00">[ns&#45;0]chatting</text>
<text text-anchor="start" x="39" y="-261" font-family="Times,serif" font-size="10.00">пообщаться с друзьями</text>
<polygon fill="#eeffee" stroke="none" points="38,-244 38,-257 188,-257 188,-244 38,-244"/>
<text text-anchor="start" x="39" y="-249" font-family="Times,serif" font-weight="bold" font-size="10.00">сообщение:</text>
<text text-anchor="start" x="91" y="-249" font-family="Times,serif" font-size="10.00"> chatting</text>
<polygon fill="#eeffee" stroke="none" points="38,-231 38,-244 188,-244 188,-231 38,-231"/>
<text text-anchor="start" x="39" y="-236" font-family="Times,serif" font-weight="bold" font-size="10.00">заняться </text>
<text text-anchor="start" x="82" y="-236" font-family="Times,serif" font-size="10.00">  chatting</text>
<polygon fill="none" stroke="black" points="37,-230.5 37,-285.5 189,-285.5 189,-230.5 37,-230.5"/>
</g>
<!-- [ns&#45;0]chatting&#45;&gt;[ns&#45;0]remember_names -->
<g id="edge4" class="edge"><title>[ns&#45;0]chatting:[ns&#45;0]chatting&#45;&gt;[ns&#45;0]remember_names:[ns&#45;0]remember_names</title>
<path fill="none" stroke="black" d="M113,-230.48C113,-219.803 113,-207.309 113,-195.779"/>
<polygon fill="black" stroke="black" points="116.5,-195.541 113,-185.541 109.5,-195.541 116.5,-195.541"/>
</g>
<!-- [ns&#45;0]stagger_streets -->
<g id="node5" class="node"><title>[ns&#45;0]stagger_streets</title>
<polygon fill="#ddffdd" stroke="none" points="32.5,-330.5 32.5,-385.5 193.5,-385.5 193.5,-330.5 32.5,-330.5"/>
<text text-anchor="start" x="35" y="-375.5" font-family="Times,serif" font-style="italic" font-size="10.00">[ns&#45;0]stagger_streets</text>
<text text-anchor="start" x="35" y="-361" font-family="Times,serif" font-size="10.00">пошататься по улицам</text>
<polygon fill="#eeffee" stroke="none" points="34,-344 34,-357 193,-357 193,-344 34,-344"/>
<text text-anchor="start" x="35" y="-349" font-family="Times,serif" font-weight="bold" font-size="10.00">сообщение:</text>
<text text-anchor="start" x="87" y="-349" font-family="Times,serif" font-size="10.00"> stagger_streets</text>
<polygon fill="#eeffee" stroke="none" points="34,-331 34,-344 193,-344 193,-331 34,-331"/>
<text text-anchor="start" x="35" y="-336" font-family="Times,serif" font-weight="bold" font-size="10.00">заняться </text>
<text text-anchor="start" x="78" y="-336" font-family="Times,serif" font-size="10.00">  stagger_streets</text>
<polygon fill="none" stroke="black" points="32.5,-330.5 32.5,-385.5 193.5,-385.5 193.5,-330.5 32.5,-330.5"/>
</g>
<!-- [ns&#45;0]stagger_streets&#45;&gt;[ns&#45;0]chatting -->
<g id="edge5" class="edge"><title>[ns&#45;0]stagger_streets:[ns&#45;0]stagger_streets&#45;&gt;[ns&#45;0]chatting:[ns&#45;0]chatting</title>
<path fill="none" stroke="black" d="M113,-330.48C113,-319.803 113,-307.309 113,-295.779"/>
<polygon fill="black" stroke="black" points="116.5,-295.541 113,-285.541 109.5,-295.541 116.5,-295.541"/>
</g>
<!-- [ns&#45;0]arriving&#45;&gt;[ns&#45;0]stagger_streets -->
<g id="edge1" class="edge"><title>[ns&#45;0]arriving:[ns&#45;0]arriving&#45;&gt;[ns&#45;0]stagger_streets:[ns&#45;0]stagger_streets</title>
<path fill="none" stroke="black" d="M113,-429.804C113,-419.862 113,-407.556 113,-396.007"/>
<polygon fill="black" stroke="black" points="116.5,-395.703 113,-385.703 109.5,-395.703 116.5,-395.703"/>
</g>
</g>
</svg>
