<?xml version="1.0" encoding="UTF-8" standalone="no"?>
<!DOCTYPE svg PUBLIC "-//W3C//DTD SVG 1.1//EN"
 "http://www.w3.org/Graphics/SVG/1.1/DTD/svg11.dtd">
<!-- Generated by graphviz version 2.34.0 (20130907.0221)
 -->
<!-- Title: quest Pages: 1 -->
<svg width="200pt" height="558pt"
 viewBox="0.00 0.00 200.00 558.00" xmlns="http://www.w3.org/2000/svg" xmlns:xlink="http://www.w3.org/1999/xlink">
<g id="graph0" class="graph" transform="scale(1 1) rotate(0) translate(4 554)">
<title>quest</title>
<polygon fill="white" stroke="white" points="-4,4 -4,-554 196,-554 196,4 -4,4"/>
<!-- [ns&#45;0]start -->
<g id="node1" class="node"><title>[ns&#45;0]start</title>
<polygon fill="#eeeeee" stroke="none" points="22.5,-490.5 22.5,-545.5 169.5,-545.5 169.5,-490.5 22.5,-490.5"/>
<text text-anchor="start" x="25" y="-535.5" font-family="Times,serif" font-style="italic" font-size="10.00">[ns&#45;0]start</text>
<text text-anchor="start" x="110.5" y="-535.5" font-family="Times,serif" font-weight="bold" font-size="10.00">hometown</text>
<text text-anchor="start" x="25" y="-521" font-family="Times,serif" font-size="10.00">Начало: посетить родной города</text>
<polygon fill="#dddddd" stroke="none" points="24,-504 24,-517 169,-517 169,-504 24,-504"/>
<text text-anchor="start" x="25" y="-509" font-family="Times,serif" font-size="10.00">hero </text>
<text text-anchor="start" x="46" y="-509" font-family="Times,serif" font-weight="bold" font-size="10.00">находится в</text>
<text text-anchor="start" x="101" y="-509" font-family="Times,serif" font-size="10.00"> place_1</text>
<polygon fill="#ffffff" stroke="none" points="24,-491 24,-504 169,-504 169,-491 24,-491"/>
<text text-anchor="start" x="25" y="-496" font-family="Times,serif" font-weight="bold" font-size="10.00">сообщение:</text>
<text text-anchor="start" x="77" y="-496" font-family="Times,serif" font-size="10.00"> intro</text>
<polygon fill="none" stroke="black" points="22.5,-490.5 22.5,-545.5 169.5,-545.5 169.5,-490.5 22.5,-490.5"/>
</g>
<!-- [ns&#45;0]arriving -->
<g id="node6" class="node"><title>[ns&#45;0]arriving</title>
<polygon fill="#ddffdd" stroke="none" points="26,-404 26,-446 166,-446 166,-404 26,-404"/>
<text text-anchor="start" x="28" y="-436.5" font-family="Times,serif" font-style="italic" font-size="10.00">[ns&#45;0]arriving</text>
<text text-anchor="start" x="28" y="-422" font-family="Times,serif" font-size="10.00">Прибытие в город</text>
<polygon fill="#cceecc" stroke="none" points="27,-405 27,-418 165,-418 165,-405 27,-405"/>
<text text-anchor="start" x="28" y="-410" font-family="Times,serif" font-size="10.00">hero </text>
<text text-anchor="start" x="49" y="-410" font-family="Times,serif" font-weight="bold" font-size="10.00">находится в</text>
<text text-anchor="start" x="104" y="-410" font-family="Times,serif" font-size="10.00"> place_2</text>
<polygon fill="none" stroke="black" points="26,-404 26,-446 166,-446 166,-404 26,-404"/>
</g>
<!-- [ns&#45;0]start&#45;&gt;[ns&#45;0]arriving -->
<g id="edge4" class="edge"><title>[ns&#45;0]start:[ns&#45;0]start&#45;&gt;[ns&#45;0]arriving:[ns&#45;0]arriving</title>
<path fill="none" stroke="black" d="M96,-490.189C96,-479.542 96,-467.241 96,-456.275"/>
<polygon fill="black" stroke="black" points="99.5001,-456.266 96,-446.266 92.5001,-456.267 99.5001,-456.266"/>
</g>
<!-- [ns&#45;0]chatting -->
<g id="node2" class="node"><title>[ns&#45;0]chatting</title>
<polygon fill="#ddffdd" stroke="none" points="20,-104.5 20,-159.5 172,-159.5 172,-104.5 20,-104.5"/>
<text text-anchor="start" x="22" y="-149.5" font-family="Times,serif" font-style="italic" font-size="10.00">[ns&#45;0]chatting</text>
<text text-anchor="start" x="22" y="-135" font-family="Times,serif" font-size="10.00">пообщаться с друзьями</text>
<polygon fill="#eeffee" stroke="none" points="21,-118 21,-131 171,-131 171,-118 21,-118"/>
<text text-anchor="start" x="22" y="-123" font-family="Times,serif" font-weight="bold" font-size="10.00">сообщение:</text>
<text text-anchor="start" x="74" y="-123" font-family="Times,serif" font-size="10.00"> chatting</text>
<polygon fill="#eeffee" stroke="none" points="21,-105 21,-118 171,-118 171,-105 21,-105"/>
<text text-anchor="start" x="22" y="-110" font-family="Times,serif" font-weight="bold" font-size="10.00">заняться </text>
<text text-anchor="start" x="65" y="-110" font-family="Times,serif" font-size="10.00">  chatting</text>
<polygon fill="none" stroke="black" points="20,-104.5 20,-159.5 172,-159.5 172,-104.5 20,-104.5"/>
</g>
<!-- [ns&#45;0]finish -->
<g id="node3" class="node"><title>[ns&#45;0]finish</title>
<polygon fill="#eeeeee" stroke="none" points="12.5,-4.5 12.5,-59.5 179.5,-59.5 179.5,-4.5 12.5,-4.5"/>
<text text-anchor="start" x="15" y="-49.5" font-family="Times,serif" font-style="italic" font-size="10.00">[ns&#45;0]finish</text>
<text text-anchor="start" x="118" y="-49.5" font-family="Times,serif" font-weight="bold" font-size="10.00">successed</text>
<text text-anchor="start" x="15" y="-35" font-family="Times,serif" font-size="10.00">завершить посещение города</text>
<polygon fill="#ffffff" stroke="none" points="14,-18 14,-31 179,-31 179,-18 14,-18"/>
<text text-anchor="start" x="15" y="-23" font-family="Times,serif" font-weight="bold" font-size="10.00">выдать награду </text>
<text text-anchor="start" x="90" y="-23" font-family="Times,serif" font-size="10.00">  hero </text>
<text text-anchor="start" x="115" y="-23" font-family="Times,serif" font-weight="bold" font-size="10.00">типа </text>
<text text-anchor="start" x="139" y="-23" font-family="Times,serif" font-size="10.00"> finish</text>
<polygon fill="#ffffff" stroke="none" points="14,-5 14,-18 179,-18 179,-5 14,-5"/>
<text text-anchor="start" x="15" y="-10" font-family="Times,serif" font-weight="bold" font-size="10.00">увеличить влияние </text>
<text text-anchor="start" x="103" y="-10" font-family="Times,serif" font-size="10.00">  place_2 </text>
<text text-anchor="start" x="143" y="-10" font-family="Times,serif" font-weight="bold" font-size="10.00">на </text>
<text text-anchor="start" x="156" y="-10" font-family="Times,serif" font-size="10.00"> 1.00</text>
<polygon fill="none" stroke="black" points="12.5,-4.5 12.5,-59.5 179.5,-59.5 179.5,-4.5 12.5,-4.5"/>
</g>
<!-- [ns&#45;0]chatting&#45;&gt;[ns&#45;0]finish -->
<g id="edge5" class="edge"><title>[ns&#45;0]chatting:[ns&#45;0]chatting&#45;&gt;[ns&#45;0]finish:[ns&#45;0]finish</title>
<path fill="none" stroke="black" d="M96,-104.48C96,-93.8034 96,-81.3091 96,-69.7792"/>
<polygon fill="black" stroke="black" points="99.5001,-69.5414 96,-59.5414 92.5001,-69.5414 99.5001,-69.5414"/>
</g>
<!-- [ns&#45;0]stagger_streets -->
<g id="node4" class="node"><title>[ns&#45;0]stagger_streets</title>
<polygon fill="#ddffdd" stroke="none" points="15.5,-204.5 15.5,-259.5 176.5,-259.5 176.5,-204.5 15.5,-204.5"/>
<text text-anchor="start" x="18" y="-249.5" font-family="Times,serif" font-style="italic" font-size="10.00">[ns&#45;0]stagger_streets</text>
<text text-anchor="start" x="18" y="-235" font-family="Times,serif" font-size="10.00">пошататься по улицам</text>
<polygon fill="#eeffee" stroke="none" points="17,-218 17,-231 176,-231 176,-218 17,-218"/>
<text text-anchor="start" x="18" y="-223" font-family="Times,serif" font-weight="bold" font-size="10.00">сообщение:</text>
<text text-anchor="start" x="70" y="-223" font-family="Times,serif" font-size="10.00"> stagger_streets</text>
<polygon fill="#eeffee" stroke="none" points="17,-205 17,-218 176,-218 176,-205 17,-205"/>
<text text-anchor="start" x="18" y="-210" font-family="Times,serif" font-weight="bold" font-size="10.00">заняться </text>
<text text-anchor="start" x="61" y="-210" font-family="Times,serif" font-size="10.00">  stagger_streets</text>
<polygon fill="none" stroke="black" points="15.5,-204.5 15.5,-259.5 176.5,-259.5 176.5,-204.5 15.5,-204.5"/>
</g>
<!-- [ns&#45;0]stagger_streets&#45;&gt;[ns&#45;0]chatting -->
<g id="edge3" class="edge"><title>[ns&#45;0]stagger_streets:[ns&#45;0]stagger_streets&#45;&gt;[ns&#45;0]chatting:[ns&#45;0]chatting</title>
<path fill="none" stroke="black" d="M96,-204.48C96,-193.803 96,-181.309 96,-169.779"/>
<polygon fill="black" stroke="black" points="99.5001,-169.541 96,-159.541 92.5001,-169.541 99.5001,-169.541"/>
</g>
<!-- [ns&#45;0]search_old_friends -->
<g id="node5" class="node"><title>[ns&#45;0]search_old_friends</title>
<polygon fill="#ddffdd" stroke="none" points="7.5,-304.5 7.5,-359.5 184.5,-359.5 184.5,-304.5 7.5,-304.5"/>
<text text-anchor="start" x="10" y="-349.5" font-family="Times,serif" font-style="italic" font-size="10.00">[ns&#45;0]search_old_friends</text>
<text text-anchor="start" x="10" y="-335" font-family="Times,serif" font-size="10.00">искать старого друга</text>
<polygon fill="#eeffee" stroke="none" points="9,-318 9,-331 184,-331 184,-318 9,-318"/>
<text text-anchor="start" x="10" y="-323" font-family="Times,serif" font-weight="bold" font-size="10.00">сообщение:</text>
<text text-anchor="start" x="62" y="-323" font-family="Times,serif" font-size="10.00"> search_old_friends</text>
<polygon fill="#eeffee" stroke="none" points="9,-305 9,-318 184,-318 184,-305 9,-305"/>
<text text-anchor="start" x="10" y="-310" font-family="Times,serif" font-weight="bold" font-size="10.00">заняться </text>
<text text-anchor="start" x="53" y="-310" font-family="Times,serif" font-size="10.00">  search_old_friends</text>
<polygon fill="none" stroke="black" points="7.5,-304.5 7.5,-359.5 184.5,-359.5 184.5,-304.5 7.5,-304.5"/>
</g>
<!-- [ns&#45;0]search_old_friends&#45;&gt;[ns&#45;0]stagger_streets -->
<g id="edge1" class="edge"><title>[ns&#45;0]search_old_friends:[ns&#45;0]search_old_friends&#45;&gt;[ns&#45;0]stagger_streets:[ns&#45;0]stagger_streets</title>
<path fill="none" stroke="black" d="M96,-304.48C96,-293.803 96,-281.309 96,-269.779"/>
<polygon fill="black" stroke="black" points="99.5001,-269.541 96,-259.541 92.5001,-269.541 99.5001,-269.541"/>
</g>
<!-- [ns&#45;0]arriving&#45;&gt;[ns&#45;0]search_old_friends -->
<g id="edge2" class="edge"><title>[ns&#45;0]arriving:[ns&#45;0]arriving&#45;&gt;[ns&#45;0]search_old_friends:[ns&#45;0]search_old_friends</title>
<path fill="none" stroke="black" d="M96,-403.804C96,-393.862 96,-381.556 96,-370.007"/>
<polygon fill="black" stroke="black" points="99.5001,-369.703 96,-359.703 92.5001,-369.703 99.5001,-369.703"/>
</g>
</g>
</svg>
