<?xml version="1.0" encoding="UTF-8" standalone="no"?>
<!DOCTYPE svg PUBLIC "-//W3C//DTD SVG 1.1//EN"
 "http://www.w3.org/Graphics/SVG/1.1/DTD/svg11.dtd">
<!-- Generated by graphviz version 2.34.0 (20130907.0221)
 -->
<!-- Title: quest Pages: 1 -->
<svg width="232pt" height="558pt"
 viewBox="0.00 0.00 232.00 558.00" xmlns="http://www.w3.org/2000/svg" xmlns:xlink="http://www.w3.org/1999/xlink">
<g id="graph0" class="graph" transform="scale(1 1) rotate(0) translate(4 554)">
<title>quest</title>
<polygon fill="white" stroke="white" points="-4,4 -4,-554 228,-554 228,4 -4,4"/>
<!-- [ns&#45;0]remember_names -->
<g id="node1" class="node"><title>[ns&#45;0]remember_names</title>
<polygon fill="#ddffdd" stroke="none" points="23,-104.5 23,-159.5 201,-159.5 201,-104.5 23,-104.5"/>
<text text-anchor="start" x="25" y="-149.5" font-family="Times,serif" font-style="italic" font-size="10.00">[ns&#45;0]remember_names</text>
<text text-anchor="start" x="25" y="-135" font-family="Times,serif" font-size="10.00">вспоминать имена друзей</text>
<polygon fill="#eeffee" stroke="none" points="24,-118 24,-131 200,-131 200,-118 24,-118"/>
<text text-anchor="start" x="25" y="-123" font-family="Times,serif" font-weight="bold" font-size="10.00">сообщение:</text>
<text text-anchor="start" x="77" y="-123" font-family="Times,serif" font-size="10.00"> remember_names</text>
<polygon fill="#eeffee" stroke="none" points="24,-105 24,-118 200,-118 200,-105 24,-105"/>
<text text-anchor="start" x="25" y="-110" font-family="Times,serif" font-weight="bold" font-size="10.00">заняться </text>
<text text-anchor="start" x="68" y="-110" font-family="Times,serif" font-size="10.00">  remember_names</text>
<polygon fill="none" stroke="black" points="23,-104.5 23,-159.5 201,-159.5 201,-104.5 23,-104.5"/>
</g>
<!-- [ns&#45;0]finish -->
<g id="node4" class="node"><title>[ns&#45;0]finish</title>
<polygon fill="#eeeeee" stroke="none" points="7.5,-4.5 7.5,-59.5 216.5,-59.5 216.5,-4.5 7.5,-4.5"/>
<text text-anchor="start" x="10" y="-49.5" font-family="Times,serif" font-style="italic" font-size="10.00">[ns&#45;0]finish</text>
<text text-anchor="start" x="121" y="-49.5" font-family="Times,serif" font-weight="bold" font-size="10.00">finish</text>
<text text-anchor="start" x="175" y="-49.5" font-family="Times,serif" font-weight="bold" font-size="10.00">successed</text>
<text text-anchor="start" x="10" y="-35" font-family="Times,serif" font-size="10.00">завершить посещение города</text>
<polygon fill="#ffffff" stroke="none" points="9,-18 9,-31 174,-31 174,-18 9,-18"/>
<text text-anchor="start" x="10" y="-23" font-family="Times,serif" font-weight="bold" font-size="10.00">сообщение:</text>
<text text-anchor="start" x="62" y="-23" font-family="Times,serif" font-size="10.00"> finish</text>
<polygon fill="#ffffff" stroke="none" points="9,-5 9,-18 174,-18 174,-5 9,-5"/>
<text text-anchor="start" x="10" y="-10" font-family="Times,serif" font-weight="bold" font-size="10.00">увеличить влияние </text>
<text text-anchor="start" x="98" y="-10" font-family="Times,serif" font-size="10.00">  place_2 </text>
<text text-anchor="start" x="138" y="-10" font-family="Times,serif" font-weight="bold" font-size="10.00">на </text>
<text text-anchor="start" x="151" y="-10" font-family="Times,serif" font-size="10.00"> 1.00</text>
<polygon fill="none" stroke="black" points="7.5,-4.5 7.5,-59.5 216.5,-59.5 216.5,-4.5 7.5,-4.5"/>
</g>
<!-- [ns&#45;0]remember_names&#45;&gt;[ns&#45;0]finish -->
<g id="edge3" class="edge"><title>[ns&#45;0]remember_names:[ns&#45;0]remember_names&#45;&gt;[ns&#45;0]finish:[ns&#45;0]finish</title>
<path fill="none" stroke="black" d="M112,-104.48C112,-93.8034 112,-81.3091 112,-69.7792"/>
<polygon fill="black" stroke="black" points="115.5,-69.5414 112,-59.5414 108.5,-69.5414 115.5,-69.5414"/>
</g>
<!-- [ns&#45;0]start -->
<g id="node2" class="node"><title>[ns&#45;0]start</title>
<polygon fill="#eeeeee" stroke="none" points="38.5,-490.5 38.5,-545.5 185.5,-545.5 185.5,-490.5 38.5,-490.5"/>
<text text-anchor="start" x="41" y="-535.5" font-family="Times,serif" font-style="italic" font-size="10.00">[ns&#45;0]start</text>
<text text-anchor="start" x="126.5" y="-535.5" font-family="Times,serif" font-weight="bold" font-size="10.00">hometown</text>
<text text-anchor="start" x="41" y="-521" font-family="Times,serif" font-size="10.00">Начало: посетить родной города</text>
<polygon fill="#dddddd" stroke="none" points="40,-504 40,-517 185,-517 185,-504 40,-504"/>
<text text-anchor="start" x="41" y="-509" font-family="Times,serif" font-size="10.00">hero </text>
<text text-anchor="start" x="62" y="-509" font-family="Times,serif" font-weight="bold" font-size="10.00">находится в</text>
<text text-anchor="start" x="117" y="-509" font-family="Times,serif" font-size="10.00"> place_1</text>
<polygon fill="#ffffff" stroke="none" points="40,-491 40,-504 185,-504 185,-491 40,-491"/>
<text text-anchor="start" x="41" y="-496" font-family="Times,serif" font-weight="bold" font-size="10.00">сообщение:</text>
<text text-anchor="start" x="93" y="-496" font-family="Times,serif" font-size="10.00"> intro</text>
<polygon fill="none" stroke="black" points="38.5,-490.5 38.5,-545.5 185.5,-545.5 185.5,-490.5 38.5,-490.5"/>
</g>
<!-- [ns&#45;0]arriving -->
<g id="node6" class="node"><title>[ns&#45;0]arriving</title>
<polygon fill="#ddffdd" stroke="none" points="42,-404 42,-446 182,-446 182,-404 42,-404"/>
<text text-anchor="start" x="44" y="-436.5" font-family="Times,serif" font-style="italic" font-size="10.00">[ns&#45;0]arriving</text>
<text text-anchor="start" x="44" y="-422" font-family="Times,serif" font-size="10.00">Прибытие в город</text>
<polygon fill="#cceecc" stroke="none" points="43,-405 43,-418 181,-418 181,-405 43,-405"/>
<text text-anchor="start" x="44" y="-410" font-family="Times,serif" font-size="10.00">hero </text>
<text text-anchor="start" x="65" y="-410" font-family="Times,serif" font-weight="bold" font-size="10.00">находится в</text>
<text text-anchor="start" x="120" y="-410" font-family="Times,serif" font-size="10.00"> place_2</text>
<polygon fill="none" stroke="black" points="42,-404 42,-446 182,-446 182,-404 42,-404"/>
</g>
<!-- [ns&#45;0]start&#45;&gt;[ns&#45;0]arriving -->
<g id="edge5" class="edge"><title>[ns&#45;0]start:[ns&#45;0]start&#45;&gt;[ns&#45;0]arriving:[ns&#45;0]arriving</title>
<path fill="none" stroke="black" d="M112,-490.189C112,-479.542 112,-467.241 112,-456.275"/>
<polygon fill="black" stroke="black" points="115.5,-456.266 112,-446.266 108.5,-456.267 115.5,-456.266"/>
</g>
<!-- [ns&#45;0]chatting -->
<g id="node3" class="node"><title>[ns&#45;0]chatting</title>
<polygon fill="#ddffdd" stroke="none" points="36,-304.5 36,-359.5 188,-359.5 188,-304.5 36,-304.5"/>
<text text-anchor="start" x="38" y="-349.5" font-family="Times,serif" font-style="italic" font-size="10.00">[ns&#45;0]chatting</text>
<text text-anchor="start" x="38" y="-335" font-family="Times,serif" font-size="10.00">пообщаться с друзьями</text>
<polygon fill="#eeffee" stroke="none" points="37,-318 37,-331 187,-331 187,-318 37,-318"/>
<text text-anchor="start" x="38" y="-323" font-family="Times,serif" font-weight="bold" font-size="10.00">сообщение:</text>
<text text-anchor="start" x="90" y="-323" font-family="Times,serif" font-size="10.00"> chatting</text>
<polygon fill="#eeffee" stroke="none" points="37,-305 37,-318 187,-318 187,-305 37,-305"/>
<text text-anchor="start" x="38" y="-310" font-family="Times,serif" font-weight="bold" font-size="10.00">заняться </text>
<text text-anchor="start" x="81" y="-310" font-family="Times,serif" font-size="10.00">  chatting</text>
<polygon fill="none" stroke="black" points="36,-304.5 36,-359.5 188,-359.5 188,-304.5 36,-304.5"/>
</g>
<!-- [ns&#45;0]stagger_streets -->
<g id="node5" class="node"><title>[ns&#45;0]stagger_streets</title>
<polygon fill="#ddffdd" stroke="none" points="31.5,-204.5 31.5,-259.5 192.5,-259.5 192.5,-204.5 31.5,-204.5"/>
<text text-anchor="start" x="34" y="-249.5" font-family="Times,serif" font-style="italic" font-size="10.00">[ns&#45;0]stagger_streets</text>
<text text-anchor="start" x="34" y="-235" font-family="Times,serif" font-size="10.00">пошататься по улицам</text>
<polygon fill="#eeffee" stroke="none" points="33,-218 33,-231 192,-231 192,-218 33,-218"/>
<text text-anchor="start" x="34" y="-223" font-family="Times,serif" font-weight="bold" font-size="10.00">сообщение:</text>
<text text-anchor="start" x="86" y="-223" font-family="Times,serif" font-size="10.00"> stagger_streets</text>
<polygon fill="#eeffee" stroke="none" points="33,-205 33,-218 192,-218 192,-205 33,-205"/>
<text text-anchor="start" x="34" y="-210" font-family="Times,serif" font-weight="bold" font-size="10.00">заняться </text>
<text text-anchor="start" x="77" y="-210" font-family="Times,serif" font-size="10.00">  stagger_streets</text>
<polygon fill="none" stroke="black" points="31.5,-204.5 31.5,-259.5 192.5,-259.5 192.5,-204.5 31.5,-204.5"/>
</g>
<!-- [ns&#45;0]chatting&#45;&gt;[ns&#45;0]stagger_streets -->
<g id="edge1" class="edge"><title>[ns&#45;0]chatting:[ns&#45;0]chatting&#45;&gt;[ns&#45;0]stagger_streets:[ns&#45;0]stagger_streets</title>
<path fill="none" stroke="black" d="M112,-304.48C112,-293.803 112,-281.309 112,-269.779"/>
<polygon fill="black" stroke="black" points="115.5,-269.541 112,-259.541 108.5,-269.541 115.5,-269.541"/>
</g>
<!-- [ns&#45;0]stagger_streets&#45;&gt;[ns&#45;0]remember_names -->
<g id="edge2" class="edge"><title>[ns&#45;0]stagger_streets:[ns&#45;0]stagger_streets&#45;&gt;[ns&#45;0]remember_names:[ns&#45;0]remember_names</title>
<path fill="none" stroke="black" d="M112,-204.48C112,-193.803 112,-181.309 112,-169.779"/>
<polygon fill="black" stroke="black" points="115.5,-169.541 112,-159.541 108.5,-169.541 115.5,-169.541"/>
</g>
<!-- [ns&#45;0]arriving&#45;&gt;[ns&#45;0]chatting -->
<g id="edge4" class="edge"><title>[ns&#45;0]arriving:[ns&#45;0]arriving&#45;&gt;[ns&#45;0]chatting:[ns&#45;0]chatting</title>
<path fill="none" stroke="black" d="M112,-403.804C112,-393.862 112,-381.556 112,-370.007"/>
<polygon fill="black" stroke="black" points="115.5,-369.703 112,-359.703 108.5,-369.703 115.5,-369.703"/>
</g>
</g>
</svg>
