<?xml version="1.0" encoding="UTF-8" standalone="no"?>
<!DOCTYPE svg PUBLIC "-//W3C//DTD SVG 1.1//EN"
 "http://www.w3.org/Graphics/SVG/1.1/DTD/svg11.dtd">
<!-- Generated by graphviz version 2.43.0 (0)
 -->
<!-- Title: quest Pages: 1 -->
<svg width="344pt" height="560pt"
 viewBox="0.00 0.00 344.00 560.00" xmlns="http://www.w3.org/2000/svg" xmlns:xlink="http://www.w3.org/1999/xlink">
<g id="graph0" class="graph" transform="scale(1 1) rotate(0) translate(4 556)">
<title>quest</title>
<polygon fill="white" stroke="transparent" points="-4,4 -4,-556 340,-556 340,4 -4,4"/>
<!-- [ns&#45;0]stagger_streets -->
<g id="node1" class="node">
<title>[ns&#45;0]stagger_streets</title>
<polygon fill="#ddffdd" stroke="transparent" points="90.5,-213 90.5,-267 245.5,-267 245.5,-213 90.5,-213"/>
<text text-anchor="start" x="93" y="-258" font-family="Times,serif" font-style="italic" font-size="10.00">[ns&#45;0]stagger_streets</text>
<text text-anchor="start" x="93" y="-244" font-family="Times,serif" font-size="10.00">stagger through the streets</text>
<polygon fill="#eeffee" stroke="transparent" points="92,-227 92,-240 245,-240 245,-227 92,-227"/>
<text text-anchor="start" x="93" y="-232" font-family="Times,serif" font-weight="bold" font-size="10.00">message:</text>
<text text-anchor="start" x="145" y="-232" font-family="Times,serif" font-size="10.00"> stagger_streets</text>
<polygon fill="#eeffee" stroke="transparent" points="92,-214 92,-227 245,-227 245,-214 92,-214"/>
<text text-anchor="start" x="93" y="-219" font-family="Times,serif" font-weight="bold" font-size="10.00">do nothing </text>
<text text-anchor="start" x="159" y="-219" font-family="Times,serif" font-size="10.00">  stagger_streets</text>
<polygon fill="none" stroke="black" points="90.5,-213 90.5,-267 245.5,-267 245.5,-213 90.5,-213"/>
</g>
<!-- [ns&#45;0]remember_names -->
<g id="node5" class="node">
<title>[ns&#45;0]remember_names</title>
<polygon fill="#ddffdd" stroke="transparent" points="83.5,-115 83.5,-169 252.5,-169 252.5,-115 83.5,-115"/>
<text text-anchor="start" x="86" y="-160" font-family="Times,serif" font-style="italic" font-size="10.00">[ns&#45;0]remember_names</text>
<text text-anchor="start" x="86" y="-146" font-family="Times,serif" font-size="10.00">remember friends names</text>
<polygon fill="#eeffee" stroke="transparent" points="85,-129 85,-142 252,-142 252,-129 85,-129"/>
<text text-anchor="start" x="86" y="-134" font-family="Times,serif" font-weight="bold" font-size="10.00">message:</text>
<text text-anchor="start" x="138" y="-134" font-family="Times,serif" font-size="10.00"> remember_names</text>
<polygon fill="#eeffee" stroke="transparent" points="85,-116 85,-129 252,-129 252,-116 85,-116"/>
<text text-anchor="start" x="86" y="-121" font-family="Times,serif" font-weight="bold" font-size="10.00">do nothing </text>
<text text-anchor="start" x="152" y="-121" font-family="Times,serif" font-size="10.00">  remember_names</text>
<polygon fill="none" stroke="black" points="83.5,-115 83.5,-169 252.5,-169 252.5,-115 83.5,-115"/>
</g>
<!-- [ns&#45;0]stagger_streets&#45;&gt;[ns&#45;0]remember_names -->
<g id="edge2" class="edge">
<title>[ns&#45;0]stagger_streets:[ns&#45;0]stagger_streets&#45;&gt;[ns&#45;0]remember_names:[ns&#45;0]remember_names</title>
<path fill="none" stroke="black" d="M168,-212.77C168,-202.5 168,-190.55 168,-179.47"/>
<polygon fill="black" stroke="black" points="171.5,-179.2 168,-169.2 164.5,-179.2 171.5,-179.2"/>
</g>
<!-- [ns&#45;0]search_old_friends -->
<g id="node2" class="node">
<title>[ns&#45;0]search_old_friends</title>
<polygon fill="#ddffdd" stroke="transparent" points="81.5,-311 81.5,-365 254.5,-365 254.5,-311 81.5,-311"/>
<text text-anchor="start" x="84" y="-356" font-family="Times,serif" font-style="italic" font-size="10.00">[ns&#45;0]search_old_friends</text>
<text text-anchor="start" x="84" y="-342" font-family="Times,serif" font-size="10.00">search for an old friend</text>
<polygon fill="#eeffee" stroke="transparent" points="83,-325 83,-338 254,-338 254,-325 83,-325"/>
<text text-anchor="start" x="84" y="-330" font-family="Times,serif" font-weight="bold" font-size="10.00">message:</text>
<text text-anchor="start" x="136" y="-330" font-family="Times,serif" font-size="10.00"> search_old_friends</text>
<polygon fill="#eeffee" stroke="transparent" points="83,-312 83,-325 254,-325 254,-312 83,-312"/>
<text text-anchor="start" x="84" y="-317" font-family="Times,serif" font-weight="bold" font-size="10.00">do nothing </text>
<text text-anchor="start" x="150" y="-317" font-family="Times,serif" font-size="10.00">  search_old_friends</text>
<polygon fill="none" stroke="black" points="81.5,-311 81.5,-365 254.5,-365 254.5,-311 81.5,-311"/>
</g>
<!-- [ns&#45;0]search_old_friends&#45;&gt;[ns&#45;0]stagger_streets -->
<g id="edge3" class="edge">
<title>[ns&#45;0]search_old_friends:[ns&#45;0]search_old_friends&#45;&gt;[ns&#45;0]stagger_streets:[ns&#45;0]stagger_streets</title>
<path fill="none" stroke="black" d="M168,-310.77C168,-300.5 168,-288.55 168,-277.47"/>
<polygon fill="black" stroke="black" points="171.5,-277.2 168,-267.2 164.5,-277.2 171.5,-277.2"/>
</g>
<!-- [ns&#45;0]start -->
<g id="node3" class="node">
<title>[ns&#45;0]start</title>
<polygon fill="#eeeeee" stroke="transparent" points="96.5,-494 96.5,-548 239.5,-548 239.5,-494 96.5,-494"/>
<text text-anchor="start" x="99" y="-539" font-family="Times,serif" font-style="italic" font-size="10.00">[ns&#45;0]start</text>
<text text-anchor="start" x="173.5" y="-539" font-family="Times,serif" font-weight="bold" font-size="10.00">hometown</text>
<text text-anchor="start" x="99" y="-525" font-family="Times,serif" font-size="10.00">Start: visit hometown</text>
<polygon fill="#dddddd" stroke="transparent" points="98,-508 98,-521 239,-521 239,-508 98,-508"/>
<text text-anchor="start" x="99" y="-513" font-family="Times,serif" font-size="10.00">hero </text>
<text text-anchor="start" x="126" y="-513" font-family="Times,serif" font-weight="bold" font-size="10.00">is located in</text>
<text text-anchor="start" x="196" y="-513" font-family="Times,serif" font-size="10.00"> place_1</text>
<polygon fill="#ffffff" stroke="transparent" points="98,-495 98,-508 239,-508 239,-495 98,-495"/>
<text text-anchor="start" x="99" y="-500" font-family="Times,serif" font-weight="bold" font-size="10.00">message:</text>
<text text-anchor="start" x="151" y="-500" font-family="Times,serif" font-size="10.00"> intro</text>
<polygon fill="none" stroke="black" points="96.5,-494 96.5,-548 239.5,-548 239.5,-494 96.5,-494"/>
</g>
<!-- [ns&#45;0]arriving -->
<g id="node6" class="node">
<title>[ns&#45;0]arriving</title>
<polygon fill="#ddffdd" stroke="transparent" points="96.5,-409 96.5,-450 239.5,-450 239.5,-409 96.5,-409"/>
<text text-anchor="start" x="99" y="-440.5" font-family="Times,serif" font-style="italic" font-size="10.00">[ns&#45;0]arriving</text>
<text text-anchor="start" x="99" y="-426.5" font-family="Times,serif" font-size="10.00">Arriving in the city</text>
<polygon fill="#cceecc" stroke="transparent" points="98,-409.5 98,-422.5 239,-422.5 239,-409.5 98,-409.5"/>
<text text-anchor="start" x="99" y="-414.5" font-family="Times,serif" font-size="10.00">hero </text>
<text text-anchor="start" x="126" y="-414.5" font-family="Times,serif" font-weight="bold" font-size="10.00">is located in</text>
<text text-anchor="start" x="196" y="-414.5" font-family="Times,serif" font-size="10.00"> place_2</text>
<polygon fill="none" stroke="black" points="96.5,-409 96.5,-450 239.5,-450 239.5,-409 96.5,-409"/>
</g>
<!-- [ns&#45;0]start&#45;&gt;[ns&#45;0]arriving -->
<g id="edge5" class="edge">
<title>[ns&#45;0]start:[ns&#45;0]start&#45;&gt;[ns&#45;0]arriving:[ns&#45;0]arriving</title>
<path fill="none" stroke="black" d="M168,-493.63C168,-483.19 168,-471.13 168,-460.37"/>
<polygon fill="black" stroke="black" points="171.5,-460.15 168,-450.15 164.5,-460.15 171.5,-460.15"/>
</g>
<!-- [ns&#45;0]finish -->
<g id="node4" class="node">
<title>[ns&#45;0]finish</title>
<polygon fill="#eeeeee" stroke="transparent" points="8,-4 8,-71 328,-71 328,-4 8,-4"/>
<text text-anchor="start" x="10" y="-61.5" font-family="Times,serif" font-style="italic" font-size="10.00">[ns&#45;0]finish</text>
<text text-anchor="start" x="10" y="-47.5" font-family="Times,serif" font-size="10.00">finish visiting the city</text>
<polygon fill="#ffffff" stroke="transparent" points="9,-30.5 9,-43.5 327,-43.5 327,-30.5 9,-30.5"/>
<text text-anchor="start" x="10" y="-35.5" font-family="Times,serif" font-weight="bold" font-size="10.00">give reward to </text>
<text text-anchor="start" x="94" y="-35.5" font-family="Times,serif" font-size="10.00">  hero </text>
<text text-anchor="start" x="127" y="-35.5" font-family="Times,serif" font-weight="bold" font-size="10.00">of type </text>
<text text-anchor="start" x="170" y="-35.5" font-family="Times,serif" font-size="10.00"> finish </text>
<text text-anchor="start" x="205" y="-35.5" font-family="Times,serif" font-weight="bold" font-size="10.00">in the amount of</text>
<text text-anchor="start" x="301" y="-35.5" font-family="Times,serif" font-size="10.00"> 1.00</text>
<polygon fill="#eeeeee" stroke="transparent" points="9,-17.5 9,-30.5 327,-30.5 327,-17.5 9,-17.5"/>
<text text-anchor="start" x="10" y="-22.5" font-family="Times,serif" font-weight="bold" font-size="10.00">results:</text>
<text text-anchor="start" x="10" y="-9.5" font-family="Times,serif" font-weight="bold" font-size="10.00">place_2</text>
<text text-anchor="start" x="172" y="-8.5" font-family="Times,serif" font-size="10.00">successed</text>
<polygon fill="none" stroke="black" points="8,-4 8,-71 328,-71 328,-4 8,-4"/>
</g>
<!-- [ns&#45;0]remember_names&#45;&gt;[ns&#45;0]finish -->
<g id="edge4" class="edge">
<title>[ns&#45;0]remember_names:[ns&#45;0]remember_names&#45;&gt;[ns&#45;0]finish:[ns&#45;0]finish</title>
<path fill="none" stroke="black" d="M168,-114.87C168,-104.7 168,-92.77 168,-81.41"/>
<polygon fill="black" stroke="black" points="171.5,-81.2 168,-71.2 164.5,-81.2 171.5,-81.2"/>
</g>
<!-- [ns&#45;0]arriving&#45;&gt;[ns&#45;0]search_old_friends -->
<g id="edge1" class="edge">
<title>[ns&#45;0]arriving:[ns&#45;0]arriving&#45;&gt;[ns&#45;0]search_old_friends:[ns&#45;0]search_old_friends</title>
<path fill="none" stroke="black" d="M168,-408.64C168,-398.86 168,-386.76 168,-375.4"/>
<polygon fill="black" stroke="black" points="171.5,-375.26 168,-365.26 164.5,-375.26 171.5,-375.26"/>
</g>
</g>
</svg>
