<?xml version="1.0" encoding="UTF-8" standalone="no"?>
<!DOCTYPE svg PUBLIC "-//W3C//DTD SVG 1.1//EN"
 "http://www.w3.org/Graphics/SVG/1.1/DTD/svg11.dtd">
<!-- Generated by graphviz version 2.38.0 (20140413.2041)
 -->
<!-- Title: quest Pages: 1 -->
<svg width="244pt" height="560pt"
 viewBox="0.00 0.00 244.00 560.00" xmlns="http://www.w3.org/2000/svg" xmlns:xlink="http://www.w3.org/1999/xlink">
<g id="graph0" class="graph" transform="scale(1 1) rotate(0) translate(4 556)">
<title>quest</title>
<polygon fill="white" stroke="none" points="-4,4 -4,-556 240,-556 240,4 -4,4"/>
<!-- [ns&#45;0]drunk_song -->
<g id="node1" class="node"><title>[ns&#45;0]drunk_song</title>
<polygon fill="#ddffdd" stroke="none" points="64,-115 64,-169 172,-169 172,-115 64,-115"/>
<text text-anchor="start" x="66" y="-160" font-family="Times,serif" font-style="italic" font-size="10.00">[ns&#45;0]drunk_song</text>
<text text-anchor="start" x="66" y="-146" font-family="Times,serif" font-size="10.00">спеть пьяную песню</text>
<polygon fill="#eeffee" stroke="none" points="65,-129 65,-142 171,-142 171,-129 65,-129"/>
<text text-anchor="start" x="66" y="-134" font-family="Times,serif" font-weight="bold" font-size="10.00">сообщение:</text>
<text text-anchor="start" x="118" y="-134" font-family="Times,serif" font-size="10.00"> drunk_song</text>
<polygon fill="#eeffee" stroke="none" points="65,-116 65,-129 171,-129 171,-116 65,-116"/>
<text text-anchor="start" x="66" y="-121" font-family="Times,serif" font-weight="bold" font-size="10.00">заняться </text>
<text text-anchor="start" x="109" y="-121" font-family="Times,serif" font-size="10.00">  drunk_song</text>
<polygon fill="none" stroke="black" points="64,-115 64,-169 172,-169 172,-115 64,-115"/>
</g>
<!-- [ns&#45;0]finish -->
<g id="node4" class="node"><title>[ns&#45;0]finish</title>
<polygon fill="#eeeeee" stroke="none" points="8,-4 8,-71 228,-71 228,-4 8,-4"/>
<text text-anchor="start" x="10" y="-61.5" font-family="Times,serif" font-style="italic" font-size="10.00">[ns&#45;0]finish</text>
<text text-anchor="start" x="10" y="-47.5" font-family="Times,serif" font-size="10.00">завершить посещение города</text>
<polygon fill="#ffffff" stroke="none" points="9,-30.5 9,-43.5 227,-43.5 227,-30.5 9,-30.5"/>
<text text-anchor="start" x="10" y="-35.5" font-family="Times,serif" font-weight="bold" font-size="10.00">выдать награду </text>
<text text-anchor="start" x="85" y="-35.5" font-family="Times,serif" font-size="10.00">  hero </text>
<text text-anchor="start" x="110" y="-35.5" font-family="Times,serif" font-weight="bold" font-size="10.00">типа </text>
<text text-anchor="start" x="134" y="-35.5" font-family="Times,serif" font-size="10.00"> finish </text>
<text text-anchor="start" x="162" y="-35.5" font-family="Times,serif" font-weight="bold" font-size="10.00">в размере</text>
<text text-anchor="start" x="205" y="-35.5" font-family="Times,serif" font-size="10.00"> 1.00</text>
<polygon fill="#eeeeee" stroke="none" points="9,-17.5 9,-30.5 227,-30.5 227,-17.5 9,-17.5"/>
<text text-anchor="start" x="10" y="-22.5" font-family="Times,serif" font-weight="bold" font-size="10.00">результаты:</text>
<text text-anchor="start" x="10" y="-9.5" font-family="Times,serif" font-weight="bold" font-size="10.00">place_2</text>
<text text-anchor="start" x="123" y="-8.5" font-family="Times,serif" font-size="10.00">successed</text>
<polygon fill="none" stroke="black" points="8,-4 8,-71 228,-71 228,-4 8,-4"/>
</g>
<!-- [ns&#45;0]drunk_song&#45;&gt;[ns&#45;0]finish -->
<g id="edge5" class="edge"><title>[ns&#45;0]drunk_song:[ns&#45;0]drunk_song&#45;&gt;[ns&#45;0]finish:[ns&#45;0]finish</title>
<path fill="none" stroke="black" d="M118,-114.87C118,-104.698 118,-92.7714 118,-81.4075"/>
<polygon fill="black" stroke="black" points="121.5,-81.1958 118,-71.1958 114.5,-81.1959 121.5,-81.1958"/>
</g>
<!-- [ns&#45;0]remember_names -->
<g id="node2" class="node"><title>[ns&#45;0]remember_names</title>
<polygon fill="#ddffdd" stroke="none" points="53.5,-213 53.5,-267 182.5,-267 182.5,-213 53.5,-213"/>
<text text-anchor="start" x="56" y="-258" font-family="Times,serif" font-style="italic" font-size="10.00">[ns&#45;0]remember_names</text>
<text text-anchor="start" x="56" y="-244" font-family="Times,serif" font-size="10.00">вспоминать имена друзей</text>
<polygon fill="#eeffee" stroke="none" points="55,-227 55,-240 182,-240 182,-227 55,-227"/>
<text text-anchor="start" x="56" y="-232" font-family="Times,serif" font-weight="bold" font-size="10.00">сообщение:</text>
<text text-anchor="start" x="108" y="-232" font-family="Times,serif" font-size="10.00"> remember_names</text>
<polygon fill="#eeffee" stroke="none" points="55,-214 55,-227 182,-227 182,-214 55,-214"/>
<text text-anchor="start" x="56" y="-219" font-family="Times,serif" font-weight="bold" font-size="10.00">заняться </text>
<text text-anchor="start" x="99" y="-219" font-family="Times,serif" font-size="10.00">  remember_names</text>
<polygon fill="none" stroke="black" points="53.5,-213 53.5,-267 182.5,-267 182.5,-213 53.5,-213"/>
</g>
<!-- [ns&#45;0]remember_names&#45;&gt;[ns&#45;0]drunk_song -->
<g id="edge2" class="edge"><title>[ns&#45;0]remember_names:[ns&#45;0]remember_names&#45;&gt;[ns&#45;0]drunk_song:[ns&#45;0]drunk_song</title>
<path fill="none" stroke="black" d="M118,-212.768C118,-202.502 118,-190.552 118,-179.473"/>
<polygon fill="black" stroke="black" points="121.5,-179.201 118,-169.201 114.5,-179.201 121.5,-179.201"/>
</g>
<!-- [ns&#45;0]start -->
<g id="node3" class="node"><title>[ns&#45;0]start</title>
<polygon fill="#eeeeee" stroke="none" points="45.5,-494 45.5,-548 190.5,-548 190.5,-494 45.5,-494"/>
<text text-anchor="start" x="48" y="-539" font-family="Times,serif" font-style="italic" font-size="10.00">[ns&#45;0]start</text>
<text text-anchor="start" x="131.5" y="-539" font-family="Times,serif" font-weight="bold" font-size="10.00">hometown</text>
<text text-anchor="start" x="48" y="-525" font-family="Times,serif" font-size="10.00">Начало: посетить родной города</text>
<polygon fill="#dddddd" stroke="none" points="47,-508 47,-521 190,-521 190,-508 47,-508"/>
<text text-anchor="start" x="48" y="-513" font-family="Times,serif" font-size="10.00">hero </text>
<text text-anchor="start" x="69" y="-513" font-family="Times,serif" font-weight="bold" font-size="10.00">находится в</text>
<text text-anchor="start" x="124" y="-513" font-family="Times,serif" font-size="10.00"> place_1</text>
<polygon fill="#ffffff" stroke="none" points="47,-495 47,-508 190,-508 190,-495 47,-495"/>
<text text-anchor="start" x="48" y="-500" font-family="Times,serif" font-weight="bold" font-size="10.00">сообщение:</text>
<text text-anchor="start" x="100" y="-500" font-family="Times,serif" font-size="10.00"> intro</text>
<polygon fill="none" stroke="black" points="45.5,-494 45.5,-548 190.5,-548 190.5,-494 45.5,-494"/>
</g>
<!-- [ns&#45;0]arriving -->
<g id="node6" class="node"><title>[ns&#45;0]arriving</title>
<polygon fill="#ddffdd" stroke="none" points="60.5,-409 60.5,-450 175.5,-450 175.5,-409 60.5,-409"/>
<text text-anchor="start" x="63" y="-440.5" font-family="Times,serif" font-style="italic" font-size="10.00">[ns&#45;0]arriving</text>
<text text-anchor="start" x="63" y="-426.5" font-family="Times,serif" font-size="10.00">Прибытие в город</text>
<polygon fill="#cceecc" stroke="none" points="62,-409.5 62,-422.5 175,-422.5 175,-409.5 62,-409.5"/>
<text text-anchor="start" x="63" y="-414.5" font-family="Times,serif" font-size="10.00">hero </text>
<text text-anchor="start" x="84" y="-414.5" font-family="Times,serif" font-weight="bold" font-size="10.00">находится в</text>
<text text-anchor="start" x="139" y="-414.5" font-family="Times,serif" font-size="10.00"> place_2</text>
<polygon fill="none" stroke="black" points="60.5,-409 60.5,-450 175.5,-450 175.5,-409 60.5,-409"/>
</g>
<!-- [ns&#45;0]start&#45;&gt;[ns&#45;0]arriving -->
<g id="edge4" class="edge"><title>[ns&#45;0]start:[ns&#45;0]start&#45;&gt;[ns&#45;0]arriving:[ns&#45;0]arriving</title>
<path fill="none" stroke="black" d="M118,-493.631C118,-483.19 118,-471.132 118,-460.37"/>
<polygon fill="black" stroke="black" points="121.5,-460.148 118,-450.148 114.5,-460.148 121.5,-460.148"/>
</g>
<!-- [ns&#45;0]stagger_streets -->
<g id="node5" class="node"><title>[ns&#45;0]stagger_streets</title>
<polygon fill="#ddffdd" stroke="none" points="58.5,-311 58.5,-365 177.5,-365 177.5,-311 58.5,-311"/>
<text text-anchor="start" x="61" y="-356" font-family="Times,serif" font-style="italic" font-size="10.00">[ns&#45;0]stagger_streets</text>
<text text-anchor="start" x="61" y="-342" font-family="Times,serif" font-size="10.00">пошататься по улицам</text>
<polygon fill="#eeffee" stroke="none" points="60,-325 60,-338 177,-338 177,-325 60,-325"/>
<text text-anchor="start" x="61" y="-330" font-family="Times,serif" font-weight="bold" font-size="10.00">сообщение:</text>
<text text-anchor="start" x="113" y="-330" font-family="Times,serif" font-size="10.00"> stagger_streets</text>
<polygon fill="#eeffee" stroke="none" points="60,-312 60,-325 177,-325 177,-312 60,-312"/>
<text text-anchor="start" x="61" y="-317" font-family="Times,serif" font-weight="bold" font-size="10.00">заняться </text>
<text text-anchor="start" x="104" y="-317" font-family="Times,serif" font-size="10.00">  stagger_streets</text>
<polygon fill="none" stroke="black" points="58.5,-311 58.5,-365 177.5,-365 177.5,-311 58.5,-311"/>
</g>
<!-- [ns&#45;0]stagger_streets&#45;&gt;[ns&#45;0]remember_names -->
<g id="edge3" class="edge"><title>[ns&#45;0]stagger_streets:[ns&#45;0]stagger_streets&#45;&gt;[ns&#45;0]remember_names:[ns&#45;0]remember_names</title>
<path fill="none" stroke="black" d="M118,-310.768C118,-300.502 118,-288.552 118,-277.473"/>
<polygon fill="black" stroke="black" points="121.5,-277.201 118,-267.201 114.5,-277.201 121.5,-277.201"/>
</g>
<!-- [ns&#45;0]arriving&#45;&gt;[ns&#45;0]stagger_streets -->
<g id="edge1" class="edge"><title>[ns&#45;0]arriving:[ns&#45;0]arriving&#45;&gt;[ns&#45;0]stagger_streets:[ns&#45;0]stagger_streets</title>
<path fill="none" stroke="black" d="M118,-408.637C118,-398.859 118,-386.756 118,-375.397"/>
<polygon fill="black" stroke="black" points="121.5,-375.263 118,-365.263 114.5,-375.263 121.5,-375.263"/>
</g>
</g>
</svg>
