<?xml version="1.0" encoding="UTF-8" standalone="no"?>
<!DOCTYPE svg PUBLIC "-//W3C//DTD SVG 1.1//EN"
 "http://www.w3.org/Graphics/SVG/1.1/DTD/svg11.dtd">
<!-- Generated by graphviz version 2.34.0 (20130907.0221)
 -->
<!-- Title: quest Pages: 1 -->
<svg width="200pt" height="1512pt"
 viewBox="0.00 0.00 200.00 1512.00" xmlns="http://www.w3.org/2000/svg" xmlns:xlink="http://www.w3.org/1999/xlink">
<g id="graph0" class="graph" transform="scale(1 1) rotate(0) translate(4 1508)">
<title>quest</title>
<polygon fill="white" stroke="white" points="-4,4 -4,-1508 196,-1508 196,4 -4,4"/>
<!-- [ns&#45;0]fight_2 -->
<g id="node1" class="node"><title>[ns&#45;0]fight_2</title>
<polygon fill="#ddffdd" stroke="none" points="27.5,-482.5 27.5,-537.5 164.5,-537.5 164.5,-482.5 27.5,-482.5"/>
<text text-anchor="start" x="30" y="-527.5" font-family="Times,serif" font-style="italic" font-size="10.00">[ns&#45;0]fight_2</text>
<text text-anchor="start" x="30" y="-513" font-family="Times,serif" font-size="10.00">Сражение с жертвой</text>
<polygon fill="#eeffee" stroke="none" points="29,-496 29,-509 164,-509 164,-496 29,-496"/>
<text text-anchor="start" x="30" y="-501" font-family="Times,serif" font-weight="bold" font-size="10.00">сообщение:</text>
<text text-anchor="start" x="82" y="-501" font-family="Times,serif" font-size="10.00"> fight</text>
<polygon fill="#eeffee" stroke="none" points="29,-483 29,-496 164,-496 164,-483 29,-483"/>
<text text-anchor="start" x="30" y="-488" font-family="Times,serif" font-weight="bold" font-size="10.00">сразиться с</text>
<text text-anchor="start" x="82" y="-488" font-family="Times,serif" font-size="10.00">  mob_1</text>
<polygon fill="none" stroke="black" points="27.5,-482.5 27.5,-537.5 164.5,-537.5 164.5,-482.5 27.5,-482.5"/>
</g>
<!-- #jump([ns&#45;0]fight_2, [ns&#45;0]hunt_3) -->
<g id="node16" class="node"><title>#jump([ns&#45;0]fight_2, [ns&#45;0]hunt_3)</title>
<polygon fill="#eeeeee" stroke="none" points="46,-417 46,-431 147,-431 147,-417 46,-417"/>
<text text-anchor="start" x="47" y="-422.5" font-family="Times,serif" font-weight="bold" font-size="10.00">сообщение:</text>
<text text-anchor="start" x="99" y="-422.5" font-family="Times,serif" font-size="10.00"> start_track</text>
</g>
<!-- [ns&#45;0]fight_2&#45;&gt;#jump([ns&#45;0]fight_2, [ns&#45;0]hunt_3) -->
<g id="edge12" class="edge"><title>[ns&#45;0]fight_2:[ns&#45;0]fight_2&#45;&gt;#jump([ns&#45;0]fight_2, [ns&#45;0]hunt_3):#jump([ns&#45;0]fight_2, [ns&#45;0]hunt_3)</title>
<path fill="none" stroke="black" d="M96,-482.422C96,-464.349 96,-441.853 96,-431.177"/>
</g>
<!-- [ns&#45;0]start -->
<g id="node2" class="node"><title>[ns&#45;0]start</title>
<polygon fill="#eeeeee" stroke="none" points="37.5,-1444.5 37.5,-1499.5 154.5,-1499.5 154.5,-1444.5 37.5,-1444.5"/>
<text text-anchor="start" x="40" y="-1489.5" font-family="Times,serif" font-style="italic" font-size="10.00">[ns&#45;0]start</text>
<text text-anchor="start" x="116" y="-1489.5" font-family="Times,serif" font-weight="bold" font-size="10.00">hunt</text>
<text text-anchor="start" x="40" y="-1475" font-family="Times,serif" font-size="10.00">Начало: задание на охоту</text>
<polygon fill="#dddddd" stroke="none" points="39,-1458 39,-1471 154,-1471 154,-1458 39,-1458"/>
<text text-anchor="start" x="40" y="-1463" font-family="Times,serif" font-size="10.00">hero </text>
<text text-anchor="start" x="61" y="-1463" font-family="Times,serif" font-weight="bold" font-size="10.00">находится в</text>
<text text-anchor="start" x="116" y="-1463" font-family="Times,serif" font-size="10.00"> place_1</text>
<polygon fill="#ffffff" stroke="none" points="39,-1445 39,-1458 154,-1458 154,-1445 39,-1445"/>
<text text-anchor="start" x="40" y="-1450" font-family="Times,serif" font-weight="bold" font-size="10.00">сообщение:</text>
<text text-anchor="start" x="92" y="-1450" font-family="Times,serif" font-size="10.00"> intro</text>
<polygon fill="none" stroke="black" points="37.5,-1444.5 37.5,-1499.5 154.5,-1499.5 154.5,-1444.5 37.5,-1444.5"/>
</g>
<!-- #jump([ns&#45;0]start, [ns&#45;0]start_hunting) -->
<g id="node15" class="node"><title>#jump([ns&#45;0]start, [ns&#45;0]start_hunting)</title>
<polygon fill="#eeeeee" stroke="none" points="37,-1379 37,-1393 155,-1393 155,-1379 37,-1379"/>
<text text-anchor="start" x="38" y="-1384.5" font-family="Times,serif" font-weight="bold" font-size="10.00">сообщение:</text>
<text text-anchor="start" x="90" y="-1384.5" font-family="Times,serif" font-size="10.00"> move_to_hunt</text>
</g>
<!-- [ns&#45;0]start&#45;&gt;#jump([ns&#45;0]start, [ns&#45;0]start_hunting) -->
<g id="edge10" class="edge"><title>[ns&#45;0]start:[ns&#45;0]start&#45;&gt;#jump([ns&#45;0]start, [ns&#45;0]start_hunting):#jump([ns&#45;0]start, [ns&#45;0]start_hunting)</title>
<path fill="none" stroke="black" d="M96,-1444.42C96,-1426.35 96,-1403.85 96,-1393.18"/>
</g>
<!-- [ns&#45;0]sell_prey -->
<g id="node3" class="node"><title>[ns&#45;0]sell_prey</title>
<polygon fill="#eeeeee" stroke="none" points="11.5,-4 11.5,-98 180.5,-98 180.5,-4 11.5,-4"/>
<text text-anchor="start" x="14" y="-88.5" font-family="Times,serif" font-style="italic" font-size="10.00">[ns&#45;0]sell_prey</text>
<text text-anchor="start" x="14" y="-74" font-family="Times,serif" font-size="10.00">Продать добычу</text>
<polygon fill="#dddddd" stroke="none" points="13,-57 13,-70 180,-70 180,-57 13,-57"/>
<text text-anchor="start" x="14" y="-62" font-family="Times,serif" font-size="10.00">hero </text>
<text text-anchor="start" x="35" y="-62" font-family="Times,serif" font-weight="bold" font-size="10.00">находится в</text>
<text text-anchor="start" x="90" y="-62" font-family="Times,serif" font-size="10.00"> place_2</text>
<polygon fill="#ffffff" stroke="none" points="13,-44 13,-57 180,-57 180,-44 13,-44"/>
<text text-anchor="start" x="14" y="-49" font-family="Times,serif" font-weight="bold" font-size="10.00">выдать награду </text>
<text text-anchor="start" x="89" y="-49" font-family="Times,serif" font-size="10.00">  hero </text>
<text text-anchor="start" x="114" y="-49" font-family="Times,serif" font-weight="bold" font-size="10.00">типа </text>
<text text-anchor="start" x="138" y="-49" font-family="Times,serif" font-size="10.00"> sell_prey</text>
<polygon fill="#ffffff" stroke="none" points="13,-31 13,-44 180,-44 180,-31 13,-31"/>
<text text-anchor="start" x="14" y="-36" font-family="Times,serif" font-weight="bold" font-size="10.00">увеличить влияние </text>
<text text-anchor="start" x="102" y="-36" font-family="Times,serif" font-size="10.00">  place_2 </text>
<text text-anchor="start" x="142" y="-36" font-family="Times,serif" font-weight="bold" font-size="10.00">на </text>
<text text-anchor="start" x="155" y="-36" font-family="Times,serif" font-size="10.00"> 1.00</text>
<polygon fill="#eeeeee" stroke="none" points="13,-18 13,-31 180,-31 180,-18 13,-18"/>
<text text-anchor="start" x="14" y="-23" font-family="Times,serif" font-weight="bold" font-size="10.00">результаты:</text>
<text text-anchor="start" x="14" y="-10" font-family="Times,serif" font-weight="bold" font-size="10.00">place_2</text>
<text text-anchor="start" x="98" y="-9" font-family="Times,serif" font-size="10.00">successed</text>
<polygon fill="none" stroke="black" points="11.5,-4 11.5,-98 180.5,-98 180.5,-4 11.5,-4"/>
</g>
<!-- [ns&#45;0]fight_0 -->
<g id="node4" class="node"><title>[ns&#45;0]fight_0</title>
<polygon fill="#ddffdd" stroke="none" points="27.5,-1018.5 27.5,-1073.5 164.5,-1073.5 164.5,-1018.5 27.5,-1018.5"/>
<text text-anchor="start" x="30" y="-1063.5" font-family="Times,serif" font-style="italic" font-size="10.00">[ns&#45;0]fight_0</text>
<text text-anchor="start" x="30" y="-1049" font-family="Times,serif" font-size="10.00">Сражение с жертвой</text>
<polygon fill="#eeffee" stroke="none" points="29,-1032 29,-1045 164,-1045 164,-1032 29,-1032"/>
<text text-anchor="start" x="30" y="-1037" font-family="Times,serif" font-weight="bold" font-size="10.00">сообщение:</text>
<text text-anchor="start" x="82" y="-1037" font-family="Times,serif" font-size="10.00"> fight</text>
<polygon fill="#eeffee" stroke="none" points="29,-1019 29,-1032 164,-1032 164,-1019 29,-1019"/>
<text text-anchor="start" x="30" y="-1024" font-family="Times,serif" font-weight="bold" font-size="10.00">сразиться с</text>
<text text-anchor="start" x="82" y="-1024" font-family="Times,serif" font-size="10.00">  mob_1</text>
<polygon fill="none" stroke="black" points="27.5,-1018.5 27.5,-1073.5 164.5,-1073.5 164.5,-1018.5 27.5,-1018.5"/>
</g>
<!-- #jump([ns&#45;0]fight_0, [ns&#45;0]hunt_1) -->
<g id="node12" class="node"><title>#jump([ns&#45;0]fight_0, [ns&#45;0]hunt_1)</title>
<polygon fill="#eeeeee" stroke="none" points="46,-953 46,-967 147,-967 147,-953 46,-953"/>
<text text-anchor="start" x="47" y="-958.5" font-family="Times,serif" font-weight="bold" font-size="10.00">сообщение:</text>
<text text-anchor="start" x="99" y="-958.5" font-family="Times,serif" font-size="10.00"> start_track</text>
</g>
<!-- [ns&#45;0]fight_0&#45;&gt;#jump([ns&#45;0]fight_0, [ns&#45;0]hunt_1) -->
<g id="edge1" class="edge"><title>[ns&#45;0]fight_0:[ns&#45;0]fight_0&#45;&gt;#jump([ns&#45;0]fight_0, [ns&#45;0]hunt_1):#jump([ns&#45;0]fight_0, [ns&#45;0]hunt_1)</title>
<path fill="none" stroke="black" d="M96,-1018.42C96,-1000.35 96,-977.853 96,-967.177"/>
</g>
<!-- [ns&#45;0]fight_1 -->
<g id="node5" class="node"><title>[ns&#45;0]fight_1</title>
<polygon fill="#ddffdd" stroke="none" points="27.5,-750.5 27.5,-805.5 164.5,-805.5 164.5,-750.5 27.5,-750.5"/>
<text text-anchor="start" x="30" y="-795.5" font-family="Times,serif" font-style="italic" font-size="10.00">[ns&#45;0]fight_1</text>
<text text-anchor="start" x="30" y="-781" font-family="Times,serif" font-size="10.00">Сражение с жертвой</text>
<polygon fill="#eeffee" stroke="none" points="29,-764 29,-777 164,-777 164,-764 29,-764"/>
<text text-anchor="start" x="30" y="-769" font-family="Times,serif" font-weight="bold" font-size="10.00">сообщение:</text>
<text text-anchor="start" x="82" y="-769" font-family="Times,serif" font-size="10.00"> fight</text>
<polygon fill="#eeffee" stroke="none" points="29,-751 29,-764 164,-764 164,-751 29,-751"/>
<text text-anchor="start" x="30" y="-756" font-family="Times,serif" font-weight="bold" font-size="10.00">сразиться с</text>
<text text-anchor="start" x="82" y="-756" font-family="Times,serif" font-size="10.00">  mob_1</text>
<polygon fill="none" stroke="black" points="27.5,-750.5 27.5,-805.5 164.5,-805.5 164.5,-750.5 27.5,-750.5"/>
</g>
<!-- #jump([ns&#45;0]fight_1, [ns&#45;0]hunt_2) -->
<g id="node13" class="node"><title>#jump([ns&#45;0]fight_1, [ns&#45;0]hunt_2)</title>
<polygon fill="#eeeeee" stroke="none" points="46,-685 46,-699 147,-699 147,-685 46,-685"/>
<text text-anchor="start" x="47" y="-690.5" font-family="Times,serif" font-weight="bold" font-size="10.00">сообщение:</text>
<text text-anchor="start" x="99" y="-690.5" font-family="Times,serif" font-size="10.00"> start_track</text>
</g>
<!-- [ns&#45;0]fight_1&#45;&gt;#jump([ns&#45;0]fight_1, [ns&#45;0]hunt_2) -->
<g id="edge4" class="edge"><title>[ns&#45;0]fight_1:[ns&#45;0]fight_1&#45;&gt;#jump([ns&#45;0]fight_1, [ns&#45;0]hunt_2):#jump([ns&#45;0]fight_1, [ns&#45;0]hunt_2)</title>
<path fill="none" stroke="black" d="M96,-750.422C96,-732.349 96,-709.853 96,-699.177"/>
</g>
<!-- [ns&#45;0]fight_3 -->
<g id="node6" class="node"><title>[ns&#45;0]fight_3</title>
<polygon fill="#ddffdd" stroke="none" points="27.5,-214.5 27.5,-269.5 164.5,-269.5 164.5,-214.5 27.5,-214.5"/>
<text text-anchor="start" x="30" y="-259.5" font-family="Times,serif" font-style="italic" font-size="10.00">[ns&#45;0]fight_3</text>
<text text-anchor="start" x="30" y="-245" font-family="Times,serif" font-size="10.00">Сражение с жертвой</text>
<polygon fill="#eeffee" stroke="none" points="29,-228 29,-241 164,-241 164,-228 29,-228"/>
<text text-anchor="start" x="30" y="-233" font-family="Times,serif" font-weight="bold" font-size="10.00">сообщение:</text>
<text text-anchor="start" x="82" y="-233" font-family="Times,serif" font-size="10.00"> fight</text>
<polygon fill="#eeffee" stroke="none" points="29,-215 29,-228 164,-228 164,-215 29,-215"/>
<text text-anchor="start" x="30" y="-220" font-family="Times,serif" font-weight="bold" font-size="10.00">сразиться с</text>
<text text-anchor="start" x="82" y="-220" font-family="Times,serif" font-size="10.00">  mob_1</text>
<polygon fill="none" stroke="black" points="27.5,-214.5 27.5,-269.5 164.5,-269.5 164.5,-214.5 27.5,-214.5"/>
</g>
<!-- #jump([ns&#45;0]fight_3, [ns&#45;0]sell_prey) -->
<g id="node17" class="node"><title>#jump([ns&#45;0]fight_3, [ns&#45;0]sell_prey)</title>
<polygon fill="#eeeeee" stroke="none" points="32,-149 32,-163 161,-163 161,-149 32,-149"/>
<text text-anchor="start" x="33" y="-154.5" font-family="Times,serif" font-weight="bold" font-size="10.00">сообщение:</text>
<text text-anchor="start" x="85" y="-154.5" font-family="Times,serif" font-size="10.00"> return_with_prey</text>
</g>
<!-- [ns&#45;0]fight_3&#45;&gt;#jump([ns&#45;0]fight_3, [ns&#45;0]sell_prey) -->
<g id="edge15" class="edge"><title>[ns&#45;0]fight_3:[ns&#45;0]fight_3&#45;&gt;#jump([ns&#45;0]fight_3, [ns&#45;0]sell_prey):#jump([ns&#45;0]fight_3, [ns&#45;0]sell_prey)</title>
<path fill="none" stroke="black" d="M96,-214.422C96,-196.349 96,-173.853 96,-163.177"/>
</g>
<!-- [ns&#45;0]hunt_0 -->
<g id="node7" class="node"><title>[ns&#45;0]hunt_0</title>
<polygon fill="#ddffdd" stroke="none" points="7.5,-1118.5 7.5,-1169.5 184.5,-1169.5 184.5,-1118.5 7.5,-1118.5"/>
<text text-anchor="start" x="10" y="-1159.5" font-family="Times,serif" font-style="italic" font-size="10.00">[ns&#45;0]hunt_0</text>
<text text-anchor="start" x="10" y="-1145" font-family="Times,serif" font-size="10.00">Охота</text>
<polygon fill="#eeffee" stroke="none" points="9,-1119 9,-1141 184,-1141 184,-1119 9,-1119"/>
<text text-anchor="start" x="10" y="-1133" font-family="Times,serif" font-weight="bold" font-size="10.00">отправить </text>
<text text-anchor="start" x="60" y="-1133" font-family="Times,serif" font-size="10.00"> hero</text>
<text text-anchor="start" x="81" y="-1133" font-family="Times,serif" font-weight="bold" font-size="10.00">бродить около</text>
<text text-anchor="start" x="147" y="-1133" font-family="Times,serif" font-size="10.00"> place_2</text>
<text text-anchor="start" x="47" y="-1123" font-family="Times,serif" font-size="10.00"> среди ландшафтов (0,)</text>
<polygon fill="none" stroke="black" points="7.5,-1118.5 7.5,-1169.5 184.5,-1169.5 184.5,-1118.5 7.5,-1118.5"/>
</g>
<!-- [ns&#45;0]hunt_0&#45;&gt;[ns&#45;0]fight_0 -->
<g id="edge7" class="edge"><title>[ns&#45;0]hunt_0:[ns&#45;0]hunt_0&#45;&gt;[ns&#45;0]fight_0:[ns&#45;0]fight_0</title>
<path fill="none" stroke="black" d="M96,-1118.28C96,-1107.81 96,-1095.4 96,-1083.89"/>
<polygon fill="black" stroke="black" points="99.5001,-1083.66 96,-1073.66 92.5001,-1083.66 99.5001,-1083.66"/>
</g>
<!-- [ns&#45;0]hunt_1 -->
<g id="node8" class="node"><title>[ns&#45;0]hunt_1</title>
<polygon fill="#ddffdd" stroke="none" points="7.5,-850.5 7.5,-901.5 184.5,-901.5 184.5,-850.5 7.5,-850.5"/>
<text text-anchor="start" x="10" y="-891.5" font-family="Times,serif" font-style="italic" font-size="10.00">[ns&#45;0]hunt_1</text>
<text text-anchor="start" x="10" y="-877" font-family="Times,serif" font-size="10.00">Охота</text>
<polygon fill="#eeffee" stroke="none" points="9,-851 9,-873 184,-873 184,-851 9,-851"/>
<text text-anchor="start" x="10" y="-865" font-family="Times,serif" font-weight="bold" font-size="10.00">отправить </text>
<text text-anchor="start" x="60" y="-865" font-family="Times,serif" font-size="10.00"> hero</text>
<text text-anchor="start" x="81" y="-865" font-family="Times,serif" font-weight="bold" font-size="10.00">бродить около</text>
<text text-anchor="start" x="147" y="-865" font-family="Times,serif" font-size="10.00"> place_2</text>
<text text-anchor="start" x="47" y="-855" font-family="Times,serif" font-size="10.00"> среди ландшафтов (0,)</text>
<polygon fill="none" stroke="black" points="7.5,-850.5 7.5,-901.5 184.5,-901.5 184.5,-850.5 7.5,-850.5"/>
</g>
<!-- [ns&#45;0]hunt_1&#45;&gt;[ns&#45;0]fight_1 -->
<g id="edge3" class="edge"><title>[ns&#45;0]hunt_1:[ns&#45;0]hunt_1&#45;&gt;[ns&#45;0]fight_1:[ns&#45;0]fight_1</title>
<path fill="none" stroke="black" d="M96,-850.278C96,-839.814 96,-827.404 96,-815.894"/>
<polygon fill="black" stroke="black" points="99.5001,-815.66 96,-805.66 92.5001,-815.66 99.5001,-815.66"/>
</g>
<!-- [ns&#45;0]hunt_2 -->
<g id="node9" class="node"><title>[ns&#45;0]hunt_2</title>
<polygon fill="#ddffdd" stroke="none" points="7.5,-582.5 7.5,-633.5 184.5,-633.5 184.5,-582.5 7.5,-582.5"/>
<text text-anchor="start" x="10" y="-623.5" font-family="Times,serif" font-style="italic" font-size="10.00">[ns&#45;0]hunt_2</text>
<text text-anchor="start" x="10" y="-609" font-family="Times,serif" font-size="10.00">Охота</text>
<polygon fill="#eeffee" stroke="none" points="9,-583 9,-605 184,-605 184,-583 9,-583"/>
<text text-anchor="start" x="10" y="-597" font-family="Times,serif" font-weight="bold" font-size="10.00">отправить </text>
<text text-anchor="start" x="60" y="-597" font-family="Times,serif" font-size="10.00"> hero</text>
<text text-anchor="start" x="81" y="-597" font-family="Times,serif" font-weight="bold" font-size="10.00">бродить около</text>
<text text-anchor="start" x="147" y="-597" font-family="Times,serif" font-size="10.00"> place_2</text>
<text text-anchor="start" x="47" y="-587" font-family="Times,serif" font-size="10.00"> среди ландшафтов (0,)</text>
<polygon fill="none" stroke="black" points="7.5,-582.5 7.5,-633.5 184.5,-633.5 184.5,-582.5 7.5,-582.5"/>
</g>
<!-- [ns&#45;0]hunt_2&#45;&gt;[ns&#45;0]fight_2 -->
<g id="edge6" class="edge"><title>[ns&#45;0]hunt_2:[ns&#45;0]hunt_2&#45;&gt;[ns&#45;0]fight_2:[ns&#45;0]fight_2</title>
<path fill="none" stroke="black" d="M96,-582.278C96,-571.814 96,-559.404 96,-547.894"/>
<polygon fill="black" stroke="black" points="99.5001,-547.66 96,-537.66 92.5001,-547.66 99.5001,-547.66"/>
</g>
<!-- [ns&#45;0]hunt_3 -->
<g id="node10" class="node"><title>[ns&#45;0]hunt_3</title>
<polygon fill="#ddffdd" stroke="none" points="7.5,-314.5 7.5,-365.5 184.5,-365.5 184.5,-314.5 7.5,-314.5"/>
<text text-anchor="start" x="10" y="-355.5" font-family="Times,serif" font-style="italic" font-size="10.00">[ns&#45;0]hunt_3</text>
<text text-anchor="start" x="10" y="-341" font-family="Times,serif" font-size="10.00">Охота</text>
<polygon fill="#eeffee" stroke="none" points="9,-315 9,-337 184,-337 184,-315 9,-315"/>
<text text-anchor="start" x="10" y="-329" font-family="Times,serif" font-weight="bold" font-size="10.00">отправить </text>
<text text-anchor="start" x="60" y="-329" font-family="Times,serif" font-size="10.00"> hero</text>
<text text-anchor="start" x="81" y="-329" font-family="Times,serif" font-weight="bold" font-size="10.00">бродить около</text>
<text text-anchor="start" x="147" y="-329" font-family="Times,serif" font-size="10.00"> place_2</text>
<text text-anchor="start" x="47" y="-319" font-family="Times,serif" font-size="10.00"> среди ландшафтов (0,)</text>
<polygon fill="none" stroke="black" points="7.5,-314.5 7.5,-365.5 184.5,-365.5 184.5,-314.5 7.5,-314.5"/>
</g>
<!-- [ns&#45;0]hunt_3&#45;&gt;[ns&#45;0]fight_3 -->
<g id="edge14" class="edge"><title>[ns&#45;0]hunt_3:[ns&#45;0]hunt_3&#45;&gt;[ns&#45;0]fight_3:[ns&#45;0]fight_3</title>
<path fill="none" stroke="black" d="M96,-314.278C96,-303.814 96,-291.404 96,-279.894"/>
<polygon fill="black" stroke="black" points="99.5001,-279.66 96,-269.66 92.5001,-279.66 99.5001,-279.66"/>
</g>
<!-- [ns&#45;0]start_hunting -->
<g id="node11" class="node"><title>[ns&#45;0]start_hunting</title>
<polygon fill="#ddffdd" stroke="none" points="12,-1286 12,-1328 180,-1328 180,-1286 12,-1286"/>
<text text-anchor="start" x="14" y="-1318.5" font-family="Times,serif" font-style="italic" font-size="10.00">[ns&#45;0]start_hunting</text>
<text text-anchor="start" x="14" y="-1304" font-family="Times,serif" font-size="10.00">Прибытие в город охоты</text>
<polygon fill="#cceecc" stroke="none" points="13,-1287 13,-1300 179,-1300 179,-1287 13,-1287"/>
<text text-anchor="start" x="14" y="-1292" font-family="Times,serif" font-size="10.00">hero </text>
<text text-anchor="start" x="35" y="-1292" font-family="Times,serif" font-weight="bold" font-size="10.00">находится в</text>
<text text-anchor="start" x="90" y="-1292" font-family="Times,serif" font-size="10.00"> place_2</text>
<polygon fill="none" stroke="black" points="12,-1286 12,-1328 180,-1328 180,-1286 12,-1286"/>
</g>
<!-- #jump([ns&#45;0]start_hunting, [ns&#45;0]hunt_0) -->
<g id="node14" class="node"><title>#jump([ns&#45;0]start_hunting, [ns&#45;0]hunt_0)</title>
<polygon fill="#eeeeee" stroke="none" points="46,-1221 46,-1235 147,-1235 147,-1221 46,-1221"/>
<text text-anchor="start" x="47" y="-1226.5" font-family="Times,serif" font-weight="bold" font-size="10.00">сообщение:</text>
<text text-anchor="start" x="99" y="-1226.5" font-family="Times,serif" font-size="10.00"> start_track</text>
</g>
<!-- [ns&#45;0]start_hunting&#45;&gt;#jump([ns&#45;0]start_hunting, [ns&#45;0]hunt_0) -->
<g id="edge8" class="edge"><title>[ns&#45;0]start_hunting:[ns&#45;0]start_hunting&#45;&gt;#jump([ns&#45;0]start_hunting, [ns&#45;0]hunt_0):#jump([ns&#45;0]start_hunting, [ns&#45;0]hunt_0)</title>
<path fill="none" stroke="black" d="M96,-1285.77C96,-1269.02 96,-1246.25 96,-1235.34"/>
</g>
<!-- #jump([ns&#45;0]fight_0, [ns&#45;0]hunt_1)&#45;&gt;[ns&#45;0]hunt_1 -->
<g id="edge2" class="edge"><title>#jump([ns&#45;0]fight_0, [ns&#45;0]hunt_1):#jump([ns&#45;0]fight_0, [ns&#45;0]hunt_1)&#45;&gt;[ns&#45;0]hunt_1:[ns&#45;0]hunt_1</title>
<path fill="none" stroke="black" d="M96,-952.837C96,-944.121 96,-927.531 96,-912.086"/>
<polygon fill="black" stroke="black" points="99.5001,-911.686 96,-901.686 92.5001,-911.686 99.5001,-911.686"/>
</g>
<!-- #jump([ns&#45;0]fight_1, [ns&#45;0]hunt_2)&#45;&gt;[ns&#45;0]hunt_2 -->
<g id="edge5" class="edge"><title>#jump([ns&#45;0]fight_1, [ns&#45;0]hunt_2):#jump([ns&#45;0]fight_1, [ns&#45;0]hunt_2)&#45;&gt;[ns&#45;0]hunt_2:[ns&#45;0]hunt_2</title>
<path fill="none" stroke="black" d="M96,-684.837C96,-676.121 96,-659.531 96,-644.086"/>
<polygon fill="black" stroke="black" points="99.5001,-643.686 96,-633.686 92.5001,-643.686 99.5001,-643.686"/>
</g>
<!-- #jump([ns&#45;0]start_hunting, [ns&#45;0]hunt_0)&#45;&gt;[ns&#45;0]hunt_0 -->
<g id="edge9" class="edge"><title>#jump([ns&#45;0]start_hunting, [ns&#45;0]hunt_0):#jump([ns&#45;0]start_hunting, [ns&#45;0]hunt_0)&#45;&gt;[ns&#45;0]hunt_0:[ns&#45;0]hunt_0</title>
<path fill="none" stroke="black" d="M96,-1220.84C96,-1212.12 96,-1195.53 96,-1180.09"/>
<polygon fill="black" stroke="black" points="99.5001,-1179.69 96,-1169.69 92.5001,-1179.69 99.5001,-1179.69"/>
</g>
<!-- #jump([ns&#45;0]start, [ns&#45;0]start_hunting)&#45;&gt;[ns&#45;0]start_hunting -->
<g id="edge11" class="edge"><title>#jump([ns&#45;0]start, [ns&#45;0]start_hunting):#jump([ns&#45;0]start, [ns&#45;0]start_hunting)&#45;&gt;[ns&#45;0]start_hunting:[ns&#45;0]start_hunting</title>
<path fill="none" stroke="black" d="M96,-1378.96C96,-1370.2 96,-1353.38 96,-1338.31"/>
<polygon fill="black" stroke="black" points="99.5001,-1338.28 96,-1328.28 92.5001,-1338.28 99.5001,-1338.28"/>
</g>
<!-- #jump([ns&#45;0]fight_2, [ns&#45;0]hunt_3)&#45;&gt;[ns&#45;0]hunt_3 -->
<g id="edge13" class="edge"><title>#jump([ns&#45;0]fight_2, [ns&#45;0]hunt_3):#jump([ns&#45;0]fight_2, [ns&#45;0]hunt_3)&#45;&gt;[ns&#45;0]hunt_3:[ns&#45;0]hunt_3</title>
<path fill="none" stroke="black" d="M96,-416.837C96,-408.121 96,-391.531 96,-376.086"/>
<polygon fill="black" stroke="black" points="99.5001,-375.686 96,-365.686 92.5001,-375.686 99.5001,-375.686"/>
</g>
<!-- #jump([ns&#45;0]fight_3, [ns&#45;0]sell_prey)&#45;&gt;[ns&#45;0]sell_prey -->
<g id="edge16" class="edge"><title>#jump([ns&#45;0]fight_3, [ns&#45;0]sell_prey):#jump([ns&#45;0]fight_3, [ns&#45;0]sell_prey)&#45;&gt;[ns&#45;0]sell_prey:[ns&#45;0]sell_prey</title>
<path fill="none" stroke="black" d="M96,-148.865C96,-140.545 96,-124.829 96,-108.44"/>
<polygon fill="black" stroke="black" points="99.5001,-108.209 96,-98.2087 92.5001,-108.209 99.5001,-108.209"/>
</g>
</g>
</svg>
