<?xml version="1.0" encoding="UTF-8" standalone="no"?>
<!DOCTYPE svg PUBLIC "-//W3C//DTD SVG 1.1//EN"
 "http://www.w3.org/Graphics/SVG/1.1/DTD/svg11.dtd">
<!-- Generated by graphviz version 2.34.0 (20130907.0221)
 -->
<!-- Title: quest Pages: 1 -->
<svg width="1994pt" height="84pt"
 viewBox="0.00 0.00 1994.00 84.00" xmlns="http://www.w3.org/2000/svg" xmlns:xlink="http://www.w3.org/1999/xlink">
<g id="graph0" class="graph" transform="scale(1 1) rotate(0) translate(4 80)">
<title>quest</title>
<polygon fill="white" stroke="white" points="-4,4 -4,-80 1990,-80 1990,4 -4,4"/>
<!-- [ns&#45;0]start -->
<g id="node1" class="node"><title>[ns&#45;0]start</title>
<polygon fill="#eeeeee" stroke="none" points="8.5,-10.5 8.5,-65.5 125.5,-65.5 125.5,-10.5 8.5,-10.5"/>
<text text-anchor="start" x="11" y="-55.5" font-family="Times,serif" font-style="italic" font-size="10.00">[ns&#45;0]start</text>
<text text-anchor="start" x="105" y="-55.5" font-family="Times,serif" font-weight="bold" font-size="10.00">hunt</text>
<text text-anchor="start" x="11" y="-41" font-family="Times,serif" font-size="10.00">Начало: задание на охоту</text>
<polygon fill="#dddddd" stroke="none" points="10,-24 10,-37 125,-37 125,-24 10,-24"/>
<text text-anchor="start" x="11" y="-29" font-family="Times,serif" font-size="10.00">hero </text>
<text text-anchor="start" x="32" y="-29" font-family="Times,serif" font-weight="bold" font-size="10.00">находится в</text>
<text text-anchor="start" x="87" y="-29" font-family="Times,serif" font-size="10.00"> place_2</text>
<polygon fill="#ffffff" stroke="none" points="10,-11 10,-24 125,-24 125,-11 10,-11"/>
<text text-anchor="start" x="11" y="-16" font-family="Times,serif" font-weight="bold" font-size="10.00">сообщение:</text>
<text text-anchor="start" x="63" y="-16" font-family="Times,serif" font-size="10.00"> intro</text>
<polygon fill="none" stroke="black" points="8.5,-10.5 8.5,-65.5 125.5,-65.5 125.5,-10.5 8.5,-10.5"/>
</g>
<!-- #jump([ns&#45;0]start, [ns&#45;0]start_hunting) -->
<g id="node8" class="node"><title>#jump([ns&#45;0]start, [ns&#45;0]start_hunting)</title>
<polygon fill="#eeeeee" stroke="none" points="178,-31 178,-45 296,-45 296,-31 178,-31"/>
<text text-anchor="start" x="179" y="-36.5" font-family="Times,serif" font-weight="bold" font-size="10.00">сообщение:</text>
<text text-anchor="start" x="231" y="-36.5" font-family="Times,serif" font-size="10.00"> move_to_hunt</text>
</g>
<!-- [ns&#45;0]start&#45;&gt;#jump([ns&#45;0]start, [ns&#45;0]start_hunting) -->
<g id="edge1" class="edge"><title>[ns&#45;0]start:[ns&#45;0]start&#45;&gt;#jump([ns&#45;0]start, [ns&#45;0]start_hunting):#jump([ns&#45;0]start, [ns&#45;0]start_hunting)</title>
<path fill="none" stroke="black" d="M125.504,-38C142.408,-38 160.865,-38 177.811,-38"/>
</g>
<!-- [ns&#45;0]sell_prey -->
<g id="node2" class="node"><title>[ns&#45;0]sell_prey</title>
<polygon fill="#eeeeee" stroke="none" points="1810.5,-4 1810.5,-72 1977.5,-72 1977.5,-4 1810.5,-4"/>
<text text-anchor="start" x="1813" y="-62.5" font-family="Times,serif" font-style="italic" font-size="10.00">[ns&#45;0]sell_prey</text>
<text text-anchor="start" x="1936" y="-62.5" font-family="Times,serif" font-weight="bold" font-size="10.00">sell_prey</text>
<text text-anchor="start" x="1813" y="-48" font-family="Times,serif" font-size="10.00">Продать добычу</text>
<polygon fill="#dddddd" stroke="none" points="1812,-31 1812,-44 1977,-44 1977,-31 1812,-31"/>
<text text-anchor="start" x="1813" y="-36" font-family="Times,serif" font-size="10.00">hero </text>
<text text-anchor="start" x="1834" y="-36" font-family="Times,serif" font-weight="bold" font-size="10.00">находится в</text>
<text text-anchor="start" x="1889" y="-36" font-family="Times,serif" font-size="10.00"> place_3</text>
<polygon fill="#ffffff" stroke="none" points="1812,-18 1812,-31 1977,-31 1977,-18 1812,-18"/>
<text text-anchor="start" x="1813" y="-23" font-family="Times,serif" font-weight="bold" font-size="10.00">сообщение:</text>
<text text-anchor="start" x="1865" y="-23" font-family="Times,serif" font-size="10.00"> sell_prey</text>
<polygon fill="#ffffff" stroke="none" points="1812,-5 1812,-18 1977,-18 1977,-5 1812,-5"/>
<text text-anchor="start" x="1813" y="-10" font-family="Times,serif" font-weight="bold" font-size="10.00">увеличить влияние </text>
<text text-anchor="start" x="1901" y="-10" font-family="Times,serif" font-size="10.00">  place_3 </text>
<text text-anchor="start" x="1941" y="-10" font-family="Times,serif" font-weight="bold" font-size="10.00">на </text>
<text text-anchor="start" x="1954" y="-10" font-family="Times,serif" font-size="10.00"> 1.00</text>
<polygon fill="none" stroke="black" points="1810.5,-4 1810.5,-72 1977.5,-72 1977.5,-4 1810.5,-4"/>
</g>
<!-- [ns&#45;0]fight_0 -->
<g id="node3" class="node"><title>[ns&#45;0]fight_0</title>
<polygon fill="#ddffdd" stroke="none" points="928.5,-10.5 928.5,-65.5 1033.5,-65.5 1033.5,-10.5 928.5,-10.5"/>
<text text-anchor="start" x="931" y="-55.5" font-family="Times,serif" font-style="italic" font-size="10.00">[ns&#45;0]fight_0</text>
<text text-anchor="start" x="931" y="-41" font-family="Times,serif" font-size="10.00">Сражение с жертвой</text>
<polygon fill="#eeffee" stroke="none" points="930,-24 930,-37 1033,-37 1033,-24 930,-24"/>
<text text-anchor="start" x="931" y="-29" font-family="Times,serif" font-weight="bold" font-size="10.00">сообщение:</text>
<text text-anchor="start" x="983" y="-29" font-family="Times,serif" font-size="10.00"> fight</text>
<polygon fill="#eeffee" stroke="none" points="930,-11 930,-24 1033,-24 1033,-11 930,-11"/>
<text text-anchor="start" x="931" y="-16" font-family="Times,serif" font-weight="bold" font-size="10.00">сразиться с</text>
<text text-anchor="start" x="983" y="-16" font-family="Times,serif" font-size="10.00">  mob_1</text>
<polygon fill="none" stroke="black" points="928.5,-10.5 928.5,-65.5 1033.5,-65.5 1033.5,-10.5 928.5,-10.5"/>
</g>
<!-- #jump([ns&#45;0]fight_0, [ns&#45;0]hunt_1) -->
<g id="node9" class="node"><title>#jump([ns&#45;0]fight_0, [ns&#45;0]hunt_1)</title>
<polygon fill="#eeeeee" stroke="none" points="1087,-31 1087,-45 1188,-45 1188,-31 1087,-31"/>
<text text-anchor="start" x="1088" y="-36.5" font-family="Times,serif" font-weight="bold" font-size="10.00">сообщение:</text>
<text text-anchor="start" x="1140" y="-36.5" font-family="Times,serif" font-size="10.00"> start_track</text>
</g>
<!-- [ns&#45;0]fight_0&#45;&gt;#jump([ns&#45;0]fight_0, [ns&#45;0]hunt_1) -->
<g id="edge3" class="edge"><title>[ns&#45;0]fight_0:[ns&#45;0]fight_0&#45;&gt;#jump([ns&#45;0]fight_0, [ns&#45;0]hunt_1):#jump([ns&#45;0]fight_0, [ns&#45;0]hunt_1)</title>
<path fill="none" stroke="black" d="M1033.81,-38C1050.79,-38 1069.54,-38 1086.35,-38"/>
</g>
<!-- [ns&#45;0]fight_1 -->
<g id="node4" class="node"><title>[ns&#45;0]fight_1</title>
<polygon fill="#ddffdd" stroke="none" points="1470.5,-10.5 1470.5,-65.5 1575.5,-65.5 1575.5,-10.5 1470.5,-10.5"/>
<text text-anchor="start" x="1473" y="-55.5" font-family="Times,serif" font-style="italic" font-size="10.00">[ns&#45;0]fight_1</text>
<text text-anchor="start" x="1473" y="-41" font-family="Times,serif" font-size="10.00">Сражение с жертвой</text>
<polygon fill="#eeffee" stroke="none" points="1472,-24 1472,-37 1575,-37 1575,-24 1472,-24"/>
<text text-anchor="start" x="1473" y="-29" font-family="Times,serif" font-weight="bold" font-size="10.00">сообщение:</text>
<text text-anchor="start" x="1525" y="-29" font-family="Times,serif" font-size="10.00"> fight</text>
<polygon fill="#eeffee" stroke="none" points="1472,-11 1472,-24 1575,-24 1575,-11 1472,-11"/>
<text text-anchor="start" x="1473" y="-16" font-family="Times,serif" font-weight="bold" font-size="10.00">сразиться с</text>
<text text-anchor="start" x="1525" y="-16" font-family="Times,serif" font-size="10.00">  mob_1</text>
<polygon fill="none" stroke="black" points="1470.5,-10.5 1470.5,-65.5 1575.5,-65.5 1575.5,-10.5 1470.5,-10.5"/>
</g>
<!-- #jump([ns&#45;0]fight_1, [ns&#45;0]sell_prey) -->
<g id="node10" class="node"><title>#jump([ns&#45;0]fight_1, [ns&#45;0]sell_prey)</title>
<polygon fill="#eeeeee" stroke="none" points="1629,-31 1629,-45 1758,-45 1758,-31 1629,-31"/>
<text text-anchor="start" x="1630" y="-36.5" font-family="Times,serif" font-weight="bold" font-size="10.00">сообщение:</text>
<text text-anchor="start" x="1682" y="-36.5" font-family="Times,serif" font-size="10.00"> return_with_prey</text>
</g>
<!-- [ns&#45;0]fight_1&#45;&gt;#jump([ns&#45;0]fight_1, [ns&#45;0]sell_prey) -->
<g id="edge7" class="edge"><title>[ns&#45;0]fight_1:[ns&#45;0]fight_1&#45;&gt;#jump([ns&#45;0]fight_1, [ns&#45;0]sell_prey):#jump([ns&#45;0]fight_1, [ns&#45;0]sell_prey)</title>
<path fill="none" stroke="black" d="M1575.86,-38C1592.43,-38 1610.91,-38 1628.2,-38"/>
</g>
<!-- [ns&#45;0]hunt_0 -->
<g id="node5" class="node"><title>[ns&#45;0]hunt_0</title>
<polygon fill="#ddffdd" stroke="none" points="698.5,-12.5 698.5,-63.5 875.5,-63.5 875.5,-12.5 698.5,-12.5"/>
<text text-anchor="start" x="701" y="-53.5" font-family="Times,serif" font-style="italic" font-size="10.00">[ns&#45;0]hunt_0</text>
<text text-anchor="start" x="701" y="-39" font-family="Times,serif" font-size="10.00">Охота</text>
<polygon fill="#eeffee" stroke="none" points="700,-13 700,-35 875,-35 875,-13 700,-13"/>
<text text-anchor="start" x="701" y="-27" font-family="Times,serif" font-weight="bold" font-size="10.00">отправить </text>
<text text-anchor="start" x="751" y="-27" font-family="Times,serif" font-size="10.00"> hero</text>
<text text-anchor="start" x="772" y="-27" font-family="Times,serif" font-weight="bold" font-size="10.00">бродить около</text>
<text text-anchor="start" x="838" y="-27" font-family="Times,serif" font-size="10.00"> place_3</text>
<text text-anchor="start" x="738" y="-17" font-family="Times,serif" font-size="10.00"> среди ландшафтов (0,)</text>
<polygon fill="none" stroke="black" points="698.5,-12.5 698.5,-63.5 875.5,-63.5 875.5,-12.5 698.5,-12.5"/>
</g>
<!-- [ns&#45;0]hunt_0&#45;&gt;[ns&#45;0]fight_0 -->
<g id="edge6" class="edge"><title>[ns&#45;0]hunt_0:[ns&#45;0]hunt_0&#45;&gt;[ns&#45;0]fight_0:[ns&#45;0]fight_0</title>
<path fill="none" stroke="black" d="M875.768,-38C875.768,-38 918.295,-38 918.295,-38"/>
<polygon fill="black" stroke="black" points="918.295,-41.5001 928.295,-38 918.295,-34.5001 918.295,-41.5001"/>
</g>
<!-- [ns&#45;0]hunt_1 -->
<g id="node6" class="node"><title>[ns&#45;0]hunt_1</title>
<polygon fill="#ddffdd" stroke="none" points="1240.5,-12.5 1240.5,-63.5 1417.5,-63.5 1417.5,-12.5 1240.5,-12.5"/>
<text text-anchor="start" x="1243" y="-53.5" font-family="Times,serif" font-style="italic" font-size="10.00">[ns&#45;0]hunt_1</text>
<text text-anchor="start" x="1243" y="-39" font-family="Times,serif" font-size="10.00">Охота</text>
<polygon fill="#eeffee" stroke="none" points="1242,-13 1242,-35 1417,-35 1417,-13 1242,-13"/>
<text text-anchor="start" x="1243" y="-27" font-family="Times,serif" font-weight="bold" font-size="10.00">отправить </text>
<text text-anchor="start" x="1293" y="-27" font-family="Times,serif" font-size="10.00"> hero</text>
<text text-anchor="start" x="1314" y="-27" font-family="Times,serif" font-weight="bold" font-size="10.00">бродить около</text>
<text text-anchor="start" x="1380" y="-27" font-family="Times,serif" font-size="10.00"> place_3</text>
<text text-anchor="start" x="1280" y="-17" font-family="Times,serif" font-size="10.00"> среди ландшафтов (0,)</text>
<polygon fill="none" stroke="black" points="1240.5,-12.5 1240.5,-63.5 1417.5,-63.5 1417.5,-12.5 1240.5,-12.5"/>
</g>
<!-- [ns&#45;0]hunt_1&#45;&gt;[ns&#45;0]fight_1 -->
<g id="edge5" class="edge"><title>[ns&#45;0]hunt_1:[ns&#45;0]hunt_1&#45;&gt;[ns&#45;0]fight_1:[ns&#45;0]fight_1</title>
<path fill="none" stroke="black" d="M1417.77,-38C1417.77,-38 1460.29,-38 1460.29,-38"/>
<polygon fill="black" stroke="black" points="1460.29,-41.5001 1470.29,-38 1460.29,-34.5001 1460.29,-41.5001"/>
</g>
<!-- [ns&#45;0]start_hunting -->
<g id="node7" class="node"><title>[ns&#45;0]start_hunting</title>
<polygon fill="#ddffdd" stroke="none" points="348,-17 348,-59 492,-59 492,-17 348,-17"/>
<text text-anchor="start" x="350" y="-49.5" font-family="Times,serif" font-style="italic" font-size="10.00">[ns&#45;0]start_hunting</text>
<text text-anchor="start" x="350" y="-35" font-family="Times,serif" font-size="10.00">Прибытие в город охоты</text>
<polygon fill="#cceecc" stroke="none" points="349,-18 349,-31 491,-31 491,-18 349,-18"/>
<text text-anchor="start" x="350" y="-23" font-family="Times,serif" font-size="10.00">hero </text>
<text text-anchor="start" x="371" y="-23" font-family="Times,serif" font-weight="bold" font-size="10.00">находится в</text>
<text text-anchor="start" x="426" y="-23" font-family="Times,serif" font-size="10.00"> place_3</text>
<polygon fill="none" stroke="black" points="348,-17 348,-59 492,-59 492,-17 348,-17"/>
</g>
<!-- #jump([ns&#45;0]start_hunting, [ns&#45;0]hunt_0) -->
<g id="node11" class="node"><title>#jump([ns&#45;0]start_hunting, [ns&#45;0]hunt_0)</title>
<polygon fill="#eeeeee" stroke="none" points="545,-31 545,-45 646,-45 646,-31 545,-31"/>
<text text-anchor="start" x="546" y="-36.5" font-family="Times,serif" font-weight="bold" font-size="10.00">сообщение:</text>
<text text-anchor="start" x="598" y="-36.5" font-family="Times,serif" font-size="10.00"> start_track</text>
</g>
<!-- [ns&#45;0]start_hunting&#45;&gt;#jump([ns&#45;0]start_hunting, [ns&#45;0]hunt_0) -->
<g id="edge9" class="edge"><title>[ns&#45;0]start_hunting:[ns&#45;0]start_hunting&#45;&gt;#jump([ns&#45;0]start_hunting, [ns&#45;0]hunt_0):#jump([ns&#45;0]start_hunting, [ns&#45;0]hunt_0)</title>
<path fill="none" stroke="black" d="M492.19,-38C509.702,-38 528.059,-38 544.335,-38"/>
</g>
<!-- #jump([ns&#45;0]start, [ns&#45;0]start_hunting)&#45;&gt;[ns&#45;0]start_hunting -->
<g id="edge2" class="edge"><title>#jump([ns&#45;0]start, [ns&#45;0]start_hunting):#jump([ns&#45;0]start, [ns&#45;0]start_hunting)&#45;&gt;[ns&#45;0]start_hunting:[ns&#45;0]start_hunting</title>
<path fill="none" stroke="black" d="M296.162,-38C296.162,-38 337.925,-38 337.925,-38"/>
<polygon fill="black" stroke="black" points="337.925,-41.5001 347.925,-38 337.925,-34.5001 337.925,-41.5001"/>
</g>
<!-- #jump([ns&#45;0]fight_0, [ns&#45;0]hunt_1)&#45;&gt;[ns&#45;0]hunt_1 -->
<g id="edge4" class="edge"><title>#jump([ns&#45;0]fight_0, [ns&#45;0]hunt_1):#jump([ns&#45;0]fight_0, [ns&#45;0]hunt_1)&#45;&gt;[ns&#45;0]hunt_1:[ns&#45;0]hunt_1</title>
<path fill="none" stroke="black" d="M1187.7,-38C1187.7,-38 1230.48,-38 1230.48,-38"/>
<polygon fill="black" stroke="black" points="1230.48,-41.5001 1240.48,-38 1230.48,-34.5001 1230.48,-41.5001"/>
</g>
<!-- #jump([ns&#45;0]fight_1, [ns&#45;0]sell_prey)&#45;&gt;[ns&#45;0]sell_prey -->
<g id="edge8" class="edge"><title>#jump([ns&#45;0]fight_1, [ns&#45;0]sell_prey):#jump([ns&#45;0]fight_1, [ns&#45;0]sell_prey)&#45;&gt;[ns&#45;0]sell_prey:[ns&#45;0]sell_prey</title>
<path fill="none" stroke="black" d="M1757.7,-38C1757.7,-38 1800.32,-38 1800.32,-38"/>
<polygon fill="black" stroke="black" points="1800.32,-41.5001 1810.32,-38 1800.32,-34.5001 1800.32,-41.5001"/>
</g>
<!-- #jump([ns&#45;0]start_hunting, [ns&#45;0]hunt_0)&#45;&gt;[ns&#45;0]hunt_0 -->
<g id="edge10" class="edge"><title>#jump([ns&#45;0]start_hunting, [ns&#45;0]hunt_0):#jump([ns&#45;0]start_hunting, [ns&#45;0]hunt_0)&#45;&gt;[ns&#45;0]hunt_0:[ns&#45;0]hunt_0</title>
<path fill="none" stroke="black" d="M645.697,-38C645.697,-38 688.48,-38 688.48,-38"/>
<polygon fill="black" stroke="black" points="688.48,-41.5001 698.48,-38 688.48,-34.5001 688.48,-41.5001"/>
</g>
</g>
</svg>
