<?xml version="1.0" encoding="UTF-8" standalone="no"?>
<!DOCTYPE svg PUBLIC "-//W3C//DTD SVG 1.1//EN"
 "http://www.w3.org/Graphics/SVG/1.1/DTD/svg11.dtd">
<!-- Generated by graphviz version 2.38.0 (20140413.2041)
 -->
<!-- Title: quest Pages: 1 -->
<svg width="259pt" height="1479pt"
 viewBox="0.00 0.00 259.00 1479.00" xmlns="http://www.w3.org/2000/svg" xmlns:xlink="http://www.w3.org/1999/xlink">
<g id="graph0" class="graph" transform="scale(1 1) rotate(0) translate(4 1475)">
<title>quest</title>
<polygon fill="white" stroke="none" points="-4,4 -4,-1475 255,-1475 255,4 -4,4"/>
<!-- [ns&#45;0]start -->
<g id="node1" class="node"><title>[ns&#45;0]start</title>
<polygon fill="#eeeeee" stroke="none" points="68,-1413 68,-1467 183,-1467 183,-1413 68,-1413"/>
<text text-anchor="start" x="70.5" y="-1458" font-family="Times,serif" font-style="italic" font-size="10.00">[ns&#45;0]start</text>
<text text-anchor="start" x="151" y="-1458" font-family="Times,serif" font-weight="bold" font-size="10.00">hunt</text>
<text text-anchor="start" x="70.5" y="-1444" font-family="Times,serif" font-size="10.00">Начало: задание на охоту</text>
<polygon fill="#dddddd" stroke="none" points="69.5,-1427 69.5,-1440 182.5,-1440 182.5,-1427 69.5,-1427"/>
<text text-anchor="start" x="70.5" y="-1432" font-family="Times,serif" font-size="10.00">hero </text>
<text text-anchor="start" x="91.5" y="-1432" font-family="Times,serif" font-weight="bold" font-size="10.00">находится в</text>
<text text-anchor="start" x="146.5" y="-1432" font-family="Times,serif" font-size="10.00"> place_1</text>
<polygon fill="#ffffff" stroke="none" points="69.5,-1414 69.5,-1427 182.5,-1427 182.5,-1414 69.5,-1414"/>
<text text-anchor="start" x="70.5" y="-1419" font-family="Times,serif" font-weight="bold" font-size="10.00">сообщение:</text>
<text text-anchor="start" x="122.5" y="-1419" font-family="Times,serif" font-size="10.00"> intro</text>
<polygon fill="none" stroke="black" points="68,-1413 68,-1467 183,-1467 183,-1413 68,-1413"/>
</g>
<!-- #jump([ns&#45;0]start, [ns&#45;0]start_hunting) -->
<g id="node15" class="node"><title>#jump([ns&#45;0]start, [ns&#45;0]start_hunting)</title>
<polygon fill="#eeeeee" stroke="none" points="67.5,-1348 67.5,-1361 184.5,-1361 184.5,-1348 67.5,-1348"/>
<text text-anchor="start" x="68.5" y="-1353" font-family="Times,serif" font-weight="bold" font-size="10.00">сообщение:</text>
<text text-anchor="start" x="120.5" y="-1353" font-family="Times,serif" font-size="10.00"> move_to_hunt</text>
</g>
<!-- [ns&#45;0]start&#45;&gt;#jump([ns&#45;0]start, [ns&#45;0]start_hunting) -->
<g id="edge10" class="edge"><title>[ns&#45;0]start:[ns&#45;0]start&#45;&gt;#jump([ns&#45;0]start, [ns&#45;0]start_hunting):#jump([ns&#45;0]start, [ns&#45;0]start_hunting)</title>
<path fill="none" stroke="black" d="M125.5,-1412.74C125.5,-1394.69 125.5,-1372.18 125.5,-1361.77"/>
</g>
<!-- [ns&#45;0]fight_0 -->
<g id="node2" class="node"><title>[ns&#45;0]fight_0</title>
<polygon fill="#ddffdd" stroke="none" points="79.5,-992 79.5,-1046 171.5,-1046 171.5,-992 79.5,-992"/>
<text text-anchor="start" x="81.5" y="-1037" font-family="Times,serif" font-style="italic" font-size="10.00">[ns&#45;0]fight_0</text>
<text text-anchor="start" x="81.5" y="-1023" font-family="Times,serif" font-size="10.00">Сражение с жертвой</text>
<polygon fill="#eeffee" stroke="none" points="80.5,-1006 80.5,-1019 170.5,-1019 170.5,-1006 80.5,-1006"/>
<text text-anchor="start" x="81.5" y="-1011" font-family="Times,serif" font-weight="bold" font-size="10.00">сообщение:</text>
<text text-anchor="start" x="133.5" y="-1011" font-family="Times,serif" font-size="10.00"> fight</text>
<polygon fill="#eeffee" stroke="none" points="80.5,-993 80.5,-1006 170.5,-1006 170.5,-993 80.5,-993"/>
<text text-anchor="start" x="81.5" y="-998" font-family="Times,serif" font-weight="bold" font-size="10.00">сразиться с</text>
<text text-anchor="start" x="133.5" y="-998" font-family="Times,serif" font-size="10.00">  mob_1</text>
<polygon fill="none" stroke="black" points="79.5,-992 79.5,-1046 171.5,-1046 171.5,-992 79.5,-992"/>
</g>
<!-- #jump([ns&#45;0]fight_0, [ns&#45;0]hunt_1) -->
<g id="node12" class="node"><title>#jump([ns&#45;0]fight_0, [ns&#45;0]hunt_1)</title>
<polygon fill="#eeeeee" stroke="none" points="75.5,-927 75.5,-940 175.5,-940 175.5,-927 75.5,-927"/>
<text text-anchor="start" x="76.5" y="-932" font-family="Times,serif" font-weight="bold" font-size="10.00">сообщение:</text>
<text text-anchor="start" x="128.5" y="-932" font-family="Times,serif" font-size="10.00"> start_track</text>
</g>
<!-- [ns&#45;0]fight_0&#45;&gt;#jump([ns&#45;0]fight_0, [ns&#45;0]hunt_1) -->
<g id="edge1" class="edge"><title>[ns&#45;0]fight_0:[ns&#45;0]fight_0&#45;&gt;#jump([ns&#45;0]fight_0, [ns&#45;0]hunt_1):#jump([ns&#45;0]fight_0, [ns&#45;0]hunt_1)</title>
<path fill="none" stroke="black" d="M125.5,-991.738C125.5,-973.691 125.5,-951.179 125.5,-940.771"/>
</g>
<!-- [ns&#45;0]fight_1 -->
<g id="node3" class="node"><title>[ns&#45;0]fight_1</title>
<polygon fill="#ddffdd" stroke="none" points="79.5,-728 79.5,-782 171.5,-782 171.5,-728 79.5,-728"/>
<text text-anchor="start" x="81.5" y="-773" font-family="Times,serif" font-style="italic" font-size="10.00">[ns&#45;0]fight_1</text>
<text text-anchor="start" x="81.5" y="-759" font-family="Times,serif" font-size="10.00">Сражение с жертвой</text>
<polygon fill="#eeffee" stroke="none" points="80.5,-742 80.5,-755 170.5,-755 170.5,-742 80.5,-742"/>
<text text-anchor="start" x="81.5" y="-747" font-family="Times,serif" font-weight="bold" font-size="10.00">сообщение:</text>
<text text-anchor="start" x="133.5" y="-747" font-family="Times,serif" font-size="10.00"> fight</text>
<polygon fill="#eeffee" stroke="none" points="80.5,-729 80.5,-742 170.5,-742 170.5,-729 80.5,-729"/>
<text text-anchor="start" x="81.5" y="-734" font-family="Times,serif" font-weight="bold" font-size="10.00">сразиться с</text>
<text text-anchor="start" x="133.5" y="-734" font-family="Times,serif" font-size="10.00">  mob_1</text>
<polygon fill="none" stroke="black" points="79.5,-728 79.5,-782 171.5,-782 171.5,-728 79.5,-728"/>
</g>
<!-- #jump([ns&#45;0]fight_1, [ns&#45;0]hunt_2) -->
<g id="node13" class="node"><title>#jump([ns&#45;0]fight_1, [ns&#45;0]hunt_2)</title>
<polygon fill="#eeeeee" stroke="none" points="75.5,-663 75.5,-676 175.5,-676 175.5,-663 75.5,-663"/>
<text text-anchor="start" x="76.5" y="-668" font-family="Times,serif" font-weight="bold" font-size="10.00">сообщение:</text>
<text text-anchor="start" x="128.5" y="-668" font-family="Times,serif" font-size="10.00"> start_track</text>
</g>
<!-- [ns&#45;0]fight_1&#45;&gt;#jump([ns&#45;0]fight_1, [ns&#45;0]hunt_2) -->
<g id="edge4" class="edge"><title>[ns&#45;0]fight_1:[ns&#45;0]fight_1&#45;&gt;#jump([ns&#45;0]fight_1, [ns&#45;0]hunt_2):#jump([ns&#45;0]fight_1, [ns&#45;0]hunt_2)</title>
<path fill="none" stroke="black" d="M125.5,-727.738C125.5,-709.691 125.5,-687.179 125.5,-676.771"/>
</g>
<!-- [ns&#45;0]fight_2 -->
<g id="node4" class="node"><title>[ns&#45;0]fight_2</title>
<polygon fill="#ddffdd" stroke="none" points="79.5,-464 79.5,-518 171.5,-518 171.5,-464 79.5,-464"/>
<text text-anchor="start" x="81.5" y="-509" font-family="Times,serif" font-style="italic" font-size="10.00">[ns&#45;0]fight_2</text>
<text text-anchor="start" x="81.5" y="-495" font-family="Times,serif" font-size="10.00">Сражение с жертвой</text>
<polygon fill="#eeffee" stroke="none" points="80.5,-478 80.5,-491 170.5,-491 170.5,-478 80.5,-478"/>
<text text-anchor="start" x="81.5" y="-483" font-family="Times,serif" font-weight="bold" font-size="10.00">сообщение:</text>
<text text-anchor="start" x="133.5" y="-483" font-family="Times,serif" font-size="10.00"> fight</text>
<polygon fill="#eeffee" stroke="none" points="80.5,-465 80.5,-478 170.5,-478 170.5,-465 80.5,-465"/>
<text text-anchor="start" x="81.5" y="-470" font-family="Times,serif" font-weight="bold" font-size="10.00">сразиться с</text>
<text text-anchor="start" x="133.5" y="-470" font-family="Times,serif" font-size="10.00">  mob_1</text>
<polygon fill="none" stroke="black" points="79.5,-464 79.5,-518 171.5,-518 171.5,-464 79.5,-464"/>
</g>
<!-- #jump([ns&#45;0]fight_2, [ns&#45;0]hunt_3) -->
<g id="node16" class="node"><title>#jump([ns&#45;0]fight_2, [ns&#45;0]hunt_3)</title>
<polygon fill="#eeeeee" stroke="none" points="75.5,-399 75.5,-412 175.5,-412 175.5,-399 75.5,-399"/>
<text text-anchor="start" x="76.5" y="-404" font-family="Times,serif" font-weight="bold" font-size="10.00">сообщение:</text>
<text text-anchor="start" x="128.5" y="-404" font-family="Times,serif" font-size="10.00"> start_track</text>
</g>
<!-- [ns&#45;0]fight_2&#45;&gt;#jump([ns&#45;0]fight_2, [ns&#45;0]hunt_3) -->
<g id="edge12" class="edge"><title>[ns&#45;0]fight_2:[ns&#45;0]fight_2&#45;&gt;#jump([ns&#45;0]fight_2, [ns&#45;0]hunt_3):#jump([ns&#45;0]fight_2, [ns&#45;0]hunt_3)</title>
<path fill="none" stroke="black" d="M125.5,-463.738C125.5,-445.691 125.5,-423.179 125.5,-412.771"/>
</g>
<!-- [ns&#45;0]fight_3 -->
<g id="node5" class="node"><title>[ns&#45;0]fight_3</title>
<polygon fill="#ddffdd" stroke="none" points="79.5,-200 79.5,-254 171.5,-254 171.5,-200 79.5,-200"/>
<text text-anchor="start" x="81.5" y="-245" font-family="Times,serif" font-style="italic" font-size="10.00">[ns&#45;0]fight_3</text>
<text text-anchor="start" x="81.5" y="-231" font-family="Times,serif" font-size="10.00">Сражение с жертвой</text>
<polygon fill="#eeffee" stroke="none" points="80.5,-214 80.5,-227 170.5,-227 170.5,-214 80.5,-214"/>
<text text-anchor="start" x="81.5" y="-219" font-family="Times,serif" font-weight="bold" font-size="10.00">сообщение:</text>
<text text-anchor="start" x="133.5" y="-219" font-family="Times,serif" font-size="10.00"> fight</text>
<polygon fill="#eeffee" stroke="none" points="80.5,-201 80.5,-214 170.5,-214 170.5,-201 80.5,-201"/>
<text text-anchor="start" x="81.5" y="-206" font-family="Times,serif" font-weight="bold" font-size="10.00">сразиться с</text>
<text text-anchor="start" x="133.5" y="-206" font-family="Times,serif" font-size="10.00">  mob_1</text>
<polygon fill="none" stroke="black" points="79.5,-200 79.5,-254 171.5,-254 171.5,-200 79.5,-200"/>
</g>
<!-- #jump([ns&#45;0]fight_3, [ns&#45;0]sell_prey) -->
<g id="node17" class="node"><title>#jump([ns&#45;0]fight_3, [ns&#45;0]sell_prey)</title>
<polygon fill="#eeeeee" stroke="none" points="61.5,-135 61.5,-148 189.5,-148 189.5,-135 61.5,-135"/>
<text text-anchor="start" x="62.5" y="-140" font-family="Times,serif" font-weight="bold" font-size="10.00">сообщение:</text>
<text text-anchor="start" x="114.5" y="-140" font-family="Times,serif" font-size="10.00"> return_with_prey</text>
</g>
<!-- [ns&#45;0]fight_3&#45;&gt;#jump([ns&#45;0]fight_3, [ns&#45;0]sell_prey) -->
<g id="edge15" class="edge"><title>[ns&#45;0]fight_3:[ns&#45;0]fight_3&#45;&gt;#jump([ns&#45;0]fight_3, [ns&#45;0]sell_prey):#jump([ns&#45;0]fight_3, [ns&#45;0]sell_prey)</title>
<path fill="none" stroke="black" d="M125.5,-199.738C125.5,-181.691 125.5,-159.179 125.5,-148.771"/>
</g>
<!-- [ns&#45;0]start_hunting -->
<g id="node6" class="node"><title>[ns&#45;0]start_hunting</title>
<polygon fill="#ddffdd" stroke="none" points="68,-1256 68,-1297 183,-1297 183,-1256 68,-1256"/>
<text text-anchor="start" x="70.5" y="-1287.5" font-family="Times,serif" font-style="italic" font-size="10.00">[ns&#45;0]start_hunting</text>
<text text-anchor="start" x="70.5" y="-1273.5" font-family="Times,serif" font-size="10.00">Прибытие в город охоты</text>
<polygon fill="#cceecc" stroke="none" points="69.5,-1256.5 69.5,-1269.5 182.5,-1269.5 182.5,-1256.5 69.5,-1256.5"/>
<text text-anchor="start" x="70.5" y="-1261.5" font-family="Times,serif" font-size="10.00">hero </text>
<text text-anchor="start" x="91.5" y="-1261.5" font-family="Times,serif" font-weight="bold" font-size="10.00">находится в</text>
<text text-anchor="start" x="146.5" y="-1261.5" font-family="Times,serif" font-size="10.00"> place_3</text>
<polygon fill="none" stroke="black" points="68,-1256 68,-1297 183,-1297 183,-1256 68,-1256"/>
</g>
<!-- #jump([ns&#45;0]start_hunting, [ns&#45;0]hunt_0) -->
<g id="node14" class="node"><title>#jump([ns&#45;0]start_hunting, [ns&#45;0]hunt_0)</title>
<polygon fill="#eeeeee" stroke="none" points="75.5,-1191 75.5,-1204 175.5,-1204 175.5,-1191 75.5,-1191"/>
<text text-anchor="start" x="76.5" y="-1196" font-family="Times,serif" font-weight="bold" font-size="10.00">сообщение:</text>
<text text-anchor="start" x="128.5" y="-1196" font-family="Times,serif" font-size="10.00"> start_track</text>
</g>
<!-- [ns&#45;0]start_hunting&#45;&gt;#jump([ns&#45;0]start_hunting, [ns&#45;0]hunt_0) -->
<g id="edge8" class="edge"><title>[ns&#45;0]start_hunting:[ns&#45;0]start_hunting&#45;&gt;#jump([ns&#45;0]start_hunting, [ns&#45;0]hunt_0):#jump([ns&#45;0]start_hunting, [ns&#45;0]hunt_0)</title>
<path fill="none" stroke="black" d="M125.5,-1255.8C125.5,-1238.8 125.5,-1215.35 125.5,-1204.69"/>
</g>
<!-- [ns&#45;0]hunt_0 -->
<g id="node7" class="node"><title>[ns&#45;0]hunt_0</title>
<polygon fill="#ddffdd" stroke="none" points="37.5,-1090 37.5,-1140 213.5,-1140 213.5,-1090 37.5,-1090"/>
<text text-anchor="start" x="39.5" y="-1131" font-family="Times,serif" font-style="italic" font-size="10.00">[ns&#45;0]hunt_0</text>
<text text-anchor="start" x="39.5" y="-1117" font-family="Times,serif" font-size="10.00">Охота</text>
<polygon fill="#eeffee" stroke="none" points="38.5,-1091 38.5,-1113 212.5,-1113 212.5,-1091 38.5,-1091"/>
<text text-anchor="start" x="39.5" y="-1105" font-family="Times,serif" font-weight="bold" font-size="10.00">отправить </text>
<text text-anchor="start" x="89.5" y="-1105" font-family="Times,serif" font-size="10.00"> hero</text>
<text text-anchor="start" x="110.5" y="-1105" font-family="Times,serif" font-weight="bold" font-size="10.00">бродить около</text>
<text text-anchor="start" x="176.5" y="-1105" font-family="Times,serif" font-size="10.00"> place_3</text>
<text text-anchor="start" x="76.5" y="-1095" font-family="Times,serif" font-size="10.00"> среди ландшафтов (0,)</text>
<polygon fill="none" stroke="black" points="37.5,-1090 37.5,-1140 213.5,-1140 213.5,-1090 37.5,-1090"/>
</g>
<!-- [ns&#45;0]hunt_0&#45;&gt;[ns&#45;0]fight_0 -->
<g id="edge7" class="edge"><title>[ns&#45;0]hunt_0:[ns&#45;0]hunt_0&#45;&gt;[ns&#45;0]fight_0:[ns&#45;0]fight_0</title>
<path fill="none" stroke="black" d="M125.5,-1089.79C125.5,-1079.55 125.5,-1067.4 125.5,-1056.13"/>
<polygon fill="black" stroke="black" points="129,-1056.1 125.5,-1046.1 122,-1056.1 129,-1056.1"/>
</g>
<!-- [ns&#45;0]hunt_1 -->
<g id="node8" class="node"><title>[ns&#45;0]hunt_1</title>
<polygon fill="#ddffdd" stroke="none" points="37.5,-826 37.5,-876 213.5,-876 213.5,-826 37.5,-826"/>
<text text-anchor="start" x="39.5" y="-867" font-family="Times,serif" font-style="italic" font-size="10.00">[ns&#45;0]hunt_1</text>
<text text-anchor="start" x="39.5" y="-853" font-family="Times,serif" font-size="10.00">Охота</text>
<polygon fill="#eeffee" stroke="none" points="38.5,-827 38.5,-849 212.5,-849 212.5,-827 38.5,-827"/>
<text text-anchor="start" x="39.5" y="-841" font-family="Times,serif" font-weight="bold" font-size="10.00">отправить </text>
<text text-anchor="start" x="89.5" y="-841" font-family="Times,serif" font-size="10.00"> hero</text>
<text text-anchor="start" x="110.5" y="-841" font-family="Times,serif" font-weight="bold" font-size="10.00">бродить около</text>
<text text-anchor="start" x="176.5" y="-841" font-family="Times,serif" font-size="10.00"> place_3</text>
<text text-anchor="start" x="76.5" y="-831" font-family="Times,serif" font-size="10.00"> среди ландшафтов (0,)</text>
<polygon fill="none" stroke="black" points="37.5,-826 37.5,-876 213.5,-876 213.5,-826 37.5,-826"/>
</g>
<!-- [ns&#45;0]hunt_1&#45;&gt;[ns&#45;0]fight_1 -->
<g id="edge3" class="edge"><title>[ns&#45;0]hunt_1:[ns&#45;0]hunt_1&#45;&gt;[ns&#45;0]fight_1:[ns&#45;0]fight_1</title>
<path fill="none" stroke="black" d="M125.5,-825.793C125.5,-815.547 125.5,-803.395 125.5,-792.126"/>
<polygon fill="black" stroke="black" points="129,-792.104 125.5,-782.104 122,-792.104 129,-792.104"/>
</g>
<!-- [ns&#45;0]hunt_2 -->
<g id="node9" class="node"><title>[ns&#45;0]hunt_2</title>
<polygon fill="#ddffdd" stroke="none" points="37.5,-562 37.5,-612 213.5,-612 213.5,-562 37.5,-562"/>
<text text-anchor="start" x="39.5" y="-603" font-family="Times,serif" font-style="italic" font-size="10.00">[ns&#45;0]hunt_2</text>
<text text-anchor="start" x="39.5" y="-589" font-family="Times,serif" font-size="10.00">Охота</text>
<polygon fill="#eeffee" stroke="none" points="38.5,-563 38.5,-585 212.5,-585 212.5,-563 38.5,-563"/>
<text text-anchor="start" x="39.5" y="-577" font-family="Times,serif" font-weight="bold" font-size="10.00">отправить </text>
<text text-anchor="start" x="89.5" y="-577" font-family="Times,serif" font-size="10.00"> hero</text>
<text text-anchor="start" x="110.5" y="-577" font-family="Times,serif" font-weight="bold" font-size="10.00">бродить около</text>
<text text-anchor="start" x="176.5" y="-577" font-family="Times,serif" font-size="10.00"> place_3</text>
<text text-anchor="start" x="76.5" y="-567" font-family="Times,serif" font-size="10.00"> среди ландшафтов (0,)</text>
<polygon fill="none" stroke="black" points="37.5,-562 37.5,-612 213.5,-612 213.5,-562 37.5,-562"/>
</g>
<!-- [ns&#45;0]hunt_2&#45;&gt;[ns&#45;0]fight_2 -->
<g id="edge6" class="edge"><title>[ns&#45;0]hunt_2:[ns&#45;0]hunt_2&#45;&gt;[ns&#45;0]fight_2:[ns&#45;0]fight_2</title>
<path fill="none" stroke="black" d="M125.5,-561.793C125.5,-551.547 125.5,-539.395 125.5,-528.126"/>
<polygon fill="black" stroke="black" points="129,-528.104 125.5,-518.104 122,-528.104 129,-528.104"/>
</g>
<!-- [ns&#45;0]hunt_3 -->
<g id="node10" class="node"><title>[ns&#45;0]hunt_3</title>
<polygon fill="#ddffdd" stroke="none" points="37.5,-298 37.5,-348 213.5,-348 213.5,-298 37.5,-298"/>
<text text-anchor="start" x="39.5" y="-339" font-family="Times,serif" font-style="italic" font-size="10.00">[ns&#45;0]hunt_3</text>
<text text-anchor="start" x="39.5" y="-325" font-family="Times,serif" font-size="10.00">Охота</text>
<polygon fill="#eeffee" stroke="none" points="38.5,-299 38.5,-321 212.5,-321 212.5,-299 38.5,-299"/>
<text text-anchor="start" x="39.5" y="-313" font-family="Times,serif" font-weight="bold" font-size="10.00">отправить </text>
<text text-anchor="start" x="89.5" y="-313" font-family="Times,serif" font-size="10.00"> hero</text>
<text text-anchor="start" x="110.5" y="-313" font-family="Times,serif" font-weight="bold" font-size="10.00">бродить около</text>
<text text-anchor="start" x="176.5" y="-313" font-family="Times,serif" font-size="10.00"> place_3</text>
<text text-anchor="start" x="76.5" y="-303" font-family="Times,serif" font-size="10.00"> среди ландшафтов (0,)</text>
<polygon fill="none" stroke="black" points="37.5,-298 37.5,-348 213.5,-348 213.5,-298 37.5,-298"/>
</g>
<!-- [ns&#45;0]hunt_3&#45;&gt;[ns&#45;0]fight_3 -->
<g id="edge14" class="edge"><title>[ns&#45;0]hunt_3:[ns&#45;0]hunt_3&#45;&gt;[ns&#45;0]fight_3:[ns&#45;0]fight_3</title>
<path fill="none" stroke="black" d="M125.5,-297.793C125.5,-287.547 125.5,-275.395 125.5,-264.126"/>
<polygon fill="black" stroke="black" points="129,-264.104 125.5,-254.104 122,-264.104 129,-264.104"/>
</g>
<!-- [ns&#45;0]sell_prey -->
<g id="node11" class="node"><title>[ns&#45;0]sell_prey</title>
<polygon fill="#eeeeee" stroke="none" points="8,-4 8,-84 243,-84 243,-4 8,-4"/>
<text text-anchor="start" x="10.5" y="-75" font-family="Times,serif" font-style="italic" font-size="10.00">[ns&#45;0]sell_prey</text>
<text text-anchor="start" x="10.5" y="-61" font-family="Times,serif" font-size="10.00">Продать добычу</text>
<polygon fill="#dddddd" stroke="none" points="9.5,-44 9.5,-57 242.5,-57 242.5,-44 9.5,-44"/>
<text text-anchor="start" x="10.5" y="-49" font-family="Times,serif" font-size="10.00">hero </text>
<text text-anchor="start" x="31.5" y="-49" font-family="Times,serif" font-weight="bold" font-size="10.00">находится в</text>
<text text-anchor="start" x="86.5" y="-49" font-family="Times,serif" font-size="10.00"> place_3</text>
<polygon fill="#ffffff" stroke="none" points="9.5,-31 9.5,-44 242.5,-44 242.5,-31 9.5,-31"/>
<text text-anchor="start" x="10.5" y="-36" font-family="Times,serif" font-weight="bold" font-size="10.00">выдать награду </text>
<text text-anchor="start" x="85.5" y="-36" font-family="Times,serif" font-size="10.00">  hero </text>
<text text-anchor="start" x="110.5" y="-36" font-family="Times,serif" font-weight="bold" font-size="10.00">типа </text>
<text text-anchor="start" x="134.5" y="-36" font-family="Times,serif" font-size="10.00"> sell_prey </text>
<text text-anchor="start" x="177.5" y="-36" font-family="Times,serif" font-weight="bold" font-size="10.00">в размере</text>
<text text-anchor="start" x="220.5" y="-36" font-family="Times,serif" font-size="10.00"> 1.00</text>
<polygon fill="#eeeeee" stroke="none" points="9.5,-18 9.5,-31 242.5,-31 242.5,-18 9.5,-18"/>
<text text-anchor="start" x="10.5" y="-23" font-family="Times,serif" font-weight="bold" font-size="10.00">результаты:</text>
<text text-anchor="start" x="10.5" y="-10" font-family="Times,serif" font-weight="bold" font-size="10.00">place_3</text>
<text text-anchor="start" x="138.5" y="-9" font-family="Times,serif" font-size="10.00">successed</text>
<polygon fill="none" stroke="black" points="8,-4 8,-84 243,-84 243,-4 8,-4"/>
</g>
<!-- #jump([ns&#45;0]fight_0, [ns&#45;0]hunt_1)&#45;&gt;[ns&#45;0]hunt_1 -->
<g id="edge2" class="edge"><title>#jump([ns&#45;0]fight_0, [ns&#45;0]hunt_1):#jump([ns&#45;0]fight_0, [ns&#45;0]hunt_1)&#45;&gt;[ns&#45;0]hunt_1:[ns&#45;0]hunt_1</title>
<path fill="none" stroke="black" d="M125.5,-927.433C125.5,-918.871 125.5,-901.81 125.5,-886.077"/>
<polygon fill="black" stroke="black" points="129,-886.032 125.5,-876.032 122,-886.032 129,-886.032"/>
</g>
<!-- #jump([ns&#45;0]fight_1, [ns&#45;0]hunt_2)&#45;&gt;[ns&#45;0]hunt_2 -->
<g id="edge5" class="edge"><title>#jump([ns&#45;0]fight_1, [ns&#45;0]hunt_2):#jump([ns&#45;0]fight_1, [ns&#45;0]hunt_2)&#45;&gt;[ns&#45;0]hunt_2:[ns&#45;0]hunt_2</title>
<path fill="none" stroke="black" d="M125.5,-663.433C125.5,-654.871 125.5,-637.81 125.5,-622.077"/>
<polygon fill="black" stroke="black" points="129,-622.032 125.5,-612.032 122,-622.032 129,-622.032"/>
</g>
<!-- #jump([ns&#45;0]start_hunting, [ns&#45;0]hunt_0)&#45;&gt;[ns&#45;0]hunt_0 -->
<g id="edge9" class="edge"><title>#jump([ns&#45;0]start_hunting, [ns&#45;0]hunt_0):#jump([ns&#45;0]start_hunting, [ns&#45;0]hunt_0)&#45;&gt;[ns&#45;0]hunt_0:[ns&#45;0]hunt_0</title>
<path fill="none" stroke="black" d="M125.5,-1191.43C125.5,-1182.87 125.5,-1165.81 125.5,-1150.08"/>
<polygon fill="black" stroke="black" points="129,-1150.03 125.5,-1140.03 122,-1150.03 129,-1150.03"/>
</g>
<!-- #jump([ns&#45;0]start, [ns&#45;0]start_hunting)&#45;&gt;[ns&#45;0]start_hunting -->
<g id="edge11" class="edge"><title>#jump([ns&#45;0]start, [ns&#45;0]start_hunting):#jump([ns&#45;0]start, [ns&#45;0]start_hunting)&#45;&gt;[ns&#45;0]start_hunting:[ns&#45;0]start_hunting</title>
<path fill="none" stroke="black" d="M125.5,-1348.5C125.5,-1339.92 125.5,-1322.77 125.5,-1307.47"/>
<polygon fill="black" stroke="black" points="129,-1307.31 125.5,-1297.31 122,-1307.31 129,-1307.31"/>
</g>
<!-- #jump([ns&#45;0]fight_2, [ns&#45;0]hunt_3)&#45;&gt;[ns&#45;0]hunt_3 -->
<g id="edge13" class="edge"><title>#jump([ns&#45;0]fight_2, [ns&#45;0]hunt_3):#jump([ns&#45;0]fight_2, [ns&#45;0]hunt_3)&#45;&gt;[ns&#45;0]hunt_3:[ns&#45;0]hunt_3</title>
<path fill="none" stroke="black" d="M125.5,-399.433C125.5,-390.871 125.5,-373.81 125.5,-358.077"/>
<polygon fill="black" stroke="black" points="129,-358.032 125.5,-348.032 122,-358.032 129,-358.032"/>
</g>
<!-- #jump([ns&#45;0]fight_3, [ns&#45;0]sell_prey)&#45;&gt;[ns&#45;0]sell_prey -->
<g id="edge16" class="edge"><title>#jump([ns&#45;0]fight_3, [ns&#45;0]sell_prey):#jump([ns&#45;0]fight_3, [ns&#45;0]sell_prey)&#45;&gt;[ns&#45;0]sell_prey:[ns&#45;0]sell_prey</title>
<path fill="none" stroke="black" d="M125.5,-135.282C125.5,-126.992 125.5,-110.826 125.5,-94.4371"/>
<polygon fill="black" stroke="black" points="129,-94.2719 125.5,-84.2719 122,-94.2719 129,-94.2719"/>
</g>
</g>
</svg>
