<?xml version="1.0" encoding="UTF-8" standalone="no"?>
<!DOCTYPE svg PUBLIC "-//W3C//DTD SVG 1.1//EN"
 "http://www.w3.org/Graphics/SVG/1.1/DTD/svg11.dtd">
<!-- Generated by graphviz version 2.34.0 (20130907.0221)
 -->
<!-- Title: quest Pages: 1 -->
<svg width="232pt" height="1206pt"
 viewBox="0.00 0.00 232.00 1206.00" xmlns="http://www.w3.org/2000/svg" xmlns:xlink="http://www.w3.org/1999/xlink">
<g id="graph0" class="graph" transform="scale(1 1) rotate(0) translate(4 1202)">
<title>quest</title>
<polygon fill="white" stroke="white" points="-4,4 -4,-1202 228,-1202 228,4 -4,4"/>
<!-- [ns&#45;0]start -->
<g id="node1" class="node"><title>[ns&#45;0]start</title>
<polygon fill="#eeeeee" stroke="none" points="53.5,-1138.5 53.5,-1193.5 170.5,-1193.5 170.5,-1138.5 53.5,-1138.5"/>
<text text-anchor="start" x="56" y="-1183.5" font-family="Times,serif" font-style="italic" font-size="10.00">[ns&#45;0]start</text>
<text text-anchor="start" x="132" y="-1183.5" font-family="Times,serif" font-weight="bold" font-size="10.00">hunt</text>
<text text-anchor="start" x="56" y="-1169" font-family="Times,serif" font-size="10.00">Начало: задание на охоту</text>
<polygon fill="#dddddd" stroke="none" points="55,-1152 55,-1165 170,-1165 170,-1152 55,-1152"/>
<text text-anchor="start" x="56" y="-1157" font-family="Times,serif" font-size="10.00">hero </text>
<text text-anchor="start" x="77" y="-1157" font-family="Times,serif" font-weight="bold" font-size="10.00">находится в</text>
<text text-anchor="start" x="132" y="-1157" font-family="Times,serif" font-size="10.00"> place_1</text>
<polygon fill="#ffffff" stroke="none" points="55,-1139 55,-1152 170,-1152 170,-1139 55,-1139"/>
<text text-anchor="start" x="56" y="-1144" font-family="Times,serif" font-weight="bold" font-size="10.00">сообщение:</text>
<text text-anchor="start" x="108" y="-1144" font-family="Times,serif" font-size="10.00"> intro</text>
<polygon fill="none" stroke="black" points="53.5,-1138.5 53.5,-1193.5 170.5,-1193.5 170.5,-1138.5 53.5,-1138.5"/>
</g>
<!-- #jump([ns&#45;0]start, [ns&#45;0]start_hunting) -->
<g id="node14" class="node"><title>#jump([ns&#45;0]start, [ns&#45;0]start_hunting)</title>
<polygon fill="#eeeeee" stroke="none" points="53,-1073 53,-1087 171,-1087 171,-1073 53,-1073"/>
<text text-anchor="start" x="54" y="-1078.5" font-family="Times,serif" font-weight="bold" font-size="10.00">сообщение:</text>
<text text-anchor="start" x="106" y="-1078.5" font-family="Times,serif" font-size="10.00"> move_to_hunt</text>
</g>
<!-- [ns&#45;0]start&#45;&gt;#jump([ns&#45;0]start, [ns&#45;0]start_hunting) -->
<g id="edge12" class="edge"><title>[ns&#45;0]start:[ns&#45;0]start&#45;&gt;#jump([ns&#45;0]start, [ns&#45;0]start_hunting):#jump([ns&#45;0]start, [ns&#45;0]start_hunting)</title>
<path fill="none" stroke="black" d="M112,-1138.42C112,-1120.35 112,-1097.85 112,-1087.18"/>
</g>
<!-- [ns&#45;0]sell_prey -->
<g id="node2" class="node"><title>[ns&#45;0]sell_prey</title>
<polygon fill="#eeeeee" stroke="none" points="7.5,-4.5 7.5,-59.5 216.5,-59.5 216.5,-4.5 7.5,-4.5"/>
<text text-anchor="start" x="10" y="-49.5" font-family="Times,serif" font-style="italic" font-size="10.00">[ns&#45;0]sell_prey</text>
<text text-anchor="start" x="113" y="-49.5" font-family="Times,serif" font-weight="bold" font-size="10.00">sell_prey</text>
<text text-anchor="start" x="175" y="-49.5" font-family="Times,serif" font-weight="bold" font-size="10.00">successed</text>
<text text-anchor="start" x="10" y="-35" font-family="Times,serif" font-size="10.00">Продать добычу</text>
<polygon fill="#dddddd" stroke="none" points="9,-18 9,-31 174,-31 174,-18 9,-18"/>
<text text-anchor="start" x="10" y="-23" font-family="Times,serif" font-size="10.00">hero </text>
<text text-anchor="start" x="31" y="-23" font-family="Times,serif" font-weight="bold" font-size="10.00">находится в</text>
<text text-anchor="start" x="86" y="-23" font-family="Times,serif" font-size="10.00"> place_2</text>
<polygon fill="#ffffff" stroke="none" points="9,-5 9,-18 174,-18 174,-5 9,-5"/>
<text text-anchor="start" x="10" y="-10" font-family="Times,serif" font-weight="bold" font-size="10.00">увеличить влияние </text>
<text text-anchor="start" x="98" y="-10" font-family="Times,serif" font-size="10.00">  place_2 </text>
<text text-anchor="start" x="138" y="-10" font-family="Times,serif" font-weight="bold" font-size="10.00">на </text>
<text text-anchor="start" x="151" y="-10" font-family="Times,serif" font-size="10.00"> 1.00</text>
<polygon fill="none" stroke="black" points="7.5,-4.5 7.5,-59.5 216.5,-59.5 216.5,-4.5 7.5,-4.5"/>
</g>
<!-- [ns&#45;0]fight_0 -->
<g id="node3" class="node"><title>[ns&#45;0]fight_0</title>
<polygon fill="#ddffdd" stroke="none" points="43.5,-712.5 43.5,-767.5 180.5,-767.5 180.5,-712.5 43.5,-712.5"/>
<text text-anchor="start" x="46" y="-757.5" font-family="Times,serif" font-style="italic" font-size="10.00">[ns&#45;0]fight_0</text>
<text text-anchor="start" x="46" y="-743" font-family="Times,serif" font-size="10.00">Сражение с жертвой</text>
<polygon fill="#eeffee" stroke="none" points="45,-726 45,-739 180,-739 180,-726 45,-726"/>
<text text-anchor="start" x="46" y="-731" font-family="Times,serif" font-weight="bold" font-size="10.00">сообщение:</text>
<text text-anchor="start" x="98" y="-731" font-family="Times,serif" font-size="10.00"> fight</text>
<polygon fill="#eeffee" stroke="none" points="45,-713 45,-726 180,-726 180,-713 45,-713"/>
<text text-anchor="start" x="46" y="-718" font-family="Times,serif" font-weight="bold" font-size="10.00">сразиться с</text>
<text text-anchor="start" x="98" y="-718" font-family="Times,serif" font-size="10.00">  mob_1</text>
<polygon fill="none" stroke="black" points="43.5,-712.5 43.5,-767.5 180.5,-767.5 180.5,-712.5 43.5,-712.5"/>
</g>
<!-- #jump([ns&#45;0]fight_0, [ns&#45;0]hunt_1) -->
<g id="node10" class="node"><title>#jump([ns&#45;0]fight_0, [ns&#45;0]hunt_1)</title>
<polygon fill="#eeeeee" stroke="none" points="62,-647 62,-661 163,-661 163,-647 62,-647"/>
<text text-anchor="start" x="63" y="-652.5" font-family="Times,serif" font-weight="bold" font-size="10.00">сообщение:</text>
<text text-anchor="start" x="115" y="-652.5" font-family="Times,serif" font-size="10.00"> start_track</text>
</g>
<!-- [ns&#45;0]fight_0&#45;&gt;#jump([ns&#45;0]fight_0, [ns&#45;0]hunt_1) -->
<g id="edge1" class="edge"><title>[ns&#45;0]fight_0:[ns&#45;0]fight_0&#45;&gt;#jump([ns&#45;0]fight_0, [ns&#45;0]hunt_1):#jump([ns&#45;0]fight_0, [ns&#45;0]hunt_1)</title>
<path fill="none" stroke="black" d="M112,-712.422C112,-694.349 112,-671.853 112,-661.177"/>
</g>
<!-- [ns&#45;0]fight_1 -->
<g id="node4" class="node"><title>[ns&#45;0]fight_1</title>
<polygon fill="#ddffdd" stroke="none" points="43.5,-444.5 43.5,-499.5 180.5,-499.5 180.5,-444.5 43.5,-444.5"/>
<text text-anchor="start" x="46" y="-489.5" font-family="Times,serif" font-style="italic" font-size="10.00">[ns&#45;0]fight_1</text>
<text text-anchor="start" x="46" y="-475" font-family="Times,serif" font-size="10.00">Сражение с жертвой</text>
<polygon fill="#eeffee" stroke="none" points="45,-458 45,-471 180,-471 180,-458 45,-458"/>
<text text-anchor="start" x="46" y="-463" font-family="Times,serif" font-weight="bold" font-size="10.00">сообщение:</text>
<text text-anchor="start" x="98" y="-463" font-family="Times,serif" font-size="10.00"> fight</text>
<polygon fill="#eeffee" stroke="none" points="45,-445 45,-458 180,-458 180,-445 45,-445"/>
<text text-anchor="start" x="46" y="-450" font-family="Times,serif" font-weight="bold" font-size="10.00">сразиться с</text>
<text text-anchor="start" x="98" y="-450" font-family="Times,serif" font-size="10.00">  mob_1</text>
<polygon fill="none" stroke="black" points="43.5,-444.5 43.5,-499.5 180.5,-499.5 180.5,-444.5 43.5,-444.5"/>
</g>
<!-- #jump([ns&#45;0]fight_1, [ns&#45;0]hunt_2) -->
<g id="node11" class="node"><title>#jump([ns&#45;0]fight_1, [ns&#45;0]hunt_2)</title>
<polygon fill="#eeeeee" stroke="none" points="62,-379 62,-393 163,-393 163,-379 62,-379"/>
<text text-anchor="start" x="63" y="-384.5" font-family="Times,serif" font-weight="bold" font-size="10.00">сообщение:</text>
<text text-anchor="start" x="115" y="-384.5" font-family="Times,serif" font-size="10.00"> start_track</text>
</g>
<!-- [ns&#45;0]fight_1&#45;&gt;#jump([ns&#45;0]fight_1, [ns&#45;0]hunt_2) -->
<g id="edge4" class="edge"><title>[ns&#45;0]fight_1:[ns&#45;0]fight_1&#45;&gt;#jump([ns&#45;0]fight_1, [ns&#45;0]hunt_2):#jump([ns&#45;0]fight_1, [ns&#45;0]hunt_2)</title>
<path fill="none" stroke="black" d="M112,-444.422C112,-426.349 112,-403.853 112,-393.177"/>
</g>
<!-- [ns&#45;0]fight_2 -->
<g id="node5" class="node"><title>[ns&#45;0]fight_2</title>
<polygon fill="#ddffdd" stroke="none" points="43.5,-176.5 43.5,-231.5 180.5,-231.5 180.5,-176.5 43.5,-176.5"/>
<text text-anchor="start" x="46" y="-221.5" font-family="Times,serif" font-style="italic" font-size="10.00">[ns&#45;0]fight_2</text>
<text text-anchor="start" x="46" y="-207" font-family="Times,serif" font-size="10.00">Сражение с жертвой</text>
<polygon fill="#eeffee" stroke="none" points="45,-190 45,-203 180,-203 180,-190 45,-190"/>
<text text-anchor="start" x="46" y="-195" font-family="Times,serif" font-weight="bold" font-size="10.00">сообщение:</text>
<text text-anchor="start" x="98" y="-195" font-family="Times,serif" font-size="10.00"> fight</text>
<polygon fill="#eeffee" stroke="none" points="45,-177 45,-190 180,-190 180,-177 45,-177"/>
<text text-anchor="start" x="46" y="-182" font-family="Times,serif" font-weight="bold" font-size="10.00">сразиться с</text>
<text text-anchor="start" x="98" y="-182" font-family="Times,serif" font-size="10.00">  mob_1</text>
<polygon fill="none" stroke="black" points="43.5,-176.5 43.5,-231.5 180.5,-231.5 180.5,-176.5 43.5,-176.5"/>
</g>
<!-- #jump([ns&#45;0]fight_2, [ns&#45;0]sell_prey) -->
<g id="node12" class="node"><title>#jump([ns&#45;0]fight_2, [ns&#45;0]sell_prey)</title>
<polygon fill="#eeeeee" stroke="none" points="48,-111 48,-125 177,-125 177,-111 48,-111"/>
<text text-anchor="start" x="49" y="-116.5" font-family="Times,serif" font-weight="bold" font-size="10.00">сообщение:</text>
<text text-anchor="start" x="101" y="-116.5" font-family="Times,serif" font-size="10.00"> return_with_prey</text>
</g>
<!-- [ns&#45;0]fight_2&#45;&gt;#jump([ns&#45;0]fight_2, [ns&#45;0]sell_prey) -->
<g id="edge8" class="edge"><title>[ns&#45;0]fight_2:[ns&#45;0]fight_2&#45;&gt;#jump([ns&#45;0]fight_2, [ns&#45;0]sell_prey):#jump([ns&#45;0]fight_2, [ns&#45;0]sell_prey)</title>
<path fill="none" stroke="black" d="M112,-176.422C112,-158.349 112,-135.853 112,-125.177"/>
</g>
<!-- [ns&#45;0]hunt_0 -->
<g id="node6" class="node"><title>[ns&#45;0]hunt_0</title>
<polygon fill="#ddffdd" stroke="none" points="23.5,-812.5 23.5,-863.5 200.5,-863.5 200.5,-812.5 23.5,-812.5"/>
<text text-anchor="start" x="26" y="-853.5" font-family="Times,serif" font-style="italic" font-size="10.00">[ns&#45;0]hunt_0</text>
<text text-anchor="start" x="26" y="-839" font-family="Times,serif" font-size="10.00">Охота</text>
<polygon fill="#eeffee" stroke="none" points="25,-813 25,-835 200,-835 200,-813 25,-813"/>
<text text-anchor="start" x="26" y="-827" font-family="Times,serif" font-weight="bold" font-size="10.00">отправить </text>
<text text-anchor="start" x="76" y="-827" font-family="Times,serif" font-size="10.00"> hero</text>
<text text-anchor="start" x="97" y="-827" font-family="Times,serif" font-weight="bold" font-size="10.00">бродить около</text>
<text text-anchor="start" x="163" y="-827" font-family="Times,serif" font-size="10.00"> place_2</text>
<text text-anchor="start" x="63" y="-817" font-family="Times,serif" font-size="10.00"> среди ландшафтов (0,)</text>
<polygon fill="none" stroke="black" points="23.5,-812.5 23.5,-863.5 200.5,-863.5 200.5,-812.5 23.5,-812.5"/>
</g>
<!-- [ns&#45;0]hunt_0&#45;&gt;[ns&#45;0]fight_0 -->
<g id="edge7" class="edge"><title>[ns&#45;0]hunt_0:[ns&#45;0]hunt_0&#45;&gt;[ns&#45;0]fight_0:[ns&#45;0]fight_0</title>
<path fill="none" stroke="black" d="M112,-812.278C112,-801.814 112,-789.404 112,-777.894"/>
<polygon fill="black" stroke="black" points="115.5,-777.66 112,-767.66 108.5,-777.66 115.5,-777.66"/>
</g>
<!-- [ns&#45;0]hunt_1 -->
<g id="node7" class="node"><title>[ns&#45;0]hunt_1</title>
<polygon fill="#ddffdd" stroke="none" points="23.5,-544.5 23.5,-595.5 200.5,-595.5 200.5,-544.5 23.5,-544.5"/>
<text text-anchor="start" x="26" y="-585.5" font-family="Times,serif" font-style="italic" font-size="10.00">[ns&#45;0]hunt_1</text>
<text text-anchor="start" x="26" y="-571" font-family="Times,serif" font-size="10.00">Охота</text>
<polygon fill="#eeffee" stroke="none" points="25,-545 25,-567 200,-567 200,-545 25,-545"/>
<text text-anchor="start" x="26" y="-559" font-family="Times,serif" font-weight="bold" font-size="10.00">отправить </text>
<text text-anchor="start" x="76" y="-559" font-family="Times,serif" font-size="10.00"> hero</text>
<text text-anchor="start" x="97" y="-559" font-family="Times,serif" font-weight="bold" font-size="10.00">бродить около</text>
<text text-anchor="start" x="163" y="-559" font-family="Times,serif" font-size="10.00"> place_2</text>
<text text-anchor="start" x="63" y="-549" font-family="Times,serif" font-size="10.00"> среди ландшафтов (0,)</text>
<polygon fill="none" stroke="black" points="23.5,-544.5 23.5,-595.5 200.5,-595.5 200.5,-544.5 23.5,-544.5"/>
</g>
<!-- [ns&#45;0]hunt_1&#45;&gt;[ns&#45;0]fight_1 -->
<g id="edge3" class="edge"><title>[ns&#45;0]hunt_1:[ns&#45;0]hunt_1&#45;&gt;[ns&#45;0]fight_1:[ns&#45;0]fight_1</title>
<path fill="none" stroke="black" d="M112,-544.278C112,-533.814 112,-521.404 112,-509.894"/>
<polygon fill="black" stroke="black" points="115.5,-509.66 112,-499.66 108.5,-509.66 115.5,-509.66"/>
</g>
<!-- [ns&#45;0]hunt_2 -->
<g id="node8" class="node"><title>[ns&#45;0]hunt_2</title>
<polygon fill="#ddffdd" stroke="none" points="23.5,-276.5 23.5,-327.5 200.5,-327.5 200.5,-276.5 23.5,-276.5"/>
<text text-anchor="start" x="26" y="-317.5" font-family="Times,serif" font-style="italic" font-size="10.00">[ns&#45;0]hunt_2</text>
<text text-anchor="start" x="26" y="-303" font-family="Times,serif" font-size="10.00">Охота</text>
<polygon fill="#eeffee" stroke="none" points="25,-277 25,-299 200,-299 200,-277 25,-277"/>
<text text-anchor="start" x="26" y="-291" font-family="Times,serif" font-weight="bold" font-size="10.00">отправить </text>
<text text-anchor="start" x="76" y="-291" font-family="Times,serif" font-size="10.00"> hero</text>
<text text-anchor="start" x="97" y="-291" font-family="Times,serif" font-weight="bold" font-size="10.00">бродить около</text>
<text text-anchor="start" x="163" y="-291" font-family="Times,serif" font-size="10.00"> place_2</text>
<text text-anchor="start" x="63" y="-281" font-family="Times,serif" font-size="10.00"> среди ландшафтов (0,)</text>
<polygon fill="none" stroke="black" points="23.5,-276.5 23.5,-327.5 200.5,-327.5 200.5,-276.5 23.5,-276.5"/>
</g>
<!-- [ns&#45;0]hunt_2&#45;&gt;[ns&#45;0]fight_2 -->
<g id="edge6" class="edge"><title>[ns&#45;0]hunt_2:[ns&#45;0]hunt_2&#45;&gt;[ns&#45;0]fight_2:[ns&#45;0]fight_2</title>
<path fill="none" stroke="black" d="M112,-276.278C112,-265.814 112,-253.404 112,-241.894"/>
<polygon fill="black" stroke="black" points="115.5,-241.66 112,-231.66 108.5,-241.66 115.5,-241.66"/>
</g>
<!-- [ns&#45;0]start_hunting -->
<g id="node9" class="node"><title>[ns&#45;0]start_hunting</title>
<polygon fill="#ddffdd" stroke="none" points="28,-980 28,-1022 196,-1022 196,-980 28,-980"/>
<text text-anchor="start" x="30" y="-1012.5" font-family="Times,serif" font-style="italic" font-size="10.00">[ns&#45;0]start_hunting</text>
<text text-anchor="start" x="30" y="-998" font-family="Times,serif" font-size="10.00">Прибытие в город охоты</text>
<polygon fill="#cceecc" stroke="none" points="29,-981 29,-994 195,-994 195,-981 29,-981"/>
<text text-anchor="start" x="30" y="-986" font-family="Times,serif" font-size="10.00">hero </text>
<text text-anchor="start" x="51" y="-986" font-family="Times,serif" font-weight="bold" font-size="10.00">находится в</text>
<text text-anchor="start" x="106" y="-986" font-family="Times,serif" font-size="10.00"> place_2</text>
<polygon fill="none" stroke="black" points="28,-980 28,-1022 196,-1022 196,-980 28,-980"/>
</g>
<!-- #jump([ns&#45;0]start_hunting, [ns&#45;0]hunt_0) -->
<g id="node13" class="node"><title>#jump([ns&#45;0]start_hunting, [ns&#45;0]hunt_0)</title>
<polygon fill="#eeeeee" stroke="none" points="62,-915 62,-929 163,-929 163,-915 62,-915"/>
<text text-anchor="start" x="63" y="-920.5" font-family="Times,serif" font-weight="bold" font-size="10.00">сообщение:</text>
<text text-anchor="start" x="115" y="-920.5" font-family="Times,serif" font-size="10.00"> start_track</text>
</g>
<!-- [ns&#45;0]start_hunting&#45;&gt;#jump([ns&#45;0]start_hunting, [ns&#45;0]hunt_0) -->
<g id="edge10" class="edge"><title>[ns&#45;0]start_hunting:[ns&#45;0]start_hunting&#45;&gt;#jump([ns&#45;0]start_hunting, [ns&#45;0]hunt_0):#jump([ns&#45;0]start_hunting, [ns&#45;0]hunt_0)</title>
<path fill="none" stroke="black" d="M112,-979.769C112,-963.015 112,-940.253 112,-929.342"/>
</g>
<!-- #jump([ns&#45;0]fight_0, [ns&#45;0]hunt_1)&#45;&gt;[ns&#45;0]hunt_1 -->
<g id="edge2" class="edge"><title>#jump([ns&#45;0]fight_0, [ns&#45;0]hunt_1):#jump([ns&#45;0]fight_0, [ns&#45;0]hunt_1)&#45;&gt;[ns&#45;0]hunt_1:[ns&#45;0]hunt_1</title>
<path fill="none" stroke="black" d="M112,-646.837C112,-638.121 112,-621.531 112,-606.086"/>
<polygon fill="black" stroke="black" points="115.5,-605.686 112,-595.686 108.5,-605.686 115.5,-605.686"/>
</g>
<!-- #jump([ns&#45;0]fight_1, [ns&#45;0]hunt_2)&#45;&gt;[ns&#45;0]hunt_2 -->
<g id="edge5" class="edge"><title>#jump([ns&#45;0]fight_1, [ns&#45;0]hunt_2):#jump([ns&#45;0]fight_1, [ns&#45;0]hunt_2)&#45;&gt;[ns&#45;0]hunt_2:[ns&#45;0]hunt_2</title>
<path fill="none" stroke="black" d="M112,-378.837C112,-370.121 112,-353.531 112,-338.086"/>
<polygon fill="black" stroke="black" points="115.5,-337.686 112,-327.686 108.5,-337.686 115.5,-337.686"/>
</g>
<!-- #jump([ns&#45;0]fight_2, [ns&#45;0]sell_prey)&#45;&gt;[ns&#45;0]sell_prey -->
<g id="edge9" class="edge"><title>#jump([ns&#45;0]fight_2, [ns&#45;0]sell_prey):#jump([ns&#45;0]fight_2, [ns&#45;0]sell_prey)&#45;&gt;[ns&#45;0]sell_prey:[ns&#45;0]sell_prey</title>
<path fill="none" stroke="black" d="M112,-110.959C112,-102.257 112,-85.504 112,-69.7518"/>
<polygon fill="black" stroke="black" points="115.5,-69.6394 112,-59.6394 108.5,-69.6395 115.5,-69.6394"/>
</g>
<!-- #jump([ns&#45;0]start_hunting, [ns&#45;0]hunt_0)&#45;&gt;[ns&#45;0]hunt_0 -->
<g id="edge11" class="edge"><title>#jump([ns&#45;0]start_hunting, [ns&#45;0]hunt_0):#jump([ns&#45;0]start_hunting, [ns&#45;0]hunt_0)&#45;&gt;[ns&#45;0]hunt_0:[ns&#45;0]hunt_0</title>
<path fill="none" stroke="black" d="M112,-914.837C112,-906.121 112,-889.531 112,-874.086"/>
<polygon fill="black" stroke="black" points="115.5,-873.686 112,-863.686 108.5,-873.686 115.5,-873.686"/>
</g>
<!-- #jump([ns&#45;0]start, [ns&#45;0]start_hunting)&#45;&gt;[ns&#45;0]start_hunting -->
<g id="edge13" class="edge"><title>#jump([ns&#45;0]start, [ns&#45;0]start_hunting):#jump([ns&#45;0]start, [ns&#45;0]start_hunting)&#45;&gt;[ns&#45;0]start_hunting:[ns&#45;0]start_hunting</title>
<path fill="none" stroke="black" d="M112,-1072.96C112,-1064.2 112,-1047.38 112,-1032.31"/>
<polygon fill="black" stroke="black" points="115.5,-1032.28 112,-1022.28 108.5,-1032.28 115.5,-1032.28"/>
</g>
</g>
</svg>
