<?xml version="1.0" encoding="UTF-8" standalone="no"?>
<!DOCTYPE svg PUBLIC "-//W3C//DTD SVG 1.1//EN"
 "http://www.w3.org/Graphics/SVG/1.1/DTD/svg11.dtd">
<!-- Generated by graphviz version 2.34.0 (20130907.0221)
 -->
<!-- Title: quest Pages: 1 -->
<svg width="232pt" height="950pt"
 viewBox="0.00 0.00 232.00 950.00" xmlns="http://www.w3.org/2000/svg" xmlns:xlink="http://www.w3.org/1999/xlink">
<g id="graph0" class="graph" transform="scale(1 1) rotate(0) translate(4 946)">
<title>quest</title>
<polygon fill="white" stroke="white" points="-4,4 -4,-946 228,-946 228,4 -4,4"/>
<!-- [ns&#45;0]start -->
<g id="node1" class="node"><title>[ns&#45;0]start</title>
<polygon fill="#eeeeee" stroke="none" points="53.5,-882.5 53.5,-937.5 170.5,-937.5 170.5,-882.5 53.5,-882.5"/>
<text text-anchor="start" x="56" y="-927.5" font-family="Times,serif" font-style="italic" font-size="10.00">[ns&#45;0]start</text>
<text text-anchor="start" x="132" y="-927.5" font-family="Times,serif" font-weight="bold" font-size="10.00">hunt</text>
<text text-anchor="start" x="56" y="-913" font-family="Times,serif" font-size="10.00">Начало: задание на охоту</text>
<polygon fill="#dddddd" stroke="none" points="55,-896 55,-909 170,-909 170,-896 55,-896"/>
<text text-anchor="start" x="56" y="-901" font-family="Times,serif" font-size="10.00">hero </text>
<text text-anchor="start" x="77" y="-901" font-family="Times,serif" font-weight="bold" font-size="10.00">находится в</text>
<text text-anchor="start" x="132" y="-901" font-family="Times,serif" font-size="10.00"> place_1</text>
<polygon fill="#ffffff" stroke="none" points="55,-883 55,-896 170,-896 170,-883 55,-883"/>
<text text-anchor="start" x="56" y="-888" font-family="Times,serif" font-weight="bold" font-size="10.00">сообщение:</text>
<text text-anchor="start" x="108" y="-888" font-family="Times,serif" font-size="10.00"> intro</text>
<polygon fill="none" stroke="black" points="53.5,-882.5 53.5,-937.5 170.5,-937.5 170.5,-882.5 53.5,-882.5"/>
</g>
<!-- #jump([ns&#45;0]start, [ns&#45;0]start_hunting) -->
<g id="node11" class="node"><title>#jump([ns&#45;0]start, [ns&#45;0]start_hunting)</title>
<polygon fill="#eeeeee" stroke="none" points="53,-817 53,-831 171,-831 171,-817 53,-817"/>
<text text-anchor="start" x="54" y="-822.5" font-family="Times,serif" font-weight="bold" font-size="10.00">сообщение:</text>
<text text-anchor="start" x="106" y="-822.5" font-family="Times,serif" font-size="10.00"> move_to_hunt</text>
</g>
<!-- [ns&#45;0]start&#45;&gt;#jump([ns&#45;0]start, [ns&#45;0]start_hunting) -->
<g id="edge9" class="edge"><title>[ns&#45;0]start:[ns&#45;0]start&#45;&gt;#jump([ns&#45;0]start, [ns&#45;0]start_hunting):#jump([ns&#45;0]start, [ns&#45;0]start_hunting)</title>
<path fill="none" stroke="black" d="M112,-882.422C112,-864.349 112,-841.853 112,-831.177"/>
</g>
<!-- [ns&#45;0]sell_prey -->
<g id="node2" class="node"><title>[ns&#45;0]sell_prey</title>
<polygon fill="#eeeeee" stroke="none" points="7.5,-4 7.5,-72 216.5,-72 216.5,-4 7.5,-4"/>
<text text-anchor="start" x="10" y="-62.5" font-family="Times,serif" font-style="italic" font-size="10.00">[ns&#45;0]sell_prey</text>
<text text-anchor="start" x="113" y="-62.5" font-family="Times,serif" font-weight="bold" font-size="10.00">sell_prey</text>
<text text-anchor="start" x="175" y="-62.5" font-family="Times,serif" font-weight="bold" font-size="10.00">successed</text>
<text text-anchor="start" x="10" y="-48" font-family="Times,serif" font-size="10.00">Продать добычу</text>
<polygon fill="#dddddd" stroke="none" points="9,-31 9,-44 174,-44 174,-31 9,-31"/>
<text text-anchor="start" x="10" y="-36" font-family="Times,serif" font-size="10.00">hero </text>
<text text-anchor="start" x="31" y="-36" font-family="Times,serif" font-weight="bold" font-size="10.00">находится в</text>
<text text-anchor="start" x="86" y="-36" font-family="Times,serif" font-size="10.00"> place_3</text>
<polygon fill="#ffffff" stroke="none" points="9,-18 9,-31 174,-31 174,-18 9,-18"/>
<text text-anchor="start" x="10" y="-23" font-family="Times,serif" font-weight="bold" font-size="10.00">сообщение:</text>
<text text-anchor="start" x="62" y="-23" font-family="Times,serif" font-size="10.00"> sell_prey</text>
<polygon fill="#ffffff" stroke="none" points="9,-5 9,-18 174,-18 174,-5 9,-5"/>
<text text-anchor="start" x="10" y="-10" font-family="Times,serif" font-weight="bold" font-size="10.00">увеличить влияние </text>
<text text-anchor="start" x="98" y="-10" font-family="Times,serif" font-size="10.00">  place_3 </text>
<text text-anchor="start" x="138" y="-10" font-family="Times,serif" font-weight="bold" font-size="10.00">на </text>
<text text-anchor="start" x="151" y="-10" font-family="Times,serif" font-size="10.00"> 1.00</text>
<polygon fill="none" stroke="black" points="7.5,-4 7.5,-72 216.5,-72 216.5,-4 7.5,-4"/>
</g>
<!-- [ns&#45;0]fight_0 -->
<g id="node3" class="node"><title>[ns&#45;0]fight_0</title>
<polygon fill="#ddffdd" stroke="none" points="43.5,-456.5 43.5,-511.5 180.5,-511.5 180.5,-456.5 43.5,-456.5"/>
<text text-anchor="start" x="46" y="-501.5" font-family="Times,serif" font-style="italic" font-size="10.00">[ns&#45;0]fight_0</text>
<text text-anchor="start" x="46" y="-487" font-family="Times,serif" font-size="10.00">Сражение с жертвой</text>
<polygon fill="#eeffee" stroke="none" points="45,-470 45,-483 180,-483 180,-470 45,-470"/>
<text text-anchor="start" x="46" y="-475" font-family="Times,serif" font-weight="bold" font-size="10.00">сообщение:</text>
<text text-anchor="start" x="98" y="-475" font-family="Times,serif" font-size="10.00"> fight</text>
<polygon fill="#eeffee" stroke="none" points="45,-457 45,-470 180,-470 180,-457 45,-457"/>
<text text-anchor="start" x="46" y="-462" font-family="Times,serif" font-weight="bold" font-size="10.00">сразиться с</text>
<text text-anchor="start" x="98" y="-462" font-family="Times,serif" font-size="10.00">  mob_1</text>
<polygon fill="none" stroke="black" points="43.5,-456.5 43.5,-511.5 180.5,-511.5 180.5,-456.5 43.5,-456.5"/>
</g>
<!-- #jump([ns&#45;0]fight_0, [ns&#45;0]hunt_1) -->
<g id="node8" class="node"><title>#jump([ns&#45;0]fight_0, [ns&#45;0]hunt_1)</title>
<polygon fill="#eeeeee" stroke="none" points="62,-391 62,-405 163,-405 163,-391 62,-391"/>
<text text-anchor="start" x="63" y="-396.5" font-family="Times,serif" font-weight="bold" font-size="10.00">сообщение:</text>
<text text-anchor="start" x="115" y="-396.5" font-family="Times,serif" font-size="10.00"> start_track</text>
</g>
<!-- [ns&#45;0]fight_0&#45;&gt;#jump([ns&#45;0]fight_0, [ns&#45;0]hunt_1) -->
<g id="edge1" class="edge"><title>[ns&#45;0]fight_0:[ns&#45;0]fight_0&#45;&gt;#jump([ns&#45;0]fight_0, [ns&#45;0]hunt_1):#jump([ns&#45;0]fight_0, [ns&#45;0]hunt_1)</title>
<path fill="none" stroke="black" d="M112,-456.422C112,-438.349 112,-415.853 112,-405.177"/>
</g>
<!-- [ns&#45;0]fight_1 -->
<g id="node4" class="node"><title>[ns&#45;0]fight_1</title>
<polygon fill="#ddffdd" stroke="none" points="43.5,-188.5 43.5,-243.5 180.5,-243.5 180.5,-188.5 43.5,-188.5"/>
<text text-anchor="start" x="46" y="-233.5" font-family="Times,serif" font-style="italic" font-size="10.00">[ns&#45;0]fight_1</text>
<text text-anchor="start" x="46" y="-219" font-family="Times,serif" font-size="10.00">Сражение с жертвой</text>
<polygon fill="#eeffee" stroke="none" points="45,-202 45,-215 180,-215 180,-202 45,-202"/>
<text text-anchor="start" x="46" y="-207" font-family="Times,serif" font-weight="bold" font-size="10.00">сообщение:</text>
<text text-anchor="start" x="98" y="-207" font-family="Times,serif" font-size="10.00"> fight</text>
<polygon fill="#eeffee" stroke="none" points="45,-189 45,-202 180,-202 180,-189 45,-189"/>
<text text-anchor="start" x="46" y="-194" font-family="Times,serif" font-weight="bold" font-size="10.00">сразиться с</text>
<text text-anchor="start" x="98" y="-194" font-family="Times,serif" font-size="10.00">  mob_1</text>
<polygon fill="none" stroke="black" points="43.5,-188.5 43.5,-243.5 180.5,-243.5 180.5,-188.5 43.5,-188.5"/>
</g>
<!-- #jump([ns&#45;0]fight_1, [ns&#45;0]sell_prey) -->
<g id="node9" class="node"><title>#jump([ns&#45;0]fight_1, [ns&#45;0]sell_prey)</title>
<polygon fill="#eeeeee" stroke="none" points="48,-123 48,-137 177,-137 177,-123 48,-123"/>
<text text-anchor="start" x="49" y="-128.5" font-family="Times,serif" font-weight="bold" font-size="10.00">сообщение:</text>
<text text-anchor="start" x="101" y="-128.5" font-family="Times,serif" font-size="10.00"> return_with_prey</text>
</g>
<!-- [ns&#45;0]fight_1&#45;&gt;#jump([ns&#45;0]fight_1, [ns&#45;0]sell_prey) -->
<g id="edge5" class="edge"><title>[ns&#45;0]fight_1:[ns&#45;0]fight_1&#45;&gt;#jump([ns&#45;0]fight_1, [ns&#45;0]sell_prey):#jump([ns&#45;0]fight_1, [ns&#45;0]sell_prey)</title>
<path fill="none" stroke="black" d="M112,-188.422C112,-170.349 112,-147.853 112,-137.177"/>
</g>
<!-- [ns&#45;0]hunt_0 -->
<g id="node5" class="node"><title>[ns&#45;0]hunt_0</title>
<polygon fill="#ddffdd" stroke="none" points="23.5,-556.5 23.5,-607.5 200.5,-607.5 200.5,-556.5 23.5,-556.5"/>
<text text-anchor="start" x="26" y="-597.5" font-family="Times,serif" font-style="italic" font-size="10.00">[ns&#45;0]hunt_0</text>
<text text-anchor="start" x="26" y="-583" font-family="Times,serif" font-size="10.00">Охота</text>
<polygon fill="#eeffee" stroke="none" points="25,-557 25,-579 200,-579 200,-557 25,-557"/>
<text text-anchor="start" x="26" y="-571" font-family="Times,serif" font-weight="bold" font-size="10.00">отправить </text>
<text text-anchor="start" x="76" y="-571" font-family="Times,serif" font-size="10.00"> hero</text>
<text text-anchor="start" x="97" y="-571" font-family="Times,serif" font-weight="bold" font-size="10.00">бродить около</text>
<text text-anchor="start" x="163" y="-571" font-family="Times,serif" font-size="10.00"> place_3</text>
<text text-anchor="start" x="63" y="-561" font-family="Times,serif" font-size="10.00"> среди ландшафтов (0,)</text>
<polygon fill="none" stroke="black" points="23.5,-556.5 23.5,-607.5 200.5,-607.5 200.5,-556.5 23.5,-556.5"/>
</g>
<!-- [ns&#45;0]hunt_0&#45;&gt;[ns&#45;0]fight_0 -->
<g id="edge4" class="edge"><title>[ns&#45;0]hunt_0:[ns&#45;0]hunt_0&#45;&gt;[ns&#45;0]fight_0:[ns&#45;0]fight_0</title>
<path fill="none" stroke="black" d="M112,-556.278C112,-545.814 112,-533.404 112,-521.894"/>
<polygon fill="black" stroke="black" points="115.5,-521.66 112,-511.66 108.5,-521.66 115.5,-521.66"/>
</g>
<!-- [ns&#45;0]hunt_1 -->
<g id="node6" class="node"><title>[ns&#45;0]hunt_1</title>
<polygon fill="#ddffdd" stroke="none" points="23.5,-288.5 23.5,-339.5 200.5,-339.5 200.5,-288.5 23.5,-288.5"/>
<text text-anchor="start" x="26" y="-329.5" font-family="Times,serif" font-style="italic" font-size="10.00">[ns&#45;0]hunt_1</text>
<text text-anchor="start" x="26" y="-315" font-family="Times,serif" font-size="10.00">Охота</text>
<polygon fill="#eeffee" stroke="none" points="25,-289 25,-311 200,-311 200,-289 25,-289"/>
<text text-anchor="start" x="26" y="-303" font-family="Times,serif" font-weight="bold" font-size="10.00">отправить </text>
<text text-anchor="start" x="76" y="-303" font-family="Times,serif" font-size="10.00"> hero</text>
<text text-anchor="start" x="97" y="-303" font-family="Times,serif" font-weight="bold" font-size="10.00">бродить около</text>
<text text-anchor="start" x="163" y="-303" font-family="Times,serif" font-size="10.00"> place_3</text>
<text text-anchor="start" x="63" y="-293" font-family="Times,serif" font-size="10.00"> среди ландшафтов (0,)</text>
<polygon fill="none" stroke="black" points="23.5,-288.5 23.5,-339.5 200.5,-339.5 200.5,-288.5 23.5,-288.5"/>
</g>
<!-- [ns&#45;0]hunt_1&#45;&gt;[ns&#45;0]fight_1 -->
<g id="edge3" class="edge"><title>[ns&#45;0]hunt_1:[ns&#45;0]hunt_1&#45;&gt;[ns&#45;0]fight_1:[ns&#45;0]fight_1</title>
<path fill="none" stroke="black" d="M112,-288.278C112,-277.814 112,-265.404 112,-253.894"/>
<polygon fill="black" stroke="black" points="115.5,-253.66 112,-243.66 108.5,-253.66 115.5,-253.66"/>
</g>
<!-- [ns&#45;0]start_hunting -->
<g id="node7" class="node"><title>[ns&#45;0]start_hunting</title>
<polygon fill="#ddffdd" stroke="none" points="28,-724 28,-766 196,-766 196,-724 28,-724"/>
<text text-anchor="start" x="30" y="-756.5" font-family="Times,serif" font-style="italic" font-size="10.00">[ns&#45;0]start_hunting</text>
<text text-anchor="start" x="30" y="-742" font-family="Times,serif" font-size="10.00">Прибытие в город охоты</text>
<polygon fill="#cceecc" stroke="none" points="29,-725 29,-738 195,-738 195,-725 29,-725"/>
<text text-anchor="start" x="30" y="-730" font-family="Times,serif" font-size="10.00">hero </text>
<text text-anchor="start" x="51" y="-730" font-family="Times,serif" font-weight="bold" font-size="10.00">находится в</text>
<text text-anchor="start" x="106" y="-730" font-family="Times,serif" font-size="10.00"> place_3</text>
<polygon fill="none" stroke="black" points="28,-724 28,-766 196,-766 196,-724 28,-724"/>
</g>
<!-- #jump([ns&#45;0]start_hunting, [ns&#45;0]hunt_0) -->
<g id="node10" class="node"><title>#jump([ns&#45;0]start_hunting, [ns&#45;0]hunt_0)</title>
<polygon fill="#eeeeee" stroke="none" points="62,-659 62,-673 163,-673 163,-659 62,-659"/>
<text text-anchor="start" x="63" y="-664.5" font-family="Times,serif" font-weight="bold" font-size="10.00">сообщение:</text>
<text text-anchor="start" x="115" y="-664.5" font-family="Times,serif" font-size="10.00"> start_track</text>
</g>
<!-- [ns&#45;0]start_hunting&#45;&gt;#jump([ns&#45;0]start_hunting, [ns&#45;0]hunt_0) -->
<g id="edge7" class="edge"><title>[ns&#45;0]start_hunting:[ns&#45;0]start_hunting&#45;&gt;#jump([ns&#45;0]start_hunting, [ns&#45;0]hunt_0):#jump([ns&#45;0]start_hunting, [ns&#45;0]hunt_0)</title>
<path fill="none" stroke="black" d="M112,-723.769C112,-707.015 112,-684.253 112,-673.342"/>
</g>
<!-- #jump([ns&#45;0]fight_0, [ns&#45;0]hunt_1)&#45;&gt;[ns&#45;0]hunt_1 -->
<g id="edge2" class="edge"><title>#jump([ns&#45;0]fight_0, [ns&#45;0]hunt_1):#jump([ns&#45;0]fight_0, [ns&#45;0]hunt_1)&#45;&gt;[ns&#45;0]hunt_1:[ns&#45;0]hunt_1</title>
<path fill="none" stroke="black" d="M112,-390.837C112,-382.121 112,-365.531 112,-350.086"/>
<polygon fill="black" stroke="black" points="115.5,-349.686 112,-339.686 108.5,-349.686 115.5,-349.686"/>
</g>
<!-- #jump([ns&#45;0]fight_1, [ns&#45;0]sell_prey)&#45;&gt;[ns&#45;0]sell_prey -->
<g id="edge6" class="edge"><title>#jump([ns&#45;0]fight_1, [ns&#45;0]sell_prey):#jump([ns&#45;0]fight_1, [ns&#45;0]sell_prey)&#45;&gt;[ns&#45;0]sell_prey:[ns&#45;0]sell_prey</title>
<path fill="none" stroke="black" d="M112,-122.814C112,-114.344 112,-98.3863 112,-82.6494"/>
<polygon fill="black" stroke="black" points="115.5,-82.4207 112,-72.4207 108.5,-82.4208 115.5,-82.4207"/>
</g>
<!-- #jump([ns&#45;0]start_hunting, [ns&#45;0]hunt_0)&#45;&gt;[ns&#45;0]hunt_0 -->
<g id="edge8" class="edge"><title>#jump([ns&#45;0]start_hunting, [ns&#45;0]hunt_0):#jump([ns&#45;0]start_hunting, [ns&#45;0]hunt_0)&#45;&gt;[ns&#45;0]hunt_0:[ns&#45;0]hunt_0</title>
<path fill="none" stroke="black" d="M112,-658.837C112,-650.121 112,-633.531 112,-618.086"/>
<polygon fill="black" stroke="black" points="115.5,-617.686 112,-607.686 108.5,-617.686 115.5,-617.686"/>
</g>
<!-- #jump([ns&#45;0]start, [ns&#45;0]start_hunting)&#45;&gt;[ns&#45;0]start_hunting -->
<g id="edge10" class="edge"><title>#jump([ns&#45;0]start, [ns&#45;0]start_hunting):#jump([ns&#45;0]start, [ns&#45;0]start_hunting)&#45;&gt;[ns&#45;0]start_hunting:[ns&#45;0]start_hunting</title>
<path fill="none" stroke="black" d="M112,-816.958C112,-808.201 112,-791.379 112,-776.312"/>
<polygon fill="black" stroke="black" points="115.5,-776.281 112,-766.281 108.5,-776.281 115.5,-776.281"/>
</g>
</g>
</svg>
