<?xml version="1.0" encoding="UTF-8" standalone="no"?>
<!DOCTYPE svg PUBLIC "-//W3C//DTD SVG 1.1//EN"
 "http://www.w3.org/Graphics/SVG/1.1/DTD/svg11.dtd">
<!-- Generated by graphviz version 2.43.0 (0)
 -->
<!-- Title: quest Pages: 1 -->
<svg width="361pt" height="1479pt"
 viewBox="0.00 0.00 361.00 1479.00" xmlns="http://www.w3.org/2000/svg" xmlns:xlink="http://www.w3.org/1999/xlink">
<g id="graph0" class="graph" transform="scale(1 1) rotate(0) translate(4 1475)">
<title>quest</title>
<polygon fill="white" stroke="transparent" points="-4,4 -4,-1475 357,-1475 357,4 -4,4"/>
<!-- [ns&#45;0]hunt_2 -->
<g id="node1" class="node">
<title>[ns&#45;0]hunt_2</title>
<polygon fill="#ddffdd" stroke="transparent" points="82,-562 82,-612 271,-612 271,-562 82,-562"/>
<text text-anchor="start" x="84.5" y="-603" font-family="Times,serif" font-style="italic" font-size="10.00">[ns&#45;0]hunt_2</text>
<text text-anchor="start" x="84.5" y="-589" font-family="Times,serif" font-size="10.00">Hunting</text>
<polygon fill="#eeffee" stroke="transparent" points="83.5,-563 83.5,-585 270.5,-585 270.5,-563 83.5,-563"/>
<text text-anchor="start" x="84.5" y="-577" font-family="Times,serif" font-weight="bold" font-size="10.00">send </text>
<text text-anchor="start" x="115.5" y="-577" font-family="Times,serif" font-size="10.00"> hero</text>
<text text-anchor="start" x="142.5" y="-577" font-family="Times,serif" font-weight="bold" font-size="10.00">to wander near</text>
<text text-anchor="start" x="227.5" y="-577" font-family="Times,serif" font-size="10.00"> place_3</text>
<text text-anchor="start" x="116.5" y="-567" font-family="Times,serif" font-size="10.00"> among the terrains (0,)</text>
<polygon fill="none" stroke="black" points="82,-562 82,-612 271,-612 271,-562 82,-562"/>
</g>
<!-- [ns&#45;0]fight_2 -->
<g id="node6" class="node">
<title>[ns&#45;0]fight_2</title>
<polygon fill="#ddffdd" stroke="transparent" points="125.5,-464 125.5,-518 227.5,-518 227.5,-464 125.5,-464"/>
<text text-anchor="start" x="127.5" y="-509" font-family="Times,serif" font-style="italic" font-size="10.00">[ns&#45;0]fight_2</text>
<text text-anchor="start" x="127.5" y="-495" font-family="Times,serif" font-size="10.00">Fight with the prey</text>
<polygon fill="#eeffee" stroke="transparent" points="126.5,-478 126.5,-491 226.5,-491 226.5,-478 126.5,-478"/>
<text text-anchor="start" x="127.5" y="-483" font-family="Times,serif" font-weight="bold" font-size="10.00">message:</text>
<text text-anchor="start" x="179.5" y="-483" font-family="Times,serif" font-size="10.00"> fight</text>
<polygon fill="#eeffee" stroke="transparent" points="126.5,-465 126.5,-478 226.5,-478 226.5,-465 126.5,-465"/>
<text text-anchor="start" x="127.5" y="-470" font-family="Times,serif" font-weight="bold" font-size="10.00">fight with</text>
<text text-anchor="start" x="182.5" y="-470" font-family="Times,serif" font-size="10.00">  mob_1</text>
<polygon fill="none" stroke="black" points="125.5,-464 125.5,-518 227.5,-518 227.5,-464 125.5,-464"/>
</g>
<!-- [ns&#45;0]hunt_2&#45;&gt;[ns&#45;0]fight_2 -->
<g id="edge11" class="edge">
<title>[ns&#45;0]hunt_2:[ns&#45;0]hunt_2&#45;&gt;[ns&#45;0]fight_2:[ns&#45;0]fight_2</title>
<path fill="none" stroke="black" d="M176.5,-561.79C176.5,-551.55 176.5,-539.4 176.5,-528.13"/>
<polygon fill="black" stroke="black" points="180,-528.1 176.5,-518.1 173,-528.1 180,-528.1"/>
</g>
<!-- [ns&#45;0]hunt_3 -->
<g id="node2" class="node">
<title>[ns&#45;0]hunt_3</title>
<polygon fill="#ddffdd" stroke="transparent" points="82,-298 82,-348 271,-348 271,-298 82,-298"/>
<text text-anchor="start" x="84.5" y="-339" font-family="Times,serif" font-style="italic" font-size="10.00">[ns&#45;0]hunt_3</text>
<text text-anchor="start" x="84.5" y="-325" font-family="Times,serif" font-size="10.00">Hunting</text>
<polygon fill="#eeffee" stroke="transparent" points="83.5,-299 83.5,-321 270.5,-321 270.5,-299 83.5,-299"/>
<text text-anchor="start" x="84.5" y="-313" font-family="Times,serif" font-weight="bold" font-size="10.00">send </text>
<text text-anchor="start" x="115.5" y="-313" font-family="Times,serif" font-size="10.00"> hero</text>
<text text-anchor="start" x="142.5" y="-313" font-family="Times,serif" font-weight="bold" font-size="10.00">to wander near</text>
<text text-anchor="start" x="227.5" y="-313" font-family="Times,serif" font-size="10.00"> place_3</text>
<text text-anchor="start" x="116.5" y="-303" font-family="Times,serif" font-size="10.00"> among the terrains (0,)</text>
<polygon fill="none" stroke="black" points="82,-298 82,-348 271,-348 271,-298 82,-298"/>
</g>
<!-- [ns&#45;0]fight_3 -->
<g id="node10" class="node">
<title>[ns&#45;0]fight_3</title>
<polygon fill="#ddffdd" stroke="transparent" points="125.5,-200 125.5,-254 227.5,-254 227.5,-200 125.5,-200"/>
<text text-anchor="start" x="127.5" y="-245" font-family="Times,serif" font-style="italic" font-size="10.00">[ns&#45;0]fight_3</text>
<text text-anchor="start" x="127.5" y="-231" font-family="Times,serif" font-size="10.00">Fight with the prey</text>
<polygon fill="#eeffee" stroke="transparent" points="126.5,-214 126.5,-227 226.5,-227 226.5,-214 126.5,-214"/>
<text text-anchor="start" x="127.5" y="-219" font-family="Times,serif" font-weight="bold" font-size="10.00">message:</text>
<text text-anchor="start" x="179.5" y="-219" font-family="Times,serif" font-size="10.00"> fight</text>
<polygon fill="#eeffee" stroke="transparent" points="126.5,-201 126.5,-214 226.5,-214 226.5,-201 126.5,-201"/>
<text text-anchor="start" x="127.5" y="-206" font-family="Times,serif" font-weight="bold" font-size="10.00">fight with</text>
<text text-anchor="start" x="182.5" y="-206" font-family="Times,serif" font-size="10.00">  mob_1</text>
<polygon fill="none" stroke="black" points="125.5,-200 125.5,-254 227.5,-254 227.5,-200 125.5,-200"/>
</g>
<!-- [ns&#45;0]hunt_3&#45;&gt;[ns&#45;0]fight_3 -->
<g id="edge12" class="edge">
<title>[ns&#45;0]hunt_3:[ns&#45;0]hunt_3&#45;&gt;[ns&#45;0]fight_3:[ns&#45;0]fight_3</title>
<path fill="none" stroke="black" d="M176.5,-297.79C176.5,-287.55 176.5,-275.4 176.5,-264.13"/>
<polygon fill="black" stroke="black" points="180,-264.1 176.5,-254.1 173,-264.1 180,-264.1"/>
</g>
<!-- [ns&#45;0]hunt_0 -->
<g id="node3" class="node">
<title>[ns&#45;0]hunt_0</title>
<polygon fill="#ddffdd" stroke="transparent" points="82,-1090 82,-1140 271,-1140 271,-1090 82,-1090"/>
<text text-anchor="start" x="84.5" y="-1131" font-family="Times,serif" font-style="italic" font-size="10.00">[ns&#45;0]hunt_0</text>
<text text-anchor="start" x="84.5" y="-1117" font-family="Times,serif" font-size="10.00">Hunting</text>
<polygon fill="#eeffee" stroke="transparent" points="83.5,-1091 83.5,-1113 270.5,-1113 270.5,-1091 83.5,-1091"/>
<text text-anchor="start" x="84.5" y="-1105" font-family="Times,serif" font-weight="bold" font-size="10.00">send </text>
<text text-anchor="start" x="115.5" y="-1105" font-family="Times,serif" font-size="10.00"> hero</text>
<text text-anchor="start" x="142.5" y="-1105" font-family="Times,serif" font-weight="bold" font-size="10.00">to wander near</text>
<text text-anchor="start" x="227.5" y="-1105" font-family="Times,serif" font-size="10.00"> place_3</text>
<text text-anchor="start" x="116.5" y="-1095" font-family="Times,serif" font-size="10.00"> among the terrains (0,)</text>
<polygon fill="none" stroke="black" points="82,-1090 82,-1140 271,-1140 271,-1090 82,-1090"/>
</g>
<!-- [ns&#45;0]fight_0 -->
<g id="node8" class="node">
<title>[ns&#45;0]fight_0</title>
<polygon fill="#ddffdd" stroke="transparent" points="125.5,-992 125.5,-1046 227.5,-1046 227.5,-992 125.5,-992"/>
<text text-anchor="start" x="127.5" y="-1037" font-family="Times,serif" font-style="italic" font-size="10.00">[ns&#45;0]fight_0</text>
<text text-anchor="start" x="127.5" y="-1023" font-family="Times,serif" font-size="10.00">Fight with the prey</text>
<polygon fill="#eeffee" stroke="transparent" points="126.5,-1006 126.5,-1019 226.5,-1019 226.5,-1006 126.5,-1006"/>
<text text-anchor="start" x="127.5" y="-1011" font-family="Times,serif" font-weight="bold" font-size="10.00">message:</text>
<text text-anchor="start" x="179.5" y="-1011" font-family="Times,serif" font-size="10.00"> fight</text>
<polygon fill="#eeffee" stroke="transparent" points="126.5,-993 126.5,-1006 226.5,-1006 226.5,-993 126.5,-993"/>
<text text-anchor="start" x="127.5" y="-998" font-family="Times,serif" font-weight="bold" font-size="10.00">fight with</text>
<text text-anchor="start" x="182.5" y="-998" font-family="Times,serif" font-size="10.00">  mob_1</text>
<polygon fill="none" stroke="black" points="125.5,-992 125.5,-1046 227.5,-1046 227.5,-992 125.5,-992"/>
</g>
<!-- [ns&#45;0]hunt_0&#45;&gt;[ns&#45;0]fight_0 -->
<g id="edge3" class="edge">
<title>[ns&#45;0]hunt_0:[ns&#45;0]hunt_0&#45;&gt;[ns&#45;0]fight_0:[ns&#45;0]fight_0</title>
<path fill="none" stroke="black" d="M176.5,-1089.79C176.5,-1079.55 176.5,-1067.4 176.5,-1056.13"/>
<polygon fill="black" stroke="black" points="180,-1056.1 176.5,-1046.1 173,-1056.1 180,-1056.1"/>
</g>
<!-- [ns&#45;0]fight_1 -->
<g id="node4" class="node">
<title>[ns&#45;0]fight_1</title>
<polygon fill="#ddffdd" stroke="transparent" points="125.5,-728 125.5,-782 227.5,-782 227.5,-728 125.5,-728"/>
<text text-anchor="start" x="127.5" y="-773" font-family="Times,serif" font-style="italic" font-size="10.00">[ns&#45;0]fight_1</text>
<text text-anchor="start" x="127.5" y="-759" font-family="Times,serif" font-size="10.00">Fight with the prey</text>
<polygon fill="#eeffee" stroke="transparent" points="126.5,-742 126.5,-755 226.5,-755 226.5,-742 126.5,-742"/>
<text text-anchor="start" x="127.5" y="-747" font-family="Times,serif" font-weight="bold" font-size="10.00">message:</text>
<text text-anchor="start" x="179.5" y="-747" font-family="Times,serif" font-size="10.00"> fight</text>
<polygon fill="#eeffee" stroke="transparent" points="126.5,-729 126.5,-742 226.5,-742 226.5,-729 126.5,-729"/>
<text text-anchor="start" x="127.5" y="-734" font-family="Times,serif" font-weight="bold" font-size="10.00">fight with</text>
<text text-anchor="start" x="182.5" y="-734" font-family="Times,serif" font-size="10.00">  mob_1</text>
<polygon fill="none" stroke="black" points="125.5,-728 125.5,-782 227.5,-782 227.5,-728 125.5,-728"/>
</g>
<!-- #jump([ns&#45;0]fight_1, [ns&#45;0]hunt_2) -->
<g id="node16" class="node">
<title>#jump([ns&#45;0]fight_1, [ns&#45;0]hunt_2)</title>
<polygon fill="#eeeeee" stroke="transparent" points="120.5,-663 120.5,-676 232.5,-676 232.5,-663 120.5,-663"/>
<text text-anchor="start" x="121.5" y="-668" font-family="Times,serif" font-weight="bold" font-size="10.00">message:</text>
<text text-anchor="start" x="173.5" y="-668" font-family="Times,serif" font-size="10.00"> start_track</text>
</g>
<!-- [ns&#45;0]fight_1&#45;&gt;#jump([ns&#45;0]fight_1, [ns&#45;0]hunt_2) -->
<g id="edge13" class="edge">
<title>[ns&#45;0]fight_1:[ns&#45;0]fight_1&#45;&gt;#jump([ns&#45;0]fight_1, [ns&#45;0]hunt_2):#jump([ns&#45;0]fight_1, [ns&#45;0]hunt_2)</title>
<path fill="none" stroke="black" d="M176.5,-727.74C176.5,-709.69 176.5,-687.18 176.5,-676.77"/>
</g>
<!-- [ns&#45;0]start -->
<g id="node5" class="node">
<title>[ns&#45;0]start</title>
<polygon fill="#eeeeee" stroke="transparent" points="105,-1413 105,-1467 248,-1467 248,-1413 105,-1413"/>
<text text-anchor="start" x="107.5" y="-1458" font-family="Times,serif" font-style="italic" font-size="10.00">[ns&#45;0]start</text>
<text text-anchor="start" x="204.5" y="-1458" font-family="Times,serif" font-weight="bold" font-size="10.00">hunt</text>
<text text-anchor="start" x="107.5" y="-1444" font-family="Times,serif" font-size="10.00">Start: hunting quest</text>
<polygon fill="#dddddd" stroke="transparent" points="106.5,-1427 106.5,-1440 247.5,-1440 247.5,-1427 106.5,-1427"/>
<text text-anchor="start" x="107.5" y="-1432" font-family="Times,serif" font-size="10.00">hero </text>
<text text-anchor="start" x="134.5" y="-1432" font-family="Times,serif" font-weight="bold" font-size="10.00">is located in</text>
<text text-anchor="start" x="204.5" y="-1432" font-family="Times,serif" font-size="10.00"> place_1</text>
<polygon fill="#ffffff" stroke="transparent" points="106.5,-1414 106.5,-1427 247.5,-1427 247.5,-1414 106.5,-1414"/>
<text text-anchor="start" x="107.5" y="-1419" font-family="Times,serif" font-weight="bold" font-size="10.00">message:</text>
<text text-anchor="start" x="159.5" y="-1419" font-family="Times,serif" font-size="10.00"> intro</text>
<polygon fill="none" stroke="black" points="105,-1413 105,-1467 248,-1467 248,-1413 105,-1413"/>
</g>
<!-- #jump([ns&#45;0]start, [ns&#45;0]start_hunting) -->
<g id="node14" class="node">
<title>#jump([ns&#45;0]start, [ns&#45;0]start_hunting)</title>
<polygon fill="#eeeeee" stroke="transparent" points="111.5,-1348 111.5,-1361 241.5,-1361 241.5,-1348 111.5,-1348"/>
<text text-anchor="start" x="112.5" y="-1353" font-family="Times,serif" font-weight="bold" font-size="10.00">message:</text>
<text text-anchor="start" x="164.5" y="-1353" font-family="Times,serif" font-size="10.00"> move_to_hunt</text>
</g>
<!-- [ns&#45;0]start&#45;&gt;#jump([ns&#45;0]start, [ns&#45;0]start_hunting) -->
<g id="edge7" class="edge">
<title>[ns&#45;0]start:[ns&#45;0]start&#45;&gt;#jump([ns&#45;0]start, [ns&#45;0]start_hunting):#jump([ns&#45;0]start, [ns&#45;0]start_hunting)</title>
<path fill="none" stroke="black" d="M176.5,-1412.74C176.5,-1394.69 176.5,-1372.18 176.5,-1361.77"/>
</g>
<!-- #jump([ns&#45;0]fight_2, [ns&#45;0]hunt_3) -->
<g id="node17" class="node">
<title>#jump([ns&#45;0]fight_2, [ns&#45;0]hunt_3)</title>
<polygon fill="#eeeeee" stroke="transparent" points="120.5,-399 120.5,-412 232.5,-412 232.5,-399 120.5,-399"/>
<text text-anchor="start" x="121.5" y="-404" font-family="Times,serif" font-weight="bold" font-size="10.00">message:</text>
<text text-anchor="start" x="173.5" y="-404" font-family="Times,serif" font-size="10.00"> start_track</text>
</g>
<!-- [ns&#45;0]fight_2&#45;&gt;#jump([ns&#45;0]fight_2, [ns&#45;0]hunt_3) -->
<g id="edge15" class="edge">
<title>[ns&#45;0]fight_2:[ns&#45;0]fight_2&#45;&gt;#jump([ns&#45;0]fight_2, [ns&#45;0]hunt_3):#jump([ns&#45;0]fight_2, [ns&#45;0]hunt_3)</title>
<path fill="none" stroke="black" d="M176.5,-463.74C176.5,-445.69 176.5,-423.18 176.5,-412.77"/>
</g>
<!-- [ns&#45;0]sell_prey -->
<g id="node7" class="node">
<title>[ns&#45;0]sell_prey</title>
<polygon fill="#eeeeee" stroke="transparent" points="8,-4 8,-84 345,-84 345,-4 8,-4"/>
<text text-anchor="start" x="10.5" y="-75" font-family="Times,serif" font-style="italic" font-size="10.00">[ns&#45;0]sell_prey</text>
<text text-anchor="start" x="10.5" y="-61" font-family="Times,serif" font-size="10.00">Sell the prey</text>
<polygon fill="#dddddd" stroke="transparent" points="9.5,-44 9.5,-57 344.5,-57 344.5,-44 9.5,-44"/>
<text text-anchor="start" x="10.5" y="-49" font-family="Times,serif" font-size="10.00">hero </text>
<text text-anchor="start" x="37.5" y="-49" font-family="Times,serif" font-weight="bold" font-size="10.00">is located in</text>
<text text-anchor="start" x="107.5" y="-49" font-family="Times,serif" font-size="10.00"> place_3</text>
<polygon fill="#ffffff" stroke="transparent" points="9.5,-31 9.5,-44 344.5,-44 344.5,-31 9.5,-31"/>
<text text-anchor="start" x="10.5" y="-36" font-family="Times,serif" font-weight="bold" font-size="10.00">give reward to </text>
<text text-anchor="start" x="94.5" y="-36" font-family="Times,serif" font-size="10.00">  hero </text>
<text text-anchor="start" x="127.5" y="-36" font-family="Times,serif" font-weight="bold" font-size="10.00">of type </text>
<text text-anchor="start" x="170.5" y="-36" font-family="Times,serif" font-size="10.00"> sell_prey </text>
<text text-anchor="start" x="222.5" y="-36" font-family="Times,serif" font-weight="bold" font-size="10.00">in the amount of</text>
<text text-anchor="start" x="318.5" y="-36" font-family="Times,serif" font-size="10.00"> 1.00</text>
<polygon fill="#eeeeee" stroke="transparent" points="9.5,-18 9.5,-31 344.5,-31 344.5,-18 9.5,-18"/>
<text text-anchor="start" x="10.5" y="-23" font-family="Times,serif" font-weight="bold" font-size="10.00">results:</text>
<text text-anchor="start" x="10.5" y="-10" font-family="Times,serif" font-weight="bold" font-size="10.00">place_3</text>
<text text-anchor="start" x="189.5" y="-9" font-family="Times,serif" font-size="10.00">successed</text>
<polygon fill="none" stroke="black" points="8,-4 8,-84 345,-84 345,-4 8,-4"/>
</g>
<!-- #jump([ns&#45;0]fight_0, [ns&#45;0]hunt_1) -->
<g id="node15" class="node">
<title>#jump([ns&#45;0]fight_0, [ns&#45;0]hunt_1)</title>
<polygon fill="#eeeeee" stroke="transparent" points="120.5,-927 120.5,-940 232.5,-940 232.5,-927 120.5,-927"/>
<text text-anchor="start" x="121.5" y="-932" font-family="Times,serif" font-weight="bold" font-size="10.00">message:</text>
<text text-anchor="start" x="173.5" y="-932" font-family="Times,serif" font-size="10.00"> start_track</text>
</g>
<!-- [ns&#45;0]fight_0&#45;&gt;#jump([ns&#45;0]fight_0, [ns&#45;0]hunt_1) -->
<g id="edge9" class="edge">
<title>[ns&#45;0]fight_0:[ns&#45;0]fight_0&#45;&gt;#jump([ns&#45;0]fight_0, [ns&#45;0]hunt_1):#jump([ns&#45;0]fight_0, [ns&#45;0]hunt_1)</title>
<path fill="none" stroke="black" d="M176.5,-991.74C176.5,-973.69 176.5,-951.18 176.5,-940.77"/>
</g>
<!-- [ns&#45;0]hunt_1 -->
<g id="node9" class="node">
<title>[ns&#45;0]hunt_1</title>
<polygon fill="#ddffdd" stroke="transparent" points="82,-826 82,-876 271,-876 271,-826 82,-826"/>
<text text-anchor="start" x="84.5" y="-867" font-family="Times,serif" font-style="italic" font-size="10.00">[ns&#45;0]hunt_1</text>
<text text-anchor="start" x="84.5" y="-853" font-family="Times,serif" font-size="10.00">Hunting</text>
<polygon fill="#eeffee" stroke="transparent" points="83.5,-827 83.5,-849 270.5,-849 270.5,-827 83.5,-827"/>
<text text-anchor="start" x="84.5" y="-841" font-family="Times,serif" font-weight="bold" font-size="10.00">send </text>
<text text-anchor="start" x="115.5" y="-841" font-family="Times,serif" font-size="10.00"> hero</text>
<text text-anchor="start" x="142.5" y="-841" font-family="Times,serif" font-weight="bold" font-size="10.00">to wander near</text>
<text text-anchor="start" x="227.5" y="-841" font-family="Times,serif" font-size="10.00"> place_3</text>
<text text-anchor="start" x="116.5" y="-831" font-family="Times,serif" font-size="10.00"> among the terrains (0,)</text>
<polygon fill="none" stroke="black" points="82,-826 82,-876 271,-876 271,-826 82,-826"/>
</g>
<!-- [ns&#45;0]hunt_1&#45;&gt;[ns&#45;0]fight_1 -->
<g id="edge6" class="edge">
<title>[ns&#45;0]hunt_1:[ns&#45;0]hunt_1&#45;&gt;[ns&#45;0]fight_1:[ns&#45;0]fight_1</title>
<path fill="none" stroke="black" d="M176.5,-825.79C176.5,-815.55 176.5,-803.4 176.5,-792.13"/>
<polygon fill="black" stroke="black" points="180,-792.1 176.5,-782.1 173,-792.1 180,-792.1"/>
</g>
<!-- #jump([ns&#45;0]fight_3, [ns&#45;0]sell_prey) -->
<g id="node12" class="node">
<title>#jump([ns&#45;0]fight_3, [ns&#45;0]sell_prey)</title>
<polygon fill="#eeeeee" stroke="transparent" points="104.5,-135 104.5,-148 249.5,-148 249.5,-135 104.5,-135"/>
<text text-anchor="start" x="105.5" y="-140" font-family="Times,serif" font-weight="bold" font-size="10.00">message:</text>
<text text-anchor="start" x="157.5" y="-140" font-family="Times,serif" font-size="10.00"> return_with_prey</text>
</g>
<!-- [ns&#45;0]fight_3&#45;&gt;#jump([ns&#45;0]fight_3, [ns&#45;0]sell_prey) -->
<g id="edge1" class="edge">
<title>[ns&#45;0]fight_3:[ns&#45;0]fight_3&#45;&gt;#jump([ns&#45;0]fight_3, [ns&#45;0]sell_prey):#jump([ns&#45;0]fight_3, [ns&#45;0]sell_prey)</title>
<path fill="none" stroke="black" d="M176.5,-199.74C176.5,-181.69 176.5,-159.18 176.5,-148.77"/>
</g>
<!-- [ns&#45;0]start_hunting -->
<g id="node11" class="node">
<title>[ns&#45;0]start_hunting</title>
<polygon fill="#ddffdd" stroke="transparent" points="105,-1256 105,-1297 248,-1297 248,-1256 105,-1256"/>
<text text-anchor="start" x="107.5" y="-1287.5" font-family="Times,serif" font-style="italic" font-size="10.00">[ns&#45;0]start_hunting</text>
<text text-anchor="start" x="107.5" y="-1273.5" font-family="Times,serif" font-size="10.00">Arrival at the hunting town</text>
<polygon fill="#cceecc" stroke="transparent" points="106.5,-1256.5 106.5,-1269.5 247.5,-1269.5 247.5,-1256.5 106.5,-1256.5"/>
<text text-anchor="start" x="107.5" y="-1261.5" font-family="Times,serif" font-size="10.00">hero </text>
<text text-anchor="start" x="134.5" y="-1261.5" font-family="Times,serif" font-weight="bold" font-size="10.00">is located in</text>
<text text-anchor="start" x="204.5" y="-1261.5" font-family="Times,serif" font-size="10.00"> place_3</text>
<polygon fill="none" stroke="black" points="105,-1256 105,-1297 248,-1297 248,-1256 105,-1256"/>
</g>
<!-- #jump([ns&#45;0]start_hunting, [ns&#45;0]hunt_0) -->
<g id="node13" class="node">
<title>#jump([ns&#45;0]start_hunting, [ns&#45;0]hunt_0)</title>
<polygon fill="#eeeeee" stroke="transparent" points="120.5,-1191 120.5,-1204 232.5,-1204 232.5,-1191 120.5,-1191"/>
<text text-anchor="start" x="121.5" y="-1196" font-family="Times,serif" font-weight="bold" font-size="10.00">message:</text>
<text text-anchor="start" x="173.5" y="-1196" font-family="Times,serif" font-size="10.00"> start_track</text>
</g>
<!-- [ns&#45;0]start_hunting&#45;&gt;#jump([ns&#45;0]start_hunting, [ns&#45;0]hunt_0) -->
<g id="edge4" class="edge">
<title>[ns&#45;0]start_hunting:[ns&#45;0]start_hunting&#45;&gt;#jump([ns&#45;0]start_hunting, [ns&#45;0]hunt_0):#jump([ns&#45;0]start_hunting, [ns&#45;0]hunt_0)</title>
<path fill="none" stroke="black" d="M176.5,-1255.8C176.5,-1238.8 176.5,-1215.35 176.5,-1204.69"/>
</g>
<!-- #jump([ns&#45;0]fight_3, [ns&#45;0]sell_prey)&#45;&gt;[ns&#45;0]sell_prey -->
<g id="edge2" class="edge">
<title>#jump([ns&#45;0]fight_3, [ns&#45;0]sell_prey):#jump([ns&#45;0]fight_3, [ns&#45;0]sell_prey)&#45;&gt;[ns&#45;0]sell_prey:[ns&#45;0]sell_prey</title>
<path fill="none" stroke="black" d="M176.5,-135.28C176.5,-126.99 176.5,-110.83 176.5,-94.44"/>
<polygon fill="black" stroke="black" points="180,-94.27 176.5,-84.27 173,-94.27 180,-94.27"/>
</g>
<!-- #jump([ns&#45;0]start_hunting, [ns&#45;0]hunt_0)&#45;&gt;[ns&#45;0]hunt_0 -->
<g id="edge5" class="edge">
<title>#jump([ns&#45;0]start_hunting, [ns&#45;0]hunt_0):#jump([ns&#45;0]start_hunting, [ns&#45;0]hunt_0)&#45;&gt;[ns&#45;0]hunt_0:[ns&#45;0]hunt_0</title>
<path fill="none" stroke="black" d="M176.5,-1191.43C176.5,-1182.87 176.5,-1165.81 176.5,-1150.08"/>
<polygon fill="black" stroke="black" points="180,-1150.03 176.5,-1140.03 173,-1150.03 180,-1150.03"/>
</g>
<!-- #jump([ns&#45;0]start, [ns&#45;0]start_hunting)&#45;&gt;[ns&#45;0]start_hunting -->
<g id="edge8" class="edge">
<title>#jump([ns&#45;0]start, [ns&#45;0]start_hunting):#jump([ns&#45;0]start, [ns&#45;0]start_hunting)&#45;&gt;[ns&#45;0]start_hunting:[ns&#45;0]start_hunting</title>
<path fill="none" stroke="black" d="M176.5,-1348.5C176.5,-1339.92 176.5,-1322.77 176.5,-1307.47"/>
<polygon fill="black" stroke="black" points="180,-1307.31 176.5,-1297.31 173,-1307.31 180,-1307.31"/>
</g>
<!-- #jump([ns&#45;0]fight_0, [ns&#45;0]hunt_1)&#45;&gt;[ns&#45;0]hunt_1 -->
<g id="edge10" class="edge">
<title>#jump([ns&#45;0]fight_0, [ns&#45;0]hunt_1):#jump([ns&#45;0]fight_0, [ns&#45;0]hunt_1)&#45;&gt;[ns&#45;0]hunt_1:[ns&#45;0]hunt_1</title>
<path fill="none" stroke="black" d="M176.5,-927.43C176.5,-918.87 176.5,-901.81 176.5,-886.08"/>
<polygon fill="black" stroke="black" points="180,-886.03 176.5,-876.03 173,-886.03 180,-886.03"/>
</g>
<!-- #jump([ns&#45;0]fight_1, [ns&#45;0]hunt_2)&#45;&gt;[ns&#45;0]hunt_2 -->
<g id="edge14" class="edge">
<title>#jump([ns&#45;0]fight_1, [ns&#45;0]hunt_2):#jump([ns&#45;0]fight_1, [ns&#45;0]hunt_2)&#45;&gt;[ns&#45;0]hunt_2:[ns&#45;0]hunt_2</title>
<path fill="none" stroke="black" d="M176.5,-663.43C176.5,-654.87 176.5,-637.81 176.5,-622.08"/>
<polygon fill="black" stroke="black" points="180,-622.03 176.5,-612.03 173,-622.03 180,-622.03"/>
</g>
<!-- #jump([ns&#45;0]fight_2, [ns&#45;0]hunt_3)&#45;&gt;[ns&#45;0]hunt_3 -->
<g id="edge16" class="edge">
<title>#jump([ns&#45;0]fight_2, [ns&#45;0]hunt_3):#jump([ns&#45;0]fight_2, [ns&#45;0]hunt_3)&#45;&gt;[ns&#45;0]hunt_3:[ns&#45;0]hunt_3</title>
<path fill="none" stroke="black" d="M176.5,-399.43C176.5,-390.87 176.5,-373.81 176.5,-358.08"/>
<polygon fill="black" stroke="black" points="180,-358.03 176.5,-348.03 173,-358.03 180,-358.03"/>
</g>
</g>
</svg>
