<?xml version="1.0" encoding="UTF-8" standalone="no"?>
<!DOCTYPE svg PUBLIC "-//W3C//DTD SVG 1.1//EN"
 "http://www.w3.org/Graphics/SVG/1.1/DTD/svg11.dtd">
<!-- Generated by graphviz version 2.34.0 (20130907.0221)
 -->
<!-- Title: quest Pages: 1 -->
<svg width="200pt" height="950pt"
 viewBox="0.00 0.00 200.00 950.00" xmlns="http://www.w3.org/2000/svg" xmlns:xlink="http://www.w3.org/1999/xlink">
<g id="graph0" class="graph" transform="scale(1 1) rotate(0) translate(4 946)">
<title>quest</title>
<polygon fill="white" stroke="white" points="-4,4 -4,-946 196,-946 196,4 -4,4"/>
<!-- [ns&#45;0]start -->
<g id="node1" class="node"><title>[ns&#45;0]start</title>
<polygon fill="#eeeeee" stroke="none" points="37.5,-882.5 37.5,-937.5 154.5,-937.5 154.5,-882.5 37.5,-882.5"/>
<text text-anchor="start" x="40" y="-927.5" font-family="Times,serif" font-style="italic" font-size="10.00">[ns&#45;0]start</text>
<text text-anchor="start" x="116" y="-927.5" font-family="Times,serif" font-weight="bold" font-size="10.00">hunt</text>
<text text-anchor="start" x="40" y="-913" font-family="Times,serif" font-size="10.00">Начало: задание на охоту</text>
<polygon fill="#dddddd" stroke="none" points="39,-896 39,-909 154,-909 154,-896 39,-896"/>
<text text-anchor="start" x="40" y="-901" font-family="Times,serif" font-size="10.00">hero </text>
<text text-anchor="start" x="61" y="-901" font-family="Times,serif" font-weight="bold" font-size="10.00">находится в</text>
<text text-anchor="start" x="116" y="-901" font-family="Times,serif" font-size="10.00"> place_1</text>
<polygon fill="#ffffff" stroke="none" points="39,-883 39,-896 154,-896 154,-883 39,-883"/>
<text text-anchor="start" x="40" y="-888" font-family="Times,serif" font-weight="bold" font-size="10.00">сообщение:</text>
<text text-anchor="start" x="92" y="-888" font-family="Times,serif" font-size="10.00"> intro</text>
<polygon fill="none" stroke="black" points="37.5,-882.5 37.5,-937.5 154.5,-937.5 154.5,-882.5 37.5,-882.5"/>
</g>
<!-- #jump([ns&#45;0]start, [ns&#45;0]start_hunting) -->
<g id="node11" class="node"><title>#jump([ns&#45;0]start, [ns&#45;0]start_hunting)</title>
<polygon fill="#eeeeee" stroke="none" points="37,-817 37,-831 155,-831 155,-817 37,-817"/>
<text text-anchor="start" x="38" y="-822.5" font-family="Times,serif" font-weight="bold" font-size="10.00">сообщение:</text>
<text text-anchor="start" x="90" y="-822.5" font-family="Times,serif" font-size="10.00"> move_to_hunt</text>
</g>
<!-- [ns&#45;0]start&#45;&gt;#jump([ns&#45;0]start, [ns&#45;0]start_hunting) -->
<g id="edge9" class="edge"><title>[ns&#45;0]start:[ns&#45;0]start&#45;&gt;#jump([ns&#45;0]start, [ns&#45;0]start_hunting):#jump([ns&#45;0]start, [ns&#45;0]start_hunting)</title>
<path fill="none" stroke="black" d="M96,-882.422C96,-864.349 96,-841.853 96,-831.177"/>
</g>
<!-- [ns&#45;0]sell_prey -->
<g id="node2" class="node"><title>[ns&#45;0]sell_prey</title>
<polygon fill="#eeeeee" stroke="none" points="11.5,-4 11.5,-72 180.5,-72 180.5,-4 11.5,-4"/>
<text text-anchor="start" x="14" y="-62.5" font-family="Times,serif" font-style="italic" font-size="10.00">[ns&#45;0]sell_prey</text>
<text text-anchor="start" x="118.5" y="-62.5" font-family="Times,serif" font-weight="bold" font-size="10.00">successed</text>
<text text-anchor="start" x="14" y="-48" font-family="Times,serif" font-size="10.00">Продать добычу</text>
<polygon fill="#dddddd" stroke="none" points="13,-31 13,-44 180,-44 180,-31 13,-31"/>
<text text-anchor="start" x="14" y="-36" font-family="Times,serif" font-size="10.00">hero </text>
<text text-anchor="start" x="35" y="-36" font-family="Times,serif" font-weight="bold" font-size="10.00">находится в</text>
<text text-anchor="start" x="90" y="-36" font-family="Times,serif" font-size="10.00"> place_3</text>
<polygon fill="#ffffff" stroke="none" points="13,-18 13,-31 180,-31 180,-18 13,-18"/>
<text text-anchor="start" x="14" y="-23" font-family="Times,serif" font-weight="bold" font-size="10.00">выдать награду </text>
<text text-anchor="start" x="89" y="-23" font-family="Times,serif" font-size="10.00">  hero </text>
<text text-anchor="start" x="114" y="-23" font-family="Times,serif" font-weight="bold" font-size="10.00">типа </text>
<text text-anchor="start" x="138" y="-23" font-family="Times,serif" font-size="10.00"> sell_prey</text>
<polygon fill="#ffffff" stroke="none" points="13,-5 13,-18 180,-18 180,-5 13,-5"/>
<text text-anchor="start" x="14" y="-10" font-family="Times,serif" font-weight="bold" font-size="10.00">увеличить влияние </text>
<text text-anchor="start" x="102" y="-10" font-family="Times,serif" font-size="10.00">  place_3 </text>
<text text-anchor="start" x="142" y="-10" font-family="Times,serif" font-weight="bold" font-size="10.00">на </text>
<text text-anchor="start" x="155" y="-10" font-family="Times,serif" font-size="10.00"> 1.00</text>
<polygon fill="none" stroke="black" points="11.5,-4 11.5,-72 180.5,-72 180.5,-4 11.5,-4"/>
</g>
<!-- [ns&#45;0]fight_0 -->
<g id="node3" class="node"><title>[ns&#45;0]fight_0</title>
<polygon fill="#ddffdd" stroke="none" points="27.5,-456.5 27.5,-511.5 164.5,-511.5 164.5,-456.5 27.5,-456.5"/>
<text text-anchor="start" x="30" y="-501.5" font-family="Times,serif" font-style="italic" font-size="10.00">[ns&#45;0]fight_0</text>
<text text-anchor="start" x="30" y="-487" font-family="Times,serif" font-size="10.00">Сражение с жертвой</text>
<polygon fill="#eeffee" stroke="none" points="29,-470 29,-483 164,-483 164,-470 29,-470"/>
<text text-anchor="start" x="30" y="-475" font-family="Times,serif" font-weight="bold" font-size="10.00">сообщение:</text>
<text text-anchor="start" x="82" y="-475" font-family="Times,serif" font-size="10.00"> fight</text>
<polygon fill="#eeffee" stroke="none" points="29,-457 29,-470 164,-470 164,-457 29,-457"/>
<text text-anchor="start" x="30" y="-462" font-family="Times,serif" font-weight="bold" font-size="10.00">сразиться с</text>
<text text-anchor="start" x="82" y="-462" font-family="Times,serif" font-size="10.00">  mob_1</text>
<polygon fill="none" stroke="black" points="27.5,-456.5 27.5,-511.5 164.5,-511.5 164.5,-456.5 27.5,-456.5"/>
</g>
<!-- #jump([ns&#45;0]fight_0, [ns&#45;0]hunt_1) -->
<g id="node8" class="node"><title>#jump([ns&#45;0]fight_0, [ns&#45;0]hunt_1)</title>
<polygon fill="#eeeeee" stroke="none" points="46,-391 46,-405 147,-405 147,-391 46,-391"/>
<text text-anchor="start" x="47" y="-396.5" font-family="Times,serif" font-weight="bold" font-size="10.00">сообщение:</text>
<text text-anchor="start" x="99" y="-396.5" font-family="Times,serif" font-size="10.00"> start_track</text>
</g>
<!-- [ns&#45;0]fight_0&#45;&gt;#jump([ns&#45;0]fight_0, [ns&#45;0]hunt_1) -->
<g id="edge1" class="edge"><title>[ns&#45;0]fight_0:[ns&#45;0]fight_0&#45;&gt;#jump([ns&#45;0]fight_0, [ns&#45;0]hunt_1):#jump([ns&#45;0]fight_0, [ns&#45;0]hunt_1)</title>
<path fill="none" stroke="black" d="M96,-456.422C96,-438.349 96,-415.853 96,-405.177"/>
</g>
<!-- [ns&#45;0]fight_1 -->
<g id="node4" class="node"><title>[ns&#45;0]fight_1</title>
<polygon fill="#ddffdd" stroke="none" points="27.5,-188.5 27.5,-243.5 164.5,-243.5 164.5,-188.5 27.5,-188.5"/>
<text text-anchor="start" x="30" y="-233.5" font-family="Times,serif" font-style="italic" font-size="10.00">[ns&#45;0]fight_1</text>
<text text-anchor="start" x="30" y="-219" font-family="Times,serif" font-size="10.00">Сражение с жертвой</text>
<polygon fill="#eeffee" stroke="none" points="29,-202 29,-215 164,-215 164,-202 29,-202"/>
<text text-anchor="start" x="30" y="-207" font-family="Times,serif" font-weight="bold" font-size="10.00">сообщение:</text>
<text text-anchor="start" x="82" y="-207" font-family="Times,serif" font-size="10.00"> fight</text>
<polygon fill="#eeffee" stroke="none" points="29,-189 29,-202 164,-202 164,-189 29,-189"/>
<text text-anchor="start" x="30" y="-194" font-family="Times,serif" font-weight="bold" font-size="10.00">сразиться с</text>
<text text-anchor="start" x="82" y="-194" font-family="Times,serif" font-size="10.00">  mob_1</text>
<polygon fill="none" stroke="black" points="27.5,-188.5 27.5,-243.5 164.5,-243.5 164.5,-188.5 27.5,-188.5"/>
</g>
<!-- #jump([ns&#45;0]fight_1, [ns&#45;0]sell_prey) -->
<g id="node9" class="node"><title>#jump([ns&#45;0]fight_1, [ns&#45;0]sell_prey)</title>
<polygon fill="#eeeeee" stroke="none" points="32,-123 32,-137 161,-137 161,-123 32,-123"/>
<text text-anchor="start" x="33" y="-128.5" font-family="Times,serif" font-weight="bold" font-size="10.00">сообщение:</text>
<text text-anchor="start" x="85" y="-128.5" font-family="Times,serif" font-size="10.00"> return_with_prey</text>
</g>
<!-- [ns&#45;0]fight_1&#45;&gt;#jump([ns&#45;0]fight_1, [ns&#45;0]sell_prey) -->
<g id="edge5" class="edge"><title>[ns&#45;0]fight_1:[ns&#45;0]fight_1&#45;&gt;#jump([ns&#45;0]fight_1, [ns&#45;0]sell_prey):#jump([ns&#45;0]fight_1, [ns&#45;0]sell_prey)</title>
<path fill="none" stroke="black" d="M96,-188.422C96,-170.349 96,-147.853 96,-137.177"/>
</g>
<!-- [ns&#45;0]hunt_0 -->
<g id="node5" class="node"><title>[ns&#45;0]hunt_0</title>
<polygon fill="#ddffdd" stroke="none" points="7.5,-556.5 7.5,-607.5 184.5,-607.5 184.5,-556.5 7.5,-556.5"/>
<text text-anchor="start" x="10" y="-597.5" font-family="Times,serif" font-style="italic" font-size="10.00">[ns&#45;0]hunt_0</text>
<text text-anchor="start" x="10" y="-583" font-family="Times,serif" font-size="10.00">Охота</text>
<polygon fill="#eeffee" stroke="none" points="9,-557 9,-579 184,-579 184,-557 9,-557"/>
<text text-anchor="start" x="10" y="-571" font-family="Times,serif" font-weight="bold" font-size="10.00">отправить </text>
<text text-anchor="start" x="60" y="-571" font-family="Times,serif" font-size="10.00"> hero</text>
<text text-anchor="start" x="81" y="-571" font-family="Times,serif" font-weight="bold" font-size="10.00">бродить около</text>
<text text-anchor="start" x="147" y="-571" font-family="Times,serif" font-size="10.00"> place_3</text>
<text text-anchor="start" x="47" y="-561" font-family="Times,serif" font-size="10.00"> среди ландшафтов (0,)</text>
<polygon fill="none" stroke="black" points="7.5,-556.5 7.5,-607.5 184.5,-607.5 184.5,-556.5 7.5,-556.5"/>
</g>
<!-- [ns&#45;0]hunt_0&#45;&gt;[ns&#45;0]fight_0 -->
<g id="edge4" class="edge"><title>[ns&#45;0]hunt_0:[ns&#45;0]hunt_0&#45;&gt;[ns&#45;0]fight_0:[ns&#45;0]fight_0</title>
<path fill="none" stroke="black" d="M96,-556.278C96,-545.814 96,-533.404 96,-521.894"/>
<polygon fill="black" stroke="black" points="99.5001,-521.66 96,-511.66 92.5001,-521.66 99.5001,-521.66"/>
</g>
<!-- [ns&#45;0]hunt_1 -->
<g id="node6" class="node"><title>[ns&#45;0]hunt_1</title>
<polygon fill="#ddffdd" stroke="none" points="7.5,-288.5 7.5,-339.5 184.5,-339.5 184.5,-288.5 7.5,-288.5"/>
<text text-anchor="start" x="10" y="-329.5" font-family="Times,serif" font-style="italic" font-size="10.00">[ns&#45;0]hunt_1</text>
<text text-anchor="start" x="10" y="-315" font-family="Times,serif" font-size="10.00">Охота</text>
<polygon fill="#eeffee" stroke="none" points="9,-289 9,-311 184,-311 184,-289 9,-289"/>
<text text-anchor="start" x="10" y="-303" font-family="Times,serif" font-weight="bold" font-size="10.00">отправить </text>
<text text-anchor="start" x="60" y="-303" font-family="Times,serif" font-size="10.00"> hero</text>
<text text-anchor="start" x="81" y="-303" font-family="Times,serif" font-weight="bold" font-size="10.00">бродить около</text>
<text text-anchor="start" x="147" y="-303" font-family="Times,serif" font-size="10.00"> place_3</text>
<text text-anchor="start" x="47" y="-293" font-family="Times,serif" font-size="10.00"> среди ландшафтов (0,)</text>
<polygon fill="none" stroke="black" points="7.5,-288.5 7.5,-339.5 184.5,-339.5 184.5,-288.5 7.5,-288.5"/>
</g>
<!-- [ns&#45;0]hunt_1&#45;&gt;[ns&#45;0]fight_1 -->
<g id="edge3" class="edge"><title>[ns&#45;0]hunt_1:[ns&#45;0]hunt_1&#45;&gt;[ns&#45;0]fight_1:[ns&#45;0]fight_1</title>
<path fill="none" stroke="black" d="M96,-288.278C96,-277.814 96,-265.404 96,-253.894"/>
<polygon fill="black" stroke="black" points="99.5001,-253.66 96,-243.66 92.5001,-253.66 99.5001,-253.66"/>
</g>
<!-- [ns&#45;0]start_hunting -->
<g id="node7" class="node"><title>[ns&#45;0]start_hunting</title>
<polygon fill="#ddffdd" stroke="none" points="12,-724 12,-766 180,-766 180,-724 12,-724"/>
<text text-anchor="start" x="14" y="-756.5" font-family="Times,serif" font-style="italic" font-size="10.00">[ns&#45;0]start_hunting</text>
<text text-anchor="start" x="14" y="-742" font-family="Times,serif" font-size="10.00">Прибытие в город охоты</text>
<polygon fill="#cceecc" stroke="none" points="13,-725 13,-738 179,-738 179,-725 13,-725"/>
<text text-anchor="start" x="14" y="-730" font-family="Times,serif" font-size="10.00">hero </text>
<text text-anchor="start" x="35" y="-730" font-family="Times,serif" font-weight="bold" font-size="10.00">находится в</text>
<text text-anchor="start" x="90" y="-730" font-family="Times,serif" font-size="10.00"> place_3</text>
<polygon fill="none" stroke="black" points="12,-724 12,-766 180,-766 180,-724 12,-724"/>
</g>
<!-- #jump([ns&#45;0]start_hunting, [ns&#45;0]hunt_0) -->
<g id="node10" class="node"><title>#jump([ns&#45;0]start_hunting, [ns&#45;0]hunt_0)</title>
<polygon fill="#eeeeee" stroke="none" points="46,-659 46,-673 147,-673 147,-659 46,-659"/>
<text text-anchor="start" x="47" y="-664.5" font-family="Times,serif" font-weight="bold" font-size="10.00">сообщение:</text>
<text text-anchor="start" x="99" y="-664.5" font-family="Times,serif" font-size="10.00"> start_track</text>
</g>
<!-- [ns&#45;0]start_hunting&#45;&gt;#jump([ns&#45;0]start_hunting, [ns&#45;0]hunt_0) -->
<g id="edge7" class="edge"><title>[ns&#45;0]start_hunting:[ns&#45;0]start_hunting&#45;&gt;#jump([ns&#45;0]start_hunting, [ns&#45;0]hunt_0):#jump([ns&#45;0]start_hunting, [ns&#45;0]hunt_0)</title>
<path fill="none" stroke="black" d="M96,-723.769C96,-707.015 96,-684.253 96,-673.342"/>
</g>
<!-- #jump([ns&#45;0]fight_0, [ns&#45;0]hunt_1)&#45;&gt;[ns&#45;0]hunt_1 -->
<g id="edge2" class="edge"><title>#jump([ns&#45;0]fight_0, [ns&#45;0]hunt_1):#jump([ns&#45;0]fight_0, [ns&#45;0]hunt_1)&#45;&gt;[ns&#45;0]hunt_1:[ns&#45;0]hunt_1</title>
<path fill="none" stroke="black" d="M96,-390.837C96,-382.121 96,-365.531 96,-350.086"/>
<polygon fill="black" stroke="black" points="99.5001,-349.686 96,-339.686 92.5001,-349.686 99.5001,-349.686"/>
</g>
<!-- #jump([ns&#45;0]fight_1, [ns&#45;0]sell_prey)&#45;&gt;[ns&#45;0]sell_prey -->
<g id="edge6" class="edge"><title>#jump([ns&#45;0]fight_1, [ns&#45;0]sell_prey):#jump([ns&#45;0]fight_1, [ns&#45;0]sell_prey)&#45;&gt;[ns&#45;0]sell_prey:[ns&#45;0]sell_prey</title>
<path fill="none" stroke="black" d="M96,-122.814C96,-114.344 96,-98.3863 96,-82.6494"/>
<polygon fill="black" stroke="black" points="99.5001,-82.4207 96,-72.4207 92.5001,-82.4208 99.5001,-82.4207"/>
</g>
<!-- #jump([ns&#45;0]start_hunting, [ns&#45;0]hunt_0)&#45;&gt;[ns&#45;0]hunt_0 -->
<g id="edge8" class="edge"><title>#jump([ns&#45;0]start_hunting, [ns&#45;0]hunt_0):#jump([ns&#45;0]start_hunting, [ns&#45;0]hunt_0)&#45;&gt;[ns&#45;0]hunt_0:[ns&#45;0]hunt_0</title>
<path fill="none" stroke="black" d="M96,-658.837C96,-650.121 96,-633.531 96,-618.086"/>
<polygon fill="black" stroke="black" points="99.5001,-617.686 96,-607.686 92.5001,-617.686 99.5001,-617.686"/>
</g>
<!-- #jump([ns&#45;0]start, [ns&#45;0]start_hunting)&#45;&gt;[ns&#45;0]start_hunting -->
<g id="edge10" class="edge"><title>#jump([ns&#45;0]start, [ns&#45;0]start_hunting):#jump([ns&#45;0]start, [ns&#45;0]start_hunting)&#45;&gt;[ns&#45;0]start_hunting:[ns&#45;0]start_hunting</title>
<path fill="none" stroke="black" d="M96,-816.958C96,-808.201 96,-791.379 96,-776.312"/>
<polygon fill="black" stroke="black" points="99.5001,-776.281 96,-766.281 92.5001,-776.281 99.5001,-776.281"/>
</g>
</g>
</svg>
