<?xml version="1.0" encoding="UTF-8" standalone="no"?>
<!DOCTYPE svg PUBLIC "-//W3C//DTD SVG 1.1//EN"
 "http://www.w3.org/Graphics/SVG/1.1/DTD/svg11.dtd">
<!-- Generated by graphviz version 2.34.0 (20130907.0221)
 -->
<!-- Title: quest Pages: 1 -->
<svg width="260pt" height="976pt"
 viewBox="0.00 0.00 260.00 976.00" xmlns="http://www.w3.org/2000/svg" xmlns:xlink="http://www.w3.org/1999/xlink">
<g id="graph0" class="graph" transform="scale(1 1) rotate(0) translate(4 972)">
<title>quest</title>
<polygon fill="white" stroke="white" points="-4,4 -4,-972 256,-972 256,4 -4,4"/>
<!-- [ns&#45;0]start -->
<g id="node1" class="node"><title>[ns&#45;0]start</title>
<polygon fill="#eeeeee" stroke="none" points="67.5,-908.5 67.5,-963.5 184.5,-963.5 184.5,-908.5 67.5,-908.5"/>
<text text-anchor="start" x="70" y="-953.5" font-family="Times,serif" font-style="italic" font-size="10.00">[ns&#45;0]start</text>
<text text-anchor="start" x="146" y="-953.5" font-family="Times,serif" font-weight="bold" font-size="10.00">hunt</text>
<text text-anchor="start" x="70" y="-939" font-family="Times,serif" font-size="10.00">Начало: задание на охоту</text>
<polygon fill="#dddddd" stroke="none" points="69,-922 69,-935 184,-935 184,-922 69,-922"/>
<text text-anchor="start" x="70" y="-927" font-family="Times,serif" font-size="10.00">hero </text>
<text text-anchor="start" x="91" y="-927" font-family="Times,serif" font-weight="bold" font-size="10.00">находится в</text>
<text text-anchor="start" x="146" y="-927" font-family="Times,serif" font-size="10.00"> place_1</text>
<polygon fill="#ffffff" stroke="none" points="69,-909 69,-922 184,-922 184,-909 69,-909"/>
<text text-anchor="start" x="70" y="-914" font-family="Times,serif" font-weight="bold" font-size="10.00">сообщение:</text>
<text text-anchor="start" x="122" y="-914" font-family="Times,serif" font-size="10.00"> intro</text>
<polygon fill="none" stroke="black" points="67.5,-908.5 67.5,-963.5 184.5,-963.5 184.5,-908.5 67.5,-908.5"/>
</g>
<!-- #jump([ns&#45;0]start, [ns&#45;0]start_hunting) -->
<g id="node11" class="node"><title>#jump([ns&#45;0]start, [ns&#45;0]start_hunting)</title>
<polygon fill="#eeeeee" stroke="none" points="67,-843 67,-857 185,-857 185,-843 67,-843"/>
<text text-anchor="start" x="68" y="-848.5" font-family="Times,serif" font-weight="bold" font-size="10.00">сообщение:</text>
<text text-anchor="start" x="120" y="-848.5" font-family="Times,serif" font-size="10.00"> move_to_hunt</text>
</g>
<!-- [ns&#45;0]start&#45;&gt;#jump([ns&#45;0]start, [ns&#45;0]start_hunting) -->
<g id="edge9" class="edge"><title>[ns&#45;0]start:[ns&#45;0]start&#45;&gt;#jump([ns&#45;0]start, [ns&#45;0]start_hunting):#jump([ns&#45;0]start, [ns&#45;0]start_hunting)</title>
<path fill="none" stroke="black" d="M126,-908.422C126,-890.349 126,-867.853 126,-857.177"/>
</g>
<!-- [ns&#45;0]fight_0 -->
<g id="node2" class="node"><title>[ns&#45;0]fight_0</title>
<polygon fill="#ddffdd" stroke="none" points="73.5,-482.5 73.5,-537.5 178.5,-537.5 178.5,-482.5 73.5,-482.5"/>
<text text-anchor="start" x="76" y="-527.5" font-family="Times,serif" font-style="italic" font-size="10.00">[ns&#45;0]fight_0</text>
<text text-anchor="start" x="76" y="-513" font-family="Times,serif" font-size="10.00">Сражение с жертвой</text>
<polygon fill="#eeffee" stroke="none" points="75,-496 75,-509 178,-509 178,-496 75,-496"/>
<text text-anchor="start" x="76" y="-501" font-family="Times,serif" font-weight="bold" font-size="10.00">сообщение:</text>
<text text-anchor="start" x="128" y="-501" font-family="Times,serif" font-size="10.00"> fight</text>
<polygon fill="#eeffee" stroke="none" points="75,-483 75,-496 178,-496 178,-483 75,-483"/>
<text text-anchor="start" x="76" y="-488" font-family="Times,serif" font-weight="bold" font-size="10.00">сразиться с</text>
<text text-anchor="start" x="128" y="-488" font-family="Times,serif" font-size="10.00">  mob_1</text>
<polygon fill="none" stroke="black" points="73.5,-482.5 73.5,-537.5 178.5,-537.5 178.5,-482.5 73.5,-482.5"/>
</g>
<!-- #jump([ns&#45;0]fight_0, [ns&#45;0]hunt_1) -->
<g id="node8" class="node"><title>#jump([ns&#45;0]fight_0, [ns&#45;0]hunt_1)</title>
<polygon fill="#eeeeee" stroke="none" points="76,-417 76,-431 177,-431 177,-417 76,-417"/>
<text text-anchor="start" x="77" y="-422.5" font-family="Times,serif" font-weight="bold" font-size="10.00">сообщение:</text>
<text text-anchor="start" x="129" y="-422.5" font-family="Times,serif" font-size="10.00"> start_track</text>
</g>
<!-- [ns&#45;0]fight_0&#45;&gt;#jump([ns&#45;0]fight_0, [ns&#45;0]hunt_1) -->
<g id="edge1" class="edge"><title>[ns&#45;0]fight_0:[ns&#45;0]fight_0&#45;&gt;#jump([ns&#45;0]fight_0, [ns&#45;0]hunt_1):#jump([ns&#45;0]fight_0, [ns&#45;0]hunt_1)</title>
<path fill="none" stroke="black" d="M126,-482.422C126,-464.349 126,-441.853 126,-431.177"/>
</g>
<!-- [ns&#45;0]fight_1 -->
<g id="node3" class="node"><title>[ns&#45;0]fight_1</title>
<polygon fill="#ddffdd" stroke="none" points="73.5,-214.5 73.5,-269.5 178.5,-269.5 178.5,-214.5 73.5,-214.5"/>
<text text-anchor="start" x="76" y="-259.5" font-family="Times,serif" font-style="italic" font-size="10.00">[ns&#45;0]fight_1</text>
<text text-anchor="start" x="76" y="-245" font-family="Times,serif" font-size="10.00">Сражение с жертвой</text>
<polygon fill="#eeffee" stroke="none" points="75,-228 75,-241 178,-241 178,-228 75,-228"/>
<text text-anchor="start" x="76" y="-233" font-family="Times,serif" font-weight="bold" font-size="10.00">сообщение:</text>
<text text-anchor="start" x="128" y="-233" font-family="Times,serif" font-size="10.00"> fight</text>
<polygon fill="#eeffee" stroke="none" points="75,-215 75,-228 178,-228 178,-215 75,-215"/>
<text text-anchor="start" x="76" y="-220" font-family="Times,serif" font-weight="bold" font-size="10.00">сразиться с</text>
<text text-anchor="start" x="128" y="-220" font-family="Times,serif" font-size="10.00">  mob_1</text>
<polygon fill="none" stroke="black" points="73.5,-214.5 73.5,-269.5 178.5,-269.5 178.5,-214.5 73.5,-214.5"/>
</g>
<!-- #jump([ns&#45;0]fight_1, [ns&#45;0]sell_prey) -->
<g id="node9" class="node"><title>#jump([ns&#45;0]fight_1, [ns&#45;0]sell_prey)</title>
<polygon fill="#eeeeee" stroke="none" points="62,-149 62,-163 191,-163 191,-149 62,-149"/>
<text text-anchor="start" x="63" y="-154.5" font-family="Times,serif" font-weight="bold" font-size="10.00">сообщение:</text>
<text text-anchor="start" x="115" y="-154.5" font-family="Times,serif" font-size="10.00"> return_with_prey</text>
</g>
<!-- [ns&#45;0]fight_1&#45;&gt;#jump([ns&#45;0]fight_1, [ns&#45;0]sell_prey) -->
<g id="edge5" class="edge"><title>[ns&#45;0]fight_1:[ns&#45;0]fight_1&#45;&gt;#jump([ns&#45;0]fight_1, [ns&#45;0]sell_prey):#jump([ns&#45;0]fight_1, [ns&#45;0]sell_prey)</title>
<path fill="none" stroke="black" d="M126,-214.422C126,-196.349 126,-173.853 126,-163.177"/>
</g>
<!-- [ns&#45;0]hunt_0 -->
<g id="node4" class="node"><title>[ns&#45;0]hunt_0</title>
<polygon fill="#ddffdd" stroke="none" points="37.5,-582.5 37.5,-633.5 214.5,-633.5 214.5,-582.5 37.5,-582.5"/>
<text text-anchor="start" x="40" y="-623.5" font-family="Times,serif" font-style="italic" font-size="10.00">[ns&#45;0]hunt_0</text>
<text text-anchor="start" x="40" y="-609" font-family="Times,serif" font-size="10.00">Охота</text>
<polygon fill="#eeffee" stroke="none" points="39,-583 39,-605 214,-605 214,-583 39,-583"/>
<text text-anchor="start" x="40" y="-597" font-family="Times,serif" font-weight="bold" font-size="10.00">отправить </text>
<text text-anchor="start" x="90" y="-597" font-family="Times,serif" font-size="10.00"> hero</text>
<text text-anchor="start" x="111" y="-597" font-family="Times,serif" font-weight="bold" font-size="10.00">бродить около</text>
<text text-anchor="start" x="177" y="-597" font-family="Times,serif" font-size="10.00"> place_3</text>
<text text-anchor="start" x="77" y="-587" font-family="Times,serif" font-size="10.00"> среди ландшафтов (0,)</text>
<polygon fill="none" stroke="black" points="37.5,-582.5 37.5,-633.5 214.5,-633.5 214.5,-582.5 37.5,-582.5"/>
</g>
<!-- [ns&#45;0]hunt_0&#45;&gt;[ns&#45;0]fight_0 -->
<g id="edge4" class="edge"><title>[ns&#45;0]hunt_0:[ns&#45;0]hunt_0&#45;&gt;[ns&#45;0]fight_0:[ns&#45;0]fight_0</title>
<path fill="none" stroke="black" d="M126,-582.278C126,-571.814 126,-559.404 126,-547.894"/>
<polygon fill="black" stroke="black" points="129.5,-547.66 126,-537.66 122.5,-547.66 129.5,-547.66"/>
</g>
<!-- [ns&#45;0]hunt_1 -->
<g id="node5" class="node"><title>[ns&#45;0]hunt_1</title>
<polygon fill="#ddffdd" stroke="none" points="37.5,-314.5 37.5,-365.5 214.5,-365.5 214.5,-314.5 37.5,-314.5"/>
<text text-anchor="start" x="40" y="-355.5" font-family="Times,serif" font-style="italic" font-size="10.00">[ns&#45;0]hunt_1</text>
<text text-anchor="start" x="40" y="-341" font-family="Times,serif" font-size="10.00">Охота</text>
<polygon fill="#eeffee" stroke="none" points="39,-315 39,-337 214,-337 214,-315 39,-315"/>
<text text-anchor="start" x="40" y="-329" font-family="Times,serif" font-weight="bold" font-size="10.00">отправить </text>
<text text-anchor="start" x="90" y="-329" font-family="Times,serif" font-size="10.00"> hero</text>
<text text-anchor="start" x="111" y="-329" font-family="Times,serif" font-weight="bold" font-size="10.00">бродить около</text>
<text text-anchor="start" x="177" y="-329" font-family="Times,serif" font-size="10.00"> place_3</text>
<text text-anchor="start" x="77" y="-319" font-family="Times,serif" font-size="10.00"> среди ландшафтов (0,)</text>
<polygon fill="none" stroke="black" points="37.5,-314.5 37.5,-365.5 214.5,-365.5 214.5,-314.5 37.5,-314.5"/>
</g>
<!-- [ns&#45;0]hunt_1&#45;&gt;[ns&#45;0]fight_1 -->
<g id="edge3" class="edge"><title>[ns&#45;0]hunt_1:[ns&#45;0]hunt_1&#45;&gt;[ns&#45;0]fight_1:[ns&#45;0]fight_1</title>
<path fill="none" stroke="black" d="M126,-314.278C126,-303.814 126,-291.404 126,-279.894"/>
<polygon fill="black" stroke="black" points="129.5,-279.66 126,-269.66 122.5,-279.66 129.5,-279.66"/>
</g>
<!-- [ns&#45;0]start_hunting -->
<g id="node6" class="node"><title>[ns&#45;0]start_hunting</title>
<polygon fill="#ddffdd" stroke="none" points="54,-750 54,-792 198,-792 198,-750 54,-750"/>
<text text-anchor="start" x="56" y="-782.5" font-family="Times,serif" font-style="italic" font-size="10.00">[ns&#45;0]start_hunting</text>
<text text-anchor="start" x="56" y="-768" font-family="Times,serif" font-size="10.00">Прибытие в город охоты</text>
<polygon fill="#cceecc" stroke="none" points="55,-751 55,-764 197,-764 197,-751 55,-751"/>
<text text-anchor="start" x="56" y="-756" font-family="Times,serif" font-size="10.00">hero </text>
<text text-anchor="start" x="77" y="-756" font-family="Times,serif" font-weight="bold" font-size="10.00">находится в</text>
<text text-anchor="start" x="132" y="-756" font-family="Times,serif" font-size="10.00"> place_3</text>
<polygon fill="none" stroke="black" points="54,-750 54,-792 198,-792 198,-750 54,-750"/>
</g>
<!-- #jump([ns&#45;0]start_hunting, [ns&#45;0]hunt_0) -->
<g id="node10" class="node"><title>#jump([ns&#45;0]start_hunting, [ns&#45;0]hunt_0)</title>
<polygon fill="#eeeeee" stroke="none" points="76,-685 76,-699 177,-699 177,-685 76,-685"/>
<text text-anchor="start" x="77" y="-690.5" font-family="Times,serif" font-weight="bold" font-size="10.00">сообщение:</text>
<text text-anchor="start" x="129" y="-690.5" font-family="Times,serif" font-size="10.00"> start_track</text>
</g>
<!-- [ns&#45;0]start_hunting&#45;&gt;#jump([ns&#45;0]start_hunting, [ns&#45;0]hunt_0) -->
<g id="edge7" class="edge"><title>[ns&#45;0]start_hunting:[ns&#45;0]start_hunting&#45;&gt;#jump([ns&#45;0]start_hunting, [ns&#45;0]hunt_0):#jump([ns&#45;0]start_hunting, [ns&#45;0]hunt_0)</title>
<path fill="none" stroke="black" d="M126,-749.769C126,-733.015 126,-710.253 126,-699.342"/>
</g>
<!-- [ns&#45;0]sell_prey -->
<g id="node7" class="node"><title>[ns&#45;0]sell_prey</title>
<polygon fill="#eeeeee" stroke="none" points="7.5,-4 7.5,-98 244.5,-98 244.5,-4 7.5,-4"/>
<text text-anchor="start" x="10" y="-88.5" font-family="Times,serif" font-style="italic" font-size="10.00">[ns&#45;0]sell_prey</text>
<text text-anchor="start" x="10" y="-74" font-family="Times,serif" font-size="10.00">Продать добычу</text>
<polygon fill="#dddddd" stroke="none" points="9,-57 9,-70 244,-70 244,-57 9,-57"/>
<text text-anchor="start" x="10" y="-62" font-family="Times,serif" font-size="10.00">hero </text>
<text text-anchor="start" x="31" y="-62" font-family="Times,serif" font-weight="bold" font-size="10.00">находится в</text>
<text text-anchor="start" x="86" y="-62" font-family="Times,serif" font-size="10.00"> place_3</text>
<polygon fill="#ffffff" stroke="none" points="9,-44 9,-57 244,-57 244,-44 9,-44"/>
<text text-anchor="start" x="10" y="-49" font-family="Times,serif" font-weight="bold" font-size="10.00">выдать награду </text>
<text text-anchor="start" x="85" y="-49" font-family="Times,serif" font-size="10.00">  hero </text>
<text text-anchor="start" x="110" y="-49" font-family="Times,serif" font-weight="bold" font-size="10.00">типа </text>
<text text-anchor="start" x="134" y="-49" font-family="Times,serif" font-size="10.00"> sell_prey </text>
<text text-anchor="start" x="177" y="-49" font-family="Times,serif" font-weight="bold" font-size="10.00">в размере</text>
<text text-anchor="start" x="220" y="-49" font-family="Times,serif" font-size="10.00"> 1.00</text>
<polygon fill="#ffffff" stroke="none" points="9,-31 9,-44 244,-44 244,-31 9,-31"/>
<text text-anchor="start" x="10" y="-36" font-family="Times,serif" font-weight="bold" font-size="10.00">увеличить влияние </text>
<text text-anchor="start" x="98" y="-36" font-family="Times,serif" font-size="10.00">  </text>
<text text-anchor="start" x="103" y="-36" font-family="Times,serif" font-size="10.00" fill="#000000">place_3</text>
<text text-anchor="start" x="136" y="-36" font-family="Times,serif" font-size="10.00"> </text>
<text text-anchor="start" x="139" y="-36" font-family="Times,serif" font-weight="bold" font-size="10.00">на </text>
<text text-anchor="start" x="152" y="-36" font-family="Times,serif" font-size="10.00"> 1.00</text>
<polygon fill="#eeeeee" stroke="none" points="9,-18 9,-31 244,-31 244,-18 9,-18"/>
<text text-anchor="start" x="10" y="-23" font-family="Times,serif" font-weight="bold" font-size="10.00">результаты:</text>
<text text-anchor="start" x="10" y="-10" font-family="Times,serif" font-weight="bold" font-size="10.00">place_3</text>
<text text-anchor="start" x="128" y="-9" font-family="Times,serif" font-size="10.00">successed</text>
<polygon fill="none" stroke="black" points="7.5,-4 7.5,-98 244.5,-98 244.5,-4 7.5,-4"/>
</g>
<!-- #jump([ns&#45;0]fight_0, [ns&#45;0]hunt_1)&#45;&gt;[ns&#45;0]hunt_1 -->
<g id="edge2" class="edge"><title>#jump([ns&#45;0]fight_0, [ns&#45;0]hunt_1):#jump([ns&#45;0]fight_0, [ns&#45;0]hunt_1)&#45;&gt;[ns&#45;0]hunt_1:[ns&#45;0]hunt_1</title>
<path fill="none" stroke="black" d="M126,-416.837C126,-408.121 126,-391.531 126,-376.086"/>
<polygon fill="black" stroke="black" points="129.5,-375.686 126,-365.686 122.5,-375.686 129.5,-375.686"/>
</g>
<!-- #jump([ns&#45;0]fight_1, [ns&#45;0]sell_prey)&#45;&gt;[ns&#45;0]sell_prey -->
<g id="edge6" class="edge"><title>#jump([ns&#45;0]fight_1, [ns&#45;0]sell_prey):#jump([ns&#45;0]fight_1, [ns&#45;0]sell_prey)&#45;&gt;[ns&#45;0]sell_prey:[ns&#45;0]sell_prey</title>
<path fill="none" stroke="black" d="M126,-148.865C126,-140.545 126,-124.829 126,-108.44"/>
<polygon fill="black" stroke="black" points="129.5,-108.209 126,-98.2087 122.5,-108.209 129.5,-108.209"/>
</g>
<!-- #jump([ns&#45;0]start_hunting, [ns&#45;0]hunt_0)&#45;&gt;[ns&#45;0]hunt_0 -->
<g id="edge8" class="edge"><title>#jump([ns&#45;0]start_hunting, [ns&#45;0]hunt_0):#jump([ns&#45;0]start_hunting, [ns&#45;0]hunt_0)&#45;&gt;[ns&#45;0]hunt_0:[ns&#45;0]hunt_0</title>
<path fill="none" stroke="black" d="M126,-684.837C126,-676.121 126,-659.531 126,-644.086"/>
<polygon fill="black" stroke="black" points="129.5,-643.686 126,-633.686 122.5,-643.686 129.5,-643.686"/>
</g>
<!-- #jump([ns&#45;0]start, [ns&#45;0]start_hunting)&#45;&gt;[ns&#45;0]start_hunting -->
<g id="edge10" class="edge"><title>#jump([ns&#45;0]start, [ns&#45;0]start_hunting):#jump([ns&#45;0]start, [ns&#45;0]start_hunting)&#45;&gt;[ns&#45;0]start_hunting:[ns&#45;0]start_hunting</title>
<path fill="none" stroke="black" d="M126,-842.958C126,-834.201 126,-817.379 126,-802.312"/>
<polygon fill="black" stroke="black" points="129.5,-802.281 126,-792.281 122.5,-802.281 129.5,-802.281"/>
</g>
</g>
</svg>
