<?xml version="1.0" encoding="UTF-8" standalone="no"?>
<!DOCTYPE svg PUBLIC "-//W3C//DTD SVG 1.1//EN"
 "http://www.w3.org/Graphics/SVG/1.1/DTD/svg11.dtd">
<!-- Generated by graphviz version 2.34.0 (20130907.0221)
 -->
<!-- Title: quest Pages: 1 -->
<svg width="2416pt" height="84pt"
 viewBox="0.00 0.00 2416.00 84.00" xmlns="http://www.w3.org/2000/svg" xmlns:xlink="http://www.w3.org/1999/xlink">
<g id="graph0" class="graph" transform="scale(1 1) rotate(0) translate(4 80)">
<title>quest</title>
<polygon fill="white" stroke="white" points="-4,4 -4,-80 2412,-80 2412,4 -4,4"/>
<!-- [ns&#45;0]start -->
<g id="node1" class="node"><title>[ns&#45;0]start</title>
<polygon fill="#eeeeee" stroke="none" points="8.5,-10.5 8.5,-65.5 125.5,-65.5 125.5,-10.5 8.5,-10.5"/>
<text text-anchor="start" x="11" y="-55.5" font-family="Times,serif" font-style="italic" font-size="10.00">[ns&#45;0]start</text>
<text text-anchor="start" x="105" y="-55.5" font-family="Times,serif" font-weight="bold" font-size="10.00">hunt</text>
<text text-anchor="start" x="11" y="-41" font-family="Times,serif" font-size="10.00">Начало: задание на охоту</text>
<polygon fill="#dddddd" stroke="none" points="10,-24 10,-37 125,-37 125,-24 10,-24"/>
<text text-anchor="start" x="11" y="-29" font-family="Times,serif" font-size="10.00">hero </text>
<text text-anchor="start" x="32" y="-29" font-family="Times,serif" font-weight="bold" font-size="10.00">находится в</text>
<text text-anchor="start" x="87" y="-29" font-family="Times,serif" font-size="10.00"> place_2</text>
<polygon fill="#ffffff" stroke="none" points="10,-11 10,-24 125,-24 125,-11 10,-11"/>
<text text-anchor="start" x="11" y="-16" font-family="Times,serif" font-weight="bold" font-size="10.00">сообщение:</text>
<text text-anchor="start" x="63" y="-16" font-family="Times,serif" font-size="10.00"> intro</text>
<polygon fill="none" stroke="black" points="8.5,-10.5 8.5,-65.5 125.5,-65.5 125.5,-10.5 8.5,-10.5"/>
</g>
<!-- #jump([ns&#45;0]start, [ns&#45;0]start_hunting) -->
<g id="node10" class="node"><title>#jump([ns&#45;0]start, [ns&#45;0]start_hunting)</title>
<polygon fill="#eeeeee" stroke="none" points="178,-31 178,-45 296,-45 296,-31 178,-31"/>
<text text-anchor="start" x="179" y="-36.5" font-family="Times,serif" font-weight="bold" font-size="10.00">сообщение:</text>
<text text-anchor="start" x="231" y="-36.5" font-family="Times,serif" font-size="10.00"> move_to_hunt</text>
</g>
<!-- [ns&#45;0]start&#45;&gt;#jump([ns&#45;0]start, [ns&#45;0]start_hunting) -->
<g id="edge1" class="edge"><title>[ns&#45;0]start:[ns&#45;0]start&#45;&gt;#jump([ns&#45;0]start, [ns&#45;0]start_hunting):#jump([ns&#45;0]start, [ns&#45;0]start_hunting)</title>
<path fill="none" stroke="black" d="M125.504,-38C142.408,-38 160.865,-38 177.811,-38"/>
</g>
<!-- [ns&#45;0]sell_prey -->
<g id="node2" class="node"><title>[ns&#45;0]sell_prey</title>
<polygon fill="#eeeeee" stroke="none" points="2242.5,-4 2242.5,-72 2399.5,-72 2399.5,-4 2242.5,-4"/>
<text text-anchor="start" x="2245" y="-62.5" font-family="Times,serif" font-style="italic" font-size="10.00">[ns&#45;0]sell_prey</text>
<text text-anchor="start" x="2358" y="-62.5" font-family="Times,serif" font-weight="bold" font-size="10.00">sell_prey</text>
<text text-anchor="start" x="2245" y="-48" font-family="Times,serif" font-size="10.00">Продать добычу</text>
<polygon fill="#dddddd" stroke="none" points="2244,-31 2244,-44 2399,-44 2399,-31 2244,-31"/>
<text text-anchor="start" x="2245" y="-36" font-family="Times,serif" font-size="10.00">hero </text>
<text text-anchor="start" x="2266" y="-36" font-family="Times,serif" font-weight="bold" font-size="10.00">находится в</text>
<text text-anchor="start" x="2321" y="-36" font-family="Times,serif" font-size="10.00"> place_3</text>
<polygon fill="#ffffff" stroke="none" points="2244,-18 2244,-31 2399,-31 2399,-18 2244,-18"/>
<text text-anchor="start" x="2245" y="-23" font-family="Times,serif" font-weight="bold" font-size="10.00">сообщение:</text>
<text text-anchor="start" x="2297" y="-23" font-family="Times,serif" font-size="10.00"> sell_prey</text>
<polygon fill="#ffffff" stroke="none" points="2244,-5 2244,-18 2399,-18 2399,-5 2244,-5"/>
<text text-anchor="start" x="2245" y="-10" font-family="Times,serif" font-weight="bold" font-size="10.00">увеличть влияние</text>
<text text-anchor="start" x="2325" y="-10" font-family="Times,serif" font-size="10.00">  place_3 </text>
<text text-anchor="start" x="2365" y="-10" font-family="Times,serif" font-weight="bold" font-size="10.00">на</text>
<text text-anchor="start" x="2376" y="-10" font-family="Times,serif" font-size="10.00"> 1.00</text>
<polygon fill="none" stroke="black" points="2242.5,-4 2242.5,-72 2399.5,-72 2399.5,-4 2242.5,-4"/>
</g>
<!-- [ns&#45;0]fight_0 -->
<g id="node3" class="node"><title>[ns&#45;0]fight_0</title>
<polygon fill="#ddffdd" stroke="none" points="898.5,-10.5 898.5,-65.5 1003.5,-65.5 1003.5,-10.5 898.5,-10.5"/>
<text text-anchor="start" x="901" y="-55.5" font-family="Times,serif" font-style="italic" font-size="10.00">[ns&#45;0]fight_0</text>
<text text-anchor="start" x="901" y="-41" font-family="Times,serif" font-size="10.00">Сражение с жертвой</text>
<polygon fill="#eeffee" stroke="none" points="900,-24 900,-37 1003,-37 1003,-24 900,-24"/>
<text text-anchor="start" x="901" y="-29" font-family="Times,serif" font-weight="bold" font-size="10.00">сообщение:</text>
<text text-anchor="start" x="953" y="-29" font-family="Times,serif" font-size="10.00"> fight</text>
<polygon fill="#eeffee" stroke="none" points="900,-11 900,-24 1003,-24 1003,-11 900,-11"/>
<text text-anchor="start" x="901" y="-16" font-family="Times,serif" font-weight="bold" font-size="10.00">сразиться с</text>
<text text-anchor="start" x="953" y="-16" font-family="Times,serif" font-size="10.00">  mob_1</text>
<polygon fill="none" stroke="black" points="898.5,-10.5 898.5,-65.5 1003.5,-65.5 1003.5,-10.5 898.5,-10.5"/>
</g>
<!-- #jump([ns&#45;0]fight_0, [ns&#45;0]hunt_1) -->
<g id="node11" class="node"><title>#jump([ns&#45;0]fight_0, [ns&#45;0]hunt_1)</title>
<polygon fill="#eeeeee" stroke="none" points="1057,-31 1057,-45 1158,-45 1158,-31 1057,-31"/>
<text text-anchor="start" x="1058" y="-36.5" font-family="Times,serif" font-weight="bold" font-size="10.00">сообщение:</text>
<text text-anchor="start" x="1110" y="-36.5" font-family="Times,serif" font-size="10.00"> start_track</text>
</g>
<!-- [ns&#45;0]fight_0&#45;&gt;#jump([ns&#45;0]fight_0, [ns&#45;0]hunt_1) -->
<g id="edge3" class="edge"><title>[ns&#45;0]fight_0:[ns&#45;0]fight_0&#45;&gt;#jump([ns&#45;0]fight_0, [ns&#45;0]hunt_1):#jump([ns&#45;0]fight_0, [ns&#45;0]hunt_1)</title>
<path fill="none" stroke="black" d="M1003.81,-38C1020.79,-38 1039.54,-38 1056.35,-38"/>
</g>
<!-- [ns&#45;0]fight_1 -->
<g id="node4" class="node"><title>[ns&#45;0]fight_1</title>
<polygon fill="#ddffdd" stroke="none" points="1400.5,-10.5 1400.5,-65.5 1505.5,-65.5 1505.5,-10.5 1400.5,-10.5"/>
<text text-anchor="start" x="1403" y="-55.5" font-family="Times,serif" font-style="italic" font-size="10.00">[ns&#45;0]fight_1</text>
<text text-anchor="start" x="1403" y="-41" font-family="Times,serif" font-size="10.00">Сражение с жертвой</text>
<polygon fill="#eeffee" stroke="none" points="1402,-24 1402,-37 1505,-37 1505,-24 1402,-24"/>
<text text-anchor="start" x="1403" y="-29" font-family="Times,serif" font-weight="bold" font-size="10.00">сообщение:</text>
<text text-anchor="start" x="1455" y="-29" font-family="Times,serif" font-size="10.00"> fight</text>
<polygon fill="#eeffee" stroke="none" points="1402,-11 1402,-24 1505,-24 1505,-11 1402,-11"/>
<text text-anchor="start" x="1403" y="-16" font-family="Times,serif" font-weight="bold" font-size="10.00">сразиться с</text>
<text text-anchor="start" x="1455" y="-16" font-family="Times,serif" font-size="10.00">  mob_1</text>
<polygon fill="none" stroke="black" points="1400.5,-10.5 1400.5,-65.5 1505.5,-65.5 1505.5,-10.5 1400.5,-10.5"/>
</g>
<!-- #jump([ns&#45;0]fight_1, [ns&#45;0]hunt_2) -->
<g id="node12" class="node"><title>#jump([ns&#45;0]fight_1, [ns&#45;0]hunt_2)</title>
<polygon fill="#eeeeee" stroke="none" points="1559,-31 1559,-45 1660,-45 1660,-31 1559,-31"/>
<text text-anchor="start" x="1560" y="-36.5" font-family="Times,serif" font-weight="bold" font-size="10.00">сообщение:</text>
<text text-anchor="start" x="1612" y="-36.5" font-family="Times,serif" font-size="10.00"> start_track</text>
</g>
<!-- [ns&#45;0]fight_1&#45;&gt;#jump([ns&#45;0]fight_1, [ns&#45;0]hunt_2) -->
<g id="edge6" class="edge"><title>[ns&#45;0]fight_1:[ns&#45;0]fight_1&#45;&gt;#jump([ns&#45;0]fight_1, [ns&#45;0]hunt_2):#jump([ns&#45;0]fight_1, [ns&#45;0]hunt_2)</title>
<path fill="none" stroke="black" d="M1505.81,-38C1522.79,-38 1541.54,-38 1558.35,-38"/>
</g>
<!-- [ns&#45;0]fight_2 -->
<g id="node5" class="node"><title>[ns&#45;0]fight_2</title>
<polygon fill="#ddffdd" stroke="none" points="1902.5,-10.5 1902.5,-65.5 2007.5,-65.5 2007.5,-10.5 1902.5,-10.5"/>
<text text-anchor="start" x="1905" y="-55.5" font-family="Times,serif" font-style="italic" font-size="10.00">[ns&#45;0]fight_2</text>
<text text-anchor="start" x="1905" y="-41" font-family="Times,serif" font-size="10.00">Сражение с жертвой</text>
<polygon fill="#eeffee" stroke="none" points="1904,-24 1904,-37 2007,-37 2007,-24 1904,-24"/>
<text text-anchor="start" x="1905" y="-29" font-family="Times,serif" font-weight="bold" font-size="10.00">сообщение:</text>
<text text-anchor="start" x="1957" y="-29" font-family="Times,serif" font-size="10.00"> fight</text>
<polygon fill="#eeffee" stroke="none" points="1904,-11 1904,-24 2007,-24 2007,-11 1904,-11"/>
<text text-anchor="start" x="1905" y="-16" font-family="Times,serif" font-weight="bold" font-size="10.00">сразиться с</text>
<text text-anchor="start" x="1957" y="-16" font-family="Times,serif" font-size="10.00">  mob_1</text>
<polygon fill="none" stroke="black" points="1902.5,-10.5 1902.5,-65.5 2007.5,-65.5 2007.5,-10.5 1902.5,-10.5"/>
</g>
<!-- #jump([ns&#45;0]fight_2, [ns&#45;0]sell_prey) -->
<g id="node13" class="node"><title>#jump([ns&#45;0]fight_2, [ns&#45;0]sell_prey)</title>
<polygon fill="#eeeeee" stroke="none" points="2061,-31 2061,-45 2190,-45 2190,-31 2061,-31"/>
<text text-anchor="start" x="2062" y="-36.5" font-family="Times,serif" font-weight="bold" font-size="10.00">сообщение:</text>
<text text-anchor="start" x="2114" y="-36.5" font-family="Times,serif" font-size="10.00"> return_with_prey</text>
</g>
<!-- [ns&#45;0]fight_2&#45;&gt;#jump([ns&#45;0]fight_2, [ns&#45;0]sell_prey) -->
<g id="edge10" class="edge"><title>[ns&#45;0]fight_2:[ns&#45;0]fight_2&#45;&gt;#jump([ns&#45;0]fight_2, [ns&#45;0]sell_prey):#jump([ns&#45;0]fight_2, [ns&#45;0]sell_prey)</title>
<path fill="none" stroke="black" d="M2007.86,-38C2024.43,-38 2042.91,-38 2060.2,-38"/>
</g>
<!-- [ns&#45;0]hunt_0 -->
<g id="node6" class="node"><title>[ns&#45;0]hunt_0</title>
<polygon fill="#ddffdd" stroke="none" points="708.5,-10.5 708.5,-65.5 845.5,-65.5 845.5,-10.5 708.5,-10.5"/>
<text text-anchor="start" x="711" y="-55.5" font-family="Times,serif" font-style="italic" font-size="10.00">[ns&#45;0]hunt_0</text>
<text text-anchor="start" x="711" y="-41" font-family="Times,serif" font-size="10.00">Охота</text>
<polygon fill="#cceecc" stroke="none" points="710,-24 710,-37 845,-37 845,-24 710,-24"/>
<text text-anchor="start" x="711" y="-29" font-family="Times,serif" font-size="10.00">hero </text>
<text text-anchor="start" x="732" y="-29" font-family="Times,serif" font-weight="bold" font-size="10.00">находится около</text>
<text text-anchor="start" x="808" y="-29" font-family="Times,serif" font-size="10.00"> place_3</text>
<polygon fill="#eeffee" stroke="none" points="710,-11 710,-24 845,-24 845,-11 710,-11"/>
<text text-anchor="start" x="711" y="-16" font-family="Times,serif" font-size="10.00">hero </text>
<text text-anchor="start" x="732" y="-16" font-family="Times,serif" font-weight="bold" font-size="10.00">находится около</text>
<text text-anchor="start" x="808" y="-16" font-family="Times,serif" font-size="10.00"> place_3</text>
<polygon fill="none" stroke="black" points="708.5,-10.5 708.5,-65.5 845.5,-65.5 845.5,-10.5 708.5,-10.5"/>
</g>
<!-- [ns&#45;0]hunt_0&#45;&gt;[ns&#45;0]fight_0 -->
<g id="edge9" class="edge"><title>[ns&#45;0]hunt_0:[ns&#45;0]hunt_0&#45;&gt;[ns&#45;0]fight_0:[ns&#45;0]fight_0</title>
<path fill="none" stroke="black" d="M845.769,-38C845.769,-38 888.293,-38 888.293,-38"/>
<polygon fill="black" stroke="black" points="888.293,-41.5001 898.293,-38 888.292,-34.5001 888.293,-41.5001"/>
</g>
<!-- [ns&#45;0]hunt_1 -->
<g id="node7" class="node"><title>[ns&#45;0]hunt_1</title>
<polygon fill="#ddffdd" stroke="none" points="1210.5,-10.5 1210.5,-65.5 1347.5,-65.5 1347.5,-10.5 1210.5,-10.5"/>
<text text-anchor="start" x="1213" y="-55.5" font-family="Times,serif" font-style="italic" font-size="10.00">[ns&#45;0]hunt_1</text>
<text text-anchor="start" x="1213" y="-41" font-family="Times,serif" font-size="10.00">Охота</text>
<polygon fill="#cceecc" stroke="none" points="1212,-24 1212,-37 1347,-37 1347,-24 1212,-24"/>
<text text-anchor="start" x="1213" y="-29" font-family="Times,serif" font-size="10.00">hero </text>
<text text-anchor="start" x="1234" y="-29" font-family="Times,serif" font-weight="bold" font-size="10.00">находится около</text>
<text text-anchor="start" x="1310" y="-29" font-family="Times,serif" font-size="10.00"> place_3</text>
<polygon fill="#eeffee" stroke="none" points="1212,-11 1212,-24 1347,-24 1347,-11 1212,-11"/>
<text text-anchor="start" x="1213" y="-16" font-family="Times,serif" font-size="10.00">hero </text>
<text text-anchor="start" x="1234" y="-16" font-family="Times,serif" font-weight="bold" font-size="10.00">находится около</text>
<text text-anchor="start" x="1310" y="-16" font-family="Times,serif" font-size="10.00"> place_3</text>
<polygon fill="none" stroke="black" points="1210.5,-10.5 1210.5,-65.5 1347.5,-65.5 1347.5,-10.5 1210.5,-10.5"/>
</g>
<!-- [ns&#45;0]hunt_1&#45;&gt;[ns&#45;0]fight_1 -->
<g id="edge5" class="edge"><title>[ns&#45;0]hunt_1:[ns&#45;0]hunt_1&#45;&gt;[ns&#45;0]fight_1:[ns&#45;0]fight_1</title>
<path fill="none" stroke="black" d="M1347.77,-38C1347.77,-38 1390.29,-38 1390.29,-38"/>
<polygon fill="black" stroke="black" points="1390.29,-41.5001 1400.29,-38 1390.29,-34.5001 1390.29,-41.5001"/>
</g>
<!-- [ns&#45;0]hunt_2 -->
<g id="node8" class="node"><title>[ns&#45;0]hunt_2</title>
<polygon fill="#ddffdd" stroke="none" points="1712.5,-10.5 1712.5,-65.5 1849.5,-65.5 1849.5,-10.5 1712.5,-10.5"/>
<text text-anchor="start" x="1715" y="-55.5" font-family="Times,serif" font-style="italic" font-size="10.00">[ns&#45;0]hunt_2</text>
<text text-anchor="start" x="1715" y="-41" font-family="Times,serif" font-size="10.00">Охота</text>
<polygon fill="#cceecc" stroke="none" points="1714,-24 1714,-37 1849,-37 1849,-24 1714,-24"/>
<text text-anchor="start" x="1715" y="-29" font-family="Times,serif" font-size="10.00">hero </text>
<text text-anchor="start" x="1736" y="-29" font-family="Times,serif" font-weight="bold" font-size="10.00">находится около</text>
<text text-anchor="start" x="1812" y="-29" font-family="Times,serif" font-size="10.00"> place_3</text>
<polygon fill="#eeffee" stroke="none" points="1714,-11 1714,-24 1849,-24 1849,-11 1714,-11"/>
<text text-anchor="start" x="1715" y="-16" font-family="Times,serif" font-size="10.00">hero </text>
<text text-anchor="start" x="1736" y="-16" font-family="Times,serif" font-weight="bold" font-size="10.00">находится около</text>
<text text-anchor="start" x="1812" y="-16" font-family="Times,serif" font-size="10.00"> place_3</text>
<polygon fill="none" stroke="black" points="1712.5,-10.5 1712.5,-65.5 1849.5,-65.5 1849.5,-10.5 1712.5,-10.5"/>
</g>
<!-- [ns&#45;0]hunt_2&#45;&gt;[ns&#45;0]fight_2 -->
<g id="edge8" class="edge"><title>[ns&#45;0]hunt_2:[ns&#45;0]hunt_2&#45;&gt;[ns&#45;0]fight_2:[ns&#45;0]fight_2</title>
<path fill="none" stroke="black" d="M1849.77,-38C1849.77,-38 1892.29,-38 1892.29,-38"/>
<polygon fill="black" stroke="black" points="1892.29,-41.5001 1902.29,-38 1892.29,-34.5001 1892.29,-41.5001"/>
</g>
<!-- [ns&#45;0]start_hunting -->
<g id="node9" class="node"><title>[ns&#45;0]start_hunting</title>
<polygon fill="#ddffdd" stroke="none" points="348,-4 348,-72 502,-72 502,-4 348,-4"/>
<text text-anchor="start" x="350" y="-62.5" font-family="Times,serif" font-style="italic" font-size="10.00">[ns&#45;0]start_hunting</text>
<text text-anchor="start" x="350" y="-48" font-family="Times,serif" font-size="10.00">Прибытие в город охоты</text>
<polygon fill="#cceecc" stroke="none" points="349,-31 349,-44 501,-44 501,-31 349,-31"/>
<text text-anchor="start" x="350" y="-36" font-family="Times,serif" font-size="10.00">hero </text>
<text text-anchor="start" x="371" y="-36" font-family="Times,serif" font-weight="bold" font-size="10.00">находится в</text>
<text text-anchor="start" x="426" y="-36" font-family="Times,serif" font-size="10.00"> place_3</text>
<polygon fill="#eeffee" stroke="none" points="349,-18 349,-31 501,-31 501,-18 349,-18"/>
<text text-anchor="start" x="350" y="-23" font-family="Times,serif" font-weight="bold" font-size="10.00">сообщение:</text>
<text text-anchor="start" x="402" y="-23" font-family="Times,serif" font-size="10.00"> arrived_to_hunt</text>
<polygon fill="#eeffee" stroke="none" points="349,-5 349,-18 501,-18 501,-5 349,-5"/>
<text text-anchor="start" x="350" y="-10" font-family="Times,serif" font-size="10.00">hero </text>
<text text-anchor="start" x="371" y="-10" font-family="Times,serif" font-weight="bold" font-size="10.00">находится около</text>
<text text-anchor="start" x="447" y="-10" font-family="Times,serif" font-size="10.00"> place_3</text>
<polygon fill="none" stroke="black" points="348,-4 348,-72 502,-72 502,-4 348,-4"/>
</g>
<!-- #jump([ns&#45;0]start_hunting, [ns&#45;0]hunt_0) -->
<g id="node14" class="node"><title>#jump([ns&#45;0]start_hunting, [ns&#45;0]hunt_0)</title>
<polygon fill="#eeeeee" stroke="none" points="555,-31 555,-45 656,-45 656,-31 555,-31"/>
<text text-anchor="start" x="556" y="-36.5" font-family="Times,serif" font-weight="bold" font-size="10.00">сообщение:</text>
<text text-anchor="start" x="608" y="-36.5" font-family="Times,serif" font-size="10.00"> start_track</text>
</g>
<!-- [ns&#45;0]start_hunting&#45;&gt;#jump([ns&#45;0]start_hunting, [ns&#45;0]hunt_0) -->
<g id="edge12" class="edge"><title>[ns&#45;0]start_hunting:[ns&#45;0]start_hunting&#45;&gt;#jump([ns&#45;0]start_hunting, [ns&#45;0]hunt_0):#jump([ns&#45;0]start_hunting, [ns&#45;0]hunt_0)</title>
<path fill="none" stroke="black" d="M502.12,-38C519.772,-38 538.1,-38 554.31,-38"/>
</g>
<!-- #jump([ns&#45;0]start, [ns&#45;0]start_hunting)&#45;&gt;[ns&#45;0]start_hunting -->
<g id="edge2" class="edge"><title>#jump([ns&#45;0]start, [ns&#45;0]start_hunting):#jump([ns&#45;0]start, [ns&#45;0]start_hunting)&#45;&gt;[ns&#45;0]start_hunting:[ns&#45;0]start_hunting</title>
<path fill="none" stroke="black" d="M296.226,-38C296.226,-38 337.8,-38 337.8,-38"/>
<polygon fill="black" stroke="black" points="337.8,-41.5001 347.8,-38 337.8,-34.5001 337.8,-41.5001"/>
</g>
<!-- #jump([ns&#45;0]fight_0, [ns&#45;0]hunt_1)&#45;&gt;[ns&#45;0]hunt_1 -->
<g id="edge4" class="edge"><title>#jump([ns&#45;0]fight_0, [ns&#45;0]hunt_1):#jump([ns&#45;0]fight_0, [ns&#45;0]hunt_1)&#45;&gt;[ns&#45;0]hunt_1:[ns&#45;0]hunt_1</title>
<path fill="none" stroke="black" d="M1157.68,-38C1157.68,-38 1200.2,-38 1200.2,-38"/>
<polygon fill="black" stroke="black" points="1200.2,-41.5001 1210.2,-38 1200.2,-34.5001 1200.2,-41.5001"/>
</g>
<!-- #jump([ns&#45;0]fight_1, [ns&#45;0]hunt_2)&#45;&gt;[ns&#45;0]hunt_2 -->
<g id="edge7" class="edge"><title>#jump([ns&#45;0]fight_1, [ns&#45;0]hunt_2):#jump([ns&#45;0]fight_1, [ns&#45;0]hunt_2)&#45;&gt;[ns&#45;0]hunt_2:[ns&#45;0]hunt_2</title>
<path fill="none" stroke="black" d="M1659.68,-38C1659.68,-38 1702.2,-38 1702.2,-38"/>
<polygon fill="black" stroke="black" points="1702.2,-41.5001 1712.2,-38 1702.2,-34.5001 1702.2,-41.5001"/>
</g>
<!-- #jump([ns&#45;0]fight_2, [ns&#45;0]sell_prey)&#45;&gt;[ns&#45;0]sell_prey -->
<g id="edge11" class="edge"><title>#jump([ns&#45;0]fight_2, [ns&#45;0]sell_prey):#jump([ns&#45;0]fight_2, [ns&#45;0]sell_prey)&#45;&gt;[ns&#45;0]sell_prey:[ns&#45;0]sell_prey</title>
<path fill="none" stroke="black" d="M2189.72,-38C2189.72,-38 2232.35,-38 2232.35,-38"/>
<polygon fill="black" stroke="black" points="2232.35,-41.5001 2242.35,-38 2232.35,-34.5001 2232.35,-41.5001"/>
</g>
<!-- #jump([ns&#45;0]start_hunting, [ns&#45;0]hunt_0)&#45;&gt;[ns&#45;0]hunt_0 -->
<g id="edge13" class="edge"><title>#jump([ns&#45;0]start_hunting, [ns&#45;0]hunt_0):#jump([ns&#45;0]start_hunting, [ns&#45;0]hunt_0)&#45;&gt;[ns&#45;0]hunt_0:[ns&#45;0]hunt_0</title>
<path fill="none" stroke="black" d="M655.675,-38C655.675,-38 698.202,-38 698.202,-38"/>
<polygon fill="black" stroke="black" points="698.202,-41.5001 708.202,-38 698.202,-34.5001 698.202,-41.5001"/>
</g>
</g>
</svg>
