<?xml version="1.0" encoding="UTF-8" standalone="no"?>
<!DOCTYPE svg PUBLIC "-//W3C//DTD SVG 1.1//EN"
 "http://www.w3.org/Graphics/SVG/1.1/DTD/svg11.dtd">
<!-- Generated by graphviz version 2.34.0 (20130907.0221)
 -->
<!-- Title: quest Pages: 1 -->
<svg width="417pt" height="514pt"
 viewBox="0.00 0.00 417.00 514.00" xmlns="http://www.w3.org/2000/svg" xmlns:xlink="http://www.w3.org/1999/xlink">
<g id="graph0" class="graph" transform="scale(1 1) rotate(0) translate(4 510)">
<title>quest</title>
<polygon fill="white" stroke="white" points="-4,4 -4,-510 413,-510 413,4 -4,4"/>
<g id="clust1" class="cluster"><title>cluster_[ns&#45;0]interfere_subquest</title>
<polygon fill="#96ffff" stroke="black" points="8,-208 8,-434 384,-434 384,-208 8,-208"/>
<text text-anchor="middle" x="196" y="-418.8" font-family="Times,serif" font-size="14.00">cluster_[ns&#45;0]interfere_subquest</text>
</g>
<g id="clust2" class="cluster"><title>cluster_[ns&#45;1]event</title>
<polygon fill="#ffffdd" stroke="black" points="16,-216 16,-357 376,-357 376,-216 16,-216"/>
<text text-anchor="middle" x="196" y="-341.8" font-family="Times,serif" font-size="14.00">cluster_[ns&#45;1]event</text>
</g>
<!-- [ns&#45;1]start -->
<g id="node1" class="node"><title>[ns&#45;1]start</title>
<polygon fill="#eeeeee" stroke="none" points="133.5,-369.5 133.5,-398.5 266.5,-398.5 266.5,-369.5 133.5,-369.5"/>
<text text-anchor="start" x="136" y="-388.5" font-family="Times,serif" font-style="italic" font-size="10.00">[ns&#45;1]start</text>
<text text-anchor="start" x="219.5" y="-388.5" font-family="Times,serif" font-weight="bold" font-size="10.00">simple</text>
<text text-anchor="start" x="136" y="-374" font-family="Times,serif" font-size="10.00">Начало: самый простой квест</text>
<polygon fill="none" stroke="black" points="133.5,-369.5 133.5,-398.5 266.5,-398.5 266.5,-369.5 133.5,-369.5"/>
</g>
<!-- [ns&#45;1]finish_failed -->
<g id="node4" class="node"><title>[ns&#45;1]finish_failed</title>
<polygon fill="#eeeeee" stroke="none" points="222,-228 222,-322 360,-322 360,-228 222,-228"/>
<text text-anchor="start" x="224" y="-312.5" font-family="Times,serif" font-style="italic" font-size="10.00">[ns&#45;1]finish_failed</text>
<text text-anchor="start" x="224" y="-298" font-family="Times,serif" font-size="10.00">завершить задание плохо</text>
<polygon fill="#eeeeee" stroke="none" points="223,-281 223,-294 359,-294 359,-281 223,-281"/>
<text text-anchor="start" x="224" y="-286" font-family="Times,serif" font-weight="bold" font-size="10.00">результаты:</text>
<text text-anchor="start" x="224" y="-273" font-family="Times,serif" font-weight="bold" font-size="10.00">person_4</text>
<text text-anchor="start" x="305" y="-272" font-family="Times,serif" font-size="10.00">failed</text>
<text text-anchor="start" x="224" y="-260" font-family="Times,serif" font-weight="bold" font-size="10.00">person_5</text>
<text text-anchor="start" x="305" y="-259" font-family="Times,serif" font-size="10.00">failed</text>
<text text-anchor="start" x="224" y="-247" font-family="Times,serif" font-weight="bold" font-size="10.00">place_4</text>
<text text-anchor="start" x="305" y="-246" font-family="Times,serif" font-size="10.00">failed</text>
<text text-anchor="start" x="224" y="-234" font-family="Times,serif" font-weight="bold" font-size="10.00">place_5</text>
<text text-anchor="start" x="305" y="-233" font-family="Times,serif" font-size="10.00">failed</text>
<polygon fill="none" stroke="black" points="222,-228 222,-322 360,-322 360,-228 222,-228"/>
</g>
<!-- [ns&#45;1]start&#45;&gt;[ns&#45;1]finish_failed -->
<g id="edge2" class="edge"><title>[ns&#45;1]start:[ns&#45;1]start&#45;&gt;[ns&#45;1]finish_failed:[ns&#45;1]finish_failed</title>
<path fill="none" stroke="black" d="M211.525,-369.448C220.159,-359.296 232.585,-344.685 245.056,-330.022"/>
<polygon fill="black" stroke="black" points="247.749,-332.258 251.562,-322.373 242.417,-327.723 247.749,-332.258"/>
</g>
<!-- [ns&#45;1]finish_successed -->
<g id="node5" class="node"><title>[ns&#45;1]finish_successed</title>
<polygon fill="#eeeeee" stroke="none" points="32,-228 32,-322 188,-322 188,-228 32,-228"/>
<text text-anchor="start" x="34" y="-312.5" font-family="Times,serif" font-style="italic" font-size="10.00">[ns&#45;1]finish_successed</text>
<text text-anchor="start" x="34" y="-298" font-family="Times,serif" font-size="10.00">завершить задание удачно</text>
<polygon fill="#eeeeee" stroke="none" points="33,-281 33,-294 187,-294 187,-281 33,-281"/>
<text text-anchor="start" x="34" y="-286" font-family="Times,serif" font-weight="bold" font-size="10.00">результаты:</text>
<text text-anchor="start" x="34" y="-273" font-family="Times,serif" font-weight="bold" font-size="10.00">person_4</text>
<text text-anchor="start" x="131" y="-272" font-family="Times,serif" font-size="10.00">successed</text>
<text text-anchor="start" x="34" y="-260" font-family="Times,serif" font-weight="bold" font-size="10.00">person_5</text>
<text text-anchor="start" x="131" y="-259" font-family="Times,serif" font-size="10.00">successed</text>
<text text-anchor="start" x="34" y="-247" font-family="Times,serif" font-weight="bold" font-size="10.00">place_4</text>
<text text-anchor="start" x="131" y="-246" font-family="Times,serif" font-size="10.00">successed</text>
<text text-anchor="start" x="34" y="-234" font-family="Times,serif" font-weight="bold" font-size="10.00">place_5</text>
<text text-anchor="start" x="131" y="-233" font-family="Times,serif" font-size="10.00">successed</text>
<polygon fill="none" stroke="black" points="32,-228 32,-322 188,-322 188,-228 32,-228"/>
</g>
<!-- [ns&#45;1]start&#45;&gt;[ns&#45;1]finish_successed -->
<g id="edge5" class="edge"><title>[ns&#45;1]start:[ns&#45;1]start&#45;&gt;[ns&#45;1]finish_successed:[ns&#45;1]finish_successed</title>
<path fill="none" stroke="black" d="M188.601,-369.448C180.141,-359.389 167.998,-344.953 155.778,-330.426"/>
<polygon fill="black" stroke="black" points="158.12,-327.773 149.005,-322.373 152.763,-332.278 158.12,-327.773"/>
</g>
<!-- [ns&#45;0]start -->
<g id="node2" class="node"><title>[ns&#45;0]start</title>
<polygon fill="#eeeeee" stroke="none" points="128.5,-446.5 128.5,-501.5 271.5,-501.5 271.5,-446.5 128.5,-446.5"/>
<text text-anchor="start" x="131" y="-491.5" font-family="Times,serif" font-style="italic" font-size="10.00">[ns&#45;0]start</text>
<text text-anchor="start" x="200" y="-491.5" font-family="Times,serif" font-weight="bold" font-size="10.00">interfere_enemy</text>
<text text-anchor="start" x="131" y="-477" font-family="Times,serif" font-size="10.00">Начало: навредить противнику</text>
<polygon fill="#dddddd" stroke="none" points="130,-460 130,-473 271,-473 271,-460 130,-460"/>
<text text-anchor="start" x="131" y="-465" font-family="Times,serif" font-size="10.00">hero </text>
<text text-anchor="start" x="152" y="-465" font-family="Times,serif" font-weight="bold" font-size="10.00">находится в</text>
<text text-anchor="start" x="207" y="-465" font-family="Times,serif" font-size="10.00"> place_1</text>
<polygon fill="#ffffff" stroke="none" points="130,-447 130,-460 271,-460 271,-447 130,-447"/>
<text text-anchor="start" x="131" y="-452" font-family="Times,serif" font-weight="bold" font-size="10.00">сообщение:</text>
<text text-anchor="start" x="183" y="-452" font-family="Times,serif" font-size="10.00"> intro</text>
<polygon fill="none" stroke="black" points="128.5,-446.5 128.5,-501.5 271.5,-501.5 271.5,-446.5 128.5,-446.5"/>
</g>
<!-- [ns&#45;0]start&#45;&gt;[ns&#45;1]start -->
<g id="edge1" class="edge"><title>[ns&#45;0]start:[ns&#45;0]start&#45;&gt;[ns&#45;1]start:[ns&#45;1]start</title>
<path fill="none" stroke="black" d="M200,-446.119C200,-434.321 200,-420.578 200,-409.116"/>
<polygon fill="black" stroke="black" points="203.5,-408.962 200,-398.962 196.5,-408.962 203.5,-408.962"/>
</g>
<!-- [ns&#45;0]finish -->
<g id="node3" class="node"><title>[ns&#45;0]finish</title>
<polygon fill="#eeeeee" stroke="none" points="180.5,-4.5 180.5,-111.5 401.5,-111.5 401.5,-4.5 180.5,-4.5"/>
<text text-anchor="start" x="183" y="-101.5" font-family="Times,serif" font-style="italic" font-size="10.00">[ns&#45;0]finish</text>
<text text-anchor="start" x="183" y="-87" font-family="Times,serif" font-size="10.00">навредили противнику</text>
<polygon fill="#ffffff" stroke="none" points="182,-70 182,-83 401,-83 401,-70 182,-70"/>
<text text-anchor="start" x="183" y="-75" font-family="Times,serif" font-weight="bold" font-size="10.00">выдать награду </text>
<text text-anchor="start" x="258" y="-75" font-family="Times,serif" font-size="10.00">  hero </text>
<text text-anchor="start" x="283" y="-75" font-family="Times,serif" font-weight="bold" font-size="10.00">типа </text>
<text text-anchor="start" x="307" y="-75" font-family="Times,serif" font-size="10.00"> finish </text>
<text text-anchor="start" x="335" y="-75" font-family="Times,serif" font-weight="bold" font-size="10.00">в размере</text>
<text text-anchor="start" x="378" y="-75" font-family="Times,serif" font-size="10.00"> 1.00</text>
<polygon fill="#ffffff" stroke="none" points="182,-57 182,-70 401,-70 401,-57 182,-57"/>
<text text-anchor="start" x="183" y="-62" font-family="Times,serif" font-weight="bold" font-size="10.00">увеличить влияние </text>
<text text-anchor="start" x="271" y="-62" font-family="Times,serif" font-size="10.00">  </text>
<text text-anchor="start" x="276" y="-62" font-family="Times,serif" font-size="10.00" fill="#000000">person_5</text>
<text text-anchor="start" x="314" y="-62" font-family="Times,serif" font-size="10.00"> </text>
<text text-anchor="start" x="317" y="-62" font-family="Times,serif" font-weight="bold" font-size="10.00">на </text>
<text text-anchor="start" x="330" y="-62" font-family="Times,serif" font-size="10.00"> &#45;1.00</text>
<polygon fill="#ffffff" stroke="none" points="182,-44 182,-57 401,-57 401,-44 182,-44"/>
<text text-anchor="start" x="183" y="-49" font-family="Times,serif" font-weight="bold" font-size="10.00">увеличить влияние </text>
<text text-anchor="start" x="271" y="-49" font-family="Times,serif" font-size="10.00">  </text>
<text text-anchor="start" x="276" y="-49" font-family="Times,serif" font-size="10.00" fill="#000000">place_4</text>
<text text-anchor="start" x="309" y="-49" font-family="Times,serif" font-size="10.00"> </text>
<text text-anchor="start" x="312" y="-49" font-family="Times,serif" font-weight="bold" font-size="10.00">на </text>
<text text-anchor="start" x="325" y="-49" font-family="Times,serif" font-size="10.00"> 0.00</text>
<polygon fill="#eeeeee" stroke="none" points="182,-31 182,-44 401,-44 401,-31 182,-31"/>
<text text-anchor="start" x="183" y="-36" font-family="Times,serif" font-weight="bold" font-size="10.00">результаты:</text>
<text text-anchor="start" x="183" y="-23" font-family="Times,serif" font-weight="bold" font-size="10.00">person_5</text>
<text text-anchor="start" x="293" y="-22" font-family="Times,serif" font-size="10.00">failed</text>
<text text-anchor="start" x="183" y="-10" font-family="Times,serif" font-weight="bold" font-size="10.00">place_4</text>
<text text-anchor="start" x="293" y="-9" font-family="Times,serif" font-size="10.00">neutral</text>
<polygon fill="none" stroke="black" points="180.5,-4.5 180.5,-111.5 401.5,-111.5 401.5,-4.5 180.5,-4.5"/>
</g>
<!-- #jump([ns&#45;1]finish_failed, [ns&#45;0]finish) -->
<g id="node6" class="node"><title>#jump([ns&#45;1]finish_failed, [ns&#45;0]finish)</title>
<polygon fill="#eeeeee" stroke="none" points="234,-163 234,-177 349,-177 349,-163 234,-163"/>
<text text-anchor="start" x="235" y="-168.5" font-family="Times,serif" font-weight="bold" font-size="10.00">сообщение:</text>
<text text-anchor="start" x="287" y="-168.5" font-family="Times,serif" font-size="10.00"> after_interfere</text>
</g>
<!-- [ns&#45;1]finish_failed&#45;&gt;#jump([ns&#45;1]finish_failed, [ns&#45;0]finish) -->
<g id="edge3" class="edge"><title>[ns&#45;1]finish_failed:[ns&#45;1]finish_failed&#45;&gt;#jump([ns&#45;1]finish_failed, [ns&#45;0]finish):#jump([ns&#45;1]finish_failed, [ns&#45;0]finish)</title>
<path fill="none" stroke="black" d="M291,-227.923C291,-208.211 291,-187.429 291,-177.298"/>
</g>
<!-- #jump([ns&#45;1]finish_failed, [ns&#45;0]finish)&#45;&gt;[ns&#45;0]finish -->
<g id="edge4" class="edge"><title>#jump([ns&#45;1]finish_failed, [ns&#45;0]finish):#jump([ns&#45;1]finish_failed, [ns&#45;0]finish)&#45;&gt;[ns&#45;0]finish:[ns&#45;0]finish</title>
<path fill="none" stroke="black" d="M291,-162.771C291,-154.453 291,-138.823 291,-122.17"/>
<polygon fill="black" stroke="black" points="294.5,-121.726 291,-111.726 287.5,-121.726 294.5,-121.726"/>
</g>
</g>
</svg>
