<?xml version="1.0" encoding="UTF-8" standalone="no"?>
<!DOCTYPE svg PUBLIC "-//W3C//DTD SVG 1.1//EN"
 "http://www.w3.org/Graphics/SVG/1.1/DTD/svg11.dtd">
<!-- Generated by graphviz version 2.34.0 (20130907.0221)
 -->
<!-- Title: quest Pages: 1 -->
<svg width="423pt" height="514pt"
 viewBox="0.00 0.00 423.00 514.00" xmlns="http://www.w3.org/2000/svg" xmlns:xlink="http://www.w3.org/1999/xlink">
<g id="graph0" class="graph" transform="scale(1 1) rotate(0) translate(4 510)">
<title>quest</title>
<polygon fill="white" stroke="white" points="-4,4 -4,-510 419,-510 419,4 -4,4"/>
<g id="clust1" class="cluster"><title>cluster_[ns&#45;0]interfere_subquest</title>
<polygon fill="#96ffff" stroke="black" points="8,-208 8,-434 392,-434 392,-208 8,-208"/>
<text text-anchor="middle" x="200" y="-418.8" font-family="Times,serif" font-size="14.00">cluster_[ns&#45;0]interfere_subquest</text>
</g>
<g id="clust2" class="cluster"><title>cluster_[ns&#45;1]event</title>
<polygon fill="#ffffdd" stroke="black" points="16,-216 16,-357 384,-357 384,-216 16,-216"/>
<text text-anchor="middle" x="200" y="-341.8" font-family="Times,serif" font-size="14.00">cluster_[ns&#45;1]event</text>
</g>
<!-- [ns&#45;1]start -->
<g id="node1" class="node"><title>[ns&#45;1]start</title>
<polygon fill="#eeeeee" stroke="none" points="137.5,-369.5 137.5,-398.5 270.5,-398.5 270.5,-369.5 137.5,-369.5"/>
<text text-anchor="start" x="140" y="-388.5" font-family="Times,serif" font-style="italic" font-size="10.00">[ns&#45;1]start</text>
<text text-anchor="start" x="223.5" y="-388.5" font-family="Times,serif" font-weight="bold" font-size="10.00">simple</text>
<text text-anchor="start" x="140" y="-374" font-family="Times,serif" font-size="10.00">Начало: самый простой квест</text>
<polygon fill="none" stroke="black" points="137.5,-369.5 137.5,-398.5 270.5,-398.5 270.5,-369.5 137.5,-369.5"/>
</g>
<!-- [ns&#45;1]finish_failed -->
<g id="node4" class="node"><title>[ns&#45;1]finish_failed</title>
<polygon fill="#eeeeee" stroke="none" points="226,-228 226,-322 368,-322 368,-228 226,-228"/>
<text text-anchor="start" x="228" y="-312.5" font-family="Times,serif" font-style="italic" font-size="10.00">[ns&#45;1]finish_failed</text>
<text text-anchor="start" x="228" y="-298" font-family="Times,serif" font-size="10.00">завершить задание плохо</text>
<polygon fill="#eeeeee" stroke="none" points="227,-281 227,-294 367,-294 367,-281 227,-281"/>
<text text-anchor="start" x="228" y="-286" font-family="Times,serif" font-weight="bold" font-size="10.00">результаты:</text>
<text text-anchor="start" x="228" y="-273" font-family="Times,serif" font-weight="bold" font-size="10.00">person_3</text>
<text text-anchor="start" x="339" y="-272" font-family="Times,serif" font-size="10.00">failed</text>
<text text-anchor="start" x="228" y="-260" font-family="Times,serif" font-weight="bold" font-size="10.00">person_5</text>
<text text-anchor="start" x="339" y="-259" font-family="Times,serif" font-size="10.00">failed</text>
<text text-anchor="start" x="228" y="-247" font-family="Times,serif" font-weight="bold" font-size="10.00">place_3</text>
<text text-anchor="start" x="339" y="-246" font-family="Times,serif" font-size="10.00">failed</text>
<text text-anchor="start" x="228" y="-234" font-family="Times,serif" font-weight="bold" font-size="10.00">place_5</text>
<text text-anchor="start" x="339" y="-233" font-family="Times,serif" font-size="10.00">failed</text>
<polygon fill="none" stroke="black" points="226,-228 226,-322 368,-322 368,-228 226,-228"/>
</g>
<!-- [ns&#45;1]start&#45;&gt;[ns&#45;1]finish_failed -->
<g id="edge2" class="edge"><title>[ns&#45;1]start:[ns&#45;1]start&#45;&gt;[ns&#45;1]finish_failed:[ns&#45;1]finish_failed</title>
<path fill="none" stroke="black" d="M215.779,-369.448C224.602,-359.296 237.302,-344.685 250.046,-330.022"/>
<polygon fill="black" stroke="black" points="252.776,-332.216 256.695,-322.373 247.493,-327.624 252.776,-332.216"/>
</g>
<!-- [ns&#45;1]finish_successed -->
<g id="node5" class="node"><title>[ns&#45;1]finish_successed</title>
<polygon fill="#eeeeee" stroke="none" points="32.5,-228 32.5,-322 191.5,-322 191.5,-228 32.5,-228"/>
<text text-anchor="start" x="35" y="-312.5" font-family="Times,serif" font-style="italic" font-size="10.00">[ns&#45;1]finish_successed</text>
<text text-anchor="start" x="35" y="-298" font-family="Times,serif" font-size="10.00">завершить задание удачно</text>
<polygon fill="#eeeeee" stroke="none" points="34,-281 34,-294 191,-294 191,-281 34,-281"/>
<text text-anchor="start" x="35" y="-286" font-family="Times,serif" font-weight="bold" font-size="10.00">результаты:</text>
<text text-anchor="start" x="35" y="-273" font-family="Times,serif" font-weight="bold" font-size="10.00">person_3</text>
<text text-anchor="start" x="150" y="-272" font-family="Times,serif" font-size="10.00">successed</text>
<text text-anchor="start" x="35" y="-260" font-family="Times,serif" font-weight="bold" font-size="10.00">person_5</text>
<text text-anchor="start" x="150" y="-259" font-family="Times,serif" font-size="10.00">successed</text>
<text text-anchor="start" x="35" y="-247" font-family="Times,serif" font-weight="bold" font-size="10.00">place_3</text>
<text text-anchor="start" x="150" y="-246" font-family="Times,serif" font-size="10.00">successed</text>
<text text-anchor="start" x="35" y="-234" font-family="Times,serif" font-weight="bold" font-size="10.00">place_5</text>
<text text-anchor="start" x="150" y="-233" font-family="Times,serif" font-size="10.00">successed</text>
<polygon fill="none" stroke="black" points="32.5,-228 32.5,-322 191.5,-322 191.5,-228 32.5,-228"/>
</g>
<!-- [ns&#45;1]start&#45;&gt;[ns&#45;1]finish_successed -->
<g id="edge5" class="edge"><title>[ns&#45;1]start:[ns&#45;1]start&#45;&gt;[ns&#45;1]finish_successed:[ns&#45;1]finish_successed</title>
<path fill="none" stroke="black" d="M192.348,-369.448C183.619,-359.296 171.056,-344.685 158.449,-330.022"/>
<polygon fill="black" stroke="black" points="161.045,-327.673 151.872,-322.373 155.737,-332.237 161.045,-327.673"/>
</g>
<!-- [ns&#45;0]start -->
<g id="node2" class="node"><title>[ns&#45;0]start</title>
<polygon fill="#eeeeee" stroke="none" points="132.5,-446.5 132.5,-501.5 275.5,-501.5 275.5,-446.5 132.5,-446.5"/>
<text text-anchor="start" x="135" y="-491.5" font-family="Times,serif" font-style="italic" font-size="10.00">[ns&#45;0]start</text>
<text text-anchor="start" x="204" y="-491.5" font-family="Times,serif" font-weight="bold" font-size="10.00">interfere_enemy</text>
<text text-anchor="start" x="135" y="-477" font-family="Times,serif" font-size="10.00">Начало: навредить противнику</text>
<polygon fill="#dddddd" stroke="none" points="134,-460 134,-473 275,-473 275,-460 134,-460"/>
<text text-anchor="start" x="135" y="-465" font-family="Times,serif" font-size="10.00">hero </text>
<text text-anchor="start" x="156" y="-465" font-family="Times,serif" font-weight="bold" font-size="10.00">находится в</text>
<text text-anchor="start" x="211" y="-465" font-family="Times,serif" font-size="10.00"> place_1</text>
<polygon fill="#ffffff" stroke="none" points="134,-447 134,-460 275,-460 275,-447 134,-447"/>
<text text-anchor="start" x="135" y="-452" font-family="Times,serif" font-weight="bold" font-size="10.00">сообщение:</text>
<text text-anchor="start" x="187" y="-452" font-family="Times,serif" font-size="10.00"> intro</text>
<polygon fill="none" stroke="black" points="132.5,-446.5 132.5,-501.5 275.5,-501.5 275.5,-446.5 132.5,-446.5"/>
</g>
<!-- [ns&#45;0]start&#45;&gt;[ns&#45;1]start -->
<g id="edge1" class="edge"><title>[ns&#45;0]start:[ns&#45;0]start&#45;&gt;[ns&#45;1]start:[ns&#45;1]start</title>
<path fill="none" stroke="black" d="M204,-446.119C204,-434.321 204,-420.578 204,-409.116"/>
<polygon fill="black" stroke="black" points="207.5,-408.962 204,-398.962 200.5,-408.962 207.5,-408.962"/>
</g>
<!-- [ns&#45;0]finish -->
<g id="node3" class="node"><title>[ns&#45;0]finish</title>
<polygon fill="#eeeeee" stroke="none" points="186.5,-4.5 186.5,-111.5 407.5,-111.5 407.5,-4.5 186.5,-4.5"/>
<text text-anchor="start" x="189" y="-101.5" font-family="Times,serif" font-style="italic" font-size="10.00">[ns&#45;0]finish</text>
<text text-anchor="start" x="189" y="-87" font-family="Times,serif" font-size="10.00">навредили противнику</text>
<polygon fill="#ffffff" stroke="none" points="188,-70 188,-83 407,-83 407,-70 188,-70"/>
<text text-anchor="start" x="189" y="-75" font-family="Times,serif" font-weight="bold" font-size="10.00">выдать награду </text>
<text text-anchor="start" x="264" y="-75" font-family="Times,serif" font-size="10.00">  hero </text>
<text text-anchor="start" x="289" y="-75" font-family="Times,serif" font-weight="bold" font-size="10.00">типа </text>
<text text-anchor="start" x="313" y="-75" font-family="Times,serif" font-size="10.00"> finish </text>
<text text-anchor="start" x="341" y="-75" font-family="Times,serif" font-weight="bold" font-size="10.00">в размере</text>
<text text-anchor="start" x="384" y="-75" font-family="Times,serif" font-size="10.00"> 1.00</text>
<polygon fill="#ffffff" stroke="none" points="188,-57 188,-70 407,-70 407,-57 188,-57"/>
<text text-anchor="start" x="189" y="-62" font-family="Times,serif" font-weight="bold" font-size="10.00">увеличить влияние </text>
<text text-anchor="start" x="277" y="-62" font-family="Times,serif" font-size="10.00">  person_5 </text>
<text text-anchor="start" x="322" y="-62" font-family="Times,serif" font-weight="bold" font-size="10.00">на </text>
<text text-anchor="start" x="335" y="-62" font-family="Times,serif" font-size="10.00"> &#45;1.00</text>
<polygon fill="#ffffff" stroke="none" points="188,-44 188,-57 407,-57 407,-44 188,-44"/>
<text text-anchor="start" x="189" y="-49" font-family="Times,serif" font-weight="bold" font-size="10.00">увеличить влияние </text>
<text text-anchor="start" x="277" y="-49" font-family="Times,serif" font-size="10.00">  place_3 </text>
<text text-anchor="start" x="317" y="-49" font-family="Times,serif" font-weight="bold" font-size="10.00">на </text>
<text text-anchor="start" x="330" y="-49" font-family="Times,serif" font-size="10.00"> &#45;1.00</text>
<polygon fill="#eeeeee" stroke="none" points="188,-31 188,-44 407,-44 407,-31 188,-31"/>
<text text-anchor="start" x="189" y="-36" font-family="Times,serif" font-weight="bold" font-size="10.00">результаты:</text>
<text text-anchor="start" x="189" y="-23" font-family="Times,serif" font-weight="bold" font-size="10.00">person_5</text>
<text text-anchor="start" x="299" y="-22" font-family="Times,serif" font-size="10.00">failed</text>
<text text-anchor="start" x="189" y="-10" font-family="Times,serif" font-weight="bold" font-size="10.00">place_3</text>
<text text-anchor="start" x="299" y="-9" font-family="Times,serif" font-size="10.00">neutral</text>
<polygon fill="none" stroke="black" points="186.5,-4.5 186.5,-111.5 407.5,-111.5 407.5,-4.5 186.5,-4.5"/>
</g>
<!-- #jump([ns&#45;1]finish_failed, [ns&#45;0]finish) -->
<g id="node6" class="node"><title>#jump([ns&#45;1]finish_failed, [ns&#45;0]finish)</title>
<polygon fill="#eeeeee" stroke="none" points="240,-163 240,-177 355,-177 355,-163 240,-163"/>
<text text-anchor="start" x="241" y="-168.5" font-family="Times,serif" font-weight="bold" font-size="10.00">сообщение:</text>
<text text-anchor="start" x="293" y="-168.5" font-family="Times,serif" font-size="10.00"> after_interfere</text>
</g>
<!-- [ns&#45;1]finish_failed&#45;&gt;#jump([ns&#45;1]finish_failed, [ns&#45;0]finish) -->
<g id="edge3" class="edge"><title>[ns&#45;1]finish_failed:[ns&#45;1]finish_failed&#45;&gt;#jump([ns&#45;1]finish_failed, [ns&#45;0]finish):#jump([ns&#45;1]finish_failed, [ns&#45;0]finish)</title>
<path fill="none" stroke="black" d="M297,-227.923C297,-208.211 297,-187.429 297,-177.298"/>
</g>
<!-- #jump([ns&#45;1]finish_failed, [ns&#45;0]finish)&#45;&gt;[ns&#45;0]finish -->
<g id="edge4" class="edge"><title>#jump([ns&#45;1]finish_failed, [ns&#45;0]finish):#jump([ns&#45;1]finish_failed, [ns&#45;0]finish)&#45;&gt;[ns&#45;0]finish:[ns&#45;0]finish</title>
<path fill="none" stroke="black" d="M297,-162.771C297,-154.453 297,-138.823 297,-122.17"/>
<polygon fill="black" stroke="black" points="300.5,-121.726 297,-111.726 293.5,-121.726 300.5,-121.726"/>
</g>
</g>
</svg>
