<?xml version="1.0" encoding="UTF-8" standalone="no"?>
<!DOCTYPE svg PUBLIC "-//W3C//DTD SVG 1.1//EN"
 "http://www.w3.org/Graphics/SVG/1.1/DTD/svg11.dtd">
<!-- Generated by graphviz version 2.38.0 (20140413.2041)
 -->
<!-- Title: quest Pages: 1 -->
<svg width="388pt" height="481pt"
 viewBox="0.00 0.00 388.00 481.00" xmlns="http://www.w3.org/2000/svg" xmlns:xlink="http://www.w3.org/1999/xlink">
<g id="graph0" class="graph" transform="scale(1 1) rotate(0) translate(4 477)">
<title>quest</title>
<polygon fill="white" stroke="none" points="-4,4 -4,-477 384,-477 384,4 -4,4"/>
<g id="clust1" class="cluster"><title>cluster_[ns&#45;0]interfere_subquest</title>
<polygon fill="#96ffff" stroke="black" points="8,-180 8,-403 342,-403 342,-180 8,-180"/>
<text text-anchor="middle" x="175" y="-387.8" font-family="Times,serif" font-size="14.00">cluster_[ns&#45;0]interfere_subquest</text>
</g>
<g id="clust2" class="cluster"><title>cluster_[ns&#45;1]event</title>
<polygon fill="#ffffdd" stroke="black" points="16,-188 16,-328 334,-328 334,-188 16,-188"/>
<text text-anchor="middle" x="175" y="-312.8" font-family="Times,serif" font-size="14.00">cluster_[ns&#45;1]event</text>
</g>
<!-- [ns&#45;1]start -->
<g id="node1" class="node"><title>[ns&#45;1]start</title>
<polygon fill="#eeeeee" stroke="none" points="115.5,-340 115.5,-368 246.5,-368 246.5,-340 115.5,-340"/>
<text text-anchor="start" x="118" y="-359" font-family="Times,serif" font-style="italic" font-size="10.00">[ns&#45;1]start</text>
<text text-anchor="start" x="203.5" y="-359" font-family="Times,serif" font-weight="bold" font-size="10.00">simple</text>
<text text-anchor="start" x="118" y="-345" font-family="Times,serif" font-size="10.00">Начало: самый простой квест</text>
<polygon fill="none" stroke="black" points="115.5,-340 115.5,-368 246.5,-368 246.5,-340 115.5,-340"/>
</g>
<!-- [ns&#45;1]finish_failed -->
<g id="node4" class="node"><title>[ns&#45;1]finish_failed</title>
<polygon fill="#eeeeee" stroke="none" points="206,-200 206,-293 318,-293 318,-200 206,-200"/>
<text text-anchor="start" x="208" y="-283.5" font-family="Times,serif" font-style="italic" font-size="10.00">[ns&#45;1]finish_failed</text>
<text text-anchor="start" x="208" y="-269.5" font-family="Times,serif" font-size="10.00">завершить задание плохо</text>
<polygon fill="#eeeeee" stroke="none" points="207,-252.5 207,-265.5 317,-265.5 317,-252.5 207,-252.5"/>
<text text-anchor="start" x="208" y="-257.5" font-family="Times,serif" font-weight="bold" font-size="10.00">результаты:</text>
<text text-anchor="start" x="208" y="-244.5" font-family="Times,serif" font-weight="bold" font-size="10.00">person_3</text>
<text text-anchor="start" x="290" y="-243.5" font-family="Times,serif" font-size="10.00">failed</text>
<text text-anchor="start" x="208" y="-231.5" font-family="Times,serif" font-weight="bold" font-size="10.00">person_5</text>
<text text-anchor="start" x="290" y="-230.5" font-family="Times,serif" font-size="10.00">failed</text>
<text text-anchor="start" x="208" y="-218.5" font-family="Times,serif" font-weight="bold" font-size="10.00">place_3</text>
<text text-anchor="start" x="290" y="-217.5" font-family="Times,serif" font-size="10.00">failed</text>
<text text-anchor="start" x="208" y="-205.5" font-family="Times,serif" font-weight="bold" font-size="10.00">place_5</text>
<text text-anchor="start" x="290" y="-204.5" font-family="Times,serif" font-size="10.00">failed</text>
<polygon fill="none" stroke="black" points="206,-200 206,-293 318,-293 318,-200 206,-200"/>
</g>
<!-- [ns&#45;1]start&#45;&gt;[ns&#45;1]finish_failed -->
<g id="edge2" class="edge"><title>[ns&#45;1]start:[ns&#45;1]start&#45;&gt;[ns&#45;1]finish_failed:[ns&#45;1]finish_failed</title>
<path fill="none" stroke="black" d="M191.259,-339.638C198.873,-329.72 209.802,-315.486 220.799,-301.163"/>
<polygon fill="black" stroke="black" points="223.582,-303.286 226.896,-293.223 218.029,-299.023 223.582,-303.286"/>
</g>
<!-- [ns&#45;1]finish_successed -->
<g id="node5" class="node"><title>[ns&#45;1]finish_successed</title>
<polygon fill="#eeeeee" stroke="none" points="32,-200 32,-293 172,-293 172,-200 32,-200"/>
<text text-anchor="start" x="34" y="-283.5" font-family="Times,serif" font-style="italic" font-size="10.00">[ns&#45;1]finish_successed</text>
<text text-anchor="start" x="34" y="-269.5" font-family="Times,serif" font-size="10.00">завершить задание удачно</text>
<polygon fill="#eeeeee" stroke="none" points="33,-252.5 33,-265.5 171,-265.5 171,-252.5 33,-252.5"/>
<text text-anchor="start" x="34" y="-257.5" font-family="Times,serif" font-weight="bold" font-size="10.00">результаты:</text>
<text text-anchor="start" x="34" y="-244.5" font-family="Times,serif" font-weight="bold" font-size="10.00">person_3</text>
<text text-anchor="start" x="130" y="-243.5" font-family="Times,serif" font-size="10.00">successed</text>
<text text-anchor="start" x="34" y="-231.5" font-family="Times,serif" font-weight="bold" font-size="10.00">person_5</text>
<text text-anchor="start" x="130" y="-230.5" font-family="Times,serif" font-size="10.00">successed</text>
<text text-anchor="start" x="34" y="-218.5" font-family="Times,serif" font-weight="bold" font-size="10.00">place_3</text>
<text text-anchor="start" x="130" y="-217.5" font-family="Times,serif" font-size="10.00">successed</text>
<text text-anchor="start" x="34" y="-205.5" font-family="Times,serif" font-weight="bold" font-size="10.00">place_5</text>
<text text-anchor="start" x="130" y="-204.5" font-family="Times,serif" font-size="10.00">successed</text>
<polygon fill="none" stroke="black" points="32,-200 32,-293 172,-293 172,-200 32,-200"/>
</g>
<!-- [ns&#45;1]start&#45;&gt;[ns&#45;1]finish_successed -->
<g id="edge5" class="edge"><title>[ns&#45;1]start:[ns&#45;1]start&#45;&gt;[ns&#45;1]finish_successed:[ns&#45;1]finish_successed</title>
<path fill="none" stroke="black" d="M170.995,-339.638C163.637,-329.812 153.106,-315.75 142.481,-301.56"/>
<polygon fill="black" stroke="black" points="145.033,-299.129 136.238,-293.223 139.43,-303.325 145.033,-299.129"/>
</g>
<!-- [ns&#45;0]start -->
<g id="node2" class="node"><title>[ns&#45;0]start</title>
<polygon fill="#eeeeee" stroke="none" points="112,-415 112,-469 250,-469 250,-415 112,-415"/>
<text text-anchor="start" x="114" y="-460" font-family="Times,serif" font-style="italic" font-size="10.00">[ns&#45;0]start</text>
<text text-anchor="start" x="173.5" y="-460" font-family="Times,serif" font-weight="bold" font-size="10.00">interfere_enemy</text>
<text text-anchor="start" x="114" y="-446" font-family="Times,serif" font-size="10.00">Начало: навредить противнику</text>
<polygon fill="#dddddd" stroke="none" points="113,-429 113,-442 249,-442 249,-429 113,-429"/>
<text text-anchor="start" x="114" y="-434" font-family="Times,serif" font-size="10.00">hero </text>
<text text-anchor="start" x="135" y="-434" font-family="Times,serif" font-weight="bold" font-size="10.00">находится в</text>
<text text-anchor="start" x="190" y="-434" font-family="Times,serif" font-size="10.00"> place_1</text>
<polygon fill="#ffffff" stroke="none" points="113,-416 113,-429 249,-429 249,-416 113,-416"/>
<text text-anchor="start" x="114" y="-421" font-family="Times,serif" font-weight="bold" font-size="10.00">сообщение:</text>
<text text-anchor="start" x="166" y="-421" font-family="Times,serif" font-size="10.00"> intro</text>
<polygon fill="none" stroke="black" points="112,-415 112,-469 250,-469 250,-415 112,-415"/>
</g>
<!-- [ns&#45;0]start&#45;&gt;[ns&#45;1]start -->
<g id="edge1" class="edge"><title>[ns&#45;0]start:[ns&#45;0]start&#45;&gt;[ns&#45;1]start:[ns&#45;1]start</title>
<path fill="none" stroke="black" d="M181,-414.73C181,-403.171 181,-389.702 181,-378.482"/>
<polygon fill="black" stroke="black" points="184.5,-378.167 181,-368.167 177.5,-378.167 184.5,-378.167"/>
</g>
<!-- [ns&#45;0]finish -->
<g id="node3" class="node"><title>[ns&#45;0]finish</title>
<polygon fill="#eeeeee" stroke="none" points="152,-4 152,-84 372,-84 372,-4 152,-4"/>
<text text-anchor="start" x="154" y="-75" font-family="Times,serif" font-style="italic" font-size="10.00">[ns&#45;0]finish</text>
<text text-anchor="start" x="154" y="-61" font-family="Times,serif" font-size="10.00">навредили противнику</text>
<polygon fill="#ffffff" stroke="none" points="153,-44 153,-57 371,-57 371,-44 153,-44"/>
<text text-anchor="start" x="154" y="-49" font-family="Times,serif" font-weight="bold" font-size="10.00">выдать награду </text>
<text text-anchor="start" x="229" y="-49" font-family="Times,serif" font-size="10.00">  hero </text>
<text text-anchor="start" x="254" y="-49" font-family="Times,serif" font-weight="bold" font-size="10.00">типа </text>
<text text-anchor="start" x="278" y="-49" font-family="Times,serif" font-size="10.00"> finish </text>
<text text-anchor="start" x="306" y="-49" font-family="Times,serif" font-weight="bold" font-size="10.00">в размере</text>
<text text-anchor="start" x="349" y="-49" font-family="Times,serif" font-size="10.00"> 1.00</text>
<polygon fill="#eeeeee" stroke="none" points="153,-31 153,-44 371,-44 371,-31 153,-31"/>
<text text-anchor="start" x="154" y="-36" font-family="Times,serif" font-weight="bold" font-size="10.00">результаты:</text>
<text text-anchor="start" x="154" y="-23" font-family="Times,serif" font-weight="bold" font-size="10.00">person_5</text>
<text text-anchor="start" x="273" y="-22" font-family="Times,serif" font-size="10.00">failed</text>
<text text-anchor="start" x="154" y="-10" font-family="Times,serif" font-weight="bold" font-size="10.00">place_3</text>
<text text-anchor="start" x="273" y="-9" font-family="Times,serif" font-size="10.00">neutral</text>
<polygon fill="none" stroke="black" points="152,-4 152,-84 372,-84 372,-4 152,-4"/>
</g>
<!-- #jump([ns&#45;1]finish_failed, [ns&#45;0]finish) -->
<g id="node6" class="node"><title>#jump([ns&#45;1]finish_failed, [ns&#45;0]finish)</title>
<polygon fill="#eeeeee" stroke="none" points="205,-135 205,-148 319,-148 319,-135 205,-135"/>
<text text-anchor="start" x="206" y="-140" font-family="Times,serif" font-weight="bold" font-size="10.00">сообщение:</text>
<text text-anchor="start" x="258" y="-140" font-family="Times,serif" font-size="10.00"> after_interfere</text>
</g>
<!-- [ns&#45;1]finish_failed&#45;&gt;#jump([ns&#45;1]finish_failed, [ns&#45;0]finish) -->
<g id="edge3" class="edge"><title>[ns&#45;1]finish_failed:[ns&#45;1]finish_failed&#45;&gt;#jump([ns&#45;1]finish_failed, [ns&#45;0]finish):#jump([ns&#45;1]finish_failed, [ns&#45;0]finish)</title>
<path fill="none" stroke="black" d="M262,-199.945C262,-179.841 262,-158.554 262,-148.664"/>
</g>
<!-- #jump([ns&#45;1]finish_failed, [ns&#45;0]finish)&#45;&gt;[ns&#45;0]finish -->
<g id="edge4" class="edge"><title>#jump([ns&#45;1]finish_failed, [ns&#45;0]finish):#jump([ns&#45;1]finish_failed, [ns&#45;0]finish)&#45;&gt;[ns&#45;0]finish:[ns&#45;0]finish</title>
<path fill="none" stroke="black" d="M262,-135.282C262,-126.992 262,-110.826 262,-94.4371"/>
<polygon fill="black" stroke="black" points="265.5,-94.2719 262,-84.2719 258.5,-94.2719 265.5,-94.2719"/>
</g>
</g>
</svg>
