<?xml version="1.0" encoding="UTF-8" standalone="no"?>
<!DOCTYPE svg PUBLIC "-//W3C//DTD SVG 1.1//EN"
 "http://www.w3.org/Graphics/SVG/1.1/DTD/svg11.dtd">
<!-- Generated by graphviz version 2.43.0 (0)
 -->
<!-- Title: quest Pages: 1 -->
<svg width="484pt" height="481pt"
 viewBox="0.00 0.00 484.00 481.00" xmlns="http://www.w3.org/2000/svg" xmlns:xlink="http://www.w3.org/1999/xlink">
<g id="graph0" class="graph" transform="scale(1 1) rotate(0) translate(4 477)">
<title>quest</title>
<polygon fill="white" stroke="transparent" points="-4,4 -4,-477 480,-477 480,4 -4,4"/>
<g id="clust1" class="cluster">
<title>cluster_[ns&#45;0]interfere_subquest</title>
<polygon fill="#96ffff" stroke="black" points="75,-180 75,-403 468,-403 468,-180 75,-180"/>
<text text-anchor="middle" x="271.5" y="-387.8" font-family="Times,serif" font-size="14.00">cluster_[ns&#45;0]interfere_subquest</text>
</g>
<g id="clust2" class="cluster">
<title>cluster_[ns&#45;1]event</title>
<polygon fill="#ffffdd" stroke="black" points="83,-188 83,-328 460,-328 460,-188 83,-188"/>
<text text-anchor="middle" x="271.5" y="-312.8" font-family="Times,serif" font-size="14.00">cluster_[ns&#45;1]event</text>
</g>
<!-- [ns&#45;1]start -->
<g id="node1" class="node">
<title>[ns&#45;1]start</title>
<polygon fill="#eeeeee" stroke="transparent" points="197.5,-340 197.5,-368 326.5,-368 326.5,-340 197.5,-340"/>
<text text-anchor="start" x="200" y="-359" font-family="Times,serif" font-style="italic" font-size="10.00">[ns&#45;1]start</text>
<text text-anchor="start" x="279.5" y="-359" font-family="Times,serif" font-weight="bold" font-size="10.00">simple</text>
<text text-anchor="start" x="200" y="-345" font-family="Times,serif" font-size="10.00">Start: the simplest quest</text>
<polygon fill="none" stroke="black" points="197.5,-340 197.5,-368 326.5,-368 326.5,-340 197.5,-340"/>
</g>
<!-- [ns&#45;1]finish_successed -->
<g id="node2" class="node">
<title>[ns&#45;1]finish_successed</title>
<polygon fill="#eeeeee" stroke="transparent" points="270.5,-200 270.5,-293 443.5,-293 443.5,-200 270.5,-200"/>
<text text-anchor="start" x="273" y="-283.5" font-family="Times,serif" font-style="italic" font-size="10.00">[ns&#45;1]finish_successed</text>
<text text-anchor="start" x="273" y="-269.5" font-family="Times,serif" font-size="10.00">complete the quest successfully</text>
<polygon fill="#eeeeee" stroke="transparent" points="272,-252.5 272,-265.5 443,-265.5 443,-252.5 272,-252.5"/>
<text text-anchor="start" x="273" y="-257.5" font-family="Times,serif" font-weight="bold" font-size="10.00">results:</text>
<text text-anchor="start" x="273" y="-244.5" font-family="Times,serif" font-weight="bold" font-size="10.00">person_2</text>
<text text-anchor="start" x="390" y="-243.5" font-family="Times,serif" font-size="10.00">successed</text>
<text text-anchor="start" x="273" y="-231.5" font-family="Times,serif" font-weight="bold" font-size="10.00">person_5</text>
<text text-anchor="start" x="390" y="-230.5" font-family="Times,serif" font-size="10.00">successed</text>
<text text-anchor="start" x="273" y="-218.5" font-family="Times,serif" font-weight="bold" font-size="10.00">place_2</text>
<text text-anchor="start" x="390" y="-217.5" font-family="Times,serif" font-size="10.00">successed</text>
<text text-anchor="start" x="273" y="-205.5" font-family="Times,serif" font-weight="bold" font-size="10.00">place_5</text>
<text text-anchor="start" x="390" y="-204.5" font-family="Times,serif" font-size="10.00">successed</text>
<polygon fill="none" stroke="black" points="270.5,-200 270.5,-293 443.5,-293 443.5,-200 270.5,-200"/>
</g>
<!-- [ns&#45;1]start&#45;&gt;[ns&#45;1]finish_successed -->
<g id="edge3" class="edge">
<title>[ns&#45;1]start:[ns&#45;1]start&#45;&gt;[ns&#45;1]finish_successed:[ns&#45;1]finish_successed</title>
<path fill="none" stroke="black" d="M274.03,-339.64C283.05,-329.63 296.02,-315.22 309.04,-300.76"/>
<polygon fill="black" stroke="black" points="311.74,-303 315.83,-293.22 306.54,-298.31 311.74,-303"/>
</g>
<!-- [ns&#45;1]finish_failed -->
<g id="node5" class="node">
<title>[ns&#45;1]finish_failed</title>
<polygon fill="#eeeeee" stroke="transparent" points="99.5,-200 99.5,-293 236.5,-293 236.5,-200 99.5,-200"/>
<text text-anchor="start" x="102" y="-283.5" font-family="Times,serif" font-style="italic" font-size="10.00">[ns&#45;1]finish_failed</text>
<text text-anchor="start" x="102" y="-269.5" font-family="Times,serif" font-size="10.00">complete the quest poorly</text>
<polygon fill="#eeeeee" stroke="transparent" points="101,-252.5 101,-265.5 236,-265.5 236,-252.5 101,-252.5"/>
<text text-anchor="start" x="102" y="-257.5" font-family="Times,serif" font-weight="bold" font-size="10.00">results:</text>
<text text-anchor="start" x="102" y="-244.5" font-family="Times,serif" font-weight="bold" font-size="10.00">person_2</text>
<text text-anchor="start" x="201" y="-243.5" font-family="Times,serif" font-size="10.00">failed</text>
<text text-anchor="start" x="102" y="-231.5" font-family="Times,serif" font-weight="bold" font-size="10.00">person_5</text>
<text text-anchor="start" x="201" y="-230.5" font-family="Times,serif" font-size="10.00">failed</text>
<text text-anchor="start" x="102" y="-218.5" font-family="Times,serif" font-weight="bold" font-size="10.00">place_2</text>
<text text-anchor="start" x="201" y="-217.5" font-family="Times,serif" font-size="10.00">failed</text>
<text text-anchor="start" x="102" y="-205.5" font-family="Times,serif" font-weight="bold" font-size="10.00">place_5</text>
<text text-anchor="start" x="201" y="-204.5" font-family="Times,serif" font-size="10.00">failed</text>
<polygon fill="none" stroke="black" points="99.5,-200 99.5,-293 236.5,-293 236.5,-200 99.5,-200"/>
</g>
<!-- [ns&#45;1]start&#45;&gt;[ns&#45;1]finish_failed -->
<g id="edge5" class="edge">
<title>[ns&#45;1]start:[ns&#45;1]start&#45;&gt;[ns&#45;1]finish_failed:[ns&#45;1]finish_failed</title>
<path fill="none" stroke="black" d="M250.09,-339.64C241.18,-329.63 228.34,-315.22 215.46,-300.76"/>
<polygon fill="black" stroke="black" points="218,-298.36 208.74,-293.22 212.78,-303.02 218,-298.36"/>
</g>
<!-- [ns&#45;0]start -->
<g id="node3" class="node">
<title>[ns&#45;0]start</title>
<polygon fill="#eeeeee" stroke="transparent" points="181.5,-415 181.5,-469 342.5,-469 342.5,-415 181.5,-415"/>
<text text-anchor="start" x="184" y="-460" font-family="Times,serif" font-style="italic" font-size="10.00">[ns&#45;0]start</text>
<text text-anchor="start" x="247" y="-460" font-family="Times,serif" font-weight="bold" font-size="10.00">interfere_enemy</text>
<text text-anchor="start" x="184" y="-446" font-family="Times,serif" font-size="10.00">Start: interfere with the enemy</text>
<polygon fill="#dddddd" stroke="transparent" points="183,-429 183,-442 342,-442 342,-429 183,-429"/>
<text text-anchor="start" x="184" y="-434" font-family="Times,serif" font-size="10.00">hero </text>
<text text-anchor="start" x="211" y="-434" font-family="Times,serif" font-weight="bold" font-size="10.00">is located in</text>
<text text-anchor="start" x="281" y="-434" font-family="Times,serif" font-size="10.00"> place_1</text>
<polygon fill="#ffffff" stroke="transparent" points="183,-416 183,-429 342,-429 342,-416 183,-416"/>
<text text-anchor="start" x="184" y="-421" font-family="Times,serif" font-weight="bold" font-size="10.00">message:</text>
<text text-anchor="start" x="236" y="-421" font-family="Times,serif" font-size="10.00"> intro</text>
<polygon fill="none" stroke="black" points="181.5,-415 181.5,-469 342.5,-469 342.5,-415 181.5,-415"/>
</g>
<!-- [ns&#45;0]start&#45;&gt;[ns&#45;1]start -->
<g id="edge4" class="edge">
<title>[ns&#45;0]start:[ns&#45;0]start&#45;&gt;[ns&#45;1]start:[ns&#45;1]start</title>
<path fill="none" stroke="black" d="M262,-414.73C262,-403.17 262,-389.7 262,-378.48"/>
<polygon fill="black" stroke="black" points="265.5,-378.17 262,-368.17 258.5,-378.17 265.5,-378.17"/>
</g>
<!-- [ns&#45;0]finish -->
<g id="node4" class="node">
<title>[ns&#45;0]finish</title>
<polygon fill="#eeeeee" stroke="transparent" points="8,-4 8,-84 328,-84 328,-4 8,-4"/>
<text text-anchor="start" x="10" y="-75" font-family="Times,serif" font-style="italic" font-size="10.00">[ns&#45;0]finish</text>
<text text-anchor="start" x="10" y="-61" font-family="Times,serif" font-size="10.00">interfered with the enemy</text>
<polygon fill="#ffffff" stroke="transparent" points="9,-44 9,-57 327,-57 327,-44 9,-44"/>
<text text-anchor="start" x="10" y="-49" font-family="Times,serif" font-weight="bold" font-size="10.00">give reward to </text>
<text text-anchor="start" x="94" y="-49" font-family="Times,serif" font-size="10.00">  hero </text>
<text text-anchor="start" x="127" y="-49" font-family="Times,serif" font-weight="bold" font-size="10.00">of type </text>
<text text-anchor="start" x="170" y="-49" font-family="Times,serif" font-size="10.00"> finish </text>
<text text-anchor="start" x="205" y="-49" font-family="Times,serif" font-weight="bold" font-size="10.00">in the amount of</text>
<text text-anchor="start" x="301" y="-49" font-family="Times,serif" font-size="10.00"> 1.00</text>
<polygon fill="#eeeeee" stroke="transparent" points="9,-31 9,-44 327,-44 327,-31 9,-31"/>
<text text-anchor="start" x="10" y="-36" font-family="Times,serif" font-weight="bold" font-size="10.00">results:</text>
<text text-anchor="start" x="10" y="-23" font-family="Times,serif" font-weight="bold" font-size="10.00">person_5</text>
<text text-anchor="start" x="179" y="-22" font-family="Times,serif" font-size="10.00">failed</text>
<text text-anchor="start" x="10" y="-10" font-family="Times,serif" font-weight="bold" font-size="10.00">place_2</text>
<text text-anchor="start" x="179" y="-9" font-family="Times,serif" font-size="10.00">neutral</text>
<polygon fill="none" stroke="black" points="8,-4 8,-84 328,-84 328,-4 8,-4"/>
</g>
<!-- #jump([ns&#45;1]finish_failed, [ns&#45;0]finish) -->
<g id="node6" class="node">
<title>#jump([ns&#45;1]finish_failed, [ns&#45;0]finish)</title>
<polygon fill="#eeeeee" stroke="transparent" points="103,-135 103,-148 234,-148 234,-135 103,-135"/>
<text text-anchor="start" x="104" y="-140" font-family="Times,serif" font-weight="bold" font-size="10.00">message:</text>
<text text-anchor="start" x="156" y="-140" font-family="Times,serif" font-size="10.00"> after_interfere</text>
</g>
<!-- [ns&#45;1]finish_failed&#45;&gt;#jump([ns&#45;1]finish_failed, [ns&#45;0]finish) -->
<g id="edge1" class="edge">
<title>[ns&#45;1]finish_failed:[ns&#45;1]finish_failed&#45;&gt;#jump([ns&#45;1]finish_failed, [ns&#45;0]finish):#jump([ns&#45;1]finish_failed, [ns&#45;0]finish)</title>
<path fill="none" stroke="black" d="M168,-199.95C168,-179.84 168,-158.55 168,-148.66"/>
</g>
<!-- #jump([ns&#45;1]finish_failed, [ns&#45;0]finish)&#45;&gt;[ns&#45;0]finish -->
<g id="edge2" class="edge">
<title>#jump([ns&#45;1]finish_failed, [ns&#45;0]finish):#jump([ns&#45;1]finish_failed, [ns&#45;0]finish)&#45;&gt;[ns&#45;0]finish:[ns&#45;0]finish</title>
<path fill="none" stroke="black" d="M168,-135.28C168,-126.99 168,-110.83 168,-94.44"/>
<polygon fill="black" stroke="black" points="171.5,-94.27 168,-84.27 164.5,-94.27 171.5,-94.27"/>
</g>
</g>
</svg>
