<?xml version="1.0" encoding="UTF-8" standalone="no"?>
<!DOCTYPE svg PUBLIC "-//W3C//DTD SVG 1.1//EN"
 "http://www.w3.org/Graphics/SVG/1.1/DTD/svg11.dtd">
<!-- Generated by graphviz version 2.34.0 (20130907.0221)
 -->
<!-- Title: quest Pages: 1 -->
<svg width="400pt" height="410pt"
 viewBox="0.00 0.00 400.00 410.00" xmlns="http://www.w3.org/2000/svg" xmlns:xlink="http://www.w3.org/1999/xlink">
<g id="graph0" class="graph" transform="scale(1 1) rotate(0) translate(4 406)">
<title>quest</title>
<polygon fill="white" stroke="white" points="-4,4 -4,-406 396,-406 396,4 -4,4"/>
<g id="clust1" class="cluster"><title>cluster_[ns&#45;0]interfere_subquest</title>
<polygon fill="#96ffff" stroke="black" points="8,-104 8,-330 384,-330 384,-104 8,-104"/>
<text text-anchor="middle" x="196" y="-314.8" font-family="Times,serif" font-size="14.00">cluster_[ns&#45;0]interfere_subquest</text>
</g>
<g id="clust2" class="cluster"><title>cluster_[ns&#45;1]event</title>
<polygon fill="#ffffdd" stroke="black" points="16,-176 16,-253 376,-253 376,-176 16,-176"/>
<text text-anchor="middle" x="196" y="-237.8" font-family="Times,serif" font-size="14.00">cluster_[ns&#45;1]event</text>
</g>
<!-- [ns&#45;1]start -->
<g id="node1" class="node"><title>[ns&#45;1]start</title>
<polygon fill="#eeeeee" stroke="none" points="133.5,-265.5 133.5,-294.5 266.5,-294.5 266.5,-265.5 133.5,-265.5"/>
<text text-anchor="start" x="136" y="-284.5" font-family="Times,serif" font-style="italic" font-size="10.00">[ns&#45;1]start</text>
<text text-anchor="start" x="219.5" y="-284.5" font-family="Times,serif" font-weight="bold" font-size="10.00">simple</text>
<text text-anchor="start" x="136" y="-270" font-family="Times,serif" font-size="10.00">Начало: самый простой квест</text>
<polygon fill="none" stroke="black" points="133.5,-265.5 133.5,-294.5 266.5,-294.5 266.5,-265.5 133.5,-265.5"/>
</g>
<!-- [ns&#45;1]finish_failed -->
<g id="node4" class="node"><title>[ns&#45;1]finish_failed</title>
<polygon fill="#eeeeee" stroke="none" points="222,-188.5 222,-217.5 360,-217.5 360,-188.5 222,-188.5"/>
<text text-anchor="start" x="224" y="-207.5" font-family="Times,serif" font-style="italic" font-size="10.00">[ns&#45;1]finish_failed</text>
<text text-anchor="start" x="319" y="-207.5" font-family="Times,serif" font-weight="bold" font-size="10.00">failed</text>
<text text-anchor="start" x="224" y="-193" font-family="Times,serif" font-size="10.00">завершить задание плохо</text>
<polygon fill="none" stroke="black" points="222,-188.5 222,-217.5 360,-217.5 360,-188.5 222,-188.5"/>
</g>
<!-- [ns&#45;1]start&#45;&gt;[ns&#45;1]finish_failed -->
<g id="edge2" class="edge"><title>[ns&#45;1]start:[ns&#45;1]start&#45;&gt;[ns&#45;1]finish_failed:[ns&#45;1]finish_failed</title>
<path fill="none" stroke="black" d="M216.691,-265.244C230.673,-253.72 250.821,-237.115 266.611,-224.101"/>
<polygon fill="black" stroke="black" points="268.924,-226.73 274.415,-217.669 264.472,-221.328 268.924,-226.73"/>
</g>
<!-- [ns&#45;1]finish_successed -->
<g id="node5" class="node"><title>[ns&#45;1]finish_successed</title>
<polygon fill="#eeeeee" stroke="none" points="32,-188.5 32,-217.5 188,-217.5 188,-188.5 32,-188.5"/>
<text text-anchor="start" x="34" y="-207.5" font-family="Times,serif" font-style="italic" font-size="10.00">[ns&#45;1]finish_successed</text>
<text text-anchor="start" x="138.5" y="-207.5" font-family="Times,serif" font-weight="bold" font-size="10.00">successed</text>
<text text-anchor="start" x="34" y="-193" font-family="Times,serif" font-size="10.00">завершить задание удачно</text>
<polygon fill="none" stroke="black" points="32,-188.5 32,-217.5 188,-217.5 188,-188.5 32,-188.5"/>
</g>
<!-- [ns&#45;1]start&#45;&gt;[ns&#45;1]finish_successed -->
<g id="edge5" class="edge"><title>[ns&#45;1]start:[ns&#45;1]start&#45;&gt;[ns&#45;1]finish_successed:[ns&#45;1]finish_successed</title>
<path fill="none" stroke="black" d="M183.493,-265.244C169.664,-253.72 149.738,-237.115 134.121,-224.101"/>
<polygon fill="black" stroke="black" points="136.326,-221.382 126.403,-217.669 131.844,-226.76 136.326,-221.382"/>
</g>
<!-- [ns&#45;0]start -->
<g id="node2" class="node"><title>[ns&#45;0]start</title>
<polygon fill="#eeeeee" stroke="none" points="128.5,-342.5 128.5,-397.5 271.5,-397.5 271.5,-342.5 128.5,-342.5"/>
<text text-anchor="start" x="131" y="-387.5" font-family="Times,serif" font-style="italic" font-size="10.00">[ns&#45;0]start</text>
<text text-anchor="start" x="200" y="-387.5" font-family="Times,serif" font-weight="bold" font-size="10.00">interfere_enemy</text>
<text text-anchor="start" x="131" y="-373" font-family="Times,serif" font-size="10.00">Начало: навредить противнику</text>
<polygon fill="#dddddd" stroke="none" points="130,-356 130,-369 271,-369 271,-356 130,-356"/>
<text text-anchor="start" x="131" y="-361" font-family="Times,serif" font-size="10.00">hero </text>
<text text-anchor="start" x="152" y="-361" font-family="Times,serif" font-weight="bold" font-size="10.00">находится в</text>
<text text-anchor="start" x="207" y="-361" font-family="Times,serif" font-size="10.00"> place_1</text>
<polygon fill="#ffffff" stroke="none" points="130,-343 130,-356 271,-356 271,-343 130,-343"/>
<text text-anchor="start" x="131" y="-348" font-family="Times,serif" font-weight="bold" font-size="10.00">сообщение:</text>
<text text-anchor="start" x="183" y="-348" font-family="Times,serif" font-size="10.00"> intro</text>
<polygon fill="none" stroke="black" points="128.5,-342.5 128.5,-397.5 271.5,-397.5 271.5,-342.5 128.5,-342.5"/>
</g>
<!-- [ns&#45;0]start&#45;&gt;[ns&#45;1]start -->
<g id="edge1" class="edge"><title>[ns&#45;0]start:[ns&#45;0]start&#45;&gt;[ns&#45;1]start:[ns&#45;1]start</title>
<path fill="none" stroke="black" d="M200,-342.119C200,-330.321 200,-316.578 200,-305.116"/>
<polygon fill="black" stroke="black" points="203.5,-304.962 200,-294.962 196.5,-304.962 203.5,-304.962"/>
</g>
<!-- [ns&#45;0]finish -->
<g id="node3" class="node"><title>[ns&#45;0]finish</title>
<polygon fill="#eeeeee" stroke="none" points="203.5,-4 203.5,-72 378.5,-72 378.5,-4 203.5,-4"/>
<text text-anchor="start" x="206" y="-62.5" font-family="Times,serif" font-style="italic" font-size="10.00">[ns&#45;0]finish</text>
<text text-anchor="start" x="315" y="-62.5" font-family="Times,serif" font-weight="bold" font-size="10.00">successed</text>
<text text-anchor="start" x="206" y="-48" font-family="Times,serif" font-size="10.00">навредили противнику</text>
<polygon fill="#ffffff" stroke="none" points="205,-31 205,-44 378,-44 378,-31 205,-31"/>
<text text-anchor="start" x="206" y="-36" font-family="Times,serif" font-weight="bold" font-size="10.00">выдать награду </text>
<text text-anchor="start" x="281" y="-36" font-family="Times,serif" font-size="10.00">  hero </text>
<text text-anchor="start" x="306" y="-36" font-family="Times,serif" font-weight="bold" font-size="10.00">типа </text>
<text text-anchor="start" x="330" y="-36" font-family="Times,serif" font-size="10.00"> finish</text>
<polygon fill="#ffffff" stroke="none" points="205,-18 205,-31 378,-31 378,-18 205,-18"/>
<text text-anchor="start" x="206" y="-23" font-family="Times,serif" font-weight="bold" font-size="10.00">увеличить влияние </text>
<text text-anchor="start" x="294" y="-23" font-family="Times,serif" font-size="10.00">  person_5 </text>
<text text-anchor="start" x="339" y="-23" font-family="Times,serif" font-weight="bold" font-size="10.00">на </text>
<text text-anchor="start" x="352" y="-23" font-family="Times,serif" font-size="10.00"> &#45;1.00</text>
<polygon fill="#ffffff" stroke="none" points="205,-5 205,-18 378,-18 378,-5 205,-5"/>
<text text-anchor="start" x="206" y="-10" font-family="Times,serif" font-weight="bold" font-size="10.00">увеличить влияние </text>
<text text-anchor="start" x="294" y="-10" font-family="Times,serif" font-size="10.00">  place_9 </text>
<text text-anchor="start" x="334" y="-10" font-family="Times,serif" font-weight="bold" font-size="10.00">на </text>
<text text-anchor="start" x="347" y="-10" font-family="Times,serif" font-size="10.00"> &#45;1.00</text>
<polygon fill="none" stroke="black" points="203.5,-4 203.5,-72 378.5,-72 378.5,-4 203.5,-4"/>
</g>
<!-- #jump([ns&#45;1]finish_failed, [ns&#45;0]finish) -->
<g id="node6" class="node"><title>#jump([ns&#45;1]finish_failed, [ns&#45;0]finish)</title>
<polygon fill="#eeeeee" stroke="none" points="234,-123 234,-137 349,-137 349,-123 234,-123"/>
<text text-anchor="start" x="235" y="-128.5" font-family="Times,serif" font-weight="bold" font-size="10.00">сообщение:</text>
<text text-anchor="start" x="287" y="-128.5" font-family="Times,serif" font-size="10.00"> after_interfere</text>
</g>
<!-- [ns&#45;1]finish_failed&#45;&gt;#jump([ns&#45;1]finish_failed, [ns&#45;0]finish) -->
<g id="edge3" class="edge"><title>[ns&#45;1]finish_failed:[ns&#45;1]finish_failed&#45;&gt;#jump([ns&#45;1]finish_failed, [ns&#45;0]finish):#jump([ns&#45;1]finish_failed, [ns&#45;0]finish)</title>
<path fill="none" stroke="black" d="M291,-188.31C291,-172.837 291,-148.336 291,-137.053"/>
</g>
<!-- #jump([ns&#45;1]finish_failed, [ns&#45;0]finish)&#45;&gt;[ns&#45;0]finish -->
<g id="edge4" class="edge"><title>#jump([ns&#45;1]finish_failed, [ns&#45;0]finish):#jump([ns&#45;1]finish_failed, [ns&#45;0]finish)&#45;&gt;[ns&#45;0]finish:[ns&#45;0]finish</title>
<path fill="none" stroke="black" d="M291,-122.814C291,-114.344 291,-98.3863 291,-82.6494"/>
<polygon fill="black" stroke="black" points="294.5,-82.4207 291,-72.4207 287.5,-82.4208 294.5,-82.4207"/>
</g>
</g>
</svg>
