<?xml version="1.0" encoding="UTF-8" standalone="no"?>
<!DOCTYPE svg PUBLIC "-//W3C//DTD SVG 1.1//EN"
 "http://www.w3.org/Graphics/SVG/1.1/DTD/svg11.dtd">
<!-- Generated by graphviz version 2.38.0 (20140413.2041)
 -->
<!-- Title: quest Pages: 1 -->
<svg width="244pt" height="364pt"
 viewBox="0.00 0.00 244.00 364.00" xmlns="http://www.w3.org/2000/svg" xmlns:xlink="http://www.w3.org/1999/xlink">
<g id="graph0" class="graph" transform="scale(1 1) rotate(0) translate(4 360)">
<title>quest</title>
<polygon fill="white" stroke="none" points="-4,4 -4,-360 240,-360 240,4 -4,4"/>
<!-- [ns&#45;0]start -->
<g id="node1" class="node"><title>[ns&#45;0]start</title>
<polygon fill="#eeeeee" stroke="none" points="49,-298 49,-352 187,-352 187,-298 49,-298"/>
<text text-anchor="start" x="51" y="-343" font-family="Times,serif" font-style="italic" font-size="10.00">[ns&#45;0]start</text>
<text text-anchor="start" x="127" y="-343" font-family="Times,serif" font-weight="bold" font-size="10.00">pilgrimage</text>
<text text-anchor="start" x="51" y="-329" font-family="Times,serif" font-size="10.00">Начало: посетить святой город</text>
<polygon fill="#dddddd" stroke="none" points="50,-312 50,-325 186,-325 186,-312 50,-312"/>
<text text-anchor="start" x="51" y="-317" font-family="Times,serif" font-size="10.00">hero </text>
<text text-anchor="start" x="72" y="-317" font-family="Times,serif" font-weight="bold" font-size="10.00">находится в</text>
<text text-anchor="start" x="127" y="-317" font-family="Times,serif" font-size="10.00"> place_1</text>
<polygon fill="#ffffff" stroke="none" points="50,-299 50,-312 186,-312 186,-299 50,-299"/>
<text text-anchor="start" x="51" y="-304" font-family="Times,serif" font-weight="bold" font-size="10.00">сообщение:</text>
<text text-anchor="start" x="103" y="-304" font-family="Times,serif" font-size="10.00"> intro</text>
<polygon fill="none" stroke="black" points="49,-298 49,-352 187,-352 187,-298 49,-298"/>
</g>
<!-- [ns&#45;0]arriving -->
<g id="node3" class="node"><title>[ns&#45;0]arriving</title>
<polygon fill="#ddffdd" stroke="none" points="58,-213 58,-254 178,-254 178,-213 58,-213"/>
<text text-anchor="start" x="60" y="-244.5" font-family="Times,serif" font-style="italic" font-size="10.00">[ns&#45;0]arriving</text>
<text text-anchor="start" x="60" y="-230.5" font-family="Times,serif" font-size="10.00">Прибытие в город</text>
<polygon fill="#cceecc" stroke="none" points="59,-213.5 59,-226.5 177,-226.5 177,-213.5 59,-213.5"/>
<text text-anchor="start" x="60" y="-218.5" font-family="Times,serif" font-size="10.00">hero </text>
<text text-anchor="start" x="81" y="-218.5" font-family="Times,serif" font-weight="bold" font-size="10.00">находится в</text>
<text text-anchor="start" x="136" y="-218.5" font-family="Times,serif" font-size="10.00"> place_10</text>
<polygon fill="none" stroke="black" points="58,-213 58,-254 178,-254 178,-213 58,-213"/>
</g>
<!-- [ns&#45;0]start&#45;&gt;[ns&#45;0]arriving -->
<g id="edge1" class="edge"><title>[ns&#45;0]start:[ns&#45;0]start&#45;&gt;[ns&#45;0]arriving:[ns&#45;0]arriving</title>
<path fill="none" stroke="black" d="M118,-297.631C118,-287.19 118,-275.132 118,-264.37"/>
<polygon fill="black" stroke="black" points="121.5,-264.148 118,-254.148 114.5,-264.148 121.5,-264.148"/>
</g>
<!-- [ns&#45;0]finish -->
<g id="node2" class="node"><title>[ns&#45;0]finish</title>
<polygon fill="#eeeeee" stroke="none" points="8,-4 8,-71 228,-71 228,-4 8,-4"/>
<text text-anchor="start" x="10" y="-61.5" font-family="Times,serif" font-style="italic" font-size="10.00">[ns&#45;0]finish</text>
<text text-anchor="start" x="10" y="-47.5" font-family="Times,serif" font-size="10.00">завершить посещение города</text>
<polygon fill="#ffffff" stroke="none" points="9,-30.5 9,-43.5 227,-43.5 227,-30.5 9,-30.5"/>
<text text-anchor="start" x="10" y="-35.5" font-family="Times,serif" font-weight="bold" font-size="10.00">выдать награду </text>
<text text-anchor="start" x="85" y="-35.5" font-family="Times,serif" font-size="10.00">  hero </text>
<text text-anchor="start" x="110" y="-35.5" font-family="Times,serif" font-weight="bold" font-size="10.00">типа </text>
<text text-anchor="start" x="134" y="-35.5" font-family="Times,serif" font-size="10.00"> finish </text>
<text text-anchor="start" x="162" y="-35.5" font-family="Times,serif" font-weight="bold" font-size="10.00">в размере</text>
<text text-anchor="start" x="205" y="-35.5" font-family="Times,serif" font-size="10.00"> 1.00</text>
<polygon fill="#eeeeee" stroke="none" points="9,-17.5 9,-30.5 227,-30.5 227,-17.5 9,-17.5"/>
<text text-anchor="start" x="10" y="-22.5" font-family="Times,serif" font-weight="bold" font-size="10.00">результаты:</text>
<text text-anchor="start" x="10" y="-9.5" font-family="Times,serif" font-weight="bold" font-size="10.00">place_10</text>
<text text-anchor="start" x="123" y="-8.5" font-family="Times,serif" font-size="10.00">successed</text>
<polygon fill="none" stroke="black" points="8,-4 8,-71 228,-71 228,-4 8,-4"/>
</g>
<!-- [ns&#45;0]stagger_holy_streets -->
<g id="node4" class="node"><title>[ns&#45;0]stagger_holy_streets</title>
<polygon fill="#ddffdd" stroke="none" points="46.5,-115 46.5,-169 189.5,-169 189.5,-115 46.5,-115"/>
<text text-anchor="start" x="49" y="-160" font-family="Times,serif" font-style="italic" font-size="10.00">[ns&#45;0]stagger_holy_streets</text>
<text text-anchor="start" x="49" y="-146" font-family="Times,serif" font-size="10.00">пошататься по улицам</text>
<polygon fill="#eeffee" stroke="none" points="48,-129 48,-142 189,-142 189,-129 48,-129"/>
<text text-anchor="start" x="49" y="-134" font-family="Times,serif" font-weight="bold" font-size="10.00">сообщение:</text>
<text text-anchor="start" x="101" y="-134" font-family="Times,serif" font-size="10.00"> stagger_holy_streets</text>
<polygon fill="#eeffee" stroke="none" points="48,-116 48,-129 189,-129 189,-116 48,-116"/>
<text text-anchor="start" x="49" y="-121" font-family="Times,serif" font-weight="bold" font-size="10.00">заняться </text>
<text text-anchor="start" x="92" y="-121" font-family="Times,serif" font-size="10.00">  stagger_holy_streets</text>
<polygon fill="none" stroke="black" points="46.5,-115 46.5,-169 189.5,-169 189.5,-115 46.5,-115"/>
</g>
<!-- [ns&#45;0]arriving&#45;&gt;[ns&#45;0]stagger_holy_streets -->
<g id="edge3" class="edge"><title>[ns&#45;0]arriving:[ns&#45;0]arriving&#45;&gt;[ns&#45;0]stagger_holy_streets:[ns&#45;0]stagger_holy_streets</title>
<path fill="none" stroke="black" d="M118,-212.637C118,-202.859 118,-190.756 118,-179.397"/>
<polygon fill="black" stroke="black" points="121.5,-179.263 118,-169.263 114.5,-179.263 121.5,-179.263"/>
</g>
<!-- [ns&#45;0]stagger_holy_streets&#45;&gt;[ns&#45;0]finish -->
<g id="edge2" class="edge"><title>[ns&#45;0]stagger_holy_streets:[ns&#45;0]stagger_holy_streets&#45;&gt;[ns&#45;0]finish:[ns&#45;0]finish</title>
<path fill="none" stroke="black" d="M118,-114.87C118,-104.698 118,-92.7714 118,-81.4075"/>
<polygon fill="black" stroke="black" points="121.5,-81.1958 118,-71.1958 114.5,-81.1959 121.5,-81.1958"/>
</g>
</g>
</svg>
