<?xml version="1.0" encoding="UTF-8" standalone="no"?>
<!DOCTYPE svg PUBLIC "-//W3C//DTD SVG 1.1//EN"
 "http://www.w3.org/Graphics/SVG/1.1/DTD/svg11.dtd">
<!-- Generated by graphviz version 2.43.0 (0)
 -->
<!-- Title: quest Pages: 1 -->
<svg width="344pt" height="364pt"
 viewBox="0.00 0.00 344.00 364.00" xmlns="http://www.w3.org/2000/svg" xmlns:xlink="http://www.w3.org/1999/xlink">
<g id="graph0" class="graph" transform="scale(1 1) rotate(0) translate(4 360)">
<title>quest</title>
<polygon fill="white" stroke="transparent" points="-4,4 -4,-360 340,-360 340,4 -4,4"/>
<!-- [ns&#45;0]start -->
<g id="node1" class="node">
<title>[ns&#45;0]start</title>
<polygon fill="#eeeeee" stroke="transparent" points="96.5,-298 96.5,-352 239.5,-352 239.5,-298 96.5,-298"/>
<text text-anchor="start" x="99" y="-343" font-family="Times,serif" font-style="italic" font-size="10.00">[ns&#45;0]start</text>
<text text-anchor="start" x="171" y="-343" font-family="Times,serif" font-weight="bold" font-size="10.00">pilgrimage</text>
<text text-anchor="start" x="99" y="-329" font-family="Times,serif" font-size="10.00">Start: visit the holy city</text>
<polygon fill="#dddddd" stroke="transparent" points="98,-312 98,-325 239,-325 239,-312 98,-312"/>
<text text-anchor="start" x="99" y="-317" font-family="Times,serif" font-size="10.00">hero </text>
<text text-anchor="start" x="126" y="-317" font-family="Times,serif" font-weight="bold" font-size="10.00">is located in</text>
<text text-anchor="start" x="196" y="-317" font-family="Times,serif" font-size="10.00"> place_1</text>
<polygon fill="#ffffff" stroke="transparent" points="98,-299 98,-312 239,-312 239,-299 98,-299"/>
<text text-anchor="start" x="99" y="-304" font-family="Times,serif" font-weight="bold" font-size="10.00">message:</text>
<text text-anchor="start" x="151" y="-304" font-family="Times,serif" font-size="10.00"> intro</text>
<polygon fill="none" stroke="black" points="96.5,-298 96.5,-352 239.5,-352 239.5,-298 96.5,-298"/>
</g>
<!-- [ns&#45;0]arriving -->
<g id="node4" class="node">
<title>[ns&#45;0]arriving</title>
<polygon fill="#ddffdd" stroke="transparent" points="93.5,-213 93.5,-254 242.5,-254 242.5,-213 93.5,-213"/>
<text text-anchor="start" x="96" y="-244.5" font-family="Times,serif" font-style="italic" font-size="10.00">[ns&#45;0]arriving</text>
<text text-anchor="start" x="96" y="-230.5" font-family="Times,serif" font-size="10.00">Arriving in the city</text>
<polygon fill="#cceecc" stroke="transparent" points="95,-213.5 95,-226.5 242,-226.5 242,-213.5 95,-213.5"/>
<text text-anchor="start" x="96" y="-218.5" font-family="Times,serif" font-size="10.00">hero </text>
<text text-anchor="start" x="123" y="-218.5" font-family="Times,serif" font-weight="bold" font-size="10.00">is located in</text>
<text text-anchor="start" x="193" y="-218.5" font-family="Times,serif" font-size="10.00"> place_10</text>
<polygon fill="none" stroke="black" points="93.5,-213 93.5,-254 242.5,-254 242.5,-213 93.5,-213"/>
</g>
<!-- [ns&#45;0]start&#45;&gt;[ns&#45;0]arriving -->
<g id="edge3" class="edge">
<title>[ns&#45;0]start:[ns&#45;0]start&#45;&gt;[ns&#45;0]arriving:[ns&#45;0]arriving</title>
<path fill="none" stroke="black" d="M168,-297.63C168,-287.19 168,-275.13 168,-264.37"/>
<polygon fill="black" stroke="black" points="171.5,-264.15 168,-254.15 164.5,-264.15 171.5,-264.15"/>
</g>
<!-- [ns&#45;0]finish -->
<g id="node2" class="node">
<title>[ns&#45;0]finish</title>
<polygon fill="#eeeeee" stroke="transparent" points="8,-4 8,-71 328,-71 328,-4 8,-4"/>
<text text-anchor="start" x="10" y="-61.5" font-family="Times,serif" font-style="italic" font-size="10.00">[ns&#45;0]finish</text>
<text text-anchor="start" x="10" y="-47.5" font-family="Times,serif" font-size="10.00">complete the city visit</text>
<polygon fill="#ffffff" stroke="transparent" points="9,-30.5 9,-43.5 327,-43.5 327,-30.5 9,-30.5"/>
<text text-anchor="start" x="10" y="-35.5" font-family="Times,serif" font-weight="bold" font-size="10.00">give reward to </text>
<text text-anchor="start" x="94" y="-35.5" font-family="Times,serif" font-size="10.00">  hero </text>
<text text-anchor="start" x="127" y="-35.5" font-family="Times,serif" font-weight="bold" font-size="10.00">of type </text>
<text text-anchor="start" x="170" y="-35.5" font-family="Times,serif" font-size="10.00"> finish </text>
<text text-anchor="start" x="205" y="-35.5" font-family="Times,serif" font-weight="bold" font-size="10.00">in the amount of</text>
<text text-anchor="start" x="301" y="-35.5" font-family="Times,serif" font-size="10.00"> 1.00</text>
<polygon fill="#eeeeee" stroke="transparent" points="9,-17.5 9,-30.5 327,-30.5 327,-17.5 9,-17.5"/>
<text text-anchor="start" x="10" y="-22.5" font-family="Times,serif" font-weight="bold" font-size="10.00">results:</text>
<text text-anchor="start" x="10" y="-9.5" font-family="Times,serif" font-weight="bold" font-size="10.00">place_10</text>
<text text-anchor="start" x="172" y="-8.5" font-family="Times,serif" font-size="10.00">successed</text>
<polygon fill="none" stroke="black" points="8,-4 8,-71 328,-71 328,-4 8,-4"/>
</g>
<!-- [ns&#45;0]stagger_holy_streets -->
<g id="node3" class="node">
<title>[ns&#45;0]stagger_holy_streets</title>
<polygon fill="#ddffdd" stroke="transparent" points="77,-115 77,-169 259,-169 259,-115 77,-115"/>
<text text-anchor="start" x="79" y="-160" font-family="Times,serif" font-style="italic" font-size="10.00">[ns&#45;0]stagger_holy_streets</text>
<text text-anchor="start" x="79" y="-146" font-family="Times,serif" font-size="10.00">wander the streets</text>
<polygon fill="#eeffee" stroke="transparent" points="78,-129 78,-142 258,-142 258,-129 78,-129"/>
<text text-anchor="start" x="79" y="-134" font-family="Times,serif" font-weight="bold" font-size="10.00">message:</text>
<text text-anchor="start" x="131" y="-134" font-family="Times,serif" font-size="10.00"> stagger_holy_streets</text>
<polygon fill="#eeffee" stroke="transparent" points="78,-116 78,-129 258,-129 258,-116 78,-116"/>
<text text-anchor="start" x="79" y="-121" font-family="Times,serif" font-weight="bold" font-size="10.00">do nothing </text>
<text text-anchor="start" x="145" y="-121" font-family="Times,serif" font-size="10.00">  stagger_holy_streets</text>
<polygon fill="none" stroke="black" points="77,-115 77,-169 259,-169 259,-115 77,-115"/>
</g>
<!-- [ns&#45;0]stagger_holy_streets&#45;&gt;[ns&#45;0]finish -->
<g id="edge1" class="edge">
<title>[ns&#45;0]stagger_holy_streets:[ns&#45;0]stagger_holy_streets&#45;&gt;[ns&#45;0]finish:[ns&#45;0]finish</title>
<path fill="none" stroke="black" d="M168,-114.87C168,-104.7 168,-92.77 168,-81.41"/>
<polygon fill="black" stroke="black" points="171.5,-81.2 168,-71.2 164.5,-81.2 171.5,-81.2"/>
</g>
<!-- [ns&#45;0]arriving&#45;&gt;[ns&#45;0]stagger_holy_streets -->
<g id="edge2" class="edge">
<title>[ns&#45;0]arriving:[ns&#45;0]arriving&#45;&gt;[ns&#45;0]stagger_holy_streets:[ns&#45;0]stagger_holy_streets</title>
<path fill="none" stroke="black" d="M168,-212.64C168,-202.86 168,-190.76 168,-179.4"/>
<polygon fill="black" stroke="black" points="171.5,-179.26 168,-169.26 164.5,-179.26 171.5,-179.26"/>
</g>
</g>
</svg>
