<?xml version="1.0" encoding="UTF-8" standalone="no"?>
<!DOCTYPE svg PUBLIC "-//W3C//DTD SVG 1.1//EN"
 "http://www.w3.org/Graphics/SVG/1.1/DTD/svg11.dtd">
<!-- Generated by graphviz version 2.34.0 (20130907.0221)
 -->
<!-- Title: quest Pages: 1 -->
<svg width="244pt" height="384pt"
 viewBox="0.00 0.00 244.00 384.00" xmlns="http://www.w3.org/2000/svg" xmlns:xlink="http://www.w3.org/1999/xlink">
<g id="graph0" class="graph" transform="scale(1 1) rotate(0) translate(4 380)">
<title>quest</title>
<polygon fill="white" stroke="white" points="-4,4 -4,-380 240,-380 240,4 -4,4"/>
<!-- [ns&#45;0]start -->
<g id="node1" class="node"><title>[ns&#45;0]start</title>
<polygon fill="#eeeeee" stroke="none" points="48.5,-316.5 48.5,-371.5 187.5,-371.5 187.5,-316.5 48.5,-316.5"/>
<text text-anchor="start" x="51" y="-361.5" font-family="Times,serif" font-style="italic" font-size="10.00">[ns&#45;0]start</text>
<text text-anchor="start" x="129" y="-361.5" font-family="Times,serif" font-weight="bold" font-size="10.00">pilgrimage</text>
<text text-anchor="start" x="51" y="-347" font-family="Times,serif" font-size="10.00">Начало: посетить святой город</text>
<polygon fill="#dddddd" stroke="none" points="50,-330 50,-343 187,-343 187,-330 50,-330"/>
<text text-anchor="start" x="51" y="-335" font-family="Times,serif" font-size="10.00">hero </text>
<text text-anchor="start" x="72" y="-335" font-family="Times,serif" font-weight="bold" font-size="10.00">находится в</text>
<text text-anchor="start" x="127" y="-335" font-family="Times,serif" font-size="10.00"> place_1</text>
<polygon fill="#ffffff" stroke="none" points="50,-317 50,-330 187,-330 187,-317 50,-317"/>
<text text-anchor="start" x="51" y="-322" font-family="Times,serif" font-weight="bold" font-size="10.00">сообщение:</text>
<text text-anchor="start" x="103" y="-322" font-family="Times,serif" font-size="10.00"> intro</text>
<polygon fill="none" stroke="black" points="48.5,-316.5 48.5,-371.5 187.5,-371.5 187.5,-316.5 48.5,-316.5"/>
</g>
<!-- [ns&#45;0]arriving -->
<g id="node3" class="node"><title>[ns&#45;0]arriving</title>
<polygon fill="#ddffdd" stroke="none" points="56.5,-230 56.5,-272 179.5,-272 179.5,-230 56.5,-230"/>
<text text-anchor="start" x="59" y="-262.5" font-family="Times,serif" font-style="italic" font-size="10.00">[ns&#45;0]arriving</text>
<text text-anchor="start" x="59" y="-248" font-family="Times,serif" font-size="10.00">Прибытие в город</text>
<polygon fill="#cceecc" stroke="none" points="58,-231 58,-244 179,-244 179,-231 58,-231"/>
<text text-anchor="start" x="59" y="-236" font-family="Times,serif" font-size="10.00">hero </text>
<text text-anchor="start" x="80" y="-236" font-family="Times,serif" font-weight="bold" font-size="10.00">находится в</text>
<text text-anchor="start" x="135" y="-236" font-family="Times,serif" font-size="10.00"> place_10</text>
<polygon fill="none" stroke="black" points="56.5,-230 56.5,-272 179.5,-272 179.5,-230 56.5,-230"/>
</g>
<!-- [ns&#45;0]start&#45;&gt;[ns&#45;0]arriving -->
<g id="edge1" class="edge"><title>[ns&#45;0]start:[ns&#45;0]start&#45;&gt;[ns&#45;0]arriving:[ns&#45;0]arriving</title>
<path fill="none" stroke="black" d="M118,-316.189C118,-305.542 118,-293.241 118,-282.275"/>
<polygon fill="black" stroke="black" points="121.5,-282.266 118,-272.266 114.5,-282.267 121.5,-282.266"/>
</g>
<!-- [ns&#45;0]finish -->
<g id="node2" class="node"><title>[ns&#45;0]finish</title>
<polygon fill="#eeeeee" stroke="none" points="7.5,-4.5 7.5,-85.5 228.5,-85.5 228.5,-4.5 7.5,-4.5"/>
<text text-anchor="start" x="10" y="-75.5" font-family="Times,serif" font-style="italic" font-size="10.00">[ns&#45;0]finish</text>
<text text-anchor="start" x="10" y="-61" font-family="Times,serif" font-size="10.00">завершить посещение города</text>
<polygon fill="#ffffff" stroke="none" points="9,-44 9,-57 228,-57 228,-44 9,-44"/>
<text text-anchor="start" x="10" y="-49" font-family="Times,serif" font-weight="bold" font-size="10.00">выдать награду </text>
<text text-anchor="start" x="85" y="-49" font-family="Times,serif" font-size="10.00">  hero </text>
<text text-anchor="start" x="110" y="-49" font-family="Times,serif" font-weight="bold" font-size="10.00">типа </text>
<text text-anchor="start" x="134" y="-49" font-family="Times,serif" font-size="10.00"> finish </text>
<text text-anchor="start" x="162" y="-49" font-family="Times,serif" font-weight="bold" font-size="10.00">в размере</text>
<text text-anchor="start" x="205" y="-49" font-family="Times,serif" font-size="10.00"> 1.00</text>
<polygon fill="#ffffff" stroke="none" points="9,-31 9,-44 228,-44 228,-31 9,-31"/>
<text text-anchor="start" x="10" y="-36" font-family="Times,serif" font-weight="bold" font-size="10.00">увеличить влияние </text>
<text text-anchor="start" x="98" y="-36" font-family="Times,serif" font-size="10.00">  </text>
<text text-anchor="start" x="103" y="-36" font-family="Times,serif" font-size="10.00" fill="#000000">place_10</text>
<text text-anchor="start" x="141" y="-36" font-family="Times,serif" font-size="10.00"> </text>
<text text-anchor="start" x="144" y="-36" font-family="Times,serif" font-weight="bold" font-size="10.00">на </text>
<text text-anchor="start" x="157" y="-36" font-family="Times,serif" font-size="10.00"> 1.00</text>
<polygon fill="#eeeeee" stroke="none" points="9,-18 9,-31 228,-31 228,-18 9,-18"/>
<text text-anchor="start" x="10" y="-23" font-family="Times,serif" font-weight="bold" font-size="10.00">результаты:</text>
<text text-anchor="start" x="10" y="-10" font-family="Times,serif" font-weight="bold" font-size="10.00">place_10</text>
<text text-anchor="start" x="120" y="-9" font-family="Times,serif" font-size="10.00">successed</text>
<polygon fill="none" stroke="black" points="7.5,-4.5 7.5,-85.5 228.5,-85.5 228.5,-4.5 7.5,-4.5"/>
</g>
<!-- [ns&#45;0]stagger_holy_streets -->
<g id="node4" class="node"><title>[ns&#45;0]stagger_holy_streets</title>
<polygon fill="#ddffdd" stroke="none" points="24.5,-130.5 24.5,-185.5 211.5,-185.5 211.5,-130.5 24.5,-130.5"/>
<text text-anchor="start" x="27" y="-175.5" font-family="Times,serif" font-style="italic" font-size="10.00">[ns&#45;0]stagger_holy_streets</text>
<text text-anchor="start" x="27" y="-161" font-family="Times,serif" font-size="10.00">пошататься по улицам</text>
<polygon fill="#eeffee" stroke="none" points="26,-144 26,-157 211,-157 211,-144 26,-144"/>
<text text-anchor="start" x="27" y="-149" font-family="Times,serif" font-weight="bold" font-size="10.00">сообщение:</text>
<text text-anchor="start" x="79" y="-149" font-family="Times,serif" font-size="10.00"> stagger_holy_streets</text>
<polygon fill="#eeffee" stroke="none" points="26,-131 26,-144 211,-144 211,-131 26,-131"/>
<text text-anchor="start" x="27" y="-136" font-family="Times,serif" font-weight="bold" font-size="10.00">заняться </text>
<text text-anchor="start" x="70" y="-136" font-family="Times,serif" font-size="10.00">  stagger_holy_streets</text>
<polygon fill="none" stroke="black" points="24.5,-130.5 24.5,-185.5 211.5,-185.5 211.5,-130.5 24.5,-130.5"/>
</g>
<!-- [ns&#45;0]arriving&#45;&gt;[ns&#45;0]stagger_holy_streets -->
<g id="edge3" class="edge"><title>[ns&#45;0]arriving:[ns&#45;0]arriving&#45;&gt;[ns&#45;0]stagger_holy_streets:[ns&#45;0]stagger_holy_streets</title>
<path fill="none" stroke="black" d="M118,-229.804C118,-219.862 118,-207.556 118,-196.007"/>
<polygon fill="black" stroke="black" points="121.5,-195.703 118,-185.703 114.5,-195.703 121.5,-195.703"/>
</g>
<!-- [ns&#45;0]stagger_holy_streets&#45;&gt;[ns&#45;0]finish -->
<g id="edge2" class="edge"><title>[ns&#45;0]stagger_holy_streets:[ns&#45;0]stagger_holy_streets&#45;&gt;[ns&#45;0]finish:[ns&#45;0]finish</title>
<path fill="none" stroke="black" d="M118,-130.413C118,-120.095 118,-107.927 118,-96.0902"/>
<polygon fill="black" stroke="black" points="121.5,-95.8285 118,-85.8286 114.5,-95.8286 121.5,-95.8285"/>
</g>
</g>
</svg>
