<?xml version="1.0" encoding="UTF-8" standalone="no"?>
<!DOCTYPE svg PUBLIC "-//W3C//DTD SVG 1.1//EN"
 "http://www.w3.org/Graphics/SVG/1.1/DTD/svg11.dtd">
<!-- Generated by graphviz version 2.34.0 (20130907.0221)
 -->
<!-- Title: quest Pages: 1 -->
<svg width="716pt" height="70pt"
 viewBox="0.00 0.00 716.00 70.00" xmlns="http://www.w3.org/2000/svg" xmlns:xlink="http://www.w3.org/1999/xlink">
<g id="graph0" class="graph" transform="scale(1 1) rotate(0) translate(4 66)">
<title>quest</title>
<polygon fill="white" stroke="white" points="-4,4 -4,-66 712,-66 712,4 -4,4"/>
<!-- [ns&#45;0]finish -->
<g id="node1" class="node"><title>[ns&#45;0]finish</title>
<polygon fill="#eeeeee" stroke="none" points="532.5,-3.5 532.5,-58.5 699.5,-58.5 699.5,-3.5 532.5,-3.5"/>
<text text-anchor="start" x="535" y="-48.5" font-family="Times,serif" font-style="italic" font-size="10.00">[ns&#45;0]finish</text>
<text text-anchor="start" x="674" y="-48.5" font-family="Times,serif" font-weight="bold" font-size="10.00">finish</text>
<text text-anchor="start" x="535" y="-34" font-family="Times,serif" font-size="10.00">завершить задание</text>
<polygon fill="#ffffff" stroke="none" points="534,-17 534,-30 699,-30 699,-17 534,-17"/>
<text text-anchor="start" x="535" y="-22" font-family="Times,serif" font-weight="bold" font-size="10.00">сообщение:</text>
<text text-anchor="start" x="587" y="-22" font-family="Times,serif" font-size="10.00"> finish</text>
<polygon fill="#ffffff" stroke="none" points="534,-4 534,-17 699,-17 699,-4 534,-4"/>
<text text-anchor="start" x="535" y="-9" font-family="Times,serif" font-weight="bold" font-size="10.00">увеличить влияние </text>
<text text-anchor="start" x="623" y="-9" font-family="Times,serif" font-size="10.00">  place_2 </text>
<text text-anchor="start" x="663" y="-9" font-family="Times,serif" font-weight="bold" font-size="10.00">на </text>
<text text-anchor="start" x="676" y="-9" font-family="Times,serif" font-size="10.00"> 1.00</text>
<polygon fill="none" stroke="black" points="532.5,-3.5 532.5,-58.5 699.5,-58.5 699.5,-3.5 532.5,-3.5"/>
</g>
<!-- [ns&#45;0]upgrade -->
<g id="node2" class="node"><title>[ns&#45;0]upgrade</title>
<polygon fill="#ddffdd" stroke="none" points="360.5,-3.5 360.5,-58.5 479.5,-58.5 479.5,-3.5 360.5,-3.5"/>
<text text-anchor="start" x="363" y="-48.5" font-family="Times,serif" font-style="italic" font-size="10.00">[ns&#45;0]upgrade</text>
<text text-anchor="start" x="363" y="-34" font-family="Times,serif" font-size="10.00">Обновление экипировки</text>
<polygon fill="#eeffee" stroke="none" points="362,-17 362,-30 479,-30 479,-17 362,-17"/>
<text text-anchor="start" x="363" y="-22" font-family="Times,serif" font-weight="bold" font-size="10.00">сообщение:</text>
<text text-anchor="start" x="415" y="-22" font-family="Times,serif" font-size="10.00"> upgrade</text>
<polygon fill="#eeffee" stroke="none" points="362,-4 362,-17 479,-17 479,-4 362,-4"/>
<text text-anchor="start" x="363" y="-8" font-family="Times,serif" font-size="10.00">None</text>
<polygon fill="none" stroke="black" points="360.5,-3.5 360.5,-58.5 479.5,-58.5 479.5,-3.5 360.5,-3.5"/>
</g>
<!-- [ns&#45;0]upgrade&#45;&gt;[ns&#45;0]finish -->
<g id="edge3" class="edge"><title>[ns&#45;0]upgrade:[ns&#45;0]upgrade&#45;&gt;[ns&#45;0]finish:[ns&#45;0]finish</title>
<path fill="none" stroke="black" d="M479.605,-31C479.605,-31 522.481,-31 522.481,-31"/>
<polygon fill="black" stroke="black" points="522.481,-34.5001 532.481,-31 522.481,-27.5001 522.481,-34.5001"/>
</g>
<!-- [ns&#45;0]arriving -->
<g id="node3" class="node"><title>[ns&#45;0]arriving</title>
<polygon fill="#ddffdd" stroke="none" points="186.5,-10 186.5,-52 307.5,-52 307.5,-10 186.5,-10"/>
<text text-anchor="start" x="189" y="-42.5" font-family="Times,serif" font-style="italic" font-size="10.00">[ns&#45;0]arriving</text>
<text text-anchor="start" x="189" y="-28" font-family="Times,serif" font-size="10.00">Прибытие в город</text>
<polygon fill="#cceecc" stroke="none" points="188,-11 188,-24 307,-24 307,-11 188,-11"/>
<text text-anchor="start" x="189" y="-16" font-family="Times,serif" font-size="10.00">hero </text>
<text text-anchor="start" x="210" y="-16" font-family="Times,serif" font-weight="bold" font-size="10.00">находится в</text>
<text text-anchor="start" x="265" y="-16" font-family="Times,serif" font-size="10.00"> place_2</text>
<polygon fill="none" stroke="black" points="186.5,-10 186.5,-52 307.5,-52 307.5,-10 186.5,-10"/>
</g>
<!-- [ns&#45;0]arriving&#45;&gt;[ns&#45;0]upgrade -->
<g id="edge2" class="edge"><title>[ns&#45;0]arriving:[ns&#45;0]arriving&#45;&gt;[ns&#45;0]upgrade:[ns&#45;0]upgrade</title>
<path fill="none" stroke="black" d="M307.507,-31C307.507,-31 350.403,-31 350.403,-31"/>
<polygon fill="black" stroke="black" points="350.403,-34.5001 360.403,-31 350.403,-27.5001 350.403,-34.5001"/>
</g>
<!-- [ns&#45;0]start -->
<g id="node4" class="node"><title>[ns&#45;0]start</title>
<polygon fill="#eeeeee" stroke="none" points="8.5,-3.5 8.5,-58.5 133.5,-58.5 133.5,-3.5 8.5,-3.5"/>
<text text-anchor="start" x="11" y="-48.5" font-family="Times,serif" font-style="italic" font-size="10.00">[ns&#45;0]start</text>
<text text-anchor="start" x="75" y="-48.5" font-family="Times,serif" font-weight="bold" font-size="10.00">search_smith</text>
<text text-anchor="start" x="11" y="-34" font-family="Times,serif" font-size="10.00">Начало: посещение кузнеца</text>
<polygon fill="#dddddd" stroke="none" points="10,-17 10,-30 133,-30 133,-17 10,-17"/>
<text text-anchor="start" x="11" y="-22" font-family="Times,serif" font-size="10.00">hero </text>
<text text-anchor="start" x="32" y="-22" font-family="Times,serif" font-weight="bold" font-size="10.00">находится в</text>
<text text-anchor="start" x="87" y="-22" font-family="Times,serif" font-size="10.00"> place_1</text>
<polygon fill="#ffffff" stroke="none" points="10,-4 10,-17 133,-17 133,-4 10,-4"/>
<text text-anchor="start" x="11" y="-9" font-family="Times,serif" font-weight="bold" font-size="10.00">сообщение:</text>
<text text-anchor="start" x="63" y="-9" font-family="Times,serif" font-size="10.00"> intro</text>
<polygon fill="none" stroke="black" points="8.5,-3.5 8.5,-58.5 133.5,-58.5 133.5,-3.5 8.5,-3.5"/>
</g>
<!-- [ns&#45;0]start&#45;&gt;[ns&#45;0]arriving -->
<g id="edge1" class="edge"><title>[ns&#45;0]start:[ns&#45;0]start&#45;&gt;[ns&#45;0]arriving:[ns&#45;0]arriving</title>
<path fill="none" stroke="black" d="M133.547,-31C133.547,-31 176.427,-31 176.427,-31"/>
<polygon fill="black" stroke="black" points="176.427,-34.5001 186.427,-31 176.427,-27.5001 176.427,-34.5001"/>
</g>
</g>
</svg>
