<?xml version="1.0" encoding="UTF-8" standalone="no"?>
<!DOCTYPE svg PUBLIC "-//W3C//DTD SVG 1.1//EN"
 "http://www.w3.org/Graphics/SVG/1.1/DTD/svg11.dtd">
<!-- Generated by graphviz version 2.34.0 (20130907.0221)
 -->
<!-- Title: quest Pages: 1 -->
<svg width="232pt" height="344pt"
 viewBox="0.00 0.00 232.00 344.00" xmlns="http://www.w3.org/2000/svg" xmlns:xlink="http://www.w3.org/1999/xlink">
<g id="graph0" class="graph" transform="scale(1 1) rotate(0) translate(4 340)">
<title>quest</title>
<polygon fill="white" stroke="white" points="-4,4 -4,-340 228,-340 228,4 -4,4"/>
<!-- [ns&#45;0]start -->
<g id="node1" class="node"><title>[ns&#45;0]start</title>
<polygon fill="#eeeeee" stroke="none" points="49.5,-276.5 49.5,-331.5 174.5,-331.5 174.5,-276.5 49.5,-276.5"/>
<text text-anchor="start" x="52" y="-321.5" font-family="Times,serif" font-style="italic" font-size="10.00">[ns&#45;0]start</text>
<text text-anchor="start" x="115" y="-321.5" font-family="Times,serif" font-weight="bold" font-size="10.00">search_smith</text>
<text text-anchor="start" x="52" y="-307" font-family="Times,serif" font-size="10.00">Начало: посещение кузнеца</text>
<polygon fill="#dddddd" stroke="none" points="51,-290 51,-303 174,-303 174,-290 51,-290"/>
<text text-anchor="start" x="52" y="-295" font-family="Times,serif" font-size="10.00">hero </text>
<text text-anchor="start" x="73" y="-295" font-family="Times,serif" font-weight="bold" font-size="10.00">находится в</text>
<text text-anchor="start" x="128" y="-295" font-family="Times,serif" font-size="10.00"> place_1</text>
<polygon fill="#ffffff" stroke="none" points="51,-277 51,-290 174,-290 174,-277 51,-277"/>
<text text-anchor="start" x="52" y="-282" font-family="Times,serif" font-weight="bold" font-size="10.00">сообщение:</text>
<text text-anchor="start" x="104" y="-282" font-family="Times,serif" font-size="10.00"> intro</text>
<polygon fill="none" stroke="black" points="49.5,-276.5 49.5,-331.5 174.5,-331.5 174.5,-276.5 49.5,-276.5"/>
</g>
<!-- [ns&#45;0]arriving -->
<g id="node4" class="node"><title>[ns&#45;0]arriving</title>
<polygon fill="#ddffdd" stroke="none" points="42,-190 42,-232 182,-232 182,-190 42,-190"/>
<text text-anchor="start" x="44" y="-222.5" font-family="Times,serif" font-style="italic" font-size="10.00">[ns&#45;0]arriving</text>
<text text-anchor="start" x="44" y="-208" font-family="Times,serif" font-size="10.00">Прибытие в город</text>
<polygon fill="#cceecc" stroke="none" points="43,-191 43,-204 181,-204 181,-191 43,-191"/>
<text text-anchor="start" x="44" y="-196" font-family="Times,serif" font-size="10.00">hero </text>
<text text-anchor="start" x="65" y="-196" font-family="Times,serif" font-weight="bold" font-size="10.00">находится в</text>
<text text-anchor="start" x="120" y="-196" font-family="Times,serif" font-size="10.00"> place_2</text>
<polygon fill="none" stroke="black" points="42,-190 42,-232 182,-232 182,-190 42,-190"/>
</g>
<!-- [ns&#45;0]start&#45;&gt;[ns&#45;0]arriving -->
<g id="edge2" class="edge"><title>[ns&#45;0]start:[ns&#45;0]start&#45;&gt;[ns&#45;0]arriving:[ns&#45;0]arriving</title>
<path fill="none" stroke="black" d="M112,-276.189C112,-265.542 112,-253.241 112,-242.275"/>
<polygon fill="black" stroke="black" points="115.5,-242.266 112,-232.266 108.5,-242.267 115.5,-242.266"/>
</g>
<!-- [ns&#45;0]finish -->
<g id="node2" class="node"><title>[ns&#45;0]finish</title>
<polygon fill="#eeeeee" stroke="none" points="7.5,-4.5 7.5,-59.5 216.5,-59.5 216.5,-4.5 7.5,-4.5"/>
<text text-anchor="start" x="10" y="-49.5" font-family="Times,serif" font-style="italic" font-size="10.00">[ns&#45;0]finish</text>
<text text-anchor="start" x="121" y="-49.5" font-family="Times,serif" font-weight="bold" font-size="10.00">finish</text>
<text text-anchor="start" x="175" y="-49.5" font-family="Times,serif" font-weight="bold" font-size="10.00">successed</text>
<text text-anchor="start" x="10" y="-35" font-family="Times,serif" font-size="10.00">завершить задание</text>
<polygon fill="#ffffff" stroke="none" points="9,-18 9,-31 174,-31 174,-18 9,-18"/>
<text text-anchor="start" x="10" y="-23" font-family="Times,serif" font-weight="bold" font-size="10.00">сообщение:</text>
<text text-anchor="start" x="62" y="-23" font-family="Times,serif" font-size="10.00"> finish</text>
<polygon fill="#ffffff" stroke="none" points="9,-5 9,-18 174,-18 174,-5 9,-5"/>
<text text-anchor="start" x="10" y="-10" font-family="Times,serif" font-weight="bold" font-size="10.00">увеличить влияние </text>
<text text-anchor="start" x="98" y="-10" font-family="Times,serif" font-size="10.00">  place_2 </text>
<text text-anchor="start" x="138" y="-10" font-family="Times,serif" font-weight="bold" font-size="10.00">на </text>
<text text-anchor="start" x="151" y="-10" font-family="Times,serif" font-size="10.00"> 1.00</text>
<polygon fill="none" stroke="black" points="7.5,-4.5 7.5,-59.5 216.5,-59.5 216.5,-4.5 7.5,-4.5"/>
</g>
<!-- [ns&#45;0]upgrade -->
<g id="node3" class="node"><title>[ns&#45;0]upgrade</title>
<polygon fill="#ddffdd" stroke="none" points="50,-104 50,-146 174,-146 174,-104 50,-104"/>
<text text-anchor="start" x="52" y="-136.5" font-family="Times,serif" font-style="italic" font-size="10.00">[ns&#45;0]upgrade</text>
<text text-anchor="start" x="52" y="-122" font-family="Times,serif" font-size="10.00">Обновление экипировки</text>
<polygon fill="#eeffee" stroke="none" points="51,-105 51,-118 173,-118 173,-105 51,-105"/>
<text text-anchor="start" x="52" y="-109" font-family="Times,serif" font-size="10.00">None</text>
<polygon fill="none" stroke="black" points="50,-104 50,-146 174,-146 174,-104 50,-104"/>
</g>
<!-- [ns&#45;0]upgrade&#45;&gt;[ns&#45;0]finish -->
<g id="edge3" class="edge"><title>[ns&#45;0]upgrade:[ns&#45;0]upgrade&#45;&gt;[ns&#45;0]finish:[ns&#45;0]finish</title>
<path fill="none" stroke="black" d="M112,-103.804C112,-93.8619 112,-81.5562 112,-70.0073"/>
<polygon fill="black" stroke="black" points="115.5,-69.7034 112,-59.7035 108.5,-69.7035 115.5,-69.7034"/>
</g>
<!-- [ns&#45;0]arriving&#45;&gt;[ns&#45;0]upgrade -->
<g id="edge1" class="edge"><title>[ns&#45;0]arriving:[ns&#45;0]arriving&#45;&gt;[ns&#45;0]upgrade:[ns&#45;0]upgrade</title>
<path fill="none" stroke="black" d="M112,-189.666C112,-179.658 112,-167.389 112,-156.302"/>
<polygon fill="black" stroke="black" points="115.5,-156.147 112,-146.147 108.5,-156.147 115.5,-156.147"/>
</g>
</g>
</svg>
