<?xml version="1.0" encoding="UTF-8" standalone="no"?>
<!DOCTYPE svg PUBLIC "-//W3C//DTD SVG 1.1//EN"
 "http://www.w3.org/Graphics/SVG/1.1/DTD/svg11.dtd">
<!-- Generated by graphviz version 2.43.0 (0)
 -->
<!-- Title: quest Pages: 1 -->
<svg width="627pt" height="759pt"
 viewBox="0.00 0.00 626.50 759.00" xmlns="http://www.w3.org/2000/svg" xmlns:xlink="http://www.w3.org/1999/xlink">
<g id="graph0" class="graph" transform="scale(1 1) rotate(0) translate(4 755)">
<title>quest</title>
<polygon fill="white" stroke="transparent" points="-4,4 -4,-755 622.5,-755 622.5,4 -4,4"/>
<g id="clust1" class="cluster">
<title>cluster_[ns&#45;0]help_subquest</title>
<polygon fill="#96ffff" stroke="black" points="8,-252 8,-488 401,-488 401,-252 8,-252"/>
<text text-anchor="middle" x="204.5" y="-472.8" font-family="Times,serif" font-size="14.00">cluster_[ns&#45;0]help_subquest</text>
</g>
<g id="clust2" class="cluster">
<title>cluster_[ns&#45;1]event</title>
<polygon fill="#ffffdd" stroke="black" points="16,-260 16,-400 393,-400 393,-260 16,-260"/>
<text text-anchor="middle" x="204.5" y="-384.8" font-family="Times,serif" font-size="14.00">cluster_[ns&#45;1]event</text>
</g>
<!-- [ns&#45;1]start -->
<g id="node1" class="node">
<title>[ns&#45;1]start</title>
<polygon fill="#eeeeee" stroke="transparent" points="248.5,-425 248.5,-453 377.5,-453 377.5,-425 248.5,-425"/>
<text text-anchor="start" x="251" y="-444" font-family="Times,serif" font-style="italic" font-size="10.00">[ns&#45;1]start</text>
<text text-anchor="start" x="330.5" y="-444" font-family="Times,serif" font-weight="bold" font-size="10.00">simple</text>
<text text-anchor="start" x="251" y="-430" font-family="Times,serif" font-size="10.00">Start: the simplest quest</text>
<polygon fill="none" stroke="black" points="248.5,-425 248.5,-453 377.5,-453 377.5,-425 248.5,-425"/>
</g>
<!-- [ns&#45;1]finish_successed -->
<g id="node6" class="node">
<title>[ns&#45;1]finish_successed</title>
<polygon fill="#eeeeee" stroke="transparent" points="32.5,-272 32.5,-365 205.5,-365 205.5,-272 32.5,-272"/>
<text text-anchor="start" x="35" y="-355.5" font-family="Times,serif" font-style="italic" font-size="10.00">[ns&#45;1]finish_successed</text>
<text text-anchor="start" x="35" y="-341.5" font-family="Times,serif" font-size="10.00">complete the quest successfully</text>
<polygon fill="#eeeeee" stroke="transparent" points="34,-324.5 34,-337.5 205,-337.5 205,-324.5 34,-324.5"/>
<text text-anchor="start" x="35" y="-329.5" font-family="Times,serif" font-weight="bold" font-size="10.00">results:</text>
<text text-anchor="start" x="35" y="-316.5" font-family="Times,serif" font-weight="bold" font-size="10.00">person_2</text>
<text text-anchor="start" x="152" y="-315.5" font-family="Times,serif" font-size="10.00">successed</text>
<text text-anchor="start" x="35" y="-303.5" font-family="Times,serif" font-weight="bold" font-size="10.00">person_3</text>
<text text-anchor="start" x="152" y="-302.5" font-family="Times,serif" font-size="10.00">successed</text>
<text text-anchor="start" x="35" y="-290.5" font-family="Times,serif" font-weight="bold" font-size="10.00">place_2</text>
<text text-anchor="start" x="152" y="-289.5" font-family="Times,serif" font-size="10.00">successed</text>
<text text-anchor="start" x="35" y="-277.5" font-family="Times,serif" font-weight="bold" font-size="10.00">place_3</text>
<text text-anchor="start" x="152" y="-276.5" font-family="Times,serif" font-size="10.00">successed</text>
<polygon fill="none" stroke="black" points="32.5,-272 32.5,-365 205.5,-365 205.5,-272 32.5,-272"/>
</g>
<!-- [ns&#45;1]start&#45;&gt;[ns&#45;1]finish_successed -->
<g id="edge2" class="edge">
<title>[ns&#45;1]start:[ns&#45;1]start&#45;&gt;[ns&#45;1]finish_successed:[ns&#45;1]finish_successed</title>
<path fill="none" stroke="black" d="M275.61,-424.99C258.73,-418.47 238.85,-409.86 222,-400 207.81,-391.69 193.4,-381.64 180.03,-371.49"/>
<polygon fill="black" stroke="black" points="181.9,-368.52 171.85,-365.18 177.63,-374.06 181.9,-368.52"/>
</g>
<!-- [ns&#45;1]finish_failed -->
<g id="node8" class="node">
<title>[ns&#45;1]finish_failed</title>
<polygon fill="#eeeeee" stroke="transparent" points="239.5,-272 239.5,-365 376.5,-365 376.5,-272 239.5,-272"/>
<text text-anchor="start" x="242" y="-355.5" font-family="Times,serif" font-style="italic" font-size="10.00">[ns&#45;1]finish_failed</text>
<text text-anchor="start" x="242" y="-341.5" font-family="Times,serif" font-size="10.00">complete the quest poorly</text>
<polygon fill="#eeeeee" stroke="transparent" points="241,-324.5 241,-337.5 376,-337.5 376,-324.5 241,-324.5"/>
<text text-anchor="start" x="242" y="-329.5" font-family="Times,serif" font-weight="bold" font-size="10.00">results:</text>
<text text-anchor="start" x="242" y="-316.5" font-family="Times,serif" font-weight="bold" font-size="10.00">person_2</text>
<text text-anchor="start" x="341" y="-315.5" font-family="Times,serif" font-size="10.00">failed</text>
<text text-anchor="start" x="242" y="-303.5" font-family="Times,serif" font-weight="bold" font-size="10.00">person_3</text>
<text text-anchor="start" x="341" y="-302.5" font-family="Times,serif" font-size="10.00">failed</text>
<text text-anchor="start" x="242" y="-290.5" font-family="Times,serif" font-weight="bold" font-size="10.00">place_2</text>
<text text-anchor="start" x="341" y="-289.5" font-family="Times,serif" font-size="10.00">failed</text>
<text text-anchor="start" x="242" y="-277.5" font-family="Times,serif" font-weight="bold" font-size="10.00">place_3</text>
<text text-anchor="start" x="341" y="-276.5" font-family="Times,serif" font-size="10.00">failed</text>
<polygon fill="none" stroke="black" points="239.5,-272 239.5,-365 376.5,-365 376.5,-272 239.5,-272"/>
</g>
<!-- [ns&#45;1]start&#45;&gt;[ns&#45;1]finish_failed -->
<g id="edge8" class="edge">
<title>[ns&#45;1]start:[ns&#45;1]start&#45;&gt;[ns&#45;1]finish_failed:[ns&#45;1]finish_failed</title>
<path fill="none" stroke="black" d="M312.45,-424.87C311.93,-412.71 311.13,-393.79 310.35,-375.31"/>
<polygon fill="black" stroke="black" points="313.84,-374.98 309.93,-365.14 306.85,-375.28 313.84,-374.98"/>
</g>
<!-- [ns&#45;0]upgrade_for_quest -->
<g id="node2" class="node">
<title>[ns&#45;0]upgrade_for_quest</title>
<polygon fill="#ddffdd" stroke="transparent" points="36,-102 36,-156 202,-156 202,-102 36,-102"/>
<text text-anchor="start" x="38" y="-147" font-family="Times,serif" font-style="italic" font-size="10.00">[ns&#45;0]upgrade_for_quest</text>
<text text-anchor="start" x="38" y="-133" font-family="Times,serif" font-size="10.00">Upgrade equipment for a quest</text>
<polygon fill="#cceecc" stroke="transparent" points="37,-116 37,-129 201,-129 201,-116 37,-116"/>
<text text-anchor="start" x="38" y="-121" font-family="Times,serif" font-size="10.00">hero </text>
<text text-anchor="start" x="65" y="-121" font-family="Times,serif" font-weight="bold" font-size="10.00">is located in</text>
<text text-anchor="start" x="135" y="-121" font-family="Times,serif" font-size="10.00"> place_2</text>
<polygon fill="#eeffee" stroke="transparent" points="37,-103 37,-116 201,-116 201,-103 37,-103"/>
<text text-anchor="start" x="38" y="-108" font-family="Times,serif" font-weight="bold" font-size="10.00">upgrade equipment for free</text>
<polygon fill="none" stroke="black" points="36,-102 36,-156 202,-156 202,-102 36,-102"/>
</g>
<!-- [ns&#45;0]finish_successed -->
<g id="node3" class="node">
<title>[ns&#45;0]finish_successed</title>
<polygon fill="#eeeeee" stroke="transparent" points="193.5,-4 193.5,-58 366.5,-58 366.5,-4 193.5,-4"/>
<text text-anchor="start" x="196" y="-49" font-family="Times,serif" font-style="italic" font-size="10.00">[ns&#45;0]finish_successed</text>
<text text-anchor="start" x="196" y="-35" font-family="Times,serif" font-size="10.00">complete the task</text>
<polygon fill="#eeeeee" stroke="transparent" points="195,-18 195,-31 366,-31 366,-18 195,-18"/>
<text text-anchor="start" x="196" y="-23" font-family="Times,serif" font-weight="bold" font-size="10.00">results:</text>
<text text-anchor="start" x="196" y="-10" font-family="Times,serif" font-weight="bold" font-size="10.00">person_2</text>
<text text-anchor="start" x="313" y="-9" font-family="Times,serif" font-size="10.00">successed</text>
<polygon fill="none" stroke="black" points="193.5,-4 193.5,-58 366.5,-58 366.5,-4 193.5,-4"/>
</g>
<!-- [ns&#45;0]upgrade_for_quest&#45;&gt;[ns&#45;0]finish_successed -->
<g id="edge9" class="edge">
<title>[ns&#45;0]upgrade_for_quest:[ns&#45;0]upgrade_for_quest&#45;&gt;[ns&#45;0]finish_successed:[ns&#45;0]finish_successed</title>
<path fill="none" stroke="black" d="M162.99,-101.77C182.95,-89.87 206.71,-75.7 227.59,-63.25"/>
<polygon fill="black" stroke="black" points="229.54,-66.16 236.34,-58.03 225.96,-60.15 229.54,-66.16"/>
</g>
<!-- [ns&#45;0]start_search_smith -->
<g id="node4" class="node">
<title>[ns&#45;0]start_search_smith</title>
<polygon fill="#eeeeee" stroke="transparent" points="311,-693 311,-747 519,-747 519,-693 311,-693"/>
<text text-anchor="start" x="313" y="-738" font-family="Times,serif" font-style="italic" font-size="10.00">[ns&#45;0]start_search_smith</text>
<text text-anchor="start" x="441" y="-738" font-family="Times,serif" font-weight="bold" font-size="10.00">search_smith</text>
<text text-anchor="start" x="313" y="-724" font-family="Times,serif" font-size="10.00">Start: visit the blacksmith</text>
<polygon fill="#dddddd" stroke="transparent" points="312,-707 312,-720 518,-720 518,-707 312,-707"/>
<text text-anchor="start" x="313" y="-712" font-family="Times,serif" font-size="10.00">hero </text>
<text text-anchor="start" x="340" y="-712" font-family="Times,serif" font-weight="bold" font-size="10.00">is located in</text>
<text text-anchor="start" x="410" y="-712" font-family="Times,serif" font-size="10.00"> place_1</text>
<polygon fill="#ffffff" stroke="transparent" points="312,-694 312,-707 518,-707 518,-694 312,-694"/>
<text text-anchor="start" x="313" y="-699" font-family="Times,serif" font-weight="bold" font-size="10.00">message:</text>
<text text-anchor="start" x="365" y="-699" font-family="Times,serif" font-size="10.00"> intro</text>
<polygon fill="none" stroke="black" points="311,-693 311,-747 519,-747 519,-693 311,-693"/>
</g>
<!-- [ns&#45;0]arriving -->
<g id="node9" class="node">
<title>[ns&#45;0]arriving</title>
<polygon fill="#ffdddd" stroke="transparent" points="323,-582 323,-649 507,-649 507,-582 323,-582"/>
<text text-anchor="start" x="325" y="-639.5" font-family="Times,serif" font-style="italic" font-size="10.00">[ns&#45;0]arriving</text>
<text text-anchor="start" x="325" y="-625.5" font-family="Times,serif" font-size="10.00">Arriving in the city</text>
<polygon fill="#eecccc" stroke="transparent" points="324,-608.5 324,-621.5 506,-621.5 506,-608.5 324,-608.5"/>
<text text-anchor="start" x="325" y="-613.5" font-family="Times,serif" font-size="10.00">hero </text>
<text text-anchor="start" x="352" y="-613.5" font-family="Times,serif" font-weight="bold" font-size="10.00">is located in</text>
<text text-anchor="start" x="422" y="-613.5" font-family="Times,serif" font-size="10.00"> place_2</text>
<polygon fill="#ffdddd" stroke="transparent" points="324,-595.5 324,-608.5 506,-608.5 506,-595.5 324,-595.5"/>
<text text-anchor="start" x="325" y="-600.5" font-family="Times,serif" font-weight="bold" font-size="10.00">conditions:</text>
<text text-anchor="start" x="325" y="-587.5" font-family="Times,serif" font-weight="bold" font-size="10.00">if </text>
<polygon fill="#ffdddd" stroke="transparent" points="396,-582.5 396,-595.5 506,-595.5 506,-582.5 396,-582.5"/>
<text text-anchor="start" x="397" y="-587.5" font-family="Times,serif" font-size="10.00">hero </text>
<text text-anchor="start" x="424" y="-587.5" font-family="Times,serif" font-weight="bold" font-size="10.00">has </text>
<text text-anchor="start" x="449" y="-587.5" font-family="Times,serif" font-size="10.00"> 777 </text>
<text text-anchor="start" x="474" y="-587.5" font-family="Times,serif" font-weight="bold" font-size="10.00">coins</text>
<polygon fill="none" stroke="black" points="323,-582 323,-649 507,-649 507,-582 323,-582"/>
</g>
<!-- [ns&#45;0]start_search_smith&#45;&gt;[ns&#45;0]arriving -->
<g id="edge3" class="edge">
<title>[ns&#45;0]start_search_smith:[ns&#45;0]start_search_smith&#45;&gt;[ns&#45;0]arriving:[ns&#45;0]arriving</title>
<path fill="none" stroke="black" d="M415,-692.87C415,-682.7 415,-670.77 415,-659.41"/>
<polygon fill="black" stroke="black" points="418.5,-659.2 415,-649.2 411.5,-659.2 418.5,-659.2"/>
</g>
<!-- [ns&#45;0]upgrade_for_money -->
<g id="node5" class="node">
<title>[ns&#45;0]upgrade_for_money</title>
<polygon fill="#ddffdd" stroke="transparent" points="417.5,-412 417.5,-466 610.5,-466 610.5,-412 417.5,-412"/>
<text text-anchor="start" x="420" y="-457" font-family="Times,serif" font-style="italic" font-size="10.00">[ns&#45;0]upgrade_for_money</text>
<text text-anchor="start" x="420" y="-443" font-family="Times,serif" font-size="10.00">Upgrade equipment for money</text>
<polygon fill="#cceecc" stroke="transparent" points="419,-426 419,-439 610,-439 610,-426 419,-426"/>
<text text-anchor="start" x="420" y="-431" font-family="Times,serif" font-size="10.00">hero </text>
<text text-anchor="start" x="447" y="-431" font-family="Times,serif" font-weight="bold" font-size="10.00">is located in</text>
<text text-anchor="start" x="517" y="-431" font-family="Times,serif" font-size="10.00"> place_2</text>
<polygon fill="#eeffee" stroke="transparent" points="419,-413 419,-426 610,-426 610,-413 419,-413"/>
<text text-anchor="start" x="420" y="-418" font-family="Times,serif" font-weight="bold" font-size="10.00">upgrade equipment for </text>
<text text-anchor="start" x="553" y="-418" font-family="Times,serif" font-size="10.00"> 777 </text>
<text text-anchor="start" x="578" y="-418" font-family="Times,serif" font-weight="bold" font-size="10.00">coins</text>
<polygon fill="none" stroke="black" points="417.5,-412 417.5,-466 610.5,-466 610.5,-412 417.5,-412"/>
</g>
<!-- [ns&#45;0]upgrade_for_money&#45;&gt;[ns&#45;0]finish_successed -->
<g id="edge1" class="edge">
<title>[ns&#45;0]upgrade_for_money:[ns&#45;0]upgrade_for_money&#45;&gt;[ns&#45;0]finish_successed:[ns&#45;0]finish_successed</title>
<path fill="none" stroke="black" d="M514.17,-411.6C513.2,-349.52 502.51,-192.41 423,-98 410.33,-82.95 393.48,-71.15 375.81,-61.95"/>
<polygon fill="black" stroke="black" points="377.02,-58.65 366.51,-57.38 373.93,-64.93 377.02,-58.65"/>
</g>
<!-- #jump([ns&#45;1]finish_successed, [ns&#45;0]upgrade_for_quest) -->
<g id="node11" class="node">
<title>#jump([ns&#45;1]finish_successed, [ns&#45;0]upgrade_for_quest)</title>
<polygon fill="#eeeeee" stroke="transparent" points="48,-207 48,-220 191,-220 191,-207 48,-207"/>
<text text-anchor="start" x="49" y="-212" font-family="Times,serif" font-weight="bold" font-size="10.00">message:</text>
<text text-anchor="start" x="101" y="-212" font-family="Times,serif" font-size="10.00"> quest_successed</text>
</g>
<!-- [ns&#45;1]finish_successed&#45;&gt;#jump([ns&#45;1]finish_successed, [ns&#45;0]upgrade_for_quest) -->
<g id="edge6" class="edge">
<title>[ns&#45;1]finish_successed:[ns&#45;1]finish_successed&#45;&gt;#jump([ns&#45;1]finish_successed, [ns&#45;0]upgrade_for_quest):#jump([ns&#45;1]finish_successed, [ns&#45;0]upgrade_for_quest)</title>
<path fill="none" stroke="black" d="M119,-271.95C119,-251.84 119,-230.55 119,-220.66"/>
</g>
<!-- [ns&#45;0]finish_quest_failed -->
<g id="node7" class="node">
<title>[ns&#45;0]finish_quest_failed</title>
<polygon fill="#eeeeee" stroke="transparent" points="236.5,-102 236.5,-156 405.5,-156 405.5,-102 236.5,-102"/>
<text text-anchor="start" x="239" y="-147" font-family="Times,serif" font-style="italic" font-size="10.00">[ns&#45;0]finish_quest_failed</text>
<text text-anchor="start" x="239" y="-133" font-family="Times,serif" font-size="10.00">complete the task</text>
<polygon fill="#eeeeee" stroke="transparent" points="238,-116 238,-129 405,-129 405,-116 238,-116"/>
<text text-anchor="start" x="239" y="-121" font-family="Times,serif" font-weight="bold" font-size="10.00">results:</text>
<text text-anchor="start" x="239" y="-108" font-family="Times,serif" font-weight="bold" font-size="10.00">person_2</text>
<text text-anchor="start" x="367" y="-107" font-family="Times,serif" font-size="10.00">neutral</text>
<polygon fill="none" stroke="black" points="236.5,-102 236.5,-156 405.5,-156 405.5,-102 236.5,-102"/>
</g>
<!-- #jump([ns&#45;1]finish_failed, [ns&#45;0]finish_quest_failed) -->
<g id="node13" class="node">
<title>#jump([ns&#45;1]finish_failed, [ns&#45;0]finish_quest_failed)</title>
<polygon fill="#eeeeee" stroke="transparent" points="254,-207 254,-220 374,-220 374,-207 254,-207"/>
<text text-anchor="start" x="255" y="-212" font-family="Times,serif" font-weight="bold" font-size="10.00">message:</text>
<text text-anchor="start" x="307" y="-212" font-family="Times,serif" font-size="10.00"> quest_failed</text>
</g>
<!-- [ns&#45;1]finish_failed&#45;&gt;#jump([ns&#45;1]finish_failed, [ns&#45;0]finish_quest_failed) -->
<g id="edge12" class="edge">
<title>[ns&#45;1]finish_failed:[ns&#45;1]finish_failed&#45;&gt;#jump([ns&#45;1]finish_failed, [ns&#45;0]finish_quest_failed):#jump([ns&#45;1]finish_failed, [ns&#45;0]finish_quest_failed)</title>
<path fill="none" stroke="black" d="M310.67,-271.95C311.84,-251.84 313.09,-230.55 313.67,-220.66"/>
</g>
<!-- #answer(True, [ns&#45;0]arriving, [ns&#45;0]upgrade_for_money) -->
<g id="node10" class="node">
<title>#answer(True, [ns&#45;0]arriving, [ns&#45;0]upgrade_for_money)</title>
<polygon fill="#ffffff" stroke="transparent" points="479,-517 479,-530 512,-530 512,-517 479,-517"/>
<text text-anchor="start" x="480" y="-521" font-family="Times,serif" font-size="10.00">TRUE</text>
</g>
<!-- [ns&#45;0]arriving&#45;&gt;#answer(True, [ns&#45;0]arriving, [ns&#45;0]upgrade_for_money) -->
<g id="edge4" class="edge">
<title>[ns&#45;0]arriving:[ns&#45;0]arriving&#45;&gt;#answer(True, [ns&#45;0]arriving, [ns&#45;0]upgrade_for_money):#answer(True, [ns&#45;0]arriving, [ns&#45;0]upgrade_for_money)</title>
<path fill="none" stroke="black" d="M444.11,-581.94C461.08,-562.94 480.9,-540.78 489.98,-530.61"/>
</g>
<!-- #answer(False, [ns&#45;0]arriving, [ns&#45;1]start) -->
<g id="node12" class="node">
<title>#answer(False, [ns&#45;0]arriving, [ns&#45;1]start)</title>
<polygon fill="#ffffff" stroke="transparent" points="303,-524 303,-537 418,-537 418,-524 303,-524"/>
<text text-anchor="start" x="304" y="-528" font-family="Times,serif" font-size="10.00">FALSE</text>
<polygon fill="#eeeeee" stroke="transparent" points="303,-511 303,-524 418,-524 418,-511 303,-511"/>
<text text-anchor="start" x="304" y="-516" font-family="Times,serif" font-weight="bold" font-size="10.00">message:</text>
<text text-anchor="start" x="356" y="-516" font-family="Times,serif" font-size="10.00"> start_quest</text>
</g>
<!-- [ns&#45;0]arriving&#45;&gt;#answer(False, [ns&#45;0]arriving, [ns&#45;1]start) -->
<g id="edge10" class="edge">
<title>[ns&#45;0]arriving:[ns&#45;0]arriving&#45;&gt;#answer(False, [ns&#45;0]arriving, [ns&#45;1]start):#answer(False, [ns&#45;0]arriving, [ns&#45;1]start)</title>
<path fill="none" stroke="black" d="M394.99,-581.94C385.41,-566.34 374.51,-548.61 367.46,-537.14"/>
</g>
<!-- #answer(True, [ns&#45;0]arriving, [ns&#45;0]upgrade_for_money)&#45;&gt;[ns&#45;0]upgrade_for_money -->
<g id="edge5" class="edge">
<title>#answer(True, [ns&#45;0]arriving, [ns&#45;0]upgrade_for_money):#answer(True, [ns&#45;0]arriving, [ns&#45;0]upgrade_for_money)&#45;&gt;[ns&#45;0]upgrade_for_money:[ns&#45;0]upgrade_for_money</title>
<path fill="none" stroke="black" d="M496.31,-517.3C498.26,-508.76 502.1,-491.99 505.7,-476.25"/>
<polygon fill="black" stroke="black" points="509.2,-476.67 508.02,-466.14 502.37,-475.11 509.2,-476.67"/>
</g>
<!-- #jump([ns&#45;1]finish_successed, [ns&#45;0]upgrade_for_quest)&#45;&gt;[ns&#45;0]upgrade_for_quest -->
<g id="edge7" class="edge">
<title>#jump([ns&#45;1]finish_successed, [ns&#45;0]upgrade_for_quest):#jump([ns&#45;1]finish_successed, [ns&#45;0]upgrade_for_quest)&#45;&gt;[ns&#45;0]upgrade_for_quest:[ns&#45;0]upgrade_for_quest</title>
<path fill="none" stroke="black" d="M119,-207.3C119,-198.76 119,-181.99 119,-166.25"/>
<polygon fill="black" stroke="black" points="122.5,-166.14 119,-156.14 115.5,-166.14 122.5,-166.14"/>
</g>
<!-- #answer(False, [ns&#45;0]arriving, [ns&#45;1]start)&#45;&gt;[ns&#45;1]start -->
<g id="edge11" class="edge">
<title>#answer(False, [ns&#45;0]arriving, [ns&#45;1]start):#answer(False, [ns&#45;0]arriving, [ns&#45;1]start)&#45;&gt;[ns&#45;1]start:[ns&#45;1]start</title>
<path fill="none" stroke="black" d="M353.06,-510.75C345.83,-497.98 334.34,-477.69 325.52,-462.11"/>
<polygon fill="black" stroke="black" points="328.4,-460.1 320.43,-453.12 322.31,-463.55 328.4,-460.1"/>
</g>
<!-- #jump([ns&#45;1]finish_failed, [ns&#45;0]finish_quest_failed)&#45;&gt;[ns&#45;0]finish_quest_failed -->
<g id="edge13" class="edge">
<title>#jump([ns&#45;1]finish_failed, [ns&#45;0]finish_quest_failed):#jump([ns&#45;1]finish_failed, [ns&#45;0]finish_quest_failed)&#45;&gt;[ns&#45;0]finish_quest_failed:[ns&#45;0]finish_quest_failed</title>
<path fill="none" stroke="black" d="M314.48,-207.3C315.2,-198.76 316.62,-181.99 317.94,-166.25"/>
<polygon fill="black" stroke="black" points="321.44,-166.4 318.8,-156.14 314.47,-165.81 321.44,-166.4"/>
</g>
</g>
</svg>
