<?xml version="1.0" encoding="UTF-8" standalone="no"?>
<!DOCTYPE svg PUBLIC "-//W3C//DTD SVG 1.1//EN"
 "http://www.w3.org/Graphics/SVG/1.1/DTD/svg11.dtd">
<!-- Generated by graphviz version 2.34.0 (20130907.0221)
 -->
<!-- Title: quest Pages: 1 -->
<svg width="196pt" height="330pt"
 viewBox="0.00 0.00 196.00 330.00" xmlns="http://www.w3.org/2000/svg" xmlns:xlink="http://www.w3.org/1999/xlink">
<g id="graph0" class="graph" transform="scale(1 1) rotate(0) translate(4 326)">
<title>quest</title>
<polygon fill="white" stroke="white" points="-4,4 -4,-326 192,-326 192,4 -4,4"/>
<!-- [ns&#45;0]start -->
<g id="node1" class="node"><title>[ns&#45;0]start</title>
<polygon fill="#eeeeee" stroke="none" points="31.5,-262.5 31.5,-317.5 156.5,-317.5 156.5,-262.5 31.5,-262.5"/>
<text text-anchor="start" x="34" y="-307.5" font-family="Times,serif" font-style="italic" font-size="10.00">[ns&#45;0]start</text>
<text text-anchor="start" x="97" y="-307.5" font-family="Times,serif" font-weight="bold" font-size="10.00">search_smith</text>
<text text-anchor="start" x="34" y="-293" font-family="Times,serif" font-size="10.00">Начало: посещение кузнеца</text>
<polygon fill="#dddddd" stroke="none" points="33,-276 33,-289 156,-289 156,-276 33,-276"/>
<text text-anchor="start" x="34" y="-281" font-family="Times,serif" font-size="10.00">hero </text>
<text text-anchor="start" x="55" y="-281" font-family="Times,serif" font-weight="bold" font-size="10.00">находится в</text>
<text text-anchor="start" x="110" y="-281" font-family="Times,serif" font-size="10.00"> place_1</text>
<polygon fill="#ffffff" stroke="none" points="33,-263 33,-276 156,-276 156,-263 33,-263"/>
<text text-anchor="start" x="34" y="-268" font-family="Times,serif" font-weight="bold" font-size="10.00">сообщение:</text>
<text text-anchor="start" x="86" y="-268" font-family="Times,serif" font-size="10.00"> intro</text>
<polygon fill="none" stroke="black" points="31.5,-262.5 31.5,-317.5 156.5,-317.5 156.5,-262.5 31.5,-262.5"/>
</g>
<!-- [ns&#45;0]arriving -->
<g id="node4" class="node"><title>[ns&#45;0]arriving</title>
<polygon fill="#ddffdd" stroke="none" points="24,-176 24,-218 164,-218 164,-176 24,-176"/>
<text text-anchor="start" x="26" y="-208.5" font-family="Times,serif" font-style="italic" font-size="10.00">[ns&#45;0]arriving</text>
<text text-anchor="start" x="26" y="-194" font-family="Times,serif" font-size="10.00">Прибытие в город</text>
<polygon fill="#cceecc" stroke="none" points="25,-177 25,-190 163,-190 163,-177 25,-177"/>
<text text-anchor="start" x="26" y="-182" font-family="Times,serif" font-size="10.00">hero </text>
<text text-anchor="start" x="47" y="-182" font-family="Times,serif" font-weight="bold" font-size="10.00">находится в</text>
<text text-anchor="start" x="102" y="-182" font-family="Times,serif" font-size="10.00"> place_2</text>
<polygon fill="none" stroke="black" points="24,-176 24,-218 164,-218 164,-176 24,-176"/>
</g>
<!-- [ns&#45;0]start&#45;&gt;[ns&#45;0]arriving -->
<g id="edge2" class="edge"><title>[ns&#45;0]start:[ns&#45;0]start&#45;&gt;[ns&#45;0]arriving:[ns&#45;0]arriving</title>
<path fill="none" stroke="black" d="M94,-262.189C94,-251.542 94,-239.241 94,-228.275"/>
<polygon fill="black" stroke="black" points="97.5001,-228.266 94,-218.266 90.5001,-228.267 97.5001,-228.266"/>
</g>
<!-- [ns&#45;0]finish -->
<g id="node2" class="node"><title>[ns&#45;0]finish</title>
<polygon fill="#eeeeee" stroke="none" points="7.5,-4 7.5,-46 180.5,-46 180.5,-4 7.5,-4"/>
<text text-anchor="start" x="10" y="-36.5" font-family="Times,serif" font-style="italic" font-size="10.00">[ns&#45;0]finish</text>
<text text-anchor="start" x="117.5" y="-36.5" font-family="Times,serif" font-weight="bold" font-size="10.00">successed</text>
<text text-anchor="start" x="10" y="-22" font-family="Times,serif" font-size="10.00">завершить задание</text>
<polygon fill="#ffffff" stroke="none" points="9,-5 9,-18 180,-18 180,-5 9,-5"/>
<text text-anchor="start" x="10" y="-10" font-family="Times,serif" font-weight="bold" font-size="10.00">увеличить влияние </text>
<text text-anchor="start" x="98" y="-10" font-family="Times,serif" font-size="10.00">  person_2 </text>
<text text-anchor="start" x="143" y="-10" font-family="Times,serif" font-weight="bold" font-size="10.00">на </text>
<text text-anchor="start" x="156" y="-10" font-family="Times,serif" font-size="10.00"> 1.00</text>
<polygon fill="none" stroke="black" points="7.5,-4 7.5,-46 180.5,-46 180.5,-4 7.5,-4"/>
</g>
<!-- [ns&#45;0]upgrade -->
<g id="node3" class="node"><title>[ns&#45;0]upgrade</title>
<polygon fill="#ddffdd" stroke="none" points="13.5,-90 13.5,-132 174.5,-132 174.5,-90 13.5,-90"/>
<text text-anchor="start" x="16" y="-122.5" font-family="Times,serif" font-style="italic" font-size="10.00">[ns&#45;0]upgrade</text>
<text text-anchor="start" x="16" y="-108" font-family="Times,serif" font-size="10.00">Обновление экипировки</text>
<polygon fill="#eeffee" stroke="none" points="15,-91 15,-104 174,-104 174,-91 15,-91"/>
<text text-anchor="start" x="16" y="-96" font-family="Times,serif" font-weight="bold" font-size="10.00">обновить экипировку</text>
<polygon fill="none" stroke="black" points="13.5,-90 13.5,-132 174.5,-132 174.5,-90 13.5,-90"/>
</g>
<!-- [ns&#45;0]upgrade&#45;&gt;[ns&#45;0]finish -->
<g id="edge3" class="edge"><title>[ns&#45;0]upgrade:[ns&#45;0]upgrade&#45;&gt;[ns&#45;0]finish:[ns&#45;0]finish</title>
<path fill="none" stroke="black" d="M94,-89.6659C94,-79.6576 94,-67.3889 94,-56.302"/>
<polygon fill="black" stroke="black" points="97.5001,-56.1468 94,-46.1468 90.5001,-56.1468 97.5001,-56.1468"/>
</g>
<!-- [ns&#45;0]arriving&#45;&gt;[ns&#45;0]upgrade -->
<g id="edge1" class="edge"><title>[ns&#45;0]arriving:[ns&#45;0]arriving&#45;&gt;[ns&#45;0]upgrade:[ns&#45;0]upgrade</title>
<path fill="none" stroke="black" d="M94,-175.666C94,-165.658 94,-153.389 94,-142.302"/>
<polygon fill="black" stroke="black" points="97.5001,-142.147 94,-132.147 90.5001,-142.147 97.5001,-142.147"/>
</g>
</g>
</svg>
