<?xml version="1.0" encoding="UTF-8" standalone="no"?>
<!DOCTYPE svg PUBLIC "-//W3C//DTD SVG 1.1//EN"
 "http://www.w3.org/Graphics/SVG/1.1/DTD/svg11.dtd">
<!-- Generated by graphviz version 2.34.0 (20130907.0221)
 -->
<!-- Title: quest Pages: 1 -->
<svg width="669pt" height="781pt"
 viewBox="0.00 0.00 669.00 781.00" xmlns="http://www.w3.org/2000/svg" xmlns:xlink="http://www.w3.org/1999/xlink">
<g id="graph0" class="graph" transform="scale(1 1) rotate(0) translate(4 777)">
<title>quest</title>
<polygon fill="white" stroke="white" points="-4,4 -4,-777 665,-777 665,4 -4,4"/>
<g id="clust1" class="cluster"><title>cluster_[ns&#45;0]help_subquest</title>
<polygon fill="#96ffff" stroke="black" points="19,-268 19,-507 403,-507 403,-268 19,-268"/>
<text text-anchor="middle" x="211" y="-491.8" font-family="Times,serif" font-size="14.00">cluster_[ns&#45;0]help_subquest</text>
</g>
<g id="clust2" class="cluster"><title>cluster_[ns&#45;1]event</title>
<polygon fill="#ffffdd" stroke="black" points="27,-276 27,-417 395,-417 395,-276 27,-276"/>
<text text-anchor="middle" x="211" y="-401.8" font-family="Times,serif" font-size="14.00">cluster_[ns&#45;1]event</text>
</g>
<!-- [ns&#45;1]start -->
<g id="node1" class="node"><title>[ns&#45;1]start</title>
<polygon fill="#eeeeee" stroke="none" points="246.5,-442.5 246.5,-471.5 379.5,-471.5 379.5,-442.5 246.5,-442.5"/>
<text text-anchor="start" x="249" y="-461.5" font-family="Times,serif" font-style="italic" font-size="10.00">[ns&#45;1]start</text>
<text text-anchor="start" x="332.5" y="-461.5" font-family="Times,serif" font-weight="bold" font-size="10.00">simple</text>
<text text-anchor="start" x="249" y="-447" font-family="Times,serif" font-size="10.00">Начало: самый простой квест</text>
<polygon fill="none" stroke="black" points="246.5,-442.5 246.5,-471.5 379.5,-471.5 379.5,-442.5 246.5,-442.5"/>
</g>
<!-- [ns&#45;1]finish_successed -->
<g id="node5" class="node"><title>[ns&#45;1]finish_successed</title>
<polygon fill="#eeeeee" stroke="none" points="43.5,-288 43.5,-382 202.5,-382 202.5,-288 43.5,-288"/>
<text text-anchor="start" x="46" y="-372.5" font-family="Times,serif" font-style="italic" font-size="10.00">[ns&#45;1]finish_successed</text>
<text text-anchor="start" x="46" y="-358" font-family="Times,serif" font-size="10.00">завершить задание удачно</text>
<polygon fill="#eeeeee" stroke="none" points="45,-341 45,-354 202,-354 202,-341 45,-341"/>
<text text-anchor="start" x="46" y="-346" font-family="Times,serif" font-weight="bold" font-size="10.00">результаты:</text>
<text text-anchor="start" x="46" y="-333" font-family="Times,serif" font-weight="bold" font-size="10.00">person_2</text>
<text text-anchor="start" x="161" y="-332" font-family="Times,serif" font-size="10.00">successed</text>
<text text-anchor="start" x="46" y="-320" font-family="Times,serif" font-weight="bold" font-size="10.00">person_7</text>
<text text-anchor="start" x="161" y="-319" font-family="Times,serif" font-size="10.00">successed</text>
<text text-anchor="start" x="46" y="-307" font-family="Times,serif" font-weight="bold" font-size="10.00">place_2</text>
<text text-anchor="start" x="161" y="-306" font-family="Times,serif" font-size="10.00">successed</text>
<text text-anchor="start" x="46" y="-294" font-family="Times,serif" font-weight="bold" font-size="10.00">place_7</text>
<text text-anchor="start" x="161" y="-293" font-family="Times,serif" font-size="10.00">successed</text>
<polygon fill="none" stroke="black" points="43.5,-288 43.5,-382 202.5,-382 202.5,-288 43.5,-288"/>
</g>
<!-- [ns&#45;1]start&#45;&gt;[ns&#45;1]finish_successed -->
<g id="edge11" class="edge"><title>[ns&#45;1]start:[ns&#45;1]start&#45;&gt;[ns&#45;1]finish_successed:[ns&#45;1]finish_successed</title>
<path fill="none" stroke="black" d="M273.271,-442.357C256.294,-435.772 236.604,-427.098 220,-417 206.545,-408.817 193.01,-398.855 180.497,-388.755"/>
<polygon fill="black" stroke="black" points="182.378,-385.77 172.433,-382.115 177.928,-391.174 182.378,-385.77"/>
</g>
<!-- [ns&#45;1]finish_failed -->
<g id="node6" class="node"><title>[ns&#45;1]finish_failed</title>
<polygon fill="#eeeeee" stroke="none" points="237,-288 237,-382 379,-382 379,-288 237,-288"/>
<text text-anchor="start" x="239" y="-372.5" font-family="Times,serif" font-style="italic" font-size="10.00">[ns&#45;1]finish_failed</text>
<text text-anchor="start" x="239" y="-358" font-family="Times,serif" font-size="10.00">завершить задание плохо</text>
<polygon fill="#eeeeee" stroke="none" points="238,-341 238,-354 378,-354 378,-341 238,-341"/>
<text text-anchor="start" x="239" y="-346" font-family="Times,serif" font-weight="bold" font-size="10.00">результаты:</text>
<text text-anchor="start" x="239" y="-333" font-family="Times,serif" font-weight="bold" font-size="10.00">person_2</text>
<text text-anchor="start" x="350" y="-332" font-family="Times,serif" font-size="10.00">failed</text>
<text text-anchor="start" x="239" y="-320" font-family="Times,serif" font-weight="bold" font-size="10.00">person_7</text>
<text text-anchor="start" x="350" y="-319" font-family="Times,serif" font-size="10.00">failed</text>
<text text-anchor="start" x="239" y="-307" font-family="Times,serif" font-weight="bold" font-size="10.00">place_2</text>
<text text-anchor="start" x="350" y="-306" font-family="Times,serif" font-size="10.00">failed</text>
<text text-anchor="start" x="239" y="-294" font-family="Times,serif" font-weight="bold" font-size="10.00">place_7</text>
<text text-anchor="start" x="350" y="-293" font-family="Times,serif" font-size="10.00">failed</text>
<polygon fill="none" stroke="black" points="237,-288 237,-382 379,-382 379,-288 237,-288"/>
</g>
<!-- [ns&#45;1]start&#45;&gt;[ns&#45;1]finish_failed -->
<g id="edge1" class="edge"><title>[ns&#45;1]start:[ns&#45;1]start&#45;&gt;[ns&#45;1]finish_failed:[ns&#45;1]finish_failed</title>
<path fill="none" stroke="black" d="M312.426,-442.234C311.911,-429.872 311.119,-410.865 310.347,-392.327"/>
<polygon fill="black" stroke="black" points="313.835,-391.967 309.922,-382.122 306.841,-392.259 313.835,-391.967"/>
</g>
<!-- [ns&#45;0]start_search_smith -->
<g id="node2" class="node"><title>[ns&#45;0]start_search_smith</title>
<polygon fill="#eeeeee" stroke="none" points="353,-713.5 353,-768.5 523,-768.5 523,-713.5 353,-713.5"/>
<text text-anchor="start" x="355" y="-758.5" font-family="Times,serif" font-style="italic" font-size="10.00">[ns&#45;0]start_search_smith</text>
<text text-anchor="start" x="463" y="-758.5" font-family="Times,serif" font-weight="bold" font-size="10.00">search_smith</text>
<text text-anchor="start" x="355" y="-744" font-family="Times,serif" font-size="10.00">Начало: посещение кузнеца</text>
<polygon fill="#dddddd" stroke="none" points="354,-727 354,-740 522,-740 522,-727 354,-727"/>
<text text-anchor="start" x="355" y="-732" font-family="Times,serif" font-size="10.00">hero </text>
<text text-anchor="start" x="376" y="-732" font-family="Times,serif" font-weight="bold" font-size="10.00">находится в</text>
<text text-anchor="start" x="431" y="-732" font-family="Times,serif" font-size="10.00"> place_1</text>
<polygon fill="#ffffff" stroke="none" points="354,-714 354,-727 522,-727 522,-714 354,-714"/>
<text text-anchor="start" x="355" y="-719" font-family="Times,serif" font-weight="bold" font-size="10.00">сообщение:</text>
<text text-anchor="start" x="407" y="-719" font-family="Times,serif" font-size="10.00"> intro</text>
<polygon fill="none" stroke="black" points="353,-713.5 353,-768.5 523,-768.5 523,-713.5 353,-713.5"/>
</g>
<!-- [ns&#45;0]arriving -->
<g id="node9" class="node"><title>[ns&#45;0]arriving</title>
<polygon fill="#ffdddd" stroke="none" points="346,-601 346,-669 530,-669 530,-601 346,-601"/>
<text text-anchor="start" x="348" y="-659.5" font-family="Times,serif" font-style="italic" font-size="10.00">[ns&#45;0]arriving</text>
<text text-anchor="start" x="348" y="-645" font-family="Times,serif" font-size="10.00">Прибытие в город</text>
<polygon fill="#eecccc" stroke="none" points="347,-628 347,-641 529,-641 529,-628 347,-628"/>
<text text-anchor="start" x="348" y="-633" font-family="Times,serif" font-size="10.00">hero </text>
<text text-anchor="start" x="369" y="-633" font-family="Times,serif" font-weight="bold" font-size="10.00">находится в</text>
<text text-anchor="start" x="424" y="-633" font-family="Times,serif" font-size="10.00"> place_2</text>
<polygon fill="#ffdddd" stroke="none" points="347,-615 347,-628 529,-628 529,-615 347,-615"/>
<text text-anchor="start" x="348" y="-620" font-family="Times,serif" font-weight="bold" font-size="10.00">условия:</text>
<text text-anchor="start" x="348" y="-607" font-family="Times,serif" font-weight="bold" font-size="10.00">если </text>
<polygon fill="#ffdddd" stroke="none" points="428,-602 428,-615 529,-615 529,-602 428,-602"/>
<text text-anchor="start" x="429" y="-607" font-family="Times,serif" font-size="10.00">hero </text>
<text text-anchor="start" x="450" y="-607" font-family="Times,serif" font-weight="bold" font-size="10.00">имеет </text>
<text text-anchor="start" x="479" y="-607" font-family="Times,serif" font-size="10.00"> 777 </text>
<text text-anchor="start" x="500" y="-607" font-family="Times,serif" font-weight="bold" font-size="10.00">монет</text>
<polygon fill="none" stroke="black" points="346,-601 346,-669 530,-669 530,-601 346,-601"/>
</g>
<!-- [ns&#45;0]start_search_smith&#45;&gt;[ns&#45;0]arriving -->
<g id="edge7" class="edge"><title>[ns&#45;0]start_search_smith:[ns&#45;0]start_search_smith&#45;&gt;[ns&#45;0]arriving:[ns&#45;0]arriving</title>
<path fill="none" stroke="black" d="M438,-713.487C438,-703.061 438,-690.818 438,-679.183"/>
<polygon fill="black" stroke="black" points="441.5,-679.174 438,-669.174 434.5,-679.174 441.5,-679.174"/>
</g>
<!-- [ns&#45;0]finish_quest_failed -->
<g id="node3" class="node"><title>[ns&#45;0]finish_quest_failed</title>
<polygon fill="#eeeeee" stroke="none" points="272.5,-116.5 272.5,-171.5 413.5,-171.5 413.5,-116.5 272.5,-116.5"/>
<text text-anchor="start" x="275" y="-161.5" font-family="Times,serif" font-style="italic" font-size="10.00">[ns&#45;0]finish_quest_failed</text>
<text text-anchor="start" x="275" y="-147" font-family="Times,serif" font-size="10.00">завершить задание</text>
<polygon fill="#eeeeee" stroke="none" points="274,-130 274,-143 413,-143 413,-130 274,-130"/>
<text text-anchor="start" x="275" y="-135" font-family="Times,serif" font-weight="bold" font-size="10.00">результаты:</text>
<text text-anchor="start" x="275" y="-122" font-family="Times,serif" font-weight="bold" font-size="10.00">person_2</text>
<text text-anchor="start" x="383" y="-121" font-family="Times,serif" font-size="10.00">neutral</text>
<polygon fill="none" stroke="black" points="272.5,-116.5 272.5,-171.5 413.5,-171.5 413.5,-116.5 272.5,-116.5"/>
</g>
<!-- [ns&#45;0]upgrade_for_money -->
<g id="node4" class="node"><title>[ns&#45;0]upgrade_for_money</title>
<polygon fill="#ddffdd" stroke="none" points="419,-429.5 419,-484.5 653,-484.5 653,-429.5 419,-429.5"/>
<text text-anchor="start" x="421" y="-474.5" font-family="Times,serif" font-style="italic" font-size="10.00">[ns&#45;0]upgrade_for_money</text>
<text text-anchor="start" x="421" y="-460" font-family="Times,serif" font-size="10.00">Обновление экипировки за деньги</text>
<polygon fill="#cceecc" stroke="none" points="420,-443 420,-456 652,-456 652,-443 420,-443"/>
<text text-anchor="start" x="421" y="-448" font-family="Times,serif" font-size="10.00">hero </text>
<text text-anchor="start" x="442" y="-448" font-family="Times,serif" font-weight="bold" font-size="10.00">находится в</text>
<text text-anchor="start" x="497" y="-448" font-family="Times,serif" font-size="10.00"> place_2</text>
<polygon fill="#eeffee" stroke="none" points="420,-430 420,-443 652,-443 652,-430 420,-430"/>
<text text-anchor="start" x="421" y="-435" font-family="Times,serif" font-weight="bold" font-size="10.00">обновить экипировку за </text>
<text text-anchor="start" x="531" y="-435" font-family="Times,serif" font-size="10.00"> 777 </text>
<text text-anchor="start" x="552" y="-435" font-family="Times,serif" font-weight="bold" font-size="10.00">монет</text>
<polygon fill="none" stroke="black" points="419,-429.5 419,-484.5 653,-484.5 653,-429.5 419,-429.5"/>
</g>
<!-- [ns&#45;0]finish_successed -->
<g id="node8" class="node"><title>[ns&#45;0]finish_successed</title>
<polygon fill="#eeeeee" stroke="none" points="216,-4 216,-72 400,-72 400,-4 216,-4"/>
<text text-anchor="start" x="218" y="-62.5" font-family="Times,serif" font-style="italic" font-size="10.00">[ns&#45;0]finish_successed</text>
<text text-anchor="start" x="218" y="-48" font-family="Times,serif" font-size="10.00">завершить задание</text>
<polygon fill="#ffffff" stroke="none" points="217,-31 217,-44 399,-44 399,-31 217,-31"/>
<text text-anchor="start" x="218" y="-36" font-family="Times,serif" font-weight="bold" font-size="10.00">увеличить влияние </text>
<text text-anchor="start" x="306" y="-36" font-family="Times,serif" font-size="10.00">  person_2 </text>
<text text-anchor="start" x="351" y="-36" font-family="Times,serif" font-weight="bold" font-size="10.00">на </text>
<text text-anchor="start" x="364" y="-36" font-family="Times,serif" font-size="10.00"> 1.00</text>
<polygon fill="#eeeeee" stroke="none" points="217,-18 217,-31 399,-31 399,-18 217,-18"/>
<text text-anchor="start" x="218" y="-23" font-family="Times,serif" font-weight="bold" font-size="10.00">результаты:</text>
<text text-anchor="start" x="218" y="-10" font-family="Times,serif" font-weight="bold" font-size="10.00">person_2</text>
<text text-anchor="start" x="315" y="-9" font-family="Times,serif" font-size="10.00">successed</text>
<polygon fill="none" stroke="black" points="216,-4 216,-72 400,-72 400,-4 216,-4"/>
</g>
<!-- [ns&#45;0]upgrade_for_money&#45;&gt;[ns&#45;0]finish_successed -->
<g id="edge8" class="edge"><title>[ns&#45;0]upgrade_for_money:[ns&#45;0]upgrade_for_money&#45;&gt;[ns&#45;0]finish_successed:[ns&#45;0]finish_successed</title>
<path fill="none" stroke="black" d="M534.201,-429.336C528.766,-367.305 507.727,-211.073 430,-112 419.493,-98.6074 405.793,-87.1327 391.383,-77.5145"/>
<polygon fill="black" stroke="black" points="393.149,-74.4898 382.835,-72.0656 389.386,-80.3924 393.149,-74.4898"/>
</g>
<!-- #jump([ns&#45;1]finish_successed, [ns&#45;0]upgrade_for_quest) -->
<g id="node13" class="node"><title>#jump([ns&#45;1]finish_successed, [ns&#45;0]upgrade_for_quest)</title>
<polygon fill="#eeeeee" stroke="none" points="61,-223 61,-237 186,-237 186,-223 61,-223"/>
<text text-anchor="start" x="62" y="-228.5" font-family="Times,serif" font-weight="bold" font-size="10.00">сообщение:</text>
<text text-anchor="start" x="114" y="-228.5" font-family="Times,serif" font-size="10.00"> quest_successed</text>
</g>
<!-- [ns&#45;1]finish_successed&#45;&gt;#jump([ns&#45;1]finish_successed, [ns&#45;0]upgrade_for_quest) -->
<g id="edge12" class="edge"><title>[ns&#45;1]finish_successed:[ns&#45;1]finish_successed&#45;&gt;#jump([ns&#45;1]finish_successed, [ns&#45;0]upgrade_for_quest):#jump([ns&#45;1]finish_successed, [ns&#45;0]upgrade_for_quest)</title>
<path fill="none" stroke="black" d="M123,-287.923C123,-268.211 123,-247.429 123,-237.298"/>
</g>
<!-- #jump([ns&#45;1]finish_failed, [ns&#45;0]finish_quest_failed) -->
<g id="node10" class="node"><title>#jump([ns&#45;1]finish_failed, [ns&#45;0]finish_quest_failed)</title>
<polygon fill="#eeeeee" stroke="none" points="271,-223 271,-237 379,-237 379,-223 271,-223"/>
<text text-anchor="start" x="272" y="-228.5" font-family="Times,serif" font-weight="bold" font-size="10.00">сообщение:</text>
<text text-anchor="start" x="324" y="-228.5" font-family="Times,serif" font-size="10.00"> quest_failed</text>
</g>
<!-- [ns&#45;1]finish_failed&#45;&gt;#jump([ns&#45;1]finish_failed, [ns&#45;0]finish_quest_failed) -->
<g id="edge2" class="edge"><title>[ns&#45;1]finish_failed:[ns&#45;1]finish_failed&#45;&gt;#jump([ns&#45;1]finish_failed, [ns&#45;0]finish_quest_failed):#jump([ns&#45;1]finish_failed, [ns&#45;0]finish_quest_failed)</title>
<path fill="none" stroke="black" d="M315.605,-287.923C318.858,-268.211 322.288,-247.429 323.961,-237.298"/>
</g>
<!-- [ns&#45;0]upgrade_for_quest -->
<g id="node7" class="node"><title>[ns&#45;0]upgrade_for_quest</title>
<polygon fill="#ddffdd" stroke="none" points="7.5,-116.5 7.5,-171.5 238.5,-171.5 238.5,-116.5 7.5,-116.5"/>
<text text-anchor="start" x="10" y="-161.5" font-family="Times,serif" font-style="italic" font-size="10.00">[ns&#45;0]upgrade_for_quest</text>
<text text-anchor="start" x="10" y="-147" font-family="Times,serif" font-size="10.00">Обновление экипировки за задание</text>
<polygon fill="#cceecc" stroke="none" points="9,-130 9,-143 238,-143 238,-130 9,-130"/>
<text text-anchor="start" x="10" y="-135" font-family="Times,serif" font-size="10.00">hero </text>
<text text-anchor="start" x="31" y="-135" font-family="Times,serif" font-weight="bold" font-size="10.00">находится в</text>
<text text-anchor="start" x="86" y="-135" font-family="Times,serif" font-size="10.00"> place_2</text>
<polygon fill="#eeffee" stroke="none" points="9,-117 9,-130 238,-130 238,-117 9,-117"/>
<text text-anchor="start" x="10" y="-122" font-family="Times,serif" font-weight="bold" font-size="10.00">обновить экипировку бесплатно</text>
<polygon fill="none" stroke="black" points="7.5,-116.5 7.5,-171.5 238.5,-171.5 238.5,-116.5 7.5,-116.5"/>
</g>
<!-- [ns&#45;0]upgrade_for_quest&#45;&gt;[ns&#45;0]finish_successed -->
<g id="edge4" class="edge"><title>[ns&#45;0]upgrade_for_quest:[ns&#45;0]upgrade_for_quest&#45;&gt;[ns&#45;0]finish_successed:[ns&#45;0]finish_successed</title>
<path fill="none" stroke="black" d="M170.162,-116.487C191.425,-104.534 216.935,-90.1933 240.196,-77.1166"/>
<polygon fill="black" stroke="black" points="241.986,-80.1257 248.988,-72.1743 238.556,-74.0238 241.986,-80.1257"/>
</g>
<!-- #answer_False([ns&#45;0]arriving, [ns&#45;1]start) -->
<g id="node11" class="node"><title>#answer_False([ns&#45;0]arriving, [ns&#45;1]start)</title>
<polygon fill="#ffffff" stroke="none" points="319,-542 319,-556 421,-556 421,-542 319,-542"/>
<text text-anchor="start" x="320" y="-546.5" font-family="Times,serif" font-size="10.00">ЛОЖЬ</text>
<polygon fill="#eeeeee" stroke="none" points="319,-529 319,-542 421,-542 421,-529 319,-529"/>
<text text-anchor="start" x="320" y="-534" font-family="Times,serif" font-weight="bold" font-size="10.00">сообщение:</text>
<text text-anchor="start" x="372" y="-534" font-family="Times,serif" font-size="10.00"> start_quest</text>
</g>
<!-- [ns&#45;0]arriving&#45;&gt;#answer_False([ns&#45;0]arriving, [ns&#45;1]start) -->
<g id="edge5" class="edge"><title>[ns&#45;0]arriving:[ns&#45;0]arriving&#45;&gt;#answer_False([ns&#45;0]arriving, [ns&#45;1]start):#answer_False([ns&#45;0]arriving, [ns&#45;1]start)</title>
<path fill="none" stroke="black" d="M413.065,-600.998C401.391,-585.547 388.178,-568.059 379.502,-556.576"/>
</g>
<!-- #answer_True([ns&#45;0]arriving, [ns&#45;0]upgrade_for_money) -->
<g id="node12" class="node"><title>#answer_True([ns&#45;0]arriving, [ns&#45;0]upgrade_for_money)</title>
<polygon fill="#ffffff" stroke="none" points="484,-536 484,-550 530,-550 530,-536 484,-536"/>
<text text-anchor="start" x="485" y="-540.5" font-family="Times,serif" font-size="10.00">ИСТИНА</text>
</g>
<!-- [ns&#45;0]arriving&#45;&gt;#answer_True([ns&#45;0]arriving, [ns&#45;0]upgrade_for_money) -->
<g id="edge9" class="edge"><title>[ns&#45;0]arriving:[ns&#45;0]arriving&#45;&gt;#answer_True([ns&#45;0]arriving, [ns&#45;0]upgrade_for_money):#answer_True([ns&#45;0]arriving, [ns&#45;0]upgrade_for_money)</title>
<path fill="none" stroke="black" d="M463.301,-600.998C477.609,-582.336 494.194,-560.703 502.194,-550.268"/>
</g>
<!-- #jump([ns&#45;1]finish_failed, [ns&#45;0]finish_quest_failed)&#45;&gt;[ns&#45;0]finish_quest_failed -->
<g id="edge3" class="edge"><title>#jump([ns&#45;1]finish_failed, [ns&#45;0]finish_quest_failed):#jump([ns&#45;1]finish_failed, [ns&#45;0]finish_quest_failed)&#45;&gt;[ns&#45;0]finish_quest_failed:[ns&#45;0]finish_quest_failed</title>
<path fill="none" stroke="black" d="M326.295,-222.959C328.159,-214.257 331.749,-197.504 335.125,-181.752"/>
<polygon fill="black" stroke="black" points="338.618,-182.151 337.292,-171.639 331.774,-180.684 338.618,-182.151"/>
</g>
<!-- #answer_False([ns&#45;0]arriving, [ns&#45;1]start)&#45;&gt;[ns&#45;1]start -->
<g id="edge6" class="edge"><title>#answer_False([ns&#45;0]arriving, [ns&#45;1]start):#answer_False([ns&#45;0]arriving, [ns&#45;1]start)&#45;&gt;[ns&#45;1]start:[ns&#45;1]start</title>
<path fill="none" stroke="black" d="M361.343,-529.242C352.543,-516.274 338.734,-495.923 328.123,-480.287"/>
<polygon fill="black" stroke="black" points="330.819,-478.026 322.308,-471.717 325.027,-481.957 330.819,-478.026"/>
</g>
<!-- #answer_True([ns&#45;0]arriving, [ns&#45;0]upgrade_for_money)&#45;&gt;[ns&#45;0]upgrade_for_money -->
<g id="edge10" class="edge"><title>#answer_True([ns&#45;0]arriving, [ns&#45;0]upgrade_for_money):#answer_True([ns&#45;0]arriving, [ns&#45;0]upgrade_for_money)&#45;&gt;[ns&#45;0]upgrade_for_money:[ns&#45;0]upgrade_for_money</title>
<path fill="none" stroke="black" d="M509.086,-535.959C512.119,-527.174 517.984,-510.184 523.467,-494.302"/>
<polygon fill="black" stroke="black" points="526.848,-495.234 526.803,-484.639 520.231,-492.95 526.848,-495.234"/>
</g>
<!-- #jump([ns&#45;1]finish_successed, [ns&#45;0]upgrade_for_quest)&#45;&gt;[ns&#45;0]upgrade_for_quest -->
<g id="edge13" class="edge"><title>#jump([ns&#45;1]finish_successed, [ns&#45;0]upgrade_for_quest):#jump([ns&#45;1]finish_successed, [ns&#45;0]upgrade_for_quest)&#45;&gt;[ns&#45;0]upgrade_for_quest:[ns&#45;0]upgrade_for_quest</title>
<path fill="none" stroke="black" d="M123,-222.959C123,-214.257 123,-197.504 123,-181.752"/>
<polygon fill="black" stroke="black" points="126.5,-181.639 123,-171.639 119.5,-181.639 126.5,-181.639"/>
</g>
</g>
</svg>
