<?xml version="1.0" encoding="UTF-8" standalone="no"?>
<!DOCTYPE svg PUBLIC "-//W3C//DTD SVG 1.1//EN"
 "http://www.w3.org/Graphics/SVG/1.1/DTD/svg11.dtd">
<!-- Generated by graphviz version 2.34.0 (20130907.0221)
 -->
<!-- Title: quest Pages: 1 -->
<svg width="611pt" height="781pt"
 viewBox="0.00 0.00 611.00 781.00" xmlns="http://www.w3.org/2000/svg" xmlns:xlink="http://www.w3.org/1999/xlink">
<g id="graph0" class="graph" transform="scale(1 1) rotate(0) translate(4 777)">
<title>quest</title>
<polygon fill="white" stroke="white" points="-4,4 -4,-777 607,-777 607,4 -4,4"/>
<g id="clust1" class="cluster"><title>cluster_[ns&#45;0]help_subquest</title>
<polygon fill="#96ffff" stroke="black" points="8,-268 8,-507 384,-507 384,-268 8,-268"/>
<text text-anchor="middle" x="196" y="-491.8" font-family="Times,serif" font-size="14.00">cluster_[ns&#45;0]help_subquest</text>
</g>
<g id="clust2" class="cluster"><title>cluster_[ns&#45;1]event</title>
<polygon fill="#ffffdd" stroke="black" points="16,-276 16,-417 376,-417 376,-276 16,-276"/>
<text text-anchor="middle" x="196" y="-401.8" font-family="Times,serif" font-size="14.00">cluster_[ns&#45;1]event</text>
</g>
<!-- [ns&#45;1]start -->
<g id="node1" class="node"><title>[ns&#45;1]start</title>
<polygon fill="#eeeeee" stroke="none" points="228.5,-442.5 228.5,-471.5 361.5,-471.5 361.5,-442.5 228.5,-442.5"/>
<text text-anchor="start" x="231" y="-461.5" font-family="Times,serif" font-style="italic" font-size="10.00">[ns&#45;1]start</text>
<text text-anchor="start" x="314.5" y="-461.5" font-family="Times,serif" font-weight="bold" font-size="10.00">simple</text>
<text text-anchor="start" x="231" y="-447" font-family="Times,serif" font-size="10.00">Начало: самый простой квест</text>
<polygon fill="none" stroke="black" points="228.5,-442.5 228.5,-471.5 361.5,-471.5 361.5,-442.5 228.5,-442.5"/>
</g>
<!-- [ns&#45;1]finish_successed -->
<g id="node5" class="node"><title>[ns&#45;1]finish_successed</title>
<polygon fill="#eeeeee" stroke="none" points="32,-288 32,-382 188,-382 188,-288 32,-288"/>
<text text-anchor="start" x="34" y="-372.5" font-family="Times,serif" font-style="italic" font-size="10.00">[ns&#45;1]finish_successed</text>
<text text-anchor="start" x="34" y="-358" font-family="Times,serif" font-size="10.00">завершить задание удачно</text>
<polygon fill="#eeeeee" stroke="none" points="33,-341 33,-354 187,-354 187,-341 33,-341"/>
<text text-anchor="start" x="34" y="-346" font-family="Times,serif" font-weight="bold" font-size="10.00">результаты:</text>
<text text-anchor="start" x="34" y="-333" font-family="Times,serif" font-weight="bold" font-size="10.00">person_10</text>
<text text-anchor="start" x="131" y="-332" font-family="Times,serif" font-size="10.00">successed</text>
<text text-anchor="start" x="34" y="-320" font-family="Times,serif" font-weight="bold" font-size="10.00">person_2</text>
<text text-anchor="start" x="131" y="-319" font-family="Times,serif" font-size="10.00">successed</text>
<text text-anchor="start" x="34" y="-307" font-family="Times,serif" font-weight="bold" font-size="10.00">place_10</text>
<text text-anchor="start" x="131" y="-306" font-family="Times,serif" font-size="10.00">successed</text>
<text text-anchor="start" x="34" y="-294" font-family="Times,serif" font-weight="bold" font-size="10.00">place_2</text>
<text text-anchor="start" x="131" y="-293" font-family="Times,serif" font-size="10.00">successed</text>
<polygon fill="none" stroke="black" points="32,-288 32,-382 188,-382 188,-288 32,-288"/>
</g>
<!-- [ns&#45;1]start&#45;&gt;[ns&#45;1]finish_successed -->
<g id="edge11" class="edge"><title>[ns&#45;1]start:[ns&#45;1]start&#45;&gt;[ns&#45;1]finish_successed:[ns&#45;1]finish_successed</title>
<path fill="none" stroke="black" d="M256.969,-442.44C240.435,-435.816 221.185,-427.09 205,-417 191.874,-408.817 178.683,-398.901 166.484,-388.855"/>
<polygon fill="black" stroke="black" points="168.529,-386.002 158.621,-382.251 164.027,-391.362 168.529,-386.002"/>
</g>
<!-- [ns&#45;1]finish_failed -->
<g id="node6" class="node"><title>[ns&#45;1]finish_failed</title>
<polygon fill="#eeeeee" stroke="none" points="222,-288 222,-382 360,-382 360,-288 222,-288"/>
<text text-anchor="start" x="224" y="-372.5" font-family="Times,serif" font-style="italic" font-size="10.00">[ns&#45;1]finish_failed</text>
<text text-anchor="start" x="224" y="-358" font-family="Times,serif" font-size="10.00">завершить задание плохо</text>
<polygon fill="#eeeeee" stroke="none" points="223,-341 223,-354 359,-354 359,-341 223,-341"/>
<text text-anchor="start" x="224" y="-346" font-family="Times,serif" font-weight="bold" font-size="10.00">результаты:</text>
<text text-anchor="start" x="224" y="-333" font-family="Times,serif" font-weight="bold" font-size="10.00">person_10</text>
<text text-anchor="start" x="305" y="-332" font-family="Times,serif" font-size="10.00">failed</text>
<text text-anchor="start" x="224" y="-320" font-family="Times,serif" font-weight="bold" font-size="10.00">person_2</text>
<text text-anchor="start" x="305" y="-319" font-family="Times,serif" font-size="10.00">failed</text>
<text text-anchor="start" x="224" y="-307" font-family="Times,serif" font-weight="bold" font-size="10.00">place_10</text>
<text text-anchor="start" x="305" y="-306" font-family="Times,serif" font-size="10.00">failed</text>
<text text-anchor="start" x="224" y="-294" font-family="Times,serif" font-weight="bold" font-size="10.00">place_2</text>
<text text-anchor="start" x="305" y="-293" font-family="Times,serif" font-size="10.00">failed</text>
<polygon fill="none" stroke="black" points="222,-288 222,-382 360,-382 360,-288 222,-288"/>
</g>
<!-- [ns&#45;1]start&#45;&gt;[ns&#45;1]finish_failed -->
<g id="edge5" class="edge"><title>[ns&#45;1]start:[ns&#45;1]start&#45;&gt;[ns&#45;1]finish_failed:[ns&#45;1]finish_failed</title>
<path fill="none" stroke="black" d="M294.541,-442.234C294.129,-429.872 293.495,-410.865 292.878,-392.327"/>
<polygon fill="black" stroke="black" points="296.369,-391.999 292.537,-382.122 289.373,-392.233 296.369,-391.999"/>
</g>
<!-- [ns&#45;0]start_search_smith -->
<g id="node2" class="node"><title>[ns&#45;0]start_search_smith</title>
<polygon fill="#eeeeee" stroke="none" points="323,-713.5 323,-768.5 493,-768.5 493,-713.5 323,-713.5"/>
<text text-anchor="start" x="325" y="-758.5" font-family="Times,serif" font-style="italic" font-size="10.00">[ns&#45;0]start_search_smith</text>
<text text-anchor="start" x="433" y="-758.5" font-family="Times,serif" font-weight="bold" font-size="10.00">search_smith</text>
<text text-anchor="start" x="325" y="-744" font-family="Times,serif" font-size="10.00">Начало: посещение кузнеца</text>
<polygon fill="#dddddd" stroke="none" points="324,-727 324,-740 492,-740 492,-727 324,-727"/>
<text text-anchor="start" x="325" y="-732" font-family="Times,serif" font-size="10.00">hero </text>
<text text-anchor="start" x="346" y="-732" font-family="Times,serif" font-weight="bold" font-size="10.00">находится в</text>
<text text-anchor="start" x="401" y="-732" font-family="Times,serif" font-size="10.00"> place_1</text>
<polygon fill="#ffffff" stroke="none" points="324,-714 324,-727 492,-727 492,-714 324,-714"/>
<text text-anchor="start" x="325" y="-719" font-family="Times,serif" font-weight="bold" font-size="10.00">сообщение:</text>
<text text-anchor="start" x="377" y="-719" font-family="Times,serif" font-size="10.00"> intro</text>
<polygon fill="none" stroke="black" points="323,-713.5 323,-768.5 493,-768.5 493,-713.5 323,-713.5"/>
</g>
<!-- [ns&#45;0]arriving -->
<g id="node9" class="node"><title>[ns&#45;0]arriving</title>
<polygon fill="#ffdddd" stroke="none" points="325.5,-601 325.5,-669 490.5,-669 490.5,-601 325.5,-601"/>
<text text-anchor="start" x="328" y="-659.5" font-family="Times,serif" font-style="italic" font-size="10.00">[ns&#45;0]arriving</text>
<text text-anchor="start" x="328" y="-645" font-family="Times,serif" font-size="10.00">Прибытие в город</text>
<polygon fill="#eecccc" stroke="none" points="327,-628 327,-641 490,-641 490,-628 327,-628"/>
<text text-anchor="start" x="328" y="-633" font-family="Times,serif" font-size="10.00">hero </text>
<text text-anchor="start" x="349" y="-633" font-family="Times,serif" font-weight="bold" font-size="10.00">находится в</text>
<text text-anchor="start" x="404" y="-633" font-family="Times,serif" font-size="10.00"> place_2</text>
<polygon fill="#ffdddd" stroke="none" points="327,-615 327,-628 490,-628 490,-615 327,-615"/>
<text text-anchor="start" x="328" y="-620" font-family="Times,serif" font-weight="bold" font-size="10.00">условия:</text>
<text text-anchor="start" x="328" y="-607" font-family="Times,serif" font-weight="bold" font-size="10.00">если </text>
<polygon fill="#ffdddd" stroke="none" points="389,-602 389,-615 490,-615 490,-602 389,-602"/>
<text text-anchor="start" x="390" y="-607" font-family="Times,serif" font-size="10.00">hero </text>
<text text-anchor="start" x="411" y="-607" font-family="Times,serif" font-weight="bold" font-size="10.00">имеет </text>
<text text-anchor="start" x="440" y="-607" font-family="Times,serif" font-size="10.00"> 777 </text>
<text text-anchor="start" x="461" y="-607" font-family="Times,serif" font-weight="bold" font-size="10.00">монет</text>
<polygon fill="none" stroke="black" points="325.5,-601 325.5,-669 490.5,-669 490.5,-601 325.5,-601"/>
</g>
<!-- [ns&#45;0]start_search_smith&#45;&gt;[ns&#45;0]arriving -->
<g id="edge4" class="edge"><title>[ns&#45;0]start_search_smith:[ns&#45;0]start_search_smith&#45;&gt;[ns&#45;0]arriving:[ns&#45;0]arriving</title>
<path fill="none" stroke="black" d="M408,-713.487C408,-703.061 408,-690.818 408,-679.183"/>
<polygon fill="black" stroke="black" points="411.5,-679.174 408,-669.174 404.5,-679.174 411.5,-679.174"/>
</g>
<!-- [ns&#45;0]finish_quest_failed -->
<g id="node3" class="node"><title>[ns&#45;0]finish_quest_failed</title>
<polygon fill="#eeeeee" stroke="none" points="237.5,-116.5 237.5,-171.5 388.5,-171.5 388.5,-116.5 237.5,-116.5"/>
<text text-anchor="start" x="240" y="-161.5" font-family="Times,serif" font-style="italic" font-size="10.00">[ns&#45;0]finish_quest_failed</text>
<text text-anchor="start" x="240" y="-147" font-family="Times,serif" font-size="10.00">завершить задание</text>
<polygon fill="#eeeeee" stroke="none" points="239,-130 239,-143 388,-143 388,-130 239,-130"/>
<text text-anchor="start" x="240" y="-135" font-family="Times,serif" font-weight="bold" font-size="10.00">результаты:</text>
<text text-anchor="start" x="240" y="-122" font-family="Times,serif" font-weight="bold" font-size="10.00">person_2</text>
<text text-anchor="start" x="348" y="-121" font-family="Times,serif" font-size="10.00">neutral</text>
<polygon fill="none" stroke="black" points="237.5,-116.5 237.5,-171.5 388.5,-171.5 388.5,-116.5 237.5,-116.5"/>
</g>
<!-- [ns&#45;0]upgrade_for_money -->
<g id="node4" class="node"><title>[ns&#45;0]upgrade_for_money</title>
<polygon fill="#ddffdd" stroke="none" points="400.5,-429.5 400.5,-484.5 595.5,-484.5 595.5,-429.5 400.5,-429.5"/>
<text text-anchor="start" x="403" y="-474.5" font-family="Times,serif" font-style="italic" font-size="10.00">[ns&#45;0]upgrade_for_money</text>
<text text-anchor="start" x="403" y="-460" font-family="Times,serif" font-size="10.00">Обновление экипировки за деньги</text>
<polygon fill="#cceecc" stroke="none" points="402,-443 402,-456 595,-456 595,-443 402,-443"/>
<text text-anchor="start" x="403" y="-448" font-family="Times,serif" font-size="10.00">hero </text>
<text text-anchor="start" x="424" y="-448" font-family="Times,serif" font-weight="bold" font-size="10.00">находится в</text>
<text text-anchor="start" x="479" y="-448" font-family="Times,serif" font-size="10.00"> place_2</text>
<polygon fill="#eeffee" stroke="none" points="402,-430 402,-443 595,-443 595,-430 402,-430"/>
<text text-anchor="start" x="403" y="-435" font-family="Times,serif" font-weight="bold" font-size="10.00">обновить экипировку за </text>
<text text-anchor="start" x="513" y="-435" font-family="Times,serif" font-size="10.00"> 777 </text>
<text text-anchor="start" x="534" y="-435" font-family="Times,serif" font-weight="bold" font-size="10.00">монет</text>
<polygon fill="none" stroke="black" points="400.5,-429.5 400.5,-484.5 595.5,-484.5 595.5,-429.5 400.5,-429.5"/>
</g>
<!-- [ns&#45;0]finish_successed -->
<g id="node8" class="node"><title>[ns&#45;0]finish_successed</title>
<polygon fill="#eeeeee" stroke="none" points="193,-4 193,-72 377,-72 377,-4 193,-4"/>
<text text-anchor="start" x="195" y="-62.5" font-family="Times,serif" font-style="italic" font-size="10.00">[ns&#45;0]finish_successed</text>
<text text-anchor="start" x="195" y="-48" font-family="Times,serif" font-size="10.00">завершить задание</text>
<polygon fill="#ffffff" stroke="none" points="194,-31 194,-44 376,-44 376,-31 194,-31"/>
<text text-anchor="start" x="195" y="-36" font-family="Times,serif" font-weight="bold" font-size="10.00">увеличить влияние </text>
<text text-anchor="start" x="283" y="-36" font-family="Times,serif" font-size="10.00">  person_2 </text>
<text text-anchor="start" x="328" y="-36" font-family="Times,serif" font-weight="bold" font-size="10.00">на </text>
<text text-anchor="start" x="341" y="-36" font-family="Times,serif" font-size="10.00"> 1.00</text>
<polygon fill="#eeeeee" stroke="none" points="194,-18 194,-31 376,-31 376,-18 194,-18"/>
<text text-anchor="start" x="195" y="-23" font-family="Times,serif" font-weight="bold" font-size="10.00">результаты:</text>
<text text-anchor="start" x="195" y="-10" font-family="Times,serif" font-weight="bold" font-size="10.00">person_2</text>
<text text-anchor="start" x="292" y="-9" font-family="Times,serif" font-size="10.00">successed</text>
<polygon fill="none" stroke="black" points="193,-4 193,-72 377,-72 377,-4 193,-4"/>
</g>
<!-- [ns&#45;0]upgrade_for_money&#45;&gt;[ns&#45;0]finish_successed -->
<g id="edge6" class="edge"><title>[ns&#45;0]upgrade_for_money:[ns&#45;0]upgrade_for_money&#45;&gt;[ns&#45;0]finish_successed:[ns&#45;0]finish_successed</title>
<path fill="none" stroke="black" d="M497.328,-429.419C494.492,-367.564 479.861,-211.679 405,-112 395.056,-98.7591 381.944,-87.4063 368.044,-77.8716"/>
<polygon fill="black" stroke="black" points="369.596,-74.7049 359.309,-72.1692 365.769,-80.5665 369.596,-74.7049"/>
</g>
<!-- #jump([ns&#45;1]finish_successed, [ns&#45;0]upgrade_for_quest) -->
<g id="node13" class="node"><title>#jump([ns&#45;1]finish_successed, [ns&#45;0]upgrade_for_quest)</title>
<polygon fill="#eeeeee" stroke="none" points="48,-223 48,-237 173,-237 173,-223 48,-223"/>
<text text-anchor="start" x="49" y="-228.5" font-family="Times,serif" font-weight="bold" font-size="10.00">сообщение:</text>
<text text-anchor="start" x="101" y="-228.5" font-family="Times,serif" font-size="10.00"> quest_successed</text>
</g>
<!-- [ns&#45;1]finish_successed&#45;&gt;#jump([ns&#45;1]finish_successed, [ns&#45;0]upgrade_for_quest) -->
<g id="edge12" class="edge"><title>[ns&#45;1]finish_successed:[ns&#45;1]finish_successed&#45;&gt;#jump([ns&#45;1]finish_successed, [ns&#45;0]upgrade_for_quest):#jump([ns&#45;1]finish_successed, [ns&#45;0]upgrade_for_quest)</title>
<path fill="none" stroke="black" d="M110,-287.923C110,-268.211 110,-247.429 110,-237.298"/>
</g>
<!-- #jump([ns&#45;1]finish_failed, [ns&#45;0]finish_quest_failed) -->
<g id="node10" class="node"><title>#jump([ns&#45;1]finish_failed, [ns&#45;0]finish_quest_failed)</title>
<polygon fill="#eeeeee" stroke="none" points="248,-223 248,-237 356,-237 356,-223 248,-223"/>
<text text-anchor="start" x="249" y="-228.5" font-family="Times,serif" font-weight="bold" font-size="10.00">сообщение:</text>
<text text-anchor="start" x="301" y="-228.5" font-family="Times,serif" font-size="10.00"> quest_failed</text>
</g>
<!-- [ns&#45;1]finish_failed&#45;&gt;#jump([ns&#45;1]finish_failed, [ns&#45;0]finish_quest_failed) -->
<g id="edge1" class="edge"><title>[ns&#45;1]finish_failed:[ns&#45;1]finish_failed&#45;&gt;#jump([ns&#45;1]finish_failed, [ns&#45;0]finish_quest_failed):#jump([ns&#45;1]finish_failed, [ns&#45;0]finish_quest_failed)</title>
<path fill="none" stroke="black" d="M295.921,-287.923C298.026,-268.211 300.245,-247.429 301.327,-237.298"/>
</g>
<!-- [ns&#45;0]upgrade_for_quest -->
<g id="node7" class="node"><title>[ns&#45;0]upgrade_for_quest</title>
<polygon fill="#ddffdd" stroke="none" points="17,-116.5 17,-171.5 203,-171.5 203,-116.5 17,-116.5"/>
<text text-anchor="start" x="19" y="-161.5" font-family="Times,serif" font-style="italic" font-size="10.00">[ns&#45;0]upgrade_for_quest</text>
<text text-anchor="start" x="19" y="-147" font-family="Times,serif" font-size="10.00">Обновление экипировки за задание</text>
<polygon fill="#cceecc" stroke="none" points="18,-130 18,-143 202,-143 202,-130 18,-130"/>
<text text-anchor="start" x="19" y="-135" font-family="Times,serif" font-size="10.00">hero </text>
<text text-anchor="start" x="40" y="-135" font-family="Times,serif" font-weight="bold" font-size="10.00">находится в</text>
<text text-anchor="start" x="95" y="-135" font-family="Times,serif" font-size="10.00"> place_2</text>
<polygon fill="#eeffee" stroke="none" points="18,-117 18,-130 202,-130 202,-117 18,-117"/>
<text text-anchor="start" x="19" y="-122" font-family="Times,serif" font-weight="bold" font-size="10.00">обновить экипировку бесплатно</text>
<polygon fill="none" stroke="black" points="17,-116.5 17,-171.5 203,-171.5 203,-116.5 17,-116.5"/>
</g>
<!-- [ns&#45;0]upgrade_for_quest&#45;&gt;[ns&#45;0]finish_successed -->
<g id="edge3" class="edge"><title>[ns&#45;0]upgrade_for_quest:[ns&#45;0]upgrade_for_quest&#45;&gt;[ns&#45;0]finish_successed:[ns&#45;0]finish_successed</title>
<path fill="none" stroke="black" d="M154.613,-116.487C174.638,-104.587 198.645,-90.3196 220.571,-77.2895"/>
<polygon fill="black" stroke="black" points="222.369,-80.2919 229.178,-72.1743 218.793,-74.2744 222.369,-80.2919"/>
</g>
<!-- #answer(False, [ns&#45;0]arriving, [ns&#45;1]start) -->
<g id="node11" class="node"><title>#answer(False, [ns&#45;0]arriving, [ns&#45;1]start)</title>
<polygon fill="#ffffff" stroke="none" points="291,-542 291,-556 393,-556 393,-542 291,-542"/>
<text text-anchor="start" x="292" y="-546.5" font-family="Times,serif" font-size="10.00">ЛОЖЬ</text>
<polygon fill="#eeeeee" stroke="none" points="291,-529 291,-542 393,-542 393,-529 291,-529"/>
<text text-anchor="start" x="292" y="-534" font-family="Times,serif" font-weight="bold" font-size="10.00">сообщение:</text>
<text text-anchor="start" x="344" y="-534" font-family="Times,serif" font-size="10.00"> start_quest</text>
</g>
<!-- [ns&#45;0]arriving&#45;&gt;#answer(False, [ns&#45;0]arriving, [ns&#45;1]start) -->
<g id="edge7" class="edge"><title>[ns&#45;0]arriving:[ns&#45;0]arriving&#45;&gt;#answer(False, [ns&#45;0]arriving, [ns&#45;1]start):#answer(False, [ns&#45;0]arriving, [ns&#45;1]start)</title>
<path fill="none" stroke="black" d="M383.799,-600.998C372.468,-585.547 359.643,-568.059 351.223,-556.576"/>
</g>
<!-- #answer(True, [ns&#45;0]arriving, [ns&#45;0]upgrade_for_money) -->
<g id="node12" class="node"><title>#answer(True, [ns&#45;0]arriving, [ns&#45;0]upgrade_for_money)</title>
<polygon fill="#ffffff" stroke="none" points="451,-536 451,-550 497,-550 497,-536 451,-536"/>
<text text-anchor="start" x="452" y="-540.5" font-family="Times,serif" font-size="10.00">ИСТИНА</text>
</g>
<!-- [ns&#45;0]arriving&#45;&gt;#answer(True, [ns&#45;0]arriving, [ns&#45;0]upgrade_for_money) -->
<g id="edge9" class="edge"><title>[ns&#45;0]arriving:[ns&#45;0]arriving&#45;&gt;#answer(True, [ns&#45;0]arriving, [ns&#45;0]upgrade_for_money):#answer(True, [ns&#45;0]arriving, [ns&#45;0]upgrade_for_money)</title>
<path fill="none" stroke="black" d="M432.201,-600.998C445.887,-582.336 461.751,-560.703 469.403,-550.268"/>
</g>
<!-- #jump([ns&#45;1]finish_failed, [ns&#45;0]finish_quest_failed)&#45;&gt;[ns&#45;0]finish_quest_failed -->
<g id="edge2" class="edge"><title>#jump([ns&#45;1]finish_failed, [ns&#45;0]finish_quest_failed):#jump([ns&#45;1]finish_failed, [ns&#45;0]finish_quest_failed)&#45;&gt;[ns&#45;0]finish_quest_failed:[ns&#45;0]finish_quest_failed</title>
<path fill="none" stroke="black" d="M302.791,-222.959C303.931,-214.257 306.124,-197.504 308.187,-181.752"/>
<polygon fill="black" stroke="black" points="311.683,-182.009 309.512,-171.639 304.743,-181.1 311.683,-182.009"/>
</g>
<!-- #answer(False, [ns&#45;0]arriving, [ns&#45;1]start)&#45;&gt;[ns&#45;1]start -->
<g id="edge8" class="edge"><title>#answer(False, [ns&#45;0]arriving, [ns&#45;1]start):#answer(False, [ns&#45;0]arriving, [ns&#45;1]start)&#45;&gt;[ns&#45;1]start:[ns&#45;1]start</title>
<path fill="none" stroke="black" d="M334.862,-529.242C327.674,-516.396 316.431,-496.303 307.716,-480.727"/>
<polygon fill="black" stroke="black" points="310.612,-478.735 302.675,-471.717 304.503,-482.153 310.612,-478.735"/>
</g>
<!-- #answer(True, [ns&#45;0]arriving, [ns&#45;0]upgrade_for_money)&#45;&gt;[ns&#45;0]upgrade_for_money -->
<g id="edge10" class="edge"><title>#answer(True, [ns&#45;0]arriving, [ns&#45;0]upgrade_for_money):#answer(True, [ns&#45;0]arriving, [ns&#45;0]upgrade_for_money)&#45;&gt;[ns&#45;0]upgrade_for_money:[ns&#45;0]upgrade_for_money</title>
<path fill="none" stroke="black" d="M475.726,-535.959C478.236,-527.174 483.09,-510.184 487.628,-494.302"/>
<polygon fill="black" stroke="black" points="491.007,-495.216 490.389,-484.639 484.276,-493.293 491.007,-495.216"/>
</g>
<!-- #jump([ns&#45;1]finish_successed, [ns&#45;0]upgrade_for_quest)&#45;&gt;[ns&#45;0]upgrade_for_quest -->
<g id="edge13" class="edge"><title>#jump([ns&#45;1]finish_successed, [ns&#45;0]upgrade_for_quest):#jump([ns&#45;1]finish_successed, [ns&#45;0]upgrade_for_quest)&#45;&gt;[ns&#45;0]upgrade_for_quest:[ns&#45;0]upgrade_for_quest</title>
<path fill="none" stroke="black" d="M110,-222.959C110,-214.257 110,-197.504 110,-181.752"/>
<polygon fill="black" stroke="black" points="113.5,-181.639 110,-171.639 106.5,-181.639 113.5,-181.639"/>
</g>
</g>
</svg>
