<?xml version="1.0" encoding="UTF-8" standalone="no"?>
<!DOCTYPE svg PUBLIC "-//W3C//DTD SVG 1.1//EN"
 "http://www.w3.org/Graphics/SVG/1.1/DTD/svg11.dtd">
<!-- Generated by graphviz version 2.38.0 (20140413.2041)
 -->
<!-- Title: quest Pages: 1 -->
<svg width="538pt" height="759pt"
 viewBox="0.00 0.00 537.50 759.00" xmlns="http://www.w3.org/2000/svg" xmlns:xlink="http://www.w3.org/1999/xlink">
<g id="graph0" class="graph" transform="scale(1 1) rotate(0) translate(4 755)">
<title>quest</title>
<polygon fill="white" stroke="none" points="-4,4 -4,-755 533.5,-755 533.5,4 -4,4"/>
<g id="clust1" class="cluster"><title>cluster_[ns&#45;0]help_subquest</title>
<polygon fill="#96ffff" stroke="black" points="8,-252 8,-488 342,-488 342,-252 8,-252"/>
<text text-anchor="middle" x="175" y="-472.8" font-family="Times,serif" font-size="14.00">cluster_[ns&#45;0]help_subquest</text>
</g>
<g id="clust2" class="cluster"><title>cluster_[ns&#45;1]event</title>
<polygon fill="#ffffdd" stroke="black" points="16,-260 16,-400 334,-400 334,-260 16,-260"/>
<text text-anchor="middle" x="175" y="-384.8" font-family="Times,serif" font-size="14.00">cluster_[ns&#45;1]event</text>
</g>
<!-- [ns&#45;1]start -->
<g id="node1" class="node"><title>[ns&#45;1]start</title>
<polygon fill="#eeeeee" stroke="none" points="193.5,-425 193.5,-453 324.5,-453 324.5,-425 193.5,-425"/>
<text text-anchor="start" x="196" y="-444" font-family="Times,serif" font-style="italic" font-size="10.00">[ns&#45;1]start</text>
<text text-anchor="start" x="281.5" y="-444" font-family="Times,serif" font-weight="bold" font-size="10.00">simple</text>
<text text-anchor="start" x="196" y="-430" font-family="Times,serif" font-size="10.00">Начало: самый простой квест</text>
<polygon fill="none" stroke="black" points="193.5,-425 193.5,-453 324.5,-453 324.5,-425 193.5,-425"/>
</g>
<!-- [ns&#45;1]finish_successed -->
<g id="node5" class="node"><title>[ns&#45;1]finish_successed</title>
<polygon fill="#eeeeee" stroke="none" points="32,-272 32,-365 172,-365 172,-272 32,-272"/>
<text text-anchor="start" x="34" y="-355.5" font-family="Times,serif" font-style="italic" font-size="10.00">[ns&#45;1]finish_successed</text>
<text text-anchor="start" x="34" y="-341.5" font-family="Times,serif" font-size="10.00">завершить задание удачно</text>
<polygon fill="#eeeeee" stroke="none" points="33,-324.5 33,-337.5 171,-337.5 171,-324.5 33,-324.5"/>
<text text-anchor="start" x="34" y="-329.5" font-family="Times,serif" font-weight="bold" font-size="10.00">результаты:</text>
<text text-anchor="start" x="34" y="-316.5" font-family="Times,serif" font-weight="bold" font-size="10.00">person_2</text>
<text text-anchor="start" x="130" y="-315.5" font-family="Times,serif" font-size="10.00">successed</text>
<text text-anchor="start" x="34" y="-303.5" font-family="Times,serif" font-weight="bold" font-size="10.00">person_7</text>
<text text-anchor="start" x="130" y="-302.5" font-family="Times,serif" font-size="10.00">successed</text>
<text text-anchor="start" x="34" y="-290.5" font-family="Times,serif" font-weight="bold" font-size="10.00">place_2</text>
<text text-anchor="start" x="130" y="-289.5" font-family="Times,serif" font-size="10.00">successed</text>
<text text-anchor="start" x="34" y="-277.5" font-family="Times,serif" font-weight="bold" font-size="10.00">place_7</text>
<text text-anchor="start" x="130" y="-276.5" font-family="Times,serif" font-size="10.00">successed</text>
<polygon fill="none" stroke="black" points="32,-272 32,-365 172,-365 172,-272 32,-272"/>
</g>
<!-- [ns&#45;1]start&#45;&gt;[ns&#45;1]finish_successed -->
<g id="edge11" class="edge"><title>[ns&#45;1]start:[ns&#45;1]start&#45;&gt;[ns&#45;1]finish_successed:[ns&#45;1]finish_successed</title>
<path fill="none" stroke="black" d="M231.129,-424.894C217.9,-418.174 202.149,-409.426 189,-400 177.314,-391.622 165.526,-381.821 154.561,-371.996"/>
<polygon fill="black" stroke="black" points="156.863,-369.358 147.114,-365.209 152.147,-374.532 156.863,-369.358"/>
</g>
<!-- [ns&#45;1]finish_failed -->
<g id="node6" class="node"><title>[ns&#45;1]finish_failed</title>
<polygon fill="#eeeeee" stroke="none" points="206,-272 206,-365 318,-365 318,-272 206,-272"/>
<text text-anchor="start" x="208" y="-355.5" font-family="Times,serif" font-style="italic" font-size="10.00">[ns&#45;1]finish_failed</text>
<text text-anchor="start" x="208" y="-341.5" font-family="Times,serif" font-size="10.00">завершить задание плохо</text>
<polygon fill="#eeeeee" stroke="none" points="207,-324.5 207,-337.5 317,-337.5 317,-324.5 207,-324.5"/>
<text text-anchor="start" x="208" y="-329.5" font-family="Times,serif" font-weight="bold" font-size="10.00">результаты:</text>
<text text-anchor="start" x="208" y="-316.5" font-family="Times,serif" font-weight="bold" font-size="10.00">person_2</text>
<text text-anchor="start" x="290" y="-315.5" font-family="Times,serif" font-size="10.00">failed</text>
<text text-anchor="start" x="208" y="-303.5" font-family="Times,serif" font-weight="bold" font-size="10.00">person_7</text>
<text text-anchor="start" x="290" y="-302.5" font-family="Times,serif" font-size="10.00">failed</text>
<text text-anchor="start" x="208" y="-290.5" font-family="Times,serif" font-weight="bold" font-size="10.00">place_2</text>
<text text-anchor="start" x="290" y="-289.5" font-family="Times,serif" font-size="10.00">failed</text>
<text text-anchor="start" x="208" y="-277.5" font-family="Times,serif" font-weight="bold" font-size="10.00">place_7</text>
<text text-anchor="start" x="290" y="-276.5" font-family="Times,serif" font-size="10.00">failed</text>
<polygon fill="none" stroke="black" points="206,-272 206,-365 318,-365 318,-272 206,-272"/>
</g>
<!-- [ns&#45;1]start&#45;&gt;[ns&#45;1]finish_failed -->
<g id="edge5" class="edge"><title>[ns&#45;1]start:[ns&#45;1]start&#45;&gt;[ns&#45;1]finish_failed:[ns&#45;1]finish_failed</title>
<path fill="none" stroke="black" d="M259.333,-424.866C259.64,-412.714 260.119,-393.789 260.587,-375.312"/>
<polygon fill="black" stroke="black" points="264.09,-375.224 260.845,-365.139 257.093,-375.047 264.09,-375.224"/>
</g>
<!-- [ns&#45;0]start_search_smith -->
<g id="node2" class="node"><title>[ns&#45;0]start_search_smith</title>
<polygon fill="#eeeeee" stroke="none" points="274.5,-693 274.5,-747 441.5,-747 441.5,-693 274.5,-693"/>
<text text-anchor="start" x="277" y="-738" font-family="Times,serif" font-style="italic" font-size="10.00">[ns&#45;0]start_search_smith</text>
<text text-anchor="start" x="383" y="-738" font-family="Times,serif" font-weight="bold" font-size="10.00">search_smith</text>
<text text-anchor="start" x="277" y="-724" font-family="Times,serif" font-size="10.00">Начало: посещение кузнеца</text>
<polygon fill="#dddddd" stroke="none" points="276,-707 276,-720 441,-720 441,-707 276,-707"/>
<text text-anchor="start" x="277" y="-712" font-family="Times,serif" font-size="10.00">hero </text>
<text text-anchor="start" x="298" y="-712" font-family="Times,serif" font-weight="bold" font-size="10.00">находится в</text>
<text text-anchor="start" x="353" y="-712" font-family="Times,serif" font-size="10.00"> place_1</text>
<polygon fill="#ffffff" stroke="none" points="276,-694 276,-707 441,-707 441,-694 276,-694"/>
<text text-anchor="start" x="277" y="-699" font-family="Times,serif" font-weight="bold" font-size="10.00">сообщение:</text>
<text text-anchor="start" x="329" y="-699" font-family="Times,serif" font-size="10.00"> intro</text>
<polygon fill="none" stroke="black" points="274.5,-693 274.5,-747 441.5,-747 441.5,-693 274.5,-693"/>
</g>
<!-- [ns&#45;0]arriving -->
<g id="node9" class="node"><title>[ns&#45;0]arriving</title>
<polygon fill="#ffdddd" stroke="none" points="276,-582 276,-649 440,-649 440,-582 276,-582"/>
<text text-anchor="start" x="278" y="-639.5" font-family="Times,serif" font-style="italic" font-size="10.00">[ns&#45;0]arriving</text>
<text text-anchor="start" x="278" y="-625.5" font-family="Times,serif" font-size="10.00">Прибытие в город</text>
<polygon fill="#eecccc" stroke="none" points="277,-608.5 277,-621.5 439,-621.5 439,-608.5 277,-608.5"/>
<text text-anchor="start" x="278" y="-613.5" font-family="Times,serif" font-size="10.00">hero </text>
<text text-anchor="start" x="299" y="-613.5" font-family="Times,serif" font-weight="bold" font-size="10.00">находится в</text>
<text text-anchor="start" x="354" y="-613.5" font-family="Times,serif" font-size="10.00"> place_2</text>
<polygon fill="#ffdddd" stroke="none" points="277,-595.5 277,-608.5 439,-608.5 439,-595.5 277,-595.5"/>
<text text-anchor="start" x="278" y="-600.5" font-family="Times,serif" font-weight="bold" font-size="10.00">условия:</text>
<text text-anchor="start" x="278" y="-587.5" font-family="Times,serif" font-weight="bold" font-size="10.00">если </text>
<polygon fill="#ffdddd" stroke="none" points="338,-582.5 338,-595.5 439,-595.5 439,-582.5 338,-582.5"/>
<text text-anchor="start" x="339" y="-587.5" font-family="Times,serif" font-size="10.00">hero </text>
<text text-anchor="start" x="360" y="-587.5" font-family="Times,serif" font-weight="bold" font-size="10.00">имеет </text>
<text text-anchor="start" x="389" y="-587.5" font-family="Times,serif" font-size="10.00"> 777 </text>
<text text-anchor="start" x="410" y="-587.5" font-family="Times,serif" font-weight="bold" font-size="10.00">монет</text>
<polygon fill="none" stroke="black" points="276,-582 276,-649 440,-649 440,-582 276,-582"/>
</g>
<!-- [ns&#45;0]start_search_smith&#45;&gt;[ns&#45;0]arriving -->
<g id="edge4" class="edge"><title>[ns&#45;0]start_search_smith:[ns&#45;0]start_search_smith&#45;&gt;[ns&#45;0]arriving:[ns&#45;0]arriving</title>
<path fill="none" stroke="black" d="M358,-692.87C358,-682.698 358,-670.771 358,-659.407"/>
<polygon fill="black" stroke="black" points="361.5,-659.196 358,-649.196 354.5,-659.196 361.5,-659.196"/>
</g>
<!-- [ns&#45;0]finish_quest_failed -->
<g id="node3" class="node"><title>[ns&#45;0]finish_quest_failed</title>
<polygon fill="#eeeeee" stroke="none" points="214,-102 214,-156 354,-156 354,-102 214,-102"/>
<text text-anchor="start" x="216" y="-147" font-family="Times,serif" font-style="italic" font-size="10.00">[ns&#45;0]finish_quest_failed</text>
<text text-anchor="start" x="216" y="-133" font-family="Times,serif" font-size="10.00">завершить задание</text>
<polygon fill="#eeeeee" stroke="none" points="215,-116 215,-129 353,-129 353,-116 215,-116"/>
<text text-anchor="start" x="216" y="-121" font-family="Times,serif" font-weight="bold" font-size="10.00">результаты:</text>
<text text-anchor="start" x="216" y="-108" font-family="Times,serif" font-weight="bold" font-size="10.00">person_2</text>
<text text-anchor="start" x="323" y="-107" font-family="Times,serif" font-size="10.00">neutral</text>
<polygon fill="none" stroke="black" points="214,-102 214,-156 354,-156 354,-102 214,-102"/>
</g>
<!-- [ns&#45;0]upgrade_for_money -->
<g id="node4" class="node"><title>[ns&#45;0]upgrade_for_money</title>
<polygon fill="#ddffdd" stroke="none" points="358.5,-412 358.5,-466 521.5,-466 521.5,-412 358.5,-412"/>
<text text-anchor="start" x="361" y="-457" font-family="Times,serif" font-style="italic" font-size="10.00">[ns&#45;0]upgrade_for_money</text>
<text text-anchor="start" x="361" y="-443" font-family="Times,serif" font-size="10.00">Обновление экипировки за деньги</text>
<polygon fill="#cceecc" stroke="none" points="360,-426 360,-439 521,-439 521,-426 360,-426"/>
<text text-anchor="start" x="361" y="-431" font-family="Times,serif" font-size="10.00">hero </text>
<text text-anchor="start" x="382" y="-431" font-family="Times,serif" font-weight="bold" font-size="10.00">находится в</text>
<text text-anchor="start" x="437" y="-431" font-family="Times,serif" font-size="10.00"> place_2</text>
<polygon fill="#eeffee" stroke="none" points="360,-413 360,-426 521,-426 521,-413 360,-413"/>
<text text-anchor="start" x="361" y="-418" font-family="Times,serif" font-weight="bold" font-size="10.00">обновить экипировку за </text>
<text text-anchor="start" x="471" y="-418" font-family="Times,serif" font-size="10.00"> 777 </text>
<text text-anchor="start" x="492" y="-418" font-family="Times,serif" font-weight="bold" font-size="10.00">монет</text>
<polygon fill="none" stroke="black" points="358.5,-412 358.5,-466 521.5,-466 521.5,-412 358.5,-412"/>
</g>
<!-- [ns&#45;0]finish_successed -->
<g id="node8" class="node"><title>[ns&#45;0]finish_successed</title>
<polygon fill="#eeeeee" stroke="none" points="188,-4 188,-58 328,-58 328,-4 188,-4"/>
<text text-anchor="start" x="190" y="-49" font-family="Times,serif" font-style="italic" font-size="10.00">[ns&#45;0]finish_successed</text>
<text text-anchor="start" x="190" y="-35" font-family="Times,serif" font-size="10.00">завершить задание</text>
<polygon fill="#eeeeee" stroke="none" points="189,-18 189,-31 327,-31 327,-18 189,-18"/>
<text text-anchor="start" x="190" y="-23" font-family="Times,serif" font-weight="bold" font-size="10.00">результаты:</text>
<text text-anchor="start" x="190" y="-10" font-family="Times,serif" font-weight="bold" font-size="10.00">person_2</text>
<text text-anchor="start" x="286" y="-9" font-family="Times,serif" font-size="10.00">successed</text>
<polygon fill="none" stroke="black" points="188,-4 188,-58 328,-58 328,-4 188,-4"/>
</g>
<!-- [ns&#45;0]upgrade_for_money&#45;&gt;[ns&#45;0]finish_successed -->
<g id="edge6" class="edge"><title>[ns&#45;0]upgrade_for_money:[ns&#45;0]upgrade_for_money&#45;&gt;[ns&#45;0]finish_successed:[ns&#45;0]finish_successed</title>
<path fill="none" stroke="black" d="M441.554,-411.751C443.824,-350.665 441.636,-196.692 371,-98 360.997,-84.0233 347.037,-72.5436 332.334,-63.3055"/>
<polygon fill="black" stroke="black" points="333.999,-60.2239 323.615,-58.1234 330.423,-66.2413 333.999,-60.2239"/>
</g>
<!-- #jump([ns&#45;1]finish_successed, [ns&#45;0]upgrade_for_quest) -->
<g id="node13" class="node"><title>#jump([ns&#45;1]finish_successed, [ns&#45;0]upgrade_for_quest)</title>
<polygon fill="#eeeeee" stroke="none" points="40,-207 40,-220 164,-220 164,-207 40,-207"/>
<text text-anchor="start" x="41" y="-212" font-family="Times,serif" font-weight="bold" font-size="10.00">сообщение:</text>
<text text-anchor="start" x="93" y="-212" font-family="Times,serif" font-size="10.00"> quest_successed</text>
</g>
<!-- [ns&#45;1]finish_successed&#45;&gt;#jump([ns&#45;1]finish_successed, [ns&#45;0]upgrade_for_quest) -->
<g id="edge12" class="edge"><title>[ns&#45;1]finish_successed:[ns&#45;1]finish_successed&#45;&gt;#jump([ns&#45;1]finish_successed, [ns&#45;0]upgrade_for_quest):#jump([ns&#45;1]finish_successed, [ns&#45;0]upgrade_for_quest)</title>
<path fill="none" stroke="black" d="M102,-271.945C102,-251.841 102,-230.554 102,-220.664"/>
</g>
<!-- #jump([ns&#45;1]finish_failed, [ns&#45;0]finish_quest_failed) -->
<g id="node10" class="node"><title>#jump([ns&#45;1]finish_failed, [ns&#45;0]finish_quest_failed)</title>
<polygon fill="#eeeeee" stroke="none" points="220,-207 220,-220 327,-220 327,-207 220,-207"/>
<text text-anchor="start" x="221" y="-212" font-family="Times,serif" font-weight="bold" font-size="10.00">сообщение:</text>
<text text-anchor="start" x="273" y="-212" font-family="Times,serif" font-size="10.00"> quest_failed</text>
</g>
<!-- [ns&#45;1]finish_failed&#45;&gt;#jump([ns&#45;1]finish_failed, [ns&#45;0]finish_quest_failed) -->
<g id="edge1" class="edge"><title>[ns&#45;1]finish_failed:[ns&#45;1]finish_failed&#45;&gt;#jump([ns&#45;1]finish_failed, [ns&#45;0]finish_quest_failed):#jump([ns&#45;1]finish_failed, [ns&#45;0]finish_quest_failed)</title>
<path fill="none" stroke="black" d="M266.889,-271.945C269.046,-251.841 271.331,-230.554 272.392,-220.664"/>
</g>
<!-- [ns&#45;0]upgrade_for_quest -->
<g id="node7" class="node"><title>[ns&#45;0]upgrade_for_quest</title>
<polygon fill="#ddffdd" stroke="none" points="24,-102 24,-156 180,-156 180,-102 24,-102"/>
<text text-anchor="start" x="26" y="-147" font-family="Times,serif" font-style="italic" font-size="10.00">[ns&#45;0]upgrade_for_quest</text>
<text text-anchor="start" x="26" y="-133" font-family="Times,serif" font-size="10.00">Обновление экипировки за задание</text>
<polygon fill="#cceecc" stroke="none" points="25,-116 25,-129 179,-129 179,-116 25,-116"/>
<text text-anchor="start" x="26" y="-121" font-family="Times,serif" font-size="10.00">hero </text>
<text text-anchor="start" x="47" y="-121" font-family="Times,serif" font-weight="bold" font-size="10.00">находится в</text>
<text text-anchor="start" x="102" y="-121" font-family="Times,serif" font-size="10.00"> place_2</text>
<polygon fill="#eeffee" stroke="none" points="25,-103 25,-116 179,-116 179,-103 25,-103"/>
<text text-anchor="start" x="26" y="-108" font-family="Times,serif" font-weight="bold" font-size="10.00">обновить экипировку бесплатно</text>
<polygon fill="none" stroke="black" points="24,-102 24,-156 180,-156 180,-102 24,-102"/>
</g>
<!-- [ns&#45;0]upgrade_for_quest&#45;&gt;[ns&#45;0]finish_successed -->
<g id="edge3" class="edge"><title>[ns&#45;0]upgrade_for_quest:[ns&#45;0]upgrade_for_quest&#45;&gt;[ns&#45;0]finish_successed:[ns&#45;0]finish_successed</title>
<path fill="none" stroke="black" d="M144.628,-101.768C163.881,-89.9196 186.781,-75.8268 206.944,-63.4192"/>
<polygon fill="black" stroke="black" points="209.012,-66.2562 215.694,-58.0344 205.343,-60.2946 209.012,-66.2562"/>
</g>
<!-- #answer(False, [ns&#45;0]arriving, [ns&#45;1]start) -->
<g id="node11" class="node"><title>#answer(False, [ns&#45;0]arriving, [ns&#45;1]start)</title>
<polygon fill="#ffffff" stroke="none" points="246,-524 246,-537 347,-537 347,-524 246,-524"/>
<text text-anchor="start" x="247" y="-528" font-family="Times,serif" font-size="10.00">ЛОЖЬ</text>
<polygon fill="#eeeeee" stroke="none" points="246,-511 246,-524 347,-524 347,-511 246,-511"/>
<text text-anchor="start" x="247" y="-516" font-family="Times,serif" font-weight="bold" font-size="10.00">сообщение:</text>
<text text-anchor="start" x="299" y="-516" font-family="Times,serif" font-size="10.00"> start_quest</text>
</g>
<!-- [ns&#45;0]arriving&#45;&gt;#answer(False, [ns&#45;0]arriving, [ns&#45;1]start) -->
<g id="edge7" class="edge"><title>[ns&#45;0]arriving:[ns&#45;0]arriving&#45;&gt;#answer(False, [ns&#45;0]arriving, [ns&#45;1]start):#answer(False, [ns&#45;0]arriving, [ns&#45;1]start)</title>
<path fill="none" stroke="black" d="M335.441,-581.935C324.639,-566.341 312.356,-548.61 304.408,-537.137"/>
</g>
<!-- #answer(True, [ns&#45;0]arriving, [ns&#45;0]upgrade_for_money) -->
<g id="node12" class="node"><title>#answer(True, [ns&#45;0]arriving, [ns&#45;0]upgrade_for_money)</title>
<polygon fill="#ffffff" stroke="none" points="399,-517 399,-530 444,-530 444,-517 399,-517"/>
<text text-anchor="start" x="400" y="-521" font-family="Times,serif" font-size="10.00">ИСТИНА</text>
</g>
<!-- [ns&#45;0]arriving&#45;&gt;#answer(True, [ns&#45;0]arriving, [ns&#45;0]upgrade_for_money) -->
<g id="edge9" class="edge"><title>[ns&#45;0]arriving:[ns&#45;0]arriving&#45;&gt;#answer(True, [ns&#45;0]arriving, [ns&#45;0]upgrade_for_money):#answer(True, [ns&#45;0]arriving, [ns&#45;0]upgrade_for_money)</title>
<path fill="none" stroke="black" d="M380.923,-581.935C394.292,-562.942 409.892,-540.78 417.048,-530.615"/>
</g>
<!-- #jump([ns&#45;1]finish_failed, [ns&#45;0]finish_quest_failed)&#45;&gt;[ns&#45;0]finish_quest_failed -->
<g id="edge2" class="edge"><title>#jump([ns&#45;1]finish_failed, [ns&#45;0]finish_quest_failed):#jump([ns&#45;1]finish_failed, [ns&#45;0]finish_quest_failed)&#45;&gt;[ns&#45;0]finish_quest_failed:[ns&#45;0]finish_quest_failed</title>
<path fill="none" stroke="black" d="M273.756,-207.295C274.887,-198.763 277.11,-181.992 279.196,-166.246"/>
<polygon fill="black" stroke="black" points="282.691,-166.517 280.535,-156.144 275.752,-165.598 282.691,-166.517"/>
</g>
<!-- #answer(False, [ns&#45;0]arriving, [ns&#45;1]start)&#45;&gt;[ns&#45;1]start -->
<g id="edge8" class="edge"><title>#answer(False, [ns&#45;0]arriving, [ns&#45;1]start):#answer(False, [ns&#45;0]arriving, [ns&#45;1]start)&#45;&gt;[ns&#45;1]start:[ns&#45;1]start</title>
<path fill="none" stroke="black" d="M290.541,-510.753C284.901,-498.102 275.972,-478.072 269.052,-462.548"/>
<polygon fill="black" stroke="black" points="272.117,-460.829 264.849,-453.12 265.724,-463.679 272.117,-460.829"/>
</g>
<!-- #answer(True, [ns&#45;0]arriving, [ns&#45;0]upgrade_for_money)&#45;&gt;[ns&#45;0]upgrade_for_money -->
<g id="edge10" class="edge"><title>#answer(True, [ns&#45;0]arriving, [ns&#45;0]upgrade_for_money):#answer(True, [ns&#45;0]arriving, [ns&#45;0]upgrade_for_money)&#45;&gt;[ns&#45;0]upgrade_for_money:[ns&#45;0]upgrade_for_money</title>
<path fill="none" stroke="black" d="M422.306,-517.295C424.259,-508.763 428.098,-491.992 431.703,-476.246"/>
<polygon fill="black" stroke="black" points="435.195,-476.673 434.015,-466.144 428.372,-475.111 435.195,-476.673"/>
</g>
<!-- #jump([ns&#45;1]finish_successed, [ns&#45;0]upgrade_for_quest)&#45;&gt;[ns&#45;0]upgrade_for_quest -->
<g id="edge13" class="edge"><title>#jump([ns&#45;1]finish_successed, [ns&#45;0]upgrade_for_quest):#jump([ns&#45;1]finish_successed, [ns&#45;0]upgrade_for_quest)&#45;&gt;[ns&#45;0]upgrade_for_quest:[ns&#45;0]upgrade_for_quest</title>
<path fill="none" stroke="black" d="M102,-207.295C102,-198.763 102,-181.992 102,-166.246"/>
<polygon fill="black" stroke="black" points="105.5,-166.144 102,-156.144 98.5001,-166.144 105.5,-166.144"/>
</g>
</g>
</svg>
