<?xml version="1.0" encoding="UTF-8" standalone="no"?>
<!DOCTYPE svg PUBLIC "-//W3C//DTD SVG 1.1//EN"
 "http://www.w3.org/Graphics/SVG/1.1/DTD/svg11.dtd">
<!-- Generated by graphviz version 2.34.0 (20130907.0221)
 -->
<!-- Title: quest Pages: 1 -->
<svg width="190pt" height="330pt"
 viewBox="0.00 0.00 190.00 330.00" xmlns="http://www.w3.org/2000/svg" xmlns:xlink="http://www.w3.org/1999/xlink">
<g id="graph0" class="graph" transform="scale(1 1) rotate(0) translate(4 326)">
<title>quest</title>
<polygon fill="white" stroke="white" points="-4,4 -4,-326 186,-326 186,4 -4,4"/>
<!-- [ns&#45;0]start -->
<g id="node1" class="node"><title>[ns&#45;0]start</title>
<polygon fill="#eeeeee" stroke="none" points="28.5,-262.5 28.5,-317.5 153.5,-317.5 153.5,-262.5 28.5,-262.5"/>
<text text-anchor="start" x="31" y="-307.5" font-family="Times,serif" font-style="italic" font-size="10.00">[ns&#45;0]start</text>
<text text-anchor="start" x="94" y="-307.5" font-family="Times,serif" font-weight="bold" font-size="10.00">search_smith</text>
<text text-anchor="start" x="31" y="-293" font-family="Times,serif" font-size="10.00">Начало: посещение кузнеца</text>
<polygon fill="#dddddd" stroke="none" points="30,-276 30,-289 153,-289 153,-276 30,-276"/>
<text text-anchor="start" x="31" y="-281" font-family="Times,serif" font-size="10.00">hero </text>
<text text-anchor="start" x="52" y="-281" font-family="Times,serif" font-weight="bold" font-size="10.00">находится в</text>
<text text-anchor="start" x="107" y="-281" font-family="Times,serif" font-size="10.00"> place_1</text>
<polygon fill="#ffffff" stroke="none" points="30,-263 30,-276 153,-276 153,-263 30,-263"/>
<text text-anchor="start" x="31" y="-268" font-family="Times,serif" font-weight="bold" font-size="10.00">сообщение:</text>
<text text-anchor="start" x="83" y="-268" font-family="Times,serif" font-size="10.00"> intro</text>
<polygon fill="none" stroke="black" points="28.5,-262.5 28.5,-317.5 153.5,-317.5 153.5,-262.5 28.5,-262.5"/>
</g>
<!-- [ns&#45;0]arriving -->
<g id="node4" class="node"><title>[ns&#45;0]arriving</title>
<polygon fill="#ddffdd" stroke="none" points="21,-176 21,-218 161,-218 161,-176 21,-176"/>
<text text-anchor="start" x="23" y="-208.5" font-family="Times,serif" font-style="italic" font-size="10.00">[ns&#45;0]arriving</text>
<text text-anchor="start" x="23" y="-194" font-family="Times,serif" font-size="10.00">Прибытие в город</text>
<polygon fill="#cceecc" stroke="none" points="22,-177 22,-190 160,-190 160,-177 22,-177"/>
<text text-anchor="start" x="23" y="-182" font-family="Times,serif" font-size="10.00">hero </text>
<text text-anchor="start" x="44" y="-182" font-family="Times,serif" font-weight="bold" font-size="10.00">находится в</text>
<text text-anchor="start" x="99" y="-182" font-family="Times,serif" font-size="10.00"> place_2</text>
<polygon fill="none" stroke="black" points="21,-176 21,-218 161,-218 161,-176 21,-176"/>
</g>
<!-- [ns&#45;0]start&#45;&gt;[ns&#45;0]arriving -->
<g id="edge2" class="edge"><title>[ns&#45;0]start:[ns&#45;0]start&#45;&gt;[ns&#45;0]arriving:[ns&#45;0]arriving</title>
<path fill="none" stroke="black" d="M91,-262.189C91,-251.542 91,-239.241 91,-228.275"/>
<polygon fill="black" stroke="black" points="94.5001,-228.266 91,-218.266 87.5001,-228.267 94.5001,-228.266"/>
</g>
<!-- [ns&#45;0]finish -->
<g id="node2" class="node"><title>[ns&#45;0]finish</title>
<polygon fill="#eeeeee" stroke="none" points="7.5,-4 7.5,-46 174.5,-46 174.5,-4 7.5,-4"/>
<text text-anchor="start" x="10" y="-36.5" font-family="Times,serif" font-style="italic" font-size="10.00">[ns&#45;0]finish</text>
<text text-anchor="start" x="113" y="-36.5" font-family="Times,serif" font-weight="bold" font-size="10.00">successed</text>
<text text-anchor="start" x="10" y="-22" font-family="Times,serif" font-size="10.00">завершить задание</text>
<polygon fill="#ffffff" stroke="none" points="9,-5 9,-18 174,-18 174,-5 9,-5"/>
<text text-anchor="start" x="10" y="-10" font-family="Times,serif" font-weight="bold" font-size="10.00">увеличить влияние </text>
<text text-anchor="start" x="98" y="-10" font-family="Times,serif" font-size="10.00">  place_2 </text>
<text text-anchor="start" x="138" y="-10" font-family="Times,serif" font-weight="bold" font-size="10.00">на </text>
<text text-anchor="start" x="151" y="-10" font-family="Times,serif" font-size="10.00"> 1.00</text>
<polygon fill="none" stroke="black" points="7.5,-4 7.5,-46 174.5,-46 174.5,-4 7.5,-4"/>
</g>
<!-- [ns&#45;0]upgrade -->
<g id="node3" class="node"><title>[ns&#45;0]upgrade</title>
<polygon fill="#ddffdd" stroke="none" points="29,-90 29,-132 153,-132 153,-90 29,-90"/>
<text text-anchor="start" x="31" y="-122.5" font-family="Times,serif" font-style="italic" font-size="10.00">[ns&#45;0]upgrade</text>
<text text-anchor="start" x="31" y="-108" font-family="Times,serif" font-size="10.00">Обновление экипировки</text>
<polygon fill="#eeffee" stroke="none" points="30,-91 30,-104 152,-104 152,-91 30,-91"/>
<text text-anchor="start" x="31" y="-95" font-family="Times,serif" font-size="10.00">None</text>
<polygon fill="none" stroke="black" points="29,-90 29,-132 153,-132 153,-90 29,-90"/>
</g>
<!-- [ns&#45;0]upgrade&#45;&gt;[ns&#45;0]finish -->
<g id="edge3" class="edge"><title>[ns&#45;0]upgrade:[ns&#45;0]upgrade&#45;&gt;[ns&#45;0]finish:[ns&#45;0]finish</title>
<path fill="none" stroke="black" d="M91,-89.6659C91,-79.6576 91,-67.3889 91,-56.302"/>
<polygon fill="black" stroke="black" points="94.5001,-56.1468 91,-46.1468 87.5001,-56.1468 94.5001,-56.1468"/>
</g>
<!-- [ns&#45;0]arriving&#45;&gt;[ns&#45;0]upgrade -->
<g id="edge1" class="edge"><title>[ns&#45;0]arriving:[ns&#45;0]arriving&#45;&gt;[ns&#45;0]upgrade:[ns&#45;0]upgrade</title>
<path fill="none" stroke="black" d="M91,-175.666C91,-165.658 91,-153.389 91,-142.302"/>
<polygon fill="black" stroke="black" points="94.5001,-142.147 91,-132.147 87.5001,-142.147 94.5001,-142.147"/>
</g>
</g>
</svg>
