<?xml version="1.0" encoding="UTF-8" standalone="no"?>
<!DOCTYPE svg PUBLIC "-//W3C//DTD SVG 1.1//EN"
 "http://www.w3.org/Graphics/SVG/1.1/DTD/svg11.dtd">
<!-- Generated by graphviz version 2.34.0 (20130907.0221)
 -->
<!-- Title: quest Pages: 1 -->
<svg width="384pt" height="139pt"
 viewBox="0.00 0.00 384.00 139.00" xmlns="http://www.w3.org/2000/svg" xmlns:xlink="http://www.w3.org/1999/xlink">
<g id="graph0" class="graph" transform="scale(1 1) rotate(0) translate(4 135)">
<title>quest</title>
<polygon fill="white" stroke="white" points="-4,4 -4,-135 380,-135 380,4 -4,4"/>
<g id="clust1" class="cluster"><title>cluster_[ns&#45;0]event</title>
<polygon fill="#ffffdd" stroke="black" points="8,-8 8,-85 368,-85 368,-8 8,-8"/>
<text text-anchor="middle" x="188" y="-69.8" font-family="Times,serif" font-size="14.00">cluster_[ns&#45;0]event</text>
</g>
<!-- [ns&#45;0]start -->
<g id="node1" class="node"><title>[ns&#45;0]start</title>
<polygon fill="#eeeeee" stroke="none" points="125.5,-97.5 125.5,-126.5 258.5,-126.5 258.5,-97.5 125.5,-97.5"/>
<text text-anchor="start" x="128" y="-116.5" font-family="Times,serif" font-style="italic" font-size="10.00">[ns&#45;0]start</text>
<text text-anchor="start" x="211.5" y="-116.5" font-family="Times,serif" font-weight="bold" font-size="10.00">simple</text>
<text text-anchor="start" x="128" y="-102" font-family="Times,serif" font-size="10.00">Начало: самый простой квест</text>
<polygon fill="none" stroke="black" points="125.5,-97.5 125.5,-126.5 258.5,-126.5 258.5,-97.5 125.5,-97.5"/>
</g>
<!-- [ns&#45;0]finish_failed -->
<g id="node2" class="node"><title>[ns&#45;0]finish_failed</title>
<polygon fill="#eeeeee" stroke="none" points="214,-20.5 214,-49.5 352,-49.5 352,-20.5 214,-20.5"/>
<text text-anchor="start" x="216" y="-39.5" font-family="Times,serif" font-style="italic" font-size="10.00">[ns&#45;0]finish_failed</text>
<text text-anchor="start" x="311" y="-39.5" font-family="Times,serif" font-weight="bold" font-size="10.00">failed</text>
<text text-anchor="start" x="216" y="-25" font-family="Times,serif" font-size="10.00">завершить задание плохо</text>
<polygon fill="none" stroke="black" points="214,-20.5 214,-49.5 352,-49.5 352,-20.5 214,-20.5"/>
</g>
<!-- [ns&#45;0]start&#45;&gt;[ns&#45;0]finish_failed -->
<g id="edge2" class="edge"><title>[ns&#45;0]start:[ns&#45;0]start&#45;&gt;[ns&#45;0]finish_failed:[ns&#45;0]finish_failed</title>
<path fill="none" stroke="black" d="M208.691,-97.2438C222.673,-85.7201 242.821,-69.1146 258.611,-56.1009"/>
<polygon fill="black" stroke="black" points="260.924,-58.7299 266.415,-49.6689 256.472,-53.3281 260.924,-58.7299"/>
</g>
<!-- [ns&#45;0]finish_successed -->
<g id="node3" class="node"><title>[ns&#45;0]finish_successed</title>
<polygon fill="#eeeeee" stroke="none" points="24,-20.5 24,-49.5 180,-49.5 180,-20.5 24,-20.5"/>
<text text-anchor="start" x="26" y="-39.5" font-family="Times,serif" font-style="italic" font-size="10.00">[ns&#45;0]finish_successed</text>
<text text-anchor="start" x="130.5" y="-39.5" font-family="Times,serif" font-weight="bold" font-size="10.00">successed</text>
<text text-anchor="start" x="26" y="-25" font-family="Times,serif" font-size="10.00">завершить задание удачно</text>
<polygon fill="none" stroke="black" points="24,-20.5 24,-49.5 180,-49.5 180,-20.5 24,-20.5"/>
</g>
<!-- [ns&#45;0]start&#45;&gt;[ns&#45;0]finish_successed -->
<g id="edge1" class="edge"><title>[ns&#45;0]start:[ns&#45;0]start&#45;&gt;[ns&#45;0]finish_successed:[ns&#45;0]finish_successed</title>
<path fill="none" stroke="black" d="M175.493,-97.2438C161.664,-85.7201 141.738,-69.1146 126.121,-56.1009"/>
<polygon fill="black" stroke="black" points="128.326,-53.382 118.403,-49.6689 123.844,-58.7596 128.326,-53.382"/>
</g>
</g>
</svg>
