<?xml version="1.0" encoding="UTF-8" standalone="no"?>
<!DOCTYPE svg PUBLIC "-//W3C//DTD SVG 1.1//EN"
 "http://www.w3.org/Graphics/SVG/1.1/DTD/svg11.dtd">
<!-- Generated by graphviz version 2.34.0 (20130907.0221)
 -->
<!-- Title: quest Pages: 1 -->
<svg width="244pt" height="284pt"
 viewBox="0.00 0.00 244.00 284.00" xmlns="http://www.w3.org/2000/svg" xmlns:xlink="http://www.w3.org/1999/xlink">
<g id="graph0" class="graph" transform="scale(1 1) rotate(0) translate(4 280)">
<title>quest</title>
<polygon fill="white" stroke="white" points="-4,4 -4,-280 240,-280 240,4 -4,4"/>
<!-- [ns&#45;0]start -->
<g id="node1" class="node"><title>[ns&#45;0]start</title>
<polygon fill="#eeeeee" stroke="none" points="53.5,-216.5 53.5,-271.5 182.5,-271.5 182.5,-216.5 53.5,-216.5"/>
<text text-anchor="start" x="56" y="-261.5" font-family="Times,serif" font-style="italic" font-size="10.00">[ns&#45;0]start</text>
<text text-anchor="start" x="133" y="-261.5" font-family="Times,serif" font-weight="bold" font-size="10.00">simplest</text>
<text text-anchor="start" x="56" y="-247" font-family="Times,serif" font-size="10.00">Начало: простейшее задание</text>
<polygon fill="#dddddd" stroke="none" points="55,-230 55,-243 182,-243 182,-230 55,-230"/>
<text text-anchor="start" x="56" y="-235" font-family="Times,serif" font-size="10.00">hero </text>
<text text-anchor="start" x="77" y="-235" font-family="Times,serif" font-weight="bold" font-size="10.00">находится в</text>
<text text-anchor="start" x="132" y="-235" font-family="Times,serif" font-size="10.00"> place_1</text>
<polygon fill="#ffffff" stroke="none" points="55,-217 55,-230 182,-230 182,-217 55,-217"/>
<text text-anchor="start" x="56" y="-222" font-family="Times,serif" font-weight="bold" font-size="10.00">сообщение:</text>
<text text-anchor="start" x="108" y="-222" font-family="Times,serif" font-size="10.00"> intro</text>
<polygon fill="none" stroke="black" points="53.5,-216.5 53.5,-271.5 182.5,-271.5 182.5,-216.5 53.5,-216.5"/>
</g>
<!-- [ns&#45;0]arriving -->
<g id="node3" class="node"><title>[ns&#45;0]arriving</title>
<polygon fill="#ddffdd" stroke="none" points="57.5,-130 57.5,-172 178.5,-172 178.5,-130 57.5,-130"/>
<text text-anchor="start" x="60" y="-162.5" font-family="Times,serif" font-style="italic" font-size="10.00">[ns&#45;0]arriving</text>
<text text-anchor="start" x="60" y="-148" font-family="Times,serif" font-size="10.00">Прибытие в другой город</text>
<polygon fill="#cceecc" stroke="none" points="59,-131 59,-144 178,-144 178,-131 59,-131"/>
<text text-anchor="start" x="60" y="-136" font-family="Times,serif" font-size="10.00">hero </text>
<text text-anchor="start" x="81" y="-136" font-family="Times,serif" font-weight="bold" font-size="10.00">находится в</text>
<text text-anchor="start" x="136" y="-136" font-family="Times,serif" font-size="10.00"> place_3</text>
<polygon fill="none" stroke="black" points="57.5,-130 57.5,-172 178.5,-172 178.5,-130 57.5,-130"/>
</g>
<!-- [ns&#45;0]start&#45;&gt;[ns&#45;0]arriving -->
<g id="edge2" class="edge"><title>[ns&#45;0]start:[ns&#45;0]start&#45;&gt;[ns&#45;0]arriving:[ns&#45;0]arriving</title>
<path fill="none" stroke="black" d="M118,-216.189C118,-205.542 118,-193.241 118,-182.275"/>
<polygon fill="black" stroke="black" points="121.5,-182.266 118,-172.266 114.5,-182.267 121.5,-182.266"/>
</g>
<!-- [ns&#45;0]finish -->
<g id="node2" class="node"><title>[ns&#45;0]finish</title>
<polygon fill="#eeeeee" stroke="none" points="7.5,-4.5 7.5,-85.5 228.5,-85.5 228.5,-4.5 7.5,-4.5"/>
<text text-anchor="start" x="10" y="-75.5" font-family="Times,serif" font-style="italic" font-size="10.00">[ns&#45;0]finish</text>
<text text-anchor="start" x="10" y="-61" font-family="Times,serif" font-size="10.00">завершить задание</text>
<polygon fill="#ffffff" stroke="none" points="9,-44 9,-57 228,-57 228,-44 9,-44"/>
<text text-anchor="start" x="10" y="-49" font-family="Times,serif" font-weight="bold" font-size="10.00">выдать награду </text>
<text text-anchor="start" x="85" y="-49" font-family="Times,serif" font-size="10.00">  hero </text>
<text text-anchor="start" x="110" y="-49" font-family="Times,serif" font-weight="bold" font-size="10.00">типа </text>
<text text-anchor="start" x="134" y="-49" font-family="Times,serif" font-size="10.00"> finish </text>
<text text-anchor="start" x="162" y="-49" font-family="Times,serif" font-weight="bold" font-size="10.00">в размере</text>
<text text-anchor="start" x="205" y="-49" font-family="Times,serif" font-size="10.00"> 1.00</text>
<polygon fill="#ffffff" stroke="none" points="9,-31 9,-44 228,-44 228,-31 9,-31"/>
<text text-anchor="start" x="10" y="-36" font-family="Times,serif" font-weight="bold" font-size="10.00">увеличить влияние </text>
<text text-anchor="start" x="98" y="-36" font-family="Times,serif" font-size="10.00">  place_3 </text>
<text text-anchor="start" x="138" y="-36" font-family="Times,serif" font-weight="bold" font-size="10.00">на </text>
<text text-anchor="start" x="151" y="-36" font-family="Times,serif" font-size="10.00"> 1.00</text>
<polygon fill="#eeeeee" stroke="none" points="9,-18 9,-31 228,-31 228,-18 9,-18"/>
<text text-anchor="start" x="10" y="-23" font-family="Times,serif" font-weight="bold" font-size="10.00">результаты:</text>
<text text-anchor="start" x="10" y="-10" font-family="Times,serif" font-weight="bold" font-size="10.00">place_3</text>
<text text-anchor="start" x="120" y="-9" font-family="Times,serif" font-size="10.00">successed</text>
<polygon fill="none" stroke="black" points="7.5,-4.5 7.5,-85.5 228.5,-85.5 228.5,-4.5 7.5,-4.5"/>
</g>
<!-- [ns&#45;0]arriving&#45;&gt;[ns&#45;0]finish -->
<g id="edge1" class="edge"><title>[ns&#45;0]arriving:[ns&#45;0]arriving&#45;&gt;[ns&#45;0]finish:[ns&#45;0]finish</title>
<path fill="none" stroke="black" d="M118,-129.948C118,-120.172 118,-107.936 118,-95.8546"/>
<polygon fill="black" stroke="black" points="121.5,-95.8002 118,-85.8002 114.5,-95.8003 121.5,-95.8002"/>
</g>
</g>
</svg>
