<?xml version="1.0" encoding="UTF-8" standalone="no"?>
<!DOCTYPE svg PUBLIC "-//W3C//DTD SVG 1.1//EN"
 "http://www.w3.org/Graphics/SVG/1.1/DTD/svg11.dtd">
<!-- Generated by graphviz version 2.38.0 (20140413.2041)
 -->
<!-- Title: quest Pages: 1 -->
<svg width="244pt" height="266pt"
 viewBox="0.00 0.00 244.00 266.00" xmlns="http://www.w3.org/2000/svg" xmlns:xlink="http://www.w3.org/1999/xlink">
<g id="graph0" class="graph" transform="scale(1 1) rotate(0) translate(4 262)">
<title>quest</title>
<polygon fill="white" stroke="none" points="-4,4 -4,-262 240,-262 240,4 -4,4"/>
<!-- [ns&#45;0]start -->
<g id="node1" class="node"><title>[ns&#45;0]start</title>
<polygon fill="#eeeeee" stroke="none" points="54.5,-200 54.5,-254 181.5,-254 181.5,-200 54.5,-200"/>
<text text-anchor="start" x="57" y="-245" font-family="Times,serif" font-style="italic" font-size="10.00">[ns&#45;0]start</text>
<text text-anchor="start" x="134.5" y="-245" font-family="Times,serif" font-weight="bold" font-size="10.00">simplest</text>
<text text-anchor="start" x="57" y="-231" font-family="Times,serif" font-size="10.00">Начало: простейшее задание</text>
<polygon fill="#dddddd" stroke="none" points="56,-214 56,-227 181,-227 181,-214 56,-214"/>
<text text-anchor="start" x="57" y="-219" font-family="Times,serif" font-size="10.00">hero </text>
<text text-anchor="start" x="78" y="-219" font-family="Times,serif" font-weight="bold" font-size="10.00">находится в</text>
<text text-anchor="start" x="133" y="-219" font-family="Times,serif" font-size="10.00"> place_1</text>
<polygon fill="#ffffff" stroke="none" points="56,-201 56,-214 181,-214 181,-201 56,-201"/>
<text text-anchor="start" x="57" y="-206" font-family="Times,serif" font-weight="bold" font-size="10.00">сообщение:</text>
<text text-anchor="start" x="109" y="-206" font-family="Times,serif" font-size="10.00"> intro</text>
<polygon fill="none" stroke="black" points="54.5,-200 54.5,-254 181.5,-254 181.5,-200 54.5,-200"/>
</g>
<!-- [ns&#45;0]arriving -->
<g id="node3" class="node"><title>[ns&#45;0]arriving</title>
<polygon fill="#ddffdd" stroke="none" points="60.5,-115 60.5,-156 175.5,-156 175.5,-115 60.5,-115"/>
<text text-anchor="start" x="63" y="-146.5" font-family="Times,serif" font-style="italic" font-size="10.00">[ns&#45;0]arriving</text>
<text text-anchor="start" x="63" y="-132.5" font-family="Times,serif" font-size="10.00">Прибытие в другой город</text>
<polygon fill="#cceecc" stroke="none" points="62,-115.5 62,-128.5 175,-128.5 175,-115.5 62,-115.5"/>
<text text-anchor="start" x="63" y="-120.5" font-family="Times,serif" font-size="10.00">hero </text>
<text text-anchor="start" x="84" y="-120.5" font-family="Times,serif" font-weight="bold" font-size="10.00">находится в</text>
<text text-anchor="start" x="139" y="-120.5" font-family="Times,serif" font-size="10.00"> place_9</text>
<polygon fill="none" stroke="black" points="60.5,-115 60.5,-156 175.5,-156 175.5,-115 60.5,-115"/>
</g>
<!-- [ns&#45;0]start&#45;&gt;[ns&#45;0]arriving -->
<g id="edge2" class="edge"><title>[ns&#45;0]start:[ns&#45;0]start&#45;&gt;[ns&#45;0]arriving:[ns&#45;0]arriving</title>
<path fill="none" stroke="black" d="M118,-199.631C118,-189.19 118,-177.132 118,-166.37"/>
<polygon fill="black" stroke="black" points="121.5,-166.148 118,-156.148 114.5,-166.148 121.5,-166.148"/>
</g>
<!-- [ns&#45;0]finish -->
<g id="node2" class="node"><title>[ns&#45;0]finish</title>
<polygon fill="#eeeeee" stroke="none" points="8,-4 8,-71 228,-71 228,-4 8,-4"/>
<text text-anchor="start" x="10" y="-61.5" font-family="Times,serif" font-style="italic" font-size="10.00">[ns&#45;0]finish</text>
<text text-anchor="start" x="10" y="-47.5" font-family="Times,serif" font-size="10.00">завершить задание</text>
<polygon fill="#ffffff" stroke="none" points="9,-30.5 9,-43.5 227,-43.5 227,-30.5 9,-30.5"/>
<text text-anchor="start" x="10" y="-35.5" font-family="Times,serif" font-weight="bold" font-size="10.00">выдать награду </text>
<text text-anchor="start" x="85" y="-35.5" font-family="Times,serif" font-size="10.00">  hero </text>
<text text-anchor="start" x="110" y="-35.5" font-family="Times,serif" font-weight="bold" font-size="10.00">типа </text>
<text text-anchor="start" x="134" y="-35.5" font-family="Times,serif" font-size="10.00"> finish </text>
<text text-anchor="start" x="162" y="-35.5" font-family="Times,serif" font-weight="bold" font-size="10.00">в размере</text>
<text text-anchor="start" x="205" y="-35.5" font-family="Times,serif" font-size="10.00"> 1.00</text>
<polygon fill="#eeeeee" stroke="none" points="9,-17.5 9,-30.5 227,-30.5 227,-17.5 9,-17.5"/>
<text text-anchor="start" x="10" y="-22.5" font-family="Times,serif" font-weight="bold" font-size="10.00">результаты:</text>
<text text-anchor="start" x="10" y="-9.5" font-family="Times,serif" font-weight="bold" font-size="10.00">place_9</text>
<text text-anchor="start" x="123" y="-8.5" font-family="Times,serif" font-size="10.00">successed</text>
<polygon fill="none" stroke="black" points="8,-4 8,-71 228,-71 228,-4 8,-4"/>
</g>
<!-- [ns&#45;0]arriving&#45;&gt;[ns&#45;0]finish -->
<g id="edge1" class="edge"><title>[ns&#45;0]arriving:[ns&#45;0]arriving&#45;&gt;[ns&#45;0]finish:[ns&#45;0]finish</title>
<path fill="none" stroke="black" d="M118,-114.609C118,-104.924 118,-92.882 118,-81.2554"/>
<polygon fill="black" stroke="black" points="121.5,-81.2147 118,-71.2148 114.5,-81.2148 121.5,-81.2147"/>
</g>
</g>
</svg>
