<?xml version="1.0" encoding="UTF-8" standalone="no"?>
<!DOCTYPE svg PUBLIC "-//W3C//DTD SVG 1.1//EN"
 "http://www.w3.org/Graphics/SVG/1.1/DTD/svg11.dtd">
<!-- Generated by graphviz version 2.43.0 (0)
 -->
<!-- Title: quest Pages: 1 -->
<svg width="344pt" height="266pt"
 viewBox="0.00 0.00 344.00 266.00" xmlns="http://www.w3.org/2000/svg" xmlns:xlink="http://www.w3.org/1999/xlink">
<g id="graph0" class="graph" transform="scale(1 1) rotate(0) translate(4 262)">
<title>quest</title>
<polygon fill="white" stroke="transparent" points="-4,4 -4,-262 340,-262 340,4 -4,4"/>
<!-- [ns&#45;0]start -->
<g id="node1" class="node">
<title>[ns&#45;0]start</title>
<polygon fill="#eeeeee" stroke="transparent" points="96.5,-200 96.5,-254 239.5,-254 239.5,-200 96.5,-200"/>
<text text-anchor="start" x="99" y="-245" font-family="Times,serif" font-style="italic" font-size="10.00">[ns&#45;0]start</text>
<text text-anchor="start" x="181" y="-245" font-family="Times,serif" font-weight="bold" font-size="10.00">simplest</text>
<text text-anchor="start" x="99" y="-231" font-family="Times,serif" font-size="10.00">Start: simplest quest</text>
<polygon fill="#dddddd" stroke="transparent" points="98,-214 98,-227 239,-227 239,-214 98,-214"/>
<text text-anchor="start" x="99" y="-219" font-family="Times,serif" font-size="10.00">hero </text>
<text text-anchor="start" x="126" y="-219" font-family="Times,serif" font-weight="bold" font-size="10.00">is located in</text>
<text text-anchor="start" x="196" y="-219" font-family="Times,serif" font-size="10.00"> place_1</text>
<polygon fill="#ffffff" stroke="transparent" points="98,-201 98,-214 239,-214 239,-201 98,-201"/>
<text text-anchor="start" x="99" y="-206" font-family="Times,serif" font-weight="bold" font-size="10.00">message:</text>
<text text-anchor="start" x="151" y="-206" font-family="Times,serif" font-size="10.00"> intro</text>
<polygon fill="none" stroke="black" points="96.5,-200 96.5,-254 239.5,-254 239.5,-200 96.5,-200"/>
</g>
<!-- [ns&#45;0]arriving -->
<g id="node3" class="node">
<title>[ns&#45;0]arriving</title>
<polygon fill="#ddffdd" stroke="transparent" points="96.5,-115 96.5,-156 239.5,-156 239.5,-115 96.5,-115"/>
<text text-anchor="start" x="99" y="-146.5" font-family="Times,serif" font-style="italic" font-size="10.00">[ns&#45;0]arriving</text>
<text text-anchor="start" x="99" y="-132.5" font-family="Times,serif" font-size="10.00">Arriving in another city</text>
<polygon fill="#cceecc" stroke="transparent" points="98,-115.5 98,-128.5 239,-128.5 239,-115.5 98,-115.5"/>
<text text-anchor="start" x="99" y="-120.5" font-family="Times,serif" font-size="10.00">hero </text>
<text text-anchor="start" x="126" y="-120.5" font-family="Times,serif" font-weight="bold" font-size="10.00">is located in</text>
<text text-anchor="start" x="196" y="-120.5" font-family="Times,serif" font-size="10.00"> place_5</text>
<polygon fill="none" stroke="black" points="96.5,-115 96.5,-156 239.5,-156 239.5,-115 96.5,-115"/>
</g>
<!-- [ns&#45;0]start&#45;&gt;[ns&#45;0]arriving -->
<g id="edge1" class="edge">
<title>[ns&#45;0]start:[ns&#45;0]start&#45;&gt;[ns&#45;0]arriving:[ns&#45;0]arriving</title>
<path fill="none" stroke="black" d="M168,-199.63C168,-189.19 168,-177.13 168,-166.37"/>
<polygon fill="black" stroke="black" points="171.5,-166.15 168,-156.15 164.5,-166.15 171.5,-166.15"/>
</g>
<!-- [ns&#45;0]finish -->
<g id="node2" class="node">
<title>[ns&#45;0]finish</title>
<polygon fill="#eeeeee" stroke="transparent" points="8,-4 8,-71 328,-71 328,-4 8,-4"/>
<text text-anchor="start" x="10" y="-61.5" font-family="Times,serif" font-style="italic" font-size="10.00">[ns&#45;0]finish</text>
<text text-anchor="start" x="10" y="-47.5" font-family="Times,serif" font-size="10.00">complete the quest</text>
<polygon fill="#ffffff" stroke="transparent" points="9,-30.5 9,-43.5 327,-43.5 327,-30.5 9,-30.5"/>
<text text-anchor="start" x="10" y="-35.5" font-family="Times,serif" font-weight="bold" font-size="10.00">give reward to </text>
<text text-anchor="start" x="94" y="-35.5" font-family="Times,serif" font-size="10.00">  hero </text>
<text text-anchor="start" x="127" y="-35.5" font-family="Times,serif" font-weight="bold" font-size="10.00">of type </text>
<text text-anchor="start" x="170" y="-35.5" font-family="Times,serif" font-size="10.00"> finish </text>
<text text-anchor="start" x="205" y="-35.5" font-family="Times,serif" font-weight="bold" font-size="10.00">in the amount of</text>
<text text-anchor="start" x="301" y="-35.5" font-family="Times,serif" font-size="10.00"> 1.00</text>
<polygon fill="#eeeeee" stroke="transparent" points="9,-17.5 9,-30.5 327,-30.5 327,-17.5 9,-17.5"/>
<text text-anchor="start" x="10" y="-22.5" font-family="Times,serif" font-weight="bold" font-size="10.00">results:</text>
<text text-anchor="start" x="10" y="-9.5" font-family="Times,serif" font-weight="bold" font-size="10.00">place_5</text>
<text text-anchor="start" x="172" y="-8.5" font-family="Times,serif" font-size="10.00">successed</text>
<polygon fill="none" stroke="black" points="8,-4 8,-71 328,-71 328,-4 8,-4"/>
</g>
<!-- [ns&#45;0]arriving&#45;&gt;[ns&#45;0]finish -->
<g id="edge2" class="edge">
<title>[ns&#45;0]arriving:[ns&#45;0]arriving&#45;&gt;[ns&#45;0]finish:[ns&#45;0]finish</title>
<path fill="none" stroke="black" d="M168,-114.61C168,-104.92 168,-92.88 168,-81.26"/>
<polygon fill="black" stroke="black" points="171.5,-81.21 168,-71.21 164.5,-81.21 171.5,-81.21"/>
</g>
</g>
</svg>
