<?xml version="1.0" encoding="UTF-8" standalone="no"?>
<!DOCTYPE svg PUBLIC "-//W3C//DTD SVG 1.1//EN"
 "http://www.w3.org/Graphics/SVG/1.1/DTD/svg11.dtd">
<!-- Generated by graphviz version 2.34.0 (20130907.0221)
 -->
<!-- Title: quest Pages: 1 -->
<svg width="478pt" height="139pt"
 viewBox="0.00 0.00 478.00 139.00" xmlns="http://www.w3.org/2000/svg" xmlns:xlink="http://www.w3.org/1999/xlink">
<g id="graph0" class="graph" transform="scale(1 1) rotate(0) translate(4 135)">
<title>quest</title>
<polygon fill="white" stroke="white" points="-4,4 -4,-135 474,-135 474,4 -4,4"/>
<g id="clust1" class="cluster"><title>cluster_[ns&#45;0]event</title>
<polygon fill="#ffffdd" stroke="black" points="8,-8 8,-85 462,-85 462,-8 8,-8"/>
<text text-anchor="middle" x="235" y="-69.8" font-family="Times,serif" font-size="14.00">cluster_[ns&#45;0]event</text>
</g>
<!-- [ns&#45;0]start -->
<g id="node1" class="node"><title>[ns&#45;0]start</title>
<polygon fill="#eeeeee" stroke="none" points="177.5,-97.5 177.5,-126.5 310.5,-126.5 310.5,-97.5 177.5,-97.5"/>
<text text-anchor="start" x="180" y="-116.5" font-family="Times,serif" font-style="italic" font-size="10.00">[ns&#45;0]start</text>
<text text-anchor="start" x="263.5" y="-116.5" font-family="Times,serif" font-weight="bold" font-size="10.00">simple</text>
<text text-anchor="start" x="180" y="-102" font-family="Times,serif" font-size="10.00">Начало: самый простой квест</text>
<polygon fill="none" stroke="black" points="177.5,-97.5 177.5,-126.5 310.5,-126.5 310.5,-97.5 177.5,-97.5"/>
</g>
<!-- [ns&#45;0]finish_failed -->
<g id="node2" class="node"><title>[ns&#45;0]finish_failed</title>
<polygon fill="#eeeeee" stroke="none" points="270.5,-20.5 270.5,-49.5 445.5,-49.5 445.5,-20.5 270.5,-20.5"/>
<text text-anchor="start" x="273" y="-39.5" font-family="Times,serif" font-style="italic" font-size="10.00">[ns&#45;0]finish_failed</text>
<text text-anchor="start" x="354" y="-39.5" font-family="Times,serif" font-weight="bold" font-size="10.00">finish_failed</text>
<text text-anchor="start" x="414" y="-39.5" font-family="Times,serif" font-weight="bold" font-size="10.00">failed</text>
<text text-anchor="start" x="273" y="-25" font-family="Times,serif" font-size="10.00">завершить задание плохо</text>
<polygon fill="none" stroke="black" points="270.5,-20.5 270.5,-49.5 445.5,-49.5 445.5,-20.5 270.5,-20.5"/>
</g>
<!-- [ns&#45;0]start&#45;&gt;[ns&#45;0]finish_failed -->
<g id="edge2" class="edge"><title>[ns&#45;0]start:[ns&#45;0]start&#45;&gt;[ns&#45;0]finish_failed:[ns&#45;0]finish_failed</title>
<path fill="none" stroke="black" d="M264.645,-97.4181C282.53,-85.6513 308.612,-68.4921 328.664,-55.3"/>
<polygon fill="black" stroke="black" points="330.693,-58.1545 337.124,-49.7343 326.846,-52.3066 330.693,-58.1545"/>
</g>
<!-- [ns&#45;0]finish_successed -->
<g id="node3" class="node"><title>[ns&#45;0]finish_successed</title>
<polygon fill="#eeeeee" stroke="none" points="24,-20.5 24,-49.5 236,-49.5 236,-20.5 24,-20.5"/>
<text text-anchor="start" x="26" y="-39.5" font-family="Times,serif" font-style="italic" font-size="10.00">[ns&#45;0]finish_successed</text>
<text text-anchor="start" x="123" y="-39.5" font-family="Times,serif" font-weight="bold" font-size="10.00">finish_successed</text>
<text text-anchor="start" x="194" y="-39.5" font-family="Times,serif" font-weight="bold" font-size="10.00">successed</text>
<text text-anchor="start" x="26" y="-25" font-family="Times,serif" font-size="10.00">завершить задание удачно</text>
<polygon fill="none" stroke="black" points="24,-20.5 24,-49.5 236,-49.5 236,-20.5 24,-20.5"/>
</g>
<!-- [ns&#45;0]start&#45;&gt;[ns&#45;0]finish_successed -->
<g id="edge1" class="edge"><title>[ns&#45;0]start:[ns&#45;0]start&#45;&gt;[ns&#45;0]finish_successed:[ns&#45;0]finish_successed</title>
<path fill="none" stroke="black" d="M223.355,-97.4181C205.47,-85.6513 179.388,-68.4921 159.336,-55.3"/>
<polygon fill="black" stroke="black" points="161.154,-52.3066 150.876,-49.7343 157.307,-58.1545 161.154,-52.3066"/>
</g>
</g>
</svg>
