<?xml version="1.0" encoding="UTF-8" standalone="no"?>
<!DOCTYPE svg PUBLIC "-//W3C//DTD SVG 1.1//EN"
 "http://www.w3.org/Graphics/SVG/1.1/DTD/svg11.dtd">
<!-- Generated by graphviz version 2.38.0 (20140413.2041)
 -->
<!-- Title: quest Pages: 1 -->
<svg width="342pt" height="200pt"
 viewBox="0.00 0.00 342.00 200.00" xmlns="http://www.w3.org/2000/svg" xmlns:xlink="http://www.w3.org/1999/xlink">
<g id="graph0" class="graph" transform="scale(1 1) rotate(0) translate(4 196)">
<title>quest</title>
<polygon fill="white" stroke="none" points="-4,4 -4,-196 338,-196 338,4 -4,4"/>
<g id="clust1" class="cluster"><title>cluster_[ns&#45;0]event</title>
<polygon fill="#ffffdd" stroke="black" points="8,-8 8,-148 326,-148 326,-8 8,-8"/>
<text text-anchor="middle" x="167" y="-132.8" font-family="Times,serif" font-size="14.00">cluster_[ns&#45;0]event</text>
</g>
<!-- [ns&#45;0]start -->
<g id="node1" class="node"><title>[ns&#45;0]start</title>
<polygon fill="#eeeeee" stroke="none" points="108.5,-160 108.5,-188 239.5,-188 239.5,-160 108.5,-160"/>
<text text-anchor="start" x="111" y="-179" font-family="Times,serif" font-style="italic" font-size="10.00">[ns&#45;0]start</text>
<text text-anchor="start" x="196.5" y="-179" font-family="Times,serif" font-weight="bold" font-size="10.00">simple</text>
<text text-anchor="start" x="111" y="-165" font-family="Times,serif" font-size="10.00">Начало: самый простой квест</text>
<polygon fill="none" stroke="black" points="108.5,-160 108.5,-188 239.5,-188 239.5,-160 108.5,-160"/>
</g>
<!-- [ns&#45;0]finish_failed -->
<g id="node2" class="node"><title>[ns&#45;0]finish_failed</title>
<polygon fill="#eeeeee" stroke="none" points="198,-20 198,-113 310,-113 310,-20 198,-20"/>
<text text-anchor="start" x="200" y="-103.5" font-family="Times,serif" font-style="italic" font-size="10.00">[ns&#45;0]finish_failed</text>
<text text-anchor="start" x="200" y="-89.5" font-family="Times,serif" font-size="10.00">завершить задание плохо</text>
<polygon fill="#eeeeee" stroke="none" points="199,-72.5 199,-85.5 309,-85.5 309,-72.5 199,-72.5"/>
<text text-anchor="start" x="200" y="-77.5" font-family="Times,serif" font-weight="bold" font-size="10.00">результаты:</text>
<text text-anchor="start" x="200" y="-64.5" font-family="Times,serif" font-weight="bold" font-size="10.00">person_1</text>
<text text-anchor="start" x="282" y="-63.5" font-family="Times,serif" font-size="10.00">failed</text>
<text text-anchor="start" x="200" y="-51.5" font-family="Times,serif" font-weight="bold" font-size="10.00">person_8</text>
<text text-anchor="start" x="282" y="-50.5" font-family="Times,serif" font-size="10.00">failed</text>
<text text-anchor="start" x="200" y="-38.5" font-family="Times,serif" font-weight="bold" font-size="10.00">place_1</text>
<text text-anchor="start" x="282" y="-37.5" font-family="Times,serif" font-size="10.00">failed</text>
<text text-anchor="start" x="200" y="-25.5" font-family="Times,serif" font-weight="bold" font-size="10.00">place_8</text>
<text text-anchor="start" x="282" y="-24.5" font-family="Times,serif" font-size="10.00">failed</text>
<polygon fill="none" stroke="black" points="198,-20 198,-113 310,-113 310,-20 198,-20"/>
</g>
<!-- [ns&#45;0]start&#45;&gt;[ns&#45;0]finish_failed -->
<g id="edge2" class="edge"><title>[ns&#45;0]start:[ns&#45;0]start&#45;&gt;[ns&#45;0]finish_failed:[ns&#45;0]finish_failed</title>
<path fill="none" stroke="black" d="M184.132,-159.638C191.583,-149.812 202.247,-135.75 213.006,-121.56"/>
<polygon fill="black" stroke="black" points="216.076,-123.305 219.329,-113.223 210.498,-119.076 216.076,-123.305"/>
</g>
<!-- [ns&#45;0]finish_successed -->
<g id="node3" class="node"><title>[ns&#45;0]finish_successed</title>
<polygon fill="#eeeeee" stroke="none" points="24,-20 24,-113 164,-113 164,-20 24,-20"/>
<text text-anchor="start" x="26" y="-103.5" font-family="Times,serif" font-style="italic" font-size="10.00">[ns&#45;0]finish_successed</text>
<text text-anchor="start" x="26" y="-89.5" font-family="Times,serif" font-size="10.00">завершить задание удачно</text>
<polygon fill="#eeeeee" stroke="none" points="25,-72.5 25,-85.5 163,-85.5 163,-72.5 25,-72.5"/>
<text text-anchor="start" x="26" y="-77.5" font-family="Times,serif" font-weight="bold" font-size="10.00">результаты:</text>
<text text-anchor="start" x="26" y="-64.5" font-family="Times,serif" font-weight="bold" font-size="10.00">person_1</text>
<text text-anchor="start" x="122" y="-63.5" font-family="Times,serif" font-size="10.00">successed</text>
<text text-anchor="start" x="26" y="-51.5" font-family="Times,serif" font-weight="bold" font-size="10.00">person_8</text>
<text text-anchor="start" x="122" y="-50.5" font-family="Times,serif" font-size="10.00">successed</text>
<text text-anchor="start" x="26" y="-38.5" font-family="Times,serif" font-weight="bold" font-size="10.00">place_1</text>
<text text-anchor="start" x="122" y="-37.5" font-family="Times,serif" font-size="10.00">successed</text>
<text text-anchor="start" x="26" y="-25.5" font-family="Times,serif" font-weight="bold" font-size="10.00">place_8</text>
<text text-anchor="start" x="122" y="-24.5" font-family="Times,serif" font-size="10.00">successed</text>
<polygon fill="none" stroke="black" points="24,-20 24,-113 164,-113 164,-20 24,-20"/>
</g>
<!-- [ns&#45;0]start&#45;&gt;[ns&#45;0]finish_successed -->
<g id="edge1" class="edge"><title>[ns&#45;0]start:[ns&#45;0]start&#45;&gt;[ns&#45;0]finish_successed:[ns&#45;0]finish_successed</title>
<path fill="none" stroke="black" d="M163.868,-159.638C156.417,-149.812 145.753,-135.75 134.994,-121.56"/>
<polygon fill="black" stroke="black" points="137.502,-119.076 128.671,-113.223 131.924,-123.305 137.502,-119.076"/>
</g>
</g>
</svg>
