<?xml version="1.0" encoding="UTF-8" standalone="no"?>
<!DOCTYPE svg PUBLIC "-//W3C//DTD SVG 1.1//EN"
 "http://www.w3.org/Graphics/SVG/1.1/DTD/svg11.dtd">
<!-- Generated by graphviz version 2.34.0 (20130907.0221)
 -->
<!-- Title: quest Pages: 1 -->
<svg width="384pt" height="203pt"
 viewBox="0.00 0.00 384.00 203.00" xmlns="http://www.w3.org/2000/svg" xmlns:xlink="http://www.w3.org/1999/xlink">
<g id="graph0" class="graph" transform="scale(1 1) rotate(0) translate(4 199)">
<title>quest</title>
<polygon fill="white" stroke="white" points="-4,4 -4,-199 380,-199 380,4 -4,4"/>
<g id="clust1" class="cluster"><title>cluster_[ns&#45;0]event</title>
<polygon fill="#ffffdd" stroke="black" points="8,-8 8,-149 368,-149 368,-8 8,-8"/>
<text text-anchor="middle" x="188" y="-133.8" font-family="Times,serif" font-size="14.00">cluster_[ns&#45;0]event</text>
</g>
<!-- [ns&#45;0]start -->
<g id="node1" class="node"><title>[ns&#45;0]start</title>
<polygon fill="#eeeeee" stroke="none" points="125.5,-161.5 125.5,-190.5 258.5,-190.5 258.5,-161.5 125.5,-161.5"/>
<text text-anchor="start" x="128" y="-180.5" font-family="Times,serif" font-style="italic" font-size="10.00">[ns&#45;0]start</text>
<text text-anchor="start" x="211.5" y="-180.5" font-family="Times,serif" font-weight="bold" font-size="10.00">simple</text>
<text text-anchor="start" x="128" y="-166" font-family="Times,serif" font-size="10.00">Начало: самый простой квест</text>
<polygon fill="none" stroke="black" points="125.5,-161.5 125.5,-190.5 258.5,-190.5 258.5,-161.5 125.5,-161.5"/>
</g>
<!-- [ns&#45;0]finish_failed -->
<g id="node2" class="node"><title>[ns&#45;0]finish_failed</title>
<polygon fill="#eeeeee" stroke="none" points="214,-20 214,-114 352,-114 352,-20 214,-20"/>
<text text-anchor="start" x="216" y="-104.5" font-family="Times,serif" font-style="italic" font-size="10.00">[ns&#45;0]finish_failed</text>
<text text-anchor="start" x="216" y="-90" font-family="Times,serif" font-size="10.00">завершить задание плохо</text>
<polygon fill="#eeeeee" stroke="none" points="215,-73 215,-86 351,-86 351,-73 215,-73"/>
<text text-anchor="start" x="216" y="-78" font-family="Times,serif" font-weight="bold" font-size="10.00">результаты:</text>
<text text-anchor="start" x="216" y="-65" font-family="Times,serif" font-weight="bold" font-size="10.00">person_1</text>
<text text-anchor="start" x="297" y="-64" font-family="Times,serif" font-size="10.00">failed</text>
<text text-anchor="start" x="216" y="-52" font-family="Times,serif" font-weight="bold" font-size="10.00">person_5</text>
<text text-anchor="start" x="297" y="-51" font-family="Times,serif" font-size="10.00">failed</text>
<text text-anchor="start" x="216" y="-39" font-family="Times,serif" font-weight="bold" font-size="10.00">place_1</text>
<text text-anchor="start" x="297" y="-38" font-family="Times,serif" font-size="10.00">failed</text>
<text text-anchor="start" x="216" y="-26" font-family="Times,serif" font-weight="bold" font-size="10.00">place_5</text>
<text text-anchor="start" x="297" y="-25" font-family="Times,serif" font-size="10.00">failed</text>
<polygon fill="none" stroke="black" points="214,-20 214,-114 352,-114 352,-20 214,-20"/>
</g>
<!-- [ns&#45;0]start&#45;&gt;[ns&#45;0]finish_failed -->
<g id="edge2" class="edge"><title>[ns&#45;0]start:[ns&#45;0]start&#45;&gt;[ns&#45;0]finish_failed:[ns&#45;0]finish_failed</title>
<path fill="none" stroke="black" d="M203.525,-161.448C212.159,-151.296 224.585,-136.685 237.056,-122.022"/>
<polygon fill="black" stroke="black" points="239.749,-124.258 243.562,-114.373 234.417,-119.723 239.749,-124.258"/>
</g>
<!-- [ns&#45;0]finish_successed -->
<g id="node3" class="node"><title>[ns&#45;0]finish_successed</title>
<polygon fill="#eeeeee" stroke="none" points="24,-20 24,-114 180,-114 180,-20 24,-20"/>
<text text-anchor="start" x="26" y="-104.5" font-family="Times,serif" font-style="italic" font-size="10.00">[ns&#45;0]finish_successed</text>
<text text-anchor="start" x="26" y="-90" font-family="Times,serif" font-size="10.00">завершить задание удачно</text>
<polygon fill="#eeeeee" stroke="none" points="25,-73 25,-86 179,-86 179,-73 25,-73"/>
<text text-anchor="start" x="26" y="-78" font-family="Times,serif" font-weight="bold" font-size="10.00">результаты:</text>
<text text-anchor="start" x="26" y="-65" font-family="Times,serif" font-weight="bold" font-size="10.00">person_1</text>
<text text-anchor="start" x="123" y="-64" font-family="Times,serif" font-size="10.00">successed</text>
<text text-anchor="start" x="26" y="-52" font-family="Times,serif" font-weight="bold" font-size="10.00">person_5</text>
<text text-anchor="start" x="123" y="-51" font-family="Times,serif" font-size="10.00">successed</text>
<text text-anchor="start" x="26" y="-39" font-family="Times,serif" font-weight="bold" font-size="10.00">place_1</text>
<text text-anchor="start" x="123" y="-38" font-family="Times,serif" font-size="10.00">successed</text>
<text text-anchor="start" x="26" y="-26" font-family="Times,serif" font-weight="bold" font-size="10.00">place_5</text>
<text text-anchor="start" x="123" y="-25" font-family="Times,serif" font-size="10.00">successed</text>
<polygon fill="none" stroke="black" points="24,-20 24,-114 180,-114 180,-20 24,-20"/>
</g>
<!-- [ns&#45;0]start&#45;&gt;[ns&#45;0]finish_successed -->
<g id="edge1" class="edge"><title>[ns&#45;0]start:[ns&#45;0]start&#45;&gt;[ns&#45;0]finish_successed:[ns&#45;0]finish_successed</title>
<path fill="none" stroke="black" d="M180.601,-161.448C172.141,-151.389 159.998,-136.953 147.778,-122.426"/>
<polygon fill="black" stroke="black" points="150.12,-119.773 141.005,-114.373 144.763,-124.278 150.12,-119.773"/>
</g>
</g>
</svg>
