<?xml version="1.0" encoding="UTF-8" standalone="no"?>
<!DOCTYPE svg PUBLIC "-//W3C//DTD SVG 1.1//EN"
 "http://www.w3.org/Graphics/SVG/1.1/DTD/svg11.dtd">
<!-- Generated by graphviz version 2.34.0 (20130907.0221)
 -->
<!-- Title: quest Pages: 1 -->
<svg width="392pt" height="203pt"
 viewBox="0.00 0.00 392.00 203.00" xmlns="http://www.w3.org/2000/svg" xmlns:xlink="http://www.w3.org/1999/xlink">
<g id="graph0" class="graph" transform="scale(1 1) rotate(0) translate(4 199)">
<title>quest</title>
<polygon fill="white" stroke="white" points="-4,4 -4,-199 388,-199 388,4 -4,4"/>
<g id="clust1" class="cluster"><title>cluster_[ns&#45;0]event</title>
<polygon fill="#ffffdd" stroke="black" points="8,-8 8,-149 376,-149 376,-8 8,-8"/>
<text text-anchor="middle" x="192" y="-133.8" font-family="Times,serif" font-size="14.00">cluster_[ns&#45;0]event</text>
</g>
<!-- [ns&#45;0]start -->
<g id="node1" class="node"><title>[ns&#45;0]start</title>
<polygon fill="#eeeeee" stroke="none" points="129.5,-161.5 129.5,-190.5 262.5,-190.5 262.5,-161.5 129.5,-161.5"/>
<text text-anchor="start" x="132" y="-180.5" font-family="Times,serif" font-style="italic" font-size="10.00">[ns&#45;0]start</text>
<text text-anchor="start" x="215.5" y="-180.5" font-family="Times,serif" font-weight="bold" font-size="10.00">simple</text>
<text text-anchor="start" x="132" y="-166" font-family="Times,serif" font-size="10.00">Начало: самый простой квест</text>
<polygon fill="none" stroke="black" points="129.5,-161.5 129.5,-190.5 262.5,-190.5 262.5,-161.5 129.5,-161.5"/>
</g>
<!-- [ns&#45;0]finish_failed -->
<g id="node2" class="node"><title>[ns&#45;0]finish_failed</title>
<polygon fill="#eeeeee" stroke="none" points="218,-20 218,-114 360,-114 360,-20 218,-20"/>
<text text-anchor="start" x="220" y="-104.5" font-family="Times,serif" font-style="italic" font-size="10.00">[ns&#45;0]finish_failed</text>
<text text-anchor="start" x="220" y="-90" font-family="Times,serif" font-size="10.00">завершить задание плохо</text>
<polygon fill="#eeeeee" stroke="none" points="219,-73 219,-86 359,-86 359,-73 219,-73"/>
<text text-anchor="start" x="220" y="-78" font-family="Times,serif" font-weight="bold" font-size="10.00">результаты:</text>
<text text-anchor="start" x="220" y="-65" font-family="Times,serif" font-weight="bold" font-size="10.00">person_1</text>
<text text-anchor="start" x="331" y="-64" font-family="Times,serif" font-size="10.00">failed</text>
<text text-anchor="start" x="220" y="-52" font-family="Times,serif" font-weight="bold" font-size="10.00">person_9</text>
<text text-anchor="start" x="331" y="-51" font-family="Times,serif" font-size="10.00">failed</text>
<text text-anchor="start" x="220" y="-39" font-family="Times,serif" font-weight="bold" font-size="10.00">place_1</text>
<text text-anchor="start" x="331" y="-38" font-family="Times,serif" font-size="10.00">failed</text>
<text text-anchor="start" x="220" y="-26" font-family="Times,serif" font-weight="bold" font-size="10.00">place_9</text>
<text text-anchor="start" x="331" y="-25" font-family="Times,serif" font-size="10.00">failed</text>
<polygon fill="none" stroke="black" points="218,-20 218,-114 360,-114 360,-20 218,-20"/>
</g>
<!-- [ns&#45;0]start&#45;&gt;[ns&#45;0]finish_failed -->
<g id="edge2" class="edge"><title>[ns&#45;0]start:[ns&#45;0]start&#45;&gt;[ns&#45;0]finish_failed:[ns&#45;0]finish_failed</title>
<path fill="none" stroke="black" d="M207.779,-161.448C216.602,-151.296 229.302,-136.685 242.046,-122.022"/>
<polygon fill="black" stroke="black" points="244.776,-124.216 248.695,-114.373 239.493,-119.624 244.776,-124.216"/>
</g>
<!-- [ns&#45;0]finish_successed -->
<g id="node3" class="node"><title>[ns&#45;0]finish_successed</title>
<polygon fill="#eeeeee" stroke="none" points="24.5,-20 24.5,-114 183.5,-114 183.5,-20 24.5,-20"/>
<text text-anchor="start" x="27" y="-104.5" font-family="Times,serif" font-style="italic" font-size="10.00">[ns&#45;0]finish_successed</text>
<text text-anchor="start" x="27" y="-90" font-family="Times,serif" font-size="10.00">завершить задание удачно</text>
<polygon fill="#eeeeee" stroke="none" points="26,-73 26,-86 183,-86 183,-73 26,-73"/>
<text text-anchor="start" x="27" y="-78" font-family="Times,serif" font-weight="bold" font-size="10.00">результаты:</text>
<text text-anchor="start" x="27" y="-65" font-family="Times,serif" font-weight="bold" font-size="10.00">person_1</text>
<text text-anchor="start" x="142" y="-64" font-family="Times,serif" font-size="10.00">successed</text>
<text text-anchor="start" x="27" y="-52" font-family="Times,serif" font-weight="bold" font-size="10.00">person_9</text>
<text text-anchor="start" x="142" y="-51" font-family="Times,serif" font-size="10.00">successed</text>
<text text-anchor="start" x="27" y="-39" font-family="Times,serif" font-weight="bold" font-size="10.00">place_1</text>
<text text-anchor="start" x="142" y="-38" font-family="Times,serif" font-size="10.00">successed</text>
<text text-anchor="start" x="27" y="-26" font-family="Times,serif" font-weight="bold" font-size="10.00">place_9</text>
<text text-anchor="start" x="142" y="-25" font-family="Times,serif" font-size="10.00">successed</text>
<polygon fill="none" stroke="black" points="24.5,-20 24.5,-114 183.5,-114 183.5,-20 24.5,-20"/>
</g>
<!-- [ns&#45;0]start&#45;&gt;[ns&#45;0]finish_successed -->
<g id="edge1" class="edge"><title>[ns&#45;0]start:[ns&#45;0]start&#45;&gt;[ns&#45;0]finish_successed:[ns&#45;0]finish_successed</title>
<path fill="none" stroke="black" d="M184.348,-161.448C175.619,-151.296 163.056,-136.685 150.449,-122.022"/>
<polygon fill="black" stroke="black" points="153.045,-119.673 143.872,-114.373 147.737,-124.237 153.045,-119.673"/>
</g>
</g>
</svg>
