<?xml version="1.0" encoding="UTF-8" standalone="no"?>
<!DOCTYPE svg PUBLIC "-//W3C//DTD SVG 1.1//EN"
 "http://www.w3.org/Graphics/SVG/1.1/DTD/svg11.dtd">
<!-- Generated by graphviz version 2.43.0 (0)
 -->
<!-- Title: quest Pages: 1 -->
<svg width="401pt" height="200pt"
 viewBox="0.00 0.00 401.00 200.00" xmlns="http://www.w3.org/2000/svg" xmlns:xlink="http://www.w3.org/1999/xlink">
<g id="graph0" class="graph" transform="scale(1 1) rotate(0) translate(4 196)">
<title>quest</title>
<polygon fill="white" stroke="transparent" points="-4,4 -4,-196 397,-196 397,4 -4,4"/>
<g id="clust1" class="cluster">
<title>cluster_[ns&#45;0]event</title>
<polygon fill="#ffffdd" stroke="black" points="8,-8 8,-148 385,-148 385,-8 8,-8"/>
<text text-anchor="middle" x="196.5" y="-132.8" font-family="Times,serif" font-size="14.00">cluster_[ns&#45;0]event</text>
</g>
<!-- [ns&#45;0]finish_successed -->
<g id="node1" class="node">
<title>[ns&#45;0]finish_successed</title>
<polygon fill="#eeeeee" stroke="transparent" points="195.5,-20 195.5,-113 368.5,-113 368.5,-20 195.5,-20"/>
<text text-anchor="start" x="198" y="-103.5" font-family="Times,serif" font-style="italic" font-size="10.00">[ns&#45;0]finish_successed</text>
<text text-anchor="start" x="198" y="-89.5" font-family="Times,serif" font-size="10.00">complete the quest successfully</text>
<polygon fill="#eeeeee" stroke="transparent" points="197,-72.5 197,-85.5 368,-85.5 368,-72.5 197,-72.5"/>
<text text-anchor="start" x="198" y="-77.5" font-family="Times,serif" font-weight="bold" font-size="10.00">results:</text>
<text text-anchor="start" x="198" y="-64.5" font-family="Times,serif" font-weight="bold" font-size="10.00">person_1</text>
<text text-anchor="start" x="315" y="-63.5" font-family="Times,serif" font-size="10.00">successed</text>
<text text-anchor="start" x="198" y="-51.5" font-family="Times,serif" font-weight="bold" font-size="10.00">person_4</text>
<text text-anchor="start" x="315" y="-50.5" font-family="Times,serif" font-size="10.00">successed</text>
<text text-anchor="start" x="198" y="-38.5" font-family="Times,serif" font-weight="bold" font-size="10.00">place_1</text>
<text text-anchor="start" x="315" y="-37.5" font-family="Times,serif" font-size="10.00">successed</text>
<text text-anchor="start" x="198" y="-25.5" font-family="Times,serif" font-weight="bold" font-size="10.00">place_4</text>
<text text-anchor="start" x="315" y="-24.5" font-family="Times,serif" font-size="10.00">successed</text>
<polygon fill="none" stroke="black" points="195.5,-20 195.5,-113 368.5,-113 368.5,-20 195.5,-20"/>
</g>
<!-- [ns&#45;0]start -->
<g id="node2" class="node">
<title>[ns&#45;0]start</title>
<polygon fill="#eeeeee" stroke="transparent" points="122.5,-160 122.5,-188 251.5,-188 251.5,-160 122.5,-160"/>
<text text-anchor="start" x="125" y="-179" font-family="Times,serif" font-style="italic" font-size="10.00">[ns&#45;0]start</text>
<text text-anchor="start" x="204.5" y="-179" font-family="Times,serif" font-weight="bold" font-size="10.00">simple</text>
<text text-anchor="start" x="125" y="-165" font-family="Times,serif" font-size="10.00">Start: the simplest quest</text>
<polygon fill="none" stroke="black" points="122.5,-160 122.5,-188 251.5,-188 251.5,-160 122.5,-160"/>
</g>
<!-- [ns&#45;0]start&#45;&gt;[ns&#45;0]finish_successed -->
<g id="edge2" class="edge">
<title>[ns&#45;0]start:[ns&#45;0]start&#45;&gt;[ns&#45;0]finish_successed:[ns&#45;0]finish_successed</title>
<path fill="none" stroke="black" d="M199.03,-159.64C208.05,-149.63 221.02,-135.22 234.04,-120.76"/>
<polygon fill="black" stroke="black" points="236.74,-123 240.83,-113.22 231.54,-118.31 236.74,-123"/>
</g>
<!-- [ns&#45;0]finish_failed -->
<g id="node3" class="node">
<title>[ns&#45;0]finish_failed</title>
<polygon fill="#eeeeee" stroke="transparent" points="24.5,-20 24.5,-113 161.5,-113 161.5,-20 24.5,-20"/>
<text text-anchor="start" x="27" y="-103.5" font-family="Times,serif" font-style="italic" font-size="10.00">[ns&#45;0]finish_failed</text>
<text text-anchor="start" x="27" y="-89.5" font-family="Times,serif" font-size="10.00">complete the quest poorly</text>
<polygon fill="#eeeeee" stroke="transparent" points="26,-72.5 26,-85.5 161,-85.5 161,-72.5 26,-72.5"/>
<text text-anchor="start" x="27" y="-77.5" font-family="Times,serif" font-weight="bold" font-size="10.00">results:</text>
<text text-anchor="start" x="27" y="-64.5" font-family="Times,serif" font-weight="bold" font-size="10.00">person_1</text>
<text text-anchor="start" x="126" y="-63.5" font-family="Times,serif" font-size="10.00">failed</text>
<text text-anchor="start" x="27" y="-51.5" font-family="Times,serif" font-weight="bold" font-size="10.00">person_4</text>
<text text-anchor="start" x="126" y="-50.5" font-family="Times,serif" font-size="10.00">failed</text>
<text text-anchor="start" x="27" y="-38.5" font-family="Times,serif" font-weight="bold" font-size="10.00">place_1</text>
<text text-anchor="start" x="126" y="-37.5" font-family="Times,serif" font-size="10.00">failed</text>
<text text-anchor="start" x="27" y="-25.5" font-family="Times,serif" font-weight="bold" font-size="10.00">place_4</text>
<text text-anchor="start" x="126" y="-24.5" font-family="Times,serif" font-size="10.00">failed</text>
<polygon fill="none" stroke="black" points="24.5,-20 24.5,-113 161.5,-113 161.5,-20 24.5,-20"/>
</g>
<!-- [ns&#45;0]start&#45;&gt;[ns&#45;0]finish_failed -->
<g id="edge1" class="edge">
<title>[ns&#45;0]start:[ns&#45;0]start&#45;&gt;[ns&#45;0]finish_failed:[ns&#45;0]finish_failed</title>
<path fill="none" stroke="black" d="M175.09,-159.64C166.18,-149.63 153.34,-135.22 140.46,-120.76"/>
<polygon fill="black" stroke="black" points="143,-118.36 133.74,-113.22 137.78,-123.02 143,-118.36"/>
</g>
</g>
</svg>
