<?xml version="1.0" encoding="UTF-8" standalone="no"?>
<!DOCTYPE svg PUBLIC "-//W3C//DTD SVG 1.1//EN"
 "http://www.w3.org/Graphics/SVG/1.1/DTD/svg11.dtd">
<!-- Generated by graphviz version 2.34.0 (20130907.0221)
 -->
<!-- Title: quest Pages: 1 -->
<svg width="843pt" height="743pt"
 viewBox="0.00 0.00 843.00 743.00" xmlns="http://www.w3.org/2000/svg" xmlns:xlink="http://www.w3.org/1999/xlink">
<g id="graph0" class="graph" transform="scale(1 1) rotate(0) translate(4 739)">
<title>quest</title>
<polygon fill="white" stroke="white" points="-4,4 -4,-739 839,-739 839,4 -4,4"/>
<g id="clust1" class="cluster"><title>cluster_[ns&#45;0]open_up_variants</title>
<polygon fill="#ffffdd" stroke="black" points="254,-8 254,-137 827,-137 827,-8 254,-8"/>
<text text-anchor="middle" x="540.5" y="-121.8" font-family="Times,serif" font-size="14.00">cluster_[ns&#45;0]open_up_variants</text>
</g>
<!-- [ns&#45;0]open_up_finish -->
<g id="node1" class="node"><title>[ns&#45;0]open_up_finish</title>
<polygon fill="#eeeeee" stroke="none" points="270.5,-20.5 270.5,-101.5 515.5,-101.5 515.5,-20.5 270.5,-20.5"/>
<text text-anchor="start" x="273" y="-91.5" font-family="Times,serif" font-style="italic" font-size="10.00">[ns&#45;0]open_up_finish</text>
<text text-anchor="start" x="375.5" y="-91.5" font-family="Times,serif" font-weight="bold" font-size="10.00">open_up_finish</text>
<text text-anchor="start" x="470.5" y="-91.5" font-family="Times,serif" font-weight="bold" font-size="10.00">failed</text>
<text text-anchor="start" x="273" y="-77" font-family="Times,serif" font-size="10.00">Завершить задание и остатсья в городе цели</text>
<polygon fill="#dddddd" stroke="none" points="272,-60 272,-73 451,-73 451,-60 272,-60"/>
<text text-anchor="start" x="273" y="-65" font-family="Times,serif" font-size="10.00">hero </text>
<text text-anchor="start" x="294" y="-65" font-family="Times,serif" font-weight="bold" font-size="10.00">находится в</text>
<text text-anchor="start" x="349" y="-65" font-family="Times,serif" font-size="10.00"> place_4</text>
<polygon fill="#ffffff" stroke="none" points="272,-47 272,-60 451,-60 451,-47 272,-47"/>
<text text-anchor="start" x="273" y="-52" font-family="Times,serif" font-weight="bold" font-size="10.00">сообщение:</text>
<text text-anchor="start" x="325" y="-52" font-family="Times,serif" font-size="10.00"> open_up_finish</text>
<polygon fill="#ffffff" stroke="none" points="272,-34 272,-47 451,-47 451,-34 272,-34"/>
<text text-anchor="start" x="273" y="-39" font-family="Times,serif" font-weight="bold" font-size="10.00">увеличить влияние </text>
<text text-anchor="start" x="361" y="-39" font-family="Times,serif" font-size="10.00">  person_1 </text>
<text text-anchor="start" x="406" y="-39" font-family="Times,serif" font-weight="bold" font-size="10.00">на </text>
<text text-anchor="start" x="419" y="-39" font-family="Times,serif" font-size="10.00"> &#45;1.00</text>
<polygon fill="#ffffff" stroke="none" points="272,-21 272,-34 451,-34 451,-21 272,-21"/>
<text text-anchor="start" x="273" y="-26" font-family="Times,serif" font-weight="bold" font-size="10.00">увеличить влияние </text>
<text text-anchor="start" x="361" y="-26" font-family="Times,serif" font-size="10.00">  person_4 </text>
<text text-anchor="start" x="406" y="-26" font-family="Times,serif" font-weight="bold" font-size="10.00">на </text>
<text text-anchor="start" x="419" y="-26" font-family="Times,serif" font-size="10.00"> 1.00</text>
<polygon fill="none" stroke="black" points="270.5,-20.5 270.5,-101.5 515.5,-101.5 515.5,-20.5 270.5,-20.5"/>
</g>
<!-- [ns&#45;0]start_spying -->
<g id="node2" class="node"><title>[ns&#45;0]start_spying</title>
<polygon fill="#ddddff" stroke="none" points="202.5,-563.5 202.5,-618.5 371.5,-618.5 371.5,-563.5 202.5,-563.5"/>
<text text-anchor="start" x="205" y="-608.5" font-family="Times,serif" font-style="italic" font-size="10.00">[ns&#45;0]start_spying</text>
<text text-anchor="start" x="205" y="-594" font-family="Times,serif" font-size="10.00">Прибытие в город цели</text>
<polygon fill="#ccccee" stroke="none" points="204,-577 204,-590 371,-590 371,-577 204,-577"/>
<text text-anchor="start" x="205" y="-582" font-family="Times,serif" font-size="10.00">hero </text>
<text text-anchor="start" x="226" y="-582" font-family="Times,serif" font-weight="bold" font-size="10.00">находится в</text>
<text text-anchor="start" x="281" y="-582" font-family="Times,serif" font-size="10.00"> place_4</text>
<polygon fill="#eeeeff" stroke="none" points="204,-564 204,-577 371,-577 371,-564 204,-564"/>
<text text-anchor="start" x="205" y="-569" font-family="Times,serif" font-weight="bold" font-size="10.00">сообщение:</text>
<text text-anchor="start" x="257" y="-569" font-family="Times,serif" font-size="10.00"> arrived_to_target</text>
<polygon fill="none" stroke="black" points="202.5,-563.5 202.5,-618.5 371.5,-618.5 371.5,-563.5 202.5,-563.5"/>
</g>
<!-- #option([ns&#45;0]start_spying, [ns&#45;0]spying_middle) -->
<g id="node10" class="node"><title>#option([ns&#45;0]start_spying, [ns&#45;0]spying_middle)</title>
<polygon fill="#ffffff" stroke="none" points="172,-504 172,-518 280,-518 280,-504 172,-504"/>
<text text-anchor="start" x="173" y="-508.5" font-family="Times,serif" font-size="10.00">spy</text>
<polygon fill="#eeeeee" stroke="none" points="172,-491 172,-504 280,-504 280,-491 172,-491"/>
<text text-anchor="start" x="173" y="-496" font-family="Times,serif" font-weight="bold" font-size="10.00">сообщение:</text>
<text text-anchor="start" x="225" y="-496" font-family="Times,serif" font-size="10.00"> start_spying</text>
</g>
<!-- [ns&#45;0]start_spying&#45;&gt;#option([ns&#45;0]start_spying, [ns&#45;0]spying_middle) -->
<g id="edge4" class="edge"><title>[ns&#45;0]start_spying:[ns&#45;0]start_spying&#45;&gt;#option([ns&#45;0]start_spying, [ns&#45;0]spying_middle):#option([ns&#45;0]start_spying, [ns&#45;0]spying_middle)</title>
<path fill="none" stroke="black" stroke-dasharray="1,5" d="M267.699,-563.422C256.809,-548.426 243.707,-530.383 235.132,-518.576"/>
</g>
<!-- #option([ns&#45;0]start_spying, [ns&#45;0]open_up) -->
<g id="node14" class="node"><title>#option([ns&#45;0]start_spying, [ns&#45;0]open_up)</title>
<polygon fill="#ffffff" stroke="none" points="335,-346 335,-360 451,-360 451,-346 335,-346"/>
<text text-anchor="start" x="336" y="-350.5" font-family="Times,serif" font-size="10.00">open_up</text>
<polygon fill="#eeeeee" stroke="none" points="335,-333 335,-346 451,-346 451,-333 335,-333"/>
<text text-anchor="start" x="336" y="-338" font-family="Times,serif" font-weight="bold" font-size="10.00">сообщение:</text>
<text text-anchor="start" x="388" y="-338" font-family="Times,serif" font-size="10.00"> start_open_up</text>
</g>
<!-- [ns&#45;0]start_spying&#45;&gt;#option([ns&#45;0]start_spying, [ns&#45;0]open_up) -->
<g id="edge12" class="edge"><title>[ns&#45;0]start_spying:[ns&#45;0]start_spying&#45;&gt;#option([ns&#45;0]start_spying, [ns&#45;0]open_up):#option([ns&#45;0]start_spying, [ns&#45;0]open_up)</title>
<path fill="none" stroke="black" stroke-dasharray="1,5" d="M307.941,-563.426C328.008,-536.592 357.596,-493.189 374,-451 386.059,-419.986 390.586,-380.679 392.188,-360.784"/>
</g>
<!-- [ns&#45;0]start -->
<g id="node3" class="node"><title>[ns&#45;0]start</title>
<polygon fill="#eeeeee" stroke="none" points="219.5,-663 219.5,-731 354.5,-731 354.5,-663 219.5,-663"/>
<text text-anchor="start" x="222" y="-721.5" font-family="Times,serif" font-style="italic" font-size="10.00">[ns&#45;0]start</text>
<text text-anchor="start" x="307" y="-721.5" font-family="Times,serif" font-weight="bold" font-size="10.00">spying</text>
<text text-anchor="start" x="222" y="-707" font-family="Times,serif" font-size="10.00">Начало: задание на шпионаж</text>
<polygon fill="#dddddd" stroke="none" points="221,-690 221,-703 354,-703 354,-690 221,-690"/>
<text text-anchor="start" x="222" y="-695" font-family="Times,serif" font-size="10.00">hero </text>
<text text-anchor="start" x="243" y="-695" font-family="Times,serif" font-weight="bold" font-size="10.00">находится в</text>
<text text-anchor="start" x="298" y="-695" font-family="Times,serif" font-size="10.00"> place_1</text>
<polygon fill="#dddddd" stroke="none" points="221,-677 221,-690 354,-690 354,-677 221,-677"/>
<text text-anchor="start" x="222" y="-682" font-family="Times,serif" font-size="10.00">person_4 </text>
<text text-anchor="start" x="262" y="-682" font-family="Times,serif" font-weight="bold" font-size="10.00">находится в</text>
<text text-anchor="start" x="317" y="-682" font-family="Times,serif" font-size="10.00"> place_4</text>
<polygon fill="#ffffff" stroke="none" points="221,-664 221,-677 354,-677 354,-664 221,-664"/>
<text text-anchor="start" x="222" y="-669" font-family="Times,serif" font-weight="bold" font-size="10.00">сообщение:</text>
<text text-anchor="start" x="274" y="-669" font-family="Times,serif" font-size="10.00"> intro</text>
<polygon fill="none" stroke="black" points="219.5,-663 219.5,-731 354.5,-731 354.5,-663 219.5,-663"/>
</g>
<!-- [ns&#45;0]start&#45;&gt;[ns&#45;0]start_spying -->
<g id="edge3" class="edge"><title>[ns&#45;0]start:[ns&#45;0]start&#45;&gt;[ns&#45;0]start_spying:[ns&#45;0]start_spying</title>
<path fill="none" stroke="black" d="M287,-662.808C287,-651.996 287,-639.931 287,-628.867"/>
<polygon fill="black" stroke="black" points="290.5,-628.639 287,-618.639 283.5,-628.639 290.5,-628.639"/>
</g>
<!-- [ns&#45;0]open_up_lying -->
<g id="node4" class="node"><title>[ns&#45;0]open_up_lying</title>
<polygon fill="#eeeeee" stroke="none" points="549.5,-20.5 549.5,-101.5 810.5,-101.5 810.5,-20.5 549.5,-20.5"/>
<text text-anchor="start" x="552" y="-91.5" font-family="Times,serif" font-style="italic" font-size="10.00">[ns&#45;0]open_up_lying</text>
<text text-anchor="start" x="653" y="-91.5" font-family="Times,serif" font-weight="bold" font-size="10.00">open_up_lying</text>
<text text-anchor="start" x="749" y="-91.5" font-family="Times,serif" font-weight="bold" font-size="10.00">successed</text>
<text text-anchor="start" x="552" y="-77" font-family="Times,serif" font-size="10.00">Вернуться к заказчику и сообщить ложную информацию</text>
<polygon fill="#dddddd" stroke="none" points="551,-60 551,-73 728,-73 728,-60 551,-60"/>
<text text-anchor="start" x="552" y="-65" font-family="Times,serif" font-size="10.00">hero </text>
<text text-anchor="start" x="573" y="-65" font-family="Times,serif" font-weight="bold" font-size="10.00">находится в</text>
<text text-anchor="start" x="628" y="-65" font-family="Times,serif" font-size="10.00"> place_1</text>
<polygon fill="#ffffff" stroke="none" points="551,-47 551,-60 728,-60 728,-47 551,-47"/>
<text text-anchor="start" x="552" y="-52" font-family="Times,serif" font-weight="bold" font-size="10.00">сообщение:</text>
<text text-anchor="start" x="604" y="-52" font-family="Times,serif" font-size="10.00"> open_up_lying</text>
<polygon fill="#ffffff" stroke="none" points="551,-34 551,-47 728,-47 728,-34 551,-34"/>
<text text-anchor="start" x="552" y="-39" font-family="Times,serif" font-weight="bold" font-size="10.00">увеличить влияние </text>
<text text-anchor="start" x="640" y="-39" font-family="Times,serif" font-size="10.00">  person_1 </text>
<text text-anchor="start" x="685" y="-39" font-family="Times,serif" font-weight="bold" font-size="10.00">на </text>
<text text-anchor="start" x="698" y="-39" font-family="Times,serif" font-size="10.00"> &#45;1.00</text>
<polygon fill="#ffffff" stroke="none" points="551,-21 551,-34 728,-34 728,-21 551,-21"/>
<text text-anchor="start" x="552" y="-26" font-family="Times,serif" font-weight="bold" font-size="10.00">увеличить влияние </text>
<text text-anchor="start" x="640" y="-26" font-family="Times,serif" font-size="10.00">  person_4 </text>
<text text-anchor="start" x="685" y="-26" font-family="Times,serif" font-weight="bold" font-size="10.00">на </text>
<text text-anchor="start" x="698" y="-26" font-family="Times,serif" font-size="10.00"> 1.00</text>
<polygon fill="none" stroke="black" points="549.5,-20.5 549.5,-101.5 810.5,-101.5 810.5,-20.5 549.5,-20.5"/>
</g>
<!-- [ns&#45;0]report_data -->
<g id="node5" class="node"><title>[ns&#45;0]report_data</title>
<polygon fill="#eeeeee" stroke="none" points="8,-20.5 8,-101.5 236,-101.5 236,-20.5 8,-20.5"/>
<text text-anchor="start" x="10" y="-91.5" font-family="Times,serif" font-style="italic" font-size="10.00">[ns&#45;0]report_data</text>
<text text-anchor="start" x="113" y="-91.5" font-family="Times,serif" font-weight="bold" font-size="10.00">report_data</text>
<text text-anchor="start" x="188.5" y="-91.5" font-family="Times,serif" font-weight="bold" font-size="10.00">successed</text>
<text text-anchor="start" x="10" y="-77" font-family="Times,serif" font-size="10.00">Сообщить сообранную информацию</text>
<polygon fill="#dddddd" stroke="none" points="9,-60 9,-73 182,-73 182,-60 9,-60"/>
<text text-anchor="start" x="10" y="-65" font-family="Times,serif" font-size="10.00">hero </text>
<text text-anchor="start" x="31" y="-65" font-family="Times,serif" font-weight="bold" font-size="10.00">находится в</text>
<text text-anchor="start" x="86" y="-65" font-family="Times,serif" font-size="10.00"> place_1</text>
<polygon fill="#ffffff" stroke="none" points="9,-47 9,-60 182,-60 182,-47 9,-47"/>
<text text-anchor="start" x="10" y="-52" font-family="Times,serif" font-weight="bold" font-size="10.00">сообщение:</text>
<text text-anchor="start" x="62" y="-52" font-family="Times,serif" font-size="10.00"> report_data</text>
<polygon fill="#ffffff" stroke="none" points="9,-34 9,-47 182,-47 182,-34 9,-34"/>
<text text-anchor="start" x="10" y="-39" font-family="Times,serif" font-weight="bold" font-size="10.00">увеличить влияние </text>
<text text-anchor="start" x="98" y="-39" font-family="Times,serif" font-size="10.00">  person_1 </text>
<text text-anchor="start" x="143" y="-39" font-family="Times,serif" font-weight="bold" font-size="10.00">на </text>
<text text-anchor="start" x="156" y="-39" font-family="Times,serif" font-size="10.00"> 1.00</text>
<polygon fill="#ffffff" stroke="none" points="9,-21 9,-34 182,-34 182,-21 9,-21"/>
<text text-anchor="start" x="10" y="-26" font-family="Times,serif" font-weight="bold" font-size="10.00">увеличить влияние </text>
<text text-anchor="start" x="98" y="-26" font-family="Times,serif" font-size="10.00">  person_4 </text>
<text text-anchor="start" x="143" y="-26" font-family="Times,serif" font-weight="bold" font-size="10.00">на </text>
<text text-anchor="start" x="156" y="-26" font-family="Times,serif" font-size="10.00"> &#45;1.00</text>
<polygon fill="none" stroke="black" points="8,-20.5 8,-101.5 236,-101.5 236,-20.5 8,-20.5"/>
</g>
<!-- [ns&#45;0]continue_spying -->
<g id="node6" class="node"><title>[ns&#45;0]continue_spying</title>
<polygon fill="#ddffdd" stroke="none" points="27.5,-221 27.5,-289 216.5,-289 216.5,-221 27.5,-221"/>
<text text-anchor="start" x="30" y="-279.5" font-family="Times,serif" font-style="italic" font-size="10.00">[ns&#45;0]continue_spying</text>
<text text-anchor="start" x="30" y="-265" font-family="Times,serif" font-size="10.00">Продолжить шпионаж</text>
<polygon fill="#cceecc" stroke="none" points="29,-248 29,-261 216,-261 216,-248 29,-248"/>
<text text-anchor="start" x="30" y="-253" font-family="Times,serif" font-size="10.00">hero </text>
<text text-anchor="start" x="51" y="-253" font-family="Times,serif" font-weight="bold" font-size="10.00">находится около</text>
<text text-anchor="start" x="127" y="-253" font-family="Times,serif" font-size="10.00"> place_4</text>
<polygon fill="#eeffee" stroke="none" points="29,-235 29,-248 216,-248 216,-235 29,-235"/>
<text text-anchor="start" x="30" y="-240" font-family="Times,serif" font-weight="bold" font-size="10.00">отправить </text>
<text text-anchor="start" x="80" y="-240" font-family="Times,serif" font-size="10.00"> hero</text>
<text text-anchor="start" x="101" y="-240" font-family="Times,serif" font-weight="bold" font-size="10.00">бродить около</text>
<text text-anchor="start" x="167" y="-240" font-family="Times,serif" font-size="10.00"> place_4</text>
<polygon fill="#eeffee" stroke="none" points="29,-222 29,-235 216,-235 216,-222 29,-222"/>
<text text-anchor="start" x="30" y="-227" font-family="Times,serif" font-weight="bold" font-size="10.00">сообщение:</text>
<text text-anchor="start" x="82" y="-227" font-family="Times,serif" font-size="10.00"> continue_spying</text>
<polygon fill="none" stroke="black" points="27.5,-221 27.5,-289 216.5,-289 216.5,-221 27.5,-221"/>
</g>
<!-- #jump([ns&#45;0]continue_spying, [ns&#45;0]report_data) -->
<g id="node13" class="node"><title>#jump([ns&#45;0]continue_spying, [ns&#45;0]report_data)</title>
<polygon fill="#eeeeee" stroke="none" points="49,-156 49,-170 195,-170 195,-156 49,-156"/>
<text text-anchor="start" x="50" y="-161.5" font-family="Times,serif" font-weight="bold" font-size="10.00">сообщение:</text>
<text text-anchor="start" x="102" y="-161.5" font-family="Times,serif" font-size="10.00"> move_to_report_data</text>
</g>
<!-- [ns&#45;0]continue_spying&#45;&gt;#jump([ns&#45;0]continue_spying, [ns&#45;0]report_data) -->
<g id="edge10" class="edge"><title>[ns&#45;0]continue_spying:[ns&#45;0]continue_spying&#45;&gt;#jump([ns&#45;0]continue_spying, [ns&#45;0]report_data):#jump([ns&#45;0]continue_spying, [ns&#45;0]report_data)</title>
<path fill="none" stroke="black" d="M122,-220.998C122,-202.336 122,-180.703 122,-170.268"/>
</g>
<!-- [ns&#45;0]spying_middle -->
<g id="node7" class="node"><title>[ns&#45;0]spying_middle</title>
<polygon fill="#ddddff" stroke="none" points="137,-405 137,-447 315,-447 315,-405 137,-405"/>
<text text-anchor="start" x="139" y="-437.5" font-family="Times,serif" font-style="italic" font-size="10.00">[ns&#45;0]spying_middle</text>
<text text-anchor="start" x="139" y="-423" font-family="Times,serif" font-size="10.00">Шпионаж</text>
<polygon fill="#eeeeff" stroke="none" points="138,-406 138,-419 314,-419 314,-406 138,-406"/>
<text text-anchor="start" x="139" y="-411" font-family="Times,serif" font-weight="bold" font-size="10.00">отправить </text>
<text text-anchor="start" x="189" y="-411" font-family="Times,serif" font-size="10.00"> hero</text>
<text text-anchor="start" x="210" y="-411" font-family="Times,serif" font-weight="bold" font-size="10.00">бродить около</text>
<text text-anchor="start" x="276" y="-411" font-family="Times,serif" font-size="10.00"> place_4</text>
<polygon fill="none" stroke="black" points="137,-405 137,-447 315,-447 315,-405 137,-405"/>
</g>
<!-- #option([ns&#45;0]spying_middle, [ns&#45;0]continue_spying) -->
<g id="node9" class="node"><title>#option([ns&#45;0]spying_middle, [ns&#45;0]continue_spying)</title>
<polygon fill="#ffffff" stroke="none" points="113,-340 113,-354 131,-354 131,-340 113,-340"/>
<text text-anchor="start" x="114" y="-344.5" font-family="Times,serif" font-size="10.00">spy</text>
</g>
<!-- [ns&#45;0]spying_middle&#45;&gt;#option([ns&#45;0]spying_middle, [ns&#45;0]continue_spying) -->
<g id="edge1" class="edge"><title>[ns&#45;0]spying_middle:[ns&#45;0]spying_middle&#45;&gt;#option([ns&#45;0]spying_middle, [ns&#45;0]continue_spying):#option([ns&#45;0]spying_middle, [ns&#45;0]continue_spying)</title>
<path fill="none" stroke="black" stroke-dasharray="1,5" d="M198.947,-404.97C176.076,-388.037 144.769,-364.858 130.146,-354.031"/>
</g>
<!-- #option([ns&#45;0]spying_middle, [ns&#45;0]open_up) -->
<g id="node11" class="node"><title>#option([ns&#45;0]spying_middle, [ns&#45;0]open_up)</title>
<polygon fill="#ffffff" stroke="none" points="185,-346 185,-360 301,-360 301,-346 185,-346"/>
<text text-anchor="start" x="186" y="-350.5" font-family="Times,serif" font-size="10.00">open_up</text>
<polygon fill="#eeeeee" stroke="none" points="185,-333 185,-346 301,-346 301,-333 185,-333"/>
<text text-anchor="start" x="186" y="-338" font-family="Times,serif" font-weight="bold" font-size="10.00">сообщение:</text>
<text text-anchor="start" x="238" y="-338" font-family="Times,serif" font-size="10.00"> start_open_up</text>
</g>
<!-- [ns&#45;0]spying_middle&#45;&gt;#option([ns&#45;0]spying_middle, [ns&#45;0]open_up) -->
<g id="edge6" class="edge"><title>[ns&#45;0]spying_middle:[ns&#45;0]spying_middle&#45;&gt;#option([ns&#45;0]spying_middle, [ns&#45;0]open_up):#option([ns&#45;0]spying_middle, [ns&#45;0]open_up)</title>
<path fill="none" stroke="black" stroke-dasharray="1,5" d="M230.467,-404.769C233.536,-390.867 237.519,-372.828 240.162,-360.856"/>
</g>
<!-- [ns&#45;0]open_up -->
<g id="node8" class="node"><title>[ns&#45;0]open_up</title>
<polygon fill="#ddffdd" stroke="none" points="331.5,-227.5 331.5,-282.5 454.5,-282.5 454.5,-227.5 331.5,-227.5"/>
<text text-anchor="start" x="334" y="-272.5" font-family="Times,serif" font-style="italic" font-size="10.00">[ns&#45;0]open_up</text>
<text text-anchor="start" x="334" y="-258" font-family="Times,serif" font-size="10.00">Раскрыться</text>
<polygon fill="#cceecc" stroke="none" points="333,-241 333,-254 454,-254 454,-241 333,-241"/>
<text text-anchor="start" x="334" y="-246" font-family="Times,serif" font-size="10.00">hero </text>
<text text-anchor="start" x="355" y="-246" font-family="Times,serif" font-weight="bold" font-size="10.00">находится в</text>
<text text-anchor="start" x="410" y="-246" font-family="Times,serif" font-size="10.00"> place_4</text>
<polygon fill="#eeffee" stroke="none" points="333,-228 333,-241 454,-241 454,-228 333,-228"/>
<text text-anchor="start" x="334" y="-233" font-family="Times,serif" font-weight="bold" font-size="10.00">сообщение:</text>
<text text-anchor="start" x="386" y="-233" font-family="Times,serif" font-size="10.00"> open_up</text>
<polygon fill="none" stroke="black" points="331.5,-227.5 331.5,-282.5 454.5,-282.5 454.5,-227.5 331.5,-227.5"/>
</g>
<!-- [ns&#45;0]open_up&#45;&gt;[ns&#45;0]open_up_finish -->
<g id="edge14" class="edge"><title>[ns&#45;0]open_up:[ns&#45;0]open_up&#45;&gt;[ns&#45;0]open_up_finish:[ns&#45;0]open_up_finish</title>
<path fill="none" stroke="black" d="M393,-227.303C393,-197.541 393,-148.749 393,-111.871"/>
<polygon fill="black" stroke="black" points="396.5,-111.812 393,-101.812 389.5,-111.812 396.5,-111.812"/>
</g>
<!-- #jump([ns&#45;0]open_up, [ns&#45;0]open_up_lying) -->
<g id="node12" class="node"><title>#jump([ns&#45;0]open_up, [ns&#45;0]open_up_lying)</title>
<polygon fill="#eeeeee" stroke="none" points="520,-156 520,-170 659,-170 659,-156 520,-156"/>
<text text-anchor="start" x="521" y="-161.5" font-family="Times,serif" font-weight="bold" font-size="10.00">сообщение:</text>
<text text-anchor="start" x="573" y="-161.5" font-family="Times,serif" font-size="10.00"> move_to_report_lie</text>
</g>
<!-- [ns&#45;0]open_up&#45;&gt;#jump([ns&#45;0]open_up, [ns&#45;0]open_up_lying) -->
<g id="edge8" class="edge"><title>[ns&#45;0]open_up:[ns&#45;0]open_up&#45;&gt;#jump([ns&#45;0]open_up, [ns&#45;0]open_up_lying):#jump([ns&#45;0]open_up, [ns&#45;0]open_up_lying)</title>
<path fill="none" stroke="black" d="M450.746,-227.484C494.334,-207.469 550.779,-181.55 575.921,-170.005"/>
</g>
<!-- #option([ns&#45;0]spying_middle, [ns&#45;0]continue_spying)&#45;&gt;[ns&#45;0]continue_spying -->
<g id="edge2" class="edge"><title>#option([ns&#45;0]spying_middle, [ns&#45;0]continue_spying):#option([ns&#45;0]spying_middle, [ns&#45;0]continue_spying)&#45;&gt;[ns&#45;0]continue_spying:[ns&#45;0]continue_spying</title>
<path fill="none" stroke="black" stroke-dasharray="1,5" d="M122,-339.814C122,-331.344 122,-315.386 122,-299.649"/>
<polygon fill="black" stroke="black" points="125.5,-299.421 122,-289.421 118.5,-299.421 125.5,-299.421"/>
</g>
<!-- #option([ns&#45;0]start_spying, [ns&#45;0]spying_middle)&#45;&gt;[ns&#45;0]spying_middle -->
<g id="edge5" class="edge"><title>#option([ns&#45;0]start_spying, [ns&#45;0]spying_middle):#option([ns&#45;0]start_spying, [ns&#45;0]spying_middle)&#45;&gt;[ns&#45;0]spying_middle:[ns&#45;0]spying_middle</title>
<path fill="none" stroke="black" stroke-dasharray="1,5" d="M226,-491.285C226,-482.035 226,-469.108 226,-457.271"/>
<polygon fill="black" stroke="black" points="229.5,-457.269 226,-447.269 222.5,-457.269 229.5,-457.269"/>
</g>
<!-- #option([ns&#45;0]spying_middle, [ns&#45;0]open_up)&#45;&gt;[ns&#45;0]open_up -->
<g id="edge7" class="edge"><title>#option([ns&#45;0]spying_middle, [ns&#45;0]open_up):#option([ns&#45;0]spying_middle, [ns&#45;0]open_up)&#45;&gt;[ns&#45;0]open_up:[ns&#45;0]open_up</title>
<path fill="none" stroke="black" stroke-dasharray="1,5" d="M263.857,-333.486C283.457,-321.726 313.62,-303.628 339.867,-287.88"/>
<polygon fill="black" stroke="black" points="341.823,-290.788 348.598,-282.641 338.222,-284.785 341.823,-290.788"/>
</g>
<!-- #jump([ns&#45;0]open_up, [ns&#45;0]open_up_lying)&#45;&gt;[ns&#45;0]open_up_lying -->
<g id="edge9" class="edge"><title>#jump([ns&#45;0]open_up, [ns&#45;0]open_up_lying):#jump([ns&#45;0]open_up, [ns&#45;0]open_up_lying)&#45;&gt;[ns&#45;0]open_up_lying:[ns&#45;0]open_up_lying</title>
<path fill="none" stroke="black" d="M594.692,-155.745C603.272,-146.316 620.284,-127.622 636.874,-109.391"/>
<polygon fill="black" stroke="black" points="639.79,-111.387 643.932,-101.635 634.613,-106.675 639.79,-111.387"/>
</g>
<!-- #jump([ns&#45;0]continue_spying, [ns&#45;0]report_data)&#45;&gt;[ns&#45;0]report_data -->
<g id="edge11" class="edge"><title>#jump([ns&#45;0]continue_spying, [ns&#45;0]report_data):#jump([ns&#45;0]continue_spying, [ns&#45;0]report_data)&#45;&gt;[ns&#45;0]report_data:[ns&#45;0]report_data</title>
<path fill="none" stroke="black" d="M122,-155.745C122,-146.737 122,-129.273 122,-111.835"/>
<polygon fill="black" stroke="black" points="125.5,-111.635 122,-101.635 118.5,-111.635 125.5,-111.635"/>
</g>
<!-- #option([ns&#45;0]start_spying, [ns&#45;0]open_up)&#45;&gt;[ns&#45;0]open_up -->
<g id="edge13" class="edge"><title>#option([ns&#45;0]start_spying, [ns&#45;0]open_up):#option([ns&#45;0]start_spying, [ns&#45;0]open_up)&#45;&gt;[ns&#45;0]open_up:[ns&#45;0]open_up</title>
<path fill="none" stroke="black" stroke-dasharray="1,5" d="M393,-333.486C393,-322.992 393,-307.451 393,-293.037"/>
<polygon fill="black" stroke="black" points="396.5,-292.828 393,-282.828 389.5,-292.828 396.5,-292.828"/>
</g>
<!-- #options_link(#option([ns&#45;0]start_spying, [ns&#45;0]open_up),#option([ns&#45;0]spying_middle, [ns&#45;0]open_up)) -->
<g id="node15" class="node"><title>#options_link(#option([ns&#45;0]start_spying, [ns&#45;0]open_up),#option([ns&#45;0]spying_middle, [ns&#45;0]open_up))</title>
<ellipse fill="#ffaaaa" stroke="black" cx="353" cy="-426" rx="12" ry="12"/>
<text text-anchor="middle" x="353" y="-423.5" font-family="Times,serif" font-size="10.00">link</text>
</g>
<!-- #options_link(#option([ns&#45;0]start_spying, [ns&#45;0]open_up),#option([ns&#45;0]spying_middle, [ns&#45;0]open_up))&#45;&gt;#option([ns&#45;0]spying_middle, [ns&#45;0]open_up) -->
<g id="edge16" class="edge"><title>#options_link(#option([ns&#45;0]start_spying, [ns&#45;0]open_up),#option([ns&#45;0]spying_middle, [ns&#45;0]open_up))&#45;&gt;#option([ns&#45;0]spying_middle, [ns&#45;0]open_up):#option([ns&#45;0]spying_middle, [ns&#45;0]open_up)</title>
<path fill="none" stroke="#ffaaaa" d="M345.812,-415.977C341.757,-411.206 336.426,-405.437 331,-401 311.395,-384.968 286.464,-370.415 268.147,-360.632"/>
</g>
<!-- #options_link(#option([ns&#45;0]start_spying, [ns&#45;0]open_up),#option([ns&#45;0]spying_middle, [ns&#45;0]open_up))&#45;&gt;#option([ns&#45;0]start_spying, [ns&#45;0]open_up) -->
<g id="edge15" class="edge"><title>#options_link(#option([ns&#45;0]start_spying, [ns&#45;0]open_up),#option([ns&#45;0]spying_middle, [ns&#45;0]open_up))&#45;&gt;#option([ns&#45;0]start_spying, [ns&#45;0]open_up):#option([ns&#45;0]start_spying, [ns&#45;0]open_up)</title>
<path fill="none" stroke="#ffaaaa" d="M358.229,-414.934C365.472,-400.992 378.553,-375.811 386.441,-360.626"/>
</g>
<!-- #options_link(#option([ns&#45;0]start_spying, [ns&#45;0]spying_middle),#option([ns&#45;0]spying_middle, [ns&#45;0]continue_spying)) -->
<g id="node16" class="node"><title>#options_link(#option([ns&#45;0]start_spying, [ns&#45;0]spying_middle),#option([ns&#45;0]spying_middle, [ns&#45;0]continue_spying))</title>
<ellipse fill="#ffaaaa" stroke="black" cx="133" cy="-591" rx="12" ry="12"/>
<text text-anchor="middle" x="133" y="-588.5" font-family="Times,serif" font-size="10.00">link</text>
</g>
<!-- #options_link(#option([ns&#45;0]start_spying, [ns&#45;0]spying_middle),#option([ns&#45;0]spying_middle, [ns&#45;0]continue_spying))&#45;&gt;#option([ns&#45;0]spying_middle, [ns&#45;0]continue_spying) -->
<g id="edge18" class="edge"><title>#options_link(#option([ns&#45;0]start_spying, [ns&#45;0]spying_middle),#option([ns&#45;0]spying_middle, [ns&#45;0]continue_spying))&#45;&gt;#option([ns&#45;0]spying_middle, [ns&#45;0]continue_spying):#option([ns&#45;0]spying_middle, [ns&#45;0]continue_spying)</title>
<path fill="none" stroke="#ffaaaa" d="M131.601,-578.854C128.724,-555.297 122.226,-498.695 120,-451 118.964,-428.802 119.581,-423.218 120,-401 120.32,-384.06 121.213,-364.092 121.69,-354.199"/>
</g>
<!-- #options_link(#option([ns&#45;0]start_spying, [ns&#45;0]spying_middle),#option([ns&#45;0]spying_middle, [ns&#45;0]continue_spying))&#45;&gt;#option([ns&#45;0]start_spying, [ns&#45;0]spying_middle) -->
<g id="edge17" class="edge"><title>#options_link(#option([ns&#45;0]start_spying, [ns&#45;0]spying_middle),#option([ns&#45;0]spying_middle, [ns&#45;0]continue_spying))&#45;&gt;#option([ns&#45;0]start_spying, [ns&#45;0]spying_middle):#option([ns&#45;0]start_spying, [ns&#45;0]spying_middle)</title>
<path fill="none" stroke="#ffaaaa" d="M141.583,-582.248C157.681,-567.708 192.539,-536.223 212.052,-518.598"/>
</g>
</g>
</svg>
