<?xml version="1.0" encoding="UTF-8" standalone="no"?>
<!DOCTYPE svg PUBLIC "-//W3C//DTD SVG 1.1//EN"
 "http://www.w3.org/Graphics/SVG/1.1/DTD/svg11.dtd">
<!-- Generated by graphviz version 2.34.0 (20130907.0221)
 -->
<!-- Title: quest Pages: 1 -->
<svg width="994pt" height="769pt"
 viewBox="0.00 0.00 994.00 769.00" xmlns="http://www.w3.org/2000/svg" xmlns:xlink="http://www.w3.org/1999/xlink">
<g id="graph0" class="graph" transform="scale(1 1) rotate(0) translate(4 765)">
<title>quest</title>
<polygon fill="white" stroke="white" points="-4,4 -4,-765 990,-765 990,4 -4,4"/>
<g id="clust1" class="cluster"><title>cluster_[ns&#45;0]open_up_variants</title>
<polygon fill="#ffffdd" stroke="black" points="277,-8 277,-175 978,-175 978,-8 277,-8"/>
<text text-anchor="middle" x="627.5" y="-159.8" font-family="Times,serif" font-size="14.00">cluster_[ns&#45;0]open_up_variants</text>
</g>
<!-- [ns&#45;0]open_up_finish -->
<g id="node1" class="node"><title>[ns&#45;0]open_up_finish</title>
<polygon fill="#eeeeee" stroke="none" points="292.5,-20 292.5,-140 583.5,-140 583.5,-20 292.5,-20"/>
<text text-anchor="start" x="295" y="-130.5" font-family="Times,serif" font-style="italic" font-size="10.00">[ns&#45;0]open_up_finish</text>
<text text-anchor="start" x="295" y="-116" font-family="Times,serif" font-size="10.00">Завершить задание и остатсья в городе цели</text>
<polygon fill="#dddddd" stroke="none" points="294,-99 294,-112 583,-112 583,-99 294,-99"/>
<text text-anchor="start" x="295" y="-104" font-family="Times,serif" font-size="10.00">hero </text>
<text text-anchor="start" x="316" y="-104" font-family="Times,serif" font-weight="bold" font-size="10.00">находится в</text>
<text text-anchor="start" x="371" y="-104" font-family="Times,serif" font-size="10.00"> place_8</text>
<polygon fill="#ffffff" stroke="none" points="294,-86 294,-99 583,-99 583,-86 294,-86"/>
<text text-anchor="start" x="295" y="-91" font-family="Times,serif" font-weight="bold" font-size="10.00">выдать награду </text>
<text text-anchor="start" x="370" y="-91" font-family="Times,serif" font-size="10.00">  hero </text>
<text text-anchor="start" x="395" y="-91" font-family="Times,serif" font-weight="bold" font-size="10.00">типа </text>
<text text-anchor="start" x="419" y="-91" font-family="Times,serif" font-size="10.00"> open_up_finish</text>
<polygon fill="#ffffff" stroke="none" points="294,-73 294,-86 583,-86 583,-73 294,-73"/>
<text text-anchor="start" x="295" y="-78" font-family="Times,serif" font-weight="bold" font-size="10.00">увеличить влияние </text>
<text text-anchor="start" x="383" y="-78" font-family="Times,serif" font-size="10.00">  person_1 </text>
<text text-anchor="start" x="428" y="-78" font-family="Times,serif" font-weight="bold" font-size="10.00">на </text>
<text text-anchor="start" x="441" y="-78" font-family="Times,serif" font-size="10.00"> &#45;1.00</text>
<polygon fill="#ffffff" stroke="none" points="294,-60 294,-73 583,-73 583,-60 294,-60"/>
<text text-anchor="start" x="295" y="-65" font-family="Times,serif" font-weight="bold" font-size="10.00">увеличить влияние </text>
<text text-anchor="start" x="383" y="-65" font-family="Times,serif" font-size="10.00">  person_8 </text>
<text text-anchor="start" x="428" y="-65" font-family="Times,serif" font-weight="bold" font-size="10.00">на </text>
<text text-anchor="start" x="441" y="-65" font-family="Times,serif" font-size="10.00"> 1.00</text>
<polygon fill="#eeeeee" stroke="none" points="294,-47 294,-60 583,-60 583,-47 294,-47"/>
<text text-anchor="start" x="295" y="-52" font-family="Times,serif" font-weight="bold" font-size="10.00">результаты:</text>
<text text-anchor="start" x="295" y="-39" font-family="Times,serif" font-weight="bold" font-size="10.00">person_1</text>
<text text-anchor="start" x="487" y="-38" font-family="Times,serif" font-size="10.00">failed</text>
<text text-anchor="start" x="295" y="-26" font-family="Times,serif" font-weight="bold" font-size="10.00">person_8</text>
<text text-anchor="start" x="487" y="-25" font-family="Times,serif" font-size="10.00">successed</text>
<polygon fill="none" stroke="black" points="292.5,-20 292.5,-140 583.5,-140 583.5,-20 292.5,-20"/>
</g>
<!-- [ns&#45;0]start_spying -->
<g id="node2" class="node"><title>[ns&#45;0]start_spying</title>
<polygon fill="#ddddff" stroke="none" points="268.5,-589.5 268.5,-644.5 437.5,-644.5 437.5,-589.5 268.5,-589.5"/>
<text text-anchor="start" x="271" y="-634.5" font-family="Times,serif" font-style="italic" font-size="10.00">[ns&#45;0]start_spying</text>
<text text-anchor="start" x="271" y="-620" font-family="Times,serif" font-size="10.00">Прибытие в город цели</text>
<polygon fill="#ccccee" stroke="none" points="270,-603 270,-616 437,-616 437,-603 270,-603"/>
<text text-anchor="start" x="271" y="-608" font-family="Times,serif" font-size="10.00">hero </text>
<text text-anchor="start" x="292" y="-608" font-family="Times,serif" font-weight="bold" font-size="10.00">находится в</text>
<text text-anchor="start" x="347" y="-608" font-family="Times,serif" font-size="10.00"> place_8</text>
<polygon fill="#eeeeff" stroke="none" points="270,-590 270,-603 437,-603 437,-590 270,-590"/>
<text text-anchor="start" x="271" y="-595" font-family="Times,serif" font-weight="bold" font-size="10.00">сообщение:</text>
<text text-anchor="start" x="323" y="-595" font-family="Times,serif" font-size="10.00"> arrived_to_target</text>
<polygon fill="none" stroke="black" points="268.5,-589.5 268.5,-644.5 437.5,-644.5 437.5,-589.5 268.5,-589.5"/>
</g>
<!-- #option([ns&#45;0]start_spying, [ns&#45;0]spying_middle) -->
<g id="node10" class="node"><title>#option([ns&#45;0]start_spying, [ns&#45;0]spying_middle)</title>
<polygon fill="#ffffff" stroke="none" points="238,-530 238,-544 346,-544 346,-530 238,-530"/>
<text text-anchor="start" x="239" y="-534.5" font-family="Times,serif" font-size="10.00">spy</text>
<polygon fill="#eeeeee" stroke="none" points="238,-517 238,-530 346,-530 346,-517 238,-517"/>
<text text-anchor="start" x="239" y="-522" font-family="Times,serif" font-weight="bold" font-size="10.00">сообщение:</text>
<text text-anchor="start" x="291" y="-522" font-family="Times,serif" font-size="10.00"> start_spying</text>
</g>
<!-- [ns&#45;0]start_spying&#45;&gt;#option([ns&#45;0]start_spying, [ns&#45;0]spying_middle) -->
<g id="edge5" class="edge"><title>[ns&#45;0]start_spying:[ns&#45;0]start_spying&#45;&gt;#option([ns&#45;0]start_spying, [ns&#45;0]spying_middle):#option([ns&#45;0]start_spying, [ns&#45;0]spying_middle)</title>
<path fill="none" stroke="black" stroke-dasharray="1,5" d="M333.699,-589.422C322.809,-574.426 309.707,-556.383 301.132,-544.576"/>
</g>
<!-- #option([ns&#45;0]start_spying, [ns&#45;0]open_up) -->
<g id="node14" class="node"><title>#option([ns&#45;0]start_spying, [ns&#45;0]open_up)</title>
<polygon fill="#ffffff" stroke="none" points="380,-530 380,-544 496,-544 496,-530 380,-530"/>
<text text-anchor="start" x="381" y="-534.5" font-family="Times,serif" font-size="10.00">open_up</text>
<polygon fill="#eeeeee" stroke="none" points="380,-517 380,-530 496,-530 496,-517 380,-517"/>
<text text-anchor="start" x="381" y="-522" font-family="Times,serif" font-weight="bold" font-size="10.00">сообщение:</text>
<text text-anchor="start" x="433" y="-522" font-family="Times,serif" font-size="10.00"> start_open_up</text>
</g>
<!-- [ns&#45;0]start_spying&#45;&gt;#option([ns&#45;0]start_spying, [ns&#45;0]open_up) -->
<g id="edge13" class="edge"><title>[ns&#45;0]start_spying:[ns&#45;0]start_spying&#45;&gt;#option([ns&#45;0]start_spying, [ns&#45;0]open_up):#option([ns&#45;0]start_spying, [ns&#45;0]open_up)</title>
<path fill="none" stroke="black" stroke-dasharray="1,5" d="M379.895,-589.422C395.069,-574.426 413.327,-556.383 425.275,-544.576"/>
</g>
<!-- [ns&#45;0]start -->
<g id="node3" class="node"><title>[ns&#45;0]start</title>
<polygon fill="#eeeeee" stroke="none" points="285.5,-689 285.5,-757 420.5,-757 420.5,-689 285.5,-689"/>
<text text-anchor="start" x="288" y="-747.5" font-family="Times,serif" font-style="italic" font-size="10.00">[ns&#45;0]start</text>
<text text-anchor="start" x="373" y="-747.5" font-family="Times,serif" font-weight="bold" font-size="10.00">spying</text>
<text text-anchor="start" x="288" y="-733" font-family="Times,serif" font-size="10.00">Начало: задание на шпионаж</text>
<polygon fill="#dddddd" stroke="none" points="287,-716 287,-729 420,-729 420,-716 287,-716"/>
<text text-anchor="start" x="288" y="-721" font-family="Times,serif" font-size="10.00">hero </text>
<text text-anchor="start" x="309" y="-721" font-family="Times,serif" font-weight="bold" font-size="10.00">находится в</text>
<text text-anchor="start" x="364" y="-721" font-family="Times,serif" font-size="10.00"> place_1</text>
<polygon fill="#dddddd" stroke="none" points="287,-703 287,-716 420,-716 420,-703 287,-703"/>
<text text-anchor="start" x="288" y="-708" font-family="Times,serif" font-size="10.00">person_8 </text>
<text text-anchor="start" x="328" y="-708" font-family="Times,serif" font-weight="bold" font-size="10.00">находится в</text>
<text text-anchor="start" x="383" y="-708" font-family="Times,serif" font-size="10.00"> place_8</text>
<polygon fill="#ffffff" stroke="none" points="287,-690 287,-703 420,-703 420,-690 287,-690"/>
<text text-anchor="start" x="288" y="-695" font-family="Times,serif" font-weight="bold" font-size="10.00">сообщение:</text>
<text text-anchor="start" x="340" y="-695" font-family="Times,serif" font-size="10.00"> intro</text>
<polygon fill="none" stroke="black" points="285.5,-689 285.5,-757 420.5,-757 420.5,-689 285.5,-689"/>
</g>
<!-- [ns&#45;0]start&#45;&gt;[ns&#45;0]start_spying -->
<g id="edge4" class="edge"><title>[ns&#45;0]start:[ns&#45;0]start&#45;&gt;[ns&#45;0]start_spying:[ns&#45;0]start_spying</title>
<path fill="none" stroke="black" d="M353,-688.808C353,-677.996 353,-665.931 353,-654.867"/>
<polygon fill="black" stroke="black" points="356.5,-654.639 353,-644.639 349.5,-654.639 356.5,-654.639"/>
</g>
<!-- [ns&#45;0]open_up_lying -->
<g id="node4" class="node"><title>[ns&#45;0]open_up_lying</title>
<polygon fill="#eeeeee" stroke="none" points="618,-20 618,-140 962,-140 962,-20 618,-20"/>
<text text-anchor="start" x="620" y="-130.5" font-family="Times,serif" font-style="italic" font-size="10.00">[ns&#45;0]open_up_lying</text>
<text text-anchor="start" x="620" y="-116" font-family="Times,serif" font-size="10.00">Вернуться к заказчику и сообщить ложную информацию</text>
<polygon fill="#dddddd" stroke="none" points="619,-99 619,-112 961,-112 961,-99 619,-99"/>
<text text-anchor="start" x="620" y="-104" font-family="Times,serif" font-size="10.00">hero </text>
<text text-anchor="start" x="641" y="-104" font-family="Times,serif" font-weight="bold" font-size="10.00">находится в</text>
<text text-anchor="start" x="696" y="-104" font-family="Times,serif" font-size="10.00"> place_1</text>
<polygon fill="#ffffff" stroke="none" points="619,-86 619,-99 961,-99 961,-86 619,-86"/>
<text text-anchor="start" x="620" y="-91" font-family="Times,serif" font-weight="bold" font-size="10.00">выдать награду </text>
<text text-anchor="start" x="695" y="-91" font-family="Times,serif" font-size="10.00">  hero </text>
<text text-anchor="start" x="720" y="-91" font-family="Times,serif" font-weight="bold" font-size="10.00">типа </text>
<text text-anchor="start" x="744" y="-91" font-family="Times,serif" font-size="10.00"> open_up_lying</text>
<polygon fill="#ffffff" stroke="none" points="619,-73 619,-86 961,-86 961,-73 619,-73"/>
<text text-anchor="start" x="620" y="-78" font-family="Times,serif" font-weight="bold" font-size="10.00">увеличить влияние </text>
<text text-anchor="start" x="708" y="-78" font-family="Times,serif" font-size="10.00">  person_1 </text>
<text text-anchor="start" x="753" y="-78" font-family="Times,serif" font-weight="bold" font-size="10.00">на </text>
<text text-anchor="start" x="766" y="-78" font-family="Times,serif" font-size="10.00"> &#45;1.50</text>
<polygon fill="#ffffff" stroke="none" points="619,-60 619,-73 961,-73 961,-60 619,-60"/>
<text text-anchor="start" x="620" y="-65" font-family="Times,serif" font-weight="bold" font-size="10.00">увеличить влияние </text>
<text text-anchor="start" x="708" y="-65" font-family="Times,serif" font-size="10.00">  person_8 </text>
<text text-anchor="start" x="753" y="-65" font-family="Times,serif" font-weight="bold" font-size="10.00">на </text>
<text text-anchor="start" x="766" y="-65" font-family="Times,serif" font-size="10.00"> 1.50</text>
<polygon fill="#eeeeee" stroke="none" points="619,-47 619,-60 961,-60 961,-47 619,-47"/>
<text text-anchor="start" x="620" y="-52" font-family="Times,serif" font-weight="bold" font-size="10.00">результаты:</text>
<text text-anchor="start" x="620" y="-39" font-family="Times,serif" font-weight="bold" font-size="10.00">person_1</text>
<text text-anchor="start" x="866" y="-38" font-family="Times,serif" font-size="10.00">failed</text>
<text text-anchor="start" x="620" y="-26" font-family="Times,serif" font-weight="bold" font-size="10.00">person_8</text>
<text text-anchor="start" x="866" y="-25" font-family="Times,serif" font-size="10.00">successed</text>
<polygon fill="none" stroke="black" points="618,-20 618,-140 962,-140 962,-20 618,-20"/>
</g>
<!-- [ns&#45;0]report_data -->
<g id="node5" class="node"><title>[ns&#45;0]report_data</title>
<polygon fill="#eeeeee" stroke="none" points="8,-20 8,-140 258,-140 258,-20 8,-20"/>
<text text-anchor="start" x="10" y="-130.5" font-family="Times,serif" font-style="italic" font-size="10.00">[ns&#45;0]report_data</text>
<text text-anchor="start" x="10" y="-116" font-family="Times,serif" font-size="10.00">Сообщить сообранную информацию</text>
<polygon fill="#dddddd" stroke="none" points="9,-99 9,-112 257,-112 257,-99 9,-99"/>
<text text-anchor="start" x="10" y="-104" font-family="Times,serif" font-size="10.00">hero </text>
<text text-anchor="start" x="31" y="-104" font-family="Times,serif" font-weight="bold" font-size="10.00">находится в</text>
<text text-anchor="start" x="86" y="-104" font-family="Times,serif" font-size="10.00"> place_1</text>
<polygon fill="#ffffff" stroke="none" points="9,-86 9,-99 257,-99 257,-86 9,-86"/>
<text text-anchor="start" x="10" y="-91" font-family="Times,serif" font-weight="bold" font-size="10.00">выдать награду </text>
<text text-anchor="start" x="85" y="-91" font-family="Times,serif" font-size="10.00">  hero </text>
<text text-anchor="start" x="110" y="-91" font-family="Times,serif" font-weight="bold" font-size="10.00">типа </text>
<text text-anchor="start" x="134" y="-91" font-family="Times,serif" font-size="10.00"> report_data</text>
<polygon fill="#ffffff" stroke="none" points="9,-73 9,-86 257,-86 257,-73 9,-73"/>
<text text-anchor="start" x="10" y="-78" font-family="Times,serif" font-weight="bold" font-size="10.00">увеличить влияние </text>
<text text-anchor="start" x="98" y="-78" font-family="Times,serif" font-size="10.00">  person_1 </text>
<text text-anchor="start" x="143" y="-78" font-family="Times,serif" font-weight="bold" font-size="10.00">на </text>
<text text-anchor="start" x="156" y="-78" font-family="Times,serif" font-size="10.00"> 1.00</text>
<polygon fill="#ffffff" stroke="none" points="9,-60 9,-73 257,-73 257,-60 9,-60"/>
<text text-anchor="start" x="10" y="-65" font-family="Times,serif" font-weight="bold" font-size="10.00">увеличить влияние </text>
<text text-anchor="start" x="98" y="-65" font-family="Times,serif" font-size="10.00">  person_8 </text>
<text text-anchor="start" x="143" y="-65" font-family="Times,serif" font-weight="bold" font-size="10.00">на </text>
<text text-anchor="start" x="156" y="-65" font-family="Times,serif" font-size="10.00"> &#45;1.00</text>
<polygon fill="#eeeeee" stroke="none" points="9,-47 9,-60 257,-60 257,-47 9,-47"/>
<text text-anchor="start" x="10" y="-52" font-family="Times,serif" font-weight="bold" font-size="10.00">результаты:</text>
<text text-anchor="start" x="10" y="-39" font-family="Times,serif" font-weight="bold" font-size="10.00">person_1</text>
<text text-anchor="start" x="170" y="-38" font-family="Times,serif" font-size="10.00">successed</text>
<text text-anchor="start" x="10" y="-26" font-family="Times,serif" font-weight="bold" font-size="10.00">person_8</text>
<text text-anchor="start" x="170" y="-25" font-family="Times,serif" font-size="10.00">failed</text>
<polygon fill="none" stroke="black" points="8,-20 8,-140 258,-140 258,-20 8,-20"/>
</g>
<!-- [ns&#45;0]continue_spying -->
<g id="node6" class="node"><title>[ns&#45;0]continue_spying</title>
<polygon fill="#ddffdd" stroke="none" points="64.5,-259.5 64.5,-314.5 253.5,-314.5 253.5,-259.5 64.5,-259.5"/>
<text text-anchor="start" x="67" y="-304.5" font-family="Times,serif" font-style="italic" font-size="10.00">[ns&#45;0]continue_spying</text>
<text text-anchor="start" x="67" y="-290" font-family="Times,serif" font-size="10.00">Продолжить шпионаж</text>
<polygon fill="#eeffee" stroke="none" points="66,-273 66,-286 253,-286 253,-273 66,-273"/>
<text text-anchor="start" x="67" y="-278" font-family="Times,serif" font-weight="bold" font-size="10.00">отправить </text>
<text text-anchor="start" x="117" y="-278" font-family="Times,serif" font-size="10.00"> hero</text>
<text text-anchor="start" x="138" y="-278" font-family="Times,serif" font-weight="bold" font-size="10.00">бродить около</text>
<text text-anchor="start" x="204" y="-278" font-family="Times,serif" font-size="10.00"> place_8</text>
<polygon fill="#eeffee" stroke="none" points="66,-260 66,-273 253,-273 253,-260 66,-260"/>
<text text-anchor="start" x="67" y="-265" font-family="Times,serif" font-weight="bold" font-size="10.00">сообщение:</text>
<text text-anchor="start" x="119" y="-265" font-family="Times,serif" font-size="10.00"> continue_spying</text>
<polygon fill="none" stroke="black" points="64.5,-259.5 64.5,-314.5 253.5,-314.5 253.5,-259.5 64.5,-259.5"/>
</g>
<!-- #jump([ns&#45;0]continue_spying, [ns&#45;0]report_data) -->
<g id="node13" class="node"><title>#jump([ns&#45;0]continue_spying, [ns&#45;0]report_data)</title>
<polygon fill="#eeeeee" stroke="none" points="69,-194 69,-208 215,-208 215,-194 69,-194"/>
<text text-anchor="start" x="70" y="-199.5" font-family="Times,serif" font-weight="bold" font-size="10.00">сообщение:</text>
<text text-anchor="start" x="122" y="-199.5" font-family="Times,serif" font-size="10.00"> move_to_report_data</text>
</g>
<!-- [ns&#45;0]continue_spying&#45;&gt;#jump([ns&#45;0]continue_spying, [ns&#45;0]report_data) -->
<g id="edge11" class="edge"><title>[ns&#45;0]continue_spying:[ns&#45;0]continue_spying&#45;&gt;#jump([ns&#45;0]continue_spying, [ns&#45;0]report_data):#jump([ns&#45;0]continue_spying, [ns&#45;0]report_data)</title>
<path fill="none" stroke="black" d="M153.621,-259.422C149.964,-241.349 145.411,-218.853 143.25,-208.177"/>
</g>
<!-- [ns&#45;0]spying_middle -->
<g id="node7" class="node"><title>[ns&#45;0]spying_middle</title>
<polygon fill="#ddddff" stroke="none" points="203,-431 203,-473 381,-473 381,-431 203,-431"/>
<text text-anchor="start" x="205" y="-463.5" font-family="Times,serif" font-style="italic" font-size="10.00">[ns&#45;0]spying_middle</text>
<text text-anchor="start" x="205" y="-449" font-family="Times,serif" font-size="10.00">Шпионаж</text>
<polygon fill="#eeeeff" stroke="none" points="204,-432 204,-445 380,-445 380,-432 204,-432"/>
<text text-anchor="start" x="205" y="-437" font-family="Times,serif" font-weight="bold" font-size="10.00">отправить </text>
<text text-anchor="start" x="255" y="-437" font-family="Times,serif" font-size="10.00"> hero</text>
<text text-anchor="start" x="276" y="-437" font-family="Times,serif" font-weight="bold" font-size="10.00">бродить около</text>
<text text-anchor="start" x="342" y="-437" font-family="Times,serif" font-size="10.00"> place_8</text>
<polygon fill="none" stroke="black" points="203,-431 203,-473 381,-473 381,-431 203,-431"/>
</g>
<!-- #option([ns&#45;0]spying_middle, [ns&#45;0]continue_spying) -->
<g id="node9" class="node"><title>#option([ns&#45;0]spying_middle, [ns&#45;0]continue_spying)</title>
<polygon fill="#ffffff" stroke="none" points="158,-366 158,-380 176,-380 176,-366 158,-366"/>
<text text-anchor="start" x="159" y="-370.5" font-family="Times,serif" font-size="10.00">spy</text>
</g>
<!-- [ns&#45;0]spying_middle&#45;&gt;#option([ns&#45;0]spying_middle, [ns&#45;0]continue_spying) -->
<g id="edge2" class="edge"><title>[ns&#45;0]spying_middle:[ns&#45;0]spying_middle&#45;&gt;#option([ns&#45;0]spying_middle, [ns&#45;0]continue_spying):#option([ns&#45;0]spying_middle, [ns&#45;0]continue_spying)</title>
<path fill="none" stroke="black" stroke-dasharray="1,5" d="M259.484,-430.97C231.706,-413.859 193.573,-390.369 176.242,-379.693"/>
</g>
<!-- #option([ns&#45;0]spying_middle, [ns&#45;0]open_up) -->
<g id="node11" class="node"><title>#option([ns&#45;0]spying_middle, [ns&#45;0]open_up)</title>
<polygon fill="#ffffff" stroke="none" points="260,-372 260,-386 376,-386 376,-372 260,-372"/>
<text text-anchor="start" x="261" y="-376.5" font-family="Times,serif" font-size="10.00">open_up</text>
<polygon fill="#eeeeee" stroke="none" points="260,-359 260,-372 376,-372 376,-359 260,-359"/>
<text text-anchor="start" x="261" y="-364" font-family="Times,serif" font-weight="bold" font-size="10.00">сообщение:</text>
<text text-anchor="start" x="313" y="-364" font-family="Times,serif" font-size="10.00"> start_open_up</text>
</g>
<!-- [ns&#45;0]spying_middle&#45;&gt;#option([ns&#45;0]spying_middle, [ns&#45;0]open_up) -->
<g id="edge7" class="edge"><title>[ns&#45;0]spying_middle:[ns&#45;0]spying_middle&#45;&gt;#option([ns&#45;0]spying_middle, [ns&#45;0]open_up):#option([ns&#45;0]spying_middle, [ns&#45;0]open_up)</title>
<path fill="none" stroke="black" stroke-dasharray="1,5" d="M298.831,-430.769C303.525,-416.867 309.617,-398.828 313.659,-386.856"/>
</g>
<!-- [ns&#45;0]open_up -->
<g id="node8" class="node"><title>[ns&#45;0]open_up</title>
<polygon fill="#ddffdd" stroke="none" points="376.5,-259.5 376.5,-314.5 499.5,-314.5 499.5,-259.5 376.5,-259.5"/>
<text text-anchor="start" x="379" y="-304.5" font-family="Times,serif" font-style="italic" font-size="10.00">[ns&#45;0]open_up</text>
<text text-anchor="start" x="379" y="-290" font-family="Times,serif" font-size="10.00">Раскрыться</text>
<polygon fill="#cceecc" stroke="none" points="378,-273 378,-286 499,-286 499,-273 378,-273"/>
<text text-anchor="start" x="379" y="-278" font-family="Times,serif" font-size="10.00">hero </text>
<text text-anchor="start" x="400" y="-278" font-family="Times,serif" font-weight="bold" font-size="10.00">находится в</text>
<text text-anchor="start" x="455" y="-278" font-family="Times,serif" font-size="10.00"> place_8</text>
<polygon fill="#eeffee" stroke="none" points="378,-260 378,-273 499,-273 499,-260 378,-260"/>
<text text-anchor="start" x="379" y="-265" font-family="Times,serif" font-weight="bold" font-size="10.00">сообщение:</text>
<text text-anchor="start" x="431" y="-265" font-family="Times,serif" font-size="10.00"> open_up</text>
<polygon fill="none" stroke="black" points="376.5,-259.5 376.5,-314.5 499.5,-314.5 499.5,-259.5 376.5,-259.5"/>
</g>
<!-- [ns&#45;0]open_up&#45;&gt;[ns&#45;0]open_up_finish -->
<g id="edge1" class="edge"><title>[ns&#45;0]open_up:[ns&#45;0]open_up&#45;&gt;[ns&#45;0]open_up_finish:[ns&#45;0]open_up_finish</title>
<path fill="none" stroke="black" d="M438,-259.2C438,-231.72 438,-187.84 438,-150.5"/>
<polygon fill="black" stroke="black" points="441.5,-150.161 438,-140.161 434.5,-150.161 441.5,-150.161"/>
</g>
<!-- #jump([ns&#45;0]open_up, [ns&#45;0]open_up_lying) -->
<g id="node12" class="node"><title>#jump([ns&#45;0]open_up, [ns&#45;0]open_up_lying)</title>
<polygon fill="#eeeeee" stroke="none" points="598,-194 598,-208 737,-208 737,-194 598,-194"/>
<text text-anchor="start" x="599" y="-199.5" font-family="Times,serif" font-weight="bold" font-size="10.00">сообщение:</text>
<text text-anchor="start" x="651" y="-199.5" font-family="Times,serif" font-size="10.00"> move_to_report_lie</text>
</g>
<!-- [ns&#45;0]open_up&#45;&gt;#jump([ns&#45;0]open_up, [ns&#45;0]open_up_lying) -->
<g id="edge9" class="edge"><title>[ns&#45;0]open_up:[ns&#45;0]open_up&#45;&gt;#jump([ns&#45;0]open_up, [ns&#45;0]open_up_lying):#jump([ns&#45;0]open_up, [ns&#45;0]open_up_lying)</title>
<path fill="none" stroke="black" d="M499.669,-263.379C550.539,-244.719 619.228,-219.524 650.393,-208.092"/>
</g>
<!-- #option([ns&#45;0]spying_middle, [ns&#45;0]continue_spying)&#45;&gt;[ns&#45;0]continue_spying -->
<g id="edge3" class="edge"><title>#option([ns&#45;0]spying_middle, [ns&#45;0]continue_spying):#option([ns&#45;0]spying_middle, [ns&#45;0]continue_spying)&#45;&gt;[ns&#45;0]continue_spying:[ns&#45;0]continue_spying</title>
<path fill="none" stroke="black" stroke-dasharray="1,5" d="M166.425,-365.959C165.596,-357.257 164,-340.504 162.5,-324.752"/>
<polygon fill="black" stroke="black" points="165.97,-324.263 161.537,-314.639 159.001,-324.926 165.97,-324.263"/>
</g>
<!-- #option([ns&#45;0]start_spying, [ns&#45;0]spying_middle)&#45;&gt;[ns&#45;0]spying_middle -->
<g id="edge6" class="edge"><title>#option([ns&#45;0]start_spying, [ns&#45;0]spying_middle):#option([ns&#45;0]start_spying, [ns&#45;0]spying_middle)&#45;&gt;[ns&#45;0]spying_middle:[ns&#45;0]spying_middle</title>
<path fill="none" stroke="black" stroke-dasharray="1,5" d="M292,-517.285C292,-508.035 292,-495.108 292,-483.271"/>
<polygon fill="black" stroke="black" points="295.5,-483.269 292,-473.269 288.5,-483.269 295.5,-483.269"/>
</g>
<!-- #option([ns&#45;0]spying_middle, [ns&#45;0]open_up)&#45;&gt;[ns&#45;0]open_up -->
<g id="edge8" class="edge"><title>#option([ns&#45;0]spying_middle, [ns&#45;0]open_up):#option([ns&#45;0]spying_middle, [ns&#45;0]open_up)&#45;&gt;[ns&#45;0]open_up:[ns&#45;0]open_up</title>
<path fill="none" stroke="black" stroke-dasharray="1,5" d="M335.965,-359.424C350.725,-349.092 372.306,-333.986 391.823,-320.324"/>
<polygon fill="black" stroke="black" points="393.85,-323.177 400.035,-314.575 389.836,-317.443 393.85,-323.177"/>
</g>
<!-- #jump([ns&#45;0]open_up, [ns&#45;0]open_up_lying)&#45;&gt;[ns&#45;0]open_up_lying -->
<g id="edge10" class="edge"><title>#jump([ns&#45;0]open_up, [ns&#45;0]open_up_lying):#jump([ns&#45;0]open_up, [ns&#45;0]open_up_lying)&#45;&gt;[ns&#45;0]open_up_lying:[ns&#45;0]open_up_lying</title>
<path fill="none" stroke="black" d="M673.269,-193.935C682.73,-184.782 701.681,-166.447 721.609,-147.166"/>
<polygon fill="black" stroke="black" points="724.227,-149.504 728.98,-140.036 719.359,-144.473 724.227,-149.504"/>
</g>
<!-- #jump([ns&#45;0]continue_spying, [ns&#45;0]report_data)&#45;&gt;[ns&#45;0]report_data -->
<g id="edge12" class="edge"><title>#jump([ns&#45;0]continue_spying, [ns&#45;0]report_data):#jump([ns&#45;0]continue_spying, [ns&#45;0]report_data)&#45;&gt;[ns&#45;0]report_data:[ns&#45;0]report_data</title>
<path fill="none" stroke="black" d="M141.541,-193.935C140.885,-185.263 139.606,-168.351 138.234,-150.202"/>
<polygon fill="black" stroke="black" points="141.709,-149.743 137.465,-140.036 134.729,-150.271 141.709,-149.743"/>
</g>
<!-- #option([ns&#45;0]start_spying, [ns&#45;0]open_up)&#45;&gt;[ns&#45;0]open_up -->
<g id="edge14" class="edge"><title>#option([ns&#45;0]start_spying, [ns&#45;0]open_up):#option([ns&#45;0]start_spying, [ns&#45;0]open_up)&#45;&gt;[ns&#45;0]open_up:[ns&#45;0]open_up</title>
<path fill="none" stroke="black" stroke-dasharray="1,5" d="M438,-517.33C438,-481.789 438,-380.15 438,-324.876"/>
<polygon fill="black" stroke="black" points="441.5,-324.796 438,-314.797 434.5,-324.797 441.5,-324.796"/>
</g>
<!-- #options_link(#option([ns&#45;0]start_spying, [ns&#45;0]spying_middle),#option([ns&#45;0]spying_middle, [ns&#45;0]continue_spying)) -->
<g id="node15" class="node"><title>#options_link(#option([ns&#45;0]start_spying, [ns&#45;0]spying_middle),#option([ns&#45;0]spying_middle, [ns&#45;0]continue_spying))</title>
<ellipse fill="#ffaaaa" stroke="black" cx="199" cy="-617" rx="12" ry="12"/>
<text text-anchor="middle" x="199" y="-614.5" font-family="Times,serif" font-size="10.00">link</text>
</g>
<!-- #options_link(#option([ns&#45;0]start_spying, [ns&#45;0]spying_middle),#option([ns&#45;0]spying_middle, [ns&#45;0]continue_spying))&#45;&gt;#option([ns&#45;0]spying_middle, [ns&#45;0]continue_spying) -->
<g id="edge16" class="edge"><title>#options_link(#option([ns&#45;0]start_spying, [ns&#45;0]spying_middle),#option([ns&#45;0]spying_middle, [ns&#45;0]continue_spying))&#45;&gt;#option([ns&#45;0]spying_middle, [ns&#45;0]continue_spying):#option([ns&#45;0]spying_middle, [ns&#45;0]continue_spying)</title>
<path fill="none" stroke="#ffaaaa" d="M197.542,-604.973C191.966,-562.809 172.096,-412.539 167.816,-380.172"/>
</g>
<!-- #options_link(#option([ns&#45;0]start_spying, [ns&#45;0]spying_middle),#option([ns&#45;0]spying_middle, [ns&#45;0]continue_spying))&#45;&gt;#option([ns&#45;0]start_spying, [ns&#45;0]spying_middle) -->
<g id="edge15" class="edge"><title>#options_link(#option([ns&#45;0]start_spying, [ns&#45;0]spying_middle),#option([ns&#45;0]spying_middle, [ns&#45;0]continue_spying))&#45;&gt;#option([ns&#45;0]start_spying, [ns&#45;0]spying_middle):#option([ns&#45;0]start_spying, [ns&#45;0]spying_middle)</title>
<path fill="none" stroke="#ffaaaa" d="M207.583,-608.248C223.681,-593.708 258.539,-562.223 278.052,-544.598"/>
</g>
</g>
</svg>
