<?xml version="1.0" encoding="UTF-8" standalone="no"?>
<!DOCTYPE svg PUBLIC "-//W3C//DTD SVG 1.1//EN"
 "http://www.w3.org/Graphics/SVG/1.1/DTD/svg11.dtd">
<!-- Generated by graphviz version 2.34.0 (20130907.0221)
 -->
<!-- Title: quest Pages: 1 -->
<svg width="843pt" height="729pt"
 viewBox="0.00 0.00 843.00 729.00" xmlns="http://www.w3.org/2000/svg" xmlns:xlink="http://www.w3.org/1999/xlink">
<g id="graph0" class="graph" transform="scale(1 1) rotate(0) translate(4 725)">
<title>quest</title>
<polygon fill="white" stroke="white" points="-4,4 -4,-725 839,-725 839,4 -4,4"/>
<g id="clust1" class="cluster"><title>cluster_[ns&#45;0]open_up_variants</title>
<polygon fill="#ffffdd" stroke="black" points="254,-8 254,-123 827,-123 827,-8 254,-8"/>
<text text-anchor="middle" x="540.5" y="-107.8" font-family="Times,serif" font-size="14.00">cluster_[ns&#45;0]open_up_variants</text>
</g>
<!-- [ns&#45;0]open_up_finish -->
<g id="node1" class="node"><title>[ns&#45;0]open_up_finish</title>
<polygon fill="#eeeeee" stroke="none" points="270.5,-20 270.5,-88 515.5,-88 515.5,-20 270.5,-20"/>
<text text-anchor="start" x="273" y="-78.5" font-family="Times,serif" font-style="italic" font-size="10.00">[ns&#45;0]open_up_finish</text>
<text text-anchor="start" x="375.5" y="-78.5" font-family="Times,serif" font-weight="bold" font-size="10.00">open_up_finish</text>
<text text-anchor="start" x="470.5" y="-78.5" font-family="Times,serif" font-weight="bold" font-size="10.00">failed</text>
<text text-anchor="start" x="273" y="-64" font-family="Times,serif" font-size="10.00">Завершить задание и остатсья в городе цели</text>
<polygon fill="#dddddd" stroke="none" points="272,-47 272,-60 451,-60 451,-47 272,-47"/>
<text text-anchor="start" x="273" y="-52" font-family="Times,serif" font-size="10.00">hero </text>
<text text-anchor="start" x="294" y="-52" font-family="Times,serif" font-weight="bold" font-size="10.00">находится в</text>
<text text-anchor="start" x="349" y="-52" font-family="Times,serif" font-size="10.00"> place_5</text>
<polygon fill="#ffffff" stroke="none" points="272,-34 272,-47 451,-47 451,-34 272,-34"/>
<text text-anchor="start" x="273" y="-39" font-family="Times,serif" font-weight="bold" font-size="10.00">увеличить влияние </text>
<text text-anchor="start" x="361" y="-39" font-family="Times,serif" font-size="10.00">  person_1 </text>
<text text-anchor="start" x="406" y="-39" font-family="Times,serif" font-weight="bold" font-size="10.00">на </text>
<text text-anchor="start" x="419" y="-39" font-family="Times,serif" font-size="10.00"> &#45;1.00</text>
<polygon fill="#ffffff" stroke="none" points="272,-21 272,-34 451,-34 451,-21 272,-21"/>
<text text-anchor="start" x="273" y="-26" font-family="Times,serif" font-weight="bold" font-size="10.00">увеличить влияние </text>
<text text-anchor="start" x="361" y="-26" font-family="Times,serif" font-size="10.00">  person_5 </text>
<text text-anchor="start" x="406" y="-26" font-family="Times,serif" font-weight="bold" font-size="10.00">на </text>
<text text-anchor="start" x="419" y="-26" font-family="Times,serif" font-size="10.00"> 1.00</text>
<polygon fill="none" stroke="black" points="270.5,-20 270.5,-88 515.5,-88 515.5,-20 270.5,-20"/>
</g>
<!-- [ns&#45;0]start_spying -->
<g id="node2" class="node"><title>[ns&#45;0]start_spying</title>
<polygon fill="#ddddff" stroke="none" points="202.5,-549.5 202.5,-604.5 371.5,-604.5 371.5,-549.5 202.5,-549.5"/>
<text text-anchor="start" x="205" y="-594.5" font-family="Times,serif" font-style="italic" font-size="10.00">[ns&#45;0]start_spying</text>
<text text-anchor="start" x="205" y="-580" font-family="Times,serif" font-size="10.00">Прибытие в город цели</text>
<polygon fill="#ccccee" stroke="none" points="204,-563 204,-576 371,-576 371,-563 204,-563"/>
<text text-anchor="start" x="205" y="-568" font-family="Times,serif" font-size="10.00">hero </text>
<text text-anchor="start" x="226" y="-568" font-family="Times,serif" font-weight="bold" font-size="10.00">находится в</text>
<text text-anchor="start" x="281" y="-568" font-family="Times,serif" font-size="10.00"> place_5</text>
<polygon fill="#eeeeff" stroke="none" points="204,-550 204,-563 371,-563 371,-550 204,-550"/>
<text text-anchor="start" x="205" y="-555" font-family="Times,serif" font-weight="bold" font-size="10.00">сообщение:</text>
<text text-anchor="start" x="257" y="-555" font-family="Times,serif" font-size="10.00"> arrived_to_target</text>
<polygon fill="none" stroke="black" points="202.5,-549.5 202.5,-604.5 371.5,-604.5 371.5,-549.5 202.5,-549.5"/>
</g>
<!-- #option([ns&#45;0]start_spying, [ns&#45;0]spying_middle) -->
<g id="node10" class="node"><title>#option([ns&#45;0]start_spying, [ns&#45;0]spying_middle)</title>
<polygon fill="#ffffff" stroke="none" points="172,-490 172,-504 280,-504 280,-490 172,-490"/>
<text text-anchor="start" x="173" y="-494.5" font-family="Times,serif" font-size="10.00">spy</text>
<polygon fill="#eeeeee" stroke="none" points="172,-477 172,-490 280,-490 280,-477 172,-477"/>
<text text-anchor="start" x="173" y="-482" font-family="Times,serif" font-weight="bold" font-size="10.00">сообщение:</text>
<text text-anchor="start" x="225" y="-482" font-family="Times,serif" font-size="10.00"> start_spying</text>
</g>
<!-- [ns&#45;0]start_spying&#45;&gt;#option([ns&#45;0]start_spying, [ns&#45;0]spying_middle) -->
<g id="edge4" class="edge"><title>[ns&#45;0]start_spying:[ns&#45;0]start_spying&#45;&gt;#option([ns&#45;0]start_spying, [ns&#45;0]spying_middle):#option([ns&#45;0]start_spying, [ns&#45;0]spying_middle)</title>
<path fill="none" stroke="black" stroke-dasharray="1,5" d="M267.699,-549.422C256.809,-534.426 243.707,-516.383 235.132,-504.576"/>
</g>
<!-- #option([ns&#45;0]start_spying, [ns&#45;0]open_up) -->
<g id="node14" class="node"><title>#option([ns&#45;0]start_spying, [ns&#45;0]open_up)</title>
<polygon fill="#ffffff" stroke="none" points="335,-332 335,-346 451,-346 451,-332 335,-332"/>
<text text-anchor="start" x="336" y="-336.5" font-family="Times,serif" font-size="10.00">open_up</text>
<polygon fill="#eeeeee" stroke="none" points="335,-319 335,-332 451,-332 451,-319 335,-319"/>
<text text-anchor="start" x="336" y="-324" font-family="Times,serif" font-weight="bold" font-size="10.00">сообщение:</text>
<text text-anchor="start" x="388" y="-324" font-family="Times,serif" font-size="10.00"> start_open_up</text>
</g>
<!-- [ns&#45;0]start_spying&#45;&gt;#option([ns&#45;0]start_spying, [ns&#45;0]open_up) -->
<g id="edge12" class="edge"><title>[ns&#45;0]start_spying:[ns&#45;0]start_spying&#45;&gt;#option([ns&#45;0]start_spying, [ns&#45;0]open_up):#option([ns&#45;0]start_spying, [ns&#45;0]open_up)</title>
<path fill="none" stroke="black" stroke-dasharray="1,5" d="M307.941,-549.426C328.008,-522.592 357.596,-479.189 374,-437 386.059,-405.986 390.586,-366.679 392.188,-346.784"/>
</g>
<!-- [ns&#45;0]start -->
<g id="node3" class="node"><title>[ns&#45;0]start</title>
<polygon fill="#eeeeee" stroke="none" points="219.5,-649 219.5,-717 354.5,-717 354.5,-649 219.5,-649"/>
<text text-anchor="start" x="222" y="-707.5" font-family="Times,serif" font-style="italic" font-size="10.00">[ns&#45;0]start</text>
<text text-anchor="start" x="307" y="-707.5" font-family="Times,serif" font-weight="bold" font-size="10.00">spying</text>
<text text-anchor="start" x="222" y="-693" font-family="Times,serif" font-size="10.00">Начало: задание на шпионаж</text>
<polygon fill="#dddddd" stroke="none" points="221,-676 221,-689 354,-689 354,-676 221,-676"/>
<text text-anchor="start" x="222" y="-681" font-family="Times,serif" font-size="10.00">hero </text>
<text text-anchor="start" x="243" y="-681" font-family="Times,serif" font-weight="bold" font-size="10.00">находится в</text>
<text text-anchor="start" x="298" y="-681" font-family="Times,serif" font-size="10.00"> place_1</text>
<polygon fill="#dddddd" stroke="none" points="221,-663 221,-676 354,-676 354,-663 221,-663"/>
<text text-anchor="start" x="222" y="-668" font-family="Times,serif" font-size="10.00">person_5 </text>
<text text-anchor="start" x="262" y="-668" font-family="Times,serif" font-weight="bold" font-size="10.00">находится в</text>
<text text-anchor="start" x="317" y="-668" font-family="Times,serif" font-size="10.00"> place_5</text>
<polygon fill="#ffffff" stroke="none" points="221,-650 221,-663 354,-663 354,-650 221,-650"/>
<text text-anchor="start" x="222" y="-655" font-family="Times,serif" font-weight="bold" font-size="10.00">сообщение:</text>
<text text-anchor="start" x="274" y="-655" font-family="Times,serif" font-size="10.00"> intro</text>
<polygon fill="none" stroke="black" points="219.5,-649 219.5,-717 354.5,-717 354.5,-649 219.5,-649"/>
</g>
<!-- [ns&#45;0]start&#45;&gt;[ns&#45;0]start_spying -->
<g id="edge3" class="edge"><title>[ns&#45;0]start:[ns&#45;0]start&#45;&gt;[ns&#45;0]start_spying:[ns&#45;0]start_spying</title>
<path fill="none" stroke="black" d="M287,-648.808C287,-637.996 287,-625.931 287,-614.867"/>
<polygon fill="black" stroke="black" points="290.5,-614.639 287,-604.639 283.5,-614.639 290.5,-614.639"/>
</g>
<!-- [ns&#45;0]open_up_lying -->
<g id="node4" class="node"><title>[ns&#45;0]open_up_lying</title>
<polygon fill="#eeeeee" stroke="none" points="549.5,-20 549.5,-88 810.5,-88 810.5,-20 549.5,-20"/>
<text text-anchor="start" x="552" y="-78.5" font-family="Times,serif" font-style="italic" font-size="10.00">[ns&#45;0]open_up_lying</text>
<text text-anchor="start" x="653" y="-78.5" font-family="Times,serif" font-weight="bold" font-size="10.00">open_up_lying</text>
<text text-anchor="start" x="749" y="-78.5" font-family="Times,serif" font-weight="bold" font-size="10.00">successed</text>
<text text-anchor="start" x="552" y="-64" font-family="Times,serif" font-size="10.00">Вернуться к заказчику и сообщить ложную информацию</text>
<polygon fill="#dddddd" stroke="none" points="551,-47 551,-60 728,-60 728,-47 551,-47"/>
<text text-anchor="start" x="552" y="-52" font-family="Times,serif" font-size="10.00">hero </text>
<text text-anchor="start" x="573" y="-52" font-family="Times,serif" font-weight="bold" font-size="10.00">находится в</text>
<text text-anchor="start" x="628" y="-52" font-family="Times,serif" font-size="10.00"> place_1</text>
<polygon fill="#ffffff" stroke="none" points="551,-34 551,-47 728,-47 728,-34 551,-34"/>
<text text-anchor="start" x="552" y="-39" font-family="Times,serif" font-weight="bold" font-size="10.00">увеличить влияние </text>
<text text-anchor="start" x="640" y="-39" font-family="Times,serif" font-size="10.00">  person_1 </text>
<text text-anchor="start" x="685" y="-39" font-family="Times,serif" font-weight="bold" font-size="10.00">на </text>
<text text-anchor="start" x="698" y="-39" font-family="Times,serif" font-size="10.00"> &#45;1.00</text>
<polygon fill="#ffffff" stroke="none" points="551,-21 551,-34 728,-34 728,-21 551,-21"/>
<text text-anchor="start" x="552" y="-26" font-family="Times,serif" font-weight="bold" font-size="10.00">увеличить влияние </text>
<text text-anchor="start" x="640" y="-26" font-family="Times,serif" font-size="10.00">  person_5 </text>
<text text-anchor="start" x="685" y="-26" font-family="Times,serif" font-weight="bold" font-size="10.00">на </text>
<text text-anchor="start" x="698" y="-26" font-family="Times,serif" font-size="10.00"> 1.00</text>
<polygon fill="none" stroke="black" points="549.5,-20 549.5,-88 810.5,-88 810.5,-20 549.5,-20"/>
</g>
<!-- [ns&#45;0]report_data -->
<g id="node5" class="node"><title>[ns&#45;0]report_data</title>
<polygon fill="#eeeeee" stroke="none" points="8,-20 8,-88 236,-88 236,-20 8,-20"/>
<text text-anchor="start" x="10" y="-78.5" font-family="Times,serif" font-style="italic" font-size="10.00">[ns&#45;0]report_data</text>
<text text-anchor="start" x="113" y="-78.5" font-family="Times,serif" font-weight="bold" font-size="10.00">report_data</text>
<text text-anchor="start" x="188.5" y="-78.5" font-family="Times,serif" font-weight="bold" font-size="10.00">successed</text>
<text text-anchor="start" x="10" y="-64" font-family="Times,serif" font-size="10.00">Сообщить сообранную информацию</text>
<polygon fill="#dddddd" stroke="none" points="9,-47 9,-60 182,-60 182,-47 9,-47"/>
<text text-anchor="start" x="10" y="-52" font-family="Times,serif" font-size="10.00">hero </text>
<text text-anchor="start" x="31" y="-52" font-family="Times,serif" font-weight="bold" font-size="10.00">находится в</text>
<text text-anchor="start" x="86" y="-52" font-family="Times,serif" font-size="10.00"> place_1</text>
<polygon fill="#ffffff" stroke="none" points="9,-34 9,-47 182,-47 182,-34 9,-34"/>
<text text-anchor="start" x="10" y="-39" font-family="Times,serif" font-weight="bold" font-size="10.00">увеличить влияние </text>
<text text-anchor="start" x="98" y="-39" font-family="Times,serif" font-size="10.00">  person_1 </text>
<text text-anchor="start" x="143" y="-39" font-family="Times,serif" font-weight="bold" font-size="10.00">на </text>
<text text-anchor="start" x="156" y="-39" font-family="Times,serif" font-size="10.00"> 1.00</text>
<polygon fill="#ffffff" stroke="none" points="9,-21 9,-34 182,-34 182,-21 9,-21"/>
<text text-anchor="start" x="10" y="-26" font-family="Times,serif" font-weight="bold" font-size="10.00">увеличить влияние </text>
<text text-anchor="start" x="98" y="-26" font-family="Times,serif" font-size="10.00">  person_5 </text>
<text text-anchor="start" x="143" y="-26" font-family="Times,serif" font-weight="bold" font-size="10.00">на </text>
<text text-anchor="start" x="156" y="-26" font-family="Times,serif" font-size="10.00"> &#45;1.00</text>
<polygon fill="none" stroke="black" points="8,-20 8,-88 236,-88 236,-20 8,-20"/>
</g>
<!-- [ns&#45;0]continue_spying -->
<g id="node6" class="node"><title>[ns&#45;0]continue_spying</title>
<polygon fill="#ddffdd" stroke="none" points="27.5,-207 27.5,-275 216.5,-275 216.5,-207 27.5,-207"/>
<text text-anchor="start" x="30" y="-265.5" font-family="Times,serif" font-style="italic" font-size="10.00">[ns&#45;0]continue_spying</text>
<text text-anchor="start" x="30" y="-251" font-family="Times,serif" font-size="10.00">Продолжить шпионаж</text>
<polygon fill="#cceecc" stroke="none" points="29,-234 29,-247 216,-247 216,-234 29,-234"/>
<text text-anchor="start" x="30" y="-239" font-family="Times,serif" font-size="10.00">hero </text>
<text text-anchor="start" x="51" y="-239" font-family="Times,serif" font-weight="bold" font-size="10.00">находится около</text>
<text text-anchor="start" x="127" y="-239" font-family="Times,serif" font-size="10.00"> place_5</text>
<polygon fill="#eeffee" stroke="none" points="29,-221 29,-234 216,-234 216,-221 29,-221"/>
<text text-anchor="start" x="30" y="-226" font-family="Times,serif" font-weight="bold" font-size="10.00">отправить </text>
<text text-anchor="start" x="80" y="-226" font-family="Times,serif" font-size="10.00"> hero</text>
<text text-anchor="start" x="101" y="-226" font-family="Times,serif" font-weight="bold" font-size="10.00">бродить около</text>
<text text-anchor="start" x="167" y="-226" font-family="Times,serif" font-size="10.00"> place_5</text>
<polygon fill="#eeffee" stroke="none" points="29,-208 29,-221 216,-221 216,-208 29,-208"/>
<text text-anchor="start" x="30" y="-213" font-family="Times,serif" font-weight="bold" font-size="10.00">сообщение:</text>
<text text-anchor="start" x="82" y="-213" font-family="Times,serif" font-size="10.00"> continue_spying</text>
<polygon fill="none" stroke="black" points="27.5,-207 27.5,-275 216.5,-275 216.5,-207 27.5,-207"/>
</g>
<!-- #jump([ns&#45;0]continue_spying, [ns&#45;0]report_data) -->
<g id="node13" class="node"><title>#jump([ns&#45;0]continue_spying, [ns&#45;0]report_data)</title>
<polygon fill="#eeeeee" stroke="none" points="49,-142 49,-156 195,-156 195,-142 49,-142"/>
<text text-anchor="start" x="50" y="-147.5" font-family="Times,serif" font-weight="bold" font-size="10.00">сообщение:</text>
<text text-anchor="start" x="102" y="-147.5" font-family="Times,serif" font-size="10.00"> move_to_report_data</text>
</g>
<!-- [ns&#45;0]continue_spying&#45;&gt;#jump([ns&#45;0]continue_spying, [ns&#45;0]report_data) -->
<g id="edge10" class="edge"><title>[ns&#45;0]continue_spying:[ns&#45;0]continue_spying&#45;&gt;#jump([ns&#45;0]continue_spying, [ns&#45;0]report_data):#jump([ns&#45;0]continue_spying, [ns&#45;0]report_data)</title>
<path fill="none" stroke="black" d="M122,-206.998C122,-188.336 122,-166.703 122,-156.268"/>
</g>
<!-- [ns&#45;0]spying_middle -->
<g id="node7" class="node"><title>[ns&#45;0]spying_middle</title>
<polygon fill="#ddddff" stroke="none" points="137,-391 137,-433 315,-433 315,-391 137,-391"/>
<text text-anchor="start" x="139" y="-423.5" font-family="Times,serif" font-style="italic" font-size="10.00">[ns&#45;0]spying_middle</text>
<text text-anchor="start" x="139" y="-409" font-family="Times,serif" font-size="10.00">Шпионаж</text>
<polygon fill="#eeeeff" stroke="none" points="138,-392 138,-405 314,-405 314,-392 138,-392"/>
<text text-anchor="start" x="139" y="-397" font-family="Times,serif" font-weight="bold" font-size="10.00">отправить </text>
<text text-anchor="start" x="189" y="-397" font-family="Times,serif" font-size="10.00"> hero</text>
<text text-anchor="start" x="210" y="-397" font-family="Times,serif" font-weight="bold" font-size="10.00">бродить около</text>
<text text-anchor="start" x="276" y="-397" font-family="Times,serif" font-size="10.00"> place_5</text>
<polygon fill="none" stroke="black" points="137,-391 137,-433 315,-433 315,-391 137,-391"/>
</g>
<!-- #option([ns&#45;0]spying_middle, [ns&#45;0]continue_spying) -->
<g id="node9" class="node"><title>#option([ns&#45;0]spying_middle, [ns&#45;0]continue_spying)</title>
<polygon fill="#ffffff" stroke="none" points="113,-326 113,-340 131,-340 131,-326 113,-326"/>
<text text-anchor="start" x="114" y="-330.5" font-family="Times,serif" font-size="10.00">spy</text>
</g>
<!-- [ns&#45;0]spying_middle&#45;&gt;#option([ns&#45;0]spying_middle, [ns&#45;0]continue_spying) -->
<g id="edge1" class="edge"><title>[ns&#45;0]spying_middle:[ns&#45;0]spying_middle&#45;&gt;#option([ns&#45;0]spying_middle, [ns&#45;0]continue_spying):#option([ns&#45;0]spying_middle, [ns&#45;0]continue_spying)</title>
<path fill="none" stroke="black" stroke-dasharray="1,5" d="M198.947,-390.97C176.076,-374.037 144.769,-350.858 130.146,-340.031"/>
</g>
<!-- #option([ns&#45;0]spying_middle, [ns&#45;0]open_up) -->
<g id="node11" class="node"><title>#option([ns&#45;0]spying_middle, [ns&#45;0]open_up)</title>
<polygon fill="#ffffff" stroke="none" points="185,-332 185,-346 301,-346 301,-332 185,-332"/>
<text text-anchor="start" x="186" y="-336.5" font-family="Times,serif" font-size="10.00">open_up</text>
<polygon fill="#eeeeee" stroke="none" points="185,-319 185,-332 301,-332 301,-319 185,-319"/>
<text text-anchor="start" x="186" y="-324" font-family="Times,serif" font-weight="bold" font-size="10.00">сообщение:</text>
<text text-anchor="start" x="238" y="-324" font-family="Times,serif" font-size="10.00"> start_open_up</text>
</g>
<!-- [ns&#45;0]spying_middle&#45;&gt;#option([ns&#45;0]spying_middle, [ns&#45;0]open_up) -->
<g id="edge6" class="edge"><title>[ns&#45;0]spying_middle:[ns&#45;0]spying_middle&#45;&gt;#option([ns&#45;0]spying_middle, [ns&#45;0]open_up):#option([ns&#45;0]spying_middle, [ns&#45;0]open_up)</title>
<path fill="none" stroke="black" stroke-dasharray="1,5" d="M230.467,-390.769C233.536,-376.867 237.519,-358.828 240.162,-346.856"/>
</g>
<!-- [ns&#45;0]open_up -->
<g id="node8" class="node"><title>[ns&#45;0]open_up</title>
<polygon fill="#ddffdd" stroke="none" points="331.5,-213.5 331.5,-268.5 454.5,-268.5 454.5,-213.5 331.5,-213.5"/>
<text text-anchor="start" x="334" y="-258.5" font-family="Times,serif" font-style="italic" font-size="10.00">[ns&#45;0]open_up</text>
<text text-anchor="start" x="334" y="-244" font-family="Times,serif" font-size="10.00">Раскрыться</text>
<polygon fill="#cceecc" stroke="none" points="333,-227 333,-240 454,-240 454,-227 333,-227"/>
<text text-anchor="start" x="334" y="-232" font-family="Times,serif" font-size="10.00">hero </text>
<text text-anchor="start" x="355" y="-232" font-family="Times,serif" font-weight="bold" font-size="10.00">находится в</text>
<text text-anchor="start" x="410" y="-232" font-family="Times,serif" font-size="10.00"> place_5</text>
<polygon fill="#eeffee" stroke="none" points="333,-214 333,-227 454,-227 454,-214 333,-214"/>
<text text-anchor="start" x="334" y="-219" font-family="Times,serif" font-weight="bold" font-size="10.00">сообщение:</text>
<text text-anchor="start" x="386" y="-219" font-family="Times,serif" font-size="10.00"> open_up</text>
<polygon fill="none" stroke="black" points="331.5,-213.5 331.5,-268.5 454.5,-268.5 454.5,-213.5 331.5,-213.5"/>
</g>
<!-- [ns&#45;0]open_up&#45;&gt;[ns&#45;0]open_up_finish -->
<g id="edge14" class="edge"><title>[ns&#45;0]open_up:[ns&#45;0]open_up&#45;&gt;[ns&#45;0]open_up_finish:[ns&#45;0]open_up_finish</title>
<path fill="none" stroke="black" d="M393,-213.494C393,-183.395 393,-133.843 393,-98.1517"/>
<polygon fill="black" stroke="black" points="396.5,-98.0193 393,-88.0193 389.5,-98.0193 396.5,-98.0193"/>
</g>
<!-- #jump([ns&#45;0]open_up, [ns&#45;0]open_up_lying) -->
<g id="node12" class="node"><title>#jump([ns&#45;0]open_up, [ns&#45;0]open_up_lying)</title>
<polygon fill="#eeeeee" stroke="none" points="520,-142 520,-156 659,-156 659,-142 520,-142"/>
<text text-anchor="start" x="521" y="-147.5" font-family="Times,serif" font-weight="bold" font-size="10.00">сообщение:</text>
<text text-anchor="start" x="573" y="-147.5" font-family="Times,serif" font-size="10.00"> move_to_report_lie</text>
</g>
<!-- [ns&#45;0]open_up&#45;&gt;#jump([ns&#45;0]open_up, [ns&#45;0]open_up_lying) -->
<g id="edge8" class="edge"><title>[ns&#45;0]open_up:[ns&#45;0]open_up&#45;&gt;#jump([ns&#45;0]open_up, [ns&#45;0]open_up_lying):#jump([ns&#45;0]open_up, [ns&#45;0]open_up_lying)</title>
<path fill="none" stroke="black" d="M450.746,-213.484C494.334,-193.469 550.779,-167.55 575.921,-156.005"/>
</g>
<!-- #option([ns&#45;0]spying_middle, [ns&#45;0]continue_spying)&#45;&gt;[ns&#45;0]continue_spying -->
<g id="edge2" class="edge"><title>#option([ns&#45;0]spying_middle, [ns&#45;0]continue_spying):#option([ns&#45;0]spying_middle, [ns&#45;0]continue_spying)&#45;&gt;[ns&#45;0]continue_spying:[ns&#45;0]continue_spying</title>
<path fill="none" stroke="black" stroke-dasharray="1,5" d="M122,-325.814C122,-317.344 122,-301.386 122,-285.649"/>
<polygon fill="black" stroke="black" points="125.5,-285.421 122,-275.421 118.5,-285.421 125.5,-285.421"/>
</g>
<!-- #option([ns&#45;0]start_spying, [ns&#45;0]spying_middle)&#45;&gt;[ns&#45;0]spying_middle -->
<g id="edge5" class="edge"><title>#option([ns&#45;0]start_spying, [ns&#45;0]spying_middle):#option([ns&#45;0]start_spying, [ns&#45;0]spying_middle)&#45;&gt;[ns&#45;0]spying_middle:[ns&#45;0]spying_middle</title>
<path fill="none" stroke="black" stroke-dasharray="1,5" d="M226,-477.285C226,-468.035 226,-455.108 226,-443.271"/>
<polygon fill="black" stroke="black" points="229.5,-443.269 226,-433.269 222.5,-443.269 229.5,-443.269"/>
</g>
<!-- #option([ns&#45;0]spying_middle, [ns&#45;0]open_up)&#45;&gt;[ns&#45;0]open_up -->
<g id="edge7" class="edge"><title>#option([ns&#45;0]spying_middle, [ns&#45;0]open_up):#option([ns&#45;0]spying_middle, [ns&#45;0]open_up)&#45;&gt;[ns&#45;0]open_up:[ns&#45;0]open_up</title>
<path fill="none" stroke="black" stroke-dasharray="1,5" d="M263.857,-319.486C283.457,-307.726 313.62,-289.628 339.867,-273.88"/>
<polygon fill="black" stroke="black" points="341.823,-276.788 348.598,-268.641 338.222,-270.785 341.823,-276.788"/>
</g>
<!-- #jump([ns&#45;0]open_up, [ns&#45;0]open_up_lying)&#45;&gt;[ns&#45;0]open_up_lying -->
<g id="edge9" class="edge"><title>#jump([ns&#45;0]open_up, [ns&#45;0]open_up_lying):#jump([ns&#45;0]open_up, [ns&#45;0]open_up_lying)&#45;&gt;[ns&#45;0]open_up_lying:[ns&#45;0]open_up_lying</title>
<path fill="none" stroke="black" d="M594.971,-141.898C604.243,-132.422 622.859,-113.397 640.314,-95.5586"/>
<polygon fill="black" stroke="black" points="643.2,-97.6128 647.693,-88.0174 638.197,-92.7171 643.2,-97.6128"/>
</g>
<!-- #jump([ns&#45;0]continue_spying, [ns&#45;0]report_data)&#45;&gt;[ns&#45;0]report_data -->
<g id="edge11" class="edge"><title>#jump([ns&#45;0]continue_spying, [ns&#45;0]report_data):#jump([ns&#45;0]continue_spying, [ns&#45;0]report_data)&#45;&gt;[ns&#45;0]report_data:[ns&#45;0]report_data</title>
<path fill="none" stroke="black" d="M122,-141.898C122,-132.929 122,-115.408 122,-98.4341"/>
<polygon fill="black" stroke="black" points="125.5,-98.0174 122,-88.0174 118.5,-98.0175 125.5,-98.0174"/>
</g>
<!-- #option([ns&#45;0]start_spying, [ns&#45;0]open_up)&#45;&gt;[ns&#45;0]open_up -->
<g id="edge13" class="edge"><title>#option([ns&#45;0]start_spying, [ns&#45;0]open_up):#option([ns&#45;0]start_spying, [ns&#45;0]open_up)&#45;&gt;[ns&#45;0]open_up:[ns&#45;0]open_up</title>
<path fill="none" stroke="black" stroke-dasharray="1,5" d="M393,-319.486C393,-308.992 393,-293.451 393,-279.037"/>
<polygon fill="black" stroke="black" points="396.5,-278.828 393,-268.828 389.5,-278.828 396.5,-278.828"/>
</g>
<!-- #options_link(#option([ns&#45;0]start_spying, [ns&#45;0]open_up),#option([ns&#45;0]spying_middle, [ns&#45;0]open_up)) -->
<g id="node15" class="node"><title>#options_link(#option([ns&#45;0]start_spying, [ns&#45;0]open_up),#option([ns&#45;0]spying_middle, [ns&#45;0]open_up))</title>
<ellipse fill="#ffaaaa" stroke="black" cx="353" cy="-412" rx="12" ry="12"/>
<text text-anchor="middle" x="353" y="-409.5" font-family="Times,serif" font-size="10.00">link</text>
</g>
<!-- #options_link(#option([ns&#45;0]start_spying, [ns&#45;0]open_up),#option([ns&#45;0]spying_middle, [ns&#45;0]open_up))&#45;&gt;#option([ns&#45;0]spying_middle, [ns&#45;0]open_up) -->
<g id="edge16" class="edge"><title>#options_link(#option([ns&#45;0]start_spying, [ns&#45;0]open_up),#option([ns&#45;0]spying_middle, [ns&#45;0]open_up))&#45;&gt;#option([ns&#45;0]spying_middle, [ns&#45;0]open_up):#option([ns&#45;0]spying_middle, [ns&#45;0]open_up)</title>
<path fill="none" stroke="#ffaaaa" d="M345.812,-401.977C341.757,-397.206 336.426,-391.437 331,-387 311.395,-370.968 286.464,-356.415 268.147,-346.632"/>
</g>
<!-- #options_link(#option([ns&#45;0]start_spying, [ns&#45;0]open_up),#option([ns&#45;0]spying_middle, [ns&#45;0]open_up))&#45;&gt;#option([ns&#45;0]start_spying, [ns&#45;0]open_up) -->
<g id="edge15" class="edge"><title>#options_link(#option([ns&#45;0]start_spying, [ns&#45;0]open_up),#option([ns&#45;0]spying_middle, [ns&#45;0]open_up))&#45;&gt;#option([ns&#45;0]start_spying, [ns&#45;0]open_up):#option([ns&#45;0]start_spying, [ns&#45;0]open_up)</title>
<path fill="none" stroke="#ffaaaa" d="M358.229,-400.934C365.472,-386.992 378.553,-361.811 386.441,-346.626"/>
</g>
<!-- #options_link(#option([ns&#45;0]start_spying, [ns&#45;0]spying_middle),#option([ns&#45;0]spying_middle, [ns&#45;0]continue_spying)) -->
<g id="node16" class="node"><title>#options_link(#option([ns&#45;0]start_spying, [ns&#45;0]spying_middle),#option([ns&#45;0]spying_middle, [ns&#45;0]continue_spying))</title>
<ellipse fill="#ffaaaa" stroke="black" cx="133" cy="-577" rx="12" ry="12"/>
<text text-anchor="middle" x="133" y="-574.5" font-family="Times,serif" font-size="10.00">link</text>
</g>
<!-- #options_link(#option([ns&#45;0]start_spying, [ns&#45;0]spying_middle),#option([ns&#45;0]spying_middle, [ns&#45;0]continue_spying))&#45;&gt;#option([ns&#45;0]spying_middle, [ns&#45;0]continue_spying) -->
<g id="edge18" class="edge"><title>#options_link(#option([ns&#45;0]start_spying, [ns&#45;0]spying_middle),#option([ns&#45;0]spying_middle, [ns&#45;0]continue_spying))&#45;&gt;#option([ns&#45;0]spying_middle, [ns&#45;0]continue_spying):#option([ns&#45;0]spying_middle, [ns&#45;0]continue_spying)</title>
<path fill="none" stroke="#ffaaaa" d="M131.601,-564.854C128.724,-541.297 122.226,-484.695 120,-437 118.964,-414.802 119.581,-409.218 120,-387 120.32,-370.06 121.213,-350.092 121.69,-340.199"/>
</g>
<!-- #options_link(#option([ns&#45;0]start_spying, [ns&#45;0]spying_middle),#option([ns&#45;0]spying_middle, [ns&#45;0]continue_spying))&#45;&gt;#option([ns&#45;0]start_spying, [ns&#45;0]spying_middle) -->
<g id="edge17" class="edge"><title>#options_link(#option([ns&#45;0]start_spying, [ns&#45;0]spying_middle),#option([ns&#45;0]spying_middle, [ns&#45;0]continue_spying))&#45;&gt;#option([ns&#45;0]start_spying, [ns&#45;0]spying_middle):#option([ns&#45;0]start_spying, [ns&#45;0]spying_middle)</title>
<path fill="none" stroke="#ffaaaa" d="M141.583,-568.248C157.681,-553.708 192.539,-522.223 212.052,-504.598"/>
</g>
</g>
</svg>
