<?xml version="1.0" encoding="UTF-8" standalone="no"?>
<!DOCTYPE svg PUBLIC "-//W3C//DTD SVG 1.1//EN"
 "http://www.w3.org/Graphics/SVG/1.1/DTD/svg11.dtd">
<!-- Generated by graphviz version 2.34.0 (20130907.0221)
 -->
<!-- Title: quest Pages: 1 -->
<svg width="1179pt" height="1238pt"
 viewBox="0.00 0.00 1179.00 1238.00" xmlns="http://www.w3.org/2000/svg" xmlns:xlink="http://www.w3.org/1999/xlink">
<g id="graph0" class="graph" transform="scale(1 1) rotate(0) translate(4 1234)">
<title>quest</title>
<polygon fill="white" stroke="white" points="-4,4 -4,-1234 1175,-1234 1175,4 -4,4"/>
<g id="clust1" class="cluster"><title>cluster_[ns&#45;0]open_up_variants</title>
<polygon fill="#ffffdd" stroke="black" points="572,-426 572,-593 1163,-593 1163,-426 572,-426"/>
<text text-anchor="middle" x="867.5" y="-577.8" font-family="Times,serif" font-size="14.00">cluster_[ns&#45;0]open_up_variants</text>
</g>
<g id="clust2" class="cluster"><title>cluster_[ns&#45;0]spying_variants</title>
<polygon fill="#ffffdd" stroke="black" points="137,-601 137,-716 570,-716 570,-601 137,-601"/>
<text text-anchor="middle" x="353.5" y="-700.8" font-family="Times,serif" font-size="14.00">cluster_[ns&#45;0]spying_variants</text>
</g>
<!-- [ns&#45;0]witness_failed -->
<g id="node1" class="node"><title>[ns&#45;0]witness_failed</title>
<polygon fill="#eeeeee" stroke="none" points="374,-240.5 374,-321.5 522,-321.5 522,-240.5 374,-240.5"/>
<text text-anchor="start" x="376" y="-311.5" font-family="Times,serif" font-style="italic" font-size="10.00">[ns&#45;0]witness_failed</text>
<text text-anchor="start" x="376" y="-297" font-family="Times,serif" font-size="10.00">свидетель смог скрыться</text>
<polygon fill="#ffffff" stroke="none" points="375,-280 375,-293 521,-293 521,-280 375,-280"/>
<text text-anchor="start" x="376" y="-285" font-family="Times,serif" font-weight="bold" font-size="10.00">сообщение:</text>
<text text-anchor="start" x="428" y="-285" font-family="Times,serif" font-size="10.00"> witness_failed</text>
<polygon fill="#eeeeee" stroke="none" points="375,-267 375,-280 521,-280 521,-267 375,-267"/>
<text text-anchor="start" x="376" y="-272" font-family="Times,serif" font-weight="bold" font-size="10.00">результаты:</text>
<text text-anchor="start" x="376" y="-259" font-family="Times,serif" font-weight="bold" font-size="10.00">person_1</text>
<text text-anchor="start" x="464" y="-258" font-family="Times,serif" font-size="10.00">neutral</text>
<text text-anchor="start" x="376" y="-246" font-family="Times,serif" font-weight="bold" font-size="10.00">person_10</text>
<text text-anchor="start" x="464" y="-245" font-family="Times,serif" font-size="10.00">neutral</text>
<polygon fill="none" stroke="black" points="374,-240.5 374,-321.5 522,-321.5 522,-240.5 374,-240.5"/>
</g>
<!-- [ns&#45;0]start -->
<g id="node2" class="node"><title>[ns&#45;0]start</title>
<polygon fill="#eeeeee" stroke="none" points="501.5,-1158 501.5,-1226 648.5,-1226 648.5,-1158 501.5,-1158"/>
<text text-anchor="start" x="504" y="-1216.5" font-family="Times,serif" font-style="italic" font-size="10.00">[ns&#45;0]start</text>
<text text-anchor="start" x="598" y="-1216.5" font-family="Times,serif" font-weight="bold" font-size="10.00">spying</text>
<text text-anchor="start" x="504" y="-1202" font-family="Times,serif" font-size="10.00">Начало: задание на шпионаж</text>
<polygon fill="#dddddd" stroke="none" points="503,-1185 503,-1198 648,-1198 648,-1185 503,-1185"/>
<text text-anchor="start" x="504" y="-1190" font-family="Times,serif" font-size="10.00">hero </text>
<text text-anchor="start" x="525" y="-1190" font-family="Times,serif" font-weight="bold" font-size="10.00">находится в</text>
<text text-anchor="start" x="580" y="-1190" font-family="Times,serif" font-size="10.00"> place_1</text>
<polygon fill="#dddddd" stroke="none" points="503,-1172 503,-1185 648,-1185 648,-1172 503,-1172"/>
<text text-anchor="start" x="504" y="-1177" font-family="Times,serif" font-size="10.00">person_10 </text>
<text text-anchor="start" x="550" y="-1177" font-family="Times,serif" font-weight="bold" font-size="10.00">находится в</text>
<text text-anchor="start" x="605" y="-1177" font-family="Times,serif" font-size="10.00"> place_10</text>
<polygon fill="#ffffff" stroke="none" points="503,-1159 503,-1172 648,-1172 648,-1159 503,-1159"/>
<text text-anchor="start" x="504" y="-1164" font-family="Times,serif" font-weight="bold" font-size="10.00">сообщение:</text>
<text text-anchor="start" x="556" y="-1164" font-family="Times,serif" font-size="10.00"> intro</text>
<polygon fill="none" stroke="black" points="501.5,-1158 501.5,-1226 648.5,-1226 648.5,-1158 501.5,-1158"/>
</g>
<!-- [ns&#45;0]start_spying -->
<g id="node4" class="node"><title>[ns&#45;0]start_spying</title>
<polygon fill="#ddddff" stroke="none" points="502.5,-1058.5 502.5,-1113.5 647.5,-1113.5 647.5,-1058.5 502.5,-1058.5"/>
<text text-anchor="start" x="505" y="-1103.5" font-family="Times,serif" font-style="italic" font-size="10.00">[ns&#45;0]start_spying</text>
<text text-anchor="start" x="505" y="-1089" font-family="Times,serif" font-size="10.00">Прибытие в город цели</text>
<polygon fill="#ccccee" stroke="none" points="504,-1072 504,-1085 647,-1085 647,-1072 504,-1072"/>
<text text-anchor="start" x="505" y="-1077" font-family="Times,serif" font-size="10.00">hero </text>
<text text-anchor="start" x="526" y="-1077" font-family="Times,serif" font-weight="bold" font-size="10.00">находится в</text>
<text text-anchor="start" x="581" y="-1077" font-family="Times,serif" font-size="10.00"> place_10</text>
<polygon fill="#eeeeff" stroke="none" points="504,-1059 504,-1072 647,-1072 647,-1059 504,-1059"/>
<text text-anchor="start" x="505" y="-1064" font-family="Times,serif" font-weight="bold" font-size="10.00">сообщение:</text>
<text text-anchor="start" x="557" y="-1064" font-family="Times,serif" font-size="10.00"> arrived_to_target</text>
<polygon fill="none" stroke="black" points="502.5,-1058.5 502.5,-1113.5 647.5,-1113.5 647.5,-1058.5 502.5,-1058.5"/>
</g>
<!-- [ns&#45;0]start&#45;&gt;[ns&#45;0]start_spying -->
<g id="edge5" class="edge"><title>[ns&#45;0]start:[ns&#45;0]start&#45;&gt;[ns&#45;0]start_spying:[ns&#45;0]start_spying</title>
<path fill="none" stroke="black" d="M575,-1157.81C575,-1147 575,-1134.93 575,-1123.87"/>
<polygon fill="black" stroke="black" points="578.5,-1123.64 575,-1113.64 571.5,-1123.64 578.5,-1123.64"/>
</g>
<!-- [ns&#45;0]witness_fight -->
<g id="node3" class="node"><title>[ns&#45;0]witness_fight</title>
<polygon fill="#ffdddd" stroke="none" points="370,-457.5 370,-538.5 526,-538.5 526,-457.5 370,-457.5"/>
<text text-anchor="start" x="372" y="-528.5" font-family="Times,serif" font-style="italic" font-size="10.00">[ns&#45;0]witness_fight</text>
<text text-anchor="start" x="372" y="-514" font-family="Times,serif" font-size="10.00">удалось ли победить свидетеля?</text>
<polygon fill="#ffeeee" stroke="none" points="371,-497 371,-510 525,-510 525,-497 371,-497"/>
<text text-anchor="start" x="372" y="-502" font-family="Times,serif" font-weight="bold" font-size="10.00">сообщение:</text>
<text text-anchor="start" x="424" y="-502" font-family="Times,serif" font-size="10.00"> witness_fight</text>
<polygon fill="#ffeeee" stroke="none" points="371,-484 371,-497 525,-497 525,-484 371,-484"/>
<text text-anchor="start" x="372" y="-489" font-family="Times,serif" font-weight="bold" font-size="10.00">сразиться с наёмником</text>
<polygon fill="#ffdddd" stroke="none" points="371,-471 371,-484 525,-484 525,-471 371,-471"/>
<text text-anchor="start" x="372" y="-476" font-family="Times,serif" font-weight="bold" font-size="10.00">условия:</text>
<text text-anchor="start" x="372" y="-463" font-family="Times,serif" font-weight="bold" font-size="10.00">если </text>
<polygon fill="#ffdddd" stroke="none" points="454,-458 454,-471 525,-471 525,-458 454,-458"/>
<text text-anchor="start" x="455" y="-463" font-family="Times,serif" font-size="10.00">hero </text>
<text text-anchor="start" x="476" y="-463" font-family="Times,serif" font-weight="bold" font-size="10.00">жив</text>
<polygon fill="none" stroke="black" points="370,-457.5 370,-538.5 526,-538.5 526,-457.5 370,-457.5"/>
</g>
<!-- #answer(True, [ns&#45;0]witness_fight, [ns&#45;0]finish_spying_choice) -->
<g id="node18" class="node"><title>#answer(True, [ns&#45;0]witness_fight, [ns&#45;0]finish_spying_choice)</title>
<polygon fill="#ffffff" stroke="none" points="318,-373 318,-387 364,-387 364,-373 318,-373"/>
<text text-anchor="start" x="319" y="-377.5" font-family="Times,serif" font-size="10.00">ИСТИНА</text>
</g>
<!-- [ns&#45;0]witness_fight&#45;&gt;#answer(True, [ns&#45;0]witness_fight, [ns&#45;0]finish_spying_choice) -->
<g id="edge11" class="edge"><title>[ns&#45;0]witness_fight:[ns&#45;0]witness_fight&#45;&gt;#answer(True, [ns&#45;0]witness_fight, [ns&#45;0]finish_spying_choice):#answer(True, [ns&#45;0]witness_fight, [ns&#45;0]finish_spying_choice)</title>
<path fill="none" stroke="black" d="M411.476,-457.404C387.744,-431.676 359.04,-400.557 346.888,-387.384"/>
</g>
<!-- #answer(False, [ns&#45;0]witness_fight, [ns&#45;0]witness_failed) -->
<g id="node21" class="node"><title>#answer(False, [ns&#45;0]witness_fight, [ns&#45;0]witness_failed)</title>
<polygon fill="#ffffff" stroke="none" points="432,-373 432,-387 465,-387 465,-373 432,-373"/>
<text text-anchor="start" x="433" y="-377.5" font-family="Times,serif" font-size="10.00">ЛОЖЬ</text>
</g>
<!-- [ns&#45;0]witness_fight&#45;&gt;#answer(False, [ns&#45;0]witness_fight, [ns&#45;0]witness_failed) -->
<g id="edge17" class="edge"><title>[ns&#45;0]witness_fight:[ns&#45;0]witness_fight&#45;&gt;#answer(False, [ns&#45;0]witness_fight, [ns&#45;0]witness_failed):#answer(False, [ns&#45;0]witness_fight, [ns&#45;0]witness_failed)</title>
<path fill="none" stroke="black" d="M448,-457.404C448,-431.676 448,-400.557 448,-387.384"/>
</g>
<!-- #option([ns&#45;0]start_spying, [ns&#45;0]spying_middle, blackmail) -->
<g id="node17" class="node"><title>#option([ns&#45;0]start_spying, [ns&#45;0]spying_middle, blackmail)</title>
<polygon fill="#555555" stroke="none" points="494.5,-1018 371.5,-1018 371.5,-982 494.5,-982 494.5,-1018"/>
<polygon fill="#ffffff" stroke="none" points="379,-999 379,-1013 487,-1013 487,-999 379,-999"/>
<text text-anchor="start" x="380" y="-1003.5" font-family="Times,serif" font-size="10.00">blackmail</text>
<polygon fill="#eeeeee" stroke="none" points="379,-986 379,-999 487,-999 487,-986 379,-986"/>
<text text-anchor="start" x="380" y="-991" font-family="Times,serif" font-weight="bold" font-size="10.00">сообщение:</text>
<text text-anchor="start" x="432" y="-991" font-family="Times,serif" font-size="10.00"> start_spying</text>
</g>
<!-- [ns&#45;0]start_spying&#45;&gt;#option([ns&#45;0]start_spying, [ns&#45;0]spying_middle, blackmail) -->
<g id="edge9" class="edge"><title>[ns&#45;0]start_spying:[ns&#45;0]start_spying&#45;&gt;#option([ns&#45;0]start_spying, [ns&#45;0]spying_middle, blackmail):#option([ns&#45;0]start_spying, [ns&#45;0]spying_middle, blackmail)</title>
<path fill="none" stroke="black" stroke-dasharray="1,5" d="M530.07,-1058.42C504.719,-1043.43 474.219,-1025.38 454.259,-1013.58"/>
</g>
<!-- #option([ns&#45;0]start_spying, [ns&#45;0]open_up, open_up) -->
<g id="node23" class="node"><title>#option([ns&#45;0]start_spying, [ns&#45;0]open_up, open_up)</title>
<polygon fill="#ffffff" stroke="none" points="663,-999 663,-1013 779,-1013 779,-999 663,-999"/>
<text text-anchor="start" x="664" y="-1003.5" font-family="Times,serif" font-size="10.00">open_up</text>
<polygon fill="#eeeeee" stroke="none" points="663,-986 663,-999 779,-999 779,-986 663,-986"/>
<text text-anchor="start" x="664" y="-991" font-family="Times,serif" font-weight="bold" font-size="10.00">сообщение:</text>
<text text-anchor="start" x="716" y="-991" font-family="Times,serif" font-size="10.00"> start_open_up</text>
</g>
<!-- [ns&#45;0]start_spying&#45;&gt;#option([ns&#45;0]start_spying, [ns&#45;0]open_up, open_up) -->
<g id="edge22" class="edge"><title>[ns&#45;0]start_spying:[ns&#45;0]start_spying&#45;&gt;#option([ns&#45;0]start_spying, [ns&#45;0]open_up, open_up):#option([ns&#45;0]start_spying, [ns&#45;0]open_up, open_up)</title>
<path fill="none" stroke="black" stroke-dasharray="1,5" d="M621.195,-1058.42C647.26,-1043.43 678.62,-1025.38 699.142,-1013.58"/>
</g>
<!-- #option([ns&#45;0]start_spying, [ns&#45;0]spying_middle, spy) -->
<g id="node24" class="node"><title>#option([ns&#45;0]start_spying, [ns&#45;0]spying_middle, spy)</title>
<polygon fill="#5555aa" stroke="none" points="636.5,-1018 513.5,-1018 513.5,-982 636.5,-982 636.5,-1018"/>
<polygon fill="#ffffff" stroke="none" points="521,-999 521,-1013 629,-1013 629,-999 521,-999"/>
<text text-anchor="start" x="522" y="-1003.5" font-family="Times,serif" font-size="10.00">spy</text>
<polygon fill="#eeeeee" stroke="none" points="521,-986 521,-999 629,-999 629,-986 521,-986"/>
<text text-anchor="start" x="522" y="-991" font-family="Times,serif" font-weight="bold" font-size="10.00">сообщение:</text>
<text text-anchor="start" x="574" y="-991" font-family="Times,serif" font-size="10.00"> start_spying</text>
</g>
<!-- [ns&#45;0]start_spying&#45;&gt;#option([ns&#45;0]start_spying, [ns&#45;0]spying_middle, spy) -->
<g id="edge24" class="edge"><title>[ns&#45;0]start_spying:[ns&#45;0]start_spying&#45;&gt;#option([ns&#45;0]start_spying, [ns&#45;0]spying_middle, spy):#option([ns&#45;0]start_spying, [ns&#45;0]spying_middle, spy)</title>
<path fill="none" stroke="black" stroke-dasharray="1,5" d="M575,-1058.42C575,-1043.43 575,-1025.38 575,-1013.58"/>
</g>
<!-- [ns&#45;0]open_up_lying -->
<g id="node5" class="node"><title>[ns&#45;0]open_up_lying</title>
<polygon fill="#eeeeee" stroke="none" points="588.5,-438 588.5,-558 849.5,-558 849.5,-438 588.5,-438"/>
<text text-anchor="start" x="591" y="-548.5" font-family="Times,serif" font-style="italic" font-size="10.00">[ns&#45;0]open_up_lying</text>
<text text-anchor="start" x="591" y="-534" font-family="Times,serif" font-size="10.00">Вернуться к заказчику и сообщить ложную информацию</text>
<polygon fill="#dddddd" stroke="none" points="590,-517 590,-530 849,-530 849,-517 590,-517"/>
<text text-anchor="start" x="591" y="-522" font-family="Times,serif" font-size="10.00">hero </text>
<text text-anchor="start" x="612" y="-522" font-family="Times,serif" font-weight="bold" font-size="10.00">находится в</text>
<text text-anchor="start" x="667" y="-522" font-family="Times,serif" font-size="10.00"> place_1</text>
<polygon fill="#ffffff" stroke="none" points="590,-504 590,-517 849,-517 849,-504 590,-504"/>
<text text-anchor="start" x="591" y="-509" font-family="Times,serif" font-weight="bold" font-size="10.00">выдать награду </text>
<text text-anchor="start" x="666" y="-509" font-family="Times,serif" font-size="10.00">  hero </text>
<text text-anchor="start" x="691" y="-509" font-family="Times,serif" font-weight="bold" font-size="10.00">типа </text>
<text text-anchor="start" x="715" y="-509" font-family="Times,serif" font-size="10.00"> open_up_lying </text>
<text text-anchor="start" x="783" y="-509" font-family="Times,serif" font-weight="bold" font-size="10.00">в размере</text>
<text text-anchor="start" x="826" y="-509" font-family="Times,serif" font-size="10.00"> 1.50</text>
<polygon fill="#ffffff" stroke="none" points="590,-491 590,-504 849,-504 849,-491 590,-491"/>
<text text-anchor="start" x="591" y="-496" font-family="Times,serif" font-weight="bold" font-size="10.00">увеличить влияние </text>
<text text-anchor="start" x="679" y="-496" font-family="Times,serif" font-size="10.00">  person_1 </text>
<text text-anchor="start" x="724" y="-496" font-family="Times,serif" font-weight="bold" font-size="10.00">на </text>
<text text-anchor="start" x="737" y="-496" font-family="Times,serif" font-size="10.00"> &#45;1.50</text>
<polygon fill="#ffffff" stroke="none" points="590,-478 590,-491 849,-491 849,-478 590,-478"/>
<text text-anchor="start" x="591" y="-483" font-family="Times,serif" font-weight="bold" font-size="10.00">увеличить влияние </text>
<text text-anchor="start" x="679" y="-483" font-family="Times,serif" font-size="10.00">  person_10 </text>
<text text-anchor="start" x="729" y="-483" font-family="Times,serif" font-weight="bold" font-size="10.00">на </text>
<text text-anchor="start" x="742" y="-483" font-family="Times,serif" font-size="10.00"> 1.50</text>
<polygon fill="#eeeeee" stroke="none" points="590,-465 590,-478 849,-478 849,-465 590,-465"/>
<text text-anchor="start" x="591" y="-470" font-family="Times,serif" font-weight="bold" font-size="10.00">результаты:</text>
<text text-anchor="start" x="591" y="-457" font-family="Times,serif" font-weight="bold" font-size="10.00">person_1</text>
<text text-anchor="start" x="721" y="-456" font-family="Times,serif" font-size="10.00">failed</text>
<text text-anchor="start" x="591" y="-444" font-family="Times,serif" font-weight="bold" font-size="10.00">person_10</text>
<text text-anchor="start" x="721" y="-443" font-family="Times,serif" font-size="10.00">successed</text>
<polygon fill="none" stroke="black" points="588.5,-438 588.5,-558 849.5,-558 849.5,-438 588.5,-438"/>
</g>
<!-- [ns&#45;0]success_spying -->
<g id="node6" class="node"><title>[ns&#45;0]success_spying</title>
<polygon fill="#ddffdd" stroke="none" points="153.5,-613 153.5,-681 336.5,-681 336.5,-613 153.5,-613"/>
<text text-anchor="start" x="156" y="-671.5" font-family="Times,serif" font-style="italic" font-size="10.00">[ns&#45;0]success_spying</text>
<text text-anchor="start" x="156" y="-657" font-family="Times,serif" font-size="10.00">шпионим без происшествий</text>
<polygon fill="#cceecc" stroke="none" points="155,-640 155,-653 336,-653 336,-640 155,-640"/>
<text text-anchor="start" x="156" y="-645" font-family="Times,serif" font-size="10.00">hero </text>
<text text-anchor="start" x="177" y="-645" font-family="Times,serif" font-weight="bold" font-size="10.00">находится около</text>
<text text-anchor="start" x="253" y="-645" font-family="Times,serif" font-size="10.00"> place_10</text>
<polygon fill="#eeffee" stroke="none" points="155,-627 155,-640 336,-640 336,-627 155,-627"/>
<text text-anchor="start" x="156" y="-632" font-family="Times,serif" font-weight="bold" font-size="10.00">сообщение:</text>
<text text-anchor="start" x="208" y="-632" font-family="Times,serif" font-size="10.00"> success_spying</text>
<polygon fill="#eeffee" stroke="none" points="155,-614 155,-627 336,-627 336,-614 155,-614"/>
<text text-anchor="start" x="156" y="-619" font-family="Times,serif" font-weight="bold" font-size="10.00">отправить </text>
<text text-anchor="start" x="206" y="-619" font-family="Times,serif" font-size="10.00"> hero</text>
<text text-anchor="start" x="227" y="-619" font-family="Times,serif" font-weight="bold" font-size="10.00">бродить около</text>
<text text-anchor="start" x="293" y="-619" font-family="Times,serif" font-size="10.00"> place_10</text>
<polygon fill="none" stroke="black" points="153.5,-613 153.5,-681 336.5,-681 336.5,-613 153.5,-613"/>
</g>
<!-- [ns&#45;0]finish_spying_choice -->
<g id="node13" class="node"><title>[ns&#45;0]finish_spying_choice</title>
<polygon fill="#ddddff" stroke="none" points="162.5,-266.5 162.5,-295.5 339.5,-295.5 339.5,-266.5 162.5,-266.5"/>
<text text-anchor="start" x="165" y="-285.5" font-family="Times,serif" font-style="italic" font-size="10.00">[ns&#45;0]finish_spying_choice</text>
<text text-anchor="start" x="165" y="-271" font-family="Times,serif" font-size="10.00">Варианты выбора завершения шпионажа</text>
<polygon fill="none" stroke="black" points="162.5,-266.5 162.5,-295.5 339.5,-295.5 339.5,-266.5 162.5,-266.5"/>
</g>
<!-- [ns&#45;0]success_spying&#45;&gt;[ns&#45;0]finish_spying_choice -->
<g id="edge4" class="edge"><title>[ns&#45;0]success_spying:[ns&#45;0]success_spying&#45;&gt;[ns&#45;0]finish_spying_choice:[ns&#45;0]finish_spying_choice</title>
<path fill="none" stroke="black" d="M245.548,-612.732C246.746,-540.051 249.573,-368.566 250.61,-305.665"/>
<polygon fill="black" stroke="black" points="254.111,-305.61 250.777,-295.554 247.112,-305.495 254.111,-305.61"/>
</g>
<!-- [ns&#45;0]blackmail_finish -->
<g id="node7" class="node"><title>[ns&#45;0]blackmail_finish</title>
<polygon fill="#eeeeee" stroke="none" points="7.5,-10.5 7.5,-117.5 274.5,-117.5 274.5,-10.5 7.5,-10.5"/>
<text text-anchor="start" x="10" y="-107.5" font-family="Times,serif" font-style="italic" font-size="10.00">[ns&#45;0]blackmail_finish</text>
<text text-anchor="start" x="10" y="-93" font-family="Times,serif" font-size="10.00">Шантажировать самостоятельно</text>
<polygon fill="#dddddd" stroke="none" points="9,-76 9,-89 274,-89 274,-76 9,-76"/>
<text text-anchor="start" x="10" y="-81" font-family="Times,serif" font-size="10.00">hero </text>
<text text-anchor="start" x="31" y="-81" font-family="Times,serif" font-weight="bold" font-size="10.00">находится в</text>
<text text-anchor="start" x="86" y="-81" font-family="Times,serif" font-size="10.00"> place_10</text>
<polygon fill="#ffffff" stroke="none" points="9,-63 9,-76 274,-76 274,-63 9,-63"/>
<text text-anchor="start" x="10" y="-68" font-family="Times,serif" font-weight="bold" font-size="10.00">выдать награду </text>
<text text-anchor="start" x="85" y="-68" font-family="Times,serif" font-size="10.00">  hero </text>
<text text-anchor="start" x="110" y="-68" font-family="Times,serif" font-weight="bold" font-size="10.00">типа </text>
<text text-anchor="start" x="134" y="-68" font-family="Times,serif" font-size="10.00"> blackmail_finish </text>
<text text-anchor="start" x="208" y="-68" font-family="Times,serif" font-weight="bold" font-size="10.00">в размере</text>
<text text-anchor="start" x="251" y="-68" font-family="Times,serif" font-size="10.00"> 1.25</text>
<polygon fill="#ffffff" stroke="none" points="9,-50 9,-63 274,-63 274,-50 9,-50"/>
<text text-anchor="start" x="10" y="-55" font-family="Times,serif" font-weight="bold" font-size="10.00">увеличить влияние </text>
<text text-anchor="start" x="98" y="-55" font-family="Times,serif" font-size="10.00">  person_10 </text>
<text text-anchor="start" x="148" y="-55" font-family="Times,serif" font-weight="bold" font-size="10.00">на </text>
<text text-anchor="start" x="161" y="-55" font-family="Times,serif" font-size="10.00"> &#45;1.00</text>
<polygon fill="#eeeeee" stroke="none" points="9,-37 9,-50 274,-50 274,-37 9,-37"/>
<text text-anchor="start" x="10" y="-42" font-family="Times,serif" font-weight="bold" font-size="10.00">результаты:</text>
<text text-anchor="start" x="10" y="-29" font-family="Times,serif" font-weight="bold" font-size="10.00">person_1</text>
<text text-anchor="start" x="143" y="-28" font-family="Times,serif" font-size="10.00">neutral</text>
<text text-anchor="start" x="10" y="-16" font-family="Times,serif" font-weight="bold" font-size="10.00">person_10</text>
<text text-anchor="start" x="143" y="-15" font-family="Times,serif" font-size="10.00">failed</text>
<polygon fill="none" stroke="black" points="7.5,-10.5 7.5,-117.5 274.5,-117.5 274.5,-10.5 7.5,-10.5"/>
</g>
<!-- [ns&#45;0]open_up_finish -->
<g id="node8" class="node"><title>[ns&#45;0]open_up_finish</title>
<polygon fill="#eeeeee" stroke="none" points="883.5,-438 883.5,-558 1146.5,-558 1146.5,-438 883.5,-438"/>
<text text-anchor="start" x="886" y="-548.5" font-family="Times,serif" font-style="italic" font-size="10.00">[ns&#45;0]open_up_finish</text>
<text text-anchor="start" x="886" y="-534" font-family="Times,serif" font-size="10.00">Завершить задание и остатсья в городе цели</text>
<polygon fill="#dddddd" stroke="none" points="885,-517 885,-530 1146,-530 1146,-517 885,-517"/>
<text text-anchor="start" x="886" y="-522" font-family="Times,serif" font-size="10.00">hero </text>
<text text-anchor="start" x="907" y="-522" font-family="Times,serif" font-weight="bold" font-size="10.00">находится в</text>
<text text-anchor="start" x="962" y="-522" font-family="Times,serif" font-size="10.00"> place_10</text>
<polygon fill="#ffffff" stroke="none" points="885,-504 885,-517 1146,-517 1146,-504 885,-504"/>
<text text-anchor="start" x="886" y="-509" font-family="Times,serif" font-weight="bold" font-size="10.00">выдать награду </text>
<text text-anchor="start" x="961" y="-509" font-family="Times,serif" font-size="10.00">  hero </text>
<text text-anchor="start" x="986" y="-509" font-family="Times,serif" font-weight="bold" font-size="10.00">типа </text>
<text text-anchor="start" x="1010" y="-509" font-family="Times,serif" font-size="10.00"> open_up_finish </text>
<text text-anchor="start" x="1080" y="-509" font-family="Times,serif" font-weight="bold" font-size="10.00">в размере</text>
<text text-anchor="start" x="1123" y="-509" font-family="Times,serif" font-size="10.00"> 1.00</text>
<polygon fill="#ffffff" stroke="none" points="885,-491 885,-504 1146,-504 1146,-491 885,-491"/>
<text text-anchor="start" x="886" y="-496" font-family="Times,serif" font-weight="bold" font-size="10.00">увеличить влияние </text>
<text text-anchor="start" x="974" y="-496" font-family="Times,serif" font-size="10.00">  person_1 </text>
<text text-anchor="start" x="1019" y="-496" font-family="Times,serif" font-weight="bold" font-size="10.00">на </text>
<text text-anchor="start" x="1032" y="-496" font-family="Times,serif" font-size="10.00"> &#45;1.00</text>
<polygon fill="#ffffff" stroke="none" points="885,-478 885,-491 1146,-491 1146,-478 885,-478"/>
<text text-anchor="start" x="886" y="-483" font-family="Times,serif" font-weight="bold" font-size="10.00">увеличить влияние </text>
<text text-anchor="start" x="974" y="-483" font-family="Times,serif" font-size="10.00">  person_10 </text>
<text text-anchor="start" x="1024" y="-483" font-family="Times,serif" font-weight="bold" font-size="10.00">на </text>
<text text-anchor="start" x="1037" y="-483" font-family="Times,serif" font-size="10.00"> 1.00</text>
<polygon fill="#eeeeee" stroke="none" points="885,-465 885,-478 1146,-478 1146,-465 885,-465"/>
<text text-anchor="start" x="886" y="-470" font-family="Times,serif" font-weight="bold" font-size="10.00">результаты:</text>
<text text-anchor="start" x="886" y="-457" font-family="Times,serif" font-weight="bold" font-size="10.00">person_1</text>
<text text-anchor="start" x="1017" y="-456" font-family="Times,serif" font-size="10.00">failed</text>
<text text-anchor="start" x="886" y="-444" font-family="Times,serif" font-weight="bold" font-size="10.00">person_10</text>
<text text-anchor="start" x="1017" y="-443" font-family="Times,serif" font-size="10.00">successed</text>
<polygon fill="none" stroke="black" points="883.5,-438 883.5,-558 1146.5,-558 1146.5,-438 883.5,-438"/>
</g>
<!-- [ns&#45;0]report_data -->
<g id="node9" class="node"><title>[ns&#45;0]report_data</title>
<polygon fill="#eeeeee" stroke="none" points="308.5,-4 308.5,-124 553.5,-124 553.5,-4 308.5,-4"/>
<text text-anchor="start" x="311" y="-114.5" font-family="Times,serif" font-style="italic" font-size="10.00">[ns&#45;0]report_data</text>
<text text-anchor="start" x="311" y="-100" font-family="Times,serif" font-size="10.00">Сообщить сообранную информацию</text>
<polygon fill="#dddddd" stroke="none" points="310,-83 310,-96 553,-96 553,-83 310,-83"/>
<text text-anchor="start" x="311" y="-88" font-family="Times,serif" font-size="10.00">hero </text>
<text text-anchor="start" x="332" y="-88" font-family="Times,serif" font-weight="bold" font-size="10.00">находится в</text>
<text text-anchor="start" x="387" y="-88" font-family="Times,serif" font-size="10.00"> place_1</text>
<polygon fill="#ffffff" stroke="none" points="310,-70 310,-83 553,-83 553,-70 310,-70"/>
<text text-anchor="start" x="311" y="-75" font-family="Times,serif" font-weight="bold" font-size="10.00">выдать награду </text>
<text text-anchor="start" x="386" y="-75" font-family="Times,serif" font-size="10.00">  hero </text>
<text text-anchor="start" x="411" y="-75" font-family="Times,serif" font-weight="bold" font-size="10.00">типа </text>
<text text-anchor="start" x="435" y="-75" font-family="Times,serif" font-size="10.00"> report_data </text>
<text text-anchor="start" x="487" y="-75" font-family="Times,serif" font-weight="bold" font-size="10.00">в размере</text>
<text text-anchor="start" x="530" y="-75" font-family="Times,serif" font-size="10.00"> 1.00</text>
<polygon fill="#ffffff" stroke="none" points="310,-57 310,-70 553,-70 553,-57 310,-57"/>
<text text-anchor="start" x="311" y="-62" font-family="Times,serif" font-weight="bold" font-size="10.00">увеличить влияние </text>
<text text-anchor="start" x="399" y="-62" font-family="Times,serif" font-size="10.00">  person_1 </text>
<text text-anchor="start" x="444" y="-62" font-family="Times,serif" font-weight="bold" font-size="10.00">на </text>
<text text-anchor="start" x="457" y="-62" font-family="Times,serif" font-size="10.00"> 1.00</text>
<polygon fill="#ffffff" stroke="none" points="310,-44 310,-57 553,-57 553,-44 310,-44"/>
<text text-anchor="start" x="311" y="-49" font-family="Times,serif" font-weight="bold" font-size="10.00">увеличить влияние </text>
<text text-anchor="start" x="399" y="-49" font-family="Times,serif" font-size="10.00">  person_10 </text>
<text text-anchor="start" x="449" y="-49" font-family="Times,serif" font-weight="bold" font-size="10.00">на </text>
<text text-anchor="start" x="462" y="-49" font-family="Times,serif" font-size="10.00"> &#45;1.00</text>
<polygon fill="#eeeeee" stroke="none" points="310,-31 310,-44 553,-44 553,-31 310,-31"/>
<text text-anchor="start" x="311" y="-36" font-family="Times,serif" font-weight="bold" font-size="10.00">результаты:</text>
<text text-anchor="start" x="311" y="-23" font-family="Times,serif" font-weight="bold" font-size="10.00">person_1</text>
<text text-anchor="start" x="433" y="-22" font-family="Times,serif" font-size="10.00">successed</text>
<text text-anchor="start" x="311" y="-10" font-family="Times,serif" font-weight="bold" font-size="10.00">person_10</text>
<text text-anchor="start" x="433" y="-9" font-family="Times,serif" font-size="10.00">failed</text>
<polygon fill="none" stroke="black" points="308.5,-4 308.5,-124 553.5,-124 553.5,-4 308.5,-4"/>
</g>
<!-- [ns&#45;0]continue_spying -->
<g id="node10" class="node"><title>[ns&#45;0]continue_spying</title>
<polygon fill="#ddffdd" stroke="none" points="397,-741.5 397,-770.5 499,-770.5 499,-741.5 397,-741.5"/>
<text text-anchor="start" x="399" y="-760.5" font-family="Times,serif" font-style="italic" font-size="10.00">[ns&#45;0]continue_spying</text>
<text text-anchor="start" x="399" y="-746" font-family="Times,serif" font-size="10.00">Продолжить шпионаж</text>
<polygon fill="none" stroke="black" points="397,-741.5 397,-770.5 499,-770.5 499,-741.5 397,-741.5"/>
</g>
<!-- [ns&#45;0]continue_spying&#45;&gt;[ns&#45;0]success_spying -->
<g id="edge21" class="edge"><title>[ns&#45;0]continue_spying:[ns&#45;0]continue_spying&#45;&gt;[ns&#45;0]success_spying:[ns&#45;0]success_spying</title>
<path fill="none" stroke="black" d="M410.793,-741.442C392.98,-734.521 371.543,-725.554 353,-716 336.132,-707.309 318.463,-696.823 302.417,-686.716"/>
<polygon fill="black" stroke="black" points="303.999,-683.574 293.685,-681.153 300.238,-689.478 303.999,-683.574"/>
</g>
<!-- [ns&#45;0]witness -->
<g id="node11" class="node"><title>[ns&#45;0]witness</title>
<polygon fill="#ddffdd" stroke="none" points="370.5,-613 370.5,-681 553.5,-681 553.5,-613 370.5,-613"/>
<text text-anchor="start" x="373" y="-671.5" font-family="Times,serif" font-style="italic" font-size="10.00">[ns&#45;0]witness</text>
<text text-anchor="start" x="373" y="-657" font-family="Times,serif" font-size="10.00">героя заметил один из работников цели</text>
<polygon fill="#cceecc" stroke="none" points="372,-640 372,-653 553,-653 553,-640 372,-640"/>
<text text-anchor="start" x="373" y="-645" font-family="Times,serif" font-size="10.00">hero </text>
<text text-anchor="start" x="394" y="-645" font-family="Times,serif" font-weight="bold" font-size="10.00">находится около</text>
<text text-anchor="start" x="470" y="-645" font-family="Times,serif" font-size="10.00"> place_10</text>
<polygon fill="#eeffee" stroke="none" points="372,-627 372,-640 553,-640 553,-627 372,-627"/>
<text text-anchor="start" x="373" y="-632" font-family="Times,serif" font-weight="bold" font-size="10.00">сообщение:</text>
<text text-anchor="start" x="425" y="-632" font-family="Times,serif" font-size="10.00"> witness</text>
<polygon fill="#eeffee" stroke="none" points="372,-614 372,-627 553,-627 553,-614 372,-614"/>
<text text-anchor="start" x="373" y="-619" font-family="Times,serif" font-weight="bold" font-size="10.00">отправить </text>
<text text-anchor="start" x="423" y="-619" font-family="Times,serif" font-size="10.00"> hero</text>
<text text-anchor="start" x="444" y="-619" font-family="Times,serif" font-weight="bold" font-size="10.00">бродить около</text>
<text text-anchor="start" x="510" y="-619" font-family="Times,serif" font-size="10.00"> place_10</text>
<polygon fill="none" stroke="black" points="370.5,-613 370.5,-681 553.5,-681 553.5,-613 370.5,-613"/>
</g>
<!-- [ns&#45;0]continue_spying&#45;&gt;[ns&#45;0]witness -->
<g id="edge8" class="edge"><title>[ns&#45;0]continue_spying:[ns&#45;0]continue_spying&#45;&gt;[ns&#45;0]witness:[ns&#45;0]witness</title>
<path fill="none" stroke="black" d="M449.773,-741.448C451.429,-728.791 453.992,-709.203 456.345,-691.224"/>
<polygon fill="black" stroke="black" points="459.833,-691.543 457.66,-681.173 452.892,-690.634 459.833,-691.543"/>
</g>
<!-- [ns&#45;0]witness&#45;&gt;[ns&#45;0]witness_fight -->
<g id="edge1" class="edge"><title>[ns&#45;0]witness:[ns&#45;0]witness&#45;&gt;[ns&#45;0]witness_fight:[ns&#45;0]witness_fight</title>
<path fill="none" stroke="black" d="M458.823,-612.643C457.028,-593.789 454.748,-569.851 452.744,-548.812"/>
<polygon fill="black" stroke="black" points="456.218,-548.375 451.786,-538.752 449.25,-549.038 456.218,-548.375"/>
</g>
<!-- [ns&#45;0]spying_middle -->
<g id="node12" class="node"><title>[ns&#45;0]spying_middle</title>
<polygon fill="#ddddff" stroke="none" points="424.5,-900 424.5,-942 607.5,-942 607.5,-900 424.5,-900"/>
<text text-anchor="start" x="427" y="-932.5" font-family="Times,serif" font-style="italic" font-size="10.00">[ns&#45;0]spying_middle</text>
<text text-anchor="start" x="427" y="-918" font-family="Times,serif" font-size="10.00">Шпионаж</text>
<polygon fill="#eeeeff" stroke="none" points="426,-901 426,-914 607,-914 607,-901 426,-901"/>
<text text-anchor="start" x="427" y="-906" font-family="Times,serif" font-weight="bold" font-size="10.00">отправить </text>
<text text-anchor="start" x="477" y="-906" font-family="Times,serif" font-size="10.00"> hero</text>
<text text-anchor="start" x="498" y="-906" font-family="Times,serif" font-weight="bold" font-size="10.00">бродить около</text>
<text text-anchor="start" x="564" y="-906" font-family="Times,serif" font-size="10.00"> place_10</text>
<polygon fill="none" stroke="black" points="424.5,-900 424.5,-942 607.5,-942 607.5,-900 424.5,-900"/>
</g>
<!-- #option([ns&#45;0]spying_middle, [ns&#45;0]open_up, open_up) -->
<g id="node19" class="node"><title>#option([ns&#45;0]spying_middle, [ns&#45;0]open_up, open_up)</title>
<polygon fill="#ffffff" stroke="none" points="569,-841 569,-855 685,-855 685,-841 569,-841"/>
<text text-anchor="start" x="570" y="-845.5" font-family="Times,serif" font-size="10.00">open_up</text>
<polygon fill="#eeeeee" stroke="none" points="569,-828 569,-841 685,-841 685,-828 569,-828"/>
<text text-anchor="start" x="570" y="-833" font-family="Times,serif" font-weight="bold" font-size="10.00">сообщение:</text>
<text text-anchor="start" x="622" y="-833" font-family="Times,serif" font-size="10.00"> start_open_up</text>
</g>
<!-- [ns&#45;0]spying_middle&#45;&gt;#option([ns&#45;0]spying_middle, [ns&#45;0]open_up, open_up) -->
<g id="edge13" class="edge"><title>[ns&#45;0]spying_middle:[ns&#45;0]spying_middle&#45;&gt;#option([ns&#45;0]spying_middle, [ns&#45;0]open_up, open_up):#option([ns&#45;0]spying_middle, [ns&#45;0]open_up, open_up)</title>
<path fill="none" stroke="black" stroke-dasharray="1,5" d="M544.874,-899.97C565.044,-885.978 591.363,-867.721 608.703,-855.693"/>
</g>
<!-- #option([ns&#45;0]spying_middle, [ns&#45;0]continue_spying, blackmail) -->
<g id="node20" class="node"><title>#option([ns&#45;0]spying_middle, [ns&#45;0]continue_spying, blackmail)</title>
<polygon fill="#555555" stroke="none" points="470.5,-860 411.5,-860 411.5,-824 470.5,-824 470.5,-860"/>
<polygon fill="#ffffff" stroke="none" points="419,-835 419,-849 463,-849 463,-835 419,-835"/>
<text text-anchor="start" x="420" y="-839.5" font-family="Times,serif" font-size="10.00">blackmail</text>
</g>
<!-- [ns&#45;0]spying_middle&#45;&gt;#option([ns&#45;0]spying_middle, [ns&#45;0]continue_spying, blackmail) -->
<g id="edge15" class="edge"><title>[ns&#45;0]spying_middle:[ns&#45;0]spying_middle&#45;&gt;#option([ns&#45;0]spying_middle, [ns&#45;0]continue_spying, blackmail):#option([ns&#45;0]spying_middle, [ns&#45;0]continue_spying, blackmail)</title>
<path fill="none" stroke="black" stroke-dasharray="1,5" d="M496.295,-899.769C479.976,-883.015 457.805,-860.253 447.177,-849.342"/>
</g>
<!-- #option([ns&#45;0]spying_middle, [ns&#45;0]continue_spying, spy) -->
<g id="node22" class="node"><title>#option([ns&#45;0]spying_middle, [ns&#45;0]continue_spying, spy)</title>
<polygon fill="#5555aa" stroke="none" points="543,-860 489,-860 489,-824 543,-824 543,-860"/>
<polygon fill="#ffffff" stroke="none" points="507,-835 507,-849 525,-849 525,-835 507,-835"/>
<text text-anchor="start" x="508" y="-839.5" font-family="Times,serif" font-size="10.00">spy</text>
</g>
<!-- [ns&#45;0]spying_middle&#45;&gt;#option([ns&#45;0]spying_middle, [ns&#45;0]continue_spying, spy) -->
<g id="edge19" class="edge"><title>[ns&#45;0]spying_middle:[ns&#45;0]spying_middle&#45;&gt;#option([ns&#45;0]spying_middle, [ns&#45;0]continue_spying, spy):#option([ns&#45;0]spying_middle, [ns&#45;0]continue_spying, spy)</title>
<path fill="none" stroke="black" stroke-dasharray="1,5" d="M516,-899.769C516,-883.015 516,-860.253 516,-849.342"/>
</g>
<!-- #option([ns&#45;0]finish_spying_choice, [ns&#45;0]blackmail_finish, blackmail) -->
<g id="node15" class="node"><title>#option([ns&#45;0]finish_spying_choice, [ns&#45;0]blackmail_finish, blackmail)</title>
<polygon fill="#555555" stroke="none" points="241,-200 111,-200 111,-164 241,-164 241,-200"/>
<polygon fill="#ffffff" stroke="none" points="119,-181 119,-195 233,-195 233,-181 119,-181"/>
<text text-anchor="start" x="120" y="-185.5" font-family="Times,serif" font-size="10.00">blackmail</text>
<polygon fill="#eeeeee" stroke="none" points="119,-168 119,-181 233,-181 233,-168 119,-168"/>
<text text-anchor="start" x="120" y="-173" font-family="Times,serif" font-weight="bold" font-size="10.00">сообщение:</text>
<text text-anchor="start" x="172" y="-173" font-family="Times,serif" font-size="10.00"> go_blackmail</text>
</g>
<!-- [ns&#45;0]finish_spying_choice&#45;&gt;#option([ns&#45;0]finish_spying_choice, [ns&#45;0]blackmail_finish, blackmail) -->
<g id="edge2" class="edge"><title>[ns&#45;0]finish_spying_choice:[ns&#45;0]finish_spying_choice&#45;&gt;#option([ns&#45;0]finish_spying_choice, [ns&#45;0]blackmail_finish, blackmail):#option([ns&#45;0]finish_spying_choice, [ns&#45;0]blackmail_finish, blackmail)</title>
<path fill="none" stroke="black" stroke-dasharray="1,5" d="M240.254,-266.102C225.673,-247.243 199.83,-213.82 185.771,-195.638"/>
</g>
<!-- #option([ns&#45;0]finish_spying_choice, [ns&#45;0]report_data, spy) -->
<g id="node25" class="node"><title>#option([ns&#45;0]finish_spying_choice, [ns&#45;0]report_data, spy)</title>
<polygon fill="#5555aa" stroke="none" points="464,-200 328,-200 328,-164 464,-164 464,-200"/>
<polygon fill="#ffffff" stroke="none" points="336,-181 336,-195 456,-195 456,-181 336,-181"/>
<text text-anchor="start" x="337" y="-185.5" font-family="Times,serif" font-size="10.00">spy</text>
<polygon fill="#eeeeee" stroke="none" points="336,-168 336,-181 456,-181 456,-168 336,-168"/>
<text text-anchor="start" x="337" y="-173" font-family="Times,serif" font-weight="bold" font-size="10.00">сообщение:</text>
<text text-anchor="start" x="389" y="-173" font-family="Times,serif" font-size="10.00"> go_report_data</text>
</g>
<!-- [ns&#45;0]finish_spying_choice&#45;&gt;#option([ns&#45;0]finish_spying_choice, [ns&#45;0]report_data, spy) -->
<g id="edge27" class="edge"><title>[ns&#45;0]finish_spying_choice:[ns&#45;0]finish_spying_choice&#45;&gt;#option([ns&#45;0]finish_spying_choice, [ns&#45;0]report_data, spy):#option([ns&#45;0]finish_spying_choice, [ns&#45;0]report_data, spy)</title>
<path fill="none" stroke="black" stroke-dasharray="1,5" d="M271.467,-266.308C299.571,-247.508 349.721,-213.959 377.021,-195.697"/>
</g>
<!-- [ns&#45;0]open_up -->
<g id="node14" class="node"><title>[ns&#45;0]open_up</title>
<polygon fill="#ddffdd" stroke="none" points="656.5,-728.5 656.5,-783.5 781.5,-783.5 781.5,-728.5 656.5,-728.5"/>
<text text-anchor="start" x="659" y="-773.5" font-family="Times,serif" font-style="italic" font-size="10.00">[ns&#45;0]open_up</text>
<text text-anchor="start" x="659" y="-759" font-family="Times,serif" font-size="10.00">Раскрыться</text>
<polygon fill="#cceecc" stroke="none" points="658,-742 658,-755 781,-755 781,-742 658,-742"/>
<text text-anchor="start" x="659" y="-747" font-family="Times,serif" font-size="10.00">hero </text>
<text text-anchor="start" x="680" y="-747" font-family="Times,serif" font-weight="bold" font-size="10.00">находится в</text>
<text text-anchor="start" x="735" y="-747" font-family="Times,serif" font-size="10.00"> place_10</text>
<polygon fill="#eeffee" stroke="none" points="658,-729 658,-742 781,-742 781,-729 658,-729"/>
<text text-anchor="start" x="659" y="-734" font-family="Times,serif" font-weight="bold" font-size="10.00">сообщение:</text>
<text text-anchor="start" x="711" y="-734" font-family="Times,serif" font-size="10.00"> open_up</text>
<polygon fill="none" stroke="black" points="656.5,-728.5 656.5,-783.5 781.5,-783.5 781.5,-728.5 656.5,-728.5"/>
</g>
<!-- [ns&#45;0]open_up&#45;&gt;[ns&#45;0]open_up_finish -->
<g id="edge26" class="edge"><title>[ns&#45;0]open_up:[ns&#45;0]open_up&#45;&gt;[ns&#45;0]open_up_finish:[ns&#45;0]open_up_finish</title>
<path fill="none" stroke="black" d="M781.617,-729.998C789.753,-725.782 797.763,-721.099 805,-716 864.96,-673.755 922.104,-612.873 961.601,-566.342"/>
<polygon fill="black" stroke="black" points="964.511,-568.32 968.276,-558.416 959.157,-563.81 964.511,-568.32"/>
</g>
<!-- #jump([ns&#45;0]open_up, [ns&#45;0]open_up_lying) -->
<g id="node16" class="node"><title>#jump([ns&#45;0]open_up, [ns&#45;0]open_up_lying)</title>
<polygon fill="#eeeeee" stroke="none" points="650,-640 650,-654 789,-654 789,-640 650,-640"/>
<text text-anchor="start" x="651" y="-645.5" font-family="Times,serif" font-weight="bold" font-size="10.00">сообщение:</text>
<text text-anchor="start" x="703" y="-645.5" font-family="Times,serif" font-size="10.00"> move_to_report_lie</text>
</g>
<!-- [ns&#45;0]open_up&#45;&gt;#jump([ns&#45;0]open_up, [ns&#45;0]open_up_lying) -->
<g id="edge6" class="edge"><title>[ns&#45;0]open_up:[ns&#45;0]open_up&#45;&gt;#jump([ns&#45;0]open_up, [ns&#45;0]open_up_lying):#jump([ns&#45;0]open_up, [ns&#45;0]open_up_lying)</title>
<path fill="none" stroke="black" d="M719,-728.275C719,-703.516 719,-668.447 719,-654.289"/>
</g>
<!-- #option([ns&#45;0]finish_spying_choice, [ns&#45;0]blackmail_finish, blackmail)&#45;&gt;[ns&#45;0]blackmail_finish -->
<g id="edge3" class="edge"><title>#option([ns&#45;0]finish_spying_choice, [ns&#45;0]blackmail_finish, blackmail):#option([ns&#45;0]finish_spying_choice, [ns&#45;0]blackmail_finish, blackmail)&#45;&gt;[ns&#45;0]blackmail_finish:[ns&#45;0]blackmail_finish</title>
<path fill="none" stroke="black" stroke-dasharray="1,5" d="M172.121,-168.143C169.04,-157.933 164.486,-142.84 159.807,-127.331"/>
<polygon fill="black" stroke="black" points="163.129,-126.223 156.889,-117.661 156.427,-128.246 163.129,-126.223"/>
</g>
<!-- #jump([ns&#45;0]open_up, [ns&#45;0]open_up_lying)&#45;&gt;[ns&#45;0]open_up_lying -->
<g id="edge7" class="edge"><title>#jump([ns&#45;0]open_up, [ns&#45;0]open_up_lying):#jump([ns&#45;0]open_up, [ns&#45;0]open_up_lying)&#45;&gt;[ns&#45;0]open_up_lying:[ns&#45;0]open_up_lying</title>
<path fill="none" stroke="black" d="M719,-639.684C719,-627.001 719,-597.167 719,-568.221"/>
<polygon fill="black" stroke="black" points="722.5,-568.049 719,-558.049 715.5,-568.049 722.5,-568.049"/>
</g>
<!-- #option([ns&#45;0]start_spying, [ns&#45;0]spying_middle, blackmail)&#45;&gt;[ns&#45;0]spying_middle -->
<g id="edge10" class="edge"><title>#option([ns&#45;0]start_spying, [ns&#45;0]spying_middle, blackmail):#option([ns&#45;0]start_spying, [ns&#45;0]spying_middle, blackmail)&#45;&gt;[ns&#45;0]spying_middle:[ns&#45;0]spying_middle</title>
<path fill="none" stroke="black" stroke-dasharray="1,5" d="M446.706,-986.285C457.584,-976.194 473.176,-961.728 486.817,-949.073"/>
<polygon fill="black" stroke="black" points="489.201,-951.636 494.152,-942.269 484.441,-946.504 489.201,-951.636"/>
</g>
<!-- #answer(True, [ns&#45;0]witness_fight, [ns&#45;0]finish_spying_choice)&#45;&gt;[ns&#45;0]finish_spying_choice -->
<g id="edge12" class="edge"><title>#answer(True, [ns&#45;0]witness_fight, [ns&#45;0]finish_spying_choice):#answer(True, [ns&#45;0]witness_fight, [ns&#45;0]finish_spying_choice)&#45;&gt;[ns&#45;0]finish_spying_choice:[ns&#45;0]finish_spying_choice</title>
<path fill="none" stroke="black" d="M335.37,-372.932C322.633,-359.205 291.107,-325.226 270.406,-302.915"/>
<polygon fill="black" stroke="black" points="272.951,-300.512 263.584,-295.562 267.82,-305.274 272.951,-300.512"/>
</g>
<!-- #option([ns&#45;0]spying_middle, [ns&#45;0]open_up, open_up)&#45;&gt;[ns&#45;0]open_up -->
<g id="edge14" class="edge"><title>#option([ns&#45;0]spying_middle, [ns&#45;0]open_up, open_up):#option([ns&#45;0]spying_middle, [ns&#45;0]open_up, open_up)&#45;&gt;[ns&#45;0]open_up:[ns&#45;0]open_up</title>
<path fill="none" stroke="black" stroke-dasharray="1,5" d="M640.973,-828.242C651.931,-818.237 667.703,-803.836 682.203,-790.597"/>
<polygon fill="black" stroke="black" points="684.613,-793.137 689.638,-783.809 679.893,-787.967 684.613,-793.137"/>
</g>
<!-- #option([ns&#45;0]spying_middle, [ns&#45;0]continue_spying, blackmail)&#45;&gt;[ns&#45;0]continue_spying -->
<g id="edge16" class="edge"><title>#option([ns&#45;0]spying_middle, [ns&#45;0]continue_spying, blackmail):#option([ns&#45;0]spying_middle, [ns&#45;0]continue_spying, blackmail)&#45;&gt;[ns&#45;0]continue_spying:[ns&#45;0]continue_spying</title>
<path fill="none" stroke="black" stroke-dasharray="1,5" d="M441.503,-834.959C442.436,-823.764 444.48,-799.245 446.027,-780.674"/>
<polygon fill="black" stroke="black" points="449.526,-780.828 446.869,-770.572 442.551,-780.247 449.526,-780.828"/>
</g>
<!-- #answer(False, [ns&#45;0]witness_fight, [ns&#45;0]witness_failed)&#45;&gt;[ns&#45;0]witness_failed -->
<g id="edge18" class="edge"><title>#answer(False, [ns&#45;0]witness_fight, [ns&#45;0]witness_failed):#answer(False, [ns&#45;0]witness_fight, [ns&#45;0]witness_failed)&#45;&gt;[ns&#45;0]witness_failed:[ns&#45;0]witness_failed</title>
<path fill="none" stroke="black" d="M448,-372.932C448,-364.483 448,-348.361 448,-332.011"/>
<polygon fill="black" stroke="black" points="451.5,-331.867 448,-321.867 444.5,-331.867 451.5,-331.867"/>
</g>
<!-- #option([ns&#45;0]spying_middle, [ns&#45;0]continue_spying, spy)&#45;&gt;[ns&#45;0]continue_spying -->
<g id="edge20" class="edge"><title>#option([ns&#45;0]spying_middle, [ns&#45;0]continue_spying, spy):#option([ns&#45;0]spying_middle, [ns&#45;0]continue_spying, spy)&#45;&gt;[ns&#45;0]continue_spying:[ns&#45;0]continue_spying</title>
<path fill="none" stroke="black" stroke-dasharray="1,5" d="M511.11,-834.959C501.666,-823.293 480.51,-797.16 465.294,-778.364"/>
<polygon fill="black" stroke="black" points="467.999,-776.142 458.987,-770.572 462.558,-780.547 467.999,-776.142"/>
</g>
<!-- #option([ns&#45;0]start_spying, [ns&#45;0]open_up, open_up)&#45;&gt;[ns&#45;0]open_up -->
<g id="edge23" class="edge"><title>#option([ns&#45;0]start_spying, [ns&#45;0]open_up, open_up):#option([ns&#45;0]start_spying, [ns&#45;0]open_up, open_up)&#45;&gt;[ns&#45;0]open_up:[ns&#45;0]open_up</title>
<path fill="none" stroke="black" stroke-dasharray="1,5" d="M720.895,-986.33C720.602,-950.789 719.762,-849.15 719.305,-793.876"/>
<polygon fill="black" stroke="black" points="722.804,-793.767 719.221,-783.797 715.804,-793.825 722.804,-793.767"/>
</g>
<!-- #option([ns&#45;0]start_spying, [ns&#45;0]spying_middle, spy)&#45;&gt;[ns&#45;0]spying_middle -->
<g id="edge25" class="edge"><title>#option([ns&#45;0]start_spying, [ns&#45;0]spying_middle, spy):#option([ns&#45;0]start_spying, [ns&#45;0]spying_middle, spy)&#45;&gt;[ns&#45;0]spying_middle:[ns&#45;0]spying_middle</title>
<path fill="none" stroke="black" stroke-dasharray="1,5" d="M565.257,-986.285C557.811,-976.567 547.257,-962.793 537.827,-950.486"/>
<polygon fill="black" stroke="black" points="540.391,-948.078 531.53,-942.269 534.834,-952.335 540.391,-948.078"/>
</g>
<!-- #option([ns&#45;0]finish_spying_choice, [ns&#45;0]report_data, spy)&#45;&gt;[ns&#45;0]report_data -->
<g id="edge28" class="edge"><title>#option([ns&#45;0]finish_spying_choice, [ns&#45;0]report_data, spy):#option([ns&#45;0]finish_spying_choice, [ns&#45;0]report_data, spy)&#45;&gt;[ns&#45;0]report_data:[ns&#45;0]report_data</title>
<path fill="none" stroke="black" stroke-dasharray="1,5" d="M399.879,-168.143C402.529,-159.361 406.269,-146.967 410.241,-133.803"/>
<polygon fill="black" stroke="black" points="413.624,-134.706 413.162,-124.122 406.922,-132.684 413.624,-134.706"/>
</g>
</g>
</svg>
