<?xml version="1.0" encoding="UTF-8" standalone="no"?>
<!DOCTYPE svg PUBLIC "-//W3C//DTD SVG 1.1//EN"
 "http://www.w3.org/Graphics/SVG/1.1/DTD/svg11.dtd">
<!-- Generated by graphviz version 2.34.0 (20130907.0221)
 -->
<!-- Title: quest Pages: 1 -->
<svg width="877pt" height="781pt"
 viewBox="0.00 0.00 877.00 781.00" xmlns="http://www.w3.org/2000/svg" xmlns:xlink="http://www.w3.org/1999/xlink">
<g id="graph0" class="graph" transform="scale(1 1) rotate(0) translate(4 777)">
<title>quest</title>
<polygon fill="white" stroke="white" points="-4,4 -4,-777 873,-777 873,4 -4,4"/>
<g id="clust1" class="cluster"><title>cluster_[ns&#45;0]open_up_variants</title>
<polygon fill="#ffffdd" stroke="black" points="270,-8 270,-175 861,-175 861,-8 270,-8"/>
<text text-anchor="middle" x="565.5" y="-159.8" font-family="Times,serif" font-size="14.00">cluster_[ns&#45;0]open_up_variants</text>
</g>
<!-- [ns&#45;0]start_spying -->
<g id="node1" class="node"><title>[ns&#45;0]start_spying</title>
<polygon fill="#ddddff" stroke="none" points="254.5,-601.5 254.5,-656.5 399.5,-656.5 399.5,-601.5 254.5,-601.5"/>
<text text-anchor="start" x="257" y="-646.5" font-family="Times,serif" font-style="italic" font-size="10.00">[ns&#45;0]start_spying</text>
<text text-anchor="start" x="257" y="-632" font-family="Times,serif" font-size="10.00">Прибытие в город цели</text>
<polygon fill="#ccccee" stroke="none" points="256,-615 256,-628 399,-628 399,-615 256,-615"/>
<text text-anchor="start" x="257" y="-620" font-family="Times,serif" font-size="10.00">hero </text>
<text text-anchor="start" x="278" y="-620" font-family="Times,serif" font-weight="bold" font-size="10.00">находится в</text>
<text text-anchor="start" x="333" y="-620" font-family="Times,serif" font-size="10.00"> place_4</text>
<polygon fill="#eeeeff" stroke="none" points="256,-602 256,-615 399,-615 399,-602 256,-602"/>
<text text-anchor="start" x="257" y="-607" font-family="Times,serif" font-weight="bold" font-size="10.00">сообщение:</text>
<text text-anchor="start" x="309" y="-607" font-family="Times,serif" font-size="10.00"> arrived_to_target</text>
<polygon fill="none" stroke="black" points="254.5,-601.5 254.5,-656.5 399.5,-656.5 399.5,-601.5 254.5,-601.5"/>
</g>
<!-- #option([ns&#45;0]start_spying, [ns&#45;0]spying_middle) -->
<g id="node10" class="node"><title>#option([ns&#45;0]start_spying, [ns&#45;0]spying_middle)</title>
<polygon fill="#ffffff" stroke="none" points="218,-542 218,-556 326,-556 326,-542 218,-542"/>
<text text-anchor="start" x="219" y="-546.5" font-family="Times,serif" font-size="10.00">spy</text>
<polygon fill="#eeeeee" stroke="none" points="218,-529 218,-542 326,-542 326,-529 218,-529"/>
<text text-anchor="start" x="219" y="-534" font-family="Times,serif" font-weight="bold" font-size="10.00">сообщение:</text>
<text text-anchor="start" x="271" y="-534" font-family="Times,serif" font-size="10.00"> start_spying</text>
</g>
<!-- [ns&#45;0]start_spying&#45;&gt;#option([ns&#45;0]start_spying, [ns&#45;0]spying_middle) -->
<g id="edge5" class="edge"><title>[ns&#45;0]start_spying:[ns&#45;0]start_spying&#45;&gt;#option([ns&#45;0]start_spying, [ns&#45;0]spying_middle):#option([ns&#45;0]start_spying, [ns&#45;0]spying_middle)</title>
<path fill="none" stroke="black" stroke-dasharray="1,5" d="M309.598,-601.422C299.779,-586.426 287.965,-568.383 280.234,-556.576"/>
</g>
<!-- #option([ns&#45;0]start_spying, [ns&#45;0]open_up) -->
<g id="node14" class="node"><title>#option([ns&#45;0]start_spying, [ns&#45;0]open_up)</title>
<polygon fill="#ffffff" stroke="none" points="360,-542 360,-556 476,-556 476,-542 360,-542"/>
<text text-anchor="start" x="361" y="-546.5" font-family="Times,serif" font-size="10.00">open_up</text>
<polygon fill="#eeeeee" stroke="none" points="360,-529 360,-542 476,-542 476,-529 360,-529"/>
<text text-anchor="start" x="361" y="-534" font-family="Times,serif" font-weight="bold" font-size="10.00">сообщение:</text>
<text text-anchor="start" x="413" y="-534" font-family="Times,serif" font-size="10.00"> start_open_up</text>
</g>
<!-- [ns&#45;0]start_spying&#45;&gt;#option([ns&#45;0]start_spying, [ns&#45;0]open_up) -->
<g id="edge13" class="edge"><title>[ns&#45;0]start_spying:[ns&#45;0]start_spying&#45;&gt;#option([ns&#45;0]start_spying, [ns&#45;0]open_up):#option([ns&#45;0]start_spying, [ns&#45;0]open_up)</title>
<path fill="none" stroke="black" stroke-dasharray="1,5" d="M355.793,-601.422C372.039,-586.426 391.585,-568.383 404.376,-556.576"/>
</g>
<!-- [ns&#45;0]start -->
<g id="node2" class="node"><title>[ns&#45;0]start</title>
<polygon fill="#eeeeee" stroke="none" points="259.5,-701 259.5,-769 394.5,-769 394.5,-701 259.5,-701"/>
<text text-anchor="start" x="262" y="-759.5" font-family="Times,serif" font-style="italic" font-size="10.00">[ns&#45;0]start</text>
<text text-anchor="start" x="347" y="-759.5" font-family="Times,serif" font-weight="bold" font-size="10.00">spying</text>
<text text-anchor="start" x="262" y="-745" font-family="Times,serif" font-size="10.00">Начало: задание на шпионаж</text>
<polygon fill="#dddddd" stroke="none" points="261,-728 261,-741 394,-741 394,-728 261,-728"/>
<text text-anchor="start" x="262" y="-733" font-family="Times,serif" font-size="10.00">hero </text>
<text text-anchor="start" x="283" y="-733" font-family="Times,serif" font-weight="bold" font-size="10.00">находится в</text>
<text text-anchor="start" x="338" y="-733" font-family="Times,serif" font-size="10.00"> place_1</text>
<polygon fill="#dddddd" stroke="none" points="261,-715 261,-728 394,-728 394,-715 261,-715"/>
<text text-anchor="start" x="262" y="-720" font-family="Times,serif" font-size="10.00">person_4 </text>
<text text-anchor="start" x="302" y="-720" font-family="Times,serif" font-weight="bold" font-size="10.00">находится в</text>
<text text-anchor="start" x="357" y="-720" font-family="Times,serif" font-size="10.00"> place_4</text>
<polygon fill="#ffffff" stroke="none" points="261,-702 261,-715 394,-715 394,-702 261,-702"/>
<text text-anchor="start" x="262" y="-707" font-family="Times,serif" font-weight="bold" font-size="10.00">сообщение:</text>
<text text-anchor="start" x="314" y="-707" font-family="Times,serif" font-size="10.00"> intro</text>
<polygon fill="none" stroke="black" points="259.5,-701 259.5,-769 394.5,-769 394.5,-701 259.5,-701"/>
</g>
<!-- [ns&#45;0]start&#45;&gt;[ns&#45;0]start_spying -->
<g id="edge4" class="edge"><title>[ns&#45;0]start:[ns&#45;0]start&#45;&gt;[ns&#45;0]start_spying:[ns&#45;0]start_spying</title>
<path fill="none" stroke="black" d="M327,-700.808C327,-689.996 327,-677.931 327,-666.867"/>
<polygon fill="black" stroke="black" points="330.5,-666.639 327,-656.639 323.5,-666.639 330.5,-666.639"/>
</g>
<!-- [ns&#45;0]open_up_lying -->
<g id="node3" class="node"><title>[ns&#45;0]open_up_lying</title>
<polygon fill="#eeeeee" stroke="none" points="583.5,-20 583.5,-140 844.5,-140 844.5,-20 583.5,-20"/>
<text text-anchor="start" x="586" y="-130.5" font-family="Times,serif" font-style="italic" font-size="10.00">[ns&#45;0]open_up_lying</text>
<text text-anchor="start" x="586" y="-116" font-family="Times,serif" font-size="10.00">Вернуться к заказчику и сообщить ложную информацию</text>
<polygon fill="#dddddd" stroke="none" points="585,-99 585,-112 844,-112 844,-99 585,-99"/>
<text text-anchor="start" x="586" y="-104" font-family="Times,serif" font-size="10.00">hero </text>
<text text-anchor="start" x="607" y="-104" font-family="Times,serif" font-weight="bold" font-size="10.00">находится в</text>
<text text-anchor="start" x="662" y="-104" font-family="Times,serif" font-size="10.00"> place_1</text>
<polygon fill="#ffffff" stroke="none" points="585,-86 585,-99 844,-99 844,-86 585,-86"/>
<text text-anchor="start" x="586" y="-91" font-family="Times,serif" font-weight="bold" font-size="10.00">выдать награду </text>
<text text-anchor="start" x="661" y="-91" font-family="Times,serif" font-size="10.00">  hero </text>
<text text-anchor="start" x="686" y="-91" font-family="Times,serif" font-weight="bold" font-size="10.00">типа </text>
<text text-anchor="start" x="710" y="-91" font-family="Times,serif" font-size="10.00"> open_up_lying </text>
<text text-anchor="start" x="778" y="-91" font-family="Times,serif" font-weight="bold" font-size="10.00">в размере</text>
<text text-anchor="start" x="821" y="-91" font-family="Times,serif" font-size="10.00"> 1.50</text>
<polygon fill="#ffffff" stroke="none" points="585,-73 585,-86 844,-86 844,-73 585,-73"/>
<text text-anchor="start" x="586" y="-78" font-family="Times,serif" font-weight="bold" font-size="10.00">увеличить влияние </text>
<text text-anchor="start" x="674" y="-78" font-family="Times,serif" font-size="10.00">  person_1 </text>
<text text-anchor="start" x="719" y="-78" font-family="Times,serif" font-weight="bold" font-size="10.00">на </text>
<text text-anchor="start" x="732" y="-78" font-family="Times,serif" font-size="10.00"> &#45;1.50</text>
<polygon fill="#ffffff" stroke="none" points="585,-60 585,-73 844,-73 844,-60 585,-60"/>
<text text-anchor="start" x="586" y="-65" font-family="Times,serif" font-weight="bold" font-size="10.00">увеличить влияние </text>
<text text-anchor="start" x="674" y="-65" font-family="Times,serif" font-size="10.00">  person_4 </text>
<text text-anchor="start" x="719" y="-65" font-family="Times,serif" font-weight="bold" font-size="10.00">на </text>
<text text-anchor="start" x="732" y="-65" font-family="Times,serif" font-size="10.00"> 1.50</text>
<polygon fill="#eeeeee" stroke="none" points="585,-47 585,-60 844,-60 844,-47 585,-47"/>
<text text-anchor="start" x="586" y="-52" font-family="Times,serif" font-weight="bold" font-size="10.00">результаты:</text>
<text text-anchor="start" x="586" y="-39" font-family="Times,serif" font-weight="bold" font-size="10.00">person_1</text>
<text text-anchor="start" x="716" y="-38" font-family="Times,serif" font-size="10.00">failed</text>
<text text-anchor="start" x="586" y="-26" font-family="Times,serif" font-weight="bold" font-size="10.00">person_4</text>
<text text-anchor="start" x="716" y="-25" font-family="Times,serif" font-size="10.00">successed</text>
<polygon fill="none" stroke="black" points="583.5,-20 583.5,-140 844.5,-140 844.5,-20 583.5,-20"/>
</g>
<!-- [ns&#45;0]open_up_finish -->
<g id="node4" class="node"><title>[ns&#45;0]open_up_finish</title>
<polygon fill="#eeeeee" stroke="none" points="286.5,-20 286.5,-140 549.5,-140 549.5,-20 286.5,-20"/>
<text text-anchor="start" x="289" y="-130.5" font-family="Times,serif" font-style="italic" font-size="10.00">[ns&#45;0]open_up_finish</text>
<text text-anchor="start" x="289" y="-116" font-family="Times,serif" font-size="10.00">Завершить задание и остатсья в городе цели</text>
<polygon fill="#dddddd" stroke="none" points="288,-99 288,-112 549,-112 549,-99 288,-99"/>
<text text-anchor="start" x="289" y="-104" font-family="Times,serif" font-size="10.00">hero </text>
<text text-anchor="start" x="310" y="-104" font-family="Times,serif" font-weight="bold" font-size="10.00">находится в</text>
<text text-anchor="start" x="365" y="-104" font-family="Times,serif" font-size="10.00"> place_4</text>
<polygon fill="#ffffff" stroke="none" points="288,-86 288,-99 549,-99 549,-86 288,-86"/>
<text text-anchor="start" x="289" y="-91" font-family="Times,serif" font-weight="bold" font-size="10.00">выдать награду </text>
<text text-anchor="start" x="364" y="-91" font-family="Times,serif" font-size="10.00">  hero </text>
<text text-anchor="start" x="389" y="-91" font-family="Times,serif" font-weight="bold" font-size="10.00">типа </text>
<text text-anchor="start" x="413" y="-91" font-family="Times,serif" font-size="10.00"> open_up_finish </text>
<text text-anchor="start" x="483" y="-91" font-family="Times,serif" font-weight="bold" font-size="10.00">в размере</text>
<text text-anchor="start" x="526" y="-91" font-family="Times,serif" font-size="10.00"> 1.00</text>
<polygon fill="#ffffff" stroke="none" points="288,-73 288,-86 549,-86 549,-73 288,-73"/>
<text text-anchor="start" x="289" y="-78" font-family="Times,serif" font-weight="bold" font-size="10.00">увеличить влияние </text>
<text text-anchor="start" x="377" y="-78" font-family="Times,serif" font-size="10.00">  person_1 </text>
<text text-anchor="start" x="422" y="-78" font-family="Times,serif" font-weight="bold" font-size="10.00">на </text>
<text text-anchor="start" x="435" y="-78" font-family="Times,serif" font-size="10.00"> &#45;1.00</text>
<polygon fill="#ffffff" stroke="none" points="288,-60 288,-73 549,-73 549,-60 288,-60"/>
<text text-anchor="start" x="289" y="-65" font-family="Times,serif" font-weight="bold" font-size="10.00">увеличить влияние </text>
<text text-anchor="start" x="377" y="-65" font-family="Times,serif" font-size="10.00">  person_4 </text>
<text text-anchor="start" x="422" y="-65" font-family="Times,serif" font-weight="bold" font-size="10.00">на </text>
<text text-anchor="start" x="435" y="-65" font-family="Times,serif" font-size="10.00"> 1.00</text>
<polygon fill="#eeeeee" stroke="none" points="288,-47 288,-60 549,-60 549,-47 288,-47"/>
<text text-anchor="start" x="289" y="-52" font-family="Times,serif" font-weight="bold" font-size="10.00">результаты:</text>
<text text-anchor="start" x="289" y="-39" font-family="Times,serif" font-weight="bold" font-size="10.00">person_1</text>
<text text-anchor="start" x="420" y="-38" font-family="Times,serif" font-size="10.00">failed</text>
<text text-anchor="start" x="289" y="-26" font-family="Times,serif" font-weight="bold" font-size="10.00">person_4</text>
<text text-anchor="start" x="420" y="-25" font-family="Times,serif" font-size="10.00">successed</text>
<polygon fill="none" stroke="black" points="286.5,-20 286.5,-140 549.5,-140 549.5,-20 286.5,-20"/>
</g>
<!-- [ns&#45;0]report_data -->
<g id="node5" class="node"><title>[ns&#45;0]report_data</title>
<polygon fill="#eeeeee" stroke="none" points="7.5,-20 7.5,-140 252.5,-140 252.5,-20 7.5,-20"/>
<text text-anchor="start" x="10" y="-130.5" font-family="Times,serif" font-style="italic" font-size="10.00">[ns&#45;0]report_data</text>
<text text-anchor="start" x="10" y="-116" font-family="Times,serif" font-size="10.00">Сообщить сообранную информацию</text>
<polygon fill="#dddddd" stroke="none" points="9,-99 9,-112 252,-112 252,-99 9,-99"/>
<text text-anchor="start" x="10" y="-104" font-family="Times,serif" font-size="10.00">hero </text>
<text text-anchor="start" x="31" y="-104" font-family="Times,serif" font-weight="bold" font-size="10.00">находится в</text>
<text text-anchor="start" x="86" y="-104" font-family="Times,serif" font-size="10.00"> place_1</text>
<polygon fill="#ffffff" stroke="none" points="9,-86 9,-99 252,-99 252,-86 9,-86"/>
<text text-anchor="start" x="10" y="-91" font-family="Times,serif" font-weight="bold" font-size="10.00">выдать награду </text>
<text text-anchor="start" x="85" y="-91" font-family="Times,serif" font-size="10.00">  hero </text>
<text text-anchor="start" x="110" y="-91" font-family="Times,serif" font-weight="bold" font-size="10.00">типа </text>
<text text-anchor="start" x="134" y="-91" font-family="Times,serif" font-size="10.00"> report_data </text>
<text text-anchor="start" x="186" y="-91" font-family="Times,serif" font-weight="bold" font-size="10.00">в размере</text>
<text text-anchor="start" x="229" y="-91" font-family="Times,serif" font-size="10.00"> 1.00</text>
<polygon fill="#ffffff" stroke="none" points="9,-73 9,-86 252,-86 252,-73 9,-73"/>
<text text-anchor="start" x="10" y="-78" font-family="Times,serif" font-weight="bold" font-size="10.00">увеличить влияние </text>
<text text-anchor="start" x="98" y="-78" font-family="Times,serif" font-size="10.00">  person_1 </text>
<text text-anchor="start" x="143" y="-78" font-family="Times,serif" font-weight="bold" font-size="10.00">на </text>
<text text-anchor="start" x="156" y="-78" font-family="Times,serif" font-size="10.00"> 1.00</text>
<polygon fill="#ffffff" stroke="none" points="9,-60 9,-73 252,-73 252,-60 9,-60"/>
<text text-anchor="start" x="10" y="-65" font-family="Times,serif" font-weight="bold" font-size="10.00">увеличить влияние </text>
<text text-anchor="start" x="98" y="-65" font-family="Times,serif" font-size="10.00">  person_4 </text>
<text text-anchor="start" x="143" y="-65" font-family="Times,serif" font-weight="bold" font-size="10.00">на </text>
<text text-anchor="start" x="156" y="-65" font-family="Times,serif" font-size="10.00"> &#45;1.00</text>
<polygon fill="#eeeeee" stroke="none" points="9,-47 9,-60 252,-60 252,-47 9,-47"/>
<text text-anchor="start" x="10" y="-52" font-family="Times,serif" font-weight="bold" font-size="10.00">результаты:</text>
<text text-anchor="start" x="10" y="-39" font-family="Times,serif" font-weight="bold" font-size="10.00">person_1</text>
<text text-anchor="start" x="132" y="-38" font-family="Times,serif" font-size="10.00">successed</text>
<text text-anchor="start" x="10" y="-26" font-family="Times,serif" font-weight="bold" font-size="10.00">person_4</text>
<text text-anchor="start" x="132" y="-25" font-family="Times,serif" font-size="10.00">failed</text>
<polygon fill="none" stroke="black" points="7.5,-20 7.5,-140 252.5,-140 252.5,-20 7.5,-20"/>
</g>
<!-- [ns&#45;0]continue_spying -->
<g id="node6" class="node"><title>[ns&#45;0]continue_spying</title>
<polygon fill="#ddffdd" stroke="none" points="50,-259 50,-327 236,-327 236,-259 50,-259"/>
<text text-anchor="start" x="52" y="-317.5" font-family="Times,serif" font-style="italic" font-size="10.00">[ns&#45;0]continue_spying</text>
<text text-anchor="start" x="52" y="-303" font-family="Times,serif" font-size="10.00">Продолжить шпионаж</text>
<polygon fill="#cceecc" stroke="none" points="51,-286 51,-299 235,-299 235,-286 51,-286"/>
<text text-anchor="start" x="52" y="-291" font-family="Times,serif" font-size="10.00">hero </text>
<text text-anchor="start" x="73" y="-291" font-family="Times,serif" font-weight="bold" font-size="10.00">находится около</text>
<text text-anchor="start" x="149" y="-291" font-family="Times,serif" font-size="10.00"> place_4</text>
<polygon fill="#eeffee" stroke="none" points="51,-273 51,-286 235,-286 235,-273 51,-273"/>
<text text-anchor="start" x="52" y="-278" font-family="Times,serif" font-weight="bold" font-size="10.00">отправить </text>
<text text-anchor="start" x="102" y="-278" font-family="Times,serif" font-size="10.00"> hero</text>
<text text-anchor="start" x="123" y="-278" font-family="Times,serif" font-weight="bold" font-size="10.00">бродить около</text>
<text text-anchor="start" x="189" y="-278" font-family="Times,serif" font-size="10.00"> place_4</text>
<polygon fill="#eeffee" stroke="none" points="51,-260 51,-273 235,-273 235,-260 51,-260"/>
<text text-anchor="start" x="52" y="-265" font-family="Times,serif" font-weight="bold" font-size="10.00">сообщение:</text>
<text text-anchor="start" x="104" y="-265" font-family="Times,serif" font-size="10.00"> continue_spying</text>
<polygon fill="none" stroke="black" points="50,-259 50,-327 236,-327 236,-259 50,-259"/>
</g>
<!-- #jump([ns&#45;0]continue_spying, [ns&#45;0]report_data) -->
<g id="node13" class="node"><title>#jump([ns&#45;0]continue_spying, [ns&#45;0]report_data)</title>
<polygon fill="#eeeeee" stroke="none" points="62,-194 62,-208 208,-208 208,-194 62,-194"/>
<text text-anchor="start" x="63" y="-199.5" font-family="Times,serif" font-weight="bold" font-size="10.00">сообщение:</text>
<text text-anchor="start" x="115" y="-199.5" font-family="Times,serif" font-size="10.00"> move_to_report_data</text>
</g>
<!-- [ns&#45;0]continue_spying&#45;&gt;#jump([ns&#45;0]continue_spying, [ns&#45;0]report_data) -->
<g id="edge11" class="edge"><title>[ns&#45;0]continue_spying:[ns&#45;0]continue_spying&#45;&gt;#jump([ns&#45;0]continue_spying, [ns&#45;0]report_data):#jump([ns&#45;0]continue_spying, [ns&#45;0]report_data)</title>
<path fill="none" stroke="black" d="M140.067,-258.998C138.408,-240.336 136.485,-218.703 135.557,-208.268"/>
</g>
<!-- [ns&#45;0]spying_middle -->
<g id="node7" class="node"><title>[ns&#45;0]spying_middle</title>
<polygon fill="#ddddff" stroke="none" points="183,-443 183,-485 361,-485 361,-443 183,-443"/>
<text text-anchor="start" x="185" y="-475.5" font-family="Times,serif" font-style="italic" font-size="10.00">[ns&#45;0]spying_middle</text>
<text text-anchor="start" x="185" y="-461" font-family="Times,serif" font-size="10.00">Шпионаж</text>
<polygon fill="#eeeeff" stroke="none" points="184,-444 184,-457 360,-457 360,-444 184,-444"/>
<text text-anchor="start" x="185" y="-449" font-family="Times,serif" font-weight="bold" font-size="10.00">отправить </text>
<text text-anchor="start" x="235" y="-449" font-family="Times,serif" font-size="10.00"> hero</text>
<text text-anchor="start" x="256" y="-449" font-family="Times,serif" font-weight="bold" font-size="10.00">бродить около</text>
<text text-anchor="start" x="322" y="-449" font-family="Times,serif" font-size="10.00"> place_4</text>
<polygon fill="none" stroke="black" points="183,-443 183,-485 361,-485 361,-443 183,-443"/>
</g>
<!-- #option([ns&#45;0]spying_middle, [ns&#45;0]continue_spying) -->
<g id="node9" class="node"><title>#option([ns&#45;0]spying_middle, [ns&#45;0]continue_spying)</title>
<polygon fill="#ffffff" stroke="none" points="138,-378 138,-392 156,-392 156,-378 138,-378"/>
<text text-anchor="start" x="139" y="-382.5" font-family="Times,serif" font-size="10.00">spy</text>
</g>
<!-- [ns&#45;0]spying_middle&#45;&gt;#option([ns&#45;0]spying_middle, [ns&#45;0]continue_spying) -->
<g id="edge2" class="edge"><title>[ns&#45;0]spying_middle:[ns&#45;0]spying_middle&#45;&gt;#option([ns&#45;0]spying_middle, [ns&#45;0]continue_spying):#option([ns&#45;0]spying_middle, [ns&#45;0]continue_spying)</title>
<path fill="none" stroke="black" stroke-dasharray="1,5" d="M239.484,-442.97C211.706,-425.859 173.573,-402.369 156.242,-391.693"/>
</g>
<!-- #option([ns&#45;0]spying_middle, [ns&#45;0]open_up) -->
<g id="node11" class="node"><title>#option([ns&#45;0]spying_middle, [ns&#45;0]open_up)</title>
<polygon fill="#ffffff" stroke="none" points="240,-384 240,-398 356,-398 356,-384 240,-384"/>
<text text-anchor="start" x="241" y="-388.5" font-family="Times,serif" font-size="10.00">open_up</text>
<polygon fill="#eeeeee" stroke="none" points="240,-371 240,-384 356,-384 356,-371 240,-371"/>
<text text-anchor="start" x="241" y="-376" font-family="Times,serif" font-weight="bold" font-size="10.00">сообщение:</text>
<text text-anchor="start" x="293" y="-376" font-family="Times,serif" font-size="10.00"> start_open_up</text>
</g>
<!-- [ns&#45;0]spying_middle&#45;&gt;#option([ns&#45;0]spying_middle, [ns&#45;0]open_up) -->
<g id="edge7" class="edge"><title>[ns&#45;0]spying_middle:[ns&#45;0]spying_middle&#45;&gt;#option([ns&#45;0]spying_middle, [ns&#45;0]open_up):#option([ns&#45;0]spying_middle, [ns&#45;0]open_up)</title>
<path fill="none" stroke="black" stroke-dasharray="1,5" d="M278.831,-442.769C283.525,-428.867 289.617,-410.828 293.659,-398.856"/>
</g>
<!-- [ns&#45;0]open_up -->
<g id="node8" class="node"><title>[ns&#45;0]open_up</title>
<polygon fill="#ddffdd" stroke="none" points="356.5,-265.5 356.5,-320.5 479.5,-320.5 479.5,-265.5 356.5,-265.5"/>
<text text-anchor="start" x="359" y="-310.5" font-family="Times,serif" font-style="italic" font-size="10.00">[ns&#45;0]open_up</text>
<text text-anchor="start" x="359" y="-296" font-family="Times,serif" font-size="10.00">Раскрыться</text>
<polygon fill="#cceecc" stroke="none" points="358,-279 358,-292 479,-292 479,-279 358,-279"/>
<text text-anchor="start" x="359" y="-284" font-family="Times,serif" font-size="10.00">hero </text>
<text text-anchor="start" x="380" y="-284" font-family="Times,serif" font-weight="bold" font-size="10.00">находится в</text>
<text text-anchor="start" x="435" y="-284" font-family="Times,serif" font-size="10.00"> place_4</text>
<polygon fill="#eeffee" stroke="none" points="358,-266 358,-279 479,-279 479,-266 358,-266"/>
<text text-anchor="start" x="359" y="-271" font-family="Times,serif" font-weight="bold" font-size="10.00">сообщение:</text>
<text text-anchor="start" x="411" y="-271" font-family="Times,serif" font-size="10.00"> open_up</text>
<polygon fill="none" stroke="black" points="356.5,-265.5 356.5,-320.5 479.5,-320.5 479.5,-265.5 356.5,-265.5"/>
</g>
<!-- [ns&#45;0]open_up&#45;&gt;[ns&#45;0]open_up_finish -->
<g id="edge1" class="edge"><title>[ns&#45;0]open_up:[ns&#45;0]open_up&#45;&gt;[ns&#45;0]open_up_finish:[ns&#45;0]open_up_finish</title>
<path fill="none" stroke="black" d="M418,-265.277C418,-236.509 418,-189.586 418,-150.29"/>
<polygon fill="black" stroke="black" points="421.5,-150.218 418,-140.218 414.5,-150.218 421.5,-150.218"/>
</g>
<!-- #jump([ns&#45;0]open_up, [ns&#45;0]open_up_lying) -->
<g id="node12" class="node"><title>#jump([ns&#45;0]open_up, [ns&#45;0]open_up_lying)</title>
<polygon fill="#eeeeee" stroke="none" points="550,-194 550,-208 689,-208 689,-194 550,-194"/>
<text text-anchor="start" x="551" y="-199.5" font-family="Times,serif" font-weight="bold" font-size="10.00">сообщение:</text>
<text text-anchor="start" x="603" y="-199.5" font-family="Times,serif" font-size="10.00"> move_to_report_lie</text>
</g>
<!-- [ns&#45;0]open_up&#45;&gt;#jump([ns&#45;0]open_up, [ns&#45;0]open_up_lying) -->
<g id="edge9" class="edge"><title>[ns&#45;0]open_up:[ns&#45;0]open_up&#45;&gt;#jump([ns&#45;0]open_up, [ns&#45;0]open_up_lying):#jump([ns&#45;0]open_up, [ns&#45;0]open_up_lying)</title>
<path fill="none" stroke="black" d="M477.219,-265.484C521.919,-245.469 579.804,-219.55 605.588,-208.005"/>
</g>
<!-- #option([ns&#45;0]spying_middle, [ns&#45;0]continue_spying)&#45;&gt;[ns&#45;0]continue_spying -->
<g id="edge3" class="edge"><title>#option([ns&#45;0]spying_middle, [ns&#45;0]continue_spying):#option([ns&#45;0]spying_middle, [ns&#45;0]continue_spying)&#45;&gt;[ns&#45;0]continue_spying:[ns&#45;0]continue_spying</title>
<path fill="none" stroke="black" stroke-dasharray="1,5" d="M146.725,-377.814C146.349,-369.344 145.639,-353.386 144.94,-337.649"/>
<polygon fill="black" stroke="black" points="148.426,-337.255 144.485,-327.421 141.433,-337.566 148.426,-337.255"/>
</g>
<!-- #option([ns&#45;0]start_spying, [ns&#45;0]spying_middle)&#45;&gt;[ns&#45;0]spying_middle -->
<g id="edge6" class="edge"><title>#option([ns&#45;0]start_spying, [ns&#45;0]spying_middle):#option([ns&#45;0]start_spying, [ns&#45;0]spying_middle)&#45;&gt;[ns&#45;0]spying_middle:[ns&#45;0]spying_middle</title>
<path fill="none" stroke="black" stroke-dasharray="1,5" d="M272,-529.285C272,-520.035 272,-507.108 272,-495.271"/>
<polygon fill="black" stroke="black" points="275.5,-495.269 272,-485.269 268.5,-495.269 275.5,-495.269"/>
</g>
<!-- #option([ns&#45;0]spying_middle, [ns&#45;0]open_up)&#45;&gt;[ns&#45;0]open_up -->
<g id="edge8" class="edge"><title>#option([ns&#45;0]spying_middle, [ns&#45;0]open_up):#option([ns&#45;0]spying_middle, [ns&#45;0]open_up)&#45;&gt;[ns&#45;0]open_up:[ns&#45;0]open_up</title>
<path fill="none" stroke="black" stroke-dasharray="1,5" d="M314.685,-371.486C330.036,-359.973 353.485,-342.386 374.166,-326.876"/>
<polygon fill="black" stroke="black" points="376.33,-329.628 382.23,-320.828 372.13,-324.028 376.33,-329.628"/>
</g>
<!-- #jump([ns&#45;0]open_up, [ns&#45;0]open_up_lying)&#45;&gt;[ns&#45;0]open_up_lying -->
<g id="edge10" class="edge"><title>#jump([ns&#45;0]open_up, [ns&#45;0]open_up_lying):#jump([ns&#45;0]open_up, [ns&#45;0]open_up_lying)&#45;&gt;[ns&#45;0]open_up_lying:[ns&#45;0]open_up_lying</title>
<path fill="none" stroke="black" d="M623.842,-193.935C631.053,-184.902 645.402,-166.928 660.571,-147.927"/>
<polygon fill="black" stroke="black" points="663.367,-150.034 666.871,-140.036 657.896,-145.667 663.367,-150.034"/>
</g>
<!-- #jump([ns&#45;0]continue_spying, [ns&#45;0]report_data)&#45;&gt;[ns&#45;0]report_data -->
<g id="edge12" class="edge"><title>#jump([ns&#45;0]continue_spying, [ns&#45;0]report_data):#jump([ns&#45;0]continue_spying, [ns&#45;0]report_data)&#45;&gt;[ns&#45;0]report_data:[ns&#45;0]report_data</title>
<path fill="none" stroke="black" d="M134.745,-193.935C134.381,-185.263 133.67,-168.351 132.908,-150.202"/>
<polygon fill="black" stroke="black" points="136.397,-149.88 132.48,-140.036 129.403,-150.174 136.397,-149.88"/>
</g>
<!-- #option([ns&#45;0]start_spying, [ns&#45;0]open_up)&#45;&gt;[ns&#45;0]open_up -->
<g id="edge14" class="edge"><title>#option([ns&#45;0]start_spying, [ns&#45;0]open_up):#option([ns&#45;0]start_spying, [ns&#45;0]open_up)&#45;&gt;[ns&#45;0]open_up:[ns&#45;0]open_up</title>
<path fill="none" stroke="black" stroke-dasharray="1,5" d="M418,-529.361C418,-493.103 418,-387.728 418,-331.071"/>
<polygon fill="black" stroke="black" points="421.5,-330.756 418,-320.756 414.5,-330.756 421.5,-330.756"/>
</g>
<!-- #options_link(#option([ns&#45;0]start_spying, [ns&#45;0]spying_middle)|#option([ns&#45;0]spying_middle, [ns&#45;0]continue_spying)) -->
<g id="node15" class="node"><title>#options_link(#option([ns&#45;0]start_spying, [ns&#45;0]spying_middle)|#option([ns&#45;0]spying_middle, [ns&#45;0]continue_spying))</title>
<ellipse fill="#ffaaaa" stroke="black" cx="182" cy="-629" rx="12" ry="12"/>
<text text-anchor="middle" x="182" y="-626.5" font-family="Times,serif" font-size="10.00">link</text>
</g>
<!-- #options_link(#option([ns&#45;0]start_spying, [ns&#45;0]spying_middle)|#option([ns&#45;0]spying_middle, [ns&#45;0]continue_spying))&#45;&gt;#option([ns&#45;0]spying_middle, [ns&#45;0]continue_spying) -->
<g id="edge16" class="edge"><title>#options_link(#option([ns&#45;0]start_spying, [ns&#45;0]spying_middle)|#option([ns&#45;0]spying_middle, [ns&#45;0]continue_spying))&#45;&gt;#option([ns&#45;0]spying_middle, [ns&#45;0]continue_spying):#option([ns&#45;0]spying_middle, [ns&#45;0]continue_spying)</title>
<path fill="none" stroke="#ffaaaa" d="M180.405,-616.973C174.307,-574.809 152.574,-424.539 147.893,-392.172"/>
</g>
<!-- #options_link(#option([ns&#45;0]start_spying, [ns&#45;0]spying_middle)|#option([ns&#45;0]spying_middle, [ns&#45;0]continue_spying))&#45;&gt;#option([ns&#45;0]start_spying, [ns&#45;0]spying_middle) -->
<g id="edge15" class="edge"><title>#options_link(#option([ns&#45;0]start_spying, [ns&#45;0]spying_middle)|#option([ns&#45;0]spying_middle, [ns&#45;0]continue_spying))&#45;&gt;#option([ns&#45;0]start_spying, [ns&#45;0]spying_middle):#option([ns&#45;0]start_spying, [ns&#45;0]spying_middle)</title>
<path fill="none" stroke="#ffaaaa" d="M190.306,-620.248C205.884,-605.708 239.618,-574.223 258.502,-556.598"/>
</g>
</g>
</svg>
