<?xml version="1.0" encoding="UTF-8" standalone="no"?>
<!DOCTYPE svg PUBLIC "-//W3C//DTD SVG 1.1//EN"
 "http://www.w3.org/Graphics/SVG/1.1/DTD/svg11.dtd">
<!-- Generated by graphviz version 2.34.0 (20130907.0221)
 -->
<!-- Title: quest Pages: 1 -->
<svg width="877pt" height="769pt"
 viewBox="0.00 0.00 877.00 769.00" xmlns="http://www.w3.org/2000/svg" xmlns:xlink="http://www.w3.org/1999/xlink">
<g id="graph0" class="graph" transform="scale(1 1) rotate(0) translate(4 765)">
<title>quest</title>
<polygon fill="white" stroke="white" points="-4,4 -4,-765 873,-765 873,4 -4,4"/>
<g id="clust1" class="cluster"><title>cluster_[ns&#45;0]open_up_variants</title>
<polygon fill="#ffffdd" stroke="black" points="270,-8 270,-175 861,-175 861,-8 270,-8"/>
<text text-anchor="middle" x="565.5" y="-159.8" font-family="Times,serif" font-size="14.00">cluster_[ns&#45;0]open_up_variants</text>
</g>
<!-- [ns&#45;0]start_spying -->
<g id="node1" class="node"><title>[ns&#45;0]start_spying</title>
<polygon fill="#ddddff" stroke="none" points="254.5,-589.5 254.5,-644.5 399.5,-644.5 399.5,-589.5 254.5,-589.5"/>
<text text-anchor="start" x="257" y="-634.5" font-family="Times,serif" font-style="italic" font-size="10.00">[ns&#45;0]start_spying</text>
<text text-anchor="start" x="257" y="-620" font-family="Times,serif" font-size="10.00">Прибытие в город цели</text>
<polygon fill="#ccccee" stroke="none" points="256,-603 256,-616 399,-616 399,-603 256,-603"/>
<text text-anchor="start" x="257" y="-608" font-family="Times,serif" font-size="10.00">hero </text>
<text text-anchor="start" x="278" y="-608" font-family="Times,serif" font-weight="bold" font-size="10.00">находится в</text>
<text text-anchor="start" x="333" y="-608" font-family="Times,serif" font-size="10.00"> place_8</text>
<polygon fill="#eeeeff" stroke="none" points="256,-590 256,-603 399,-603 399,-590 256,-590"/>
<text text-anchor="start" x="257" y="-595" font-family="Times,serif" font-weight="bold" font-size="10.00">сообщение:</text>
<text text-anchor="start" x="309" y="-595" font-family="Times,serif" font-size="10.00"> arrived_to_target</text>
<polygon fill="none" stroke="black" points="254.5,-589.5 254.5,-644.5 399.5,-644.5 399.5,-589.5 254.5,-589.5"/>
</g>
<!-- #option([ns&#45;0]start_spying, [ns&#45;0]spying_middle) -->
<g id="node10" class="node"><title>#option([ns&#45;0]start_spying, [ns&#45;0]spying_middle)</title>
<polygon fill="#ffffff" stroke="none" points="218,-530 218,-544 326,-544 326,-530 218,-530"/>
<text text-anchor="start" x="219" y="-534.5" font-family="Times,serif" font-size="10.00">spy</text>
<polygon fill="#eeeeee" stroke="none" points="218,-517 218,-530 326,-530 326,-517 218,-517"/>
<text text-anchor="start" x="219" y="-522" font-family="Times,serif" font-weight="bold" font-size="10.00">сообщение:</text>
<text text-anchor="start" x="271" y="-522" font-family="Times,serif" font-size="10.00"> start_spying</text>
</g>
<!-- [ns&#45;0]start_spying&#45;&gt;#option([ns&#45;0]start_spying, [ns&#45;0]spying_middle) -->
<g id="edge5" class="edge"><title>[ns&#45;0]start_spying:[ns&#45;0]start_spying&#45;&gt;#option([ns&#45;0]start_spying, [ns&#45;0]spying_middle):#option([ns&#45;0]start_spying, [ns&#45;0]spying_middle)</title>
<path fill="none" stroke="black" stroke-dasharray="1,5" d="M309.598,-589.422C299.779,-574.426 287.965,-556.383 280.234,-544.576"/>
</g>
<!-- #option([ns&#45;0]start_spying, [ns&#45;0]open_up) -->
<g id="node14" class="node"><title>#option([ns&#45;0]start_spying, [ns&#45;0]open_up)</title>
<polygon fill="#ffffff" stroke="none" points="360,-530 360,-544 476,-544 476,-530 360,-530"/>
<text text-anchor="start" x="361" y="-534.5" font-family="Times,serif" font-size="10.00">open_up</text>
<polygon fill="#eeeeee" stroke="none" points="360,-517 360,-530 476,-530 476,-517 360,-517"/>
<text text-anchor="start" x="361" y="-522" font-family="Times,serif" font-weight="bold" font-size="10.00">сообщение:</text>
<text text-anchor="start" x="413" y="-522" font-family="Times,serif" font-size="10.00"> start_open_up</text>
</g>
<!-- [ns&#45;0]start_spying&#45;&gt;#option([ns&#45;0]start_spying, [ns&#45;0]open_up) -->
<g id="edge13" class="edge"><title>[ns&#45;0]start_spying:[ns&#45;0]start_spying&#45;&gt;#option([ns&#45;0]start_spying, [ns&#45;0]open_up):#option([ns&#45;0]start_spying, [ns&#45;0]open_up)</title>
<path fill="none" stroke="black" stroke-dasharray="1,5" d="M355.793,-589.422C372.039,-574.426 391.585,-556.383 404.376,-544.576"/>
</g>
<!-- [ns&#45;0]start -->
<g id="node2" class="node"><title>[ns&#45;0]start</title>
<polygon fill="#eeeeee" stroke="none" points="259.5,-689 259.5,-757 394.5,-757 394.5,-689 259.5,-689"/>
<text text-anchor="start" x="262" y="-747.5" font-family="Times,serif" font-style="italic" font-size="10.00">[ns&#45;0]start</text>
<text text-anchor="start" x="347" y="-747.5" font-family="Times,serif" font-weight="bold" font-size="10.00">spying</text>
<text text-anchor="start" x="262" y="-733" font-family="Times,serif" font-size="10.00">Начало: задание на шпионаж</text>
<polygon fill="#dddddd" stroke="none" points="261,-716 261,-729 394,-729 394,-716 261,-716"/>
<text text-anchor="start" x="262" y="-721" font-family="Times,serif" font-size="10.00">hero </text>
<text text-anchor="start" x="283" y="-721" font-family="Times,serif" font-weight="bold" font-size="10.00">находится в</text>
<text text-anchor="start" x="338" y="-721" font-family="Times,serif" font-size="10.00"> place_1</text>
<polygon fill="#dddddd" stroke="none" points="261,-703 261,-716 394,-716 394,-703 261,-703"/>
<text text-anchor="start" x="262" y="-708" font-family="Times,serif" font-size="10.00">person_8 </text>
<text text-anchor="start" x="302" y="-708" font-family="Times,serif" font-weight="bold" font-size="10.00">находится в</text>
<text text-anchor="start" x="357" y="-708" font-family="Times,serif" font-size="10.00"> place_8</text>
<polygon fill="#ffffff" stroke="none" points="261,-690 261,-703 394,-703 394,-690 261,-690"/>
<text text-anchor="start" x="262" y="-695" font-family="Times,serif" font-weight="bold" font-size="10.00">сообщение:</text>
<text text-anchor="start" x="314" y="-695" font-family="Times,serif" font-size="10.00"> intro</text>
<polygon fill="none" stroke="black" points="259.5,-689 259.5,-757 394.5,-757 394.5,-689 259.5,-689"/>
</g>
<!-- [ns&#45;0]start&#45;&gt;[ns&#45;0]start_spying -->
<g id="edge4" class="edge"><title>[ns&#45;0]start:[ns&#45;0]start&#45;&gt;[ns&#45;0]start_spying:[ns&#45;0]start_spying</title>
<path fill="none" stroke="black" d="M327,-688.808C327,-677.996 327,-665.931 327,-654.867"/>
<polygon fill="black" stroke="black" points="330.5,-654.639 327,-644.639 323.5,-654.639 330.5,-654.639"/>
</g>
<!-- [ns&#45;0]open_up_lying -->
<g id="node3" class="node"><title>[ns&#45;0]open_up_lying</title>
<polygon fill="#eeeeee" stroke="none" points="583.5,-20 583.5,-140 844.5,-140 844.5,-20 583.5,-20"/>
<text text-anchor="start" x="586" y="-130.5" font-family="Times,serif" font-style="italic" font-size="10.00">[ns&#45;0]open_up_lying</text>
<text text-anchor="start" x="586" y="-116" font-family="Times,serif" font-size="10.00">Вернуться к заказчику и сообщить ложную информацию</text>
<polygon fill="#dddddd" stroke="none" points="585,-99 585,-112 844,-112 844,-99 585,-99"/>
<text text-anchor="start" x="586" y="-104" font-family="Times,serif" font-size="10.00">hero </text>
<text text-anchor="start" x="607" y="-104" font-family="Times,serif" font-weight="bold" font-size="10.00">находится в</text>
<text text-anchor="start" x="662" y="-104" font-family="Times,serif" font-size="10.00"> place_1</text>
<polygon fill="#ffffff" stroke="none" points="585,-86 585,-99 844,-99 844,-86 585,-86"/>
<text text-anchor="start" x="586" y="-91" font-family="Times,serif" font-weight="bold" font-size="10.00">выдать награду </text>
<text text-anchor="start" x="661" y="-91" font-family="Times,serif" font-size="10.00">  hero </text>
<text text-anchor="start" x="686" y="-91" font-family="Times,serif" font-weight="bold" font-size="10.00">типа </text>
<text text-anchor="start" x="710" y="-91" font-family="Times,serif" font-size="10.00"> open_up_lying </text>
<text text-anchor="start" x="778" y="-91" font-family="Times,serif" font-weight="bold" font-size="10.00">в размере</text>
<text text-anchor="start" x="821" y="-91" font-family="Times,serif" font-size="10.00"> 1.50</text>
<polygon fill="#ffffff" stroke="none" points="585,-73 585,-86 844,-86 844,-73 585,-73"/>
<text text-anchor="start" x="586" y="-78" font-family="Times,serif" font-weight="bold" font-size="10.00">увеличить влияние </text>
<text text-anchor="start" x="674" y="-78" font-family="Times,serif" font-size="10.00">  person_1 </text>
<text text-anchor="start" x="719" y="-78" font-family="Times,serif" font-weight="bold" font-size="10.00">на </text>
<text text-anchor="start" x="732" y="-78" font-family="Times,serif" font-size="10.00"> &#45;1.50</text>
<polygon fill="#ffffff" stroke="none" points="585,-60 585,-73 844,-73 844,-60 585,-60"/>
<text text-anchor="start" x="586" y="-65" font-family="Times,serif" font-weight="bold" font-size="10.00">увеличить влияние </text>
<text text-anchor="start" x="674" y="-65" font-family="Times,serif" font-size="10.00">  person_8 </text>
<text text-anchor="start" x="719" y="-65" font-family="Times,serif" font-weight="bold" font-size="10.00">на </text>
<text text-anchor="start" x="732" y="-65" font-family="Times,serif" font-size="10.00"> 1.50</text>
<polygon fill="#eeeeee" stroke="none" points="585,-47 585,-60 844,-60 844,-47 585,-47"/>
<text text-anchor="start" x="586" y="-52" font-family="Times,serif" font-weight="bold" font-size="10.00">результаты:</text>
<text text-anchor="start" x="586" y="-39" font-family="Times,serif" font-weight="bold" font-size="10.00">person_1</text>
<text text-anchor="start" x="716" y="-38" font-family="Times,serif" font-size="10.00">failed</text>
<text text-anchor="start" x="586" y="-26" font-family="Times,serif" font-weight="bold" font-size="10.00">person_8</text>
<text text-anchor="start" x="716" y="-25" font-family="Times,serif" font-size="10.00">successed</text>
<polygon fill="none" stroke="black" points="583.5,-20 583.5,-140 844.5,-140 844.5,-20 583.5,-20"/>
</g>
<!-- [ns&#45;0]open_up_finish -->
<g id="node4" class="node"><title>[ns&#45;0]open_up_finish</title>
<polygon fill="#eeeeee" stroke="none" points="286.5,-20 286.5,-140 549.5,-140 549.5,-20 286.5,-20"/>
<text text-anchor="start" x="289" y="-130.5" font-family="Times,serif" font-style="italic" font-size="10.00">[ns&#45;0]open_up_finish</text>
<text text-anchor="start" x="289" y="-116" font-family="Times,serif" font-size="10.00">Завершить задание и остатсья в городе цели</text>
<polygon fill="#dddddd" stroke="none" points="288,-99 288,-112 549,-112 549,-99 288,-99"/>
<text text-anchor="start" x="289" y="-104" font-family="Times,serif" font-size="10.00">hero </text>
<text text-anchor="start" x="310" y="-104" font-family="Times,serif" font-weight="bold" font-size="10.00">находится в</text>
<text text-anchor="start" x="365" y="-104" font-family="Times,serif" font-size="10.00"> place_8</text>
<polygon fill="#ffffff" stroke="none" points="288,-86 288,-99 549,-99 549,-86 288,-86"/>
<text text-anchor="start" x="289" y="-91" font-family="Times,serif" font-weight="bold" font-size="10.00">выдать награду </text>
<text text-anchor="start" x="364" y="-91" font-family="Times,serif" font-size="10.00">  hero </text>
<text text-anchor="start" x="389" y="-91" font-family="Times,serif" font-weight="bold" font-size="10.00">типа </text>
<text text-anchor="start" x="413" y="-91" font-family="Times,serif" font-size="10.00"> open_up_finish </text>
<text text-anchor="start" x="483" y="-91" font-family="Times,serif" font-weight="bold" font-size="10.00">в размере</text>
<text text-anchor="start" x="526" y="-91" font-family="Times,serif" font-size="10.00"> 1.00</text>
<polygon fill="#ffffff" stroke="none" points="288,-73 288,-86 549,-86 549,-73 288,-73"/>
<text text-anchor="start" x="289" y="-78" font-family="Times,serif" font-weight="bold" font-size="10.00">увеличить влияние </text>
<text text-anchor="start" x="377" y="-78" font-family="Times,serif" font-size="10.00">  person_1 </text>
<text text-anchor="start" x="422" y="-78" font-family="Times,serif" font-weight="bold" font-size="10.00">на </text>
<text text-anchor="start" x="435" y="-78" font-family="Times,serif" font-size="10.00"> &#45;1.00</text>
<polygon fill="#ffffff" stroke="none" points="288,-60 288,-73 549,-73 549,-60 288,-60"/>
<text text-anchor="start" x="289" y="-65" font-family="Times,serif" font-weight="bold" font-size="10.00">увеличить влияние </text>
<text text-anchor="start" x="377" y="-65" font-family="Times,serif" font-size="10.00">  person_8 </text>
<text text-anchor="start" x="422" y="-65" font-family="Times,serif" font-weight="bold" font-size="10.00">на </text>
<text text-anchor="start" x="435" y="-65" font-family="Times,serif" font-size="10.00"> 1.00</text>
<polygon fill="#eeeeee" stroke="none" points="288,-47 288,-60 549,-60 549,-47 288,-47"/>
<text text-anchor="start" x="289" y="-52" font-family="Times,serif" font-weight="bold" font-size="10.00">результаты:</text>
<text text-anchor="start" x="289" y="-39" font-family="Times,serif" font-weight="bold" font-size="10.00">person_1</text>
<text text-anchor="start" x="420" y="-38" font-family="Times,serif" font-size="10.00">failed</text>
<text text-anchor="start" x="289" y="-26" font-family="Times,serif" font-weight="bold" font-size="10.00">person_8</text>
<text text-anchor="start" x="420" y="-25" font-family="Times,serif" font-size="10.00">successed</text>
<polygon fill="none" stroke="black" points="286.5,-20 286.5,-140 549.5,-140 549.5,-20 286.5,-20"/>
</g>
<!-- [ns&#45;0]report_data -->
<g id="node5" class="node"><title>[ns&#45;0]report_data</title>
<polygon fill="#eeeeee" stroke="none" points="7.5,-20 7.5,-140 252.5,-140 252.5,-20 7.5,-20"/>
<text text-anchor="start" x="10" y="-130.5" font-family="Times,serif" font-style="italic" font-size="10.00">[ns&#45;0]report_data</text>
<text text-anchor="start" x="10" y="-116" font-family="Times,serif" font-size="10.00">Сообщить сообранную информацию</text>
<polygon fill="#dddddd" stroke="none" points="9,-99 9,-112 252,-112 252,-99 9,-99"/>
<text text-anchor="start" x="10" y="-104" font-family="Times,serif" font-size="10.00">hero </text>
<text text-anchor="start" x="31" y="-104" font-family="Times,serif" font-weight="bold" font-size="10.00">находится в</text>
<text text-anchor="start" x="86" y="-104" font-family="Times,serif" font-size="10.00"> place_1</text>
<polygon fill="#ffffff" stroke="none" points="9,-86 9,-99 252,-99 252,-86 9,-86"/>
<text text-anchor="start" x="10" y="-91" font-family="Times,serif" font-weight="bold" font-size="10.00">выдать награду </text>
<text text-anchor="start" x="85" y="-91" font-family="Times,serif" font-size="10.00">  hero </text>
<text text-anchor="start" x="110" y="-91" font-family="Times,serif" font-weight="bold" font-size="10.00">типа </text>
<text text-anchor="start" x="134" y="-91" font-family="Times,serif" font-size="10.00"> report_data </text>
<text text-anchor="start" x="186" y="-91" font-family="Times,serif" font-weight="bold" font-size="10.00">в размере</text>
<text text-anchor="start" x="229" y="-91" font-family="Times,serif" font-size="10.00"> 1.00</text>
<polygon fill="#ffffff" stroke="none" points="9,-73 9,-86 252,-86 252,-73 9,-73"/>
<text text-anchor="start" x="10" y="-78" font-family="Times,serif" font-weight="bold" font-size="10.00">увеличить влияние </text>
<text text-anchor="start" x="98" y="-78" font-family="Times,serif" font-size="10.00">  person_1 </text>
<text text-anchor="start" x="143" y="-78" font-family="Times,serif" font-weight="bold" font-size="10.00">на </text>
<text text-anchor="start" x="156" y="-78" font-family="Times,serif" font-size="10.00"> 1.00</text>
<polygon fill="#ffffff" stroke="none" points="9,-60 9,-73 252,-73 252,-60 9,-60"/>
<text text-anchor="start" x="10" y="-65" font-family="Times,serif" font-weight="bold" font-size="10.00">увеличить влияние </text>
<text text-anchor="start" x="98" y="-65" font-family="Times,serif" font-size="10.00">  person_8 </text>
<text text-anchor="start" x="143" y="-65" font-family="Times,serif" font-weight="bold" font-size="10.00">на </text>
<text text-anchor="start" x="156" y="-65" font-family="Times,serif" font-size="10.00"> &#45;1.00</text>
<polygon fill="#eeeeee" stroke="none" points="9,-47 9,-60 252,-60 252,-47 9,-47"/>
<text text-anchor="start" x="10" y="-52" font-family="Times,serif" font-weight="bold" font-size="10.00">результаты:</text>
<text text-anchor="start" x="10" y="-39" font-family="Times,serif" font-weight="bold" font-size="10.00">person_1</text>
<text text-anchor="start" x="132" y="-38" font-family="Times,serif" font-size="10.00">successed</text>
<text text-anchor="start" x="10" y="-26" font-family="Times,serif" font-weight="bold" font-size="10.00">person_8</text>
<text text-anchor="start" x="132" y="-25" font-family="Times,serif" font-size="10.00">failed</text>
<polygon fill="none" stroke="black" points="7.5,-20 7.5,-140 252.5,-140 252.5,-20 7.5,-20"/>
</g>
<!-- [ns&#45;0]continue_spying -->
<g id="node6" class="node"><title>[ns&#45;0]continue_spying</title>
<polygon fill="#ddffdd" stroke="none" points="50,-259.5 50,-314.5 236,-314.5 236,-259.5 50,-259.5"/>
<text text-anchor="start" x="52" y="-304.5" font-family="Times,serif" font-style="italic" font-size="10.00">[ns&#45;0]continue_spying</text>
<text text-anchor="start" x="52" y="-290" font-family="Times,serif" font-size="10.00">Продолжить шпионаж</text>
<polygon fill="#eeffee" stroke="none" points="51,-273 51,-286 235,-286 235,-273 51,-273"/>
<text text-anchor="start" x="52" y="-278" font-family="Times,serif" font-weight="bold" font-size="10.00">отправить </text>
<text text-anchor="start" x="102" y="-278" font-family="Times,serif" font-size="10.00"> hero</text>
<text text-anchor="start" x="123" y="-278" font-family="Times,serif" font-weight="bold" font-size="10.00">бродить около</text>
<text text-anchor="start" x="189" y="-278" font-family="Times,serif" font-size="10.00"> place_8</text>
<polygon fill="#eeffee" stroke="none" points="51,-260 51,-273 235,-273 235,-260 51,-260"/>
<text text-anchor="start" x="52" y="-265" font-family="Times,serif" font-weight="bold" font-size="10.00">сообщение:</text>
<text text-anchor="start" x="104" y="-265" font-family="Times,serif" font-size="10.00"> continue_spying</text>
<polygon fill="none" stroke="black" points="50,-259.5 50,-314.5 236,-314.5 236,-259.5 50,-259.5"/>
</g>
<!-- #jump([ns&#45;0]continue_spying, [ns&#45;0]report_data) -->
<g id="node13" class="node"><title>#jump([ns&#45;0]continue_spying, [ns&#45;0]report_data)</title>
<polygon fill="#eeeeee" stroke="none" points="62,-194 62,-208 208,-208 208,-194 62,-194"/>
<text text-anchor="start" x="63" y="-199.5" font-family="Times,serif" font-weight="bold" font-size="10.00">сообщение:</text>
<text text-anchor="start" x="115" y="-199.5" font-family="Times,serif" font-size="10.00"> move_to_report_data</text>
</g>
<!-- [ns&#45;0]continue_spying&#45;&gt;#jump([ns&#45;0]continue_spying, [ns&#45;0]report_data) -->
<g id="edge11" class="edge"><title>[ns&#45;0]continue_spying:[ns&#45;0]continue_spying&#45;&gt;#jump([ns&#45;0]continue_spying, [ns&#45;0]report_data):#jump([ns&#45;0]continue_spying, [ns&#45;0]report_data)</title>
<path fill="none" stroke="black" d="M140.469,-259.422C138.748,-241.349 136.605,-218.853 135.588,-208.177"/>
</g>
<!-- [ns&#45;0]spying_middle -->
<g id="node7" class="node"><title>[ns&#45;0]spying_middle</title>
<polygon fill="#ddddff" stroke="none" points="183,-431 183,-473 361,-473 361,-431 183,-431"/>
<text text-anchor="start" x="185" y="-463.5" font-family="Times,serif" font-style="italic" font-size="10.00">[ns&#45;0]spying_middle</text>
<text text-anchor="start" x="185" y="-449" font-family="Times,serif" font-size="10.00">Шпионаж</text>
<polygon fill="#eeeeff" stroke="none" points="184,-432 184,-445 360,-445 360,-432 184,-432"/>
<text text-anchor="start" x="185" y="-437" font-family="Times,serif" font-weight="bold" font-size="10.00">отправить </text>
<text text-anchor="start" x="235" y="-437" font-family="Times,serif" font-size="10.00"> hero</text>
<text text-anchor="start" x="256" y="-437" font-family="Times,serif" font-weight="bold" font-size="10.00">бродить около</text>
<text text-anchor="start" x="322" y="-437" font-family="Times,serif" font-size="10.00"> place_8</text>
<polygon fill="none" stroke="black" points="183,-431 183,-473 361,-473 361,-431 183,-431"/>
</g>
<!-- #option([ns&#45;0]spying_middle, [ns&#45;0]continue_spying) -->
<g id="node9" class="node"><title>#option([ns&#45;0]spying_middle, [ns&#45;0]continue_spying)</title>
<polygon fill="#ffffff" stroke="none" points="138,-366 138,-380 156,-380 156,-366 138,-366"/>
<text text-anchor="start" x="139" y="-370.5" font-family="Times,serif" font-size="10.00">spy</text>
</g>
<!-- [ns&#45;0]spying_middle&#45;&gt;#option([ns&#45;0]spying_middle, [ns&#45;0]continue_spying) -->
<g id="edge2" class="edge"><title>[ns&#45;0]spying_middle:[ns&#45;0]spying_middle&#45;&gt;#option([ns&#45;0]spying_middle, [ns&#45;0]continue_spying):#option([ns&#45;0]spying_middle, [ns&#45;0]continue_spying)</title>
<path fill="none" stroke="black" stroke-dasharray="1,5" d="M239.484,-430.97C211.706,-413.859 173.573,-390.369 156.242,-379.693"/>
</g>
<!-- #option([ns&#45;0]spying_middle, [ns&#45;0]open_up) -->
<g id="node11" class="node"><title>#option([ns&#45;0]spying_middle, [ns&#45;0]open_up)</title>
<polygon fill="#ffffff" stroke="none" points="240,-372 240,-386 356,-386 356,-372 240,-372"/>
<text text-anchor="start" x="241" y="-376.5" font-family="Times,serif" font-size="10.00">open_up</text>
<polygon fill="#eeeeee" stroke="none" points="240,-359 240,-372 356,-372 356,-359 240,-359"/>
<text text-anchor="start" x="241" y="-364" font-family="Times,serif" font-weight="bold" font-size="10.00">сообщение:</text>
<text text-anchor="start" x="293" y="-364" font-family="Times,serif" font-size="10.00"> start_open_up</text>
</g>
<!-- [ns&#45;0]spying_middle&#45;&gt;#option([ns&#45;0]spying_middle, [ns&#45;0]open_up) -->
<g id="edge7" class="edge"><title>[ns&#45;0]spying_middle:[ns&#45;0]spying_middle&#45;&gt;#option([ns&#45;0]spying_middle, [ns&#45;0]open_up):#option([ns&#45;0]spying_middle, [ns&#45;0]open_up)</title>
<path fill="none" stroke="black" stroke-dasharray="1,5" d="M278.831,-430.769C283.525,-416.867 289.617,-398.828 293.659,-386.856"/>
</g>
<!-- [ns&#45;0]open_up -->
<g id="node8" class="node"><title>[ns&#45;0]open_up</title>
<polygon fill="#ddffdd" stroke="none" points="356.5,-259.5 356.5,-314.5 479.5,-314.5 479.5,-259.5 356.5,-259.5"/>
<text text-anchor="start" x="359" y="-304.5" font-family="Times,serif" font-style="italic" font-size="10.00">[ns&#45;0]open_up</text>
<text text-anchor="start" x="359" y="-290" font-family="Times,serif" font-size="10.00">Раскрыться</text>
<polygon fill="#cceecc" stroke="none" points="358,-273 358,-286 479,-286 479,-273 358,-273"/>
<text text-anchor="start" x="359" y="-278" font-family="Times,serif" font-size="10.00">hero </text>
<text text-anchor="start" x="380" y="-278" font-family="Times,serif" font-weight="bold" font-size="10.00">находится в</text>
<text text-anchor="start" x="435" y="-278" font-family="Times,serif" font-size="10.00"> place_8</text>
<polygon fill="#eeffee" stroke="none" points="358,-260 358,-273 479,-273 479,-260 358,-260"/>
<text text-anchor="start" x="359" y="-265" font-family="Times,serif" font-weight="bold" font-size="10.00">сообщение:</text>
<text text-anchor="start" x="411" y="-265" font-family="Times,serif" font-size="10.00"> open_up</text>
<polygon fill="none" stroke="black" points="356.5,-259.5 356.5,-314.5 479.5,-314.5 479.5,-259.5 356.5,-259.5"/>
</g>
<!-- [ns&#45;0]open_up&#45;&gt;[ns&#45;0]open_up_finish -->
<g id="edge1" class="edge"><title>[ns&#45;0]open_up:[ns&#45;0]open_up&#45;&gt;[ns&#45;0]open_up_finish:[ns&#45;0]open_up_finish</title>
<path fill="none" stroke="black" d="M418,-259.2C418,-231.72 418,-187.84 418,-150.5"/>
<polygon fill="black" stroke="black" points="421.5,-150.161 418,-140.161 414.5,-150.161 421.5,-150.161"/>
</g>
<!-- #jump([ns&#45;0]open_up, [ns&#45;0]open_up_lying) -->
<g id="node12" class="node"><title>#jump([ns&#45;0]open_up, [ns&#45;0]open_up_lying)</title>
<polygon fill="#eeeeee" stroke="none" points="550,-194 550,-208 689,-208 689,-194 550,-194"/>
<text text-anchor="start" x="551" y="-199.5" font-family="Times,serif" font-weight="bold" font-size="10.00">сообщение:</text>
<text text-anchor="start" x="603" y="-199.5" font-family="Times,serif" font-size="10.00"> move_to_report_lie</text>
</g>
<!-- [ns&#45;0]open_up&#45;&gt;#jump([ns&#45;0]open_up, [ns&#45;0]open_up_lying) -->
<g id="edge9" class="edge"><title>[ns&#45;0]open_up:[ns&#45;0]open_up&#45;&gt;#jump([ns&#45;0]open_up, [ns&#45;0]open_up_lying):#jump([ns&#45;0]open_up, [ns&#45;0]open_up_lying)</title>
<path fill="none" stroke="black" d="M479.673,-260.226C523.294,-241.997 578.447,-218.947 604.329,-208.131"/>
</g>
<!-- #option([ns&#45;0]spying_middle, [ns&#45;0]continue_spying)&#45;&gt;[ns&#45;0]continue_spying -->
<g id="edge3" class="edge"><title>#option([ns&#45;0]spying_middle, [ns&#45;0]continue_spying):#option([ns&#45;0]spying_middle, [ns&#45;0]continue_spying)&#45;&gt;[ns&#45;0]continue_spying:[ns&#45;0]continue_spying</title>
<path fill="none" stroke="black" stroke-dasharray="1,5" d="M146.712,-365.959C146.298,-357.257 145.5,-340.504 144.75,-324.752"/>
<polygon fill="black" stroke="black" points="148.24,-324.462 144.269,-314.639 141.248,-324.795 148.24,-324.462"/>
</g>
<!-- #option([ns&#45;0]start_spying, [ns&#45;0]spying_middle)&#45;&gt;[ns&#45;0]spying_middle -->
<g id="edge6" class="edge"><title>#option([ns&#45;0]start_spying, [ns&#45;0]spying_middle):#option([ns&#45;0]start_spying, [ns&#45;0]spying_middle)&#45;&gt;[ns&#45;0]spying_middle:[ns&#45;0]spying_middle</title>
<path fill="none" stroke="black" stroke-dasharray="1,5" d="M272,-517.285C272,-508.035 272,-495.108 272,-483.271"/>
<polygon fill="black" stroke="black" points="275.5,-483.269 272,-473.269 268.5,-483.269 275.5,-483.269"/>
</g>
<!-- #option([ns&#45;0]spying_middle, [ns&#45;0]open_up)&#45;&gt;[ns&#45;0]open_up -->
<g id="edge8" class="edge"><title>#option([ns&#45;0]spying_middle, [ns&#45;0]open_up):#option([ns&#45;0]spying_middle, [ns&#45;0]open_up)&#45;&gt;[ns&#45;0]open_up:[ns&#45;0]open_up</title>
<path fill="none" stroke="black" stroke-dasharray="1,5" d="M315.965,-359.424C330.725,-349.092 352.306,-333.986 371.823,-320.324"/>
<polygon fill="black" stroke="black" points="373.85,-323.177 380.035,-314.575 369.836,-317.443 373.85,-323.177"/>
</g>
<!-- #jump([ns&#45;0]open_up, [ns&#45;0]open_up_lying)&#45;&gt;[ns&#45;0]open_up_lying -->
<g id="edge10" class="edge"><title>#jump([ns&#45;0]open_up, [ns&#45;0]open_up_lying):#jump([ns&#45;0]open_up, [ns&#45;0]open_up_lying)&#45;&gt;[ns&#45;0]open_up_lying:[ns&#45;0]open_up_lying</title>
<path fill="none" stroke="black" d="M623.842,-193.935C631.053,-184.902 645.402,-166.928 660.571,-147.927"/>
<polygon fill="black" stroke="black" points="663.367,-150.034 666.871,-140.036 657.896,-145.667 663.367,-150.034"/>
</g>
<!-- #jump([ns&#45;0]continue_spying, [ns&#45;0]report_data)&#45;&gt;[ns&#45;0]report_data -->
<g id="edge12" class="edge"><title>#jump([ns&#45;0]continue_spying, [ns&#45;0]report_data):#jump([ns&#45;0]continue_spying, [ns&#45;0]report_data)&#45;&gt;[ns&#45;0]report_data:[ns&#45;0]report_data</title>
<path fill="none" stroke="black" d="M134.745,-193.935C134.381,-185.263 133.67,-168.351 132.908,-150.202"/>
<polygon fill="black" stroke="black" points="136.397,-149.88 132.48,-140.036 129.403,-150.174 136.397,-149.88"/>
</g>
<!-- #option([ns&#45;0]start_spying, [ns&#45;0]open_up)&#45;&gt;[ns&#45;0]open_up -->
<g id="edge14" class="edge"><title>#option([ns&#45;0]start_spying, [ns&#45;0]open_up):#option([ns&#45;0]start_spying, [ns&#45;0]open_up)&#45;&gt;[ns&#45;0]open_up:[ns&#45;0]open_up</title>
<path fill="none" stroke="black" stroke-dasharray="1,5" d="M418,-517.33C418,-481.789 418,-380.15 418,-324.876"/>
<polygon fill="black" stroke="black" points="421.5,-324.796 418,-314.797 414.5,-324.797 421.5,-324.796"/>
</g>
<!-- #options_link(#option([ns&#45;0]start_spying, [ns&#45;0]spying_middle)|#option([ns&#45;0]spying_middle, [ns&#45;0]continue_spying)) -->
<g id="node15" class="node"><title>#options_link(#option([ns&#45;0]start_spying, [ns&#45;0]spying_middle)|#option([ns&#45;0]spying_middle, [ns&#45;0]continue_spying))</title>
<ellipse fill="#ffaaaa" stroke="black" cx="182" cy="-617" rx="12" ry="12"/>
<text text-anchor="middle" x="182" y="-614.5" font-family="Times,serif" font-size="10.00">link</text>
</g>
<!-- #options_link(#option([ns&#45;0]start_spying, [ns&#45;0]spying_middle)|#option([ns&#45;0]spying_middle, [ns&#45;0]continue_spying))&#45;&gt;#option([ns&#45;0]spying_middle, [ns&#45;0]continue_spying) -->
<g id="edge16" class="edge"><title>#options_link(#option([ns&#45;0]start_spying, [ns&#45;0]spying_middle)|#option([ns&#45;0]spying_middle, [ns&#45;0]continue_spying))&#45;&gt;#option([ns&#45;0]spying_middle, [ns&#45;0]continue_spying):#option([ns&#45;0]spying_middle, [ns&#45;0]continue_spying)</title>
<path fill="none" stroke="#ffaaaa" d="M180.405,-604.973C174.307,-562.809 152.574,-412.539 147.893,-380.172"/>
</g>
<!-- #options_link(#option([ns&#45;0]start_spying, [ns&#45;0]spying_middle)|#option([ns&#45;0]spying_middle, [ns&#45;0]continue_spying))&#45;&gt;#option([ns&#45;0]start_spying, [ns&#45;0]spying_middle) -->
<g id="edge15" class="edge"><title>#options_link(#option([ns&#45;0]start_spying, [ns&#45;0]spying_middle)|#option([ns&#45;0]spying_middle, [ns&#45;0]continue_spying))&#45;&gt;#option([ns&#45;0]start_spying, [ns&#45;0]spying_middle):#option([ns&#45;0]start_spying, [ns&#45;0]spying_middle)</title>
<path fill="none" stroke="#ffaaaa" d="M190.306,-608.248C205.884,-593.708 239.618,-562.223 258.502,-544.598"/>
</g>
</g>
</svg>
