<?xml version="1.0" encoding="UTF-8" standalone="no"?>
<!DOCTYPE svg PUBLIC "-//W3C//DTD SVG 1.1//EN"
 "http://www.w3.org/Graphics/SVG/1.1/DTD/svg11.dtd">
<!-- Generated by graphviz version 2.34.0 (20130907.0221)
 -->
<!-- Title: quest Pages: 1 -->
<svg width="738pt" height="743pt"
 viewBox="0.00 0.00 738.00 743.00" xmlns="http://www.w3.org/2000/svg" xmlns:xlink="http://www.w3.org/1999/xlink">
<g id="graph0" class="graph" transform="scale(1 1) rotate(0) translate(4 739)">
<title>quest</title>
<polygon fill="white" stroke="white" points="-4,4 -4,-739 734,-739 734,4 -4,4"/>
<g id="clust1" class="cluster"><title>cluster_[ns&#45;0]open_up_variants</title>
<polygon fill="#ffffdd" stroke="black" points="210,-8 210,-137 722,-137 722,-8 210,-8"/>
<text text-anchor="middle" x="466" y="-121.8" font-family="Times,serif" font-size="14.00">cluster_[ns&#45;0]open_up_variants</text>
</g>
<!-- [ns&#45;0]open_up_finish -->
<g id="node1" class="node"><title>[ns&#45;0]open_up_finish</title>
<polygon fill="#eeeeee" stroke="none" points="225.5,-20.5 225.5,-101.5 422.5,-101.5 422.5,-20.5 225.5,-20.5"/>
<text text-anchor="start" x="228" y="-91.5" font-family="Times,serif" font-style="italic" font-size="10.00">[ns&#45;0]open_up_finish</text>
<text text-anchor="start" x="361" y="-91.5" font-family="Times,serif" font-weight="bold" font-size="10.00">failed</text>
<text text-anchor="start" x="228" y="-77" font-family="Times,serif" font-size="10.00">Завершить задание и остатсья в городе цели</text>
<polygon fill="#dddddd" stroke="none" points="227,-60 227,-73 422,-73 422,-60 227,-60"/>
<text text-anchor="start" x="228" y="-65" font-family="Times,serif" font-size="10.00">hero </text>
<text text-anchor="start" x="249" y="-65" font-family="Times,serif" font-weight="bold" font-size="10.00">находится в</text>
<text text-anchor="start" x="304" y="-65" font-family="Times,serif" font-size="10.00"> place_4</text>
<polygon fill="#ffffff" stroke="none" points="227,-47 227,-60 422,-60 422,-47 227,-47"/>
<text text-anchor="start" x="228" y="-52" font-family="Times,serif" font-weight="bold" font-size="10.00">выдать награду </text>
<text text-anchor="start" x="303" y="-52" font-family="Times,serif" font-size="10.00">  hero </text>
<text text-anchor="start" x="328" y="-52" font-family="Times,serif" font-weight="bold" font-size="10.00">типа </text>
<text text-anchor="start" x="352" y="-52" font-family="Times,serif" font-size="10.00"> open_up_finish</text>
<polygon fill="#ffffff" stroke="none" points="227,-34 227,-47 422,-47 422,-34 227,-34"/>
<text text-anchor="start" x="228" y="-39" font-family="Times,serif" font-weight="bold" font-size="10.00">увеличить влияние </text>
<text text-anchor="start" x="316" y="-39" font-family="Times,serif" font-size="10.00">  person_1 </text>
<text text-anchor="start" x="361" y="-39" font-family="Times,serif" font-weight="bold" font-size="10.00">на </text>
<text text-anchor="start" x="374" y="-39" font-family="Times,serif" font-size="10.00"> &#45;1.00</text>
<polygon fill="#ffffff" stroke="none" points="227,-21 227,-34 422,-34 422,-21 227,-21"/>
<text text-anchor="start" x="228" y="-26" font-family="Times,serif" font-weight="bold" font-size="10.00">увеличить влияние </text>
<text text-anchor="start" x="316" y="-26" font-family="Times,serif" font-size="10.00">  person_4 </text>
<text text-anchor="start" x="361" y="-26" font-family="Times,serif" font-weight="bold" font-size="10.00">на </text>
<text text-anchor="start" x="374" y="-26" font-family="Times,serif" font-size="10.00"> 1.00</text>
<polygon fill="none" stroke="black" points="225.5,-20.5 225.5,-101.5 422.5,-101.5 422.5,-20.5 225.5,-20.5"/>
</g>
<!-- [ns&#45;0]start_spying -->
<g id="node2" class="node"><title>[ns&#45;0]start_spying</title>
<polygon fill="#ddddff" stroke="none" points="172.5,-563.5 172.5,-618.5 341.5,-618.5 341.5,-563.5 172.5,-563.5"/>
<text text-anchor="start" x="175" y="-608.5" font-family="Times,serif" font-style="italic" font-size="10.00">[ns&#45;0]start_spying</text>
<text text-anchor="start" x="175" y="-594" font-family="Times,serif" font-size="10.00">Прибытие в город цели</text>
<polygon fill="#ccccee" stroke="none" points="174,-577 174,-590 341,-590 341,-577 174,-577"/>
<text text-anchor="start" x="175" y="-582" font-family="Times,serif" font-size="10.00">hero </text>
<text text-anchor="start" x="196" y="-582" font-family="Times,serif" font-weight="bold" font-size="10.00">находится в</text>
<text text-anchor="start" x="251" y="-582" font-family="Times,serif" font-size="10.00"> place_4</text>
<polygon fill="#eeeeff" stroke="none" points="174,-564 174,-577 341,-577 341,-564 174,-564"/>
<text text-anchor="start" x="175" y="-569" font-family="Times,serif" font-weight="bold" font-size="10.00">сообщение:</text>
<text text-anchor="start" x="227" y="-569" font-family="Times,serif" font-size="10.00"> arrived_to_target</text>
<polygon fill="none" stroke="black" points="172.5,-563.5 172.5,-618.5 341.5,-618.5 341.5,-563.5 172.5,-563.5"/>
</g>
<!-- #option([ns&#45;0]start_spying, [ns&#45;0]spying_middle) -->
<g id="node10" class="node"><title>#option([ns&#45;0]start_spying, [ns&#45;0]spying_middle)</title>
<polygon fill="#ffffff" stroke="none" points="142,-504 142,-518 250,-518 250,-504 142,-504"/>
<text text-anchor="start" x="143" y="-508.5" font-family="Times,serif" font-size="10.00">spy</text>
<polygon fill="#eeeeee" stroke="none" points="142,-491 142,-504 250,-504 250,-491 142,-491"/>
<text text-anchor="start" x="143" y="-496" font-family="Times,serif" font-weight="bold" font-size="10.00">сообщение:</text>
<text text-anchor="start" x="195" y="-496" font-family="Times,serif" font-size="10.00"> start_spying</text>
</g>
<!-- [ns&#45;0]start_spying&#45;&gt;#option([ns&#45;0]start_spying, [ns&#45;0]spying_middle) -->
<g id="edge4" class="edge"><title>[ns&#45;0]start_spying:[ns&#45;0]start_spying&#45;&gt;#option([ns&#45;0]start_spying, [ns&#45;0]spying_middle):#option([ns&#45;0]start_spying, [ns&#45;0]spying_middle)</title>
<path fill="none" stroke="black" stroke-dasharray="1,5" d="M237.699,-563.422C226.809,-548.426 213.707,-530.383 205.132,-518.576"/>
</g>
<!-- #option([ns&#45;0]start_spying, [ns&#45;0]open_up) -->
<g id="node14" class="node"><title>#option([ns&#45;0]start_spying, [ns&#45;0]open_up)</title>
<polygon fill="#ffffff" stroke="none" points="305,-346 305,-360 421,-360 421,-346 305,-346"/>
<text text-anchor="start" x="306" y="-350.5" font-family="Times,serif" font-size="10.00">open_up</text>
<polygon fill="#eeeeee" stroke="none" points="305,-333 305,-346 421,-346 421,-333 305,-333"/>
<text text-anchor="start" x="306" y="-338" font-family="Times,serif" font-weight="bold" font-size="10.00">сообщение:</text>
<text text-anchor="start" x="358" y="-338" font-family="Times,serif" font-size="10.00"> start_open_up</text>
</g>
<!-- [ns&#45;0]start_spying&#45;&gt;#option([ns&#45;0]start_spying, [ns&#45;0]open_up) -->
<g id="edge12" class="edge"><title>[ns&#45;0]start_spying:[ns&#45;0]start_spying&#45;&gt;#option([ns&#45;0]start_spying, [ns&#45;0]open_up):#option([ns&#45;0]start_spying, [ns&#45;0]open_up)</title>
<path fill="none" stroke="black" stroke-dasharray="1,5" d="M277.941,-563.426C298.008,-536.592 327.596,-493.189 344,-451 356.059,-419.986 360.586,-380.679 362.188,-360.784"/>
</g>
<!-- [ns&#45;0]start -->
<g id="node3" class="node"><title>[ns&#45;0]start</title>
<polygon fill="#eeeeee" stroke="none" points="189.5,-663 189.5,-731 324.5,-731 324.5,-663 189.5,-663"/>
<text text-anchor="start" x="192" y="-721.5" font-family="Times,serif" font-style="italic" font-size="10.00">[ns&#45;0]start</text>
<text text-anchor="start" x="277" y="-721.5" font-family="Times,serif" font-weight="bold" font-size="10.00">spying</text>
<text text-anchor="start" x="192" y="-707" font-family="Times,serif" font-size="10.00">Начало: задание на шпионаж</text>
<polygon fill="#dddddd" stroke="none" points="191,-690 191,-703 324,-703 324,-690 191,-690"/>
<text text-anchor="start" x="192" y="-695" font-family="Times,serif" font-size="10.00">hero </text>
<text text-anchor="start" x="213" y="-695" font-family="Times,serif" font-weight="bold" font-size="10.00">находится в</text>
<text text-anchor="start" x="268" y="-695" font-family="Times,serif" font-size="10.00"> place_1</text>
<polygon fill="#dddddd" stroke="none" points="191,-677 191,-690 324,-690 324,-677 191,-677"/>
<text text-anchor="start" x="192" y="-682" font-family="Times,serif" font-size="10.00">person_4 </text>
<text text-anchor="start" x="232" y="-682" font-family="Times,serif" font-weight="bold" font-size="10.00">находится в</text>
<text text-anchor="start" x="287" y="-682" font-family="Times,serif" font-size="10.00"> place_4</text>
<polygon fill="#ffffff" stroke="none" points="191,-664 191,-677 324,-677 324,-664 191,-664"/>
<text text-anchor="start" x="192" y="-669" font-family="Times,serif" font-weight="bold" font-size="10.00">сообщение:</text>
<text text-anchor="start" x="244" y="-669" font-family="Times,serif" font-size="10.00"> intro</text>
<polygon fill="none" stroke="black" points="189.5,-663 189.5,-731 324.5,-731 324.5,-663 189.5,-663"/>
</g>
<!-- [ns&#45;0]start&#45;&gt;[ns&#45;0]start_spying -->
<g id="edge3" class="edge"><title>[ns&#45;0]start:[ns&#45;0]start&#45;&gt;[ns&#45;0]start_spying:[ns&#45;0]start_spying</title>
<path fill="none" stroke="black" d="M257,-662.808C257,-651.996 257,-639.931 257,-628.867"/>
<polygon fill="black" stroke="black" points="260.5,-628.639 257,-618.639 253.5,-628.639 260.5,-628.639"/>
</g>
<!-- [ns&#45;0]open_up_lying -->
<g id="node4" class="node"><title>[ns&#45;0]open_up_lying</title>
<polygon fill="#eeeeee" stroke="none" points="456.5,-20.5 456.5,-101.5 705.5,-101.5 705.5,-20.5 456.5,-20.5"/>
<text text-anchor="start" x="459" y="-91.5" font-family="Times,serif" font-style="italic" font-size="10.00">[ns&#45;0]open_up_lying</text>
<text text-anchor="start" x="623.5" y="-91.5" font-family="Times,serif" font-weight="bold" font-size="10.00">successed</text>
<text text-anchor="start" x="459" y="-77" font-family="Times,serif" font-size="10.00">Вернуться к заказчику и сообщить ложную информацию</text>
<polygon fill="#dddddd" stroke="none" points="458,-60 458,-73 705,-73 705,-60 458,-60"/>
<text text-anchor="start" x="459" y="-65" font-family="Times,serif" font-size="10.00">hero </text>
<text text-anchor="start" x="480" y="-65" font-family="Times,serif" font-weight="bold" font-size="10.00">находится в</text>
<text text-anchor="start" x="535" y="-65" font-family="Times,serif" font-size="10.00"> place_1</text>
<polygon fill="#ffffff" stroke="none" points="458,-47 458,-60 705,-60 705,-47 458,-47"/>
<text text-anchor="start" x="459" y="-52" font-family="Times,serif" font-weight="bold" font-size="10.00">выдать награду </text>
<text text-anchor="start" x="534" y="-52" font-family="Times,serif" font-size="10.00">  hero </text>
<text text-anchor="start" x="559" y="-52" font-family="Times,serif" font-weight="bold" font-size="10.00">типа </text>
<text text-anchor="start" x="583" y="-52" font-family="Times,serif" font-size="10.00"> open_up_lying</text>
<polygon fill="#ffffff" stroke="none" points="458,-34 458,-47 705,-47 705,-34 458,-34"/>
<text text-anchor="start" x="459" y="-39" font-family="Times,serif" font-weight="bold" font-size="10.00">увеличить влияние </text>
<text text-anchor="start" x="547" y="-39" font-family="Times,serif" font-size="10.00">  person_1 </text>
<text text-anchor="start" x="592" y="-39" font-family="Times,serif" font-weight="bold" font-size="10.00">на </text>
<text text-anchor="start" x="605" y="-39" font-family="Times,serif" font-size="10.00"> &#45;1.00</text>
<polygon fill="#ffffff" stroke="none" points="458,-21 458,-34 705,-34 705,-21 458,-21"/>
<text text-anchor="start" x="459" y="-26" font-family="Times,serif" font-weight="bold" font-size="10.00">увеличить влияние </text>
<text text-anchor="start" x="547" y="-26" font-family="Times,serif" font-size="10.00">  person_4 </text>
<text text-anchor="start" x="592" y="-26" font-family="Times,serif" font-weight="bold" font-size="10.00">на </text>
<text text-anchor="start" x="605" y="-26" font-family="Times,serif" font-size="10.00"> 1.00</text>
<polygon fill="none" stroke="black" points="456.5,-20.5 456.5,-101.5 705.5,-101.5 705.5,-20.5 456.5,-20.5"/>
</g>
<!-- [ns&#45;0]report_data -->
<g id="node5" class="node"><title>[ns&#45;0]report_data</title>
<polygon fill="#eeeeee" stroke="none" points="12.5,-20.5 12.5,-101.5 191.5,-101.5 191.5,-20.5 12.5,-20.5"/>
<text text-anchor="start" x="15" y="-91.5" font-family="Times,serif" font-style="italic" font-size="10.00">[ns&#45;0]report_data</text>
<text text-anchor="start" x="127" y="-91.5" font-family="Times,serif" font-weight="bold" font-size="10.00">successed</text>
<text text-anchor="start" x="15" y="-77" font-family="Times,serif" font-size="10.00">Сообщить сообранную информацию</text>
<polygon fill="#dddddd" stroke="none" points="14,-60 14,-73 191,-73 191,-60 14,-60"/>
<text text-anchor="start" x="15" y="-65" font-family="Times,serif" font-size="10.00">hero </text>
<text text-anchor="start" x="36" y="-65" font-family="Times,serif" font-weight="bold" font-size="10.00">находится в</text>
<text text-anchor="start" x="91" y="-65" font-family="Times,serif" font-size="10.00"> place_1</text>
<polygon fill="#ffffff" stroke="none" points="14,-47 14,-60 191,-60 191,-47 14,-47"/>
<text text-anchor="start" x="15" y="-52" font-family="Times,serif" font-weight="bold" font-size="10.00">выдать награду </text>
<text text-anchor="start" x="90" y="-52" font-family="Times,serif" font-size="10.00">  hero </text>
<text text-anchor="start" x="115" y="-52" font-family="Times,serif" font-weight="bold" font-size="10.00">типа </text>
<text text-anchor="start" x="139" y="-52" font-family="Times,serif" font-size="10.00"> report_data</text>
<polygon fill="#ffffff" stroke="none" points="14,-34 14,-47 191,-47 191,-34 14,-34"/>
<text text-anchor="start" x="15" y="-39" font-family="Times,serif" font-weight="bold" font-size="10.00">увеличить влияние </text>
<text text-anchor="start" x="103" y="-39" font-family="Times,serif" font-size="10.00">  person_1 </text>
<text text-anchor="start" x="148" y="-39" font-family="Times,serif" font-weight="bold" font-size="10.00">на </text>
<text text-anchor="start" x="161" y="-39" font-family="Times,serif" font-size="10.00"> 1.00</text>
<polygon fill="#ffffff" stroke="none" points="14,-21 14,-34 191,-34 191,-21 14,-21"/>
<text text-anchor="start" x="15" y="-26" font-family="Times,serif" font-weight="bold" font-size="10.00">увеличить влияние </text>
<text text-anchor="start" x="103" y="-26" font-family="Times,serif" font-size="10.00">  person_4 </text>
<text text-anchor="start" x="148" y="-26" font-family="Times,serif" font-weight="bold" font-size="10.00">на </text>
<text text-anchor="start" x="161" y="-26" font-family="Times,serif" font-size="10.00"> &#45;1.00</text>
<polygon fill="none" stroke="black" points="12.5,-20.5 12.5,-101.5 191.5,-101.5 191.5,-20.5 12.5,-20.5"/>
</g>
<!-- [ns&#45;0]continue_spying -->
<g id="node6" class="node"><title>[ns&#45;0]continue_spying</title>
<polygon fill="#ddffdd" stroke="none" points="7.5,-221 7.5,-289 196.5,-289 196.5,-221 7.5,-221"/>
<text text-anchor="start" x="10" y="-279.5" font-family="Times,serif" font-style="italic" font-size="10.00">[ns&#45;0]continue_spying</text>
<text text-anchor="start" x="10" y="-265" font-family="Times,serif" font-size="10.00">Продолжить шпионаж</text>
<polygon fill="#cceecc" stroke="none" points="9,-248 9,-261 196,-261 196,-248 9,-248"/>
<text text-anchor="start" x="10" y="-253" font-family="Times,serif" font-size="10.00">hero </text>
<text text-anchor="start" x="31" y="-253" font-family="Times,serif" font-weight="bold" font-size="10.00">находится около</text>
<text text-anchor="start" x="107" y="-253" font-family="Times,serif" font-size="10.00"> place_4</text>
<polygon fill="#eeffee" stroke="none" points="9,-235 9,-248 196,-248 196,-235 9,-235"/>
<text text-anchor="start" x="10" y="-240" font-family="Times,serif" font-weight="bold" font-size="10.00">отправить </text>
<text text-anchor="start" x="60" y="-240" font-family="Times,serif" font-size="10.00"> hero</text>
<text text-anchor="start" x="81" y="-240" font-family="Times,serif" font-weight="bold" font-size="10.00">бродить около</text>
<text text-anchor="start" x="147" y="-240" font-family="Times,serif" font-size="10.00"> place_4</text>
<polygon fill="#eeffee" stroke="none" points="9,-222 9,-235 196,-235 196,-222 9,-222"/>
<text text-anchor="start" x="10" y="-227" font-family="Times,serif" font-weight="bold" font-size="10.00">сообщение:</text>
<text text-anchor="start" x="62" y="-227" font-family="Times,serif" font-size="10.00"> continue_spying</text>
<polygon fill="none" stroke="black" points="7.5,-221 7.5,-289 196.5,-289 196.5,-221 7.5,-221"/>
</g>
<!-- #jump([ns&#45;0]continue_spying, [ns&#45;0]report_data) -->
<g id="node13" class="node"><title>#jump([ns&#45;0]continue_spying, [ns&#45;0]report_data)</title>
<polygon fill="#eeeeee" stroke="none" points="29,-156 29,-170 175,-170 175,-156 29,-156"/>
<text text-anchor="start" x="30" y="-161.5" font-family="Times,serif" font-weight="bold" font-size="10.00">сообщение:</text>
<text text-anchor="start" x="82" y="-161.5" font-family="Times,serif" font-size="10.00"> move_to_report_data</text>
</g>
<!-- [ns&#45;0]continue_spying&#45;&gt;#jump([ns&#45;0]continue_spying, [ns&#45;0]report_data) -->
<g id="edge10" class="edge"><title>[ns&#45;0]continue_spying:[ns&#45;0]continue_spying&#45;&gt;#jump([ns&#45;0]continue_spying, [ns&#45;0]report_data):#jump([ns&#45;0]continue_spying, [ns&#45;0]report_data)</title>
<path fill="none" stroke="black" d="M102,-220.998C102,-202.336 102,-180.703 102,-170.268"/>
</g>
<!-- [ns&#45;0]spying_middle -->
<g id="node7" class="node"><title>[ns&#45;0]spying_middle</title>
<polygon fill="#ddddff" stroke="none" points="107,-405 107,-447 285,-447 285,-405 107,-405"/>
<text text-anchor="start" x="109" y="-437.5" font-family="Times,serif" font-style="italic" font-size="10.00">[ns&#45;0]spying_middle</text>
<text text-anchor="start" x="109" y="-423" font-family="Times,serif" font-size="10.00">Шпионаж</text>
<polygon fill="#eeeeff" stroke="none" points="108,-406 108,-419 284,-419 284,-406 108,-406"/>
<text text-anchor="start" x="109" y="-411" font-family="Times,serif" font-weight="bold" font-size="10.00">отправить </text>
<text text-anchor="start" x="159" y="-411" font-family="Times,serif" font-size="10.00"> hero</text>
<text text-anchor="start" x="180" y="-411" font-family="Times,serif" font-weight="bold" font-size="10.00">бродить около</text>
<text text-anchor="start" x="246" y="-411" font-family="Times,serif" font-size="10.00"> place_4</text>
<polygon fill="none" stroke="black" points="107,-405 107,-447 285,-447 285,-405 107,-405"/>
</g>
<!-- #option([ns&#45;0]spying_middle, [ns&#45;0]continue_spying) -->
<g id="node9" class="node"><title>#option([ns&#45;0]spying_middle, [ns&#45;0]continue_spying)</title>
<polygon fill="#ffffff" stroke="none" points="93,-340 93,-354 111,-354 111,-340 93,-340"/>
<text text-anchor="start" x="94" y="-344.5" font-family="Times,serif" font-size="10.00">spy</text>
</g>
<!-- [ns&#45;0]spying_middle&#45;&gt;#option([ns&#45;0]spying_middle, [ns&#45;0]continue_spying) -->
<g id="edge1" class="edge"><title>[ns&#45;0]spying_middle:[ns&#45;0]spying_middle&#45;&gt;#option([ns&#45;0]spying_middle, [ns&#45;0]continue_spying):#option([ns&#45;0]spying_middle, [ns&#45;0]continue_spying)</title>
<path fill="none" stroke="black" stroke-dasharray="1,5" d="M171.303,-404.769C150.85,-388.015 123.062,-365.253 109.742,-354.342"/>
</g>
<!-- #option([ns&#45;0]spying_middle, [ns&#45;0]open_up) -->
<g id="node11" class="node"><title>#option([ns&#45;0]spying_middle, [ns&#45;0]open_up)</title>
<polygon fill="#ffffff" stroke="none" points="155,-346 155,-360 271,-360 271,-346 155,-346"/>
<text text-anchor="start" x="156" y="-350.5" font-family="Times,serif" font-size="10.00">open_up</text>
<polygon fill="#eeeeee" stroke="none" points="155,-333 155,-346 271,-346 271,-333 155,-333"/>
<text text-anchor="start" x="156" y="-338" font-family="Times,serif" font-weight="bold" font-size="10.00">сообщение:</text>
<text text-anchor="start" x="208" y="-338" font-family="Times,serif" font-size="10.00"> start_open_up</text>
</g>
<!-- [ns&#45;0]spying_middle&#45;&gt;#option([ns&#45;0]spying_middle, [ns&#45;0]open_up) -->
<g id="edge6" class="edge"><title>[ns&#45;0]spying_middle:[ns&#45;0]spying_middle&#45;&gt;#option([ns&#45;0]spying_middle, [ns&#45;0]open_up):#option([ns&#45;0]spying_middle, [ns&#45;0]open_up)</title>
<path fill="none" stroke="black" stroke-dasharray="1,5" d="M200.467,-404.769C203.536,-390.867 207.519,-372.828 210.162,-360.856"/>
</g>
<!-- [ns&#45;0]open_up -->
<g id="node8" class="node"><title>[ns&#45;0]open_up</title>
<polygon fill="#ddffdd" stroke="none" points="301.5,-227.5 301.5,-282.5 424.5,-282.5 424.5,-227.5 301.5,-227.5"/>
<text text-anchor="start" x="304" y="-272.5" font-family="Times,serif" font-style="italic" font-size="10.00">[ns&#45;0]open_up</text>
<text text-anchor="start" x="304" y="-258" font-family="Times,serif" font-size="10.00">Раскрыться</text>
<polygon fill="#cceecc" stroke="none" points="303,-241 303,-254 424,-254 424,-241 303,-241"/>
<text text-anchor="start" x="304" y="-246" font-family="Times,serif" font-size="10.00">hero </text>
<text text-anchor="start" x="325" y="-246" font-family="Times,serif" font-weight="bold" font-size="10.00">находится в</text>
<text text-anchor="start" x="380" y="-246" font-family="Times,serif" font-size="10.00"> place_4</text>
<polygon fill="#eeffee" stroke="none" points="303,-228 303,-241 424,-241 424,-228 303,-228"/>
<text text-anchor="start" x="304" y="-233" font-family="Times,serif" font-weight="bold" font-size="10.00">сообщение:</text>
<text text-anchor="start" x="356" y="-233" font-family="Times,serif" font-size="10.00"> open_up</text>
<polygon fill="none" stroke="black" points="301.5,-227.5 301.5,-282.5 424.5,-282.5 424.5,-227.5 301.5,-227.5"/>
</g>
<!-- [ns&#45;0]open_up&#45;&gt;[ns&#45;0]open_up_finish -->
<g id="edge14" class="edge"><title>[ns&#45;0]open_up:[ns&#45;0]open_up&#45;&gt;[ns&#45;0]open_up_finish:[ns&#45;0]open_up_finish</title>
<path fill="none" stroke="black" d="M357.577,-227.303C351.532,-197.541 341.621,-148.749 334.13,-111.871"/>
<polygon fill="black" stroke="black" points="337.507,-110.915 332.087,-101.812 330.647,-112.308 337.507,-110.915"/>
</g>
<!-- #jump([ns&#45;0]open_up, [ns&#45;0]open_up_lying) -->
<g id="node12" class="node"><title>#jump([ns&#45;0]open_up, [ns&#45;0]open_up_lying)</title>
<polygon fill="#eeeeee" stroke="none" points="455,-156 455,-170 594,-170 594,-156 455,-156"/>
<text text-anchor="start" x="456" y="-161.5" font-family="Times,serif" font-weight="bold" font-size="10.00">сообщение:</text>
<text text-anchor="start" x="508" y="-161.5" font-family="Times,serif" font-size="10.00"> move_to_report_lie</text>
</g>
<!-- [ns&#45;0]open_up&#45;&gt;#jump([ns&#45;0]open_up, [ns&#45;0]open_up_lying) -->
<g id="edge8" class="edge"><title>[ns&#45;0]open_up:[ns&#45;0]open_up&#45;&gt;#jump([ns&#45;0]open_up, [ns&#45;0]open_up_lying):#jump([ns&#45;0]open_up, [ns&#45;0]open_up_lying)</title>
<path fill="none" stroke="black" d="M410.435,-227.484C446.238,-207.469 492.604,-181.55 513.257,-170.005"/>
</g>
<!-- #option([ns&#45;0]spying_middle, [ns&#45;0]continue_spying)&#45;&gt;[ns&#45;0]continue_spying -->
<g id="edge2" class="edge"><title>#option([ns&#45;0]spying_middle, [ns&#45;0]continue_spying):#option([ns&#45;0]spying_middle, [ns&#45;0]continue_spying)&#45;&gt;[ns&#45;0]continue_spying:[ns&#45;0]continue_spying</title>
<path fill="none" stroke="black" stroke-dasharray="1,5" d="M102,-339.814C102,-331.344 102,-315.386 102,-299.649"/>
<polygon fill="black" stroke="black" points="105.5,-299.421 102,-289.421 98.5001,-299.421 105.5,-299.421"/>
</g>
<!-- #option([ns&#45;0]start_spying, [ns&#45;0]spying_middle)&#45;&gt;[ns&#45;0]spying_middle -->
<g id="edge5" class="edge"><title>#option([ns&#45;0]start_spying, [ns&#45;0]spying_middle):#option([ns&#45;0]start_spying, [ns&#45;0]spying_middle)&#45;&gt;[ns&#45;0]spying_middle:[ns&#45;0]spying_middle</title>
<path fill="none" stroke="black" stroke-dasharray="1,5" d="M196,-491.285C196,-482.035 196,-469.108 196,-457.271"/>
<polygon fill="black" stroke="black" points="199.5,-457.269 196,-447.269 192.5,-457.269 199.5,-457.269"/>
</g>
<!-- #option([ns&#45;0]spying_middle, [ns&#45;0]open_up)&#45;&gt;[ns&#45;0]open_up -->
<g id="edge7" class="edge"><title>#option([ns&#45;0]spying_middle, [ns&#45;0]open_up):#option([ns&#45;0]spying_middle, [ns&#45;0]open_up)&#45;&gt;[ns&#45;0]open_up:[ns&#45;0]open_up</title>
<path fill="none" stroke="black" stroke-dasharray="1,5" d="M233.857,-333.486C253.457,-321.726 283.62,-303.628 309.867,-287.88"/>
<polygon fill="black" stroke="black" points="311.823,-290.788 318.598,-282.641 308.222,-284.785 311.823,-290.788"/>
</g>
<!-- #jump([ns&#45;0]open_up, [ns&#45;0]open_up_lying)&#45;&gt;[ns&#45;0]open_up_lying -->
<g id="edge9" class="edge"><title>#jump([ns&#45;0]open_up, [ns&#45;0]open_up_lying):#jump([ns&#45;0]open_up, [ns&#45;0]open_up_lying)&#45;&gt;[ns&#45;0]open_up_lying:[ns&#45;0]open_up_lying</title>
<path fill="none" stroke="black" d="M527.566,-155.745C532.844,-146.485 543.217,-128.287 553.43,-110.368"/>
<polygon fill="black" stroke="black" points="556.497,-112.056 558.408,-101.635 550.415,-108.589 556.497,-112.056"/>
</g>
<!-- #jump([ns&#45;0]continue_spying, [ns&#45;0]report_data)&#45;&gt;[ns&#45;0]report_data -->
<g id="edge11" class="edge"><title>#jump([ns&#45;0]continue_spying, [ns&#45;0]report_data):#jump([ns&#45;0]continue_spying, [ns&#45;0]report_data)&#45;&gt;[ns&#45;0]report_data:[ns&#45;0]report_data</title>
<path fill="none" stroke="black" d="M102,-155.745C102,-146.737 102,-129.273 102,-111.835"/>
<polygon fill="black" stroke="black" points="105.5,-111.635 102,-101.635 98.5001,-111.635 105.5,-111.635"/>
</g>
<!-- #option([ns&#45;0]start_spying, [ns&#45;0]open_up)&#45;&gt;[ns&#45;0]open_up -->
<g id="edge13" class="edge"><title>#option([ns&#45;0]start_spying, [ns&#45;0]open_up):#option([ns&#45;0]start_spying, [ns&#45;0]open_up)&#45;&gt;[ns&#45;0]open_up:[ns&#45;0]open_up</title>
<path fill="none" stroke="black" stroke-dasharray="1,5" d="M363,-333.486C363,-322.992 363,-307.451 363,-293.037"/>
<polygon fill="black" stroke="black" points="366.5,-292.828 363,-282.828 359.5,-292.828 366.5,-292.828"/>
</g>
<!-- #options_link(#option([ns&#45;0]start_spying, [ns&#45;0]open_up),#option([ns&#45;0]spying_middle, [ns&#45;0]open_up)) -->
<g id="node15" class="node"><title>#options_link(#option([ns&#45;0]start_spying, [ns&#45;0]open_up),#option([ns&#45;0]spying_middle, [ns&#45;0]open_up))</title>
<ellipse fill="#ffaaaa" stroke="black" cx="323" cy="-426" rx="12" ry="12"/>
<text text-anchor="middle" x="323" y="-423.5" font-family="Times,serif" font-size="10.00">link</text>
</g>
<!-- #options_link(#option([ns&#45;0]start_spying, [ns&#45;0]open_up),#option([ns&#45;0]spying_middle, [ns&#45;0]open_up))&#45;&gt;#option([ns&#45;0]spying_middle, [ns&#45;0]open_up) -->
<g id="edge16" class="edge"><title>#options_link(#option([ns&#45;0]start_spying, [ns&#45;0]open_up),#option([ns&#45;0]spying_middle, [ns&#45;0]open_up))&#45;&gt;#option([ns&#45;0]spying_middle, [ns&#45;0]open_up):#option([ns&#45;0]spying_middle, [ns&#45;0]open_up)</title>
<path fill="none" stroke="#ffaaaa" d="M315.812,-415.977C311.757,-411.206 306.426,-405.437 301,-401 281.395,-384.968 256.464,-370.415 238.147,-360.632"/>
</g>
<!-- #options_link(#option([ns&#45;0]start_spying, [ns&#45;0]open_up),#option([ns&#45;0]spying_middle, [ns&#45;0]open_up))&#45;&gt;#option([ns&#45;0]start_spying, [ns&#45;0]open_up) -->
<g id="edge15" class="edge"><title>#options_link(#option([ns&#45;0]start_spying, [ns&#45;0]open_up),#option([ns&#45;0]spying_middle, [ns&#45;0]open_up))&#45;&gt;#option([ns&#45;0]start_spying, [ns&#45;0]open_up):#option([ns&#45;0]start_spying, [ns&#45;0]open_up)</title>
<path fill="none" stroke="#ffaaaa" d="M328.229,-414.934C335.472,-400.992 348.553,-375.811 356.441,-360.626"/>
</g>
<!-- #options_link(#option([ns&#45;0]start_spying, [ns&#45;0]spying_middle),#option([ns&#45;0]spying_middle, [ns&#45;0]continue_spying)) -->
<g id="node16" class="node"><title>#options_link(#option([ns&#45;0]start_spying, [ns&#45;0]spying_middle),#option([ns&#45;0]spying_middle, [ns&#45;0]continue_spying))</title>
<ellipse fill="#ffaaaa" stroke="black" cx="103" cy="-591" rx="12" ry="12"/>
<text text-anchor="middle" x="103" y="-588.5" font-family="Times,serif" font-size="10.00">link</text>
</g>
<!-- #options_link(#option([ns&#45;0]start_spying, [ns&#45;0]spying_middle),#option([ns&#45;0]spying_middle, [ns&#45;0]continue_spying))&#45;&gt;#option([ns&#45;0]spying_middle, [ns&#45;0]continue_spying) -->
<g id="edge18" class="edge"><title>#options_link(#option([ns&#45;0]start_spying, [ns&#45;0]spying_middle),#option([ns&#45;0]spying_middle, [ns&#45;0]continue_spying))&#45;&gt;#option([ns&#45;0]spying_middle, [ns&#45;0]continue_spying):#option([ns&#45;0]spying_middle, [ns&#45;0]continue_spying)</title>
<path fill="none" stroke="#ffaaaa" d="M100.845,-578.893C95.4774,-549.684 82.4725,-468.334 90,-401 91.9286,-383.748 97.2841,-363.916 100.144,-354.125"/>
</g>
<!-- #options_link(#option([ns&#45;0]start_spying, [ns&#45;0]spying_middle),#option([ns&#45;0]spying_middle, [ns&#45;0]continue_spying))&#45;&gt;#option([ns&#45;0]start_spying, [ns&#45;0]spying_middle) -->
<g id="edge17" class="edge"><title>#options_link(#option([ns&#45;0]start_spying, [ns&#45;0]spying_middle),#option([ns&#45;0]spying_middle, [ns&#45;0]continue_spying))&#45;&gt;#option([ns&#45;0]start_spying, [ns&#45;0]spying_middle):#option([ns&#45;0]start_spying, [ns&#45;0]spying_middle)</title>
<path fill="none" stroke="#ffaaaa" d="M111.583,-582.248C127.681,-567.708 162.539,-536.223 182.052,-518.598"/>
</g>
</g>
</svg>
