<?xml version="1.0" encoding="UTF-8" standalone="no"?>
<!DOCTYPE svg PUBLIC "-//W3C//DTD SVG 1.1//EN"
 "http://www.w3.org/Graphics/SVG/1.1/DTD/svg11.dtd">
<!-- Generated by graphviz version 2.34.0 (20130907.0221)
 -->
<!-- Title: quest Pages: 1 -->
<svg width="1630pt" height="403pt"
 viewBox="0.00 0.00 1630.00 403.00" xmlns="http://www.w3.org/2000/svg" xmlns:xlink="http://www.w3.org/1999/xlink">
<g id="graph0" class="graph" transform="scale(1 1) rotate(0) translate(4 399)">
<title>quest</title>
<polygon fill="white" stroke="white" points="-4,4 -4,-399 1626,-399 1626,4 -4,4"/>
<g id="clust1" class="cluster"><title>cluster_[ns&#45;0]open_up_variants</title>
<polygon fill="#ffffdd" stroke="black" points="1332,-8 1332,-299 1614,-299 1614,-8 1332,-8"/>
<text text-anchor="middle" x="1473" y="-283.8" font-family="Times,serif" font-size="14.00">[ns&#45;0]open_up_variants</text>
</g>
<!-- [ns&#45;0]start_spying -->
<g id="node1" class="node"><title>[ns&#45;0]start_spying</title>
<polygon fill="#ddddff" stroke="none" points="196.5,-225.5 196.5,-280.5 341.5,-280.5 341.5,-225.5 196.5,-225.5"/>
<text text-anchor="start" x="199" y="-270.5" font-family="Times,serif" font-style="italic" font-size="10.00">[ns&#45;0]start_spying</text>
<text text-anchor="start" x="199" y="-256" font-family="Times,serif" font-size="10.00">Прибытие в город цели</text>
<polygon fill="#ccccee" stroke="none" points="198,-239 198,-252 341,-252 341,-239 198,-239"/>
<text text-anchor="start" x="199" y="-244" font-family="Times,serif" font-size="10.00">hero </text>
<text text-anchor="start" x="220" y="-244" font-family="Times,serif" font-weight="bold" font-size="10.00">находится в</text>
<text text-anchor="start" x="275" y="-244" font-family="Times,serif" font-size="10.00"> place_3</text>
<polygon fill="#eeeeff" stroke="none" points="198,-226 198,-239 341,-239 341,-226 198,-226"/>
<text text-anchor="start" x="199" y="-231" font-family="Times,serif" font-weight="bold" font-size="10.00">сообщение:</text>
<text text-anchor="start" x="251" y="-231" font-family="Times,serif" font-size="10.00"> arrived_to_target</text>
<polygon fill="none" stroke="black" points="196.5,-225.5 196.5,-280.5 341.5,-280.5 341.5,-225.5 196.5,-225.5"/>
</g>
<!-- #option([ns&#45;0]start_spying, [ns&#45;0]spying_middle) -->
<g id="node11" class="node"><title>#option([ns&#45;0]start_spying, [ns&#45;0]spying_middle)</title>
<polygon fill="#ffffff" stroke="none" points="394,-317 394,-331 502,-331 502,-317 394,-317"/>
<text text-anchor="start" x="395" y="-321.5" font-family="Times,serif" font-size="10.00">spy</text>
<polygon fill="#eeeeee" stroke="none" points="394,-304 394,-317 502,-317 502,-304 394,-304"/>
<text text-anchor="start" x="395" y="-309" font-family="Times,serif" font-weight="bold" font-size="10.00">сообщение:</text>
<text text-anchor="start" x="447" y="-309" font-family="Times,serif" font-size="10.00"> start_spying</text>
</g>
<!-- [ns&#45;0]start_spying&#45;&gt;#option([ns&#45;0]start_spying, [ns&#45;0]spying_middle) -->
<g id="edge4" class="edge"><title>[ns&#45;0]start_spying:[ns&#45;0]start_spying&#45;&gt;#option([ns&#45;0]start_spying, [ns&#45;0]spying_middle):#option([ns&#45;0]start_spying, [ns&#45;0]spying_middle)</title>
<path fill="none" stroke="black" stroke-dasharray="1,5" d="M316,-280.82C316,-295.566 316,-310.667 316,-310.667 316,-310.667 357.476,-310.667 393.93,-310.667"/>
</g>
<!-- #option([ns&#45;0]start_spying, [ns&#45;0]open_up) -->
<g id="node14" class="node"><title>#option([ns&#45;0]start_spying, [ns&#45;0]open_up)</title>
<polygon fill="#ffffff" stroke="none" points="764,-222 764,-236 880,-236 880,-222 764,-222"/>
<text text-anchor="start" x="765" y="-226.5" font-family="Times,serif" font-size="10.00">open_up</text>
<polygon fill="#eeeeee" stroke="none" points="764,-209 764,-222 880,-222 880,-209 764,-209"/>
<text text-anchor="start" x="765" y="-214" font-family="Times,serif" font-weight="bold" font-size="10.00">сообщение:</text>
<text text-anchor="start" x="817" y="-214" font-family="Times,serif" font-size="10.00"> start_open_up</text>
</g>
<!-- [ns&#45;0]start_spying&#45;&gt;#option([ns&#45;0]start_spying, [ns&#45;0]open_up) -->
<g id="edge10" class="edge"><title>[ns&#45;0]start_spying:[ns&#45;0]start_spying&#45;&gt;#option([ns&#45;0]start_spying, [ns&#45;0]open_up):#option([ns&#45;0]start_spying, [ns&#45;0]open_up)</title>
<path fill="none" stroke="black" stroke-dasharray="1,5" d="M341.579,-228.167C452.491,-228.167 661.969,-228.167 763.668,-228.167"/>
</g>
<!-- [ns&#45;0]start -->
<g id="node2" class="node"><title>[ns&#45;0]start</title>
<polygon fill="#eeeeee" stroke="none" points="8.5,-219 8.5,-287 143.5,-287 143.5,-219 8.5,-219"/>
<text text-anchor="start" x="11" y="-277.5" font-family="Times,serif" font-style="italic" font-size="10.00">[ns&#45;0]start</text>
<text text-anchor="start" x="114" y="-277.5" font-family="Times,serif" font-weight="bold" font-size="10.00">spying</text>
<text text-anchor="start" x="11" y="-263" font-family="Times,serif" font-size="10.00">Начало: задание на шпионаж</text>
<polygon fill="#dddddd" stroke="none" points="10,-246 10,-259 143,-259 143,-246 10,-246"/>
<text text-anchor="start" x="11" y="-251" font-family="Times,serif" font-size="10.00">hero </text>
<text text-anchor="start" x="32" y="-251" font-family="Times,serif" font-weight="bold" font-size="10.00">находится в</text>
<text text-anchor="start" x="87" y="-251" font-family="Times,serif" font-size="10.00"> place_2</text>
<polygon fill="#dddddd" stroke="none" points="10,-233 10,-246 143,-246 143,-233 10,-233"/>
<text text-anchor="start" x="11" y="-238" font-family="Times,serif" font-size="10.00">person_3 </text>
<text text-anchor="start" x="51" y="-238" font-family="Times,serif" font-weight="bold" font-size="10.00">находится в</text>
<text text-anchor="start" x="106" y="-238" font-family="Times,serif" font-size="10.00"> place_3</text>
<polygon fill="#ffffff" stroke="none" points="10,-220 10,-233 143,-233 143,-220 10,-220"/>
<text text-anchor="start" x="11" y="-225" font-family="Times,serif" font-weight="bold" font-size="10.00">сообщение:</text>
<text text-anchor="start" x="63" y="-225" font-family="Times,serif" font-size="10.00"> intro</text>
<polygon fill="none" stroke="black" points="8.5,-219 8.5,-287 143.5,-287 143.5,-219 8.5,-219"/>
</g>
<!-- [ns&#45;0]start&#45;&gt;[ns&#45;0]start_spying -->
<g id="edge3" class="edge"><title>[ns&#45;0]start:[ns&#45;0]start&#45;&gt;[ns&#45;0]start_spying:[ns&#45;0]start_spying</title>
<path fill="none" stroke="black" d="M143.502,-253C143.502,-253 186.28,-253 186.28,-253"/>
<polygon fill="black" stroke="black" points="186.28,-256.5 196.28,-253 186.28,-249.5 186.28,-256.5"/>
</g>
<!-- [ns&#45;0]open_up_lying -->
<g id="node3" class="node"><title>[ns&#45;0]open_up_lying</title>
<polygon fill="#eeeeee" stroke="none" points="1348.5,-75.5 1348.5,-156.5 1597.5,-156.5 1597.5,-75.5 1348.5,-75.5"/>
<text text-anchor="start" x="1351" y="-146.5" font-family="Times,serif" font-style="italic" font-size="10.00">[ns&#45;0]open_up_lying</text>
<text text-anchor="start" x="1532" y="-146.5" font-family="Times,serif" font-weight="bold" font-size="10.00">open_up_lying</text>
<text text-anchor="start" x="1351" y="-132" font-family="Times,serif" font-size="10.00">Вернуться к заказчику и сообщить ложную информацию</text>
<polygon fill="#dddddd" stroke="none" points="1350,-115 1350,-128 1597,-128 1597,-115 1350,-115"/>
<text text-anchor="start" x="1351" y="-120" font-family="Times,serif" font-size="10.00">hero </text>
<text text-anchor="start" x="1372" y="-120" font-family="Times,serif" font-weight="bold" font-size="10.00">находится в</text>
<text text-anchor="start" x="1427" y="-120" font-family="Times,serif" font-size="10.00"> place_2</text>
<polygon fill="#ffffff" stroke="none" points="1350,-102 1350,-115 1597,-115 1597,-102 1350,-102"/>
<text text-anchor="start" x="1351" y="-107" font-family="Times,serif" font-weight="bold" font-size="10.00">сообщение:</text>
<text text-anchor="start" x="1403" y="-107" font-family="Times,serif" font-size="10.00"> open_up_lying</text>
<polygon fill="#ffffff" stroke="none" points="1350,-89 1350,-102 1597,-102 1597,-89 1350,-89"/>
<text text-anchor="start" x="1351" y="-94" font-family="Times,serif" font-weight="bold" font-size="10.00">увеличть влияние</text>
<text text-anchor="start" x="1431" y="-94" font-family="Times,serif" font-size="10.00">  person_2 </text>
<text text-anchor="start" x="1476" y="-94" font-family="Times,serif" font-weight="bold" font-size="10.00">на</text>
<text text-anchor="start" x="1487" y="-94" font-family="Times,serif" font-size="10.00"> &#45;1.00</text>
<polygon fill="#ffffff" stroke="none" points="1350,-76 1350,-89 1597,-89 1597,-76 1350,-76"/>
<text text-anchor="start" x="1351" y="-81" font-family="Times,serif" font-weight="bold" font-size="10.00">увеличть влияние</text>
<text text-anchor="start" x="1431" y="-81" font-family="Times,serif" font-size="10.00">  person_3 </text>
<text text-anchor="start" x="1476" y="-81" font-family="Times,serif" font-weight="bold" font-size="10.00">на</text>
<text text-anchor="start" x="1487" y="-81" font-family="Times,serif" font-size="10.00"> 1.00</text>
<polygon fill="none" stroke="black" points="1348.5,-75.5 1348.5,-156.5 1597.5,-156.5 1597.5,-75.5 1348.5,-75.5"/>
</g>
<!-- [ns&#45;0]open_up_finish -->
<g id="node4" class="node"><title>[ns&#45;0]open_up_finish</title>
<polygon fill="#eeeeee" stroke="none" points="1375.5,-182.5 1375.5,-263.5 1570.5,-263.5 1570.5,-182.5 1375.5,-182.5"/>
<text text-anchor="start" x="1378" y="-253.5" font-family="Times,serif" font-style="italic" font-size="10.00">[ns&#45;0]open_up_finish</text>
<text text-anchor="start" x="1504" y="-253.5" font-family="Times,serif" font-weight="bold" font-size="10.00">open_up_finish</text>
<text text-anchor="start" x="1378" y="-239" font-family="Times,serif" font-size="10.00">Завершить задание и остатсья в городе цели</text>
<polygon fill="#dddddd" stroke="none" points="1377,-222 1377,-235 1570,-235 1570,-222 1377,-222"/>
<text text-anchor="start" x="1378" y="-227" font-family="Times,serif" font-size="10.00">hero </text>
<text text-anchor="start" x="1399" y="-227" font-family="Times,serif" font-weight="bold" font-size="10.00">находится в</text>
<text text-anchor="start" x="1454" y="-227" font-family="Times,serif" font-size="10.00"> place_3</text>
<polygon fill="#ffffff" stroke="none" points="1377,-209 1377,-222 1570,-222 1570,-209 1377,-209"/>
<text text-anchor="start" x="1378" y="-214" font-family="Times,serif" font-weight="bold" font-size="10.00">сообщение:</text>
<text text-anchor="start" x="1430" y="-214" font-family="Times,serif" font-size="10.00"> open_up_finish</text>
<polygon fill="#ffffff" stroke="none" points="1377,-196 1377,-209 1570,-209 1570,-196 1377,-196"/>
<text text-anchor="start" x="1378" y="-201" font-family="Times,serif" font-weight="bold" font-size="10.00">увеличть влияние</text>
<text text-anchor="start" x="1458" y="-201" font-family="Times,serif" font-size="10.00">  person_2 </text>
<text text-anchor="start" x="1503" y="-201" font-family="Times,serif" font-weight="bold" font-size="10.00">на</text>
<text text-anchor="start" x="1514" y="-201" font-family="Times,serif" font-size="10.00"> &#45;1.00</text>
<polygon fill="#ffffff" stroke="none" points="1377,-183 1377,-196 1570,-196 1570,-183 1377,-183"/>
<text text-anchor="start" x="1378" y="-188" font-family="Times,serif" font-weight="bold" font-size="10.00">увеличть влияние</text>
<text text-anchor="start" x="1458" y="-188" font-family="Times,serif" font-size="10.00">  person_3 </text>
<text text-anchor="start" x="1503" y="-188" font-family="Times,serif" font-weight="bold" font-size="10.00">на</text>
<text text-anchor="start" x="1514" y="-188" font-family="Times,serif" font-size="10.00"> 1.00</text>
<polygon fill="none" stroke="black" points="1375.5,-182.5 1375.5,-263.5 1570.5,-263.5 1570.5,-182.5 1375.5,-182.5"/>
</g>
<!-- [ns&#45;0]report_data -->
<g id="node5" class="node"><title>[ns&#45;0]report_data</title>
<polygon fill="#eeeeee" stroke="none" points="1390.5,-310.5 1390.5,-391.5 1555.5,-391.5 1555.5,-310.5 1390.5,-310.5"/>
<text text-anchor="start" x="1393" y="-381.5" font-family="Times,serif" font-style="italic" font-size="10.00">[ns&#45;0]report_data</text>
<text text-anchor="start" x="1502" y="-381.5" font-family="Times,serif" font-weight="bold" font-size="10.00">report_data</text>
<text text-anchor="start" x="1393" y="-367" font-family="Times,serif" font-size="10.00">Сообщить сообранную информацию</text>
<polygon fill="#dddddd" stroke="none" points="1392,-350 1392,-363 1555,-363 1555,-350 1392,-350"/>
<text text-anchor="start" x="1393" y="-355" font-family="Times,serif" font-size="10.00">hero </text>
<text text-anchor="start" x="1414" y="-355" font-family="Times,serif" font-weight="bold" font-size="10.00">находится в</text>
<text text-anchor="start" x="1469" y="-355" font-family="Times,serif" font-size="10.00"> place_2</text>
<polygon fill="#ffffff" stroke="none" points="1392,-337 1392,-350 1555,-350 1555,-337 1392,-337"/>
<text text-anchor="start" x="1393" y="-342" font-family="Times,serif" font-weight="bold" font-size="10.00">сообщение:</text>
<text text-anchor="start" x="1445" y="-342" font-family="Times,serif" font-size="10.00"> report_data</text>
<polygon fill="#ffffff" stroke="none" points="1392,-324 1392,-337 1555,-337 1555,-324 1392,-324"/>
<text text-anchor="start" x="1393" y="-329" font-family="Times,serif" font-weight="bold" font-size="10.00">увеличть влияние</text>
<text text-anchor="start" x="1473" y="-329" font-family="Times,serif" font-size="10.00">  person_2 </text>
<text text-anchor="start" x="1518" y="-329" font-family="Times,serif" font-weight="bold" font-size="10.00">на</text>
<text text-anchor="start" x="1529" y="-329" font-family="Times,serif" font-size="10.00"> 1.00</text>
<polygon fill="#ffffff" stroke="none" points="1392,-311 1392,-324 1555,-324 1555,-311 1392,-311"/>
<text text-anchor="start" x="1393" y="-316" font-family="Times,serif" font-weight="bold" font-size="10.00">увеличть влияние</text>
<text text-anchor="start" x="1473" y="-316" font-family="Times,serif" font-size="10.00">  person_3 </text>
<text text-anchor="start" x="1518" y="-316" font-family="Times,serif" font-weight="bold" font-size="10.00">на</text>
<text text-anchor="start" x="1529" y="-316" font-family="Times,serif" font-size="10.00"> &#45;1.00</text>
<polygon fill="none" stroke="black" points="1390.5,-310.5 1390.5,-391.5 1555.5,-391.5 1555.5,-310.5 1390.5,-310.5"/>
</g>
<!-- [ns&#45;0]continue_spying -->
<g id="node6" class="node"><title>[ns&#45;0]continue_spying</title>
<polygon fill="#ddffdd" stroke="none" points="932,-317 932,-385 1098,-385 1098,-317 932,-317"/>
<text text-anchor="start" x="934" y="-375.5" font-family="Times,serif" font-style="italic" font-size="10.00">[ns&#45;0]continue_spying</text>
<text text-anchor="start" x="934" y="-361" font-family="Times,serif" font-size="10.00">Продолжить шпионаж</text>
<polygon fill="#cceecc" stroke="none" points="933,-344 933,-357 1097,-357 1097,-344 933,-344"/>
<text text-anchor="start" x="934" y="-349" font-family="Times,serif" font-size="10.00">hero </text>
<text text-anchor="start" x="955" y="-349" font-family="Times,serif" font-weight="bold" font-size="10.00">находится около</text>
<text text-anchor="start" x="1031" y="-349" font-family="Times,serif" font-size="10.00"> place_3</text>
<polygon fill="#eeffee" stroke="none" points="933,-331 933,-344 1097,-344 1097,-331 933,-331"/>
<text text-anchor="start" x="934" y="-336" font-family="Times,serif" font-size="10.00">hero </text>
<text text-anchor="start" x="955" y="-336" font-family="Times,serif" font-weight="bold" font-size="10.00">находится около</text>
<text text-anchor="start" x="1031" y="-336" font-family="Times,serif" font-size="10.00"> place_3</text>
<polygon fill="#eeffee" stroke="none" points="933,-318 933,-331 1097,-331 1097,-318 933,-318"/>
<text text-anchor="start" x="934" y="-323" font-family="Times,serif" font-weight="bold" font-size="10.00">сообщение:</text>
<text text-anchor="start" x="986" y="-323" font-family="Times,serif" font-size="10.00"> continue_spying</text>
<polygon fill="none" stroke="black" points="932,-317 932,-385 1098,-385 1098,-317 932,-317"/>
</g>
<!-- #jump([ns&#45;0]continue_spying, [ns&#45;0]report_data) -->
<g id="node15" class="node"><title>#jump([ns&#45;0]continue_spying, [ns&#45;0]report_data)</title>
<polygon fill="#eeeeee" stroke="none" points="1150,-344 1150,-358 1296,-358 1296,-344 1150,-344"/>
<text text-anchor="start" x="1151" y="-349.5" font-family="Times,serif" font-weight="bold" font-size="10.00">сообщение:</text>
<text text-anchor="start" x="1203" y="-349.5" font-family="Times,serif" font-size="10.00"> move_to_report_data</text>
</g>
<!-- [ns&#45;0]continue_spying&#45;&gt;#jump([ns&#45;0]continue_spying, [ns&#45;0]report_data) -->
<g id="edge12" class="edge"><title>[ns&#45;0]continue_spying:[ns&#45;0]continue_spying&#45;&gt;#jump([ns&#45;0]continue_spying, [ns&#45;0]report_data):#jump([ns&#45;0]continue_spying, [ns&#45;0]report_data)</title>
<path fill="none" stroke="black" d="M1098.1,-351C1115.19,-351 1133.06,-351 1149.77,-351"/>
</g>
<!-- [ns&#45;0]spying_middle -->
<g id="node7" class="node"><title>[ns&#45;0]spying_middle</title>
<polygon fill="#ddddff" stroke="none" points="554,-297 554,-339 712,-339 712,-297 554,-297"/>
<text text-anchor="start" x="556" y="-329.5" font-family="Times,serif" font-style="italic" font-size="10.00">[ns&#45;0]spying_middle</text>
<text text-anchor="start" x="556" y="-315" font-family="Times,serif" font-size="10.00">Шпионаж</text>
<polygon fill="#eeeeff" stroke="none" points="555,-298 555,-311 711,-311 711,-298 555,-298"/>
<text text-anchor="start" x="556" y="-303" font-family="Times,serif" font-size="10.00">hero </text>
<text text-anchor="start" x="577" y="-303" font-family="Times,serif" font-weight="bold" font-size="10.00">находится около</text>
<text text-anchor="start" x="653" y="-303" font-family="Times,serif" font-size="10.00"> place_3</text>
<polygon fill="none" stroke="black" points="554,-297 554,-339 712,-339 712,-297 554,-297"/>
</g>
<!-- #option([ns&#45;0]spying_middle, [ns&#45;0]continue_spying) -->
<g id="node10" class="node"><title>#option([ns&#45;0]spying_middle, [ns&#45;0]continue_spying)</title>
<polygon fill="#ffffff" stroke="none" points="813,-344 813,-358 831,-358 831,-344 813,-344"/>
<text text-anchor="start" x="814" y="-348.5" font-family="Times,serif" font-size="10.00">spy</text>
</g>
<!-- [ns&#45;0]spying_middle&#45;&gt;#option([ns&#45;0]spying_middle, [ns&#45;0]continue_spying) -->
<g id="edge1" class="edge"><title>[ns&#45;0]spying_middle:[ns&#45;0]spying_middle&#45;&gt;#option([ns&#45;0]spying_middle, [ns&#45;0]continue_spying):#option([ns&#45;0]spying_middle, [ns&#45;0]continue_spying)</title>
<path fill="none" stroke="black" stroke-dasharray="1,5" d="M712.058,-338C762.23,-338 818.372,-338 821.832,-338"/>
</g>
<!-- #option([ns&#45;0]spying_middle, [ns&#45;0]open_up) -->
<g id="node12" class="node"><title>#option([ns&#45;0]spying_middle, [ns&#45;0]open_up)</title>
<polygon fill="#ffffff" stroke="none" points="764,-276 764,-290 880,-290 880,-276 764,-276"/>
<text text-anchor="start" x="765" y="-280.5" font-family="Times,serif" font-size="10.00">open_up</text>
<polygon fill="#eeeeee" stroke="none" points="764,-263 764,-276 880,-276 880,-263 764,-263"/>
<text text-anchor="start" x="765" y="-268" font-family="Times,serif" font-weight="bold" font-size="10.00">сообщение:</text>
<text text-anchor="start" x="817" y="-268" font-family="Times,serif" font-size="10.00"> start_open_up</text>
</g>
<!-- [ns&#45;0]spying_middle&#45;&gt;#option([ns&#45;0]spying_middle, [ns&#45;0]open_up) -->
<g id="edge6" class="edge"><title>[ns&#45;0]spying_middle:[ns&#45;0]spying_middle&#45;&gt;#option([ns&#45;0]spying_middle, [ns&#45;0]open_up):#option([ns&#45;0]spying_middle, [ns&#45;0]open_up)</title>
<path fill="none" stroke="black" stroke-dasharray="1,5" d="M712.029,-300.875C745.101,-300.875 776,-300.875 776,-300.875 776,-300.875 776,-295.973 776,-290.611"/>
</g>
<!-- [ns&#45;0]open_up -->
<g id="node8" class="node"><title>[ns&#45;0]open_up</title>
<polygon fill="#ddffdd" stroke="none" points="953.5,-195.5 953.5,-250.5 1076.5,-250.5 1076.5,-195.5 953.5,-195.5"/>
<text text-anchor="start" x="956" y="-240.5" font-family="Times,serif" font-style="italic" font-size="10.00">[ns&#45;0]open_up</text>
<text text-anchor="start" x="956" y="-226" font-family="Times,serif" font-size="10.00">Раскрыться</text>
<polygon fill="#cceecc" stroke="none" points="955,-209 955,-222 1076,-222 1076,-209 955,-209"/>
<text text-anchor="start" x="956" y="-214" font-family="Times,serif" font-size="10.00">hero </text>
<text text-anchor="start" x="977" y="-214" font-family="Times,serif" font-weight="bold" font-size="10.00">находится в</text>
<text text-anchor="start" x="1032" y="-214" font-family="Times,serif" font-size="10.00"> place_3</text>
<polygon fill="#eeffee" stroke="none" points="955,-196 955,-209 1076,-209 1076,-196 955,-196"/>
<text text-anchor="start" x="956" y="-201" font-family="Times,serif" font-weight="bold" font-size="10.00">сообщение:</text>
<text text-anchor="start" x="1008" y="-201" font-family="Times,serif" font-size="10.00"> open_up</text>
<polygon fill="none" stroke="black" points="953.5,-195.5 953.5,-250.5 1076.5,-250.5 1076.5,-195.5 953.5,-195.5"/>
</g>
<!-- [ns&#45;0]open_up&#45;&gt;[ns&#45;0]open_up_finish -->
<g id="edge14" class="edge"><title>[ns&#45;0]open_up:[ns&#45;0]open_up&#45;&gt;[ns&#45;0]open_up_finish:[ns&#45;0]open_up_finish</title>
<path fill="none" stroke="black" d="M1076.77,-223C1076.77,-223 1365.46,-223 1365.46,-223"/>
<polygon fill="black" stroke="black" points="1365.46,-226.5 1375.46,-223 1365.46,-219.5 1365.46,-226.5"/>
</g>
<!-- #jump([ns&#45;0]open_up, [ns&#45;0]open_up_lying) -->
<g id="node13" class="node"><title>#jump([ns&#45;0]open_up, [ns&#45;0]open_up_lying)</title>
<polygon fill="#eeeeee" stroke="none" points="1154,-140 1154,-154 1293,-154 1293,-140 1154,-140"/>
<text text-anchor="start" x="1155" y="-145.5" font-family="Times,serif" font-weight="bold" font-size="10.00">сообщение:</text>
<text text-anchor="start" x="1207" y="-145.5" font-family="Times,serif" font-size="10.00"> move_to_report_lie</text>
</g>
<!-- [ns&#45;0]open_up&#45;&gt;#jump([ns&#45;0]open_up, [ns&#45;0]open_up_lying) -->
<g id="edge8" class="edge"><title>[ns&#45;0]open_up:[ns&#45;0]open_up&#45;&gt;#jump([ns&#45;0]open_up, [ns&#45;0]open_up_lying):#jump([ns&#45;0]open_up, [ns&#45;0]open_up_lying)</title>
<path fill="none" stroke="black" d="M1015,-195.132C1015,-173.442 1015,-147 1015,-147 1015,-147 1092.98,-147 1153.45,-147"/>
</g>
<!-- [ns&#45;0]open_up_variants -->
<g id="node9" class="node"><title>[ns&#45;0]open_up_variants</title>
<polygon fill="#eeeecc" stroke="none" points="1385.5,-20.5 1385.5,-49.5 1560.5,-49.5 1560.5,-20.5 1385.5,-20.5"/>
<text text-anchor="start" x="1388" y="-39.5" font-family="Times,serif" font-style="italic" font-size="10.00">[ns&#45;0]open_up_variants</text>
<text text-anchor="start" x="1388" y="-25" font-family="Times,serif" font-size="10.00">Варианты окончания раскрытия</text>
<polygon fill="none" stroke="black" points="1385.5,-20.5 1385.5,-49.5 1560.5,-49.5 1560.5,-20.5 1385.5,-20.5"/>
</g>
<!-- #option([ns&#45;0]spying_middle, [ns&#45;0]continue_spying)&#45;&gt;[ns&#45;0]continue_spying -->
<g id="edge2" class="edge"><title>#option([ns&#45;0]spying_middle, [ns&#45;0]continue_spying):#option([ns&#45;0]spying_middle, [ns&#45;0]continue_spying)&#45;&gt;[ns&#45;0]continue_spying:[ns&#45;0]continue_spying</title>
<path fill="none" stroke="black" stroke-dasharray="1,5" d="M831.05,-351C831.05,-351 921.997,-351 921.997,-351"/>
<polygon fill="black" stroke="black" points="921.997,-354.5 931.997,-351 921.997,-347.5 921.997,-354.5"/>
</g>
<!-- #option([ns&#45;0]start_spying, [ns&#45;0]spying_middle)&#45;&gt;[ns&#45;0]spying_middle -->
<g id="edge5" class="edge"><title>#option([ns&#45;0]start_spying, [ns&#45;0]spying_middle):#option([ns&#45;0]start_spying, [ns&#45;0]spying_middle)&#45;&gt;[ns&#45;0]spying_middle:[ns&#45;0]spying_middle</title>
<path fill="none" stroke="black" stroke-dasharray="1,5" d="M502.007,-318C502.007,-318 543.831,-318 543.831,-318"/>
<polygon fill="black" stroke="black" points="543.831,-321.5 553.831,-318 543.831,-314.5 543.831,-321.5"/>
</g>
<!-- #option([ns&#45;0]spying_middle, [ns&#45;0]open_up)&#45;&gt;[ns&#45;0]open_up -->
<g id="edge7" class="edge"><title>#option([ns&#45;0]spying_middle, [ns&#45;0]open_up):#option([ns&#45;0]spying_middle, [ns&#45;0]open_up)&#45;&gt;[ns&#45;0]open_up:[ns&#45;0]open_up</title>
<path fill="none" stroke="black" stroke-dasharray="1,5" d="M822.14,-263.125C827.984,-263.125 1015,-263.125 1015,-263.125 1015,-263.125 1015,-260.868 1015,-260.868"/>
<polygon fill="black" stroke="black" points="1018.5,-260.868 1015,-250.868 1011.5,-260.868 1018.5,-260.868"/>
</g>
<!-- #jump([ns&#45;0]open_up, [ns&#45;0]open_up_lying)&#45;&gt;[ns&#45;0]open_up_lying -->
<g id="edge9" class="edge"><title>#jump([ns&#45;0]open_up, [ns&#45;0]open_up_lying):#jump([ns&#45;0]open_up, [ns&#45;0]open_up_lying)&#45;&gt;[ns&#45;0]open_up_lying:[ns&#45;0]open_up_lying</title>
<path fill="none" stroke="black" d="M1292.64,-144.625C1292.64,-144.625 1338.21,-144.625 1338.21,-144.625"/>
<polygon fill="black" stroke="black" points="1338.21,-148.125 1348.21,-144.625 1338.21,-141.125 1338.21,-148.125"/>
</g>
<!-- #option([ns&#45;0]start_spying, [ns&#45;0]open_up)&#45;&gt;[ns&#45;0]open_up -->
<g id="edge11" class="edge"><title>#option([ns&#45;0]start_spying, [ns&#45;0]open_up):#option([ns&#45;0]start_spying, [ns&#45;0]open_up)&#45;&gt;[ns&#45;0]open_up:[ns&#45;0]open_up</title>
<path fill="none" stroke="black" stroke-dasharray="1,5" d="M880.168,-223C880.168,-223 943.262,-223 943.262,-223"/>
<polygon fill="black" stroke="black" points="943.262,-226.5 953.262,-223 943.262,-219.5 943.262,-226.5"/>
</g>
<!-- #jump([ns&#45;0]continue_spying, [ns&#45;0]report_data)&#45;&gt;[ns&#45;0]report_data -->
<g id="edge13" class="edge"><title>#jump([ns&#45;0]continue_spying, [ns&#45;0]report_data):#jump([ns&#45;0]continue_spying, [ns&#45;0]report_data)&#45;&gt;[ns&#45;0]report_data:[ns&#45;0]report_data</title>
<path fill="none" stroke="black" d="M1296.32,-351C1296.32,-351 1380.47,-351 1380.47,-351"/>
<polygon fill="black" stroke="black" points="1380.47,-354.5 1390.47,-351 1380.47,-347.5 1380.47,-354.5"/>
</g>
<!-- #options_link(#option([ns&#45;0]start_spying, [ns&#45;0]open_up),#option([ns&#45;0]spying_middle, [ns&#45;0]open_up)) -->
<g id="node16" class="node"><title>#options_link(#option([ns&#45;0]start_spying, [ns&#45;0]open_up),#option([ns&#45;0]spying_middle, [ns&#45;0]open_up))</title>
<ellipse fill="#ffaaaa" stroke="black" cx="633" cy="-263" rx="12" ry="12"/>
<text text-anchor="middle" x="633" y="-260.5" font-family="Times,serif" font-size="10.00">link</text>
</g>
<!-- #options_link(#option([ns&#45;0]start_spying, [ns&#45;0]open_up),#option([ns&#45;0]spying_middle, [ns&#45;0]open_up))&#45;&gt;#option([ns&#45;0]spying_middle, [ns&#45;0]open_up) -->
<g id="edge16" class="edge"><title>#options_link(#option([ns&#45;0]start_spying, [ns&#45;0]open_up),#option([ns&#45;0]spying_middle, [ns&#45;0]open_up))&#45;&gt;#option([ns&#45;0]spying_middle, [ns&#45;0]open_up):#option([ns&#45;0]spying_middle, [ns&#45;0]open_up)</title>
<path fill="none" stroke="#ffaaaa" d="M644.538,-267C667.781,-267 721.626,-267 763.951,-267"/>
</g>
<!-- #options_link(#option([ns&#45;0]start_spying, [ns&#45;0]open_up),#option([ns&#45;0]spying_middle, [ns&#45;0]open_up))&#45;&gt;#option([ns&#45;0]start_spying, [ns&#45;0]open_up) -->
<g id="edge15" class="edge"><title>#options_link(#option([ns&#45;0]start_spying, [ns&#45;0]open_up),#option([ns&#45;0]spying_middle, [ns&#45;0]open_up))&#45;&gt;#option([ns&#45;0]start_spying, [ns&#45;0]open_up):#option([ns&#45;0]start_spying, [ns&#45;0]open_up)</title>
<path fill="none" stroke="#ffaaaa" d="M633,-250.784C633,-243.082 633,-234.583 633,-234.583 633,-234.583 708.219,-234.583 763.752,-234.583"/>
</g>
<!-- #options_link(#option([ns&#45;0]start_spying, [ns&#45;0]spying_middle),#option([ns&#45;0]spying_middle, [ns&#45;0]continue_spying)) -->
<g id="node17" class="node"><title>#options_link(#option([ns&#45;0]start_spying, [ns&#45;0]spying_middle),#option([ns&#45;0]spying_middle, [ns&#45;0]continue_spying))</title>
<ellipse fill="#ffaaaa" stroke="black" cx="269" cy="-344" rx="12" ry="12"/>
<text text-anchor="middle" x="269" y="-341.5" font-family="Times,serif" font-size="10.00">link</text>
</g>
<!-- #options_link(#option([ns&#45;0]start_spying, [ns&#45;0]spying_middle),#option([ns&#45;0]spying_middle, [ns&#45;0]continue_spying))&#45;&gt;#option([ns&#45;0]spying_middle, [ns&#45;0]continue_spying) -->
<g id="edge18" class="edge"><title>#options_link(#option([ns&#45;0]start_spying, [ns&#45;0]spying_middle),#option([ns&#45;0]spying_middle, [ns&#45;0]continue_spying))&#45;&gt;#option([ns&#45;0]spying_middle, [ns&#45;0]continue_spying):#option([ns&#45;0]spying_middle, [ns&#45;0]continue_spying)</title>
<path fill="none" stroke="#ffaaaa" d="M280.046,-349.5C351.44,-349.5 746.783,-349.5 812.685,-349.5"/>
</g>
<!-- #options_link(#option([ns&#45;0]start_spying, [ns&#45;0]spying_middle),#option([ns&#45;0]spying_middle, [ns&#45;0]continue_spying))&#45;&gt;#option([ns&#45;0]start_spying, [ns&#45;0]spying_middle) -->
<g id="edge17" class="edge"><title>#options_link(#option([ns&#45;0]start_spying, [ns&#45;0]spying_middle),#option([ns&#45;0]spying_middle, [ns&#45;0]continue_spying))&#45;&gt;#option([ns&#45;0]start_spying, [ns&#45;0]spying_middle):#option([ns&#45;0]start_spying, [ns&#45;0]spying_middle)</title>
<path fill="none" stroke="#ffaaaa" d="M269,-331.87C269,-326.481 269,-321.333 269,-321.333 269,-321.333 341.124,-321.333 393.808,-321.333"/>
</g>
</g>
</svg>
