<?xml version="1.0" encoding="UTF-8" standalone="no"?>
<!DOCTYPE svg PUBLIC "-//W3C//DTD SVG 1.1//EN"
 "http://www.w3.org/Graphics/SVG/1.1/DTD/svg11.dtd">
<!-- Generated by graphviz version 2.34.0 (20130907.0221)
 -->
<!-- Title: quest Pages: 1 -->
<svg width="1093pt" height="769pt"
 viewBox="0.00 0.00 1093.00 769.00" xmlns="http://www.w3.org/2000/svg" xmlns:xlink="http://www.w3.org/1999/xlink">
<g id="graph0" class="graph" transform="scale(1 1) rotate(0) translate(4 765)">
<title>quest</title>
<polygon fill="white" stroke="white" points="-4,4 -4,-765 1089,-765 1089,4 -4,4"/>
<g id="clust1" class="cluster"><title>cluster_[ns&#45;0]open_up_variants</title>
<polygon fill="#ffffdd" stroke="black" points="309,-8 309,-175 1077,-175 1077,-8 309,-8"/>
<text text-anchor="middle" x="693" y="-159.8" font-family="Times,serif" font-size="14.00">cluster_[ns&#45;0]open_up_variants</text>
</g>
<!-- [ns&#45;0]open_up_finish -->
<g id="node1" class="node"><title>[ns&#45;0]open_up_finish</title>
<polygon fill="#eeeeee" stroke="none" points="325,-20 325,-140 649,-140 649,-20 325,-20"/>
<text text-anchor="start" x="327" y="-130.5" font-family="Times,serif" font-style="italic" font-size="10.00">[ns&#45;0]open_up_finish</text>
<text text-anchor="start" x="327" y="-116" font-family="Times,serif" font-size="10.00">Завершить задание и остатсья в городе цели</text>
<polygon fill="#dddddd" stroke="none" points="326,-99 326,-112 648,-112 648,-99 326,-99"/>
<text text-anchor="start" x="327" y="-104" font-family="Times,serif" font-size="10.00">hero </text>
<text text-anchor="start" x="348" y="-104" font-family="Times,serif" font-weight="bold" font-size="10.00">находится в</text>
<text text-anchor="start" x="403" y="-104" font-family="Times,serif" font-size="10.00"> place_2</text>
<polygon fill="#ffffff" stroke="none" points="326,-86 326,-99 648,-99 648,-86 326,-86"/>
<text text-anchor="start" x="327" y="-91" font-family="Times,serif" font-weight="bold" font-size="10.00">выдать награду </text>
<text text-anchor="start" x="402" y="-91" font-family="Times,serif" font-size="10.00">  hero </text>
<text text-anchor="start" x="427" y="-91" font-family="Times,serif" font-weight="bold" font-size="10.00">типа </text>
<text text-anchor="start" x="451" y="-91" font-family="Times,serif" font-size="10.00"> open_up_finish </text>
<text text-anchor="start" x="521" y="-91" font-family="Times,serif" font-weight="bold" font-size="10.00">в размере</text>
<text text-anchor="start" x="564" y="-91" font-family="Times,serif" font-size="10.00"> 1.00</text>
<polygon fill="#ffffff" stroke="none" points="326,-73 326,-86 648,-86 648,-73 326,-73"/>
<text text-anchor="start" x="327" y="-78" font-family="Times,serif" font-weight="bold" font-size="10.00">увеличить влияние </text>
<text text-anchor="start" x="415" y="-78" font-family="Times,serif" font-size="10.00">  person_1 </text>
<text text-anchor="start" x="460" y="-78" font-family="Times,serif" font-weight="bold" font-size="10.00">на </text>
<text text-anchor="start" x="473" y="-78" font-family="Times,serif" font-size="10.00"> &#45;1.00</text>
<polygon fill="#ffffff" stroke="none" points="326,-60 326,-73 648,-73 648,-60 326,-60"/>
<text text-anchor="start" x="327" y="-65" font-family="Times,serif" font-weight="bold" font-size="10.00">увеличить влияние </text>
<text text-anchor="start" x="415" y="-65" font-family="Times,serif" font-size="10.00">  person_2 </text>
<text text-anchor="start" x="460" y="-65" font-family="Times,serif" font-weight="bold" font-size="10.00">на </text>
<text text-anchor="start" x="473" y="-65" font-family="Times,serif" font-size="10.00"> 1.00</text>
<polygon fill="#eeeeee" stroke="none" points="326,-47 326,-60 648,-60 648,-47 326,-47"/>
<text text-anchor="start" x="327" y="-52" font-family="Times,serif" font-weight="bold" font-size="10.00">результаты:</text>
<text text-anchor="start" x="327" y="-39" font-family="Times,serif" font-weight="bold" font-size="10.00">person_1</text>
<text text-anchor="start" x="519" y="-38" font-family="Times,serif" font-size="10.00">failed</text>
<text text-anchor="start" x="327" y="-26" font-family="Times,serif" font-weight="bold" font-size="10.00">person_2</text>
<text text-anchor="start" x="519" y="-25" font-family="Times,serif" font-size="10.00">successed</text>
<polygon fill="none" stroke="black" points="325,-20 325,-140 649,-140 649,-20 325,-20"/>
</g>
<!-- [ns&#45;0]start_spying -->
<g id="node2" class="node"><title>[ns&#45;0]start_spying</title>
<polygon fill="#ddddff" stroke="none" points="317.5,-589.5 317.5,-644.5 486.5,-644.5 486.5,-589.5 317.5,-589.5"/>
<text text-anchor="start" x="320" y="-634.5" font-family="Times,serif" font-style="italic" font-size="10.00">[ns&#45;0]start_spying</text>
<text text-anchor="start" x="320" y="-620" font-family="Times,serif" font-size="10.00">Прибытие в город цели</text>
<polygon fill="#ccccee" stroke="none" points="319,-603 319,-616 486,-616 486,-603 319,-603"/>
<text text-anchor="start" x="320" y="-608" font-family="Times,serif" font-size="10.00">hero </text>
<text text-anchor="start" x="341" y="-608" font-family="Times,serif" font-weight="bold" font-size="10.00">находится в</text>
<text text-anchor="start" x="396" y="-608" font-family="Times,serif" font-size="10.00"> place_2</text>
<polygon fill="#eeeeff" stroke="none" points="319,-590 319,-603 486,-603 486,-590 319,-590"/>
<text text-anchor="start" x="320" y="-595" font-family="Times,serif" font-weight="bold" font-size="10.00">сообщение:</text>
<text text-anchor="start" x="372" y="-595" font-family="Times,serif" font-size="10.00"> arrived_to_target</text>
<polygon fill="none" stroke="black" points="317.5,-589.5 317.5,-644.5 486.5,-644.5 486.5,-589.5 317.5,-589.5"/>
</g>
<!-- #option([ns&#45;0]start_spying, [ns&#45;0]spying_middle) -->
<g id="node10" class="node"><title>#option([ns&#45;0]start_spying, [ns&#45;0]spying_middle)</title>
<polygon fill="#ffffff" stroke="none" points="287,-530 287,-544 395,-544 395,-530 287,-530"/>
<text text-anchor="start" x="288" y="-534.5" font-family="Times,serif" font-size="10.00">spy</text>
<polygon fill="#eeeeee" stroke="none" points="287,-517 287,-530 395,-530 395,-517 287,-517"/>
<text text-anchor="start" x="288" y="-522" font-family="Times,serif" font-weight="bold" font-size="10.00">сообщение:</text>
<text text-anchor="start" x="340" y="-522" font-family="Times,serif" font-size="10.00"> start_spying</text>
</g>
<!-- [ns&#45;0]start_spying&#45;&gt;#option([ns&#45;0]start_spying, [ns&#45;0]spying_middle) -->
<g id="edge5" class="edge"><title>[ns&#45;0]start_spying:[ns&#45;0]start_spying&#45;&gt;#option([ns&#45;0]start_spying, [ns&#45;0]spying_middle):#option([ns&#45;0]start_spying, [ns&#45;0]spying_middle)</title>
<path fill="none" stroke="black" stroke-dasharray="1,5" d="M382.699,-589.422C371.809,-574.426 358.707,-556.383 350.132,-544.576"/>
</g>
<!-- #option([ns&#45;0]start_spying, [ns&#45;0]open_up) -->
<g id="node14" class="node"><title>#option([ns&#45;0]start_spying, [ns&#45;0]open_up)</title>
<polygon fill="#ffffff" stroke="none" points="429,-530 429,-544 545,-544 545,-530 429,-530"/>
<text text-anchor="start" x="430" y="-534.5" font-family="Times,serif" font-size="10.00">open_up</text>
<polygon fill="#eeeeee" stroke="none" points="429,-517 429,-530 545,-530 545,-517 429,-517"/>
<text text-anchor="start" x="430" y="-522" font-family="Times,serif" font-weight="bold" font-size="10.00">сообщение:</text>
<text text-anchor="start" x="482" y="-522" font-family="Times,serif" font-size="10.00"> start_open_up</text>
</g>
<!-- [ns&#45;0]start_spying&#45;&gt;#option([ns&#45;0]start_spying, [ns&#45;0]open_up) -->
<g id="edge13" class="edge"><title>[ns&#45;0]start_spying:[ns&#45;0]start_spying&#45;&gt;#option([ns&#45;0]start_spying, [ns&#45;0]open_up):#option([ns&#45;0]start_spying, [ns&#45;0]open_up)</title>
<path fill="none" stroke="black" stroke-dasharray="1,5" d="M428.895,-589.422C444.069,-574.426 462.327,-556.383 474.275,-544.576"/>
</g>
<!-- [ns&#45;0]start -->
<g id="node3" class="node"><title>[ns&#45;0]start</title>
<polygon fill="#eeeeee" stroke="none" points="334.5,-689 334.5,-757 469.5,-757 469.5,-689 334.5,-689"/>
<text text-anchor="start" x="337" y="-747.5" font-family="Times,serif" font-style="italic" font-size="10.00">[ns&#45;0]start</text>
<text text-anchor="start" x="422" y="-747.5" font-family="Times,serif" font-weight="bold" font-size="10.00">spying</text>
<text text-anchor="start" x="337" y="-733" font-family="Times,serif" font-size="10.00">Начало: задание на шпионаж</text>
<polygon fill="#dddddd" stroke="none" points="336,-716 336,-729 469,-729 469,-716 336,-716"/>
<text text-anchor="start" x="337" y="-721" font-family="Times,serif" font-size="10.00">hero </text>
<text text-anchor="start" x="358" y="-721" font-family="Times,serif" font-weight="bold" font-size="10.00">находится в</text>
<text text-anchor="start" x="413" y="-721" font-family="Times,serif" font-size="10.00"> place_1</text>
<polygon fill="#dddddd" stroke="none" points="336,-703 336,-716 469,-716 469,-703 336,-703"/>
<text text-anchor="start" x="337" y="-708" font-family="Times,serif" font-size="10.00">person_2 </text>
<text text-anchor="start" x="377" y="-708" font-family="Times,serif" font-weight="bold" font-size="10.00">находится в</text>
<text text-anchor="start" x="432" y="-708" font-family="Times,serif" font-size="10.00"> place_2</text>
<polygon fill="#ffffff" stroke="none" points="336,-690 336,-703 469,-703 469,-690 336,-690"/>
<text text-anchor="start" x="337" y="-695" font-family="Times,serif" font-weight="bold" font-size="10.00">сообщение:</text>
<text text-anchor="start" x="389" y="-695" font-family="Times,serif" font-size="10.00"> intro</text>
<polygon fill="none" stroke="black" points="334.5,-689 334.5,-757 469.5,-757 469.5,-689 334.5,-689"/>
</g>
<!-- [ns&#45;0]start&#45;&gt;[ns&#45;0]start_spying -->
<g id="edge4" class="edge"><title>[ns&#45;0]start:[ns&#45;0]start&#45;&gt;[ns&#45;0]start_spying:[ns&#45;0]start_spying</title>
<path fill="none" stroke="black" d="M402,-688.808C402,-677.996 402,-665.931 402,-654.867"/>
<polygon fill="black" stroke="black" points="405.5,-654.639 402,-644.639 398.5,-654.639 405.5,-654.639"/>
</g>
<!-- [ns&#45;0]open_up_lying -->
<g id="node4" class="node"><title>[ns&#45;0]open_up_lying</title>
<polygon fill="#eeeeee" stroke="none" points="683.5,-20 683.5,-140 1060.5,-140 1060.5,-20 683.5,-20"/>
<text text-anchor="start" x="686" y="-130.5" font-family="Times,serif" font-style="italic" font-size="10.00">[ns&#45;0]open_up_lying</text>
<text text-anchor="start" x="686" y="-116" font-family="Times,serif" font-size="10.00">Вернуться к заказчику и сообщить ложную информацию</text>
<polygon fill="#dddddd" stroke="none" points="685,-99 685,-112 1060,-112 1060,-99 685,-99"/>
<text text-anchor="start" x="686" y="-104" font-family="Times,serif" font-size="10.00">hero </text>
<text text-anchor="start" x="707" y="-104" font-family="Times,serif" font-weight="bold" font-size="10.00">находится в</text>
<text text-anchor="start" x="762" y="-104" font-family="Times,serif" font-size="10.00"> place_1</text>
<polygon fill="#ffffff" stroke="none" points="685,-86 685,-99 1060,-99 1060,-86 685,-86"/>
<text text-anchor="start" x="686" y="-91" font-family="Times,serif" font-weight="bold" font-size="10.00">выдать награду </text>
<text text-anchor="start" x="761" y="-91" font-family="Times,serif" font-size="10.00">  hero </text>
<text text-anchor="start" x="786" y="-91" font-family="Times,serif" font-weight="bold" font-size="10.00">типа </text>
<text text-anchor="start" x="810" y="-91" font-family="Times,serif" font-size="10.00"> open_up_lying </text>
<text text-anchor="start" x="878" y="-91" font-family="Times,serif" font-weight="bold" font-size="10.00">в размере</text>
<text text-anchor="start" x="921" y="-91" font-family="Times,serif" font-size="10.00"> 1.50</text>
<polygon fill="#ffffff" stroke="none" points="685,-73 685,-86 1060,-86 1060,-73 685,-73"/>
<text text-anchor="start" x="686" y="-78" font-family="Times,serif" font-weight="bold" font-size="10.00">увеличить влияние </text>
<text text-anchor="start" x="774" y="-78" font-family="Times,serif" font-size="10.00">  person_1 </text>
<text text-anchor="start" x="819" y="-78" font-family="Times,serif" font-weight="bold" font-size="10.00">на </text>
<text text-anchor="start" x="832" y="-78" font-family="Times,serif" font-size="10.00"> &#45;1.50</text>
<polygon fill="#ffffff" stroke="none" points="685,-60 685,-73 1060,-73 1060,-60 685,-60"/>
<text text-anchor="start" x="686" y="-65" font-family="Times,serif" font-weight="bold" font-size="10.00">увеличить влияние </text>
<text text-anchor="start" x="774" y="-65" font-family="Times,serif" font-size="10.00">  person_2 </text>
<text text-anchor="start" x="819" y="-65" font-family="Times,serif" font-weight="bold" font-size="10.00">на </text>
<text text-anchor="start" x="832" y="-65" font-family="Times,serif" font-size="10.00"> 1.50</text>
<polygon fill="#eeeeee" stroke="none" points="685,-47 685,-60 1060,-60 1060,-47 685,-47"/>
<text text-anchor="start" x="686" y="-52" font-family="Times,serif" font-weight="bold" font-size="10.00">результаты:</text>
<text text-anchor="start" x="686" y="-39" font-family="Times,serif" font-weight="bold" font-size="10.00">person_1</text>
<text text-anchor="start" x="932" y="-38" font-family="Times,serif" font-size="10.00">failed</text>
<text text-anchor="start" x="686" y="-26" font-family="Times,serif" font-weight="bold" font-size="10.00">person_2</text>
<text text-anchor="start" x="932" y="-25" font-family="Times,serif" font-size="10.00">successed</text>
<polygon fill="none" stroke="black" points="683.5,-20 683.5,-140 1060.5,-140 1060.5,-20 683.5,-20"/>
</g>
<!-- [ns&#45;0]report_data -->
<g id="node5" class="node"><title>[ns&#45;0]report_data</title>
<polygon fill="#eeeeee" stroke="none" points="7.5,-20 7.5,-140 290.5,-140 290.5,-20 7.5,-20"/>
<text text-anchor="start" x="10" y="-130.5" font-family="Times,serif" font-style="italic" font-size="10.00">[ns&#45;0]report_data</text>
<text text-anchor="start" x="10" y="-116" font-family="Times,serif" font-size="10.00">Сообщить сообранную информацию</text>
<polygon fill="#dddddd" stroke="none" points="9,-99 9,-112 290,-112 290,-99 9,-99"/>
<text text-anchor="start" x="10" y="-104" font-family="Times,serif" font-size="10.00">hero </text>
<text text-anchor="start" x="31" y="-104" font-family="Times,serif" font-weight="bold" font-size="10.00">находится в</text>
<text text-anchor="start" x="86" y="-104" font-family="Times,serif" font-size="10.00"> place_1</text>
<polygon fill="#ffffff" stroke="none" points="9,-86 9,-99 290,-99 290,-86 9,-86"/>
<text text-anchor="start" x="10" y="-91" font-family="Times,serif" font-weight="bold" font-size="10.00">выдать награду </text>
<text text-anchor="start" x="85" y="-91" font-family="Times,serif" font-size="10.00">  hero </text>
<text text-anchor="start" x="110" y="-91" font-family="Times,serif" font-weight="bold" font-size="10.00">типа </text>
<text text-anchor="start" x="134" y="-91" font-family="Times,serif" font-size="10.00"> report_data </text>
<text text-anchor="start" x="186" y="-91" font-family="Times,serif" font-weight="bold" font-size="10.00">в размере</text>
<text text-anchor="start" x="229" y="-91" font-family="Times,serif" font-size="10.00"> 1.00</text>
<polygon fill="#ffffff" stroke="none" points="9,-73 9,-86 290,-86 290,-73 9,-73"/>
<text text-anchor="start" x="10" y="-78" font-family="Times,serif" font-weight="bold" font-size="10.00">увеличить влияние </text>
<text text-anchor="start" x="98" y="-78" font-family="Times,serif" font-size="10.00">  person_1 </text>
<text text-anchor="start" x="143" y="-78" font-family="Times,serif" font-weight="bold" font-size="10.00">на </text>
<text text-anchor="start" x="156" y="-78" font-family="Times,serif" font-size="10.00"> 1.00</text>
<polygon fill="#ffffff" stroke="none" points="9,-60 9,-73 290,-73 290,-60 9,-60"/>
<text text-anchor="start" x="10" y="-65" font-family="Times,serif" font-weight="bold" font-size="10.00">увеличить влияние </text>
<text text-anchor="start" x="98" y="-65" font-family="Times,serif" font-size="10.00">  person_2 </text>
<text text-anchor="start" x="143" y="-65" font-family="Times,serif" font-weight="bold" font-size="10.00">на </text>
<text text-anchor="start" x="156" y="-65" font-family="Times,serif" font-size="10.00"> &#45;1.00</text>
<polygon fill="#eeeeee" stroke="none" points="9,-47 9,-60 290,-60 290,-47 9,-47"/>
<text text-anchor="start" x="10" y="-52" font-family="Times,serif" font-weight="bold" font-size="10.00">результаты:</text>
<text text-anchor="start" x="10" y="-39" font-family="Times,serif" font-weight="bold" font-size="10.00">person_1</text>
<text text-anchor="start" x="170" y="-38" font-family="Times,serif" font-size="10.00">successed</text>
<text text-anchor="start" x="10" y="-26" font-family="Times,serif" font-weight="bold" font-size="10.00">person_2</text>
<text text-anchor="start" x="170" y="-25" font-family="Times,serif" font-size="10.00">failed</text>
<polygon fill="none" stroke="black" points="7.5,-20 7.5,-140 290.5,-140 290.5,-20 7.5,-20"/>
</g>
<!-- [ns&#45;0]continue_spying -->
<g id="node6" class="node"><title>[ns&#45;0]continue_spying</title>
<polygon fill="#ddffdd" stroke="none" points="104.5,-259.5 104.5,-314.5 293.5,-314.5 293.5,-259.5 104.5,-259.5"/>
<text text-anchor="start" x="107" y="-304.5" font-family="Times,serif" font-style="italic" font-size="10.00">[ns&#45;0]continue_spying</text>
<text text-anchor="start" x="107" y="-290" font-family="Times,serif" font-size="10.00">Продолжить шпионаж</text>
<polygon fill="#eeffee" stroke="none" points="106,-273 106,-286 293,-286 293,-273 106,-273"/>
<text text-anchor="start" x="107" y="-278" font-family="Times,serif" font-weight="bold" font-size="10.00">отправить </text>
<text text-anchor="start" x="157" y="-278" font-family="Times,serif" font-size="10.00"> hero</text>
<text text-anchor="start" x="178" y="-278" font-family="Times,serif" font-weight="bold" font-size="10.00">бродить около</text>
<text text-anchor="start" x="244" y="-278" font-family="Times,serif" font-size="10.00"> place_2</text>
<polygon fill="#eeffee" stroke="none" points="106,-260 106,-273 293,-273 293,-260 106,-260"/>
<text text-anchor="start" x="107" y="-265" font-family="Times,serif" font-weight="bold" font-size="10.00">сообщение:</text>
<text text-anchor="start" x="159" y="-265" font-family="Times,serif" font-size="10.00"> continue_spying</text>
<polygon fill="none" stroke="black" points="104.5,-259.5 104.5,-314.5 293.5,-314.5 293.5,-259.5 104.5,-259.5"/>
</g>
<!-- #jump([ns&#45;0]continue_spying, [ns&#45;0]report_data) -->
<g id="node13" class="node"><title>#jump([ns&#45;0]continue_spying, [ns&#45;0]report_data)</title>
<polygon fill="#eeeeee" stroke="none" points="93,-194 93,-208 239,-208 239,-194 93,-194"/>
<text text-anchor="start" x="94" y="-199.5" font-family="Times,serif" font-weight="bold" font-size="10.00">сообщение:</text>
<text text-anchor="start" x="146" y="-199.5" font-family="Times,serif" font-size="10.00"> move_to_report_data</text>
</g>
<!-- [ns&#45;0]continue_spying&#45;&gt;#jump([ns&#45;0]continue_spying, [ns&#45;0]report_data) -->
<g id="edge11" class="edge"><title>[ns&#45;0]continue_spying:[ns&#45;0]continue_spying&#45;&gt;#jump([ns&#45;0]continue_spying, [ns&#45;0]report_data):#jump([ns&#45;0]continue_spying, [ns&#45;0]report_data)</title>
<path fill="none" stroke="black" d="M188.559,-259.422C181.459,-241.349 172.621,-218.853 168.427,-208.177"/>
</g>
<!-- [ns&#45;0]spying_middle -->
<g id="node7" class="node"><title>[ns&#45;0]spying_middle</title>
<polygon fill="#ddddff" stroke="none" points="252,-431 252,-473 430,-473 430,-431 252,-431"/>
<text text-anchor="start" x="254" y="-463.5" font-family="Times,serif" font-style="italic" font-size="10.00">[ns&#45;0]spying_middle</text>
<text text-anchor="start" x="254" y="-449" font-family="Times,serif" font-size="10.00">Шпионаж</text>
<polygon fill="#eeeeff" stroke="none" points="253,-432 253,-445 429,-445 429,-432 253,-432"/>
<text text-anchor="start" x="254" y="-437" font-family="Times,serif" font-weight="bold" font-size="10.00">отправить </text>
<text text-anchor="start" x="304" y="-437" font-family="Times,serif" font-size="10.00"> hero</text>
<text text-anchor="start" x="325" y="-437" font-family="Times,serif" font-weight="bold" font-size="10.00">бродить около</text>
<text text-anchor="start" x="391" y="-437" font-family="Times,serif" font-size="10.00"> place_2</text>
<polygon fill="none" stroke="black" points="252,-431 252,-473 430,-473 430,-431 252,-431"/>
</g>
<!-- #option([ns&#45;0]spying_middle, [ns&#45;0]continue_spying) -->
<g id="node9" class="node"><title>#option([ns&#45;0]spying_middle, [ns&#45;0]continue_spying)</title>
<polygon fill="#ffffff" stroke="none" points="207,-366 207,-380 225,-380 225,-366 207,-366"/>
<text text-anchor="start" x="208" y="-370.5" font-family="Times,serif" font-size="10.00">spy</text>
</g>
<!-- [ns&#45;0]spying_middle&#45;&gt;#option([ns&#45;0]spying_middle, [ns&#45;0]continue_spying) -->
<g id="edge2" class="edge"><title>[ns&#45;0]spying_middle:[ns&#45;0]spying_middle&#45;&gt;#option([ns&#45;0]spying_middle, [ns&#45;0]continue_spying):#option([ns&#45;0]spying_middle, [ns&#45;0]continue_spying)</title>
<path fill="none" stroke="black" stroke-dasharray="1,5" d="M308.484,-430.97C280.706,-413.859 242.573,-390.369 225.242,-379.693"/>
</g>
<!-- #option([ns&#45;0]spying_middle, [ns&#45;0]open_up) -->
<g id="node11" class="node"><title>#option([ns&#45;0]spying_middle, [ns&#45;0]open_up)</title>
<polygon fill="#ffffff" stroke="none" points="309,-372 309,-386 425,-386 425,-372 309,-372"/>
<text text-anchor="start" x="310" y="-376.5" font-family="Times,serif" font-size="10.00">open_up</text>
<polygon fill="#eeeeee" stroke="none" points="309,-359 309,-372 425,-372 425,-359 309,-359"/>
<text text-anchor="start" x="310" y="-364" font-family="Times,serif" font-weight="bold" font-size="10.00">сообщение:</text>
<text text-anchor="start" x="362" y="-364" font-family="Times,serif" font-size="10.00"> start_open_up</text>
</g>
<!-- [ns&#45;0]spying_middle&#45;&gt;#option([ns&#45;0]spying_middle, [ns&#45;0]open_up) -->
<g id="edge7" class="edge"><title>[ns&#45;0]spying_middle:[ns&#45;0]spying_middle&#45;&gt;#option([ns&#45;0]spying_middle, [ns&#45;0]open_up):#option([ns&#45;0]spying_middle, [ns&#45;0]open_up)</title>
<path fill="none" stroke="black" stroke-dasharray="1,5" d="M347.831,-430.769C352.525,-416.867 358.617,-398.828 362.659,-386.856"/>
</g>
<!-- [ns&#45;0]open_up -->
<g id="node8" class="node"><title>[ns&#45;0]open_up</title>
<polygon fill="#ddffdd" stroke="none" points="425.5,-259.5 425.5,-314.5 548.5,-314.5 548.5,-259.5 425.5,-259.5"/>
<text text-anchor="start" x="428" y="-304.5" font-family="Times,serif" font-style="italic" font-size="10.00">[ns&#45;0]open_up</text>
<text text-anchor="start" x="428" y="-290" font-family="Times,serif" font-size="10.00">Раскрыться</text>
<polygon fill="#cceecc" stroke="none" points="427,-273 427,-286 548,-286 548,-273 427,-273"/>
<text text-anchor="start" x="428" y="-278" font-family="Times,serif" font-size="10.00">hero </text>
<text text-anchor="start" x="449" y="-278" font-family="Times,serif" font-weight="bold" font-size="10.00">находится в</text>
<text text-anchor="start" x="504" y="-278" font-family="Times,serif" font-size="10.00"> place_2</text>
<polygon fill="#eeffee" stroke="none" points="427,-260 427,-273 548,-273 548,-260 427,-260"/>
<text text-anchor="start" x="428" y="-265" font-family="Times,serif" font-weight="bold" font-size="10.00">сообщение:</text>
<text text-anchor="start" x="480" y="-265" font-family="Times,serif" font-size="10.00"> open_up</text>
<polygon fill="none" stroke="black" points="425.5,-259.5 425.5,-314.5 548.5,-314.5 548.5,-259.5 425.5,-259.5"/>
</g>
<!-- [ns&#45;0]open_up&#45;&gt;[ns&#45;0]open_up_finish -->
<g id="edge1" class="edge"><title>[ns&#45;0]open_up:[ns&#45;0]open_up&#45;&gt;[ns&#45;0]open_up_finish:[ns&#45;0]open_up_finish</title>
<path fill="none" stroke="black" d="M487,-259.2C487,-231.72 487,-187.84 487,-150.5"/>
<polygon fill="black" stroke="black" points="490.5,-150.161 487,-140.161 483.5,-150.161 490.5,-150.161"/>
</g>
<!-- #jump([ns&#45;0]open_up, [ns&#45;0]open_up_lying) -->
<g id="node12" class="node"><title>#jump([ns&#45;0]open_up, [ns&#45;0]open_up_lying)</title>
<polygon fill="#eeeeee" stroke="none" points="663,-194 663,-208 802,-208 802,-194 663,-194"/>
<text text-anchor="start" x="664" y="-199.5" font-family="Times,serif" font-weight="bold" font-size="10.00">сообщение:</text>
<text text-anchor="start" x="716" y="-199.5" font-family="Times,serif" font-size="10.00"> move_to_report_lie</text>
</g>
<!-- [ns&#45;0]open_up&#45;&gt;#jump([ns&#45;0]open_up, [ns&#45;0]open_up_lying) -->
<g id="edge9" class="edge"><title>[ns&#45;0]open_up:[ns&#45;0]open_up&#45;&gt;#jump([ns&#45;0]open_up, [ns&#45;0]open_up_lying):#jump([ns&#45;0]open_up, [ns&#45;0]open_up_lying)</title>
<path fill="none" stroke="black" d="M548.508,-264.912C603.363,-246.104 680.126,-219.785 714.338,-208.055"/>
</g>
<!-- #option([ns&#45;0]spying_middle, [ns&#45;0]continue_spying)&#45;&gt;[ns&#45;0]continue_spying -->
<g id="edge3" class="edge"><title>#option([ns&#45;0]spying_middle, [ns&#45;0]continue_spying):#option([ns&#45;0]spying_middle, [ns&#45;0]continue_spying)&#45;&gt;[ns&#45;0]continue_spying:[ns&#45;0]continue_spying</title>
<path fill="none" stroke="black" stroke-dasharray="1,5" d="M214.777,-365.959C213.016,-357.257 209.626,-340.504 206.438,-324.752"/>
<polygon fill="black" stroke="black" points="209.805,-323.746 204.391,-314.639 202.945,-325.135 209.805,-323.746"/>
</g>
<!-- #option([ns&#45;0]start_spying, [ns&#45;0]spying_middle)&#45;&gt;[ns&#45;0]spying_middle -->
<g id="edge6" class="edge"><title>#option([ns&#45;0]start_spying, [ns&#45;0]spying_middle):#option([ns&#45;0]start_spying, [ns&#45;0]spying_middle)&#45;&gt;[ns&#45;0]spying_middle:[ns&#45;0]spying_middle</title>
<path fill="none" stroke="black" stroke-dasharray="1,5" d="M341,-517.285C341,-508.035 341,-495.108 341,-483.271"/>
<polygon fill="black" stroke="black" points="344.5,-483.269 341,-473.269 337.5,-483.269 344.5,-483.269"/>
</g>
<!-- #option([ns&#45;0]spying_middle, [ns&#45;0]open_up)&#45;&gt;[ns&#45;0]open_up -->
<g id="edge8" class="edge"><title>#option([ns&#45;0]spying_middle, [ns&#45;0]open_up):#option([ns&#45;0]spying_middle, [ns&#45;0]open_up)&#45;&gt;[ns&#45;0]open_up:[ns&#45;0]open_up</title>
<path fill="none" stroke="black" stroke-dasharray="1,5" d="M384.965,-359.424C399.725,-349.092 421.306,-333.986 440.823,-320.324"/>
<polygon fill="black" stroke="black" points="442.85,-323.177 449.035,-314.575 438.836,-317.443 442.85,-323.177"/>
</g>
<!-- #jump([ns&#45;0]open_up, [ns&#45;0]open_up_lying)&#45;&gt;[ns&#45;0]open_up_lying -->
<g id="edge10" class="edge"><title>#jump([ns&#45;0]open_up, [ns&#45;0]open_up_lying):#jump([ns&#45;0]open_up, [ns&#45;0]open_up_lying)&#45;&gt;[ns&#45;0]open_up_lying:[ns&#45;0]open_up_lying</title>
<path fill="none" stroke="black" d="M739.135,-193.935C749.999,-184.701 771.854,-166.124 794.754,-146.659"/>
<polygon fill="black" stroke="black" points="797.194,-149.179 802.546,-140.036 792.66,-143.845 797.194,-149.179"/>
</g>
<!-- #jump([ns&#45;0]continue_spying, [ns&#45;0]report_data)&#45;&gt;[ns&#45;0]report_data -->
<g id="edge12" class="edge"><title>#jump([ns&#45;0]continue_spying, [ns&#45;0]report_data):#jump([ns&#45;0]continue_spying, [ns&#45;0]report_data)&#45;&gt;[ns&#45;0]report_data:[ns&#45;0]report_data</title>
<path fill="none" stroke="black" d="M165.134,-193.935C163.889,-185.223 161.456,-168.195 158.85,-149.949"/>
<polygon fill="black" stroke="black" points="162.313,-149.44 157.434,-140.036 155.383,-150.43 162.313,-149.44"/>
</g>
<!-- #option([ns&#45;0]start_spying, [ns&#45;0]open_up)&#45;&gt;[ns&#45;0]open_up -->
<g id="edge14" class="edge"><title>#option([ns&#45;0]start_spying, [ns&#45;0]open_up):#option([ns&#45;0]start_spying, [ns&#45;0]open_up)&#45;&gt;[ns&#45;0]open_up:[ns&#45;0]open_up</title>
<path fill="none" stroke="black" stroke-dasharray="1,5" d="M487,-517.33C487,-481.789 487,-380.15 487,-324.876"/>
<polygon fill="black" stroke="black" points="490.5,-324.796 487,-314.797 483.5,-324.797 490.5,-324.796"/>
</g>
<!-- #options_link(#option([ns&#45;0]start_spying, [ns&#45;0]spying_middle),#option([ns&#45;0]spying_middle, [ns&#45;0]continue_spying)) -->
<g id="node15" class="node"><title>#options_link(#option([ns&#45;0]start_spying, [ns&#45;0]spying_middle),#option([ns&#45;0]spying_middle, [ns&#45;0]continue_spying))</title>
<ellipse fill="#ffaaaa" stroke="black" cx="248" cy="-617" rx="12" ry="12"/>
<text text-anchor="middle" x="248" y="-614.5" font-family="Times,serif" font-size="10.00">link</text>
</g>
<!-- #options_link(#option([ns&#45;0]start_spying, [ns&#45;0]spying_middle),#option([ns&#45;0]spying_middle, [ns&#45;0]continue_spying))&#45;&gt;#option([ns&#45;0]spying_middle, [ns&#45;0]continue_spying) -->
<g id="edge16" class="edge"><title>#options_link(#option([ns&#45;0]start_spying, [ns&#45;0]spying_middle),#option([ns&#45;0]spying_middle, [ns&#45;0]continue_spying))&#45;&gt;#option([ns&#45;0]spying_middle, [ns&#45;0]continue_spying):#option([ns&#45;0]spying_middle, [ns&#45;0]continue_spying)</title>
<path fill="none" stroke="#ffaaaa" d="M246.542,-604.973C240.966,-562.809 221.096,-412.539 216.816,-380.172"/>
</g>
<!-- #options_link(#option([ns&#45;0]start_spying, [ns&#45;0]spying_middle),#option([ns&#45;0]spying_middle, [ns&#45;0]continue_spying))&#45;&gt;#option([ns&#45;0]start_spying, [ns&#45;0]spying_middle) -->
<g id="edge15" class="edge"><title>#options_link(#option([ns&#45;0]start_spying, [ns&#45;0]spying_middle),#option([ns&#45;0]spying_middle, [ns&#45;0]continue_spying))&#45;&gt;#option([ns&#45;0]start_spying, [ns&#45;0]spying_middle):#option([ns&#45;0]start_spying, [ns&#45;0]spying_middle)</title>
<path fill="none" stroke="#ffaaaa" d="M256.583,-608.248C272.681,-593.708 307.539,-562.223 327.052,-544.598"/>
</g>
</g>
</svg>
