<?xml version="1.0" encoding="UTF-8" standalone="no"?>
<!DOCTYPE svg PUBLIC "-//W3C//DTD SVG 1.1//EN"
 "http://www.w3.org/Graphics/SVG/1.1/DTD/svg11.dtd">
<!-- Generated by graphviz version 2.34.0 (20130907.0221)
 -->
<!-- Title: quest Pages: 1 -->
<svg width="1670pt" height="403pt"
 viewBox="0.00 0.00 1670.00 403.00" xmlns="http://www.w3.org/2000/svg" xmlns:xlink="http://www.w3.org/1999/xlink">
<g id="graph0" class="graph" transform="scale(1 1) rotate(0) translate(4 399)">
<title>quest</title>
<polygon fill="white" stroke="white" points="-4,4 -4,-399 1666,-399 1666,4 -4,4"/>
<g id="clust1" class="cluster"><title>cluster_[ns&#45;0]open_up_variants</title>
<polygon fill="#ffffdd" stroke="black" points="1372,-8 1372,-299 1654,-299 1654,-8 1372,-8"/>
<text text-anchor="middle" x="1513" y="-283.8" font-family="Times,serif" font-size="14.00">[ns&#45;0]open_up_variants</text>
</g>
<!-- [ns&#45;0]open_up_finish -->
<g id="node1" class="node"><title>[ns&#45;0]open_up_finish</title>
<polygon fill="#eeeeee" stroke="none" points="1415.5,-182.5 1415.5,-263.5 1610.5,-263.5 1610.5,-182.5 1415.5,-182.5"/>
<text text-anchor="start" x="1418" y="-253.5" font-family="Times,serif" font-style="italic" font-size="10.00">[ns&#45;0]open_up_finish</text>
<text text-anchor="start" x="1544" y="-253.5" font-family="Times,serif" font-weight="bold" font-size="10.00">open_up_finish</text>
<text text-anchor="start" x="1418" y="-239" font-family="Times,serif" font-size="10.00">Завершить задание и остатсья в городе цели</text>
<polygon fill="#dddddd" stroke="none" points="1417,-222 1417,-235 1610,-235 1610,-222 1417,-222"/>
<text text-anchor="start" x="1418" y="-227" font-family="Times,serif" font-size="10.00">hero </text>
<text text-anchor="start" x="1439" y="-227" font-family="Times,serif" font-weight="bold" font-size="10.00">находится в</text>
<text text-anchor="start" x="1494" y="-227" font-family="Times,serif" font-size="10.00"> place_3</text>
<polygon fill="#ffffff" stroke="none" points="1417,-209 1417,-222 1610,-222 1610,-209 1417,-209"/>
<text text-anchor="start" x="1418" y="-214" font-family="Times,serif" font-weight="bold" font-size="10.00">сообщение:</text>
<text text-anchor="start" x="1470" y="-214" font-family="Times,serif" font-size="10.00"> open_up_finish</text>
<polygon fill="#ffffff" stroke="none" points="1417,-196 1417,-209 1610,-209 1610,-196 1417,-196"/>
<text text-anchor="start" x="1418" y="-201" font-family="Times,serif" font-weight="bold" font-size="10.00">увеличить влияние </text>
<text text-anchor="start" x="1506" y="-201" font-family="Times,serif" font-size="10.00">  person_1 </text>
<text text-anchor="start" x="1551" y="-201" font-family="Times,serif" font-weight="bold" font-size="10.00">на </text>
<text text-anchor="start" x="1564" y="-201" font-family="Times,serif" font-size="10.00"> &#45;1.00</text>
<polygon fill="#ffffff" stroke="none" points="1417,-183 1417,-196 1610,-196 1610,-183 1417,-183"/>
<text text-anchor="start" x="1418" y="-188" font-family="Times,serif" font-weight="bold" font-size="10.00">увеличить влияние </text>
<text text-anchor="start" x="1506" y="-188" font-family="Times,serif" font-size="10.00">  person_3 </text>
<text text-anchor="start" x="1551" y="-188" font-family="Times,serif" font-weight="bold" font-size="10.00">на </text>
<text text-anchor="start" x="1564" y="-188" font-family="Times,serif" font-size="10.00"> 1.00</text>
<polygon fill="none" stroke="black" points="1415.5,-182.5 1415.5,-263.5 1610.5,-263.5 1610.5,-182.5 1415.5,-182.5"/>
</g>
<!-- [ns&#45;0]start_spying -->
<g id="node2" class="node"><title>[ns&#45;0]start_spying</title>
<polygon fill="#ddddff" stroke="none" points="196.5,-225.5 196.5,-280.5 341.5,-280.5 341.5,-225.5 196.5,-225.5"/>
<text text-anchor="start" x="199" y="-270.5" font-family="Times,serif" font-style="italic" font-size="10.00">[ns&#45;0]start_spying</text>
<text text-anchor="start" x="199" y="-256" font-family="Times,serif" font-size="10.00">Прибытие в город цели</text>
<polygon fill="#ccccee" stroke="none" points="198,-239 198,-252 341,-252 341,-239 198,-239"/>
<text text-anchor="start" x="199" y="-244" font-family="Times,serif" font-size="10.00">hero </text>
<text text-anchor="start" x="220" y="-244" font-family="Times,serif" font-weight="bold" font-size="10.00">находится в</text>
<text text-anchor="start" x="275" y="-244" font-family="Times,serif" font-size="10.00"> place_3</text>
<polygon fill="#eeeeff" stroke="none" points="198,-226 198,-239 341,-239 341,-226 198,-226"/>
<text text-anchor="start" x="199" y="-231" font-family="Times,serif" font-weight="bold" font-size="10.00">сообщение:</text>
<text text-anchor="start" x="251" y="-231" font-family="Times,serif" font-size="10.00"> arrived_to_target</text>
<polygon fill="none" stroke="black" points="196.5,-225.5 196.5,-280.5 341.5,-280.5 341.5,-225.5 196.5,-225.5"/>
</g>
<!-- #option([ns&#45;0]start_spying, [ns&#45;0]spying_middle) -->
<g id="node11" class="node"><title>#option([ns&#45;0]start_spying, [ns&#45;0]spying_middle)</title>
<polygon fill="#ffffff" stroke="none" points="394,-317 394,-331 502,-331 502,-317 394,-317"/>
<text text-anchor="start" x="395" y="-321.5" font-family="Times,serif" font-size="10.00">spy</text>
<polygon fill="#eeeeee" stroke="none" points="394,-304 394,-317 502,-317 502,-304 394,-304"/>
<text text-anchor="start" x="395" y="-309" font-family="Times,serif" font-weight="bold" font-size="10.00">сообщение:</text>
<text text-anchor="start" x="447" y="-309" font-family="Times,serif" font-size="10.00"> start_spying</text>
</g>
<!-- [ns&#45;0]start_spying&#45;&gt;#option([ns&#45;0]start_spying, [ns&#45;0]spying_middle) -->
<g id="edge4" class="edge"><title>[ns&#45;0]start_spying:[ns&#45;0]start_spying&#45;&gt;#option([ns&#45;0]start_spying, [ns&#45;0]spying_middle):#option([ns&#45;0]start_spying, [ns&#45;0]spying_middle)</title>
<path fill="none" stroke="black" stroke-dasharray="1,5" d="M316,-280.82C316,-295.566 316,-310.667 316,-310.667 316,-310.667 357.476,-310.667 393.93,-310.667"/>
</g>
<!-- #option([ns&#45;0]start_spying, [ns&#45;0]open_up) -->
<g id="node14" class="node"><title>#option([ns&#45;0]start_spying, [ns&#45;0]open_up)</title>
<polygon fill="#ffffff" stroke="none" points="784,-222 784,-236 900,-236 900,-222 784,-222"/>
<text text-anchor="start" x="785" y="-226.5" font-family="Times,serif" font-size="10.00">open_up</text>
<polygon fill="#eeeeee" stroke="none" points="784,-209 784,-222 900,-222 900,-209 784,-209"/>
<text text-anchor="start" x="785" y="-214" font-family="Times,serif" font-weight="bold" font-size="10.00">сообщение:</text>
<text text-anchor="start" x="837" y="-214" font-family="Times,serif" font-size="10.00"> start_open_up</text>
</g>
<!-- [ns&#45;0]start_spying&#45;&gt;#option([ns&#45;0]start_spying, [ns&#45;0]open_up) -->
<g id="edge10" class="edge"><title>[ns&#45;0]start_spying:[ns&#45;0]start_spying&#45;&gt;#option([ns&#45;0]start_spying, [ns&#45;0]open_up):#option([ns&#45;0]start_spying, [ns&#45;0]open_up)</title>
<path fill="none" stroke="black" stroke-dasharray="1,5" d="M341.571,-228.167C456.608,-228.167 678.555,-228.167 783.846,-228.167"/>
</g>
<!-- [ns&#45;0]start -->
<g id="node3" class="node"><title>[ns&#45;0]start</title>
<polygon fill="#eeeeee" stroke="none" points="8.5,-219 8.5,-287 143.5,-287 143.5,-219 8.5,-219"/>
<text text-anchor="start" x="11" y="-277.5" font-family="Times,serif" font-style="italic" font-size="10.00">[ns&#45;0]start</text>
<text text-anchor="start" x="114" y="-277.5" font-family="Times,serif" font-weight="bold" font-size="10.00">spying</text>
<text text-anchor="start" x="11" y="-263" font-family="Times,serif" font-size="10.00">Начало: задание на шпионаж</text>
<polygon fill="#dddddd" stroke="none" points="10,-246 10,-259 143,-259 143,-246 10,-246"/>
<text text-anchor="start" x="11" y="-251" font-family="Times,serif" font-size="10.00">hero </text>
<text text-anchor="start" x="32" y="-251" font-family="Times,serif" font-weight="bold" font-size="10.00">находится в</text>
<text text-anchor="start" x="87" y="-251" font-family="Times,serif" font-size="10.00"> place_1</text>
<polygon fill="#dddddd" stroke="none" points="10,-233 10,-246 143,-246 143,-233 10,-233"/>
<text text-anchor="start" x="11" y="-238" font-family="Times,serif" font-size="10.00">person_3 </text>
<text text-anchor="start" x="51" y="-238" font-family="Times,serif" font-weight="bold" font-size="10.00">находится в</text>
<text text-anchor="start" x="106" y="-238" font-family="Times,serif" font-size="10.00"> place_3</text>
<polygon fill="#ffffff" stroke="none" points="10,-220 10,-233 143,-233 143,-220 10,-220"/>
<text text-anchor="start" x="11" y="-225" font-family="Times,serif" font-weight="bold" font-size="10.00">сообщение:</text>
<text text-anchor="start" x="63" y="-225" font-family="Times,serif" font-size="10.00"> intro</text>
<polygon fill="none" stroke="black" points="8.5,-219 8.5,-287 143.5,-287 143.5,-219 8.5,-219"/>
</g>
<!-- [ns&#45;0]start&#45;&gt;[ns&#45;0]start_spying -->
<g id="edge3" class="edge"><title>[ns&#45;0]start:[ns&#45;0]start&#45;&gt;[ns&#45;0]start_spying:[ns&#45;0]start_spying</title>
<path fill="none" stroke="black" d="M143.502,-253C143.502,-253 186.28,-253 186.28,-253"/>
<polygon fill="black" stroke="black" points="186.28,-256.5 196.28,-253 186.28,-249.5 186.28,-256.5"/>
</g>
<!-- [ns&#45;0]open_up_lying -->
<g id="node4" class="node"><title>[ns&#45;0]open_up_lying</title>
<polygon fill="#eeeeee" stroke="none" points="1388.5,-75.5 1388.5,-156.5 1637.5,-156.5 1637.5,-75.5 1388.5,-75.5"/>
<text text-anchor="start" x="1391" y="-146.5" font-family="Times,serif" font-style="italic" font-size="10.00">[ns&#45;0]open_up_lying</text>
<text text-anchor="start" x="1572" y="-146.5" font-family="Times,serif" font-weight="bold" font-size="10.00">open_up_lying</text>
<text text-anchor="start" x="1391" y="-132" font-family="Times,serif" font-size="10.00">Вернуться к заказчику и сообщить ложную информацию</text>
<polygon fill="#dddddd" stroke="none" points="1390,-115 1390,-128 1637,-128 1637,-115 1390,-115"/>
<text text-anchor="start" x="1391" y="-120" font-family="Times,serif" font-size="10.00">hero </text>
<text text-anchor="start" x="1412" y="-120" font-family="Times,serif" font-weight="bold" font-size="10.00">находится в</text>
<text text-anchor="start" x="1467" y="-120" font-family="Times,serif" font-size="10.00"> place_1</text>
<polygon fill="#ffffff" stroke="none" points="1390,-102 1390,-115 1637,-115 1637,-102 1390,-102"/>
<text text-anchor="start" x="1391" y="-107" font-family="Times,serif" font-weight="bold" font-size="10.00">сообщение:</text>
<text text-anchor="start" x="1443" y="-107" font-family="Times,serif" font-size="10.00"> open_up_lying</text>
<polygon fill="#ffffff" stroke="none" points="1390,-89 1390,-102 1637,-102 1637,-89 1390,-89"/>
<text text-anchor="start" x="1391" y="-94" font-family="Times,serif" font-weight="bold" font-size="10.00">увеличить влияние </text>
<text text-anchor="start" x="1479" y="-94" font-family="Times,serif" font-size="10.00">  person_1 </text>
<text text-anchor="start" x="1524" y="-94" font-family="Times,serif" font-weight="bold" font-size="10.00">на </text>
<text text-anchor="start" x="1537" y="-94" font-family="Times,serif" font-size="10.00"> &#45;1.00</text>
<polygon fill="#ffffff" stroke="none" points="1390,-76 1390,-89 1637,-89 1637,-76 1390,-76"/>
<text text-anchor="start" x="1391" y="-81" font-family="Times,serif" font-weight="bold" font-size="10.00">увеличить влияние </text>
<text text-anchor="start" x="1479" y="-81" font-family="Times,serif" font-size="10.00">  person_3 </text>
<text text-anchor="start" x="1524" y="-81" font-family="Times,serif" font-weight="bold" font-size="10.00">на </text>
<text text-anchor="start" x="1537" y="-81" font-family="Times,serif" font-size="10.00"> 1.00</text>
<polygon fill="none" stroke="black" points="1388.5,-75.5 1388.5,-156.5 1637.5,-156.5 1637.5,-75.5 1388.5,-75.5"/>
</g>
<!-- [ns&#45;0]report_data -->
<g id="node5" class="node"><title>[ns&#45;0]report_data</title>
<polygon fill="#eeeeee" stroke="none" points="1425.5,-310.5 1425.5,-391.5 1600.5,-391.5 1600.5,-310.5 1425.5,-310.5"/>
<text text-anchor="start" x="1428" y="-381.5" font-family="Times,serif" font-style="italic" font-size="10.00">[ns&#45;0]report_data</text>
<text text-anchor="start" x="1547" y="-381.5" font-family="Times,serif" font-weight="bold" font-size="10.00">report_data</text>
<text text-anchor="start" x="1428" y="-367" font-family="Times,serif" font-size="10.00">Сообщить сообранную информацию</text>
<polygon fill="#dddddd" stroke="none" points="1427,-350 1427,-363 1600,-363 1600,-350 1427,-350"/>
<text text-anchor="start" x="1428" y="-355" font-family="Times,serif" font-size="10.00">hero </text>
<text text-anchor="start" x="1449" y="-355" font-family="Times,serif" font-weight="bold" font-size="10.00">находится в</text>
<text text-anchor="start" x="1504" y="-355" font-family="Times,serif" font-size="10.00"> place_1</text>
<polygon fill="#ffffff" stroke="none" points="1427,-337 1427,-350 1600,-350 1600,-337 1427,-337"/>
<text text-anchor="start" x="1428" y="-342" font-family="Times,serif" font-weight="bold" font-size="10.00">сообщение:</text>
<text text-anchor="start" x="1480" y="-342" font-family="Times,serif" font-size="10.00"> report_data</text>
<polygon fill="#ffffff" stroke="none" points="1427,-324 1427,-337 1600,-337 1600,-324 1427,-324"/>
<text text-anchor="start" x="1428" y="-329" font-family="Times,serif" font-weight="bold" font-size="10.00">увеличить влияние </text>
<text text-anchor="start" x="1516" y="-329" font-family="Times,serif" font-size="10.00">  person_1 </text>
<text text-anchor="start" x="1561" y="-329" font-family="Times,serif" font-weight="bold" font-size="10.00">на </text>
<text text-anchor="start" x="1574" y="-329" font-family="Times,serif" font-size="10.00"> 1.00</text>
<polygon fill="#ffffff" stroke="none" points="1427,-311 1427,-324 1600,-324 1600,-311 1427,-311"/>
<text text-anchor="start" x="1428" y="-316" font-family="Times,serif" font-weight="bold" font-size="10.00">увеличить влияние </text>
<text text-anchor="start" x="1516" y="-316" font-family="Times,serif" font-size="10.00">  person_3 </text>
<text text-anchor="start" x="1561" y="-316" font-family="Times,serif" font-weight="bold" font-size="10.00">на </text>
<text text-anchor="start" x="1574" y="-316" font-family="Times,serif" font-size="10.00"> &#45;1.00</text>
<polygon fill="none" stroke="black" points="1425.5,-310.5 1425.5,-391.5 1600.5,-391.5 1600.5,-310.5 1425.5,-310.5"/>
</g>
<!-- [ns&#45;0]continue_spying -->
<g id="node6" class="node"><title>[ns&#45;0]continue_spying</title>
<polygon fill="#ddffdd" stroke="none" points="952,-317 952,-385 1138,-385 1138,-317 952,-317"/>
<text text-anchor="start" x="954" y="-375.5" font-family="Times,serif" font-style="italic" font-size="10.00">[ns&#45;0]continue_spying</text>
<text text-anchor="start" x="954" y="-361" font-family="Times,serif" font-size="10.00">Продолжить шпионаж</text>
<polygon fill="#cceecc" stroke="none" points="953,-344 953,-357 1137,-357 1137,-344 953,-344"/>
<text text-anchor="start" x="954" y="-349" font-family="Times,serif" font-size="10.00">hero </text>
<text text-anchor="start" x="975" y="-349" font-family="Times,serif" font-weight="bold" font-size="10.00">находится около</text>
<text text-anchor="start" x="1051" y="-349" font-family="Times,serif" font-size="10.00"> place_3</text>
<polygon fill="#eeffee" stroke="none" points="953,-331 953,-344 1137,-344 1137,-331 953,-331"/>
<text text-anchor="start" x="954" y="-336" font-family="Times,serif" font-weight="bold" font-size="10.00">отправить </text>
<text text-anchor="start" x="1004" y="-336" font-family="Times,serif" font-size="10.00"> hero</text>
<text text-anchor="start" x="1025" y="-336" font-family="Times,serif" font-weight="bold" font-size="10.00">бродить около</text>
<text text-anchor="start" x="1091" y="-336" font-family="Times,serif" font-size="10.00"> place_3</text>
<polygon fill="#eeffee" stroke="none" points="953,-318 953,-331 1137,-331 1137,-318 953,-318"/>
<text text-anchor="start" x="954" y="-323" font-family="Times,serif" font-weight="bold" font-size="10.00">сообщение:</text>
<text text-anchor="start" x="1006" y="-323" font-family="Times,serif" font-size="10.00"> continue_spying</text>
<polygon fill="none" stroke="black" points="952,-317 952,-385 1138,-385 1138,-317 952,-317"/>
</g>
<!-- #jump([ns&#45;0]continue_spying, [ns&#45;0]report_data) -->
<g id="node15" class="node"><title>#jump([ns&#45;0]continue_spying, [ns&#45;0]report_data)</title>
<polygon fill="#eeeeee" stroke="none" points="1190,-344 1190,-358 1336,-358 1336,-344 1190,-344"/>
<text text-anchor="start" x="1191" y="-349.5" font-family="Times,serif" font-weight="bold" font-size="10.00">сообщение:</text>
<text text-anchor="start" x="1243" y="-349.5" font-family="Times,serif" font-size="10.00"> move_to_report_data</text>
</g>
<!-- [ns&#45;0]continue_spying&#45;&gt;#jump([ns&#45;0]continue_spying, [ns&#45;0]report_data) -->
<g id="edge12" class="edge"><title>[ns&#45;0]continue_spying:[ns&#45;0]continue_spying&#45;&gt;#jump([ns&#45;0]continue_spying, [ns&#45;0]report_data):#jump([ns&#45;0]continue_spying, [ns&#45;0]report_data)</title>
<path fill="none" stroke="black" d="M1138.08,-351C1155.44,-351 1173.35,-351 1190,-351"/>
</g>
<!-- [ns&#45;0]spying_middle -->
<g id="node7" class="node"><title>[ns&#45;0]spying_middle</title>
<polygon fill="#ddddff" stroke="none" points="554,-297 554,-339 732,-339 732,-297 554,-297"/>
<text text-anchor="start" x="556" y="-329.5" font-family="Times,serif" font-style="italic" font-size="10.00">[ns&#45;0]spying_middle</text>
<text text-anchor="start" x="556" y="-315" font-family="Times,serif" font-size="10.00">Шпионаж</text>
<polygon fill="#eeeeff" stroke="none" points="555,-298 555,-311 731,-311 731,-298 555,-298"/>
<text text-anchor="start" x="556" y="-303" font-family="Times,serif" font-weight="bold" font-size="10.00">отправить </text>
<text text-anchor="start" x="606" y="-303" font-family="Times,serif" font-size="10.00"> hero</text>
<text text-anchor="start" x="627" y="-303" font-family="Times,serif" font-weight="bold" font-size="10.00">бродить около</text>
<text text-anchor="start" x="693" y="-303" font-family="Times,serif" font-size="10.00"> place_3</text>
<polygon fill="none" stroke="black" points="554,-297 554,-339 732,-339 732,-297 554,-297"/>
</g>
<!-- #option([ns&#45;0]spying_middle, [ns&#45;0]continue_spying) -->
<g id="node10" class="node"><title>#option([ns&#45;0]spying_middle, [ns&#45;0]continue_spying)</title>
<polygon fill="#ffffff" stroke="none" points="833,-344 833,-358 851,-358 851,-344 833,-344"/>
<text text-anchor="start" x="834" y="-348.5" font-family="Times,serif" font-size="10.00">spy</text>
</g>
<!-- [ns&#45;0]spying_middle&#45;&gt;#option([ns&#45;0]spying_middle, [ns&#45;0]continue_spying) -->
<g id="edge1" class="edge"><title>[ns&#45;0]spying_middle:[ns&#45;0]spying_middle&#45;&gt;#option([ns&#45;0]spying_middle, [ns&#45;0]continue_spying):#option([ns&#45;0]spying_middle, [ns&#45;0]continue_spying)</title>
<path fill="none" stroke="black" stroke-dasharray="1,5" d="M732.023,-338C783.352,-338 838.442,-338 841.835,-338"/>
</g>
<!-- #option([ns&#45;0]spying_middle, [ns&#45;0]open_up) -->
<g id="node12" class="node"><title>#option([ns&#45;0]spying_middle, [ns&#45;0]open_up)</title>
<polygon fill="#ffffff" stroke="none" points="784,-276 784,-290 900,-290 900,-276 784,-276"/>
<text text-anchor="start" x="785" y="-280.5" font-family="Times,serif" font-size="10.00">open_up</text>
<polygon fill="#eeeeee" stroke="none" points="784,-263 784,-276 900,-276 900,-263 784,-263"/>
<text text-anchor="start" x="785" y="-268" font-family="Times,serif" font-weight="bold" font-size="10.00">сообщение:</text>
<text text-anchor="start" x="837" y="-268" font-family="Times,serif" font-size="10.00"> start_open_up</text>
</g>
<!-- [ns&#45;0]spying_middle&#45;&gt;#option([ns&#45;0]spying_middle, [ns&#45;0]open_up) -->
<g id="edge6" class="edge"><title>[ns&#45;0]spying_middle:[ns&#45;0]spying_middle&#45;&gt;#option([ns&#45;0]spying_middle, [ns&#45;0]open_up):#option([ns&#45;0]spying_middle, [ns&#45;0]open_up)</title>
<path fill="none" stroke="black" stroke-dasharray="1,5" d="M732.001,-300.875C765.66,-300.875 796,-300.875 796,-300.875 796,-300.875 796,-295.973 796,-290.611"/>
</g>
<!-- [ns&#45;0]open_up -->
<g id="node8" class="node"><title>[ns&#45;0]open_up</title>
<polygon fill="#ddffdd" stroke="none" points="983.5,-195.5 983.5,-250.5 1106.5,-250.5 1106.5,-195.5 983.5,-195.5"/>
<text text-anchor="start" x="986" y="-240.5" font-family="Times,serif" font-style="italic" font-size="10.00">[ns&#45;0]open_up</text>
<text text-anchor="start" x="986" y="-226" font-family="Times,serif" font-size="10.00">Раскрыться</text>
<polygon fill="#cceecc" stroke="none" points="985,-209 985,-222 1106,-222 1106,-209 985,-209"/>
<text text-anchor="start" x="986" y="-214" font-family="Times,serif" font-size="10.00">hero </text>
<text text-anchor="start" x="1007" y="-214" font-family="Times,serif" font-weight="bold" font-size="10.00">находится в</text>
<text text-anchor="start" x="1062" y="-214" font-family="Times,serif" font-size="10.00"> place_3</text>
<polygon fill="#eeffee" stroke="none" points="985,-196 985,-209 1106,-209 1106,-196 985,-196"/>
<text text-anchor="start" x="986" y="-201" font-family="Times,serif" font-weight="bold" font-size="10.00">сообщение:</text>
<text text-anchor="start" x="1038" y="-201" font-family="Times,serif" font-size="10.00"> open_up</text>
<polygon fill="none" stroke="black" points="983.5,-195.5 983.5,-250.5 1106.5,-250.5 1106.5,-195.5 983.5,-195.5"/>
</g>
<!-- [ns&#45;0]open_up&#45;&gt;[ns&#45;0]open_up_finish -->
<g id="edge14" class="edge"><title>[ns&#45;0]open_up:[ns&#45;0]open_up&#45;&gt;[ns&#45;0]open_up_finish:[ns&#45;0]open_up_finish</title>
<path fill="none" stroke="black" d="M1106.66,-223C1106.66,-223 1405.31,-223 1405.31,-223"/>
<polygon fill="black" stroke="black" points="1405.31,-226.5 1415.31,-223 1405.31,-219.5 1405.31,-226.5"/>
</g>
<!-- #jump([ns&#45;0]open_up, [ns&#45;0]open_up_lying) -->
<g id="node13" class="node"><title>#jump([ns&#45;0]open_up, [ns&#45;0]open_up_lying)</title>
<polygon fill="#eeeeee" stroke="none" points="1194,-140 1194,-154 1333,-154 1333,-140 1194,-140"/>
<text text-anchor="start" x="1195" y="-145.5" font-family="Times,serif" font-weight="bold" font-size="10.00">сообщение:</text>
<text text-anchor="start" x="1247" y="-145.5" font-family="Times,serif" font-size="10.00"> move_to_report_lie</text>
</g>
<!-- [ns&#45;0]open_up&#45;&gt;#jump([ns&#45;0]open_up, [ns&#45;0]open_up_lying) -->
<g id="edge8" class="edge"><title>[ns&#45;0]open_up:[ns&#45;0]open_up&#45;&gt;#jump([ns&#45;0]open_up, [ns&#45;0]open_up_lying):#jump([ns&#45;0]open_up, [ns&#45;0]open_up_lying)</title>
<path fill="none" stroke="black" d="M1045,-195.132C1045,-173.442 1045,-147 1045,-147 1045,-147 1129.62,-147 1193.42,-147"/>
</g>
<!-- [ns&#45;0]open_up_variants -->
<g id="node9" class="node"><title>[ns&#45;0]open_up_variants</title>
<polygon fill="#eeeecc" stroke="none" points="1425.5,-20.5 1425.5,-49.5 1600.5,-49.5 1600.5,-20.5 1425.5,-20.5"/>
<text text-anchor="start" x="1428" y="-39.5" font-family="Times,serif" font-style="italic" font-size="10.00">[ns&#45;0]open_up_variants</text>
<text text-anchor="start" x="1428" y="-25" font-family="Times,serif" font-size="10.00">Варианты окончания раскрытия</text>
<polygon fill="none" stroke="black" points="1425.5,-20.5 1425.5,-49.5 1600.5,-49.5 1600.5,-20.5 1425.5,-20.5"/>
</g>
<!-- #option([ns&#45;0]spying_middle, [ns&#45;0]continue_spying)&#45;&gt;[ns&#45;0]continue_spying -->
<g id="edge2" class="edge"><title>#option([ns&#45;0]spying_middle, [ns&#45;0]continue_spying):#option([ns&#45;0]spying_middle, [ns&#45;0]continue_spying)&#45;&gt;[ns&#45;0]continue_spying:[ns&#45;0]continue_spying</title>
<path fill="none" stroke="black" stroke-dasharray="1,5" d="M851.25,-351C851.25,-351 941.979,-351 941.979,-351"/>
<polygon fill="black" stroke="black" points="941.979,-354.5 951.979,-351 941.979,-347.5 941.979,-354.5"/>
</g>
<!-- #option([ns&#45;0]start_spying, [ns&#45;0]spying_middle)&#45;&gt;[ns&#45;0]spying_middle -->
<g id="edge5" class="edge"><title>#option([ns&#45;0]start_spying, [ns&#45;0]spying_middle):#option([ns&#45;0]start_spying, [ns&#45;0]spying_middle)&#45;&gt;[ns&#45;0]spying_middle:[ns&#45;0]spying_middle</title>
<path fill="none" stroke="black" stroke-dasharray="1,5" d="M502.059,-318C502.059,-318 543.645,-318 543.645,-318"/>
<polygon fill="black" stroke="black" points="543.645,-321.5 553.645,-318 543.645,-314.5 543.645,-321.5"/>
</g>
<!-- #option([ns&#45;0]spying_middle, [ns&#45;0]open_up)&#45;&gt;[ns&#45;0]open_up -->
<g id="edge7" class="edge"><title>#option([ns&#45;0]spying_middle, [ns&#45;0]open_up):#option([ns&#45;0]spying_middle, [ns&#45;0]open_up)&#45;&gt;[ns&#45;0]open_up:[ns&#45;0]open_up</title>
<path fill="none" stroke="black" stroke-dasharray="1,5" d="M842.147,-263.125C848.294,-263.125 1045,-263.125 1045,-263.125 1045,-263.125 1045,-260.868 1045,-260.868"/>
<polygon fill="black" stroke="black" points="1048.5,-260.868 1045,-250.868 1041.5,-260.868 1048.5,-260.868"/>
</g>
<!-- #jump([ns&#45;0]open_up, [ns&#45;0]open_up_lying)&#45;&gt;[ns&#45;0]open_up_lying -->
<g id="edge9" class="edge"><title>#jump([ns&#45;0]open_up, [ns&#45;0]open_up_lying):#jump([ns&#45;0]open_up, [ns&#45;0]open_up_lying)&#45;&gt;[ns&#45;0]open_up_lying:[ns&#45;0]open_up_lying</title>
<path fill="none" stroke="black" d="M1332.64,-144.625C1332.64,-144.625 1378.21,-144.625 1378.21,-144.625"/>
<polygon fill="black" stroke="black" points="1378.21,-148.125 1388.21,-144.625 1378.21,-141.125 1378.21,-148.125"/>
</g>
<!-- #option([ns&#45;0]start_spying, [ns&#45;0]open_up)&#45;&gt;[ns&#45;0]open_up -->
<g id="edge11" class="edge"><title>#option([ns&#45;0]start_spying, [ns&#45;0]open_up):#option([ns&#45;0]start_spying, [ns&#45;0]open_up)&#45;&gt;[ns&#45;0]open_up:[ns&#45;0]open_up</title>
<path fill="none" stroke="black" stroke-dasharray="1,5" d="M900.172,-223C900.172,-223 973.277,-223 973.277,-223"/>
<polygon fill="black" stroke="black" points="973.277,-226.5 983.277,-223 973.277,-219.5 973.277,-226.5"/>
</g>
<!-- #jump([ns&#45;0]continue_spying, [ns&#45;0]report_data)&#45;&gt;[ns&#45;0]report_data -->
<g id="edge13" class="edge"><title>#jump([ns&#45;0]continue_spying, [ns&#45;0]report_data):#jump([ns&#45;0]continue_spying, [ns&#45;0]report_data)&#45;&gt;[ns&#45;0]report_data:[ns&#45;0]report_data</title>
<path fill="none" stroke="black" d="M1336.32,-351C1336.32,-351 1415.09,-351 1415.09,-351"/>
<polygon fill="black" stroke="black" points="1415.09,-354.5 1425.09,-351 1415.09,-347.5 1415.09,-354.5"/>
</g>
<!-- #options_link(#option([ns&#45;0]start_spying, [ns&#45;0]open_up),#option([ns&#45;0]spying_middle, [ns&#45;0]open_up)) -->
<g id="node16" class="node"><title>#options_link(#option([ns&#45;0]start_spying, [ns&#45;0]open_up),#option([ns&#45;0]spying_middle, [ns&#45;0]open_up))</title>
<ellipse fill="#ffaaaa" stroke="black" cx="643" cy="-263" rx="12" ry="12"/>
<text text-anchor="middle" x="643" y="-260.5" font-family="Times,serif" font-size="10.00">link</text>
</g>
<!-- #options_link(#option([ns&#45;0]start_spying, [ns&#45;0]open_up),#option([ns&#45;0]spying_middle, [ns&#45;0]open_up))&#45;&gt;#option([ns&#45;0]spying_middle, [ns&#45;0]open_up) -->
<g id="edge16" class="edge"><title>#options_link(#option([ns&#45;0]start_spying, [ns&#45;0]open_up),#option([ns&#45;0]spying_middle, [ns&#45;0]open_up))&#45;&gt;#option([ns&#45;0]spying_middle, [ns&#45;0]open_up):#option([ns&#45;0]spying_middle, [ns&#45;0]open_up)</title>
<path fill="none" stroke="#ffaaaa" d="M654.559,-267C679.196,-267 738.322,-267 783.635,-267"/>
</g>
<!-- #options_link(#option([ns&#45;0]start_spying, [ns&#45;0]open_up),#option([ns&#45;0]spying_middle, [ns&#45;0]open_up))&#45;&gt;#option([ns&#45;0]start_spying, [ns&#45;0]open_up) -->
<g id="edge15" class="edge"><title>#options_link(#option([ns&#45;0]start_spying, [ns&#45;0]open_up),#option([ns&#45;0]spying_middle, [ns&#45;0]open_up))&#45;&gt;#option([ns&#45;0]start_spying, [ns&#45;0]open_up):#option([ns&#45;0]start_spying, [ns&#45;0]open_up)</title>
<path fill="none" stroke="#ffaaaa" d="M643,-250.784C643,-243.082 643,-234.583 643,-234.583 643,-234.583 725.168,-234.583 783.906,-234.583"/>
</g>
<!-- #options_link(#option([ns&#45;0]start_spying, [ns&#45;0]spying_middle),#option([ns&#45;0]spying_middle, [ns&#45;0]continue_spying)) -->
<g id="node17" class="node"><title>#options_link(#option([ns&#45;0]start_spying, [ns&#45;0]spying_middle),#option([ns&#45;0]spying_middle, [ns&#45;0]continue_spying))</title>
<ellipse fill="#ffaaaa" stroke="black" cx="269" cy="-344" rx="12" ry="12"/>
<text text-anchor="middle" x="269" y="-341.5" font-family="Times,serif" font-size="10.00">link</text>
</g>
<!-- #options_link(#option([ns&#45;0]start_spying, [ns&#45;0]spying_middle),#option([ns&#45;0]spying_middle, [ns&#45;0]continue_spying))&#45;&gt;#option([ns&#45;0]spying_middle, [ns&#45;0]continue_spying) -->
<g id="edge18" class="edge"><title>#options_link(#option([ns&#45;0]start_spying, [ns&#45;0]spying_middle),#option([ns&#45;0]spying_middle, [ns&#45;0]continue_spying))&#45;&gt;#option([ns&#45;0]spying_middle, [ns&#45;0]continue_spying):#option([ns&#45;0]spying_middle, [ns&#45;0]continue_spying)</title>
<path fill="none" stroke="#ffaaaa" d="M279.683,-349.5C351.69,-349.5 765.342,-349.5 832.723,-349.5"/>
</g>
<!-- #options_link(#option([ns&#45;0]start_spying, [ns&#45;0]spying_middle),#option([ns&#45;0]spying_middle, [ns&#45;0]continue_spying))&#45;&gt;#option([ns&#45;0]start_spying, [ns&#45;0]spying_middle) -->
<g id="edge17" class="edge"><title>#options_link(#option([ns&#45;0]start_spying, [ns&#45;0]spying_middle),#option([ns&#45;0]spying_middle, [ns&#45;0]continue_spying))&#45;&gt;#option([ns&#45;0]start_spying, [ns&#45;0]spying_middle):#option([ns&#45;0]start_spying, [ns&#45;0]spying_middle)</title>
<path fill="none" stroke="#ffaaaa" d="M269,-331.87C269,-326.481 269,-321.333 269,-321.333 269,-321.333 341.124,-321.333 393.808,-321.333"/>
</g>
</g>
</svg>
