<?xml version="1.0" encoding="UTF-8" standalone="no"?>
<!DOCTYPE svg PUBLIC "-//W3C//DTD SVG 1.1//EN"
 "http://www.w3.org/Graphics/SVG/1.1/DTD/svg11.dtd">
<!-- Generated by graphviz version 2.43.0 (0)
 -->
<!-- Title: quest Pages: 1 -->
<svg width="1428pt" height="1208pt"
 viewBox="0.00 0.00 1427.50 1208.00" xmlns="http://www.w3.org/2000/svg" xmlns:xlink="http://www.w3.org/1999/xlink">
<g id="graph0" class="graph" transform="scale(1 1) rotate(0) translate(4 1204)">
<title>quest</title>
<polygon fill="white" stroke="transparent" points="-4,4 -4,-1204 1423.5,-1204 1423.5,4 -4,4"/>
<g id="clust2" class="cluster">
<title>cluster_[ns&#45;0]spying_variants</title>
<polygon fill="#ffffdd" stroke="black" points="271.5,-556 271.5,-670 806.5,-670 806.5,-556 271.5,-556"/>
<text text-anchor="middle" x="539" y="-654.8" font-family="Times,serif" font-size="14.00">cluster_[ns&#45;0]spying_variants</text>
</g>
<g id="clust1" class="cluster">
<title>cluster_[ns&#45;0]open_up_variants</title>
<polygon fill="#ffffdd" stroke="black" points="608.5,-408 608.5,-548 1411.5,-548 1411.5,-408 608.5,-408"/>
<text text-anchor="middle" x="1010" y="-532.8" font-family="Times,serif" font-size="14.00">cluster_[ns&#45;0]open_up_variants</text>
</g>
<!-- [ns&#45;0]witness_fight -->
<g id="node1" class="node">
<title>[ns&#45;0]witness_fight</title>
<polygon fill="#ffdddd" stroke="transparent" points="420.5,-426.5 420.5,-506.5 590.5,-506.5 590.5,-426.5 420.5,-426.5"/>
<text text-anchor="start" x="422.5" y="-497.5" font-family="Times,serif" font-style="italic" font-size="10.00">[ns&#45;0]witness_fight</text>
<text text-anchor="start" x="422.5" y="-483.5" font-family="Times,serif" font-size="10.00">was the witness defeated?</text>
<polygon fill="#ffeeee" stroke="transparent" points="421.5,-466.5 421.5,-479.5 589.5,-479.5 589.5,-466.5 421.5,-466.5"/>
<text text-anchor="start" x="422.5" y="-471.5" font-family="Times,serif" font-weight="bold" font-size="10.00">message:</text>
<text text-anchor="start" x="474.5" y="-471.5" font-family="Times,serif" font-size="10.00"> witness_fight</text>
<polygon fill="#ffeeee" stroke="transparent" points="421.5,-453.5 421.5,-466.5 589.5,-466.5 589.5,-453.5 421.5,-453.5"/>
<text text-anchor="start" x="422.5" y="-458.5" font-family="Times,serif" font-weight="bold" font-size="10.00">fight with a mercenary</text>
<polygon fill="#ffdddd" stroke="transparent" points="421.5,-440.5 421.5,-453.5 589.5,-453.5 589.5,-440.5 421.5,-440.5"/>
<text text-anchor="start" x="422.5" y="-445.5" font-family="Times,serif" font-weight="bold" font-size="10.00">conditions:</text>
<text text-anchor="start" x="422.5" y="-432.5" font-family="Times,serif" font-weight="bold" font-size="10.00">if </text>
<polygon fill="#ffdddd" stroke="transparent" points="520.5,-427.5 520.5,-440.5 589.5,-440.5 589.5,-427.5 520.5,-427.5"/>
<text text-anchor="start" x="521.5" y="-432.5" font-family="Times,serif" font-size="10.00">hero </text>
<text text-anchor="start" x="548.5" y="-432.5" font-family="Times,serif" font-weight="bold" font-size="10.00">is alive</text>
<polygon fill="none" stroke="black" points="420.5,-426.5 420.5,-506.5 590.5,-506.5 590.5,-426.5 420.5,-426.5"/>
</g>
<!-- #answer(False, [ns&#45;0]witness_fight, [ns&#45;0]witness_failed) -->
<g id="node22" class="node">
<title>#answer(False, [ns&#45;0]witness_fight, [ns&#45;0]witness_failed)</title>
<polygon fill="#ffffff" stroke="transparent" points="557.5,-355 557.5,-368 594.5,-368 594.5,-355 557.5,-355"/>
<text text-anchor="start" x="558.5" y="-359" font-family="Times,serif" font-size="10.00">FALSE</text>
</g>
<!-- [ns&#45;0]witness_fight&#45;&gt;#answer(False, [ns&#45;0]witness_fight, [ns&#45;0]witness_failed) -->
<g id="edge18" class="edge">
<title>[ns&#45;0]witness_fight:[ns&#45;0]witness_fight&#45;&gt;#answer(False, [ns&#45;0]witness_fight, [ns&#45;0]witness_failed):#answer(False, [ns&#45;0]witness_fight, [ns&#45;0]witness_failed)</title>
<path fill="none" stroke="black" d="M532.16,-426.46C547.15,-404.51 564.31,-379.38 571.74,-368.5"/>
</g>
<!-- #answer(True, [ns&#45;0]witness_fight, [ns&#45;0]finish_spying_choice) -->
<g id="node23" class="node">
<title>#answer(True, [ns&#45;0]witness_fight, [ns&#45;0]finish_spying_choice)</title>
<polygon fill="#ffffff" stroke="transparent" points="454.5,-355 454.5,-368 487.5,-368 487.5,-355 454.5,-355"/>
<text text-anchor="start" x="455.5" y="-359" font-family="Times,serif" font-size="10.00">TRUE</text>
</g>
<!-- [ns&#45;0]witness_fight&#45;&gt;#answer(True, [ns&#45;0]witness_fight, [ns&#45;0]finish_spying_choice) -->
<g id="edge20" class="edge">
<title>[ns&#45;0]witness_fight:[ns&#45;0]witness_fight&#45;&gt;#answer(True, [ns&#45;0]witness_fight, [ns&#45;0]finish_spying_choice):#answer(True, [ns&#45;0]witness_fight, [ns&#45;0]finish_spying_choice)</title>
<path fill="none" stroke="black" d="M492.17,-426.46C484.67,-404.51 476.09,-379.38 472.38,-368.5"/>
</g>
<!-- [ns&#45;0]success_spying -->
<g id="node2" class="node">
<title>[ns&#45;0]success_spying</title>
<polygon fill="#ddffdd" stroke="transparent" points="287,-568 287,-635 476,-635 476,-568 287,-568"/>
<text text-anchor="start" x="289.5" y="-625.5" font-family="Times,serif" font-style="italic" font-size="10.00">[ns&#45;0]success_spying</text>
<text text-anchor="start" x="289.5" y="-611.5" font-family="Times,serif" font-size="10.00">spying without incidents</text>
<polygon fill="#cceecc" stroke="transparent" points="288.5,-594.5 288.5,-607.5 475.5,-607.5 475.5,-594.5 288.5,-594.5"/>
<text text-anchor="start" x="289.5" y="-599.5" font-family="Times,serif" font-size="10.00">hero </text>
<text text-anchor="start" x="316.5" y="-599.5" font-family="Times,serif" font-weight="bold" font-size="10.00">is located near</text>
<text text-anchor="start" x="400.5" y="-599.5" font-family="Times,serif" font-size="10.00"> place_7</text>
<polygon fill="#eeffee" stroke="transparent" points="288.5,-581.5 288.5,-594.5 475.5,-594.5 475.5,-581.5 288.5,-581.5"/>
<text text-anchor="start" x="289.5" y="-586.5" font-family="Times,serif" font-weight="bold" font-size="10.00">message:</text>
<text text-anchor="start" x="341.5" y="-586.5" font-family="Times,serif" font-size="10.00"> success_spying</text>
<polygon fill="#eeffee" stroke="transparent" points="288.5,-568.5 288.5,-581.5 475.5,-581.5 475.5,-568.5 288.5,-568.5"/>
<text text-anchor="start" x="289.5" y="-573.5" font-family="Times,serif" font-weight="bold" font-size="10.00">send </text>
<text text-anchor="start" x="320.5" y="-573.5" font-family="Times,serif" font-size="10.00"> hero</text>
<text text-anchor="start" x="347.5" y="-573.5" font-family="Times,serif" font-weight="bold" font-size="10.00">to wander near</text>
<text text-anchor="start" x="432.5" y="-573.5" font-family="Times,serif" font-size="10.00"> place_7</text>
<polygon fill="none" stroke="black" points="287,-568 287,-635 476,-635 476,-568 287,-568"/>
</g>
<!-- [ns&#45;0]finish_spying_choice -->
<g id="node8" class="node">
<title>[ns&#45;0]finish_spying_choice</title>
<polygon fill="#ddddff" stroke="transparent" points="271,-250 271,-278 492,-278 492,-250 271,-250"/>
<text text-anchor="start" x="273.5" y="-269" font-family="Times,serif" font-style="italic" font-size="10.00">[ns&#45;0]finish_spying_choice</text>
<text text-anchor="start" x="273.5" y="-255" font-family="Times,serif" font-size="10.00">Options for completing the spying mission</text>
<polygon fill="none" stroke="black" points="271,-250 271,-278 492,-278 492,-250 271,-250"/>
</g>
<!-- [ns&#45;0]success_spying&#45;&gt;[ns&#45;0]finish_spying_choice -->
<g id="edge2" class="edge">
<title>[ns&#45;0]success_spying:[ns&#45;0]success_spying&#45;&gt;[ns&#45;0]finish_spying_choice:[ns&#45;0]finish_spying_choice</title>
<path fill="none" stroke="black" d="M381.5,-567.72C381.5,-500.18 381.5,-346.96 381.5,-288.38"/>
<polygon fill="black" stroke="black" points="385,-288.28 381.5,-278.28 378,-288.28 385,-288.28"/>
</g>
<!-- [ns&#45;0]witness_failed -->
<g id="node3" class="node">
<title>[ns&#45;0]witness_failed</title>
<polygon fill="#eeeeee" stroke="transparent" points="526.5,-224 526.5,-304 690.5,-304 690.5,-224 526.5,-224"/>
<text text-anchor="start" x="528.5" y="-295" font-family="Times,serif" font-style="italic" font-size="10.00">[ns&#45;0]witness_failed</text>
<text text-anchor="start" x="528.5" y="-281" font-family="Times,serif" font-size="10.00">the witness managed to escape</text>
<polygon fill="#ffffff" stroke="transparent" points="527.5,-264 527.5,-277 689.5,-277 689.5,-264 527.5,-264"/>
<text text-anchor="start" x="528.5" y="-269" font-family="Times,serif" font-weight="bold" font-size="10.00">message:</text>
<text text-anchor="start" x="580.5" y="-269" font-family="Times,serif" font-size="10.00"> witness_failed</text>
<polygon fill="#eeeeee" stroke="transparent" points="527.5,-251 527.5,-264 689.5,-264 689.5,-251 527.5,-251"/>
<text text-anchor="start" x="528.5" y="-256" font-family="Times,serif" font-weight="bold" font-size="10.00">results:</text>
<text text-anchor="start" x="528.5" y="-243" font-family="Times,serif" font-weight="bold" font-size="10.00">person_1</text>
<text text-anchor="start" x="641.5" y="-242" font-family="Times,serif" font-size="10.00">neutral</text>
<text text-anchor="start" x="528.5" y="-230" font-family="Times,serif" font-weight="bold" font-size="10.00">person_7</text>
<text text-anchor="start" x="641.5" y="-229" font-family="Times,serif" font-size="10.00">neutral</text>
<polygon fill="none" stroke="black" points="526.5,-224 526.5,-304 690.5,-304 690.5,-224 526.5,-224"/>
</g>
<!-- [ns&#45;0]spying_middle -->
<g id="node4" class="node">
<title>[ns&#45;0]spying_middle</title>
<polygon fill="#ddddff" stroke="transparent" points="638,-863 638,-904 827,-904 827,-863 638,-863"/>
<text text-anchor="start" x="640.5" y="-894.5" font-family="Times,serif" font-style="italic" font-size="10.00">[ns&#45;0]spying_middle</text>
<text text-anchor="start" x="640.5" y="-880.5" font-family="Times,serif" font-size="10.00">Spying</text>
<polygon fill="#eeeeff" stroke="transparent" points="639.5,-863.5 639.5,-876.5 826.5,-876.5 826.5,-863.5 639.5,-863.5"/>
<text text-anchor="start" x="640.5" y="-868.5" font-family="Times,serif" font-weight="bold" font-size="10.00">send </text>
<text text-anchor="start" x="671.5" y="-868.5" font-family="Times,serif" font-size="10.00"> hero</text>
<text text-anchor="start" x="698.5" y="-868.5" font-family="Times,serif" font-weight="bold" font-size="10.00">to wander near</text>
<text text-anchor="start" x="783.5" y="-868.5" font-family="Times,serif" font-size="10.00"> place_7</text>
<polygon fill="none" stroke="black" points="638,-863 638,-904 827,-904 827,-863 638,-863"/>
</g>
<!-- #option([ns&#45;0]spying_middle, [ns&#45;0]continue_spying, blackmail) -->
<g id="node16" class="node">
<title>#option([ns&#45;0]spying_middle, [ns&#45;0]continue_spying, blackmail)</title>
<polygon fill="#5555aa" stroke="transparent" points="686,-817.5 615,-817.5 615,-781.5 686,-781.5 686,-817.5"/>
<polygon fill="#ffffff" stroke="transparent" points="623.5,-799.5 623.5,-812.5 678.5,-812.5 678.5,-799.5 623.5,-799.5"/>
<text text-anchor="start" x="624.5" y="-803.5" font-family="Times,serif" font-size="10.00">blackmail</text>
<polygon fill="#aadddd" stroke="transparent" points="623.5,-786.5 623.5,-799.5 678.5,-799.5 678.5,-786.5 623.5,-786.5"/>
<text text-anchor="start" x="624.5" y="-790.5" font-family="Times,serif" font-size="10.00">[dishonor]</text>
</g>
<!-- [ns&#45;0]spying_middle&#45;&gt;#option([ns&#45;0]spying_middle, [ns&#45;0]continue_spying, blackmail) -->
<g id="edge5" class="edge">
<title>[ns&#45;0]spying_middle:[ns&#45;0]spying_middle&#45;&gt;#option([ns&#45;0]spying_middle, [ns&#45;0]continue_spying, blackmail):#option([ns&#45;0]spying_middle, [ns&#45;0]continue_spying, blackmail)</title>
<path fill="none" stroke="black" stroke-dasharray="1,5" d="M712.65,-862.65C697.1,-847.1 675.97,-825.97 662.79,-812.79"/>
</g>
<!-- #option([ns&#45;0]spying_middle, [ns&#45;0]open_up, open_up) -->
<g id="node18" class="node">
<title>#option([ns&#45;0]spying_middle, [ns&#45;0]open_up, open_up)</title>
<polygon fill="#ffffff" stroke="transparent" points="786.5,-805.5 786.5,-818.5 916.5,-818.5 916.5,-805.5 786.5,-805.5"/>
<text text-anchor="start" x="787.5" y="-809.5" font-family="Times,serif" font-size="10.00">open_up</text>
<polygon fill="#aadddd" stroke="transparent" points="786.5,-792.5 786.5,-805.5 916.5,-805.5 916.5,-792.5 786.5,-792.5"/>
<text text-anchor="start" x="787.5" y="-796.5" font-family="Times,serif" font-size="10.00">[dishonor]</text>
<polygon fill="#eeeeee" stroke="transparent" points="786.5,-779.5 786.5,-792.5 916.5,-792.5 916.5,-779.5 786.5,-779.5"/>
<text text-anchor="start" x="787.5" y="-784.5" font-family="Times,serif" font-weight="bold" font-size="10.00">message:</text>
<text text-anchor="start" x="839.5" y="-784.5" font-family="Times,serif" font-size="10.00"> start_open_up</text>
</g>
<!-- [ns&#45;0]spying_middle&#45;&gt;#option([ns&#45;0]spying_middle, [ns&#45;0]open_up, open_up) -->
<g id="edge9" class="edge">
<title>[ns&#45;0]spying_middle:[ns&#45;0]spying_middle&#45;&gt;#option([ns&#45;0]spying_middle, [ns&#45;0]open_up, open_up):#option([ns&#45;0]spying_middle, [ns&#45;0]open_up, open_up)</title>
<path fill="none" stroke="black" stroke-dasharray="1,5" d="M761,-862.86C780.26,-849.59 805.52,-832.19 824.46,-819.14"/>
</g>
<!-- #option([ns&#45;0]spying_middle, [ns&#45;0]continue_spying, spy) -->
<g id="node21" class="node">
<title>#option([ns&#45;0]spying_middle, [ns&#45;0]continue_spying, spy)</title>
<polygon fill="#555555" stroke="transparent" points="760.5,-817.5 704.5,-817.5 704.5,-781.5 760.5,-781.5 760.5,-817.5"/>
<polygon fill="#ffffff" stroke="transparent" points="712.5,-799.5 712.5,-812.5 752.5,-812.5 752.5,-799.5 712.5,-799.5"/>
<text text-anchor="start" x="713.5" y="-803.5" font-family="Times,serif" font-size="10.00">spy</text>
<polygon fill="#aadddd" stroke="transparent" points="712.5,-786.5 712.5,-799.5 752.5,-799.5 752.5,-786.5 712.5,-786.5"/>
<text text-anchor="start" x="713.5" y="-790.5" font-family="Times,serif" font-size="10.00">[honor]</text>
</g>
<!-- [ns&#45;0]spying_middle&#45;&gt;#option([ns&#45;0]spying_middle, [ns&#45;0]continue_spying, spy) -->
<g id="edge15" class="edge">
<title>[ns&#45;0]spying_middle:[ns&#45;0]spying_middle&#45;&gt;#option([ns&#45;0]spying_middle, [ns&#45;0]continue_spying, spy):#option([ns&#45;0]spying_middle, [ns&#45;0]continue_spying, spy)</title>
<path fill="none" stroke="black" stroke-dasharray="1,5" d="M732.5,-862.65C732.5,-847.1 732.5,-825.97 732.5,-812.79"/>
</g>
<!-- [ns&#45;0]report_data -->
<g id="node5" class="node">
<title>[ns&#45;0]report_data</title>
<polygon fill="#eeeeee" stroke="transparent" points="8,-4 8,-97 359,-97 359,-4 8,-4"/>
<text text-anchor="start" x="10.5" y="-87.5" font-family="Times,serif" font-style="italic" font-size="10.00">[ns&#45;0]report_data</text>
<text text-anchor="start" x="10.5" y="-73.5" font-family="Times,serif" font-size="10.00">Report the collected information</text>
<polygon fill="#dddddd" stroke="transparent" points="9.5,-56.5 9.5,-69.5 358.5,-69.5 358.5,-56.5 9.5,-56.5"/>
<text text-anchor="start" x="10.5" y="-61.5" font-family="Times,serif" font-size="10.00">hero </text>
<text text-anchor="start" x="37.5" y="-61.5" font-family="Times,serif" font-weight="bold" font-size="10.00">is located in</text>
<text text-anchor="start" x="107.5" y="-61.5" font-family="Times,serif" font-size="10.00"> place_1</text>
<polygon fill="#ffffff" stroke="transparent" points="9.5,-43.5 9.5,-56.5 358.5,-56.5 358.5,-43.5 9.5,-43.5"/>
<text text-anchor="start" x="10.5" y="-48.5" font-family="Times,serif" font-weight="bold" font-size="10.00">give reward to </text>
<text text-anchor="start" x="94.5" y="-48.5" font-family="Times,serif" font-size="10.00">  hero </text>
<text text-anchor="start" x="127.5" y="-48.5" font-family="Times,serif" font-weight="bold" font-size="10.00">of type </text>
<text text-anchor="start" x="170.5" y="-48.5" font-family="Times,serif" font-size="10.00"> report_data </text>
<text text-anchor="start" x="236.5" y="-48.5" font-family="Times,serif" font-weight="bold" font-size="10.00">in the amount of</text>
<text text-anchor="start" x="332.5" y="-48.5" font-family="Times,serif" font-size="10.00"> 1.00</text>
<polygon fill="#eeeeee" stroke="transparent" points="9.5,-30.5 9.5,-43.5 358.5,-43.5 358.5,-30.5 9.5,-30.5"/>
<text text-anchor="start" x="10.5" y="-35.5" font-family="Times,serif" font-weight="bold" font-size="10.00">results:</text>
<text text-anchor="start" x="10.5" y="-22.5" font-family="Times,serif" font-weight="bold" font-size="10.00">person_1</text>
<text text-anchor="start" x="203.5" y="-21.5" font-family="Times,serif" font-size="10.00">successed</text>
<text text-anchor="start" x="10.5" y="-9.5" font-family="Times,serif" font-weight="bold" font-size="10.00">person_7</text>
<text text-anchor="start" x="203.5" y="-8.5" font-family="Times,serif" font-size="10.00">failed</text>
<polygon fill="none" stroke="black" points="8,-4 8,-97 359,-97 359,-4 8,-4"/>
</g>
<!-- [ns&#45;0]start -->
<g id="node6" class="node">
<title>[ns&#45;0]start</title>
<polygon fill="#eeeeee" stroke="transparent" points="709.5,-1129 709.5,-1196 875.5,-1196 875.5,-1129 709.5,-1129"/>
<text text-anchor="start" x="711.5" y="-1186.5" font-family="Times,serif" font-style="italic" font-size="10.00">[ns&#45;0]start</text>
<text text-anchor="start" x="819" y="-1186.5" font-family="Times,serif" font-weight="bold" font-size="10.00">spying</text>
<text text-anchor="start" x="711.5" y="-1172.5" font-family="Times,serif" font-size="10.00">Start: spying mission</text>
<polygon fill="#dddddd" stroke="transparent" points="710.5,-1155.5 710.5,-1168.5 874.5,-1168.5 874.5,-1155.5 710.5,-1155.5"/>
<text text-anchor="start" x="711.5" y="-1160.5" font-family="Times,serif" font-size="10.00">hero </text>
<text text-anchor="start" x="738.5" y="-1160.5" font-family="Times,serif" font-weight="bold" font-size="10.00">is located in</text>
<text text-anchor="start" x="808.5" y="-1160.5" font-family="Times,serif" font-size="10.00"> place_1</text>
<polygon fill="#dddddd" stroke="transparent" points="710.5,-1142.5 710.5,-1155.5 874.5,-1155.5 874.5,-1142.5 710.5,-1142.5"/>
<text text-anchor="start" x="711.5" y="-1147.5" font-family="Times,serif" font-size="10.00">person_7 </text>
<text text-anchor="start" x="761.5" y="-1147.5" font-family="Times,serif" font-weight="bold" font-size="10.00">is located in</text>
<text text-anchor="start" x="831.5" y="-1147.5" font-family="Times,serif" font-size="10.00"> place_7</text>
<polygon fill="#ffffff" stroke="transparent" points="710.5,-1129.5 710.5,-1142.5 874.5,-1142.5 874.5,-1129.5 710.5,-1129.5"/>
<text text-anchor="start" x="711.5" y="-1134.5" font-family="Times,serif" font-weight="bold" font-size="10.00">message:</text>
<text text-anchor="start" x="763.5" y="-1134.5" font-family="Times,serif" font-size="10.00"> intro</text>
<polygon fill="none" stroke="black" points="709.5,-1129 709.5,-1196 875.5,-1196 875.5,-1129 709.5,-1129"/>
</g>
<!-- [ns&#45;0]start_spying -->
<g id="node13" class="node">
<title>[ns&#45;0]start_spying</title>
<polygon fill="#ddddff" stroke="transparent" points="719,-1031 719,-1085 866,-1085 866,-1031 719,-1031"/>
<text text-anchor="start" x="721.5" y="-1076" font-family="Times,serif" font-style="italic" font-size="10.00">[ns&#45;0]start_spying</text>
<text text-anchor="start" x="721.5" y="-1062" font-family="Times,serif" font-size="10.00">Arrival in the target city</text>
<polygon fill="#ccccee" stroke="transparent" points="720.5,-1045 720.5,-1058 865.5,-1058 865.5,-1045 720.5,-1045"/>
<text text-anchor="start" x="721.5" y="-1050" font-family="Times,serif" font-size="10.00">hero </text>
<text text-anchor="start" x="748.5" y="-1050" font-family="Times,serif" font-weight="bold" font-size="10.00">is located in</text>
<text text-anchor="start" x="818.5" y="-1050" font-family="Times,serif" font-size="10.00"> place_7</text>
<polygon fill="#eeeeff" stroke="transparent" points="720.5,-1032 720.5,-1045 865.5,-1045 865.5,-1032 720.5,-1032"/>
<text text-anchor="start" x="721.5" y="-1037" font-family="Times,serif" font-weight="bold" font-size="10.00">message:</text>
<text text-anchor="start" x="773.5" y="-1037" font-family="Times,serif" font-size="10.00"> arrived_to_target</text>
<polygon fill="none" stroke="black" points="719,-1031 719,-1085 866,-1085 866,-1031 719,-1031"/>
</g>
<!-- [ns&#45;0]start&#45;&gt;[ns&#45;0]start_spying -->
<g id="edge1" class="edge">
<title>[ns&#45;0]start:[ns&#45;0]start&#45;&gt;[ns&#45;0]start_spying:[ns&#45;0]start_spying</title>
<path fill="none" stroke="black" d="M792.5,-1128.79C792.5,-1118.13 792.5,-1106.24 792.5,-1095.33"/>
<polygon fill="black" stroke="black" points="796,-1095.25 792.5,-1085.25 789,-1095.25 796,-1095.25"/>
</g>
<!-- [ns&#45;0]witness -->
<g id="node7" class="node">
<title>[ns&#45;0]witness</title>
<polygon fill="#ddffdd" stroke="transparent" points="510.5,-568 510.5,-635 790.5,-635 790.5,-568 510.5,-568"/>
<text text-anchor="start" x="512.5" y="-625.5" font-family="Times,serif" font-style="italic" font-size="10.00">[ns&#45;0]witness</text>
<text text-anchor="start" x="512.5" y="-611.5" font-family="Times,serif" font-size="10.00">the hero was noticed by one of the target&#39;s employees</text>
<polygon fill="#cceecc" stroke="transparent" points="511.5,-594.5 511.5,-607.5 789.5,-607.5 789.5,-594.5 511.5,-594.5"/>
<text text-anchor="start" x="512.5" y="-599.5" font-family="Times,serif" font-size="10.00">hero </text>
<text text-anchor="start" x="539.5" y="-599.5" font-family="Times,serif" font-weight="bold" font-size="10.00">is located near</text>
<text text-anchor="start" x="623.5" y="-599.5" font-family="Times,serif" font-size="10.00"> place_7</text>
<polygon fill="#eeffee" stroke="transparent" points="511.5,-581.5 511.5,-594.5 789.5,-594.5 789.5,-581.5 511.5,-581.5"/>
<text text-anchor="start" x="512.5" y="-586.5" font-family="Times,serif" font-weight="bold" font-size="10.00">message:</text>
<text text-anchor="start" x="564.5" y="-586.5" font-family="Times,serif" font-size="10.00"> witness</text>
<polygon fill="#eeffee" stroke="transparent" points="511.5,-568.5 511.5,-581.5 789.5,-581.5 789.5,-568.5 511.5,-568.5"/>
<text text-anchor="start" x="512.5" y="-573.5" font-family="Times,serif" font-weight="bold" font-size="10.00">send </text>
<text text-anchor="start" x="543.5" y="-573.5" font-family="Times,serif" font-size="10.00"> hero</text>
<text text-anchor="start" x="570.5" y="-573.5" font-family="Times,serif" font-weight="bold" font-size="10.00">to wander near</text>
<text text-anchor="start" x="655.5" y="-573.5" font-family="Times,serif" font-size="10.00"> place_7</text>
<polygon fill="none" stroke="black" points="510.5,-568 510.5,-635 790.5,-635 790.5,-568 510.5,-568"/>
</g>
<!-- [ns&#45;0]witness&#45;&gt;[ns&#45;0]witness_fight -->
<g id="edge28" class="edge">
<title>[ns&#45;0]witness:[ns&#45;0]witness&#45;&gt;[ns&#45;0]witness_fight:[ns&#45;0]witness_fight</title>
<path fill="none" stroke="black" d="M615.03,-567.96C597.11,-551.53 575.07,-531.31 555.47,-513.33"/>
<polygon fill="black" stroke="black" points="557.83,-510.75 548.09,-506.57 553.09,-515.9 557.83,-510.75"/>
</g>
<!-- #option([ns&#45;0]finish_spying_choice, [ns&#45;0]report_data, spy) -->
<g id="node15" class="node">
<title>#option([ns&#45;0]finish_spying_choice, [ns&#45;0]report_data, spy)</title>
<polygon fill="#555555" stroke="transparent" points="375,-184 224,-184 224,-137 375,-137 375,-184"/>
<polygon fill="#ffffff" stroke="transparent" points="232.5,-166.5 232.5,-179.5 367.5,-179.5 367.5,-166.5 232.5,-166.5"/>
<text text-anchor="start" x="233.5" y="-170.5" font-family="Times,serif" font-size="10.00">spy</text>
<polygon fill="#aadddd" stroke="transparent" points="232.5,-153.5 232.5,-166.5 367.5,-166.5 367.5,-153.5 232.5,-153.5"/>
<text text-anchor="start" x="233.5" y="-157.5" font-family="Times,serif" font-size="10.00">[honor]</text>
<polygon fill="#eeeeee" stroke="transparent" points="232.5,-140.5 232.5,-153.5 367.5,-153.5 367.5,-140.5 232.5,-140.5"/>
<text text-anchor="start" x="233.5" y="-145.5" font-family="Times,serif" font-weight="bold" font-size="10.00">message:</text>
<text text-anchor="start" x="285.5" y="-145.5" font-family="Times,serif" font-size="10.00"> go_report_data</text>
</g>
<!-- [ns&#45;0]finish_spying_choice&#45;&gt;#option([ns&#45;0]finish_spying_choice, [ns&#45;0]report_data, spy) -->
<g id="edge3" class="edge">
<title>[ns&#45;0]finish_spying_choice:[ns&#45;0]finish_spying_choice&#45;&gt;#option([ns&#45;0]finish_spying_choice, [ns&#45;0]report_data, spy):#option([ns&#45;0]finish_spying_choice, [ns&#45;0]report_data, spy)</title>
<path fill="none" stroke="black" stroke-dasharray="1,5" d="M370.78,-249.73C356.45,-232 330.98,-200.47 314.69,-180.3"/>
</g>
<!-- #option([ns&#45;0]finish_spying_choice, [ns&#45;0]blackmail_finish, blackmail) -->
<g id="node20" class="node">
<title>#option([ns&#45;0]finish_spying_choice, [ns&#45;0]blackmail_finish, blackmail)</title>
<polygon fill="#5555aa" stroke="transparent" points="591.5,-184 451.5,-184 451.5,-137 591.5,-137 591.5,-184"/>
<polygon fill="#ffffff" stroke="transparent" points="459.5,-166.5 459.5,-179.5 583.5,-179.5 583.5,-166.5 459.5,-166.5"/>
<text text-anchor="start" x="460.5" y="-170.5" font-family="Times,serif" font-size="10.00">blackmail</text>
<polygon fill="#aadddd" stroke="transparent" points="459.5,-153.5 459.5,-166.5 583.5,-166.5 583.5,-153.5 459.5,-153.5"/>
<text text-anchor="start" x="460.5" y="-157.5" font-family="Times,serif" font-size="10.00">[dishonor]</text>
<polygon fill="#eeeeee" stroke="transparent" points="459.5,-140.5 459.5,-153.5 583.5,-153.5 583.5,-140.5 459.5,-140.5"/>
<text text-anchor="start" x="460.5" y="-145.5" font-family="Times,serif" font-weight="bold" font-size="10.00">message:</text>
<text text-anchor="start" x="512.5" y="-145.5" font-family="Times,serif" font-size="10.00"> go_blackmail</text>
</g>
<!-- [ns&#45;0]finish_spying_choice&#45;&gt;#option([ns&#45;0]finish_spying_choice, [ns&#45;0]blackmail_finish, blackmail) -->
<g id="edge13" class="edge">
<title>[ns&#45;0]finish_spying_choice:[ns&#45;0]finish_spying_choice&#45;&gt;#option([ns&#45;0]finish_spying_choice, [ns&#45;0]blackmail_finish, blackmail):#option([ns&#45;0]finish_spying_choice, [ns&#45;0]blackmail_finish, blackmail)</title>
<path fill="none" stroke="black" stroke-dasharray="1,5" d="M399.52,-249.94C424.03,-232.16 468.05,-200.25 495.96,-180.02"/>
</g>
<!-- [ns&#45;0]open_up_finish -->
<g id="node9" class="node">
<title>[ns&#45;0]open_up_finish</title>
<polygon fill="#eeeeee" stroke="transparent" points="624.5,-420 624.5,-513 994.5,-513 994.5,-420 624.5,-420"/>
<text text-anchor="start" x="626.5" y="-503.5" font-family="Times,serif" font-style="italic" font-size="10.00">[ns&#45;0]open_up_finish</text>
<text text-anchor="start" x="626.5" y="-489.5" font-family="Times,serif" font-size="10.00">Complete the mission and stay in the target city</text>
<polygon fill="#dddddd" stroke="transparent" points="625.5,-472.5 625.5,-485.5 993.5,-485.5 993.5,-472.5 625.5,-472.5"/>
<text text-anchor="start" x="626.5" y="-477.5" font-family="Times,serif" font-size="10.00">hero </text>
<text text-anchor="start" x="653.5" y="-477.5" font-family="Times,serif" font-weight="bold" font-size="10.00">is located in</text>
<text text-anchor="start" x="723.5" y="-477.5" font-family="Times,serif" font-size="10.00"> place_7</text>
<polygon fill="#ffffff" stroke="transparent" points="625.5,-459.5 625.5,-472.5 993.5,-472.5 993.5,-459.5 625.5,-459.5"/>
<text text-anchor="start" x="626.5" y="-464.5" font-family="Times,serif" font-weight="bold" font-size="10.00">give reward to </text>
<text text-anchor="start" x="710.5" y="-464.5" font-family="Times,serif" font-size="10.00">  hero </text>
<text text-anchor="start" x="743.5" y="-464.5" font-family="Times,serif" font-weight="bold" font-size="10.00">of type </text>
<text text-anchor="start" x="786.5" y="-464.5" font-family="Times,serif" font-size="10.00"> open_up_finish </text>
<text text-anchor="start" x="871.5" y="-464.5" font-family="Times,serif" font-weight="bold" font-size="10.00">in the amount of</text>
<text text-anchor="start" x="967.5" y="-464.5" font-family="Times,serif" font-size="10.00"> 1.00</text>
<polygon fill="#eeeeee" stroke="transparent" points="625.5,-446.5 625.5,-459.5 993.5,-459.5 993.5,-446.5 625.5,-446.5"/>
<text text-anchor="start" x="626.5" y="-451.5" font-family="Times,serif" font-weight="bold" font-size="10.00">results:</text>
<text text-anchor="start" x="626.5" y="-438.5" font-family="Times,serif" font-weight="bold" font-size="10.00">person_1</text>
<text text-anchor="start" x="838.5" y="-437.5" font-family="Times,serif" font-size="10.00">failed</text>
<text text-anchor="start" x="626.5" y="-425.5" font-family="Times,serif" font-weight="bold" font-size="10.00">person_7</text>
<text text-anchor="start" x="838.5" y="-424.5" font-family="Times,serif" font-size="10.00">successed</text>
<polygon fill="none" stroke="black" points="624.5,-420 624.5,-513 994.5,-513 994.5,-420 624.5,-420"/>
</g>
<!-- [ns&#45;0]open_up_lying -->
<g id="node10" class="node">
<title>[ns&#45;0]open_up_lying</title>
<polygon fill="#eeeeee" stroke="transparent" points="1029,-420 1029,-513 1396,-513 1396,-420 1029,-420"/>
<text text-anchor="start" x="1031.5" y="-503.5" font-family="Times,serif" font-style="italic" font-size="10.00">[ns&#45;0]open_up_lying</text>
<text text-anchor="start" x="1031.5" y="-489.5" font-family="Times,serif" font-size="10.00">Return to the client and report false information</text>
<polygon fill="#dddddd" stroke="transparent" points="1030.5,-472.5 1030.5,-485.5 1395.5,-485.5 1395.5,-472.5 1030.5,-472.5"/>
<text text-anchor="start" x="1031.5" y="-477.5" font-family="Times,serif" font-size="10.00">hero </text>
<text text-anchor="start" x="1058.5" y="-477.5" font-family="Times,serif" font-weight="bold" font-size="10.00">is located in</text>
<text text-anchor="start" x="1128.5" y="-477.5" font-family="Times,serif" font-size="10.00"> place_1</text>
<polygon fill="#ffffff" stroke="transparent" points="1030.5,-459.5 1030.5,-472.5 1395.5,-472.5 1395.5,-459.5 1030.5,-459.5"/>
<text text-anchor="start" x="1031.5" y="-464.5" font-family="Times,serif" font-weight="bold" font-size="10.00">give reward to </text>
<text text-anchor="start" x="1115.5" y="-464.5" font-family="Times,serif" font-size="10.00">  hero </text>
<text text-anchor="start" x="1148.5" y="-464.5" font-family="Times,serif" font-weight="bold" font-size="10.00">of type </text>
<text text-anchor="start" x="1191.5" y="-464.5" font-family="Times,serif" font-size="10.00"> open_up_lying </text>
<text text-anchor="start" x="1273.5" y="-464.5" font-family="Times,serif" font-weight="bold" font-size="10.00">in the amount of</text>
<text text-anchor="start" x="1369.5" y="-464.5" font-family="Times,serif" font-size="10.00"> 1.50</text>
<polygon fill="#eeeeee" stroke="transparent" points="1030.5,-446.5 1030.5,-459.5 1395.5,-459.5 1395.5,-446.5 1030.5,-446.5"/>
<text text-anchor="start" x="1031.5" y="-451.5" font-family="Times,serif" font-weight="bold" font-size="10.00">results:</text>
<text text-anchor="start" x="1031.5" y="-438.5" font-family="Times,serif" font-weight="bold" font-size="10.00">person_1</text>
<text text-anchor="start" x="1240.5" y="-437.5" font-family="Times,serif" font-size="10.00">failed</text>
<text text-anchor="start" x="1031.5" y="-425.5" font-family="Times,serif" font-weight="bold" font-size="10.00">person_7</text>
<text text-anchor="start" x="1240.5" y="-424.5" font-family="Times,serif" font-size="10.00">successed</text>
<polygon fill="none" stroke="black" points="1029,-420 1029,-513 1396,-513 1396,-420 1029,-420"/>
</g>
<!-- [ns&#45;0]blackmail_finish -->
<g id="node11" class="node">
<title>[ns&#45;0]blackmail_finish</title>
<polygon fill="#eeeeee" stroke="transparent" points="393.5,-4 393.5,-97 767.5,-97 767.5,-4 393.5,-4"/>
<text text-anchor="start" x="395.5" y="-87.5" font-family="Times,serif" font-style="italic" font-size="10.00">[ns&#45;0]blackmail_finish</text>
<text text-anchor="start" x="395.5" y="-73.5" font-family="Times,serif" font-size="10.00">Blackmail independently</text>
<polygon fill="#dddddd" stroke="transparent" points="394.5,-56.5 394.5,-69.5 766.5,-69.5 766.5,-56.5 394.5,-56.5"/>
<text text-anchor="start" x="395.5" y="-61.5" font-family="Times,serif" font-size="10.00">hero </text>
<text text-anchor="start" x="422.5" y="-61.5" font-family="Times,serif" font-weight="bold" font-size="10.00">is located in</text>
<text text-anchor="start" x="492.5" y="-61.5" font-family="Times,serif" font-size="10.00"> place_7</text>
<polygon fill="#ffffff" stroke="transparent" points="394.5,-43.5 394.5,-56.5 766.5,-56.5 766.5,-43.5 394.5,-43.5"/>
<text text-anchor="start" x="395.5" y="-48.5" font-family="Times,serif" font-weight="bold" font-size="10.00">give reward to </text>
<text text-anchor="start" x="479.5" y="-48.5" font-family="Times,serif" font-size="10.00">  hero </text>
<text text-anchor="start" x="512.5" y="-48.5" font-family="Times,serif" font-weight="bold" font-size="10.00">of type </text>
<text text-anchor="start" x="555.5" y="-48.5" font-family="Times,serif" font-size="10.00"> blackmail_finish </text>
<text text-anchor="start" x="644.5" y="-48.5" font-family="Times,serif" font-weight="bold" font-size="10.00">in the amount of</text>
<text text-anchor="start" x="740.5" y="-48.5" font-family="Times,serif" font-size="10.00"> 1.25</text>
<polygon fill="#eeeeee" stroke="transparent" points="394.5,-30.5 394.5,-43.5 766.5,-43.5 766.5,-30.5 394.5,-30.5"/>
<text text-anchor="start" x="395.5" y="-35.5" font-family="Times,serif" font-weight="bold" font-size="10.00">results:</text>
<text text-anchor="start" x="395.5" y="-22.5" font-family="Times,serif" font-weight="bold" font-size="10.00">person_1</text>
<text text-anchor="start" x="618.5" y="-21.5" font-family="Times,serif" font-size="10.00">neutral</text>
<text text-anchor="start" x="395.5" y="-9.5" font-family="Times,serif" font-weight="bold" font-size="10.00">person_7</text>
<text text-anchor="start" x="618.5" y="-8.5" font-family="Times,serif" font-size="10.00">failed</text>
<polygon fill="none" stroke="black" points="393.5,-4 393.5,-97 767.5,-97 767.5,-4 393.5,-4"/>
</g>
<!-- [ns&#45;0]continue_spying -->
<g id="node12" class="node">
<title>[ns&#45;0]continue_spying</title>
<polygon fill="#ddffdd" stroke="transparent" points="591.5,-695 591.5,-723 709.5,-723 709.5,-695 591.5,-695"/>
<text text-anchor="start" x="593.5" y="-714" font-family="Times,serif" font-style="italic" font-size="10.00">[ns&#45;0]continue_spying</text>
<text text-anchor="start" x="593.5" y="-700" font-family="Times,serif" font-size="10.00">Continue spying</text>
<polygon fill="none" stroke="black" points="591.5,-695 591.5,-723 709.5,-723 709.5,-695 591.5,-695"/>
</g>
<!-- [ns&#45;0]continue_spying&#45;&gt;[ns&#45;0]success_spying -->
<g id="edge26" class="edge">
<title>[ns&#45;0]continue_spying:[ns&#45;0]continue_spying&#45;&gt;[ns&#45;0]success_spying:[ns&#45;0]success_spying</title>
<path fill="none" stroke="black" d="M591.38,-698.13C561.37,-692.02 524.76,-682.85 493.5,-670 474.37,-662.14 454.66,-651.32 437.22,-640.65"/>
<polygon fill="black" stroke="black" points="438.66,-637.42 428.32,-635.1 434.96,-643.36 438.66,-637.42"/>
</g>
<!-- [ns&#45;0]continue_spying&#45;&gt;[ns&#45;0]witness -->
<g id="edge27" class="edge">
<title>[ns&#45;0]continue_spying:[ns&#45;0]continue_spying&#45;&gt;[ns&#45;0]witness:[ns&#45;0]witness</title>
<path fill="none" stroke="black" d="M650.5,-694.64C650.5,-682.22 650.5,-663.02 650.5,-645.37"/>
<polygon fill="black" stroke="black" points="654,-645.21 650.5,-635.21 647,-645.21 654,-645.21"/>
</g>
<!-- #option([ns&#45;0]start_spying, [ns&#45;0]spying_middle, spy) -->
<g id="node17" class="node">
<title>#option([ns&#45;0]start_spying, [ns&#45;0]spying_middle, spy)</title>
<polygon fill="#555555" stroke="transparent" points="706,-991 569,-991 569,-944 706,-944 706,-991"/>
<polygon fill="#ffffff" stroke="transparent" points="577.5,-973.5 577.5,-986.5 698.5,-986.5 698.5,-973.5 577.5,-973.5"/>
<text text-anchor="start" x="578.5" y="-977.5" font-family="Times,serif" font-size="10.00">spy</text>
<polygon fill="#aadddd" stroke="transparent" points="577.5,-960.5 577.5,-973.5 698.5,-973.5 698.5,-960.5 577.5,-960.5"/>
<text text-anchor="start" x="578.5" y="-964.5" font-family="Times,serif" font-size="10.00">[honor]</text>
<polygon fill="#eeeeee" stroke="transparent" points="577.5,-947.5 577.5,-960.5 698.5,-960.5 698.5,-947.5 577.5,-947.5"/>
<text text-anchor="start" x="578.5" y="-952.5" font-family="Times,serif" font-weight="bold" font-size="10.00">message:</text>
<text text-anchor="start" x="630.5" y="-952.5" font-family="Times,serif" font-size="10.00"> start_spying</text>
</g>
<!-- [ns&#45;0]start_spying&#45;&gt;#option([ns&#45;0]start_spying, [ns&#45;0]spying_middle, spy) -->
<g id="edge7" class="edge">
<title>[ns&#45;0]start_spying:[ns&#45;0]start_spying&#45;&gt;#option([ns&#45;0]start_spying, [ns&#45;0]spying_middle, spy):#option([ns&#45;0]start_spying, [ns&#45;0]spying_middle, spy)</title>
<path fill="none" stroke="black" stroke-dasharray="1,5" d="M746.83,-1030.93C722.19,-1016.85 692.34,-999.81 670.06,-987.09"/>
</g>
<!-- #option([ns&#45;0]start_spying, [ns&#45;0]open_up, open_up) -->
<g id="node19" class="node">
<title>#option([ns&#45;0]start_spying, [ns&#45;0]open_up, open_up)</title>
<polygon fill="#ffffff" stroke="transparent" points="887.5,-973.5 887.5,-986.5 1017.5,-986.5 1017.5,-973.5 887.5,-973.5"/>
<text text-anchor="start" x="888.5" y="-977.5" font-family="Times,serif" font-size="10.00">open_up</text>
<polygon fill="#aadddd" stroke="transparent" points="887.5,-960.5 887.5,-973.5 1017.5,-973.5 1017.5,-960.5 887.5,-960.5"/>
<text text-anchor="start" x="888.5" y="-964.5" font-family="Times,serif" font-size="10.00">[dishonor]</text>
<polygon fill="#eeeeee" stroke="transparent" points="887.5,-947.5 887.5,-960.5 1017.5,-960.5 1017.5,-947.5 887.5,-947.5"/>
<text text-anchor="start" x="888.5" y="-952.5" font-family="Times,serif" font-weight="bold" font-size="10.00">message:</text>
<text text-anchor="start" x="940.5" y="-952.5" font-family="Times,serif" font-size="10.00"> start_open_up</text>
</g>
<!-- [ns&#45;0]start_spying&#45;&gt;#option([ns&#45;0]start_spying, [ns&#45;0]open_up, open_up) -->
<g id="edge11" class="edge">
<title>[ns&#45;0]start_spying:[ns&#45;0]start_spying&#45;&gt;#option([ns&#45;0]start_spying, [ns&#45;0]open_up, open_up):#option([ns&#45;0]start_spying, [ns&#45;0]open_up, open_up)</title>
<path fill="none" stroke="black" stroke-dasharray="1,5" d="M839.64,-1030.93C865.08,-1016.85 895.89,-999.81 918.89,-987.09"/>
</g>
<!-- #option([ns&#45;0]start_spying, [ns&#45;0]spying_middle, blackmail) -->
<g id="node25" class="node">
<title>#option([ns&#45;0]start_spying, [ns&#45;0]spying_middle, blackmail)</title>
<polygon fill="#5555aa" stroke="transparent" points="861,-991 724,-991 724,-944 861,-944 861,-991"/>
<polygon fill="#ffffff" stroke="transparent" points="732.5,-973.5 732.5,-986.5 853.5,-986.5 853.5,-973.5 732.5,-973.5"/>
<text text-anchor="start" x="733.5" y="-977.5" font-family="Times,serif" font-size="10.00">blackmail</text>
<polygon fill="#aadddd" stroke="transparent" points="732.5,-960.5 732.5,-973.5 853.5,-973.5 853.5,-960.5 732.5,-960.5"/>
<text text-anchor="start" x="733.5" y="-964.5" font-family="Times,serif" font-size="10.00">[dishonor]</text>
<polygon fill="#eeeeee" stroke="transparent" points="732.5,-947.5 732.5,-960.5 853.5,-960.5 853.5,-947.5 732.5,-947.5"/>
<text text-anchor="start" x="733.5" y="-952.5" font-family="Times,serif" font-weight="bold" font-size="10.00">message:</text>
<text text-anchor="start" x="785.5" y="-952.5" font-family="Times,serif" font-size="10.00"> start_spying</text>
</g>
<!-- [ns&#45;0]start_spying&#45;&gt;#option([ns&#45;0]start_spying, [ns&#45;0]spying_middle, blackmail) -->
<g id="edge24" class="edge">
<title>[ns&#45;0]start_spying:[ns&#45;0]start_spying&#45;&gt;#option([ns&#45;0]start_spying, [ns&#45;0]spying_middle, blackmail):#option([ns&#45;0]start_spying, [ns&#45;0]spying_middle, blackmail)</title>
<path fill="none" stroke="black" stroke-dasharray="1,5" d="M792.5,-1030.93C792.5,-1016.85 792.5,-999.81 792.5,-987.09"/>
</g>
<!-- [ns&#45;0]open_up -->
<g id="node14" class="node">
<title>[ns&#45;0]open_up</title>
<polygon fill="#ddffdd" stroke="transparent" points="881,-682 881,-736 1024,-736 1024,-682 881,-682"/>
<text text-anchor="start" x="883.5" y="-727" font-family="Times,serif" font-style="italic" font-size="10.00">[ns&#45;0]open_up</text>
<text text-anchor="start" x="883.5" y="-713" font-family="Times,serif" font-size="10.00">Reveal yourself</text>
<polygon fill="#cceecc" stroke="transparent" points="882.5,-696 882.5,-709 1023.5,-709 1023.5,-696 882.5,-696"/>
<text text-anchor="start" x="883.5" y="-701" font-family="Times,serif" font-size="10.00">hero </text>
<text text-anchor="start" x="910.5" y="-701" font-family="Times,serif" font-weight="bold" font-size="10.00">is located in</text>
<text text-anchor="start" x="980.5" y="-701" font-family="Times,serif" font-size="10.00"> place_7</text>
<polygon fill="#eeffee" stroke="transparent" points="882.5,-683 882.5,-696 1023.5,-696 1023.5,-683 882.5,-683"/>
<text text-anchor="start" x="883.5" y="-688" font-family="Times,serif" font-weight="bold" font-size="10.00">message:</text>
<text text-anchor="start" x="935.5" y="-688" font-family="Times,serif" font-size="10.00"> open_up</text>
<polygon fill="none" stroke="black" points="881,-682 881,-736 1024,-736 1024,-682 881,-682"/>
</g>
<!-- [ns&#45;0]open_up&#45;&gt;[ns&#45;0]open_up_finish -->
<g id="edge17" class="edge">
<title>[ns&#45;0]open_up:[ns&#45;0]open_up&#45;&gt;[ns&#45;0]open_up_finish:[ns&#45;0]open_up_finish</title>
<path fill="none" stroke="black" d="M936.92,-681.8C914.25,-643.68 871.64,-572 841.96,-522.09"/>
<polygon fill="black" stroke="black" points="844.88,-520.16 836.76,-513.35 838.87,-523.74 844.88,-520.16"/>
</g>
<!-- #jump([ns&#45;0]open_up, [ns&#45;0]open_up_lying) -->
<g id="node24" class="node">
<title>#jump([ns&#45;0]open_up, [ns&#45;0]open_up_lying)</title>
<polygon fill="#eeeeee" stroke="transparent" points="1030.5,-594.5 1030.5,-607.5 1184.5,-607.5 1184.5,-594.5 1030.5,-594.5"/>
<text text-anchor="start" x="1031.5" y="-599.5" font-family="Times,serif" font-weight="bold" font-size="10.00">message:</text>
<text text-anchor="start" x="1083.5" y="-599.5" font-family="Times,serif" font-size="10.00"> move_to_report_lie</text>
</g>
<!-- [ns&#45;0]open_up&#45;&gt;#jump([ns&#45;0]open_up, [ns&#45;0]open_up_lying) -->
<g id="edge22" class="edge">
<title>[ns&#45;0]open_up:[ns&#45;0]open_up&#45;&gt;#jump([ns&#45;0]open_up, [ns&#45;0]open_up_lying):#jump([ns&#45;0]open_up, [ns&#45;0]open_up_lying)</title>
<path fill="none" stroke="black" d="M990.81,-681.92C1027.21,-657.15 1079.26,-621.72 1099.25,-608.12"/>
</g>
<!-- #option([ns&#45;0]finish_spying_choice, [ns&#45;0]report_data, spy)&#45;&gt;[ns&#45;0]report_data -->
<g id="edge4" class="edge">
<title>#option([ns&#45;0]finish_spying_choice, [ns&#45;0]report_data, spy):#option([ns&#45;0]finish_spying_choice, [ns&#45;0]report_data, spy)&#45;&gt;[ns&#45;0]report_data:[ns&#45;0]report_data</title>
<path fill="none" stroke="black" stroke-dasharray="1,5" d="M279.56,-140.93C268.53,-130.66 254.2,-117.33 240,-104.11"/>
<polygon fill="black" stroke="black" points="242.31,-101.47 232.61,-97.22 237.54,-106.59 242.31,-101.47"/>
</g>
<!-- #option([ns&#45;0]spying_middle, [ns&#45;0]continue_spying, blackmail)&#45;&gt;[ns&#45;0]continue_spying -->
<g id="edge6" class="edge">
<title>#option([ns&#45;0]spying_middle, [ns&#45;0]continue_spying, blackmail):#option([ns&#45;0]spying_middle, [ns&#45;0]continue_spying, blackmail)&#45;&gt;[ns&#45;0]continue_spying:[ns&#45;0]continue_spying</title>
<path fill="none" stroke="black" stroke-dasharray="1,5" d="M650.5,-786.19C650.5,-772.56 650.5,-750.26 650.5,-733.29"/>
<polygon fill="black" stroke="black" points="654,-733.06 650.5,-723.06 647,-733.06 654,-733.06"/>
</g>
<!-- #option([ns&#45;0]start_spying, [ns&#45;0]spying_middle, spy)&#45;&gt;[ns&#45;0]spying_middle -->
<g id="edge8" class="edge">
<title>#option([ns&#45;0]start_spying, [ns&#45;0]spying_middle, spy):#option([ns&#45;0]start_spying, [ns&#45;0]spying_middle, spy)&#45;&gt;[ns&#45;0]spying_middle:[ns&#45;0]spying_middle</title>
<path fill="none" stroke="black" stroke-dasharray="1,5" d="M659.06,-947.89C671.69,-936.99 687.85,-923.04 701.79,-911.01"/>
<polygon fill="black" stroke="black" points="704.42,-913.36 709.7,-904.18 699.85,-908.06 704.42,-913.36"/>
</g>
<!-- #option([ns&#45;0]spying_middle, [ns&#45;0]open_up, open_up)&#45;&gt;[ns&#45;0]open_up -->
<g id="edge10" class="edge">
<title>#option([ns&#45;0]spying_middle, [ns&#45;0]open_up, open_up):#option([ns&#45;0]spying_middle, [ns&#45;0]open_up, open_up)&#45;&gt;[ns&#45;0]open_up:[ns&#45;0]open_up</title>
<path fill="none" stroke="black" stroke-dasharray="1,5" d="M872.92,-779.73C885.13,-769.03 900.79,-755.31 914.98,-742.87"/>
<polygon fill="black" stroke="black" points="917.47,-745.35 922.68,-736.13 912.86,-740.08 917.47,-745.35"/>
</g>
<!-- #option([ns&#45;0]start_spying, [ns&#45;0]open_up, open_up)&#45;&gt;[ns&#45;0]open_up -->
<g id="edge12" class="edge">
<title>#option([ns&#45;0]start_spying, [ns&#45;0]open_up, open_up):#option([ns&#45;0]start_spying, [ns&#45;0]open_up, open_up)&#45;&gt;[ns&#45;0]open_up:[ns&#45;0]open_up</title>
<path fill="none" stroke="black" stroke-dasharray="1,5" d="M952.5,-947.64C952.5,-905.25 952.5,-801.84 952.5,-746.44"/>
<polygon fill="black" stroke="black" points="956,-746.36 952.5,-736.36 949,-746.36 956,-746.36"/>
</g>
<!-- #option([ns&#45;0]finish_spying_choice, [ns&#45;0]blackmail_finish, blackmail)&#45;&gt;[ns&#45;0]blackmail_finish -->
<g id="edge14" class="edge">
<title>#option([ns&#45;0]finish_spying_choice, [ns&#45;0]blackmail_finish, blackmail):#option([ns&#45;0]finish_spying_choice, [ns&#45;0]blackmail_finish, blackmail)&#45;&gt;[ns&#45;0]blackmail_finish:[ns&#45;0]blackmail_finish</title>
<path fill="none" stroke="black" stroke-dasharray="1,5" d="M531.78,-140.69C537.09,-130.96 543.88,-118.54 550.69,-106.07"/>
<polygon fill="black" stroke="black" points="553.91,-107.48 555.63,-97.03 547.76,-104.13 553.91,-107.48"/>
</g>
<!-- #option([ns&#45;0]spying_middle, [ns&#45;0]continue_spying, spy)&#45;&gt;[ns&#45;0]continue_spying -->
<g id="edge16" class="edge">
<title>#option([ns&#45;0]spying_middle, [ns&#45;0]continue_spying, spy):#option([ns&#45;0]spying_middle, [ns&#45;0]continue_spying, spy)&#45;&gt;[ns&#45;0]continue_spying:[ns&#45;0]continue_spying</title>
<path fill="none" stroke="black" stroke-dasharray="1,5" d="M721.1,-786.19C707.74,-771.78 685.41,-747.68 669.44,-730.44"/>
<polygon fill="black" stroke="black" points="671.97,-728.02 662.6,-723.06 666.83,-732.78 671.97,-728.02"/>
</g>
<!-- #answer(False, [ns&#45;0]witness_fight, [ns&#45;0]witness_failed)&#45;&gt;[ns&#45;0]witness_failed -->
<g id="edge19" class="edge">
<title>#answer(False, [ns&#45;0]witness_fight, [ns&#45;0]witness_failed):#answer(False, [ns&#45;0]witness_fight, [ns&#45;0]witness_failed)&#45;&gt;[ns&#45;0]witness_failed:[ns&#45;0]witness_failed</title>
<path fill="none" stroke="black" d="M577.47,-355.28C580.34,-346.91 585.98,-330.52 591.67,-313.97"/>
<polygon fill="black" stroke="black" points="595.06,-314.87 595,-304.27 588.44,-312.59 595.06,-314.87"/>
</g>
<!-- #answer(True, [ns&#45;0]witness_fight, [ns&#45;0]finish_spying_choice)&#45;&gt;[ns&#45;0]finish_spying_choice -->
<g id="edge21" class="edge">
<title>#answer(True, [ns&#45;0]witness_fight, [ns&#45;0]finish_spying_choice):#answer(True, [ns&#45;0]witness_fight, [ns&#45;0]finish_spying_choice)&#45;&gt;[ns&#45;0]finish_spying_choice:[ns&#45;0]finish_spying_choice</title>
<path fill="none" stroke="black" d="M465.2,-355.28C452.8,-341.91 421.4,-308.04 400.78,-285.8"/>
<polygon fill="black" stroke="black" points="403.09,-283.14 393.73,-278.19 397.96,-287.9 403.09,-283.14"/>
</g>
<!-- #jump([ns&#45;0]open_up, [ns&#45;0]open_up_lying)&#45;&gt;[ns&#45;0]open_up_lying -->
<g id="edge23" class="edge">
<title>#jump([ns&#45;0]open_up, [ns&#45;0]open_up_lying):#jump([ns&#45;0]open_up, [ns&#45;0]open_up_lying)&#45;&gt;[ns&#45;0]open_up_lying:[ns&#45;0]open_up_lying</title>
<path fill="none" stroke="black" d="M1112.01,-594.79C1122.09,-582.01 1147.35,-550.02 1170.02,-521.31"/>
<polygon fill="black" stroke="black" points="1172.88,-523.34 1176.33,-513.32 1167.38,-519 1172.88,-523.34"/>
</g>
<!-- #option([ns&#45;0]start_spying, [ns&#45;0]spying_middle, blackmail)&#45;&gt;[ns&#45;0]spying_middle -->
<g id="edge25" class="edge">
<title>#option([ns&#45;0]start_spying, [ns&#45;0]spying_middle, blackmail):#option([ns&#45;0]start_spying, [ns&#45;0]spying_middle, blackmail)&#45;&gt;[ns&#45;0]spying_middle:[ns&#45;0]spying_middle</title>
<path fill="none" stroke="black" stroke-dasharray="1,5" d="M778.89,-947.89C771.21,-937.4 761.46,-924.08 752.89,-912.36"/>
<polygon fill="black" stroke="black" points="755.63,-910.18 746.9,-904.18 749.98,-914.31 755.63,-910.18"/>
</g>
</g>
</svg>
