<?xml version="1.0" encoding="UTF-8" standalone="no"?>
<!DOCTYPE svg PUBLIC "-//W3C//DTD SVG 1.1//EN"
 "http://www.w3.org/Graphics/SVG/1.1/DTD/svg11.dtd">
<!-- Generated by graphviz version 2.38.0 (20140413.2041)
 -->
<!-- Title: quest Pages: 1 -->
<svg width="1165pt" height="1208pt"
 viewBox="0.00 0.00 1165.00 1208.00" xmlns="http://www.w3.org/2000/svg" xmlns:xlink="http://www.w3.org/1999/xlink">
<g id="graph0" class="graph" transform="scale(1 1) rotate(0) translate(4 1204)">
<title>quest</title>
<polygon fill="white" stroke="none" points="-4,4 -4,-1204 1161,-1204 1161,4 -4,4"/>
<g id="clust2" class="cluster"><title>cluster_[ns&#45;0]spying_variants</title>
<polygon fill="#ffffdd" stroke="black" points="140,-556 140,-670 558,-670 558,-556 140,-556"/>
<text text-anchor="middle" x="349" y="-654.8" font-family="Times,serif" font-size="14.00">cluster_[ns&#45;0]spying_variants</text>
</g>
<g id="clust1" class="cluster"><title>cluster_[ns&#45;0]open_up_variants</title>
<polygon fill="#ffffdd" stroke="black" points="561,-408 561,-548 1149,-548 1149,-408 561,-408"/>
<text text-anchor="middle" x="855" y="-532.8" font-family="Times,serif" font-size="14.00">cluster_[ns&#45;0]open_up_variants</text>
</g>
<!-- [ns&#45;0]witness_failed -->
<g id="node1" class="node"><title>[ns&#45;0]witness_failed</title>
<polygon fill="#eeeeee" stroke="none" points="373,-224 373,-304 493,-304 493,-224 373,-224"/>
<text text-anchor="start" x="375" y="-295" font-family="Times,serif" font-style="italic" font-size="10.00">[ns&#45;0]witness_failed</text>
<text text-anchor="start" x="375" y="-281" font-family="Times,serif" font-size="10.00">свидетель смог скрыться</text>
<polygon fill="#ffffff" stroke="none" points="374,-264 374,-277 492,-277 492,-264 374,-264"/>
<text text-anchor="start" x="375" y="-269" font-family="Times,serif" font-weight="bold" font-size="10.00">сообщение:</text>
<text text-anchor="start" x="427" y="-269" font-family="Times,serif" font-size="10.00"> witness_failed</text>
<polygon fill="#eeeeee" stroke="none" points="374,-251 374,-264 492,-264 492,-251 374,-251"/>
<text text-anchor="start" x="375" y="-256" font-family="Times,serif" font-weight="bold" font-size="10.00">результаты:</text>
<text text-anchor="start" x="375" y="-243" font-family="Times,serif" font-weight="bold" font-size="10.00">person_1</text>
<text text-anchor="start" x="462" y="-242" font-family="Times,serif" font-size="10.00">neutral</text>
<text text-anchor="start" x="375" y="-230" font-family="Times,serif" font-weight="bold" font-size="10.00">person_9</text>
<text text-anchor="start" x="462" y="-229" font-family="Times,serif" font-size="10.00">neutral</text>
<polygon fill="none" stroke="black" points="373,-224 373,-304 493,-304 493,-224 373,-224"/>
</g>
<!-- [ns&#45;0]start -->
<g id="node2" class="node"><title>[ns&#45;0]start</title>
<polygon fill="#eeeeee" stroke="none" points="498,-1129 498,-1196 632,-1196 632,-1129 498,-1129"/>
<text text-anchor="start" x="500" y="-1186.5" font-family="Times,serif" font-style="italic" font-size="10.00">[ns&#45;0]start</text>
<text text-anchor="start" x="588" y="-1186.5" font-family="Times,serif" font-weight="bold" font-size="10.00">spying</text>
<text text-anchor="start" x="500" y="-1172.5" font-family="Times,serif" font-size="10.00">Начало: задание на шпионаж</text>
<polygon fill="#dddddd" stroke="none" points="499,-1155.5 499,-1168.5 631,-1168.5 631,-1155.5 499,-1155.5"/>
<text text-anchor="start" x="500" y="-1160.5" font-family="Times,serif" font-size="10.00">hero </text>
<text text-anchor="start" x="521" y="-1160.5" font-family="Times,serif" font-weight="bold" font-size="10.00">находится в</text>
<text text-anchor="start" x="576" y="-1160.5" font-family="Times,serif" font-size="10.00"> place_1</text>
<polygon fill="#dddddd" stroke="none" points="499,-1142.5 499,-1155.5 631,-1155.5 631,-1142.5 499,-1142.5"/>
<text text-anchor="start" x="500" y="-1147.5" font-family="Times,serif" font-size="10.00">person_9 </text>
<text text-anchor="start" x="540" y="-1147.5" font-family="Times,serif" font-weight="bold" font-size="10.00">находится в</text>
<text text-anchor="start" x="595" y="-1147.5" font-family="Times,serif" font-size="10.00"> place_9</text>
<polygon fill="#ffffff" stroke="none" points="499,-1129.5 499,-1142.5 631,-1142.5 631,-1129.5 499,-1129.5"/>
<text text-anchor="start" x="500" y="-1134.5" font-family="Times,serif" font-weight="bold" font-size="10.00">сообщение:</text>
<text text-anchor="start" x="552" y="-1134.5" font-family="Times,serif" font-size="10.00"> intro</text>
<polygon fill="none" stroke="black" points="498,-1129 498,-1196 632,-1196 632,-1129 498,-1129"/>
</g>
<!-- [ns&#45;0]start_spying -->
<g id="node4" class="node"><title>[ns&#45;0]start_spying</title>
<polygon fill="#ddddff" stroke="none" points="500.5,-1031 500.5,-1085 629.5,-1085 629.5,-1031 500.5,-1031"/>
<text text-anchor="start" x="503" y="-1076" font-family="Times,serif" font-style="italic" font-size="10.00">[ns&#45;0]start_spying</text>
<text text-anchor="start" x="503" y="-1062" font-family="Times,serif" font-size="10.00">Прибытие в город цели</text>
<polygon fill="#ccccee" stroke="none" points="502,-1045 502,-1058 629,-1058 629,-1045 502,-1045"/>
<text text-anchor="start" x="503" y="-1050" font-family="Times,serif" font-size="10.00">hero </text>
<text text-anchor="start" x="524" y="-1050" font-family="Times,serif" font-weight="bold" font-size="10.00">находится в</text>
<text text-anchor="start" x="579" y="-1050" font-family="Times,serif" font-size="10.00"> place_9</text>
<polygon fill="#eeeeff" stroke="none" points="502,-1032 502,-1045 629,-1045 629,-1032 502,-1032"/>
<text text-anchor="start" x="503" y="-1037" font-family="Times,serif" font-weight="bold" font-size="10.00">сообщение:</text>
<text text-anchor="start" x="555" y="-1037" font-family="Times,serif" font-size="10.00"> arrived_to_target</text>
<polygon fill="none" stroke="black" points="500.5,-1031 500.5,-1085 629.5,-1085 629.5,-1031 500.5,-1031"/>
</g>
<!-- [ns&#45;0]start&#45;&gt;[ns&#45;0]start_spying -->
<g id="edge5" class="edge"><title>[ns&#45;0]start:[ns&#45;0]start&#45;&gt;[ns&#45;0]start_spying:[ns&#45;0]start_spying</title>
<path fill="none" stroke="black" d="M565,-1128.79C565,-1118.13 565,-1106.24 565,-1095.33"/>
<polygon fill="black" stroke="black" points="568.5,-1095.25 565,-1085.25 561.5,-1095.25 568.5,-1095.25"/>
</g>
<!-- [ns&#45;0]witness_fight -->
<g id="node3" class="node"><title>[ns&#45;0]witness_fight</title>
<polygon fill="#ffdddd" stroke="none" points="361,-426.5 361,-506.5 505,-506.5 505,-426.5 361,-426.5"/>
<text text-anchor="start" x="363" y="-497.5" font-family="Times,serif" font-style="italic" font-size="10.00">[ns&#45;0]witness_fight</text>
<text text-anchor="start" x="363" y="-483.5" font-family="Times,serif" font-size="10.00">удалось ли победить свидетеля?</text>
<polygon fill="#ffeeee" stroke="none" points="362,-466.5 362,-479.5 504,-479.5 504,-466.5 362,-466.5"/>
<text text-anchor="start" x="363" y="-471.5" font-family="Times,serif" font-weight="bold" font-size="10.00">сообщение:</text>
<text text-anchor="start" x="415" y="-471.5" font-family="Times,serif" font-size="10.00"> witness_fight</text>
<polygon fill="#ffeeee" stroke="none" points="362,-453.5 362,-466.5 504,-466.5 504,-453.5 362,-453.5"/>
<text text-anchor="start" x="363" y="-458.5" font-family="Times,serif" font-weight="bold" font-size="10.00">сразиться с наёмником</text>
<polygon fill="#ffdddd" stroke="none" points="362,-440.5 362,-453.5 504,-453.5 504,-440.5 362,-440.5"/>
<text text-anchor="start" x="363" y="-445.5" font-family="Times,serif" font-weight="bold" font-size="10.00">условия:</text>
<text text-anchor="start" x="363" y="-432.5" font-family="Times,serif" font-weight="bold" font-size="10.00">если </text>
<polygon fill="#ffdddd" stroke="none" points="453,-427.5 453,-440.5 504,-440.5 504,-427.5 453,-427.5"/>
<text text-anchor="start" x="454" y="-432.5" font-family="Times,serif" font-size="10.00">hero </text>
<text text-anchor="start" x="475" y="-432.5" font-family="Times,serif" font-weight="bold" font-size="10.00">жив</text>
<polygon fill="none" stroke="black" points="361,-426.5 361,-506.5 505,-506.5 505,-426.5 361,-426.5"/>
</g>
<!-- #answer(True, [ns&#45;0]witness_fight, [ns&#45;0]finish_spying_choice) -->
<g id="node17" class="node"><title>#answer(True, [ns&#45;0]witness_fight, [ns&#45;0]finish_spying_choice)</title>
<polygon fill="#ffffff" stroke="none" points="312,-355 312,-368 357,-368 357,-355 312,-355"/>
<text text-anchor="start" x="313" y="-359" font-family="Times,serif" font-size="10.00">ИСТИНА</text>
</g>
<!-- [ns&#45;0]witness_fight&#45;&gt;#answer(True, [ns&#45;0]witness_fight, [ns&#45;0]finish_spying_choice) -->
<g id="edge9" class="edge"><title>[ns&#45;0]witness_fight:[ns&#45;0]witness_fight&#45;&gt;#answer(True, [ns&#45;0]witness_fight, [ns&#45;0]finish_spying_choice):#answer(True, [ns&#45;0]witness_fight, [ns&#45;0]finish_spying_choice)</title>
<path fill="none" stroke="black" d="M395.29,-426.457C374.088,-404.506 349.823,-379.382 339.313,-368.501"/>
</g>
<!-- #answer(False, [ns&#45;0]witness_fight, [ns&#45;0]witness_failed) -->
<g id="node21" class="node"><title>#answer(False, [ns&#45;0]witness_fight, [ns&#45;0]witness_failed)</title>
<polygon fill="#ffffff" stroke="none" points="417,-355 417,-368 449,-368 449,-355 417,-355"/>
<text text-anchor="start" x="418" y="-359" font-family="Times,serif" font-size="10.00">ЛОЖЬ</text>
</g>
<!-- [ns&#45;0]witness_fight&#45;&gt;#answer(False, [ns&#45;0]witness_fight, [ns&#45;0]witness_failed) -->
<g id="edge17" class="edge"><title>[ns&#45;0]witness_fight:[ns&#45;0]witness_fight&#45;&gt;#answer(False, [ns&#45;0]witness_fight, [ns&#45;0]witness_failed):#answer(False, [ns&#45;0]witness_fight, [ns&#45;0]witness_failed)</title>
<path fill="none" stroke="black" d="M433,-426.457C433,-404.506 433,-379.382 433,-368.501"/>
</g>
<!-- #option([ns&#45;0]start_spying, [ns&#45;0]spying_middle, blackmail) -->
<g id="node16" class="node"><title>#option([ns&#45;0]start_spying, [ns&#45;0]spying_middle, blackmail)</title>
<polygon fill="#555555" stroke="none" points="485.5,-991 362.5,-991 362.5,-944 485.5,-944 485.5,-991"/>
<polygon fill="#ffffff" stroke="none" points="371,-973.5 371,-986.5 478,-986.5 478,-973.5 371,-973.5"/>
<text text-anchor="start" x="372" y="-977.5" font-family="Times,serif" font-size="10.00">blackmail</text>
<polygon fill="#aadddd" stroke="none" points="371,-960.5 371,-973.5 478,-973.5 478,-960.5 371,-960.5"/>
<text text-anchor="start" x="372" y="-964.5" font-family="Times,serif" font-size="10.00">[бесчестие]</text>
<polygon fill="#eeeeee" stroke="none" points="371,-947.5 371,-960.5 478,-960.5 478,-947.5 371,-947.5"/>
<text text-anchor="start" x="372" y="-952.5" font-family="Times,serif" font-weight="bold" font-size="10.00">сообщение:</text>
<text text-anchor="start" x="424" y="-952.5" font-family="Times,serif" font-size="10.00"> start_spying</text>
</g>
<!-- [ns&#45;0]start_spying&#45;&gt;#option([ns&#45;0]start_spying, [ns&#45;0]spying_middle, blackmail) -->
<g id="edge7" class="edge"><title>[ns&#45;0]start_spying:[ns&#45;0]start_spying&#45;&gt;#option([ns&#45;0]start_spying, [ns&#45;0]spying_middle, blackmail):#option([ns&#45;0]start_spying, [ns&#45;0]spying_middle, blackmail)</title>
<path fill="none" stroke="black" stroke-dasharray="1,5" d="M523.458,-1030.93C501.038,-1016.85 473.888,-999.813 453.623,-987.093"/>
</g>
<!-- #option([ns&#45;0]start_spying, [ns&#45;0]open_up, open_up) -->
<g id="node23" class="node"><title>#option([ns&#45;0]start_spying, [ns&#45;0]open_up, open_up)</title>
<polygon fill="#ffffff" stroke="none" points="653,-973.5 653,-986.5 768,-986.5 768,-973.5 653,-973.5"/>
<text text-anchor="start" x="654" y="-977.5" font-family="Times,serif" font-size="10.00">open_up</text>
<polygon fill="#aadddd" stroke="none" points="653,-960.5 653,-973.5 768,-973.5 768,-960.5 653,-960.5"/>
<text text-anchor="start" x="654" y="-964.5" font-family="Times,serif" font-size="10.00">[бесчестие]</text>
<polygon fill="#eeeeee" stroke="none" points="653,-947.5 653,-960.5 768,-960.5 768,-947.5 653,-947.5"/>
<text text-anchor="start" x="654" y="-952.5" font-family="Times,serif" font-weight="bold" font-size="10.00">сообщение:</text>
<text text-anchor="start" x="706" y="-952.5" font-family="Times,serif" font-size="10.00"> start_open_up</text>
</g>
<!-- [ns&#45;0]start_spying&#45;&gt;#option([ns&#45;0]start_spying, [ns&#45;0]open_up, open_up) -->
<g id="edge22" class="edge"><title>[ns&#45;0]start_spying:[ns&#45;0]start_spying&#45;&gt;#option([ns&#45;0]start_spying, [ns&#45;0]open_up, open_up):#option([ns&#45;0]start_spying, [ns&#45;0]open_up, open_up)</title>
<path fill="none" stroke="black" stroke-dasharray="1,5" d="M607.721,-1030.93C630.777,-1016.85 658.697,-999.813 679.537,-987.093"/>
</g>
<!-- #option([ns&#45;0]start_spying, [ns&#45;0]spying_middle, spy) -->
<g id="node24" class="node"><title>#option([ns&#45;0]start_spying, [ns&#45;0]spying_middle, spy)</title>
<polygon fill="#5555aa" stroke="none" points="626.5,-991 503.5,-991 503.5,-944 626.5,-944 626.5,-991"/>
<polygon fill="#ffffff" stroke="none" points="512,-973.5 512,-986.5 619,-986.5 619,-973.5 512,-973.5"/>
<text text-anchor="start" x="513" y="-977.5" font-family="Times,serif" font-size="10.00">spy</text>
<polygon fill="#aadddd" stroke="none" points="512,-960.5 512,-973.5 619,-973.5 619,-960.5 512,-960.5"/>
<text text-anchor="start" x="513" y="-964.5" font-family="Times,serif" font-size="10.00">[честь]</text>
<polygon fill="#eeeeee" stroke="none" points="512,-947.5 512,-960.5 619,-960.5 619,-947.5 512,-947.5"/>
<text text-anchor="start" x="513" y="-952.5" font-family="Times,serif" font-weight="bold" font-size="10.00">сообщение:</text>
<text text-anchor="start" x="565" y="-952.5" font-family="Times,serif" font-size="10.00"> start_spying</text>
</g>
<!-- [ns&#45;0]start_spying&#45;&gt;#option([ns&#45;0]start_spying, [ns&#45;0]spying_middle, spy) -->
<g id="edge24" class="edge"><title>[ns&#45;0]start_spying:[ns&#45;0]start_spying&#45;&gt;#option([ns&#45;0]start_spying, [ns&#45;0]spying_middle, spy):#option([ns&#45;0]start_spying, [ns&#45;0]spying_middle, spy)</title>
<path fill="none" stroke="black" stroke-dasharray="1,5" d="M565,-1030.93C565,-1016.85 565,-999.813 565,-987.093"/>
</g>
<!-- [ns&#45;0]open_up_lying -->
<g id="node5" class="node"><title>[ns&#45;0]open_up_lying</title>
<polygon fill="#eeeeee" stroke="none" points="577,-420 577,-513 837,-513 837,-420 577,-420"/>
<text text-anchor="start" x="579" y="-503.5" font-family="Times,serif" font-style="italic" font-size="10.00">[ns&#45;0]open_up_lying</text>
<text text-anchor="start" x="579" y="-489.5" font-family="Times,serif" font-size="10.00">Вернуться к заказчику и сообщить ложную информацию</text>
<polygon fill="#dddddd" stroke="none" points="578,-472.5 578,-485.5 836,-485.5 836,-472.5 578,-472.5"/>
<text text-anchor="start" x="579" y="-477.5" font-family="Times,serif" font-size="10.00">hero </text>
<text text-anchor="start" x="600" y="-477.5" font-family="Times,serif" font-weight="bold" font-size="10.00">находится в</text>
<text text-anchor="start" x="655" y="-477.5" font-family="Times,serif" font-size="10.00"> place_1</text>
<polygon fill="#ffffff" stroke="none" points="578,-459.5 578,-472.5 836,-472.5 836,-459.5 578,-459.5"/>
<text text-anchor="start" x="579" y="-464.5" font-family="Times,serif" font-weight="bold" font-size="10.00">выдать награду </text>
<text text-anchor="start" x="654" y="-464.5" font-family="Times,serif" font-size="10.00">  hero </text>
<text text-anchor="start" x="679" y="-464.5" font-family="Times,serif" font-weight="bold" font-size="10.00">типа </text>
<text text-anchor="start" x="703" y="-464.5" font-family="Times,serif" font-size="10.00"> open_up_lying </text>
<text text-anchor="start" x="771" y="-464.5" font-family="Times,serif" font-weight="bold" font-size="10.00">в размере</text>
<text text-anchor="start" x="814" y="-464.5" font-family="Times,serif" font-size="10.00"> 1.50</text>
<polygon fill="#eeeeee" stroke="none" points="578,-446.5 578,-459.5 836,-459.5 836,-446.5 578,-446.5"/>
<text text-anchor="start" x="579" y="-451.5" font-family="Times,serif" font-weight="bold" font-size="10.00">результаты:</text>
<text text-anchor="start" x="579" y="-438.5" font-family="Times,serif" font-weight="bold" font-size="10.00">person_1</text>
<text text-anchor="start" x="732" y="-437.5" font-family="Times,serif" font-size="10.00">failed</text>
<text text-anchor="start" x="579" y="-425.5" font-family="Times,serif" font-weight="bold" font-size="10.00">person_9</text>
<text text-anchor="start" x="732" y="-424.5" font-family="Times,serif" font-size="10.00">successed</text>
<polygon fill="none" stroke="black" points="577,-420 577,-513 837,-513 837,-420 577,-420"/>
</g>
<!-- [ns&#45;0]success_spying -->
<g id="node6" class="node"><title>[ns&#45;0]success_spying</title>
<polygon fill="#ddffdd" stroke="none" points="156,-568 156,-635 332,-635 332,-568 156,-568"/>
<text text-anchor="start" x="158" y="-625.5" font-family="Times,serif" font-style="italic" font-size="10.00">[ns&#45;0]success_spying</text>
<text text-anchor="start" x="158" y="-611.5" font-family="Times,serif" font-size="10.00">шпионим без происшествий</text>
<polygon fill="#cceecc" stroke="none" points="157,-594.5 157,-607.5 331,-607.5 331,-594.5 157,-594.5"/>
<text text-anchor="start" x="158" y="-599.5" font-family="Times,serif" font-size="10.00">hero </text>
<text text-anchor="start" x="179" y="-599.5" font-family="Times,serif" font-weight="bold" font-size="10.00">находится около</text>
<text text-anchor="start" x="255" y="-599.5" font-family="Times,serif" font-size="10.00"> place_9</text>
<polygon fill="#eeffee" stroke="none" points="157,-581.5 157,-594.5 331,-594.5 331,-581.5 157,-581.5"/>
<text text-anchor="start" x="158" y="-586.5" font-family="Times,serif" font-weight="bold" font-size="10.00">сообщение:</text>
<text text-anchor="start" x="210" y="-586.5" font-family="Times,serif" font-size="10.00"> success_spying</text>
<polygon fill="#eeffee" stroke="none" points="157,-568.5 157,-581.5 331,-581.5 331,-568.5 157,-568.5"/>
<text text-anchor="start" x="158" y="-573.5" font-family="Times,serif" font-weight="bold" font-size="10.00">отправить </text>
<text text-anchor="start" x="208" y="-573.5" font-family="Times,serif" font-size="10.00"> hero</text>
<text text-anchor="start" x="229" y="-573.5" font-family="Times,serif" font-weight="bold" font-size="10.00">бродить около</text>
<text text-anchor="start" x="295" y="-573.5" font-family="Times,serif" font-size="10.00"> place_9</text>
<polygon fill="none" stroke="black" points="156,-568 156,-635 332,-635 332,-568 156,-568"/>
</g>
<!-- [ns&#45;0]finish_spying_choice -->
<g id="node13" class="node"><title>[ns&#45;0]finish_spying_choice</title>
<polygon fill="#ddddff" stroke="none" points="163,-250 163,-278 339,-278 339,-250 163,-250"/>
<text text-anchor="start" x="165" y="-269" font-family="Times,serif" font-style="italic" font-size="10.00">[ns&#45;0]finish_spying_choice</text>
<text text-anchor="start" x="165" y="-255" font-family="Times,serif" font-size="10.00">Варианты выбора завершения шпионажа</text>
<polygon fill="none" stroke="black" points="163,-250 163,-278 339,-278 339,-250 163,-250"/>
</g>
<!-- [ns&#45;0]success_spying&#45;&gt;[ns&#45;0]finish_spying_choice -->
<g id="edge4" class="edge"><title>[ns&#45;0]success_spying:[ns&#45;0]success_spying&#45;&gt;[ns&#45;0]finish_spying_choice:[ns&#45;0]finish_spying_choice</title>
<path fill="none" stroke="black" d="M244.684,-567.72C246.093,-500.183 249.29,-346.963 250.512,-288.378"/>
<polygon fill="black" stroke="black" points="254.014,-288.349 250.723,-278.278 247.015,-288.203 254.014,-288.349"/>
</g>
<!-- [ns&#45;0]blackmail_finish -->
<g id="node7" class="node"><title>[ns&#45;0]blackmail_finish</title>
<polygon fill="#eeeeee" stroke="none" points="8,-4 8,-97 274,-97 274,-4 8,-4"/>
<text text-anchor="start" x="10" y="-87.5" font-family="Times,serif" font-style="italic" font-size="10.00">[ns&#45;0]blackmail_finish</text>
<text text-anchor="start" x="10" y="-73.5" font-family="Times,serif" font-size="10.00">Шантажировать самостоятельно</text>
<polygon fill="#dddddd" stroke="none" points="9,-56.5 9,-69.5 273,-69.5 273,-56.5 9,-56.5"/>
<text text-anchor="start" x="10" y="-61.5" font-family="Times,serif" font-size="10.00">hero </text>
<text text-anchor="start" x="31" y="-61.5" font-family="Times,serif" font-weight="bold" font-size="10.00">находится в</text>
<text text-anchor="start" x="86" y="-61.5" font-family="Times,serif" font-size="10.00"> place_9</text>
<polygon fill="#ffffff" stroke="none" points="9,-43.5 9,-56.5 273,-56.5 273,-43.5 9,-43.5"/>
<text text-anchor="start" x="10" y="-48.5" font-family="Times,serif" font-weight="bold" font-size="10.00">выдать награду </text>
<text text-anchor="start" x="85" y="-48.5" font-family="Times,serif" font-size="10.00">  hero </text>
<text text-anchor="start" x="110" y="-48.5" font-family="Times,serif" font-weight="bold" font-size="10.00">типа </text>
<text text-anchor="start" x="134" y="-48.5" font-family="Times,serif" font-size="10.00"> blackmail_finish </text>
<text text-anchor="start" x="208" y="-48.5" font-family="Times,serif" font-weight="bold" font-size="10.00">в размере</text>
<text text-anchor="start" x="251" y="-48.5" font-family="Times,serif" font-size="10.00"> 1.25</text>
<polygon fill="#eeeeee" stroke="none" points="9,-30.5 9,-43.5 273,-43.5 273,-30.5 9,-30.5"/>
<text text-anchor="start" x="10" y="-35.5" font-family="Times,serif" font-weight="bold" font-size="10.00">результаты:</text>
<text text-anchor="start" x="10" y="-22.5" font-family="Times,serif" font-weight="bold" font-size="10.00">person_1</text>
<text text-anchor="start" x="175" y="-21.5" font-family="Times,serif" font-size="10.00">neutral</text>
<text text-anchor="start" x="10" y="-9.5" font-family="Times,serif" font-weight="bold" font-size="10.00">person_9</text>
<text text-anchor="start" x="175" y="-8.5" font-family="Times,serif" font-size="10.00">failed</text>
<polygon fill="none" stroke="black" points="8,-4 8,-97 274,-97 274,-4 8,-4"/>
</g>
<!-- [ns&#45;0]open_up_finish -->
<g id="node8" class="node"><title>[ns&#45;0]open_up_finish</title>
<polygon fill="#eeeeee" stroke="none" points="871,-420 871,-513 1133,-513 1133,-420 871,-420"/>
<text text-anchor="start" x="873" y="-503.5" font-family="Times,serif" font-style="italic" font-size="10.00">[ns&#45;0]open_up_finish</text>
<text text-anchor="start" x="873" y="-489.5" font-family="Times,serif" font-size="10.00">Завершить задание и остатсья в городе цели</text>
<polygon fill="#dddddd" stroke="none" points="872,-472.5 872,-485.5 1132,-485.5 1132,-472.5 872,-472.5"/>
<text text-anchor="start" x="873" y="-477.5" font-family="Times,serif" font-size="10.00">hero </text>
<text text-anchor="start" x="894" y="-477.5" font-family="Times,serif" font-weight="bold" font-size="10.00">находится в</text>
<text text-anchor="start" x="949" y="-477.5" font-family="Times,serif" font-size="10.00"> place_9</text>
<polygon fill="#ffffff" stroke="none" points="872,-459.5 872,-472.5 1132,-472.5 1132,-459.5 872,-459.5"/>
<text text-anchor="start" x="873" y="-464.5" font-family="Times,serif" font-weight="bold" font-size="10.00">выдать награду </text>
<text text-anchor="start" x="948" y="-464.5" font-family="Times,serif" font-size="10.00">  hero </text>
<text text-anchor="start" x="973" y="-464.5" font-family="Times,serif" font-weight="bold" font-size="10.00">типа </text>
<text text-anchor="start" x="997" y="-464.5" font-family="Times,serif" font-size="10.00"> open_up_finish </text>
<text text-anchor="start" x="1067" y="-464.5" font-family="Times,serif" font-weight="bold" font-size="10.00">в размере</text>
<text text-anchor="start" x="1110" y="-464.5" font-family="Times,serif" font-size="10.00"> 1.00</text>
<polygon fill="#eeeeee" stroke="none" points="872,-446.5 872,-459.5 1132,-459.5 1132,-446.5 872,-446.5"/>
<text text-anchor="start" x="873" y="-451.5" font-family="Times,serif" font-weight="bold" font-size="10.00">результаты:</text>
<text text-anchor="start" x="873" y="-438.5" font-family="Times,serif" font-weight="bold" font-size="10.00">person_1</text>
<text text-anchor="start" x="1028" y="-437.5" font-family="Times,serif" font-size="10.00">failed</text>
<text text-anchor="start" x="873" y="-425.5" font-family="Times,serif" font-weight="bold" font-size="10.00">person_9</text>
<text text-anchor="start" x="1028" y="-424.5" font-family="Times,serif" font-size="10.00">successed</text>
<polygon fill="none" stroke="black" points="871,-420 871,-513 1133,-513 1133,-420 871,-420"/>
</g>
<!-- [ns&#45;0]report_data -->
<g id="node9" class="node"><title>[ns&#45;0]report_data</title>
<polygon fill="#eeeeee" stroke="none" points="308,-4 308,-97 552,-97 552,-4 308,-4"/>
<text text-anchor="start" x="310" y="-87.5" font-family="Times,serif" font-style="italic" font-size="10.00">[ns&#45;0]report_data</text>
<text text-anchor="start" x="310" y="-73.5" font-family="Times,serif" font-size="10.00">Сообщить сообранную информацию</text>
<polygon fill="#dddddd" stroke="none" points="309,-56.5 309,-69.5 551,-69.5 551,-56.5 309,-56.5"/>
<text text-anchor="start" x="310" y="-61.5" font-family="Times,serif" font-size="10.00">hero </text>
<text text-anchor="start" x="331" y="-61.5" font-family="Times,serif" font-weight="bold" font-size="10.00">находится в</text>
<text text-anchor="start" x="386" y="-61.5" font-family="Times,serif" font-size="10.00"> place_1</text>
<polygon fill="#ffffff" stroke="none" points="309,-43.5 309,-56.5 551,-56.5 551,-43.5 309,-43.5"/>
<text text-anchor="start" x="310" y="-48.5" font-family="Times,serif" font-weight="bold" font-size="10.00">выдать награду </text>
<text text-anchor="start" x="385" y="-48.5" font-family="Times,serif" font-size="10.00">  hero </text>
<text text-anchor="start" x="410" y="-48.5" font-family="Times,serif" font-weight="bold" font-size="10.00">типа </text>
<text text-anchor="start" x="434" y="-48.5" font-family="Times,serif" font-size="10.00"> report_data </text>
<text text-anchor="start" x="486" y="-48.5" font-family="Times,serif" font-weight="bold" font-size="10.00">в размере</text>
<text text-anchor="start" x="529" y="-48.5" font-family="Times,serif" font-size="10.00"> 1.00</text>
<polygon fill="#eeeeee" stroke="none" points="309,-30.5 309,-43.5 551,-43.5 551,-30.5 309,-30.5"/>
<text text-anchor="start" x="310" y="-35.5" font-family="Times,serif" font-weight="bold" font-size="10.00">результаты:</text>
<text text-anchor="start" x="310" y="-22.5" font-family="Times,serif" font-weight="bold" font-size="10.00">person_1</text>
<text text-anchor="start" x="448" y="-21.5" font-family="Times,serif" font-size="10.00">successed</text>
<text text-anchor="start" x="310" y="-9.5" font-family="Times,serif" font-weight="bold" font-size="10.00">person_9</text>
<text text-anchor="start" x="448" y="-8.5" font-family="Times,serif" font-size="10.00">failed</text>
<polygon fill="none" stroke="black" points="308,-4 308,-97 552,-97 552,-4 308,-4"/>
</g>
<!-- [ns&#45;0]continue_spying -->
<g id="node10" class="node"><title>[ns&#45;0]continue_spying</title>
<polygon fill="#ddffdd" stroke="none" points="384.5,-695 384.5,-723 485.5,-723 485.5,-695 384.5,-695"/>
<text text-anchor="start" x="387" y="-714" font-family="Times,serif" font-style="italic" font-size="10.00">[ns&#45;0]continue_spying</text>
<text text-anchor="start" x="387" y="-700" font-family="Times,serif" font-size="10.00">Продолжить шпионаж</text>
<polygon fill="none" stroke="black" points="384.5,-695 384.5,-723 485.5,-723 485.5,-695 384.5,-695"/>
</g>
<!-- [ns&#45;0]continue_spying&#45;&gt;[ns&#45;0]success_spying -->
<g id="edge21" class="edge"><title>[ns&#45;0]continue_spying:[ns&#45;0]continue_spying&#45;&gt;[ns&#45;0]success_spying:[ns&#45;0]success_spying</title>
<path fill="none" stroke="black" d="M402.168,-694.908C385.891,-688.063 366.105,-679.205 349,-670 332.577,-661.162 315.329,-650.637 299.667,-640.559"/>
<polygon fill="black" stroke="black" points="301.436,-637.535 291.144,-635.02 297.622,-643.404 301.436,-637.535"/>
</g>
<!-- [ns&#45;0]witness -->
<g id="node11" class="node"><title>[ns&#45;0]witness</title>
<polygon fill="#ddffdd" stroke="none" points="366,-568 366,-635 542,-635 542,-568 366,-568"/>
<text text-anchor="start" x="368" y="-625.5" font-family="Times,serif" font-style="italic" font-size="10.00">[ns&#45;0]witness</text>
<text text-anchor="start" x="368" y="-611.5" font-family="Times,serif" font-size="10.00">героя заметил один из работников цели</text>
<polygon fill="#cceecc" stroke="none" points="367,-594.5 367,-607.5 541,-607.5 541,-594.5 367,-594.5"/>
<text text-anchor="start" x="368" y="-599.5" font-family="Times,serif" font-size="10.00">hero </text>
<text text-anchor="start" x="389" y="-599.5" font-family="Times,serif" font-weight="bold" font-size="10.00">находится около</text>
<text text-anchor="start" x="465" y="-599.5" font-family="Times,serif" font-size="10.00"> place_9</text>
<polygon fill="#eeffee" stroke="none" points="367,-581.5 367,-594.5 541,-594.5 541,-581.5 367,-581.5"/>
<text text-anchor="start" x="368" y="-586.5" font-family="Times,serif" font-weight="bold" font-size="10.00">сообщение:</text>
<text text-anchor="start" x="420" y="-586.5" font-family="Times,serif" font-size="10.00"> witness</text>
<polygon fill="#eeffee" stroke="none" points="367,-568.5 367,-581.5 541,-581.5 541,-568.5 367,-568.5"/>
<text text-anchor="start" x="368" y="-573.5" font-family="Times,serif" font-weight="bold" font-size="10.00">отправить </text>
<text text-anchor="start" x="418" y="-573.5" font-family="Times,serif" font-size="10.00"> hero</text>
<text text-anchor="start" x="439" y="-573.5" font-family="Times,serif" font-weight="bold" font-size="10.00">бродить около</text>
<text text-anchor="start" x="505" y="-573.5" font-family="Times,serif" font-size="10.00"> place_9</text>
<polygon fill="none" stroke="black" points="366,-568 366,-635 542,-635 542,-568 366,-568"/>
</g>
<!-- [ns&#45;0]continue_spying&#45;&gt;[ns&#45;0]witness -->
<g id="edge6" class="edge"><title>[ns&#45;0]continue_spying:[ns&#45;0]continue_spying&#45;&gt;[ns&#45;0]witness:[ns&#45;0]witness</title>
<path fill="none" stroke="black" d="M437.406,-694.638C439.643,-682.217 443.1,-663.025 446.28,-645.365"/>
<polygon fill="black" stroke="black" points="449.782,-645.67 448.109,-635.208 442.892,-644.429 449.782,-645.67"/>
</g>
<!-- [ns&#45;0]witness&#45;&gt;[ns&#45;0]witness_fight -->
<g id="edge1" class="edge"><title>[ns&#45;0]witness:[ns&#45;0]witness&#45;&gt;[ns&#45;0]witness_fight:[ns&#45;0]witness_fight</title>
<path fill="none" stroke="black" d="M448.863,-567.965C446.449,-552.68 443.519,-534.123 440.838,-517.138"/>
<polygon fill="black" stroke="black" points="444.223,-516.14 439.207,-506.808 437.309,-517.232 444.223,-516.14"/>
</g>
<!-- [ns&#45;0]spying_middle -->
<g id="node12" class="node"><title>[ns&#45;0]spying_middle</title>
<polygon fill="#ddddff" stroke="none" points="417,-863 417,-904 593,-904 593,-863 417,-863"/>
<text text-anchor="start" x="419" y="-894.5" font-family="Times,serif" font-style="italic" font-size="10.00">[ns&#45;0]spying_middle</text>
<text text-anchor="start" x="419" y="-880.5" font-family="Times,serif" font-size="10.00">Шпионаж</text>
<polygon fill="#eeeeff" stroke="none" points="418,-863.5 418,-876.5 592,-876.5 592,-863.5 418,-863.5"/>
<text text-anchor="start" x="419" y="-868.5" font-family="Times,serif" font-weight="bold" font-size="10.00">отправить </text>
<text text-anchor="start" x="469" y="-868.5" font-family="Times,serif" font-size="10.00"> hero</text>
<text text-anchor="start" x="490" y="-868.5" font-family="Times,serif" font-weight="bold" font-size="10.00">бродить около</text>
<text text-anchor="start" x="556" y="-868.5" font-family="Times,serif" font-size="10.00"> place_9</text>
<polygon fill="none" stroke="black" points="417,-863 417,-904 593,-904 593,-863 417,-863"/>
</g>
<!-- #option([ns&#45;0]spying_middle, [ns&#45;0]open_up, open_up) -->
<g id="node18" class="node"><title>#option([ns&#45;0]spying_middle, [ns&#45;0]open_up, open_up)</title>
<polygon fill="#ffffff" stroke="none" points="559,-805.5 559,-818.5 674,-818.5 674,-805.5 559,-805.5"/>
<text text-anchor="start" x="560" y="-809.5" font-family="Times,serif" font-size="10.00">open_up</text>
<polygon fill="#aadddd" stroke="none" points="559,-792.5 559,-805.5 674,-805.5 674,-792.5 559,-792.5"/>
<text text-anchor="start" x="560" y="-796.5" font-family="Times,serif" font-size="10.00">[бесчестие]</text>
<polygon fill="#eeeeee" stroke="none" points="559,-779.5 559,-792.5 674,-792.5 674,-779.5 559,-779.5"/>
<text text-anchor="start" x="560" y="-784.5" font-family="Times,serif" font-weight="bold" font-size="10.00">сообщение:</text>
<text text-anchor="start" x="612" y="-784.5" font-family="Times,serif" font-size="10.00"> start_open_up</text>
</g>
<!-- [ns&#45;0]spying_middle&#45;&gt;#option([ns&#45;0]spying_middle, [ns&#45;0]open_up, open_up) -->
<g id="edge11" class="edge"><title>[ns&#45;0]spying_middle:[ns&#45;0]spying_middle&#45;&gt;#option([ns&#45;0]spying_middle, [ns&#45;0]open_up, open_up):#option([ns&#45;0]spying_middle, [ns&#45;0]open_up, open_up)</title>
<path fill="none" stroke="black" stroke-dasharray="1,5" d="M531.587,-862.859C549.546,-849.592 573.108,-832.186 590.773,-819.136"/>
</g>
<!-- #option([ns&#45;0]spying_middle, [ns&#45;0]continue_spying, blackmail) -->
<g id="node19" class="node"><title>#option([ns&#45;0]spying_middle, [ns&#45;0]continue_spying, blackmail)</title>
<polygon fill="#555555" stroke="none" points="459.5,-817.5 392.5,-817.5 392.5,-781.5 459.5,-781.5 459.5,-817.5"/>
<polygon fill="#ffffff" stroke="none" points="401,-799.5 401,-812.5 452,-812.5 452,-799.5 401,-799.5"/>
<text text-anchor="start" x="402" y="-803.5" font-family="Times,serif" font-size="10.00">blackmail</text>
<polygon fill="#aadddd" stroke="none" points="401,-786.5 401,-799.5 452,-799.5 452,-786.5 401,-786.5"/>
<text text-anchor="start" x="402" y="-790.5" font-family="Times,serif" font-size="10.00">[бесчестие]</text>
</g>
<!-- [ns&#45;0]spying_middle&#45;&gt;#option([ns&#45;0]spying_middle, [ns&#45;0]continue_spying, blackmail) -->
<g id="edge13" class="edge"><title>[ns&#45;0]spying_middle:[ns&#45;0]spying_middle&#45;&gt;#option([ns&#45;0]spying_middle, [ns&#45;0]continue_spying, blackmail):#option([ns&#45;0]spying_middle, [ns&#45;0]continue_spying, blackmail)</title>
<path fill="none" stroke="black" stroke-dasharray="1,5" d="M485.876,-862.65C470.898,-847.103 450.538,-825.969 437.838,-812.787"/>
</g>
<!-- #option([ns&#45;0]spying_middle, [ns&#45;0]continue_spying, spy) -->
<g id="node22" class="node"><title>#option([ns&#45;0]spying_middle, [ns&#45;0]continue_spying, spy)</title>
<polygon fill="#5555aa" stroke="none" points="532,-817.5 478,-817.5 478,-781.5 532,-781.5 532,-817.5"/>
<polygon fill="#ffffff" stroke="none" points="490,-799.5 490,-812.5 521,-812.5 521,-799.5 490,-799.5"/>
<text text-anchor="start" x="491" y="-803.5" font-family="Times,serif" font-size="10.00">spy</text>
<polygon fill="#aadddd" stroke="none" points="490,-786.5 490,-799.5 521,-799.5 521,-786.5 490,-786.5"/>
<text text-anchor="start" x="491" y="-790.5" font-family="Times,serif" font-size="10.00">[честь]</text>
</g>
<!-- [ns&#45;0]spying_middle&#45;&gt;#option([ns&#45;0]spying_middle, [ns&#45;0]continue_spying, spy) -->
<g id="edge19" class="edge"><title>[ns&#45;0]spying_middle:[ns&#45;0]spying_middle&#45;&gt;#option([ns&#45;0]spying_middle, [ns&#45;0]continue_spying, spy):#option([ns&#45;0]spying_middle, [ns&#45;0]continue_spying, spy)</title>
<path fill="none" stroke="black" stroke-dasharray="1,5" d="M505,-862.65C505,-847.103 505,-825.969 505,-812.787"/>
</g>
<!-- #option([ns&#45;0]finish_spying_choice, [ns&#45;0]blackmail_finish, blackmail) -->
<g id="node15" class="node"><title>#option([ns&#45;0]finish_spying_choice, [ns&#45;0]blackmail_finish, blackmail)</title>
<polygon fill="#555555" stroke="none" points="240.5,-184 111.5,-184 111.5,-137 240.5,-137 240.5,-184"/>
<polygon fill="#ffffff" stroke="none" points="120,-166.5 120,-179.5 233,-179.5 233,-166.5 120,-166.5"/>
<text text-anchor="start" x="121" y="-170.5" font-family="Times,serif" font-size="10.00">blackmail</text>
<polygon fill="#aadddd" stroke="none" points="120,-153.5 120,-166.5 233,-166.5 233,-153.5 120,-153.5"/>
<text text-anchor="start" x="121" y="-157.5" font-family="Times,serif" font-size="10.00">[бесчестие]</text>
<polygon fill="#eeeeee" stroke="none" points="120,-140.5 120,-153.5 233,-153.5 233,-140.5 120,-140.5"/>
<text text-anchor="start" x="121" y="-145.5" font-family="Times,serif" font-weight="bold" font-size="10.00">сообщение:</text>
<text text-anchor="start" x="173" y="-145.5" font-family="Times,serif" font-size="10.00"> go_blackmail</text>
</g>
<!-- [ns&#45;0]finish_spying_choice&#45;&gt;#option([ns&#45;0]finish_spying_choice, [ns&#45;0]blackmail_finish, blackmail) -->
<g id="edge2" class="edge"><title>[ns&#45;0]finish_spying_choice:[ns&#45;0]finish_spying_choice&#45;&gt;#option([ns&#45;0]finish_spying_choice, [ns&#45;0]blackmail_finish, blackmail):#option([ns&#45;0]finish_spying_choice, [ns&#45;0]blackmail_finish, blackmail)</title>
<path fill="none" stroke="black" stroke-dasharray="1,5" d="M241.195,-249.731C228.092,-231.998 204.796,-200.471 189.89,-180.298"/>
</g>
<!-- #option([ns&#45;0]finish_spying_choice, [ns&#45;0]report_data, spy) -->
<g id="node25" class="node"><title>#option([ns&#45;0]finish_spying_choice, [ns&#45;0]report_data, spy)</title>
<polygon fill="#5555aa" stroke="none" points="462.5,-184 327.5,-184 327.5,-137 462.5,-137 462.5,-184"/>
<polygon fill="#ffffff" stroke="none" points="336,-166.5 336,-179.5 455,-179.5 455,-166.5 336,-166.5"/>
<text text-anchor="start" x="337" y="-170.5" font-family="Times,serif" font-size="10.00">spy</text>
<polygon fill="#aadddd" stroke="none" points="336,-153.5 336,-166.5 455,-166.5 455,-153.5 336,-153.5"/>
<text text-anchor="start" x="337" y="-157.5" font-family="Times,serif" font-size="10.00">[честь]</text>
<polygon fill="#eeeeee" stroke="none" points="336,-140.5 336,-153.5 455,-153.5 455,-140.5 336,-140.5"/>
<text text-anchor="start" x="337" y="-145.5" font-family="Times,serif" font-weight="bold" font-size="10.00">сообщение:</text>
<text text-anchor="start" x="389" y="-145.5" font-family="Times,serif" font-size="10.00"> go_report_data</text>
</g>
<!-- [ns&#45;0]finish_spying_choice&#45;&gt;#option([ns&#45;0]finish_spying_choice, [ns&#45;0]report_data, spy) -->
<g id="edge27" class="edge"><title>[ns&#45;0]finish_spying_choice:[ns&#45;0]finish_spying_choice&#45;&gt;#option([ns&#45;0]finish_spying_choice, [ns&#45;0]report_data, spy):#option([ns&#45;0]finish_spying_choice, [ns&#45;0]report_data, spy)</title>
<path fill="none" stroke="black" stroke-dasharray="1,5" d="M269.531,-249.938C294.75,-232.162 340.019,-200.254 368.732,-180.015"/>
</g>
<!-- [ns&#45;0]open_up -->
<g id="node14" class="node"><title>[ns&#45;0]open_up</title>
<polygon fill="#ddffdd" stroke="none" points="649.5,-682 649.5,-736 764.5,-736 764.5,-682 649.5,-682"/>
<text text-anchor="start" x="652" y="-727" font-family="Times,serif" font-style="italic" font-size="10.00">[ns&#45;0]open_up</text>
<text text-anchor="start" x="652" y="-713" font-family="Times,serif" font-size="10.00">Раскрыться</text>
<polygon fill="#cceecc" stroke="none" points="651,-696 651,-709 764,-709 764,-696 651,-696"/>
<text text-anchor="start" x="652" y="-701" font-family="Times,serif" font-size="10.00">hero </text>
<text text-anchor="start" x="673" y="-701" font-family="Times,serif" font-weight="bold" font-size="10.00">находится в</text>
<text text-anchor="start" x="728" y="-701" font-family="Times,serif" font-size="10.00"> place_9</text>
<polygon fill="#eeffee" stroke="none" points="651,-683 651,-696 764,-696 764,-683 651,-683"/>
<text text-anchor="start" x="652" y="-688" font-family="Times,serif" font-weight="bold" font-size="10.00">сообщение:</text>
<text text-anchor="start" x="704" y="-688" font-family="Times,serif" font-size="10.00"> open_up</text>
<polygon fill="none" stroke="black" points="649.5,-682 649.5,-736 764.5,-736 764.5,-682 649.5,-682"/>
</g>
<!-- [ns&#45;0]open_up&#45;&gt;[ns&#45;0]open_up_finish -->
<g id="edge26" class="edge"><title>[ns&#45;0]open_up:[ns&#45;0]open_up&#45;&gt;[ns&#45;0]open_up_finish:[ns&#45;0]open_up_finish</title>
<path fill="none" stroke="black" d="M764.942,-685.787C774.629,-681.13 784.336,-675.837 793,-670 855.98,-627.572 917.052,-565.16 956.745,-520.856"/>
<polygon fill="black" stroke="black" points="959.385,-523.154 963.416,-513.356 954.155,-518.502 959.385,-523.154"/>
</g>
<!-- #jump([ns&#45;0]open_up, [ns&#45;0]open_up_lying) -->
<g id="node20" class="node"><title>#jump([ns&#45;0]open_up, [ns&#45;0]open_up_lying)</title>
<polygon fill="#eeeeee" stroke="none" points="638,-594.5 638,-607.5 776,-607.5 776,-594.5 638,-594.5"/>
<text text-anchor="start" x="639" y="-599.5" font-family="Times,serif" font-weight="bold" font-size="10.00">сообщение:</text>
<text text-anchor="start" x="691" y="-599.5" font-family="Times,serif" font-size="10.00"> move_to_report_lie</text>
</g>
<!-- [ns&#45;0]open_up&#45;&gt;#jump([ns&#45;0]open_up, [ns&#45;0]open_up_lying) -->
<g id="edge15" class="edge"><title>[ns&#45;0]open_up:[ns&#45;0]open_up&#45;&gt;#jump([ns&#45;0]open_up, [ns&#45;0]open_up_lying):#jump([ns&#45;0]open_up, [ns&#45;0]open_up_lying)</title>
<path fill="none" stroke="black" d="M707,-681.921C707,-657.27 707,-622.072 707,-608.32"/>
</g>
<!-- #option([ns&#45;0]finish_spying_choice, [ns&#45;0]blackmail_finish, blackmail)&#45;&gt;[ns&#45;0]blackmail_finish -->
<g id="edge3" class="edge"><title>#option([ns&#45;0]finish_spying_choice, [ns&#45;0]blackmail_finish, blackmail):#option([ns&#45;0]finish_spying_choice, [ns&#45;0]blackmail_finish, blackmail)&#45;&gt;[ns&#45;0]blackmail_finish:[ns&#45;0]blackmail_finish</title>
<path fill="none" stroke="black" stroke-dasharray="1,5" d="M169.903,-140.688C166.813,-131.15 162.881,-119.019 158.921,-106.799"/>
<polygon fill="black" stroke="black" points="162.167,-105.462 155.754,-97.0278 155.508,-107.62 162.167,-105.462"/>
</g>
<!-- #option([ns&#45;0]start_spying, [ns&#45;0]spying_middle, blackmail)&#45;&gt;[ns&#45;0]spying_middle -->
<g id="edge8" class="edge"><title>#option([ns&#45;0]start_spying, [ns&#45;0]spying_middle, blackmail):#option([ns&#45;0]start_spying, [ns&#45;0]spying_middle, blackmail)&#45;&gt;[ns&#45;0]spying_middle:[ns&#45;0]spying_middle</title>
<path fill="none" stroke="black" stroke-dasharray="1,5" d="M442.38,-947.893C453.049,-937.093 466.671,-923.302 478.484,-911.343"/>
<polygon fill="black" stroke="black" points="481.026,-913.751 485.563,-904.177 476.045,-908.832 481.026,-913.751"/>
</g>
<!-- #answer(True, [ns&#45;0]witness_fight, [ns&#45;0]finish_spying_choice)&#45;&gt;[ns&#45;0]finish_spying_choice -->
<g id="edge10" class="edge"><title>#answer(True, [ns&#45;0]witness_fight, [ns&#45;0]finish_spying_choice):#answer(True, [ns&#45;0]witness_fight, [ns&#45;0]finish_spying_choice)&#45;&gt;[ns&#45;0]finish_spying_choice:[ns&#45;0]finish_spying_choice</title>
<path fill="none" stroke="black" d="M329.057,-355.282C317.494,-341.909 288.211,-308.039 268.983,-285.799"/>
<polygon fill="black" stroke="black" points="271.593,-283.467 262.405,-278.191 266.297,-288.045 271.593,-283.467"/>
</g>
<!-- #option([ns&#45;0]spying_middle, [ns&#45;0]open_up, open_up)&#45;&gt;[ns&#45;0]open_up -->
<g id="edge12" class="edge"><title>#option([ns&#45;0]spying_middle, [ns&#45;0]open_up, open_up):#option([ns&#45;0]spying_middle, [ns&#45;0]open_up, open_up)&#45;&gt;[ns&#45;0]open_up:[ns&#45;0]open_up</title>
<path fill="none" stroke="black" stroke-dasharray="1,5" d="M635.299,-779.731C646.202,-769.128 660.15,-755.563 672.841,-743.221"/>
<polygon fill="black" stroke="black" points="675.407,-745.608 680.135,-736.126 670.526,-740.589 675.407,-745.608"/>
</g>
<!-- #option([ns&#45;0]spying_middle, [ns&#45;0]continue_spying, blackmail)&#45;&gt;[ns&#45;0]continue_spying -->
<g id="edge14" class="edge"><title>#option([ns&#45;0]spying_middle, [ns&#45;0]continue_spying, blackmail):#option([ns&#45;0]spying_middle, [ns&#45;0]continue_spying, blackmail)&#45;&gt;[ns&#45;0]continue_spying:[ns&#45;0]continue_spying</title>
<path fill="none" stroke="black" stroke-dasharray="1,5" d="M427.251,-786.194C428.638,-772.558 430.906,-750.256 432.631,-733.294"/>
<polygon fill="black" stroke="black" points="436.142,-733.367 433.671,-723.064 429.178,-732.659 436.142,-733.367"/>
</g>
<!-- #jump([ns&#45;0]open_up, [ns&#45;0]open_up_lying)&#45;&gt;[ns&#45;0]open_up_lying -->
<g id="edge16" class="edge"><title>#jump([ns&#45;0]open_up, [ns&#45;0]open_up_lying):#jump([ns&#45;0]open_up, [ns&#45;0]open_up_lying)&#45;&gt;[ns&#45;0]open_up_lying:[ns&#45;0]open_up_lying</title>
<path fill="none" stroke="black" d="M707,-594.785C707,-582.342 707,-551.651 707,-523.525"/>
<polygon fill="black" stroke="black" points="710.5,-523.318 707,-513.318 703.5,-523.318 710.5,-523.318"/>
</g>
<!-- #answer(False, [ns&#45;0]witness_fight, [ns&#45;0]witness_failed)&#45;&gt;[ns&#45;0]witness_failed -->
<g id="edge18" class="edge"><title>#answer(False, [ns&#45;0]witness_fight, [ns&#45;0]witness_failed):#answer(False, [ns&#45;0]witness_fight, [ns&#45;0]witness_failed)&#45;&gt;[ns&#45;0]witness_failed:[ns&#45;0]witness_failed</title>
<path fill="none" stroke="black" d="M433,-355.282C433,-346.992 433,-330.826 433,-314.437"/>
<polygon fill="black" stroke="black" points="436.5,-314.272 433,-304.272 429.5,-314.272 436.5,-314.272"/>
</g>
<!-- #option([ns&#45;0]spying_middle, [ns&#45;0]continue_spying, spy)&#45;&gt;[ns&#45;0]continue_spying -->
<g id="edge20" class="edge"><title>#option([ns&#45;0]spying_middle, [ns&#45;0]continue_spying, spy):#option([ns&#45;0]spying_middle, [ns&#45;0]continue_spying, spy)&#45;&gt;[ns&#45;0]continue_spying:[ns&#45;0]continue_spying</title>
<path fill="none" stroke="black" stroke-dasharray="1,5" d="M495.267,-786.194C483.967,-771.909 465.145,-748.112 451.538,-730.909"/>
<polygon fill="black" stroke="black" points="454.282,-728.736 445.333,-723.064 448.792,-733.079 454.282,-728.736"/>
</g>
<!-- #option([ns&#45;0]start_spying, [ns&#45;0]open_up, open_up)&#45;&gt;[ns&#45;0]open_up -->
<g id="edge23" class="edge"><title>#option([ns&#45;0]start_spying, [ns&#45;0]open_up, open_up):#option([ns&#45;0]start_spying, [ns&#45;0]open_up, open_up)&#45;&gt;[ns&#45;0]open_up:[ns&#45;0]open_up</title>
<path fill="none" stroke="black" stroke-dasharray="1,5" d="M709.779,-947.639C709.284,-905.25 708.074,-801.837 707.426,-746.445"/>
<polygon fill="black" stroke="black" points="710.925,-746.321 707.308,-736.362 703.926,-746.403 710.925,-746.321"/>
</g>
<!-- #option([ns&#45;0]start_spying, [ns&#45;0]spying_middle, spy)&#45;&gt;[ns&#45;0]spying_middle -->
<g id="edge25" class="edge"><title>#option([ns&#45;0]start_spying, [ns&#45;0]spying_middle, spy):#option([ns&#45;0]start_spying, [ns&#45;0]spying_middle, spy)&#45;&gt;[ns&#45;0]spying_middle:[ns&#45;0]spying_middle</title>
<path fill="none" stroke="black" stroke-dasharray="1,5" d="M551.385,-947.893C543.706,-937.398 533.961,-924.08 525.387,-912.363"/>
<polygon fill="black" stroke="black" points="528.127,-910.18 519.398,-904.177 522.478,-914.314 528.127,-910.18"/>
</g>
<!-- #option([ns&#45;0]finish_spying_choice, [ns&#45;0]report_data, spy)&#45;&gt;[ns&#45;0]report_data -->
<g id="edge28" class="edge"><title>#option([ns&#45;0]finish_spying_choice, [ns&#45;0]report_data, spy):#option([ns&#45;0]finish_spying_choice, [ns&#45;0]report_data, spy)&#45;&gt;[ns&#45;0]report_data:[ns&#45;0]report_data</title>
<path fill="none" stroke="black" stroke-dasharray="1,5" d="M401.097,-140.688C404.187,-131.15 408.119,-119.019 412.079,-106.799"/>
<polygon fill="black" stroke="black" points="415.492,-107.62 415.246,-97.0278 408.833,-105.462 415.492,-107.62"/>
</g>
</g>
</svg>
